<?xml version="1.0" encoding="UTF-8" standalone="no"?>
<!DOCTYPE svg  PUBLIC '-//W3C//DTD SVG 1.1//EN'  'http://www.w3.org/Graphics/SVG/1.1/DTD/svg11.dtd'>
<svg xmlns="http://www.w3.org/2000/svg">
<defs>
<font id="TAMUni-Tamil195" horiz-adv-x="222">
<font-face underline-position="-123" font-weight="400" descent="-200" panose-1="0 0 0 0 0 0 0 0 0 0" units-per-em="1000" unicode-range="U+0020-25CC" bbox="-811 -576 1504 1016" x-height="674" underline-thickness="20" font-family="TAMUni" ascent="800" cap-height="854"/>
<missing-glyph d="M700 50v700h-600v-700h600zM50 0v800h700v-800h-700z" horiz-adv-x="800"/>
<glyph glyph-name=".notdef" d="M700 50v700h-600v-700h600zM50 0v800h700v-800h-700z" horiz-adv-x="800"/>
<glyph glyph-name=".null" horiz-adv-x="0"/>
<glyph glyph-name="nonmarkingreturn" horiz-adv-x="400"/>
<glyph glyph-name="uni0000" horiz-adv-x="0"/>
<glyph glyph-name="uni0000" horiz-adv-x="0"/>
<glyph glyph-name="space" horiz-adv-x="400" unicode=" "/>
<glyph glyph-name="exclam" d="M72 0v80h81v-80h-81zM90 142l-21 304v127h87v-127l-21 -304h-45z" unicode="!"/>
<glyph glyph-name="quotedbl" horiz-adv-x="284" unicode='&quot;' d="M186 370l-20 109v94h80v-94l-18 -109h-42zM56 370l-19 109v94h80v-94l-18 -109h-43z"/>
<glyph glyph-name="numbersign" horiz-adv-x="445" unicode="#" d="M292 353h-115l-27 -134h114zM438 153h-120l-34 -167h-67l33 167h-114l-34 -167h-67l35 167h-66v66h78l28 134h-106v66h119l35 167h66l-34 -167h115l34 167h67l-34 -167h66v-66h-80l-27 -134h107v-66z"/>
<glyph glyph-name="dollar" horiz-adv-x="445" unicode="$" d="M331 158q0 36 -17.5 57t-68.5 40v-203q37 6 61 33q25 31 25 73zM195 344v185q-36 -6 -57 -31q-23 -23 -23 -60q0 -32 19 -59q17 -20 61 -35zM411 163q0 -77 -47 -125q-22 -24 -55 -40q-34 -13 -64 -13v-71h-50v70q-52 6 -82 22q-35 19 -58.5 56.5t-29.5 100.5l78 14 q7 -58 28 -86q27 -32 64 -39v216l-40 10l-46 24q-30 16 -55 53l-12 36q-3 8 -4 18t-1 23q0 74 54 125q16 13 43.5 23.5t60.5 14.5v35h50v-34q23 0 50 -10q22 -7 45 -27q47 -40 58 -112l-80 -11q-6 43 -27 64q-14 18 -46 27v-194q29 -6 43.5 -10.5t24.5 -9.5q33 -14 54 -35 q10 -10 17.5 -22.5t15.5 -29.5q11 -31 11 -63z"/>
<glyph glyph-name="percent" horiz-adv-x="711" unicode="%" d="M539 234q-25 0 -43 -23t-18 -84q0 -52 17 -76t44 -24t44.5 23t17.5 83q0 55 -19 77q-17 24 -43 24zM417 134q0 64 31 106t90 42q52 0 88 -38.5t36 -113.5q0 -70 -36.5 -110.5t-87.5 -40.5t-87 39q-16 17 -25 47t-9 69zM169 -21l313 603h57l-312 -603h-58zM169 534 q-26 0 -43.5 -22.5t-17.5 -83.5q0 -53 17 -78q17 -22 44 -22t44 24t17 82q0 53 -17 76.5t-44 23.5zM46 435q0 61 31 104t89 43q54 0 89.5 -38.5t35.5 -112.5q0 -71 -36 -112q-18 -19 -39.5 -29t-48.5 -10q-50 0 -86 38q-15 17 -26 48q-3 14 -6 32.5t-3 36.5z"/>
<glyph glyph-name="ampersand" horiz-adv-x="534" unicode="&amp;" d="M336 123l-129 160q-57 -34 -77 -64q-9 -14 -14.5 -29t-5.5 -28q0 -35 27.5 -72.5t79.5 -37.5q31 0 65 19.5t54 51.5zM237 366q22 13 37 25t21 22q15 20 15 45q0 29 -19 48t-46 19t-47 -19q-9 -9 -14.5 -20t-5.5 -24l1 -13l5 -13l9 -17l13 -17zM380 67 q-16 -19 -35.5 -33.5t-40 -24t-42 -14.5t-46.5 -5q-89 0 -140 60q-42 50 -42 108q0 51 33.5 94.5t102.5 76.5q-17 20 -30 38t-21 32q-13 31 -13 55q0 51 40.5 89.5t102.5 38.5q56 0 94.5 -36t38.5 -86q0 -82 -108 -139l102 -131q15 31 27 80l74 -16q-19 -74 -51 -124 q37 -49 89 -88l-47 -56q-22 15 -43 34t-45 47z"/>
<glyph glyph-name="quotesingle" horiz-adv-x="153" unicode="&apos;" d="M53 370l-18 107v96h80v-96l-18 -107h-44z"/>
<glyph glyph-name="parenleft" horiz-adv-x="266" unicode="(" d="M187 -168q-29 38 -53 80t-45 93q-40 96 -40 202q0 96 29 179q18 50 45 98.5t64 97.5h51q-25 -40 -40 -68.5t-23 -47.5q-22 -51 -38 -117.5t-16 -141.5q0 -191 117 -375h-51z"/>
<glyph glyph-name="parenright" horiz-adv-x="266" unicode=")" d="M80 -168h-50q116 188 116 375q0 72 -15 143t-39 116q-11 26 -62 116h50q73 -97 108 -196q30 -87 30 -179q0 -56 -9 -104t-31 -98q-37 -96 -98 -173z"/>
<glyph glyph-name="asterisk" horiz-adv-x="311" unicode="*" d="M289 465q-24 -7 -47.5 -12.5t-47.5 -9.5q25 -22 65 -72l-53 -37q-12 15 -24 33.5t-29 46.5q-13 -25 -26 -45t-25 -35l-52 38q13 15 28 33q20 23 34 38q-15 3 -37.5 8t-54.5 14l21 64q29 -10 51.5 -20t36.5 -18l-7 95h64v-31l-3 -19l-5 -43l34 15l57 21z"/>
<glyph glyph-name="plus" horiz-adv-x="467" unicode="+" d="M200 93v157h-155v65h155v156h66v-156h156v-65h-156v-157h-66z"/>
<glyph glyph-name="comma" d="M71 0v80h80v-80q0 -44 -15 -70t-50 -44l-20 31q20 7 32.5 28.5t12.5 54.5h-40z" unicode=","/>
<glyph glyph-name="hyphen" horiz-adv-x="266" unicode="-" d="M26 172v70h216v-70h-216z"/>
<glyph glyph-name="period" d="M73 0v80h80v-80h-80z" unicode="."/>
<glyph glyph-name="slash" d="M0 -10l166 592h56l-165 -592h-57z" unicode="/"/>
<glyph glyph-name="zero" horiz-adv-x="425" unicode="0" d="M316 295q0 66 -17 106q-23 55 -67 55q-55 0 -76 -81q-13 -54 -13 -153q0 -166 52 -166q41 0 81 76.5t40 162.5zM391 382q0 -150 -46 -255q-24 -55 -74 -103q-56 -55 -97 -55q-97 0 -128 97q-12 38 -12 134q0 107 47 222t87 115q17 0 17 -10l-6 -15q-2 -3 -3 -7t-2 -7 l2 -2q5 0 36 29q29 31 72 31t75 -50.5t32 -123.5z"/>
<glyph glyph-name="one" horiz-adv-x="314" unicode="1" d="M302 548q0 -70 -46 -279q-23 -109 -41 -174.5t-32 -88.5q-19 -37 -55 -37q-34 0 -34 35q4 14 10.5 36.5t26 99.5t29.5 140.5t10 118.5q-28 -7 -77 -47q-25 -21 -37.5 -30t-21.5 -13v45l128 149q75 85 103 85q11 0 23 -12t14 -28z"/>
<glyph glyph-name="two" horiz-adv-x="424" unicode="2" d="M389 64q0 -33 -10 -39q-17 -12 -99 -28t-132 -16q-47 0 -79 18q-36 21 -36 61q0 32 68 108l124 130q68 74 68 117q0 17 -22.5 29t-52.5 12q-38 0 -69 -16.5t-31 -41.5q0 -12 -12 -14q-43 0 -43 68q0 51 38 82q38 33 94 33q75 0 128.5 -28t53.5 -85q0 -43 -33 -96 q-16 -26 -71 -98l-79 -101q-38 -50 -38 -62q0 -17 67 -17h122q44 0 44 -16z"/>
<glyph glyph-name="three" horiz-adv-x="400" unicode="3" d="M366 159q0 -68 -154 -158q-102 -58 -134 -58q-14 0 -29.5 19t-15.5 37q4 3 7 5q12 8 23 15l65 35q139 79 139 106q0 23 -82.5 49t-82.5 58q0 28 39 72q17 19 74 70q38 35 39 42q0 8 -18 8q-23 0 -82 -15l-68 -18q-3 9 -5 28q0 49 36 91q82 22 146 22q95 0 95 -57 q0 -19 -70 -109.5t-70 -115.5q0 -7 38 -25q49 -21 71 -35q39 -29 39 -66z"/>
<glyph glyph-name="four" horiz-adv-x="431" unicode="4" d="M398 213q0 -14 -41 -40l-68 -37q-8 -50 -13 -82q-8 -45 -17 -88q-15 -27 -43 -27q-34 0 -34 36q0 31 4 66.5t13 74.5l-48 -2q-64 0 -92 23q-26 24 -26 80q0 59 21.5 171.5t45.5 150.5q35 59 105 59q13 0 14 -13l-51 -140q-52 -137 -60 -214q31 -18 49 -18h54 q0 227 69 227q71 0 71 -31q0 -8 -43 -183q13 0 29 5l33 7q28 0 28 -25z"/>
<glyph glyph-name="five" horiz-adv-x="392" unicode="5" d="M374 540q0 -25 -25 -46q-25 -19 -68 -19q-12 0 -28.5 -1t-47.5 -5.5t-45 -12.5t-26.5 -38.5t-12.5 -55.5q0 -28 36 -52l75 -47q126 -77 126 -138q0 -63 -91 -112q-76 -41 -159 -41q-27 0 -51.5 24t-24.5 47q0 24 18 24q36 0 65.5 4t70.5 15q79 23 79 50q0 12 -37 43 q-14 13 -28 24q-6 5 -51 40q-50 41 -64 57q-28 37 -28 79q0 40 25 102q13 30 27 50.5t26 29.5q22 14 140 14h37.5t26.5 -2q35 -6 35 -33z"/>
<glyph glyph-name="six" horiz-adv-x="420" unicode="6" d="M386 595q-2 -3 -3 -4q-4 -6 -8 -10q-19 -12 -38 -33q-80 -84 -137 -170q-79 -118 -79 -201q0 -26 11.5 -46.5t36.5 -38.5q40 -27 79 -27q26 0 26 33q0 50 -50 128.5t-52 89.5q0 14 9 14q8 0 24 -7.5t39 -23.5q56 -36 92 -83q48 -62 48 -126q0 -39 -32 -71 q-35 -36 -85 -36q-76 0 -150 68q-85 80 -85 199q0 70 69 166q57 76 139 142q78 61 109 61q12 0 24 -6.5t13 -17.5z"/>
<glyph glyph-name="seven" horiz-adv-x="416" unicode="7" d="M381 419q0 -50 -32 -129l-62 -149q-13 -37 -19 -56q-11 -31 -19 -60l-21 -68q-12 -38 -37 -38q-36 0 -36 43q0 44 93 316q16 44 39 124q-41 32 -149 32q-31 0 -44 -10l-13 -10q-10 0 -30 27q-19 29 -19 51t21 45t47 23q24 0 98 -20.5t114 -39.5q69 -36 69 -81z"/>
<glyph glyph-name="eight" horiz-adv-x="410" unicode="8" d="M226 77q0 45 -24 69l-43 -53q-24 -30 -24 -49q0 -26 34 -26q35 0 50 17q7 7 7 42zM388 443q0 -57 -37 -116q-12 -18 -34 -45q-26 -32 -65 -76q12 -12 24 -28q6 -9 15 -23q18 -30 18 -51q0 -45 -49.5 -92.5t-108.5 -47.5q-47 0 -81 20q-38 24 -38 72q0 78 101 146 q-52 44 -69 66q-23 29 -23 66q0 42 33 76.5t83 46.5l5 -32q-25 -19 -25 -51q0 -45 55 -107q10 9 36 37q22 23 34 36q13 17 24 34.5t21 38.5q20 39 20 58q0 32 -48 32q-47 0 -88 -12q-26 -8 -52 -22q-10 -6 -14.5 -8t-9.5 -4q-20 0 -20 17q0 21 46 67q53 53 109 53 q62 0 100 -43.5t38 -107.5z"/>
<glyph glyph-name="nine" horiz-adv-x="402" unicode="9" d="M377 430q0 -16 -17 -90q-21 -88 -42 -153q-17 -50 -33.5 -91.5t-38.5 -86.5q-39 -84 -51 -84q-13 0 -27 14.5t-14 33.5q0 11 12 43q4 10 9 21q14 35 16 38q19 49 32 94t23 95q-39 -30 -65.5 -38.5t-66.5 -8.5q-31 0 -55.5 29t-24.5 60q0 76 85.5 175t164.5 99 q29 0 52 -19q27 -20 27 -39q-2 -2 -6.5 -4.5t-11.5 -4.5q-26 -6 -53 -27q-61 -45 -117 -110q-63 -71 -63 -101q4 -4 6 -4q31 0 124 80q30 27 68 66q30 30 34 31q33 0 33 -18z"/>
<glyph glyph-name="colon" d="M72 0v80h80v-80h-80zM72 334v81h80v-81h-80z" unicode=":"/>
<glyph glyph-name="semicolon" d="M71 0v80h80v-80q0 -44 -15 -70t-50 -44l-20 31q20 7 32.5 28.5t12.5 54.5h-40zM71 334v81h80v-81h-80z" unicode=";"/>
<glyph glyph-name="less" horiz-adv-x="467" unicode="&lt;" d="M427 82l-387 165v72l387 163v-79l-293 -120l293 -121v-80z"/>
<glyph glyph-name="equal" horiz-adv-x="467" unicode="=" d="M422 163h-377v66h377v-66zM422 337h-377v65h377v-65z"/>
<glyph glyph-name="greater" horiz-adv-x="467" unicode="&gt;" d="M427 247l-387 -165v80l293 121l-293 120v79l387 -163v-72z"/>
<glyph glyph-name="question" horiz-adv-x="445" unicode="?" d="M180 0v80h80v-80h-80zM184 141v21q0 39 12 72q6 21 27 45q10 13 48 47t50 53t12 43q0 40 -32.5 71.5t-78.5 31.5q-43 0 -73 -28t-42 -88l-72 8q10 79 57.5 122t128.5 43q80 0 133 -45q51 -48 51 -111q0 -38 -19 -69q-8 -16 -25.5 -35.5t-42.5 -41.5q-33 -30 -44 -45 q-7 -10 -16 -34q-6 -23 -6 -60h-68z"/>
<glyph glyph-name="at" horiz-adv-x="812" unicode="@" d="M486 254q0 51 -24.5 79.5t-61.5 28.5q-23 0 -44.5 -12.5t-41 -40t-33.5 -67.5q-12 -39 -12 -72q0 -51 23 -80t56 -29q21 0 45 12q9 6 21.5 16t22.5 22q22 25 35 64q8 20 11 38.5t3 40.5zM790 11q-12 -25 -29.5 -46.5t-42.5 -43.5q-47 -41 -116 -68q-34 -12 -73.5 -18.5 t-90.5 -6.5q-88 0 -161 22.5t-123.5 65.5t-81.5 106q-33 77 -33 161q0 96 39 183q50 105 137.5 163t214.5 58q100 0 176 -41q77 -37 124 -119q38 -68 38 -149q0 -115 -81 -203q-72 -81 -158 -81h-11l-16 2q-12 2 -20 7q-15 10 -24 26q-5 6 -8 25q-10 -12 -20.5 -20 t-29.5 -20q-33 -19 -66 -19q-36 0 -71 21q-18 11 -30.5 25.5t-23.5 39.5q-21 44 -21 93q0 63 32 126t80 95t95 32q19 0 35.5 -4.5t31.5 -14.5q27 -15 49 -46l12 54h78l-57 -266l-12 -61q0 -7 6 -15q8 -6 17 -6q21 0 52 22q21 15 38 35t32 48q25 51 25 107q0 62 -32 118 q-18 30 -41.5 51.5t-56.5 38.5t-69.5 25.5t-75.5 8.5q-90 0 -165 -42t-116 -123t-41 -167q0 -94 40 -162t118.5 -101t174.5 -33q99 0 167 33.5t106 83.5h79z"/>
<glyph glyph-name="A" horiz-adv-x="586" unicode="A" d="M220 111l-11 1q-39 0 -73 -22q0 -14 14 -28q14 -11 32 -13q11 0 38 62zM268 258h-80v-73h66zM539 -33q0 -42 -29 -85q-37 -51 -99 -51q-51 0 -104 42t-53 81q0 8 13 24q11 16 22 17q21 0 58 -21.5t52 -21.5q25 0 25 25t-39 69.5t-80 49.5q-63 -144 -123 -144t-114.5 49.5 t-54.5 96.5q0 22 25 43q21 17 53 23q-6 14 -6 65q0 81 18 131q34 23 133 23q123 0 151 -31l-21 -86q-15 -56 -33 -91q89 -19 151 -87q55 -59 55 -121zM578 407q0 -65 -4.5 -125.5t-14.5 -128.5q-17 -15 -32 -16q-27 0 -43 26q-9 35 -9 81v96q0 158 -50 158q-22 0 -50 -17 q-30 -15 -48 -39l-20 -32q-9 -15 -14 -15q-20 0 -34 14t-14 35q0 45 71 105q75 64 146 64q116 0 116 -206z"/>
<glyph glyph-name="B" horiz-adv-x="937" unicode="B" d="M665 324q0 28 3.5 49t6.5 34q6 17 26 17q38 0 49 -50v-103q0 -37 -16 -152.5t-42 -175.5q-45 -118 -159 -118q-72 0 -128 23q-67 26 -67 69q0 41 50 96q50 50 50 86q0 49 -51 49q-71 0 -101 -70l-43 -103q-27 -55 -42 -56q-14 0 -28 15t-14 31q0 9 41 127t41 166 q0 18 -2 24q-30 0 -69 -12.5t-45 -30.5q3 -13 22 -49q15 -27 15 -50q0 -39 -30 -39q-32 0 -79.5 79.5t-47.5 134.5q0 46 48.5 69t106.5 23q13 0 34.5 1t49.5 4l69 5q74 0 74 -53q0 -39 -53 -160q64 35 129 35q96 0 96 -91q0 -47 -33 -95q-7 -11 -25.5 -32.5t-47.5 -52.5 q3 -13 34 -23t64 -10l28 3q28 34 61 187q3 16 8.5 39.5t7.5 38.5q-32 0 -59 7.5t-51 25.5q-48 40 -48 103q0 85 63 160q72 84 180 84q101 0 148.5 -75.5t47.5 -250.5q0 -115 -18 -307q-7 -72 -14.5 -131t-11.5 -83q-9 -57 -47 -57q-25 0 -25 45l10 101l9 136l2 60l3 111 q0 348 -103 348q-49 0 -92 -54t-43 -114q0 -25 14.5 -44.5t35.5 -19.5q3 24 4.5 40.5t3.5 35.5z"/>
<glyph glyph-name="C" horiz-adv-x="604" unicode="C" d="M236 120l-25 2q-24 0 -82 -16q0 -17 19 -39t36 -22q33 20 52 75zM283 263q-17 12 -41 12q-26 0 -46 -6v-65h79zM526 133q0 -47 -42 -47q-32 0 -159 31q-30 -75 -59 -111q-37 -43 -90 -43q-46 0 -101 42q-62 47 -62 109q0 44 76 78v59q0 92 35 121t146 29q82 0 136 -39 l-43 -165q89 -13 105 -19q58 -13 58 -45zM625 494q0 -62 -50 -172q-43 -106 -59 -106t-39 15q-21 16 -21 26q0 6 20 38q25 39 38 67q20 46 20 88q0 25 -15.5 41.5t-37.5 16.5q-28 0 -61 -20q-14 -8 -24 -14.5t-15 -13.5l-28 -37q-4 -6 -11 -13l-5 -5q-9 0 -24.5 12.5 t-15.5 28.5q0 44 50 102q63 69 150 69q53 0 90.5 -37t37.5 -86z"/>
<glyph glyph-name="D" horiz-adv-x="815" unicode="D" d="M853 476q0 -31 -10.5 -72.5t-32.5 -96.5q-38 -103 -54 -105q-20 0 -40.5 14t-20.5 26q0 8 35 72.5t35 116.5q0 62 -55 62q-36 0 -70 -28q-15 -10 -30 -19q-9 -7 -19 -21.5t-19 -32.5q-1 -3 -3 -8q-16 0 -28.5 14t-14.5 28q0 51 56 110q64 66 144 66q51 0 89 -36t38 -90z M325 62q0 31 -21 31q-15 0 -28 -11t-15 -28q0 -45 20 -45q44 0 44 53zM749 -80q0 -118 -91 -184q-83 -59 -220 -59q-148 0 -266 89q-159 120 -159 361q0 77 13.5 150.5t41.5 149.5q46 127 117 221q64 85 104 85q24 0 45.5 -24.5t21.5 -52.5q-3 -4 -5 -6q-6 -6 -17 -15 q-25 -21 -49 -48q-69 -85 -120 -199q-64 -142 -64 -247q0 -133 31 -208.5t103 -125.5q91 -64 231 -64q80 0 129 37q54 43 54 120q0 49 -32 88.5t-82 51.5l-62 -102q-45 -70 -60 -70q-37 0 -37 54l34 64q19 37 34.5 67.5t29 64t22.5 67.5t9 57q0 21 -35 21q-61 0 -119 -32 q-73 -37 -79 -96q23 24 55 24q34 0 59 -22q26 -20 26 -50q0 -58 -52 -104q-48 -40 -92 -40q-115 0 -115 107q0 59 31.5 121t85.5 106q45 39 115 62q41 14 77 21t78 7q50 0 83.5 -15t33.5 -42q0 -37 -27 -96q-9 -21 -20 -39.5t-24 -35.5q163 -71 163 -219z"/>
<glyph glyph-name="E" horiz-adv-x="1222" unicode="E" d="M446 141l-51 76q-18 -9 -18 -50q0 -25 44 -40zM727 207q0 9 -7 31l-58 -29v-6q0 -28 28 -28q14 0 25.5 8.5t11.5 23.5zM1011 278l-3 -109l-2 -140q0 -68 -3 -110.5t-11 -66.5q-15 -52 -60 -52q-11 0 -25.5 21t-14.5 45l1 108l1 144q0 80 -20 146q-14 8 -32 8t-39 -6 q5 -13 9 -25.5t5 -19.5q0 -46 -26 -82t-75 -36q-47 0 -93 34.5t-46 69.5q0 31 18 55l46 46q-8 3 -19.5 6t-19.5 3l-36 -1q-53 0 -95 -33q21 -18 38.5 -58t17.5 -68q0 -45 -33 -71q-29 -23 -69 -23q-52 0 -97 38.5t-45 95.5q0 30 33 90q-31 28 -80 44t-81 16q-56 0 -56 -39 t24 -80q12 -22 43 -53q23 -26 23 -36t-13.5 -23t-36.5 -13q-45 0 -85.5 63.5t-40.5 139.5q0 69 39 119t91 50q62 0 125 -32l131 -77q18 15 66.5 30t77.5 15q121 0 194 -64q70 38 179 38q51 0 74 -23q21 -24 21 -84zM1207 335q0 -185 -52 -185q-17 0 -29.5 10t-13.5 25l-1 70 l-1 74q0 181 -68 181q-48 0 -77 -26q-8 -6 -12 -11q-11 -12 -24 -35t-27 -25q-21 0 -36.5 23t-15.5 48q0 46 68 90q67 39 138 39q77 0 114 -55q37 -60 37 -223z"/>
<glyph glyph-name="F" horiz-adv-x="586" unicode="F" d="M235 95q-30 3 -54 3q-54 0 -77 -15q44 -55 77 -55q24 0 54 67zM278 261q-8 7 -29 7h-12q-9 -2 -14 -2q-16 -37 -16 -93l55 -7zM547 5q0 -105 -206 -215q-26 -13 -57 -27t-74 -30l-154 -58q-152 -57 -410 -119.5t-336 -62.5q-19 0 -33.5 9t-14.5 21q0 13 14 34t30 21 q11 0 113 18l170 35q81 20 165 44t170 52q202 66 297 108q42 18 71.5 35t55.5 38q55 41 55 71q0 39 -24 60q-16 18 -69 33q-14 -36 -51 -78q-43 -46 -81 -46q-53 0 -108 40q-65 46 -65 107q0 11 27.5 39.5t57.5 34.5q11 96 16 114q10 55 29 79q29 31 101 31q109 0 171 -51 q-20 -69 -35.5 -119.5t-24.5 -76.5q200 -68 200 -141zM589 493q0 -91 -27 -226q-22 -112 -33 -130q-3 -12 -31 -12q-44 0 -44 67q0 15 12.5 91t12.5 131v30q0 19 -2 27q-5 29 -36 29q-36 0 -69 -21q-21 -10 -45 -39q-16 -20 -23 -20q-42 0 -42 44q0 22 17.5 46t55 49.5 t74.5 38t77 12.5q34 0 63 -22q40 -31 40 -95z"/>
<glyph glyph-name="G" horiz-adv-x="573" unicode="G" d="M535 -9q0 -99 -233 -211q-190 -88 -571 -190q-336 -89 -415 -89q-60 0 -60 40q0 25 31 35l191 31q213 38 447 118q99 34 180.5 69.5t147.5 73.5q152 86 152 149q0 30 -26 52t-75 22l-76 -131q-37 -62 -53 -64q-13 0 -25.5 11t-14.5 22l42 96q24 54 43 106.5t36 108.5 l-38 2q-64 0 -93 -8l-3 -24q0 -14 4.5 -30t13.5 -35l19 -40q0 -10 -12 -22q-8 -7 -23 -9q-29 0 -70 73.5t-41 124.5q0 46 35 72q38 25 151 25q194 0 194 -53q0 -16 -21 -72q-9 -22 -19.5 -45.5t-17.5 -35.5q200 -46 200 -172zM583 476q0 -31 -10.5 -72.5t-32.5 -96.5 q-38 -103 -54 -105q-20 0 -40.5 14t-20.5 26q0 8 35 72.5t35 116.5q0 62 -55 62q-36 0 -70 -28q-15 -10 -30 -19q-9 -7 -19 -21.5t-19 -32.5q-1 -3 -3 -8q-16 0 -28.5 14t-14.5 28q0 51 56 110q64 66 144 66q51 0 89 -36t38 -90z"/>
<glyph glyph-name="H" horiz-adv-x="766" unicode="H" d="M743 206q0 -46 -4 -119t-13 -171q0 -77 -10 -145t-13 -85.5t-12.5 -36t-18.5 -20.5q-40 0 -40 26l9 120q0 51 2 93q7 146 7 159q0 156 -12 239q-22 161 -93 161q-49 0 -91 -54t-42 -108q0 -35 14.5 -48.5t48.5 -13.5l25 1q9 31 38 31q15 0 32.5 -23t17.5 -44 q0 -42 -68 -120q-80 -90 -157 -90q-198 0 -315 299q-53 137 -54 150q0 19 29.5 42.5t50.5 23.5q46 0 66 -32q5 -8 19 -73q7 -34 16 -65t19 -55q36 -83 97 -144q53 -55 85 -55q66 0 101 99q-80 0 -127 36.5t-47 99.5q0 88 63 163q71 81 176 81q201 0 201 -322z"/>
<glyph glyph-name="I" horiz-adv-x="860" unicode="I" d="M837 260q0 -46 -2 -186.5t-2 -192.5l-4 -231q-6 -27 -31 -45q-17 -11 -34 -13q-32 0 -32 38l2 84l2 81v398q0 128 -10 178q-14 77 -61 77q-38 0 -69 -28q-9 -8 -17.5 -20.5t-21.5 -33.5q-17 -27 -25 -29q-20 0 -37 32q-13 28 -13 52q0 32 65 73q71 45 153 45 q22 0 55.5 -11.5t42.5 -24.5q39 -53 39 -243zM678 139q0 -75 -56 -127q-50 -45 -101 -45q-129 0 -249 12l-122 13q-76 0 -106 87l-48 364l-44 366q0 13 14.5 29t29.5 16q50 0 63 -40q3 -9 6 -48.5t3 -69.5q0 -54 6 -118q3 -29 11 -94l27 -246q14 -118 26 -133 q14 -14 115 -27q28 -3 63.5 -6.5t50.5 -3.5q182 0 182 28t-90 66t-135 38q-62 0 -62 -59q0 -7 -7 -12t-17 -5q-28 0 -49 30q-16 26 -16 49q0 42 68 88q76 52 168 52q87 0 178 -68.5t91 -135.5z"/>
<glyph glyph-name="J" horiz-adv-x="857" unicode="J" d="M834 278q0 -139 -21 -342q-24 -216 -53 -275q-14 -28 -37 -28q-14 0 -27.5 16.5t-15.5 34.5l20 88q12 50 21 100q5 29 16 94q21 132 21 241q0 224 -94 224q-54 0 -98.5 -47.5t-44.5 -108.5q0 -29 9 -44q15 -20 48 -20l1 14l1 16q0 25 16.5 42.5t34.5 17.5q59 0 59 -82 q0 -115 -71 -214q-66 -90 -126 -90q-56 0 -109 44q-31 27 -71 81q-32 44 -40 44q-29 0 -75.5 -35.5t-63.5 -35.5q-112 0 -112 316l-1 83l-1 69q0 9 18 23.5t34 14.5q30 0 30 -52q0 -58 3 -106.5t11 -100.5q17 -128 50 -128q18 0 59 34q19 16 37.5 25t34.5 9q31 0 55 -40 l37 -80q42 -72 92 -72q43 0 65 43q18 36 24 103q-81 32 -101 48q-47 34 -47 100q0 85 70 161q74 80 171 80q67 0 114 -53q57 -65 57 -212z"/>
<glyph glyph-name="K" horiz-adv-x="586" unicode="K" d="M261 272q-13 13 -74 13q-56 0 -72 -16q-12 -12 -12 -60q0 -26 6 -48t6 -39q0 -16 -11.5 -31.5t-25.5 -17.5q-64 0 -64 106q0 130 31 158q18 17 74 27.5t114 10.5q30 0 49.5 -2.5t41.5 -7.5q45 -11 53.5 -21.5t18.5 -99.5t10 -160q0 -18 -0.5 -32t-3.5 -30 q-26 -128 -77 -178q-106 -107 -498 -249q-139 -50 -370 -116q-201 -55 -236 -55q-11 0 -20.5 5.5t-11.5 16.5q0 13 11.5 25.5t27.5 12.5q20 0 337 99q236 74 343 115q187 73 281 155q33 28 54.5 59t29.5 67q13 31 19.5 65t6.5 68q0 55 -12 99.5t-26 60.5zM579 464 q0 -56 -4 -99.5t-17 -109.5q-17 -95 -26 -112q-12 -28 -33 -28q-48 0 -48 75l10 71q4 32 7 68.5t3 60.5q0 101 -38 101q-40 0 -74 -23q-22 -16 -45 -43q-18 -24 -24 -24q-14 0 -28.5 14.5t-14.5 34.5q0 43 76.5 96.5t149.5 53.5q48 0 77 -36t29 -100z"/>
<glyph glyph-name="L" horiz-adv-x="1046" unicode="L" d="M1024 274q0 -86 -6 -176.5t-20 -201.5q-28 -238 -60 -238q-18 0 -32 14q-14 11 -14 31l21 165q9 78 15 160.5t6 146.5q0 281 -103 281q-57 0 -105 -60q-40 -54 -40 -103q0 -22 22 -40q22 -16 51 -16q11 0 16 2v42q0 13 15 27q14 11 30 13q23 0 38.5 -18.5t15.5 -42.5 q0 -124 -59 -211t-137 -87q-107 0 -219 65q-40 22 -173 122q-91 66 -132 66q-37 0 -49 -55l-2 -92q0 -56 -48 -56q-18 0 -33 21t-15 48q0 119 37 194q44 87 124 87q61 0 129 -52l125 -108q71 -59 143.5 -97.5t120.5 -38.5q47 0 68 47q4 8 9.5 32.5t10.5 46.5l-23 -1 q-63 0 -111 41t-48 111q0 66 63 137q73 79 174 79q103 0 153 -88q42 -72 42 -197z"/>
<glyph glyph-name="M" horiz-adv-x="1003" unicode="M" d="M981 207q0 -115 -18 -307q-7 -72 -14.5 -131t-11.5 -83q-9 -57 -47 -57q-25 0 -25 45l10 101l9 136l2 60l3 111q0 348 -103 348q-49 0 -92 -54t-43 -114q0 -25 14.5 -44.5t35.5 -19.5v77q0 32 49 32q85 0 85 -105q0 -149 -91 -204q-46 -29 -221 -29q-18 0 -53.5 3 t-83.5 8q-86 12 -95 16q-38 15 -38 52q0 24 23 56l55 65q118 137 118 202q0 77 -126 77q-118 0 -193 -32q-63 -27 -63 -67l2 -15l2 -12q0 -12 -14 -13q-52 0 -52 66q0 64 70 118q30 23 87 39q33 9 65 14t66 5q101 0 166 -40q71 -45 71 -124q0 -75 -71 -171 q-32 -44 -111 -129q28 -9 61 -14t73 -5l101 -1q65 0 95 24q13 9 22 62q-32 0 -59 7.5t-51 25.5q-48 40 -48 103q0 85 63 160q72 84 180 84q101 0 148.5 -75.5t47.5 -250.5z"/>
<glyph glyph-name="N" horiz-adv-x="803" unicode="N" d="M514 113q0 41 -35 83.5t-82 42.5q-66 0 -66 -47q0 -67 26 -126q157 0 157 47zM670 104q0 -62 -26 -84q-20 -18 -67 -32t-71 -14l-41 -1l-46 -1q17 -37 52 -63q39 -31 75 -31q28 0 43.5 -15t15.5 -36q0 -11 -6.5 -24.5t-16.5 -14.5q-5 0 -16.5 1t-28.5 4l-47 5 q-90 0 -183 -32q-48 -17 -128 -59q-57 -32 -77 -32q-19 0 -36 14q-24 18 -24 47q0 44 142 93q123 41 171 41q14 0 42 5q-61 46 -93 108l-29 -1q-59 0 -120.5 15.5t-77.5 29.5q-30 35 -45 112l-17 150l-22 215q0 44 45 44q39 0 53 -36q9 -24 9 -81q0 -273 51 -320 q27 -24 114 -37q-31 96 -31 165q0 63 34.5 100t88.5 37q115 0 214 -84.5t99 -187.5zM781 332l-1 -87v-84q0 -33 -30 -33q-36 0 -50 33q-6 16 -14 89l-5 86q0 23 -3 46t-10 48q-17 57 -40 57q-36 0 -70 -29q-21 -19 -43 -55q-8 -13 -15 -22q-2 -3 -6 -7q-50 0 -50 51 q0 42 68 107q75 70 144 70q55 0 77 -31q48 -69 48 -239z"/>
<glyph glyph-name="O" horiz-adv-x="871" unicode="O" d="M678 -496q0 -14 -24.5 -32t-41.5 -18q-24 0 -37 14q-13 11 -13 30l3 158l3 163l7 167l8 178q0 66 -33 66q-29 0 -97.5 -34t-91.5 -34q-42 0 -127.5 77t-107.5 77t-22 -22q0 -15 31 -56q33 -39 33 -57q0 -16 -13 -29.5t-29 -13.5q-32 0 -71 45q-42 51 -42 105 q0 44 38 86.5t85 42.5q37 0 87 -43l78 -80q43 -43 65 -43q34 0 107.5 39t105.5 39q57 0 77 -33q20 -30 20 -127l-3 -216l-4 -305q0 -20 1 -42t4 -45zM856 363q0 -15 -2.5 -57.5t-2.5 -62.5l-5 -106q0 -41 -37 -41q-27 0 -41 24q-12 18 -12 42q0 77 -1 117.5t-2 74.5 q-9 104 -47 104q-26 0 -55.5 -18t-47.5 -43q-30 -42 -35 -43q-44 0 -44 51q0 38 62 96q75 69 165 69q105 0 105 -207z"/>
<glyph glyph-name="P" horiz-adv-x="827" unicode="P" d="M641 218q0 -125 -56 -228q-38 -72 -134 -153q-44 -36 -94 -70.5t-106 -67.5q-104 -58 -305 -124q-61 -19 -153 -45q-80 -22 -168 -44l-155 -34q-11 0 -24 11t-14 25q0 11 36 19q70 12 113 21q57 12 126 31q132 35 240.5 75t202.5 89q87 44 154.5 92.5t120.5 104.5 q117 122 117 247q0 112 -51 112q-35 0 -109 -89t-107 -89q-35 0 -57 52q-8 17 -31 98q-13 51 -28 52q-23 0 -36.5 -51.5t-13.5 -112.5l1 -51l1 -40q0 -21 -17 -35t-36 -14q-44 0 -44 88q0 54 11.5 104t34.5 95q50 99 120 99q33 0 58 -45l35 -82q17 -45 36 -45q18 0 57 40 q61 62 76 75q50 41 93 41q48 0 77 -39.5t29 -111.5zM822 444q0 -148 -30.5 -407t-57.5 -312q-11 -22 -33 -22q-12 0 -23 12q-8 11 -8 22l26 234q27 240 27 353q0 171 -67 171q-52 0 -87 -39l-26 -34q-11 -15 -26 -17q-21 0 -32 21t-11 48q0 49 60.5 84.5t129.5 35.5 q79 0 121 -47q37 -40 37 -103z"/>
<glyph glyph-name="Q" horiz-adv-x="916" unicode="Q" d="M467 139q0 24 -24 47q-38 -17 -56 -45q35 -23 49 -23q31 0 31 21zM779 -157q0 -23 -13 -38t-27 -17q-17 0 -35 19q-16 19 -16 36q0 56 -15 181q-20 157 -48 197q-7 10 -44 10q-35 0 -61 -20q40 -46 40 -88q0 -24 -28.5 -49t-62.5 -25q-39 0 -89 26q-58 33 -58 80 q0 48 41 85l-86 39q-48 19 -85 19t-66.5 -12.5t-29.5 -33.5q0 -52 52 -89l48 -30q23 -12 25 -27q0 -14 -12 -37q-16 -25 -32 -25q-45 0 -102 69q-60 74 -60 157q0 68 53.5 109.5t110.5 41.5q110 0 262 -126q149 67 198 67q66 0 86 -35q27 -49 43 -215q0 -37 7 -164 q4 -72 4 -105zM919 474q0 -59 -24.5 -154.5t-37.5 -96.5q-13 0 -24 2t-20 8q-19 10 -20 23q0 9 20.5 64t20.5 105q0 79 -53 79q-24 0 -56 -25q-27 -17 -39 -37l-26 -45q-12 -20 -18 -22q-17 0 -31 13.5t-14 37.5q0 53 53 115q60 72 135 72q65 0 102 -43q16 -19 24 -42t8 -54 z"/>
<glyph glyph-name="R" horiz-adv-x="1192" unicode="R" d="M1177 364q0 -81 -16 -196t-50 -269q-42 -191 -73 -191q-38 0 -38 52l21 102q26 112 39 201q21 135 21 244q0 83 -9 125q-20 81 -77 81q-56 0 -107 -55q-44 -50 -44 -101q0 -32 9 -43.5t32 -11.5q12 0 12 14l-3 21l-3 23q0 25 50 25q26 0 41.5 -15.5t15.5 -37.5 q0 -109 -71 -238q-77 -144 -162 -144q-38 0 -88 49q-21 21 -41 52.5t-34 65.5q-74 186 -117 186q-41 0 -61 -71q-14 -51 -14 -127l4 -39l4 -37q0 -20 -19 -35q-13 -9 -30 -11q-23 0 -38 38q-10 53 -57 193q-18 44 -51.5 74.5t-65.5 30.5q-62 0 -62 -86q0 -39 21 -72 q6 -9 14 -18.5t23 -23.5q21 -20 21 -32q0 -14 -19 -29q-8 -6 -17 -9.5t-18 -4.5q-41 0 -76 54q-15 27 -23 58t-8 68q0 45 9 79.5t30 63.5q46 64 136 64q66 0 115 -68q43 -61 70 -170q0 49 5.5 83t22.5 68q36 77 102 77q43 0 73 -36q23 -25 45 -84q10 -29 17.5 -51.5 t19.5 -51.5q25 -64 62 -113.5t58 -49.5q24 0 65 83q34 66 62 151q-4 -1 -15.5 -2.5t-19.5 -2.5q-53 0 -87 47q-28 42 -28 95q0 70 67 136q71 73 162 73q193 0 193 -251z"/>
<glyph glyph-name="S" horiz-adv-x="1008" unicode="S" d="M1001 103q0 -13 -13 -29q-12 -18 -25 -18t-55 -13l-28 -7q-23 -6 -32 -6q-42 -288 -65 -344q-11 -26 -28 -26q-25 0 -41 15t-16 37l25 129l28 167q-57 -12 -175 -24q-43 0 -103.5 -4.5t-69.5 -4.5q-157 0 -157 69q0 22 27 54l53 62q43 52 74 108q36 63 36 99q0 40 -33 61 q-16 11 -38 17t-50 6q-100 0 -174 -36t-74 -87q0 -26 -20 -26q-15 0 -27.5 23t-12.5 48q0 85 89 138q85 48 204 48q216 0 216 -172q0 -61 -40 -131q-10 -19 -29 -45.5t-45 -58.5q-37 -46 -39 -61q0 -19 71 -19l49 1l47 1h15q53 0 105 7l113 17v43q0 79 -17 120t-64 41 q-65 0 -65 -52q0 -43 20 -75q21 -30 21 -39q0 -15 -10.5 -28t-21.5 -15q-18 0 -46 52q-29 60 -29 125q0 66 38.5 112.5t99.5 46.5q173 0 173 -253v-58q19 0 55 10l44 11q15 0 27 -11q12 -9 13 -25zM995 536q0 -40 -21 -142.5t-34 -103.5q-30 0 -47 11t-19 26q3 8 4 14 q6 20 14 41q20 52 20 107q0 81 -57 81q-20 0 -47.5 -21t-45.5 -48l-22 -44q-9 -21 -20 -21q-18 0 -32 15q-12 15 -12 34q0 60 49 121q60 73 139 73q59 0 97 -45q34 -42 34 -98z"/>
<glyph glyph-name="T" horiz-adv-x="884" unicode="T" d="M692 281q0 -79 -96 -163q-59 -53 -192 -129t-159 -99q197 104 317 104q36 0 63.5 -22t27.5 -53q0 -74 -90 -167q-55 -55 -180 -145q-21 -15 -81 -52q-32 -20 -50 -29.5t-25 -10.5q-16 0 -16 20q0 12 37 39l83 58q198 150 198 232q0 54 -31 54q-73 0 -198 -51 q-138 -58 -220 -135q-25 -25 -67 -86q-28 -39 -53 -39q-17 0 -35 20q-14 20 -16 37q0 28 19 69.5t51 69.5q26 22 63.5 48.5t79.5 49.5l153 86q38 23 74.5 47t93.5 66q72 51 82 62q33 30 33 70q0 30 -29 30q-34 0 -94 -61t-92 -61q-25 0 -46 50l-25 91q-13 50 -28 50 q-28 0 -68 -51t-40 -104v-48l30 -9v-24q-27 -23 -60 -23q-36 0 -65 29q-28 31 -28 58q0 78 77 164q87 93 189 93q51 0 77 -106q2 -16 3.5 -22.5t5 -20.5t13.5 -16q18 0 41 23l47 48q72 69 132 69q46 0 73 -37q10 -15 15.5 -33.5t5.5 -39.5zM878 449q0 -178 -32 -427 q-15 -124 -28 -196.5t-26 -101.5t-45 -29q-24 0 -24 37l27 237q27 243 27 357q0 82 -7 113q-15 60 -62 60q-50 0 -80 -21q-5 -4 -16.5 -17t-20.5 -24q-8 -13 -25 -15q-13 0 -30 23q-15 24 -15 49q0 53 64 81t134 28q76 0 120 -45q39 -42 39 -109z"/>
<glyph glyph-name="U" horiz-adv-x="1475" unicode="U" d="M1280 294q0 -139 -105 -282q-101 -135 -253 -215q-136 -72 -375 -139q-101 -28 -185.5 -48.5t-197.5 -42.5q-167 -33 -200 -33q-35 0 -35 26q0 22 30 31l300 62q334 79 552 186q341 168 341 368q0 37 -9.5 53.5t-36.5 16.5q-33 0 -125 -98.5t-122 -98.5q-38 0 -68 94 l-23 80q-12 39 -26 40q-30 0 -48 -58q-5 -16 -9.5 -46.5t-9.5 -68.5q-9 -70 -18 -84q-37 -54 -173 -54q-72 0 -125 19q-69 25 -69 73q0 34 74.5 123t74.5 140q0 23 -35 37q-30 10 -65 10q-91 0 -159 -15q-86 -22 -86 -66q0 -6 6 -18.5t6 -18.5q0 -13 -7.5 -23t-19.5 -12 q-28 0 -48 23q-18 26 -18 61q0 71 87 122.5t225 51.5q101 0 165 -41q58 -38 58 -91q0 -47 -57 -128q-16 -22 -42 -53q-16 -19 -48 -56q28 -26 89 -26q50 0 85 7q6 15 12.5 39t10.5 42q12 60 26 88q20 46 62 84q46 38 93 38q41 0 68 -35l31 -87q23 -69 40 -69q12 0 41 39 l56 82q37 51 60 70q38 32 97 32q54 0 83 -41q25 -32 25 -90zM1470 482q0 -116 -45 -375t-69 -320q-8 -20 -17.5 -29.5t-22.5 -9.5q-34 0 -34 31q0 14 36 226q48 294 48 383q0 71 -6 97q-12 53 -56 53q-49 0 -77 -22q-10 -10 -31 -41q-15 -20 -32 -22q-16 0 -31 22 q-4 6 -7 15q-6 16 -6 34q0 46 64 82t136 36q67 0 108.5 -43t41.5 -117z"/>
<glyph glyph-name="V" horiz-adv-x="1284" unicode="V" d="M529 37q0 18 -11 38.5t-33 26.5l-4 -20q0 -22 18 -43q13 -14 26 -16q1 2 2.5 6t1.5 8zM216 101q-27 0 -50.5 -5.5t-53.5 -20.5q10 -40 47 -40q6 1 10 1q20 6 47 65zM266 252q-35 0 -79 -20l-12 -48l79 10zM1258 77q0 -34 -115 -64q0 -31 -14 -90t-21 -91 q-32 -131 -45.5 -157t-36.5 -26q-11 0 -20 12.5t-9 27.5l28 116q29 116 29 188q-93 -15 -189 -15h-25h-20h-16h-13q-46 0 -60 5q-70 12 -70 63l27 71q28 73 28 124q0 42 -10 59q-15 27 -58 27q-108 0 -162 -152q144 -56 144 -166q0 -87 -90 -87q-68 0 -106 63 q-14 25 -20.5 56t-6.5 67h-85l-59 -108q-40 -60 -76 -60q-63 0 -124 44q-58 46 -58 91q0 35 19 54q6 7 45 29q0 31 1.5 54t5.5 55q11 64 26 82q8 10 63 24t93 14q39 0 84.5 -15t52.5 -29l3 -15q0 -26 -43 -137l60 -4q9 101 80 178q78 85 184 85q65 0 103.5 -39t38.5 -97 q0 -71 -25 -139l-38 -93q25 -11 66.5 -17t97.5 -6q33 0 140 10q-9 102 -11 107q-13 58 -59 58q-22 0 -37 -17q-14 -19 -14 -44q0 -20 15 -43q15 -20 15 -29q0 -32 -31 -32q-28 0 -49 46.5t-21 104.5q0 63 41 116.5t102 53.5q65 0 101 -80q27 -67 27 -155v-70q53 17 89 17 q28 0 28 -25zM1290 504q0 -63 -22.5 -158.5t-35.5 -95.5q-24 0 -43 10.5t-21 20.5q0 18 20 67t20 102q0 83 -57 83q-18 0 -49 -20q-25 -18 -44 -45l-23 -44q-10 -21 -20 -22q-12 0 -27.5 12.5t-16.5 27.5q0 75 60 138.5t137 63.5q52 0 87 -42.5t35 -97.5z"/>
<glyph glyph-name="W" horiz-adv-x="545" unicode="W" d="M219 111q-30 0 -51.5 -6t-38.5 -17q26 -40 51 -40q18 0 39 63zM269 257h-83v-72h68zM586 583q0 -70 -69 -120q-56 -40 -98 -40q-44 0 -44 42q0 9 9 21t17 13q65 0 65 35q0 9 -9 15t-25 8q-51 0 -91 -55q-32 -44 -32 -79q0 -23 -8 -32q-5 -8 -27 -14l28 3q55 0 87 -31 q-34 -133 -54 -177q85 -19 143.5 -81.5t58.5 -127.5q0 -51 -34 -92q-37 -46 -87 -46q-61 0 -112.5 40.5t-51.5 85.5q0 13 13 25.5t22 13.5q18 0 55 -20q17 -10 32 -16t25 -6q25 0 25 21q0 30 -44 77t-78 47q-63 -142 -119 -142q-59 0 -114.5 49t-55.5 95q0 49 75 70l-2 23 l-2 30q0 91 19 145q20 11 53 15t89 4q-3 15 -3 38q0 76 39 148q62 109 192 109q47 0 80 -30t33 -64z"/>
<glyph glyph-name="X" horiz-adv-x="767" unicode="X" d="M663 284q13 27 21.5 36.5t19.5 9.5q2 0 14 -2q15 0 21 -8q11 -15 11 -49q0 -37 -16 -152.5t-42 -175.5q-45 -118 -159 -118q-72 0 -128 23q-67 26 -67 69q0 41 50 96q50 50 50 86q0 49 -51 49q-71 0 -101 -70l-43 -103q-27 -55 -42 -56q-14 0 -28 15t-14 31q0 9 41 127 t41 166q0 18 -2 24q-30 0 -69 -12.5t-45 -30.5q3 -13 22 -49q15 -27 15 -50q0 -39 -30 -39q-32 0 -79.5 79.5t-47.5 134.5q0 46 48.5 69t106.5 23q13 0 34.5 1t49.5 4l69 5q74 0 74 -53q0 -39 -53 -160q64 35 129 35q96 0 96 -91q0 -47 -33 -95q-7 -11 -25.5 -32.5 t-47.5 -52.5q3 -13 34 -23t64 -10l28 3q28 34 61 187q2 13 3.5 16l3.5 7q-63 24 -94 82t-31 148q0 58 15.5 105t48.5 89q71 94 183 94q52 0 84 -39q29 -32 29 -82q0 -63 -67 -129.5t-131 -66.5q-37 0 -37 23q0 24 16 34l38 18q50 32 50 84q0 43 -33 43q-25 0 -68 -41 q-52 -54 -52 -126q0 -69 7 -100q12 -52 51 -80q1 3 4 35.5t3 44.5z"/>
<glyph glyph-name="Y" horiz-adv-x="539" unicode="Y" d="M238 110l-25 2q-24 0 -82 -16q0 -15 19 -38t36 -23q32 19 52 75zM285 253q-17 12 -41 12q-26 0 -46 -6v-65h79zM607 586q0 -67 -72 -120q-56 -41 -95 -41q-45 0 -45 42q0 8 10 20.5t18 14.5q63 0 63 35q0 9 -8.5 15t-24.5 8q-75 0 -117 -105l-8 -41q0 -17 -14 -26 q33 -5 56 -13.5t41 -23.5l-46 -164q41 -6 69 -10.5t36 -7.5q58 -15 58 -45q0 -48 -42 -48q-32 0 -159 31q-14 -36 -30 -65.5t-29 -45.5q-38 -43 -90 -43q-44 0 -101 42q-62 47 -62 109q0 44 76 78v59q0 80 28.5 113t105.5 33l42 -2q-3 8 -3 45q0 80 45 150q61 100 184 100 q48 0 81 -30.5t33 -63.5z"/>
<glyph glyph-name="Z" horiz-adv-x="742" unicode="Z" d="M625 352q32 -15 32 -42q0 -37 -27 -96q-9 -21 -20 -39.5t-24 -35.5q163 -71 163 -219q0 -118 -91 -184q-83 -59 -220 -59q-148 0 -266 89q-159 120 -159 361q0 77 13.5 150.5t41.5 149.5q46 127 117 221q64 85 104 85q24 0 45.5 -24.5t21.5 -52.5q-3 -4 -5 -6 q-6 -6 -17 -15q-25 -21 -49 -48q-69 -85 -120 -199q-64 -142 -64 -247q0 -133 31 -208.5t103 -125.5q91 -64 231 -64q80 0 129 37q54 43 54 120q0 49 -32 88.5t-82 51.5l-62 -102q-45 -70 -60 -70q-37 0 -37 54l34 64q19 37 34.5 67.5t29 64t22.5 67.5t9 57q0 21 -35 21 q-61 0 -119 -32q-73 -37 -79 -96q23 24 55 24q34 0 59 -22q26 -20 26 -50q0 -58 -52 -104q-48 -40 -92 -40q-115 0 -115 107q0 59 31.5 121t85.5 106q45 39 115 62q20 7 47 15t46 11q0 78 12.5 131.5t45.5 95.5q64 81 175 81q59 0 92 -32q28 -25 28 -66q0 -65 -55 -110 q-52 -46 -121 -46q-52 0 -52 33q0 17 12.5 30.5t27.5 13.5q61 0 61 37q0 30 -37 30q-41 0 -74 -37q-47 -53 -47 -161q24 0 40.5 -1.5t38.5 -11.5zM325 62q0 31 -21 31q-15 0 -28 -11t-15 -28q0 -45 20 -45q44 0 44 53z"/>
<glyph glyph-name="bracketleft" d="M214 -163h-164v740h164v-67h-85v-607h85v-66z" unicode="["/>
<glyph glyph-name="backslash" d="M228 -14h-65l-169 600h66z" unicode="\"/>
<glyph glyph-name="bracketright" d="M174 -163h-163v66h85v607h-85v67h163v-740z" unicode="]"/>
<glyph glyph-name="asciicircum" horiz-adv-x="375" unicode="^" d="M361 266h-81l-93 225l-90 -225h-83l142 320h63z"/>
<glyph glyph-name="underscore" horiz-adv-x="445" unicode="_" d="M458 -163h-474v59h474v-59z"/>
<glyph glyph-name="grave" horiz-adv-x="154" unicode="`" d="M146 330l-18 -20h-36l-25 21l-21 23l-6 9q-7 11 -12 21l-5 14l-1 17q-1 4 -1 8q0 9 4 15q1 7 6 15.5t13 13t26 7.5h32l14 -2l11 -8l7 -11q4 -4 4 -14q0 -11 -4 -20.5t-13 -12.5l-10 -5l-9 -2h-11l1 -5l3 -10l7 -13l8 -11l10 -9l10 -9z"/>
<glyph glyph-name="a" horiz-adv-x="1038" unicode="a" d="M450 139l-50 76q-20 -9 -20 -51q0 -26 45 -40zM732 204l-4 20l-3 15l-61 -32q0 -32 31 -32q14 0 25.5 8.5t11.5 20.5zM1171 590q0 -61 -63 -115q-57 -45 -101 -45q-45 0 -45 39q0 12 8 24t22 12q21 0 38 10q20 9 20 28t-28 19q-50 0 -89 -45q-34 -43 -34 -85 q0 -23 -12 -44q10 -4 44 -4q46 0 65.5 -24.5t19.5 -84.5l-1 -108l-1 -141q0 -132 -14 -174q-14 -49 -57 -49q-16 0 -31 22q-13 23 -13 48v243q0 86 -24 154q-14 3 -29 3q-20 0 -40 -7l16 -49q0 -44 -29 -78.5t-75 -34.5q-42 0 -91 32q-22 16 -33.5 33t-11.5 35q0 33 17 57 q8 12 46 47l-32 8l-22 -2l-20 -1q-24 0 -54 -12l-42 -19q20 -17 40 -68q16 -46 16 -71q0 -35 -32 -60q-34 -23 -70 -23q-47 0 -93 35q-49 41 -49 99q0 35 31 90q-32 23 -82 40t-77 17q-56 0 -56 -37q0 -43 23 -83q15 -24 45 -54q23 -25 23 -30q0 -11 -14.5 -25.5 t-38.5 -14.5q-43 0 -84.5 65t-41.5 141q0 68 39 116t91 48q32 0 64 -8t69 -27q19 -9 47.5 -26t74.5 -46q15 14 66 30.5t81 16.5q64 0 105 -12q23 -7 45 -19t44 -31q42 20 98 31q-10 10 -10 43q0 117 64.5 192t165.5 75q39 0 75.5 -27.5t36.5 -68.5z"/>
<glyph glyph-name="b" horiz-adv-x="559" unicode="b" d="M239 102h-60q-46 -2 -69 -13q9 -20 33 -38t44 -18q22 0 52 69zM280 264q-15 8 -38 8q-11 0 -17 -1q-12 -30 -18 -95l59 -3zM597 582q0 -59 -62 -107q-56 -44 -109 -44q-49 0 -49 44q0 32 49 32q47 0 47 36q0 6 -9.5 11.5t-23.5 7.5q-64 0 -107 -64q-33 -51 -33 -104 q73 -7 107 -50l-56 -190q201 -62 201 -142q0 -51 -56.5 -109.5t-156.5 -110.5q-39 -20 -107.5 -48.5t-176.5 -69.5q-165 -64 -423 -128q-246 -61 -320 -61q-47 0 -47 33q0 10 11 25.5t32 23.5l98 19q108 19 181 38q126 30 430 135q90 30 158.5 58t113.5 53q130 70 130 133 q0 24 -38 49q-28 19 -63 26q-12 -38 -54 -80q-47 -47 -87 -47q-43 0 -102 41q-68 47 -68 103q0 17 29 46q29 27 56 32l15 114q7 57 26 80q25 28 84 28l23 -1q0 127 63.5 207t166.5 80q27 0 48 -6.5t41 -21.5q38 -29 38 -71z"/>
<glyph glyph-name="c" horiz-adv-x="533" unicode="c" d="M531 575q0 -65 -55 -110q-52 -46 -121 -46q-52 0 -52 33q0 17 12.5 30.5t27.5 13.5q61 0 61 37q0 30 -37 30q-41 0 -74 -37q-47 -53 -47 -161q68 -8 91 -16q55 -16 55 -49q0 -18 -22 -71q-10 -22 -20 -42.5t-18 -33.5q88 -21 139 -62q55 -45 55 -111q0 -97 -225 -203 q-148 -68 -618 -194q-315 -83 -371 -83q-66 0 -66 37q0 18 13 27q7 7 34 14l104 15q70 11 148.5 29t169.5 44q267 73 456 159q228 102 228 180q0 29 -26 55q-29 24 -72 24l-77 -128q-42 -62 -54 -64q-14 0 -26.5 11t-14.5 22l45 95q46 101 80 212q-41 6 -71 6q-33 0 -60 -8 l-4 -28q0 -28 17 -62l19 -34q0 -12 -11.5 -23.5t-23.5 -11.5q-31 0 -69 75t-38 127q0 6 1.5 13.5t10.5 25.5t29 31q36 22 124 22q0 78 12.5 131.5t45.5 95.5q64 81 175 81q59 0 92 -32q28 -25 28 -66z"/>
<glyph glyph-name="d" horiz-adv-x="629" unicode="d" d="M686 478q0 -62 -85 -131q-75 -58 -109 -58q-9 0 -18 9q-6 8 -8 17q0 14 53.5 54.5t53.5 76.5q0 14 -11.5 25.5t-26.5 11.5q-50 0 -85 -52.5t-35 -120.5q0 -115 70 -149q24 77 45 77q20 0 41 -24q18 -26 18 -47q0 -18 -31 -67q-21 -31 -38 -51q-21 -24 -44 -43 q-56 -47 -109 -47q-198 0 -315 297q-53 137 -54 151q0 19 30 42t49 23q46 0 66 -32q9 -15 21.5 -81.5t31.5 -110.5q37 -85 94 -143q53 -55 90 -55q40 0 72 50q-63 41 -89 90.5t-26 117.5q0 116 65 207q69 96 171 96q53 0 86 -41q27 -38 27 -92z"/>
<glyph glyph-name="e" horiz-adv-x="690" unicode="e" d="M692 540q0 -55 -56.5 -103.5t-125.5 -48.5q-37 0 -37 40q0 37 45 37q16 0 34 8.5t18 26.5q0 13 -9 23t-20 11q-56 0 -90 -54q-27 -44 -27 -99l2 -25q46 -11 83 -29t78 -50q88 -65 88 -131q0 -77 -56.5 -124.5t-147.5 -47.5q-41 0 -79 3q-53 7 -86 10l-138 13 q-101 0 -129 87l-43 367l-40 371q0 15 15 27.5t35 12.5q29 0 43 -18q9 -12 19 -57q3 -43 5 -79.5t2 -79.5q0 -154 15 -279q1 -11 17 -105q11 -113 28 -132q11 -12 103 -27q27 -4 68 -8.5t58 -4.5h22h17h14h12q13 0 28.5 0.5t30.5 3.5q58 6 58 25q0 24 -92.5 65t-129.5 41 q-65 0 -65 -56q0 -28 -19 -28q-29 0 -50.5 26t-21.5 59q0 39 57 83q64 47 137 56q-13 7 -13 25v35q0 81 49 148q65 89 193 89q38 0 69.5 -29t31.5 -78z"/>
<glyph glyph-name="f" horiz-adv-x="760" unicode="f" d="M783 548q0 -74 -68 -146q-64 -67 -121 -67q-33 0 -33 31q0 12 14 24l31 22q51 37 51 85q0 43 -36 43q-27 0 -65 -45q-44 -53 -44 -127q0 -49 17.5 -97t45.5 -68l4 46q0 18 15 39t37 21q60 0 60 -89q0 -116 -67 -206.5t-132 -90.5q-29 0 -55 10t-52 33q-30 24 -69 78 q-29 41 -38 43q-26 0 -73 -36.5t-69 -36.5q-44 0 -74 59q-40 77 -40 257v152q0 12 18 24q8 5 17.5 8.5t17.5 4.5q27 0 27 -32q0 -122 15.5 -237.5t52.5 -115.5q21 0 57 35q39 34 73 34q31 0 55 -41l38 -81q39 -67 89 -67q46 0 66 39q9 17 13.5 34t4.5 39q-55 25 -93 93 t-38 153q0 117 66 201q70 87 180 87q43 0 76 -40q26 -33 26 -72z"/>
<glyph glyph-name="g" horiz-adv-x="428" unicode="g" d="M265 255q-10 12 -35 12h-41q-59 0 -71 -12t-12 -61v-26q3 -15 4 -22l4 -41q0 -18 -12 -33q-10 -15 -22 -16q-65 0 -65 94q0 144 28 171q18 14 59.5 25.5t88.5 11.5q-8 56 -8 91q0 99 66.5 168.5t160.5 69.5q38 0 69 -28.5t31 -77.5q0 -61 -57 -114q-52 -49 -109 -49 q-14 0 -28 9q-12 11 -12 26q0 17 12 30t29 13q18 0 32.5 12t15.5 28q0 29 -33 29q-41 0 -71 -40.5t-30 -95.5q0 -45 12 -71q35 0 70 -12q31 -9 38 -19q10 -10 19 -88.5t9 -148.5q0 -41 -5 -68q-26 -128 -77 -178q-106 -107 -498 -249q-139 -50 -370 -116q-201 -55 -236 -55 q-11 0 -20.5 5.5t-11.5 16.5q0 13 11.5 25.5t27.5 12.5q20 0 337 99q236 74 343 115q187 73 281 155q62 52 78 126q15 34 22.5 70t7.5 70q0 48 -10 85t-22 51z"/>
<glyph glyph-name="h" horiz-adv-x="867" unicode="h" d="M989 591q0 -70 -75 -133q-69 -58 -123 -58q-39 0 -39 27q0 19 16 29l33 18q12 7 19.5 13.5t20.5 24.5q18 23 18 48q0 38 -33 38q-37 0 -78 -45q-49 -55 -49 -139q0 -56 15 -106t44 -59v44q0 15 13 28q12 10 29 12q59 0 59 -68q0 -124 -59 -208.5t-145 -84.5 q-97 0 -208 63q-26 14 -68.5 43t-102.5 74q-85 64 -117 64q-41 0 -54 -37q-8 -21 -8 -72v-14v-11q0 -38 -3 -47q-5 -25 -31 -25q-33 0 -47 24q-11 22 -11 69q0 102 37 175q44 86 126 86q49 0 114 -52l130 -106q80 -64 146 -96.5t119 -32.5q41 0 59 39q5 10 12 37l8 36 q-70 24 -104 95q-28 59 -28 140q0 106 64 192q74 97 190 97q52 0 85 -40q26 -35 26 -82z"/>
<glyph glyph-name="i" horiz-adv-x="877" unicode="i" d="M918 551q0 -63 -67 -129.5t-131 -66.5q-37 0 -37 23q0 24 16 34l34 18q54 35 54 84q0 43 -33 43q-25 0 -68 -41q-52 -54 -52 -126q0 -69 7 -100q12 -52 51 -80v45q0 9 9 20q10 8 23 8q97 0 97 -85q0 -59 -21.5 -119.5t-57.5 -88t-143 -27.5q-13 0 -79 4.5t-100 4.5 q-44 0 -75.5 4t-42.5 9q-45 16 -45 55q0 19 21 48l49 59q121 140 121 216q0 74 -132 74q-94 0 -170 -27t-76 -75l1 -15l2 -13q0 -14 -24 -14q-20 0 -32 20.5t-12 47.5q0 30 21.5 66t61.5 60q83 52 226 52q85 0 146 -40q69 -44 69 -124q0 -70 -64 -162q-18 -25 -42.5 -55 t-68.5 -79q20 -8 63 -13t105 -5q108 0 131 13q23 10 32 84q-127 48 -127 226q0 58 15.5 105t48.5 89q71 94 183 94q52 0 84 -39q29 -32 29 -82z"/>
<glyph glyph-name="j" horiz-adv-x="680" unicode="j" d="M507 109q0 41 -31 81q-34 47 -88 47q-60 0 -60 -45q0 -79 24 -129h17h14q46 0 65 4q59 9 59 42zM705 585q0 -51 -54 -103.5t-114 -52.5q-14 0 -28 11q-12 12 -12 25q0 22 44 42q45 18 45 41q0 28 -28 28q-45 0 -74.5 -43t-29.5 -96q0 -57 8 -81q90 -42 146.5 -114 t56.5 -146q0 -56 -29 -81q-19 -18 -72 -33q-15 -3 -33.5 -7.5t-32.5 -4.5l-44 -1l-40 -1q16 -33 52 -63t74 -30q25 0 41.5 -13.5t16.5 -32.5q0 -14 -5 -28q-4 -18 -13 -19q-13 0 -48 6.5t-50 6.5q-86 0 -175 -31q-48 -18 -127 -59q-58 -31 -77 -31q-23 0 -38 12 q-23 17 -23 52q0 38 136 87q123 41 168 41q24 0 44 5q-57 45 -89 108q-40 0 -70 2.5t-68 10.5q-73 15 -88 32q-32 35 -46 112q0 36 -5.5 83t-7.5 65l-24 214q0 20 13 33q12 15 28 15q43 0 58 -40q8 -29 8 -117q0 -57 2 -83t9 -71q14 -103 38 -128q26 -23 112 -35 q-29 101 -29 182q0 43 35 83t87 40l25 -2l-4 47q0 114 59 191q63 82 167 82q50 0 77.5 -30t27.5 -80z"/>
<glyph glyph-name="k" horiz-adv-x="790" unicode="k" d="M832 561q0 -62 -65 -114q-56 -44 -91 -44q-23 0 -36 14.5t-13 30.5q0 31 42 31q14 0 30 10.5t16 27.5q0 20 -27 20q-51 0 -83.5 -42.5t-32.5 -113.5v-54q45 0 70 -22q31 -25 31 -69l-1 -189l-1 -278q0 -137 8 -206q5 -36 8 -51q0 -1 1 -2q0 -21 -24 -39.5t-46 -18.5 q-19 0 -32.5 13.5t-13.5 30.5v271q0 29 2 107t2 97l5 133v75q-4 46 -31 46q-26 0 -94.5 -34t-97.5 -34q-40 0 -123 75.5t-108 75.5q-22 0 -24 -15q0 -18 34 -62q16 -20 25 -33t10 -18q0 -15 -14.5 -31.5t-31.5 -18.5q-28 0 -67 45q-45 53 -45 110q0 42 38 84.5t84 42.5 q37 0 87 -43l78 -82q43 -43 69 -43q22 0 66 21q14 6 35 17t40 21q-12 39 -12 100q0 105 58 179q62 80 162 80q44 0 78.5 -29t34.5 -72z"/>
<glyph glyph-name="l" horiz-adv-x="669" unicode="l" d="M654 206q0 -111 -53 -211q-111 -203 -477 -333q-200 -69 -470 -114q-188 -30 -241 -30q-11 0 -25 8q-12 9 -12 22q0 22 22 22q36 0 146 13q147 19 254 43q305 69 495 184q258 153 258 362q0 73 -51 73q-34 0 -111.5 -79.5t-109.5 -79.5q-34 0 -54 56l-24 103 q-11 56 -25 56q-33 0 -55 -97q-17 -79 -17 -147q0 -21 -17.5 -36t-36.5 -15q-23 0 -32 27q-5 18 -5 60q0 49 13 94.5t43 95.5q60 101 130 101q35 0 58 -49l30 -89q15 -49 35 -49q17 0 58 35l77 65q45 35 87 35q50 0 80 -34.5t30 -91.5zM840 528q0 -51 -63 -105 q-57 -53 -101 -53q-59 0 -59 45q0 30 37 30q25 0 48 15q10 7 16 17t6 23q0 24 -41 24q-33 0 -65 -35q-30 -29 -47 -71l-17 -49q-7 -24 -23 -25q-42 0 -42 42q0 62 54 139q71 102 181 102q51 0 83.5 -28t32.5 -71z"/>
<glyph glyph-name="m" horiz-adv-x="775" unicode="m" d="M460 134q0 32 -24 47q-3 -1 -12 -6.5t-17 -12.5l-26 -22q25 -27 44 -27q35 0 35 21zM760 -75q0 -101 -6.5 -126.5t-35.5 -25.5q-26 0 -40 20q-13 23 -13 50q0 314 -49 373q-6 6 -39 6q-25 0 -60 -18q11 -16 24 -44q5 -13 7.5 -22t3.5 -19q0 -28 -32 -52t-61 -24 q-40 0 -85 29q-56 34 -56 81q0 50 45 85q-109 63 -168 63q-97 0 -97 -42q0 -41 30 -74q8 -7 27 -21q15 -11 31 -21q30 -21 31 -36q0 -15 -16 -37.5t-32 -22.5q-40 0 -94 69q-60 77 -60 159q0 60 48 102q52 46 130 46q99 0 250 -133q142 59 201 59q39 0 55.5 -10.5 t27.5 -37.5q33 -71 33 -376zM894 550q0 -46 -59.5 -101t-114.5 -55q-40 0 -40 38q0 16 14.5 25t30.5 9t36 17q18 18 18 36q0 25 -40 25q-36 0 -73.5 -52t-37.5 -110q0 -9 -9.5 -18.5t-23.5 -9.5q-38 0 -38 36q0 106 69 184t155 78q52 0 83 -28q30 -30 30 -74z"/>
<glyph glyph-name="n" horiz-adv-x="1010" unicode="n" d="M1090 625q0 -71 -65.5 -141t-120.5 -70q-22 0 -22 31q0 19 26 36l47 34q24 23 24 56q0 23 -29 23q-49 0 -79 -52t-30 -116q0 -72 35 -145l5 32l-2 34l-1 26q0 6 21 12q5 1 14.5 2.5t17.5 2.5q40 0 55 -15q9 -9 9 -42q0 -48 -17.5 -103t-54.5 -122q-79 -139 -153 -139 q-51 0 -101 53q-42 43 -69 110q-71 185 -114 185q-77 0 -77 -212l3 -37l4 -37q0 -19 -15 -32.5t-29 -15.5q-14 0 -22 3q-13 6 -22 33q-3 19 -5.5 33t-10.5 46q-14 71 -36 123q-15 41 -52 78q-32 32 -68 32q-28 0 -46 -24t-18 -57q0 -41 22 -73q5 -9 13.5 -19t27 -26.5 t19.5 -29.5q0 -15 -19 -30q-8 -6 -17 -9.5t-18 -4.5q-44 0 -78 59q-29 55 -29 121q0 87 39 142q44 63 129 63q62 0 111.5 -56.5t75.5 -161.5q9 84 38 140q34 70 97 70q53 0 90 -67q15 -26 57 -143q59 -161 120 -161q14 0 46 49q26 42 50 100q-100 79 -100 229q0 111 51 193 q59 92 155 92q49 0 83.5 -29t34.5 -73z"/>
<glyph glyph-name="o" horiz-adv-x="1018" unicode="o" d="M1013 626q0 -49 -50.5 -99.5t-108.5 -50.5q-52 0 -52 39q0 32 26 32q19 0 41 13t23 28q0 21 -42 21q-33 0 -71 -51t-38 -109q0 -19 6 -40q56 -6 92 -83q31 -70 31 -156q0 -44 -4 -60l63 15q39 12 49 12q13 0 22.5 -12.5t9.5 -30.5q0 -10 -12 -25.5t-23 -17.5 q-14 0 -58 -12l-59 -14l-33 -201q-20 -116 -31 -143t-28 -27q-24 0 -40.5 14t-16.5 38l25 130q25 126 25 165q-54 -11 -174.5 -23.5t-175.5 -12.5q-155 0 -155 69q0 20 25 51l52 63q21 26 38.5 51.5t35.5 56.5q34 63 34 98q0 38 -34 63q-35 23 -84 23q-91 0 -166 -33 q-85 -39 -85 -82q0 -38 -19 -38q-21 0 -33 27q-11 20 -11 50q0 86 97 137q42 22 91.5 33t110.5 11q212 0 212 -170q0 -64 -38 -130q-18 -35 -70 -101q-35 -45 -37 -61q0 -22 60 -22l52 2l51 2q59 0 122 10q63 7 115 16v38q0 163 -85 163q-66 0 -66 -42q0 -23 5 -42.5 t17 -36.5q21 -33 23 -44q0 -14 -11.5 -27.5t-22.5 -15.5q-17 0 -49 62q-29 63 -29 120q0 128 123 155l-6 65q0 89 57 161q68 83 170 83q23 0 42.5 -7t36.5 -23q35 -30 35 -74z"/>
<glyph glyph-name="p" horiz-adv-x="704" unicode="p" d="M837 602q0 -67 -69 -123q-28 -22 -50.5 -33t-40.5 -11q-20 0 -35.5 9.5t-15.5 25.5q0 44 41 44q18 0 32.5 10.5t16.5 27.5q0 20 -31 20q-51 0 -90 -53q-35 -53 -35 -115l3 -28q14 3 34 3q40 0 65.5 -30.5t25.5 -71.5q0 -97 -176 -222l-270 -172q209 111 320 111 q38 0 66 -23q28 -25 28 -61q0 -116 -273 -314q-16 -12 -40.5 -27.5t-37.5 -23.5q-62 -38 -73 -38t-11 20q0 15 33 39q41 27 79 56q74 54 128 113q70 76 70 121q0 59 -31 59q-49 0 -105 -18q-26 -8 -92.5 -36t-122 -63t-99.5 -76q-25 -25 -59 -84q-23 -38 -51 -38 q-22 0 -40 21q-11 14 -13 32q0 33 16 72q9 20 20.5 37t26.5 32q61 54 139 102l151 88q52 32 91 57q46 30 82 56q27 20 49.5 38t31.5 27q32 32 32 68q0 29 -28 29q-39 0 -97 -61.5t-87 -61.5q-27 0 -49 49l-26 91q-13 49 -28 49q-29 0 -68 -52.5t-39 -103.5v-48l31 -8v-22 q-31 -25 -60 -25q-35 0 -65 27q-28 30 -28 56q0 82 77 168q87 95 189 95q53 0 76 -109q2 -16 3.5 -22.5t4.5 -19t12 -14.5q20 0 59.5 44t67.5 53l-10 91q0 88 45 163q60 101 181 101q45 0 82 -27t37 -70z"/>
<glyph glyph-name="q" horiz-adv-x="1292" unicode="q" d="M1442 640q0 -45 -47.5 -95.5t-102.5 -50.5q-46 0 -46 30q0 33 18 33q11 0 36 15.5t25 34.5q0 20 -31 20q-32 0 -64 -43q-37 -49 -37 -118v-36q42 -6 65 -48q18 -33 18 -79q0 -142 -105 -286q-99 -135 -249 -214q-69 -36 -163.5 -71.5t-212.5 -69.5q-86 -25 -183.5 -48.5 t-202.5 -44.5q-173 -34 -201 -34q-8 0 -17 9.5t-9 20.5q0 18 27 26l300 66q336 83 551 189q338 165 338 369q0 69 -43 69q-35 0 -126.5 -99.5t-119.5 -99.5q-41 0 -71 94l-23 81q-12 38 -27 40q-29 0 -47 -60q-9 -31 -18 -108.5t-16 -89.5q-25 -37 -90 -47q-33 -5 -108 -5 q-64 0 -113 23q-56 26 -56 67q0 36 72.5 124.5t72.5 132.5q0 27 -33 42q-12 5 -28.5 8t-35.5 3q-89 0 -159 -17q-84 -23 -84 -63q0 -6 6 -18.5t6 -18.5q0 -13 -7.5 -23.5t-20.5 -11.5q-29 0 -49 23q-18 23 -18 61q0 71 86 120q92 53 227 53q101 0 161 -40t60 -92 q0 -76 -147 -238q38 -26 90 -26q47 0 85 9q8 15 20.5 76.5t27.5 91.5q20 49 60 83q47 39 96 39q40 0 67 -38q6 -8 31 -89q21 -62 42 -62q14 0 41 39l55 81q12 17 24 33q18 23 29 33q31 31 67 31q-15 27 -15 80q0 107 64 176t153 69q42 0 73.5 -35.5t31.5 -75.5z"/>
<glyph glyph-name="r" horiz-adv-x="1267" unicode="r" d="M529 38q0 19 -13 39q-11 20 -31 23l-3 -15q0 -19 15 -42q13 -17 27 -19q2 2 3.5 5.5t1.5 8.5zM217 102q-6 1 -17 1q-43 0 -87 -25q5 -19 20 -30.5t35 -11.5q17 9 49 66zM268 253h-7q-24 0 -73 -17l-12 -49l77 9zM1266 613q0 -52 -48.5 -103.5t-93.5 -51.5q-50 0 -50 41 q0 25 24 25q11 0 31 16.5t20 32.5q0 21 -24 21q-35 0 -67.5 -42.5t-32.5 -94.5q0 -17 1.5 -33.5t9.5 -37.5q48 -12 79 -79q26 -63 26 -151v-31v-22q-2 -14 -2 -20q54 17 94 17q27 0 27 -22q0 -23 -48 -46q-18 -7 -35.5 -12t-37.5 -8q0 -46 -33 -180t-47 -161t-34 -27 q-31 0 -31 41l29 118q29 118 29 190q-99 -17 -188 -17q-100 0 -133 6q-69 14 -69 62q0 5 27.5 77t27.5 121q0 42 -11 59q-14 26 -60 26q-62 0 -109 -56q-35 -46 -48 -96q140 -62 140 -164q0 -91 -90 -91q-67 0 -104 65q-14 26 -20 57t-6 67h-89q-18 -35 -26 -50 q-19 -35 -31 -55q-22 -32 -40.5 -47.5t-36.5 -15.5q-64 0 -122 45t-58 92q0 36 19 54q8 8 47 29l-2 28q0 44 11 96t22 66q7 10 60 22t93 12q45 0 89.5 -13t51.5 -27q3 -5 3 -15q0 -26 -43 -136l57 -5q14 101 79 175q74 86 182 86q72 0 111 -44q35 -40 35 -101 q0 -65 -27 -133l-39 -92q57 -23 166 -23q52 0 141 9q-9 105 -11 109q-14 57 -61 57q-48 0 -48 -57q0 -27 13 -47q12 -15 14 -26q0 -13 -9 -25q-9 -8 -19 -9q-24 0 -47 41q-24 47 -24 112q0 24 6.5 47t20.5 49q29 51 68 64q-16 40 -16 93q0 105 62 175.5t152 70.5 q41 0 72 -31.5t31 -75.5z"/>
<glyph glyph-name="s" horiz-adv-x="660" unicode="s" d="M226 70v69q0 2 -5 10l-13 3q-7 0 -11 -5l-3 -8v-71q2 -3 3.5 -6.5t6 -5.5t7.5 -2q4 0 5.5 1t3 2.5t3.5 6t3 6.5zM638 1h-279l-92 5l93 232q7 15 7 30q0 19 -20 37l-41 25q-7 6 -21 10.5t-32 7.5l-63 3q-41 0 -79.5 -45t-38.5 -100q0 -23 1 -35.5t6 -23.5l17 -33 q16 -30 36 -47q-3 12 -3 27v38q0 17 4 31t14 24q24 19 50 19h19q30 0 51 -20q9 -9 10 -12l8 -16l4 -26v-45q0 -86 -111 -86q-85 0 -128 63q-13 19 -20.5 34t-12.5 29q-9 26 -9 79q0 44 11.5 77.5t37.5 61.5q52 58 133 58q49 0 95 -7q46 -4 69 -24q13 -10 25.5 -23t25.5 -30 q33 -44 33 -84q0 -23 -12 -46l-53 -112h265v-76z"/>
<glyph glyph-name="t" horiz-adv-x="732" unicode="t" d="M424 100v178q0 39 -17 66q-13 16 -36 16q-16 3 -27 -11q-3 -5 -7 -12t-4 -18v-258h71q6 0 13 5l4 12zM524 551v19q-1 6 -3 8l-7 7l-12 4q-4 0 -10.5 -4.5t-8.5 -14.5v-19q0 -4 7 -16q3 -5 14 -5l6 2t8.5 5t5.5 14zM615 530q0 -27 -28 -48q-24 -22 -53 -22h-39 q-37 0 -67 27q-22 28 -22 65v23l1 3l-24 -17q-19 -19 -19 -41v-21q0 -12 1.5 -18.5t7 -22t15.5 -30.5q30 0 51.5 -9.5t39.5 -28.5t26.5 -45.5t8.5 -66.5v-199q0 -35 -18 -60q-11 -14 -26.5 -21.5t-36.5 -7.5h-429v440h88v-369h151v278q0 49 57 76l-4 11q-6 9 -10 23l-8 26 l-4 24v31q0 52 42 86q39 32 98 34q2 28 10 46q11 26 35 45q20 18 46.5 27.5t63.5 9.5q66 0 111 -51q41 -47 41 -105v-79q0 -44 -35 -44q-4 0 -9.5 3t-13.5 8q-7 12 -7 27v70q0 44 -29 79q-26 35 -65 35q-34 0 -59 -22q-8 -7 -11 -19l-4 -30q26 -1 46 -5q24 -5 43 -18.5 t28.5 -29t9.5 -37.5v-30z"/>
<glyph glyph-name="u" horiz-adv-x="1326" unicode="u" d="M338 90v78q0 9 -8.5 18t-24.5 11q-8 0 -20 -9q-7 -5 -9 -20v-78q0 -15 8 -22q17 -6 24 -7q9 0 21 7q7 6 9 22zM1305 112q0 -38 -33 -87q-15 -22 -33 -41t-40 -35q-12 -8 -27 -15.5t-32 -14.5q-6 -5 -27 -9l-35 -5l-25 1q-5 0 -23 9q-8 3 -18.5 9t-19.5 14q-8 10 -14 19 q-2 3 -12 22q-2 10 -4 22.5t-2 22.5q0 30 9 66l14 51q16 69 16 123v40q0 49 -27.5 97.5t-83.5 99.5t-110.5 77t-108.5 26h-72q-20 0 -39 -0.5t-45.5 -4t-35.5 -5t-38 -9.5q-86 -20 -129 -50q-23 -15 -54 -50t-69 -89q-31 -45 -50.5 -79.5t-25.5 -54.5q-15 -65 -15 -123v-40 q0 -97 110 -198q55 -51 109.5 -76.5t110.5 -25.5h71q154 0 255 61q116 69 116 198v21q0 29 -19.5 53.5t-31.5 25.5h-18q-3 0 -8.5 -1.5t-18 -5t-15.5 -7.5v-154h-88v370h-41q-18 0 -36 -15q-13 -10 -13 -35v-320h-92v298q0 30 -18 51q-20 20 -32 21h-61q-37 0 -67 -28 q-23 -22 -31 -60q25 14 53 14q34 0 65 -25q30 -27 30 -72v-90q0 -50 -38 -79q-34 -28 -82 -28q-44 0 -82 27q-19 16 -28.5 35t-9.5 45v130q0 71 56 136t134 65h50q18 0 31.5 -3t28.5 -13q22 -11 40 -29q12 14 33 28q27 17 59 17h259v-70h-120v-134q7 4 20 6l28 7h12 q61 0 99 -39q10 -8 17 -18.5t13 -23t9 -27t3 -32.5v-41q0 -160 -117.5 -245t-332.5 -85h-71q-143 0 -275 101q-154 115 -154 281v40q0 35 5.5 67t18.5 72q4 18 5.5 21.5t17.5 38.5q4 8 8 14t9 13q3 7 5 12t11 17l44 70q52 76 105 114q32 21 66.5 36t82.5 27q88 22 201 22h71 q143 0 276 -100q153 -117 153 -281v-40q0 -61 -23 -136v-11q0 -10 -11 -56q-6 -20 -6 -28t2 -12l9 -6l19 -3q5 0 13.5 4.5t16.5 9.5l32 36q5 3 6 12l2 20l-2 22l-1 25l2 20q2 4 4 6q6 8 16 16q20 14 47 14l26 -2q7 -3 12.5 -4.5t16.5 -7.5q37 -18 37 -60z"/>
<glyph glyph-name="v" horiz-adv-x="1020" unicode="v" d="M403 552q0 -25 -33 -57q-33 -30 -68 -30q-48 0 -81.5 40t-33.5 101q0 39 19 66.5t50 27.5q23 0 43 -33l19 -33q12 0 27 -7l22 -6q10 0 23 -26q3 -6 8 -18.5t5 -24.5zM1004 299q0 -101 -81 -236q-86 -142 -167 -142q-96 0 -171 191l-45 121q-22 55 -55 55q-41 0 -65 -77 q-20 -63 -20 -136l1 -27l2 -23q0 -20 -14.5 -34t-28.5 -15q-14 0 -22 3q-11 7 -20 33l-15 81q-14 73 -35 127q-44 105 -110 105q-26 0 -45 -26.5t-19 -57.5q0 -40 18 -72q6 -12 12.5 -20t23 -25t16.5 -30q0 -14 -16.5 -27.5t-33.5 -15.5q-48 0 -77 54q-24 51 -24 124 q0 43 10.5 78t32.5 65q47 63 126 63q139 0 185 -236q6 45 16.5 78.5t26.5 60.5q38 69 102 69q41 0 68 -36q20 -27 41 -90q5 -22 14.5 -53t17.5 -56q21 -70 54 -117.5t56 -47.5q27 0 76 92q56 101 56 183q0 14 -5 29l-4 20q0 6 25 15q21 6 36 6q23 0 40 -15.5t17 -37.5z"/>
<glyph glyph-name="w" horiz-adv-x="1018" unicode="w" d="M763 592q0 -25 -33 -57q-33 -30 -68 -30q-48 0 -81.5 40t-33.5 101q0 39 19 66.5t50 27.5q23 0 43 -33l19 -33q12 0 27 -7l22 -6q10 0 23 -26q3 -6 8 -18.5t5 -24.5zM1012 114q0 -8 -12 -25t-25 -17q-10 0 -50 -13l-64 -19l-33 -204q-18 -116 -28 -139q-9 -26 -28 -26 q-57 0 -57 52l21 128l28 166q-60 -14 -180.5 -26.5t-182.5 -12.5q-145 0 -145 69q0 22 21 51l51 61q20 24 38.5 51t36.5 61q35 67 35 102q0 40 -38 61q-35 21 -90 21q-96 0 -170.5 -40.5t-74.5 -86.5q0 -27 -20 -27q-16 0 -26 23q-12 21 -12 48q0 83 82 137t209 54 q217 0 217 -169q0 -63 -38 -132q-9 -18 -26.5 -45t-41.5 -60q-35 -46 -37 -62q0 -19 58 -19l41 1l36 2q62 0 138 11l127 19v45q0 79 -21 118t-74 39q-56 0 -56 -46q0 -44 23 -79q24 -33 24 -44t-12 -24.5t-24 -14.5q-17 0 -45 52q-33 64 -33 134q0 68 40.5 108.5t103.5 40.5 q80 0 126 -67q22 -34 33.5 -82.5t11.5 -110.5v-48q20 0 58 13l47 13q15 0 26 -14q12 -12 12 -28z"/>
<glyph glyph-name="x" horiz-adv-x="704" unicode="x" d="M403 552q0 -25 -33 -57q-33 -30 -68 -30q-48 0 -81.5 40t-33.5 101q0 39 19 66.5t50 27.5q23 0 43 -33l19 -33q12 0 27 -7l22 -6q10 0 23 -26q3 -6 8 -18.5t5 -24.5zM688 281q0 -79 -95 -164q-57 -51 -190 -130t-157 -100q95 53 173.5 80t140.5 27q39 0 65.5 -22 t26.5 -59q0 -120 -269 -310l-79 -52q-60 -38 -72 -38q-14 0 -16 17q0 15 34 41l81 55q75 57 134 122q64 71 64 112q0 55 -31 55q-81 0 -198 -50q-68 -30 -122 -64t-97 -74q-10 -9 -25.5 -30t-37.5 -55q-28 -39 -58 -39q-14 0 -30 20.5t-18 36.5q0 30 18 72q8 18 20.5 35.5 t26.5 30.5q32 28 64.5 51.5t76.5 48.5l153 86q44 27 90 58q24 16 81.5 55.5t81.5 62.5q30 32 30 67q0 12 -6.5 23.5t-18.5 11.5q-37 0 -97 -63t-89 -63q-27 0 -48 49q-1 4 -9 30q-12 42 -17 62q-12 48 -26 49q-29 0 -66 -49q-21 -26 -31.5 -51t-10.5 -52l1 -40q3 -13 21 -19 q4 -7 4 -12q0 -9 -7 -17q-25 -16 -49 -16q-21 0 -36 5.5t-30 19.5q-26 26 -26 60q0 80 78 164q85 91 187 91q53 0 74 -104q6 -38 8 -40q5 -18 14 -18q17 0 40 22l43 46q23 20 56 39q47 27 82 27q46 0 72 -33q9 -14 15 -31.5t6 -36.5z"/>
<glyph glyph-name="y" horiz-adv-x="1296" unicode="y" d="M883 602q0 -25 -33 -57q-33 -30 -68 -30q-48 0 -81.5 40t-33.5 101q0 39 19 66.5t50 27.5q23 0 43 -33l19 -33q12 0 27 -7l22 -6q10 0 23 -26q3 -6 8 -18.5t5 -24.5zM1280 289q0 -134 -105.5 -275t-252.5 -220q-134 -70 -374 -140q-188 -53 -383 -92q-172 -34 -200 -34 q-34 0 -34 27q0 22 30 31l299 63q337 81 552 187q337 165 337 368q0 69 -43 69q-34 0 -123.5 -98t-122.5 -98q-38 0 -70 92l-24 80q-12 38 -27 40q-31 0 -48 -58q-9 -32 -17.5 -109.5t-17.5 -90.5q-24 -34 -89 -46q-23 -3 -107 -3q-65 0 -117 23t-52 66q0 33 73.5 123.5 t73.5 135.5q0 50 -99 50q-92 0 -160 -15q-85 -21 -85 -66q0 -7 6 -19q6 -9 6 -17q0 -36 -26 -36q-29 0 -49 23q-17 23 -17 61q0 70 87.5 122t224.5 52q104 0 165 -42q56 -36 56 -90q0 -67 -147 -237q33 -24 85 -24h15h12q21 0 37 1t27 4l21 82q12 53 28 87q56 122 155 122 q42 0 68 -38l28 -85q23 -67 43 -67q13 0 40 38l56 85q34 49 60 67q40 32 98 32q51 0 83 -45q24 -35 24 -86z"/>
<glyph glyph-name="z" horiz-adv-x="1267" unicode="z" d="M403 552q0 -25 -33 -57q-33 -30 -68 -30q-48 0 -81.5 40t-33.5 101q0 39 19 66.5t50 27.5q23 0 43 -33l19 -33q12 0 27 -7l22 -6q10 0 23 -26q3 -6 8 -18.5t5 -24.5zM530 38q0 19 -13 38q-12 21 -31 25l-4 -18q0 -20 15 -41q14 -16 28 -18q3 3 4 6t1 8zM218 102 q-28 0 -52.5 -5.5t-51.5 -19.5q11 -41 50 -41h7q16 6 47 66zM268 254q-24 0 -81 -18l-10 -50l79 10zM1259 79q0 -25 -46 -47q-37 -15 -71 -20q0 -23 -8 -64.5t-24 -113.5q-31 -127 -47 -160q-12 -26 -34 -26q-30 0 -30 43l27 114q13 55 21 104t8 84q-108 -17 -188 -17 q-99 0 -134 6q-70 13 -70 62q0 7 28.5 77.5t28.5 120.5q0 85 -71 85q-61 0 -112 -58q-38 -47 -51 -96q71 -24 111 -72q34 -40 34 -91q0 -88 -89 -88q-67 0 -106 64q-15 27 -21.5 56.5t-6.5 66.5h-85l-60 -105q-40 -61 -74 -61q-66 0 -124 43t-58 91q0 35 18 53q9 11 46 29 q0 24 0.5 48t6.5 60q11 64 26 82q8 11 61 24q26 5 37 7q30 5 57 5q36 0 83 -13.5t54 -26.5q3 -6 3 -16q0 -32 -43 -137l61 -5q0 49 20 92t60 86q78 83 180 83q64 0 104.5 -38t40.5 -95q0 -67 -25 -139l-39 -96q24 -11 65.5 -17t100.5 -6q89 0 141 11l-13 107q-12 57 -58 57 q-50 0 -50 -57q0 -30 12 -47.5t14 -25.5q0 -36 -26 -36q-32 0 -54 52q-17 43 -17 103q0 63 40.5 115t100.5 52q67 0 101 -78q25 -64 25 -155l-1 -72q56 16 92 16q28 0 28 -20z"/>
<glyph glyph-name="braceleft" horiz-adv-x="267" unicode="{" d="M253 -172h-27q-38 0 -56 6q-25 10 -41 29t-25 54q-5 35 -5 102v17q0 55 -6 81t-25.5 40t-49.5 14v72q32 0 50 15t25 40l4 44l2 48q0 66 3 92q0 24 13 47q8 16 11 20t13.5 13.5t37.5 19.5q15 4 49 4h27v-69h-17q-17 0 -29.5 -2t-21.5 -12q-12 -14 -12 -62v-24v-19v-16v-12 v-11l-1 -29q0 -12 -4 -19q-7 -41 -24 -65q-16 -19 -48 -38q39 -18 58 -54t19 -123l1 -90q2 -13 4.5 -21t9.5 -14l15 -5q11 -4 33 -4h17v-69z"/>
<glyph glyph-name="bar" horiz-adv-x="208" unicode="|" d="M138 -172h-68v758h68v-758z"/>
<glyph glyph-name="braceright" horiz-adv-x="267" unicode="}" d="M249 171q-31 0 -50 -13.5t-25 -42.5l-4 -35l-2 -55v-15v-13v-11l-2 -48q0 -30 -15 -52q-4 -10 -9.5 -17.5t-14.5 -17.5l-15 -9l-22 -10l-20 -3l-30 -1h-26v69h16q39 0 51 14q13 12 13 63v76l3 48q4 41 26 71q17 23 47 38q-41 22 -56 54q-20 34 -20 122v48l-3 49 q0 15 -12 26t-49 11h-16v69h26q30 0 40 -1.5t27 -8t33 -26t22 -53.5l4 -42l2 -60q0 -73 6 -96.5t24 -40.5q12 -8 20 -11l12 -3l19 -1v-72z"/>
<glyph glyph-name="asciitilde" horiz-adv-x="467" unicode="~" d="M438 262q-14 -13 -26.5 -21.5t-25.5 -14t-26 -9t-34 -3.5q-28 0 -45.5 4.5t-29 9t-38.5 17.5q-47 21 -77 21q-17 0 -24.5 -1.5t-21.5 -7.5l-23 -15q-7 -5 -15.5 -13t-21.5 -23v93q44 50 112 50q9 0 21 -1.5t30 -5.5q20 -6 33 -10.5t41 -17.5l39 -14l16 -4h11q18 0 48 14 q13 7 26.5 17.5t30.5 27.5v-93z"/>
<glyph glyph-name="nonbreakingspace" horiz-adv-x="400" unicode=""/>
<glyph glyph-name="exclamdown" horiz-adv-x="735" unicode="" d="M403 552q0 -25 -33 -57q-33 -30 -68 -30q-48 0 -81.5 40t-33.5 101q0 39 19 66.5t50 27.5q23 0 43 -33l19 -33q12 0 27 -7l22 -6q10 0 23 -26q3 -6 8 -18.5t5 -24.5zM422 85q0 30 -14 40q-17 -3 -64 -28q19 -36 54 -36q24 0 24 24zM721 159q0 -84 -31 -251 q-27 -161 -49 -210q-12 -30 -44 -30q-42 0 -42 60l22 127q23 129 23 195q0 57 -8 66q-14 17 -48 17q-46 0 -56 -5q21 -38 21 -63q0 -35 -27 -59t-58 -24q-36 0 -86 38q-56 42 -56 90q0 47 64 87l-88 71q-56 36 -96 36q-71 0 -71 -43t22 -75q8 -10 41 -42q21 -20 21 -36 q0 -15 -17.5 -32.5t-35.5 -19.5q-29 0 -67 57q-42 65 -42 148q0 162 164 162q133 0 258 -195q104 16 155 16q131 0 131 -85z"/>
<glyph glyph-name="cent" horiz-adv-x="0" unicode="" d="M-194 555q0 -26 -17 -44q-19 -17 -47 -17q-29 0 -44.5 17.5t-15.5 46.5q0 27 18.5 43t43.5 16q28 0 45 -19t17 -43z"/>
<glyph glyph-name="sterling" horiz-adv-x="454" unicode="" d="M432 172l-6 -111q0 -45 -2 -64t-5 -31q-13 -47 -40 -47q-24 0 -44 12q-23 17 -23 48l6 61q6 53 6 75q0 9 -6.5 23t-15.5 18q-17 9 -81 9q-53 0 -76.5 -3.5t-35.5 -20.5t-12 -40l1 -42q0 -28 -33 -28q-23 0 -36.5 20.5t-13.5 51.5q0 54 20.5 105t51.5 63q26 7 114 7 q113 0 174 -25q57 -21 57 -81z"/>
<glyph glyph-name="currency" horiz-adv-x="212" unicode="" d="M107 4h-71v405q0 132 -78 132h-27q-32 0 -54.5 -25.5t-22.5 -61.5v-19q0 -15 5 -26t19 -23h-77q-8 8 -14 23l-5 26v19q0 32 9 55.5t31 44.5q40 40 109 40h27q69 0 109 -52.5t40 -132.5v-405z"/>
<glyph glyph-name="yen" horiz-adv-x="308" unicode="" d="M287 460q-25 -8 -42.5 -12t-51.5 -9q29 -29 65 -72l-54 -36q-25 31 -52 78q-27 -50 -51 -78l-52 38l61 70q-51 9 -90 21l20 65q35 -13 51 -20.5t36 -16.5l-6 92h63v-29l-2 -20l-6 -41l34 13l57 22z"/>
<glyph glyph-name="brokenbar" horiz-adv-x="0" unicode="" d="M-120 555v17q0 9 -3 11l-8 8l-13 3q-9 0 -14.5 -4.5t-8.5 -17.5v-17q0 -10 6 -16t18 -8q5 0 13 5.5t10 18.5zM-48 537q0 -18 -22 -40q-21 -19 -46 -19h-36q-33 0 -53.5 22t-20.5 56v18l4 12q-9 -1 -15 -4.5t-18 -13.5q-21 -18 -21 -41v-19q0 -11 1.5 -17t7.5 -19 q4 -12 8.5 -19.5t14.5 -20.5h-74l-11 19l-8 19q-9 26 -9 38v29q0 21 9.5 38.5t30.5 34.5q39 32 88 32h52q40 0 79 -23t39 -56v-26z"/>
<glyph glyph-name="section" horiz-adv-x="462" unicode="" d="M349 226v110h-100v-110h100zM412 182h-228v154h-173v46h401v-200z"/>
<glyph glyph-name="dieresis" horiz-adv-x="638" unicode="" d="M358 226v110h-100v-110h100zM596 236q0 -97 -45 -152q-66 -84 -229 -84q-44 0 -105 31q-67 36 -104 95l28 27q32 -48 79 -75l22.5 -9t34 -11.5t45.5 -4.5q127 0 176 56q34 39 34 117v100q0 68 -43 121.5t-103 53.5q-56 0 -92 -33t-36 -86h164v-200h-227v154h-182v46h182 q0 76 53 124t147 48q86 0 148 -66q53 -61 53 -142v-110z"/>
<glyph glyph-name="copyright" horiz-adv-x="649" unicode="" d="M488 253q-10 -58 -56 -93.5t-105 -35.5q-38 0 -69.5 13t-58.5 39q-48 50 -48 139q0 30 5 55t17 46q21 45 62.5 66.5t94.5 21.5q56 0 96 -28q35 -25 59 -82l-64 -16q-7 19 -15.5 29.5t-22.5 21.5q-9 6 -24 11t-31 6q-45 0 -77 -33q-31 -35 -31 -98q0 -65 29 -97 q25 -31 74 -31q38 0 64 19.5t39 65.5zM591 316q0 68 -35 133q-17 30 -42 54.5t-59 43t-64.5 27t-64.5 8.5q-65 0 -128 -34t-101 -99q-18 -34 -27 -65.5t-9 -67.5q0 -64 33.5 -127.5t98.5 -101.5q67 -35 133 -35q67 0 132 33q60 34 99 100q13 28 25 63q4 22 6.5 36.5 t2.5 31.5zM655 316q0 -87 -43 -164.5t-120.5 -121t-165.5 -43.5q-84 0 -163.5 43t-122.5 123q-22 38 -33 81q-5 19 -8 39.5t-3 42.5q0 88 43 164.5t123.5 121t163.5 44.5q84 0 163 -43t122.5 -122t43.5 -165z"/>
<glyph glyph-name="ordfeminine" horiz-adv-x="551" unicode="" d="M209 99q0 63 -19 97q-15 31 -40 31q-16 0 -25 -11.5t-11 -27.5q0 -58 17 -113.5t46 -55.5q14 0 24 28q4 13 6 24t2 28zM543 7v-20v-16v-13q0 -46 -5 -61q-6 -34 -27 -34q-40 0 -59 56q-5 17 -13 103l-4 102q0 70 -17 178t-37.5 154t-50.5 46q-47 0 -114 -65 q-70 -70 -91 -158q31 17 70 17q45 0 77 -48q28 -44 28 -99q0 -74 -35 -132t-86 -58q-80 0 -126 78q-40 68 -40 167q0 91 25.5 164t76.5 127q89 93 197 93q115 0 176 -155q26 -67 40.5 -195t14.5 -231z"/>
<glyph glyph-name="guillemotleft" horiz-adv-x="533" unicode="" d="M403 145q0 85 -67 85q-87 0 -139 -43q-45 -37 -45 -85q0 -42 25 -71q28 -28 64 -28q66 0 109 31q53 38 53 111zM526 171q0 -91 -83.5 -168.5t-189.5 -77.5q-53 0 -104 27.5t-82 73.5q-52 79 -52 241q0 48 19 117q12 44 28.5 81t39.5 70q50 75 129 117q70 36 139 36 q63 0 107 -36t44 -93q0 -56 -58 -107q-26 -23 -52.5 -35t-52.5 -12q-13 0 -23 13q-8 13 -8 30q0 19 61 50t61 51q0 46 -63 46q-106 0 -186.5 -124t-80.5 -286q90 137 239 137q77 0 124 -46q44 -40 44 -105z"/>
<glyph glyph-name="logicalnot" horiz-adv-x="857" unicode="" d="M428 75q5 4 5 8q0 12 -13.5 40t-21.5 30q-19 0 -19 -29q0 -20 15.5 -34.5t33.5 -14.5zM842 127q0 -52 -39.5 -100.5t-86.5 -48.5q-74 0 -129 58q-42 50 -42 89q0 13 16.5 28t28.5 15q23 0 53 -33q33 -31 58 -31q20 0 20 26q0 40 -35 84q-38 49 -87 49q-67 0 -125 -44 q17 -26 33 -67q13 -41 13 -60q0 -34 -27 -66q-30 -33 -74 -33q-50 0 -94 38q-50 42 -50 100q0 37 40 95q-85 52 -144 52q-30 0 -53 -14.5t-23 -35.5q0 -36 23 -66q5 -7 14 -17q14 -15 26 -26q20 -19 22 -32q0 -19 -14 -35.5t-31 -16.5q-44 0 -82 74.5t-38 160.5 q0 58 39.5 95.5t108.5 37.5q96 0 234 -107q92 55 197 55q93 0 174 -76q74 -72 74 -148z"/>
<glyph glyph-name="uni00AD" horiz-adv-x="708" unicode="" d="M497 398q0 20 -14 37q-18 18 -41 18q-21 0 -36 -14q-20 -18 -20 -41q0 -19 16 -37q14 -18 39 -18l20 4q13 5 16 11q20 20 20 40zM553 388q0 -63 -65 -96q-18 -7 -25 -9t-19 -2q-18 -1 -35 5q-10 3 -19 9q5 -14 5 -31v-79q0 -46 -33 -72q-37 -26 -112 -26h-145l-19 -1 l-6 -2t-8 -4.5t-5 -15.5v-74h-68v74q0 35 23 59t75 24h159q14 0 26 3.5t19.5 9t12 12t5.5 19.5v66q0 22 -8 32.5t-22 10.5l-21 -5l-17 -19v-101h-76v296h-68v-296h-76v356h134q-2 5 -3.5 11.5t-3.5 18.5v17q0 55 48 92t106 37h41q62 0 102 -49q21 -21 32 -69l8 -42 q1 -7 1 -14q6 -1 14 -2q20 -3 39 -8q110 -31 110 -113l-2 -23l-43 -157l-47 -92h125v-64h-260q36 27 57.5 56t36.5 68q22 58 35 129l10 62q0 49 -28 68q-5 3 -14 5q5 -8 9 -14q4 -8 7 -13.5t4 -13.5l2 -10zM338 351q-3 6 -5 12l-2 11l-1 11q0 28 33 72l13 20q3 5 6.5 11.5 t5.5 9.5l37 45q6 12 6 17q0 15 -12 32l-4 5l-19 23q-21 28 -52 28h-32q-25 0 -52 -24q-13 -12 -19.5 -23t-6.5 -23v-17q0 -12 3 -20l8 -10h103v-60h-97v-123l13 6l14 5l19 1q22 0 41 -9z"/>
<glyph glyph-name="registered" horiz-adv-x="547" unicode="" d="M355 187q0 66 -37 66q-41 0 -41 -42q0 -32 13 -54q14 -19 48 -36q17 31 17 66zM540 69q0 -25 -48 -47.5t-110 -31.5q-50 -110 -168 -232q-90 -94 -197 -175q-36 21 -36 59q0 47 60 112l127 115q82 73 115 124l-97 -3q-88 0 -126 17q-54 25 -54 83q0 20 19 100l35 163 q23 118 34 152q21 68 48 68q13 0 26.5 -19.5t15.5 -35.5l-26 -150q-26 -147 -26 -184q0 -51 10 -60.5t38 -14.5l52 -3q-23 54 -23 76q0 63 37 105t99 42q101 0 101 -133q0 -28 -4 -49.5t-16 -47.5q63 9 89 9q9 0 16 -12.5t9 -26.5z"/>
<glyph glyph-name="macron" horiz-adv-x="661" unicode="" d="M653 54q0 -55 -228 -79q-137 -15 -295 -15q-47 0 -74 77q-22 66 -35 218l-19 200q0 39 38 39q61 0 61 -66q0 -72 12.5 -184t26.5 -142q17 -41 73 -41h104q-88 76 -88 242q0 98 67 171q62 66 131 66q45 0 77 -39.5t32 -91.5q0 -68 -50 -137t-96 -69q-28 0 -28 33l29 40 q31 40 31 82q0 51 -37 51q-26 0 -52.5 -46t-26.5 -83q0 -112 91 -215q26 0 68.5 6t68 9.5t36.5 11.5q5 4 12 5q28 0 48 -13q23 -12 23 -30z"/>
<glyph glyph-name="degree" horiz-adv-x="848" unicode="" d="M494 99q-12 3 -40 3q-30 0 -45 -8q-1 -3 -1 -6q0 -24 48 -46q23 9 38 57zM544 260h-76v-73h61zM856 -77q0 -107 -106 -179q-102 -67 -247 -67q-49 0 -97 11t-105 36q-123 53 -199 146q-89 112 -89 258q0 303 293 642q36 42 81 87.5t92 87.5q80 71 95 71q29 0 51 -23 q10 -11 16 -25t6 -31q-5 -4 -8 -7q-30 -26 -55 -47q-81 -66 -143 -131q-136 -143 -229 -298q-112 -185 -112 -314q0 -145 75 -237q52 -63 160 -103q53 -20 99 -29.5t91 -9.5q229 0 229 120q0 125 -194 197q-15 -25 -30 -49q-11 -17 -21 -30q-33 -44 -56 -44q-48 0 -110 46 q-68 50 -68 106q0 18 25 39q14 12 25.5 18.5t28.5 12.5v88q0 74 35 101q33 22 124 22q156 0 156 -56q0 -17 -28 -76q-10 -22 -20 -45t-20 -43q104 -34 166 -85q89 -72 89 -160z"/>
<glyph glyph-name="plusminus" horiz-adv-x="688" unicode="" d="M559 -149v160q-14 -11 -23 -11h-160q46 21 46 69v148q0 15 -6.5 24.5t-16.5 9.5q-22 0 -44.5 -24t-35.5 -61v-92q0 -29 -19.5 -51.5t-49.5 -22.5v389q-60 -43 -102 -92v-228q0 -29 -20 -49t-49 -20v240l-23 -29q-30 24 -46 58q57 57 115 102t117 76q118 62 220 62 q-107 -50 -143 -80v-183q39 45 114 45q23 0 40 -15t17 -36v-171q0 -13 -22 -35h51q17 0 28.5 10.5t11.5 24.5v262q0 37 20 64.5t49 27.5v-503q0 -29 -20 -49t-49 -20z"/>
<glyph glyph-name="uni00B2" horiz-adv-x="605" unicode="" d="M295 34q-87 -7 -95 -31q1 -13 24 -25q10 -5 18.5 -6t24.5 -1q4 7 11.5 25t16.5 38zM598 84q-11 -23 -23.5 -62t-21.5 -80t-13 -81.5t-4 -64.5q-23 -36 -43 -36q-58 0 -58 53q0 130 28 229l-90 -7q0 -19 -8.5 -40t-24.5 -43q-26 -42 -55 -42q-60 0 -116 42q-50 38 -50 80 q0 50 74 69l128 17q47 212 47 258t-16 61q-53 29 -162 29q-25 0 -41 -2t-34 -9q-30 -9 -31 -25q0 -34 60 -271q-18 -35 -46 -35q-23 0 -62.5 130t-39.5 215q0 64 81 97q64 23 162 23q119 0 155 -21q62 -39 62 -124q0 -96 -69 -321q72 0 97 -11l24 17q69 -13 90 -45z"/>
<glyph glyph-name="uni00B3" horiz-adv-x="668" unicode="" d="M521 23q68 12 68 40v257q0 36 19.5 62t49.5 30v-354q0 -24 -39 -44q-21 -10 -46.5 -17.5t-51.5 -7.5v-109q0 -26 -20 -44t-49 -18h-228q-21 0 -36.5 11t-15.5 29q0 39 78 81q71 38 202 73v205q0 15 -6.5 24.5t-16.5 9.5q-18 0 -31.5 -14.5t-13.5 -36.5v-126 q0 -28 -19.5 -49t-49.5 -25v394q-159 -111 -200 -223q31 58 80 58q17 0 28.5 -11.5t11.5 -28.5v-126q0 -27 -18 -45t-45 -18h-85q-27 0 -45 26t-18 65q0 64 43.5 137t127 141.5t167.5 104t165 35.5q-75 -26 -143 -75v-171q34 28 80 28q24 0 40.5 -13.5t16.5 -31.5v-223z M281 -148h137q13 0 23.5 7.5t10.5 20.5v98l-112 -41q-82 -33 -82 -62q0 -10 6.5 -16.5t16.5 -6.5zM132 34q16 0 25.5 6t9.5 17v97q1 7 -2 12q-5 5 -10 5q-15 0 -36 -37t-21 -65q0 -13 9 -24q11 -11 25 -11z"/>
<glyph glyph-name="acute" horiz-adv-x="560" unicode="" d="M762 781q0 -10 -62 -40q-84 -37 -161 -88q-118 -80 -224 -204q-100 -115 -147 -224q-51 -117 -51 -248q0 -170 176 -170q65 0 118.5 41t53.5 101q0 27 -23 49q-23 20 -53 20q-10 0 -15 -2q0 -37 -23 -71.5t-48 -34.5q-37 0 -37 39q0 19 9 60t30 110q41 138 70 181 q21 33 58 33q18 0 36 -15q8 -8 12 -17t4 -23q0 -28 -77 -182q77 -29 112 -60q51 -43 51 -106q0 -74 -77 -134q-85 -65 -212 -65q-111 0 -185 75q-82 82 -82 236q0 274 311 567q59 54 118 99t119 82q107 64 153 64q16 0 31 -24t15 -49z"/>
<glyph glyph-name="uni00B5" horiz-adv-x="1192" unicode="" d="M737 -197q-98 30 -279 65q-160 28 -202 28q-37 0 -68 -17.5t-31 -39.5q0 -46 90 -84q83 -34 170 -34q180 0 320 82zM697 69q0 44 -11 58q-56 -18 -56 -43q0 -15 13.5 -25t31.5 -12q22 0 22 22zM404 62l-29 87q-30 -13 -30 -54q0 -9 12 -23.5t29 -14.5q10 0 18 5z M1185 261q0 -43 -18 -198q-24 -194 -53 -260q-7 -16 -32.5 -31.5t-53.5 -15.5q-43 0 -97 9l-96 16q-191 -132 -375 -132q-161 0 -297 74.5t-136 164.5q0 43 62 69q49 20 121 20q60 0 132.5 -11t170.5 -36l286 -74q80 65 80 161q0 61 -12 93q-19 39 -63 39q-25 0 -35 -7 q7 -27 7 -50q0 -41 -31 -72q-30 -33 -66 -33q-48 0 -94 38.5t-46 81.5q0 29 25 54q17 15 58 38q-35 20 -81 20q-67 0 -93 -24q21 -18 32 -58.5t11 -67.5q0 -36 -29 -58t-70 -22q-50 0 -90 40.5t-40 97.5q0 44 29 100q-70 64 -136 64q-80 0 -80 -38q0 -34 41.5 -85.5 t41.5 -58.5q0 -12 -13 -24t-37 -12q-35 0 -66 53q-29 55 -29 131q0 60 33 107q37 48 93 48q61 0 134 -38q35 -19 62.5 -40t48.5 -48q19 14 134 14q56 0 111 -19t85 -56q23 7 71 7q97 0 147 -59q44 -51 44 -130q0 -68 -21 -116q-12 -27 -51 -81q9 -3 45 -3q59 0 84 61 q10 26 32 137q33 201 33 234q0 14 13 34t26 20q14 0 22 -4.5t15 -16.5q11 -22 11 -47z"/>
<glyph glyph-name="paragraph" horiz-adv-x="751" unicode="" d="M344 -137q-62 15 -103 23t-64 8q-48 0 -89 -13t-41 -40q0 -24 31 -39q33 -14 78 -14q105 0 188 75zM403 -8q0 66 -102 97q-31 -73 -82 -125l172 -38zM228 104q-44 0 -75.5 -3.5t-56.5 -12.5q21 -22 36 -32.5t30 -10.5q13 0 35.5 18t30.5 41zM271 271q-51 0 -62 -10v-5 q0 -18 -10 -65l57 -5zM744 338q0 -28 -20 -190q-24 -173 -40 -222q-16 -58 -43 -82q-29 -29 -84 -29q-23 0 -54.5 6t-64.5 17q-138 -133 -293 -133q-81 0 -147 60q-59 51 -59 96q0 109 201 109q-43 14 -86 54q-49 43 -49 79q0 20 27.5 45.5t49.5 25.5q0 49 9.5 118t15.5 78 t50 18q42 7 70 7q123 0 172 -37q-3 -30 -62 -188q59 -10 123 -45q80 -45 80 -93q0 -18 -13 -49.5t-39 -77.5l76 7q32 31 72 234q17 83 26 139.5t9 80.5q0 11 7 22q8 9 22 11q19 0 31.5 -18.5t12.5 -42.5z"/>
<glyph glyph-name="periodcentered" horiz-adv-x="323" unicode="" d="M290 279q0 -38 -21 -70q-38 -57 -109 -57q-39 0 -68 19q-14 9 -25.5 21.5t-18.5 26.5q-15 29 -15 61q0 39 20 69t48.5 44.5t60.5 14.5q39 0 71 -22q28 -18 41 -47q16 -26 16 -60z"/>
<glyph glyph-name="periodcentered" horiz-adv-x="323" unicode="" d="M290 279q0 -38 -21 -70q-38 -57 -109 -57q-39 0 -68 19q-14 9 -25.5 21.5t-18.5 26.5q-15 29 -15 61q0 39 20 69t48.5 44.5t60.5 14.5q39 0 71 -22q28 -18 41 -47q16 -26 16 -60z"/>
<glyph glyph-name="cedilla" horiz-adv-x="731" unicode="" d="M325 -143q-57 14 -99 22t-69 8q-29 0 -52 -3t-41 -10q-35 -15 -35 -37q0 -58 109 -58q50 0 104 25q50 21 83 53zM725 336q0 -50 -24 -214q-27 -194 -54 -246q-33 -65 -114 -65q-38 0 -113 21q-72 -62 -130 -94q-76 -39 -154 -39q-88 0 -157 57q-58 49 -58 101q0 54 53 79 q44 24 115 24q135 0 279 -39q14 20 14 70q0 28 -29 56q-13 12 -28 21t-28 13q-61 -107 -73 -109q-11 0 -33 9.5t-24 18.5q0 8 10.5 34.5t32.5 75.5q41 94 46 129q-11 1 -21.5 1.5t-21.5 0.5h-20q-45 0 -68 -6q-3 -8 -5 -23q0 -11 4.5 -28t12.5 -36q18 -38 18 -45t-12 -18 q-12 -9 -23 -9q-29 0 -68 75.5t-39 125.5q0 16 8 33q8 24 22 32q45 30 153 30q94 0 147 -15.5t53 -40.5q0 -43 -61 -159q71 -14 124 -49q60 -40 60 -82q0 -28 -47 -125l73 8q32 27 74 251l36 221q8 15 32 15q38 0 38 -60z"/>
<glyph glyph-name="uni00B9" horiz-adv-x="617" unicode="" d="M594 328q0 -159 -0.5 -309t-1.5 -215t-5 -91q-15 -123 -64 -123q-31 0 -31 29l10 125q0 50 5 127t5 103q0 83 -8 115q-71 -114 -164 -114q-89 0 -172 77q-52 48 -111 146q-52 87 -52 107q0 18 39 54q42 34 70 34q14 0 32 -46l35 -91q85 -185 186 -185q47 0 81 57 q11 22 37 103q2 23 3.5 40.5t7.5 53.5q12 70 52 70q16 0 31 -24t15 -43z"/>
<glyph glyph-name="ordmasculine" horiz-adv-x="951" unicode="" d="M794 106q0 24 -38.5 50t-74.5 26q-59 0 -89 -115h133q15 3 28.5 6.5t16.5 5.5q24 10 24 27zM935 122q0 -29 -15 -54t-48 -49q-69 -51 -166 -51h-145q-16 -57 -43 -104t-65 -82q-80 -78 -181 -78q-121 0 -191 69q-74 74 -74 210q0 169 82 361q75 177 181 292 q29 32 57.5 57.5t60.5 45.5q56 36 87 36q42 0 42 -34q0 -20 -4 -28l-18 -23q-26 -25 -51 -50q-30 -30 -52 -53q-81 -87 -152 -200q-35 -56 -61 -110.5t-41 -104t-24 -113t-9 -130.5q0 -62 40 -111t103 -49q74 0 137 75q48 56 73 137q-16 0 -37.5 3.5t-57.5 14.5 q-47 15 -60 31q-47 61 -47 331q0 15 24.5 28.5t40.5 13.5q36 0 36 -35q0 -196 24 -243q14 -24 53 -38l57 -13q18 126 98 203q62 60 119 60q62 0 144.5 -79.5t82.5 -135.5z"/>
<glyph glyph-name="guillemotright" horiz-adv-x="702" unicode="" d="M680 259q0 -4 -4 -118.5t-4 -165.5l-8 -223q0 -60 -12 -119q-18 -86 -54 -86q-40 0 -40 24l16 159q0 57 4 117q10 151 10 152q-85 -85 -125 -85q-48 0 -93 45q-23 21 -61 82q-26 43 -36 45q-28 0 -73.5 -35.5t-66.5 -35.5q-45 0 -73 56q-40 79 -40 256l1 82l1 71 q0 9 3.5 15.5t12.5 14.5q18 15 37 15q25 0 31 -40l1 -90q0 -261 60 -261q18 0 56.5 33t73.5 33q31 0 54 -42l36 -82q36 -63 70 -63q17 0 42 16q23 17 35 40q42 83 42 169q0 87 53 87q51 0 51 -66z"/>
<glyph glyph-name="onequarter" horiz-adv-x="688" unicode="" d="M687 -69q0 -95 -92 -159q-82 -58 -189 -58q-81 0 -166 40.5t-133.5 99t-68.5 115.5q-25 77 -25 194q0 124 56 268q47 128 119 224t121 96q31 0 48 -23q15 -17 15 -47q0 -8 -20 -25q-9 -8 -24 -21.5t-19 -17.5q-70 -82 -124 -178q-85 -155 -85 -302q0 -123 31 -185 q39 -80 113.5 -127t170.5 -47q65 0 114 37q58 40 58 112q0 54 -31 94q-31 37 -85 52l-66 -110q-43 -66 -57 -66q-8 0 -23 15q-12 17 -12 31q9 19 15 34q17 37 47 99q56 115 56 161v7l-30 4q-25 0 -51.5 -7t-35.5 -19q0 -9 2.5 -19.5t10.5 -30.5l13 -39q0 -52 -33 -52 q-28 0 -67 83q-15 37 -24 70.5t-9 56.5q0 84 123 84q169 0 199.5 -8.5t43 -20t12.5 -36.5q0 -19 -25 -70l-35 -70q162 -70 162 -239z"/>
<glyph glyph-name="onehalf" horiz-adv-x="974" unicode="" d="M410 -122q-105 17 -194 17q-156 0 -156 -63q0 -22 35 -37q29 -12 65 -12q166 0 250 95zM952 345q0 -33 -3.5 -110t-3.5 -112q0 -73 -6.5 -122.5t-13.5 -67.5q-17 -42 -77.5 -71t-126.5 -29q-153 0 -231 27q-124 -157 -286 -157q-91 0 -160 49t-69 123q0 52 64 82 q54 25 152 25q44 0 104.5 -11t155.5 -36l24 64q-105 59 -171 126l-66 71q-33 32 -78 32q-41 0 -59 -50l-21 -94q-11 -50 -37 -50q-38 0 -38 80q0 84 49 164q55 93 127 93q53 0 114 -61l104 -124q97 -111 184 -111q43 0 71 37q17 21 31.5 80.5t14.5 97.5q0 9 11.5 18.5 t24.5 10.5q18 0 32.5 -13.5t16.5 -30.5q0 -98 -69 -193q-72 -99 -146 -99q-12 0 -18 2l-33 -67q96 -24 132 -24q126 0 171 57q11 17 27 167.5t16 245.5q0 15 11.5 32t28.5 17q18 0 32.5 -23t14.5 -45z"/>
<glyph glyph-name="threequarters" horiz-adv-x="777" unicode="" d="M755 -106q0 -10 -2 -41t-2 -52l-4 -76q0 -43 -16 -88t-52 -45q-45 0 -45 54l6 86q0 43 3 111t3 71q0 93 -8 153q-29 -51 -76 -72q-40 -16 -107 -16t-122 16q-73 21 -73 60q0 20 20 51l51 62q115 137 115 209q0 40 -27 58t-90 18q-126 0 -201 -36q-59 -30 -59 -67l1 -15 l2 -14q0 -16 -18 -16q-23 0 -36 19.5t-13 44.5q0 88 88.5 136.5t216.5 48.5q94 0 156.5 -43t62.5 -117q0 -68 -56 -158q-48 -73 -101 -116q4 -8 16 -19q37 -13 118 -13q52 0 78 42q16 27 31 88q12 53 12 81l-2 38q0 24 2 31q9 17 55 17q49 0 64 -25q9 -18 9 -89v-377z"/>
<glyph glyph-name="questiondown" horiz-adv-x="878" unicode="" d="M704 109q0 42 -29 83q-36 48 -92 48q-59 0 -59 -44q0 -74 23 -132q36 0 59 1.5t38 4.5q60 8 60 39zM864 101q0 -53 -37 -86q-17 -17 -71 -31q-41 -10 -64 -10l-42 -1l-40 -1q12 -36 67 -68q49 -29 78 -29q16 0 28.5 -12.5t14.5 -30.5q0 -53 -41 -53q-40 0 -98 32 q-26 -26 -52.5 -45.5t-52.5 -33.5q-65 -30 -144 -30q-156 0 -269 106q-61 58 -92 126q-34 80 -34 205q0 126 56 275q49 135 121.5 234t125.5 99q23 0 42 -18.5t19 -60.5q0 -6 -19 -20q-13 -9 -23.5 -17t-20.5 -20q-68 -73 -122 -173q-46 -84 -69 -165.5t-23 -163.5 q0 -159 89 -252q76 -78 176 -78q134 0 206 107q-36 36 -76 96l-29 -1q-55 0 -116.5 13t-83.5 34q-33 33 -51 158q-13 93 -13 145q0 20 24 41q26 20 44 20q23 0 23 -45q0 -58 11 -136.5t37 -99.5q18 -16 47.5 -26.5t65.5 -10.5q-30 77 -30 184q0 42 35 80t89 38 q125 0 222 -93q45 -44 68.5 -89.5t23.5 -92.5z"/>
<glyph glyph-name="Agrave" horiz-adv-x="1053" unicode="" d="M1049 -55q0 -115 -113 -188q-103 -68 -252 -68q-148 0 -263 41q-95 36 -194 112q-212 167 -212 392q0 105 51 232q23 58 51 109t63 94.5t62.5 64.5t50.5 21q20 0 40 -23.5t20 -50.5l-68 -67q-77 -78 -124 -165q-68 -122 -68 -251q0 -164 176.5 -298.5t391.5 -134.5 q53 0 96 8t85 27q106 46 106 141q0 49 -32 86.5t-87 47.5q-10 -13 -58 -102q-42 -75 -52 -76q-19 0 -31.5 14t-12.5 31l55 137q26 63 36.5 100.5t10.5 57.5q0 5 -1 9l-24 3q-41 0 -119 -40t-116 -40q-20 0 -40.5 9t-45.5 31l-78 76q-41 40 -67 40q-15 0 -19 -3.5t-4 -19.5 q0 -12 31 -53.5t31 -58.5q0 -16 -13 -29.5t-30 -13.5q-25 0 -66 44q-45 51 -45 104q0 48 35 87q35 44 87 44q42 0 89 -44l77 -83q41 -44 66 -44q34 0 159 60t159 60q85 0 85 -59q0 -24 -31.5 -92.5t-49.5 -80.5q58 -7 96 -21.5t61 -39.5q45 -47 45 -137z"/>
<glyph glyph-name="Aacute" horiz-adv-x="869" unicode="" d="M463 -118q-78 33 -163 33q-65 0 -113.5 -26t-48.5 -59q0 -15 31 -33.5t70 -18.5q55 0 120 30q61 26 104 74zM853 264q0 -51 -16 -172t-34.5 -165.5t-57 -74.5t-80.5 -30q-59 0 -129 30q-91 -82 -124 -106q-77 -53 -148 -53q-89 0 -154 46q-71 50 -71 124q0 51 49.5 83.5 t132.5 32.5q33 0 63 -3t66 -11l143 -33q41 43 68 117q22 66 22 115q0 41 -8 57q-9 23 -41 23q-40 0 -127 -87t-115 -87q-41 0 -63 55q-10 26 -22 102q-7 53 -18 55q-28 0 -58 -80q-25 -75 -25 -132q0 -32 -14 -49q-12 -17 -29 -17q-21 0 -36 28q-14 31 -14 63q0 49 15 96 t48 95q66 100 138 100q38 0 57 -53l19 -100q9 -53 29 -53q22 0 74 47l94 87q59 47 110 47q41 0 65 -40q18 -33 18 -82q0 -36 -6 -71.5t-22 -85t-33.5 -89.5t-41.5 -78q22 -4 35.5 -6t25.5 -2q34 0 56 20q26 27 55 175q23 123 23 173v71q0 68 27 68q32 0 43 -33.5t11 -116.5z "/>
<glyph glyph-name="Acircumflex" horiz-adv-x="879" unicode="" d="M475 -138q-35 0 -66.5 3t-50.5 5q-71 7 -99 7q-139 0 -139 -61q0 -28 42.5 -44.5t84.5 -16.5q47 0 116 34q36 17 63.5 34.5t48.5 38.5zM393 55q0 27 -4.5 46t-17.5 39q-28 -9 -28 -57q0 -10 11 -21t24 -11q8 0 15 4zM857 -31q0 -23 -14 -51q-13 -30 -30 -41 q-36 -21 -127 -21l-56 1l-55 1q-25 -30 -57 -57.5t-72 -51.5q-101 -59 -193 -59q-124 0 -197 50.5t-73 111.5q0 46 66.5 75.5t195.5 29.5q44 0 136 -12q31 -4 80.5 -10t69.5 -6q54 66 54 139q0 96 -36 132q-9 9 -36 9q-29 0 -42 -7l-25 -14q13 -12 24 -47q5 -19 8.5 -32 t3.5 -30q0 -98 -110 -98q-33 0 -72.5 40t-39.5 89q0 58 32 107q-79 65 -142 65q-74 0 -74 -38t38.5 -82t38.5 -60q0 -12 -13.5 -24t-27.5 -12q-35 0 -62 39q-37 49 -37 149q0 51 27 95q18 26 42.5 40t55.5 14q130 0 241 -124l56 15q14 3 30.5 5t35.5 2q83 0 133 -65 q46 -58 46 -148q0 -68 -44 -152h33q17 0 45.5 20t35.5 42q12 41 12 177l-2 123l-1 90q0 60 40 60q20 0 32 -23q14 -23 14 -44l6 -70q6 -62 6 -105v-237z"/>
<glyph glyph-name="Atilde" horiz-adv-x="914" unicode="" d="M545 30q6 0 6 13q0 19 -11 36q-12 22 -32 31l-4 -16q0 -19 13 -41.5t28 -22.5zM232 110q-70 0 -106 -27q-2 -14 15 -29q19 -14 37 -14q12 0 28 26zM278 264h-6q-21 0 -73 -16l-12 -51l80 9zM906 33q0 -54 -87 -54q-132 0 -132 67q0 10 27.5 80t27.5 122q0 48 -15.5 70.5 t-60.5 22.5q-103 0 -160 -157q59 -19 102 -62q47 -49 47 -112q0 -88 -100 -88q-57 0 -95 59q-34 54 -34 113q0 16 2 24h-93l-58 -111q-38 -64 -76 -64q-70 0 -129 44.5t-59 104.5q0 53 68 77q-3 11 -3 44q0 63 26 148q68 27 165 27q146 0 146 -47q0 -30 -42 -138l56 -6 q18 119 98.5 194.5t182.5 75.5q55 0 97 -44t42 -101q0 -61 -24 -133l-40 -101q28 -17 78 -17q43 0 43 -38z"/>
<glyph glyph-name="Adieresis" horiz-adv-x="786" unicode="" d="M422 -294q124 45 199 106t75 119v149q0 23 -17 23q-22 0 -36.5 -13.5t-14.5 -32.5v-137q0 -29 -20 -49t-49 -20v160q-14 -11 -23 -11h-160q46 21 46 69v148q0 15 -6.5 24.5t-16.5 9.5q-22 0 -44.5 -24t-35.5 -61v-92q0 -29 -19.5 -51.5t-49.5 -22.5v389q-60 -43 -102 -92 v-228q0 -29 -20 -49t-49 -20v240l-23 -29q-30 24 -46 58q57 57 115 102t117 76q118 62 220 62q-107 -50 -143 -80v-183q39 45 114 45q23 0 40 -15t17 -36v-171q0 -13 -22 -35h51q17 0 28.5 10.5t11.5 24.5v262q0 37 20 64.5t49 27.5v-303q35 29 80 29q24 0 40.5 -13.5 t16.5 -32.5v-183q0 -67 -97 -128t-246 -86z"/>
<glyph glyph-name="Aring" horiz-adv-x="614" unicode="" d="M298 27q-43 0 -67 -7.5t-28 -21.5q0 -14 21 -24t46 -10zM718 -210q0 -93 -195 -203q-51 -27 -194 -84q-132 -52 -148 -52q-14 0 -25.5 13t-11.5 30q0 6 23.5 13t32.5 10t44.5 16t133.5 56q79 39 141 89q90 75 90 141q0 22 -22 43q-10 10 -19.5 14.5t-23.5 7.5v-83 q-18 -49 -48 -49q-58 0 -58 55q0 46 7 103t22 123h-89q-6 -44 -34 -87.5t-56 -43.5q-64 0 -116 42t-52 82q0 47 76 68l129 18q21 96 33 164.5t12 95.5q0 45 -13 55q-54 28 -162 28t-108 -30q0 -36 30 -150l29 -121q0 -12 -17 -25q-13 -8 -29 -10q-26 0 -68 142 q-37 137 -37 198q0 119 243 119q125 0 153 -18q70 -44 70 -138q0 -22 -5 -53.5t-17 -82.5t-22.5 -90t-25.5 -79q63 0 95 -12l28 17q68 -10 92 -47q-19 -18 -40 -119q73 -34 101 -58q51 -45 51 -108z"/>
<glyph glyph-name="AE" horiz-adv-x="1000" unicode="" d="M521 23q68 12 68 40v160l-23 -28q-32 35 -45 68q39 46 68 63q0 35 19.5 60.5t49.5 25.5v-34q217 125 331 125q-95 -35 -160 -80v-354q0 -16 -4.5 -30t-14.5 -26q-20 -24 -49 -24v389q-81 -58 -103 -80v-240q0 -24 -39 -44q-21 -10 -46.5 -17.5t-51.5 -7.5v-109 q0 -26 -20 -44t-49 -18h-228q-21 0 -36.5 11t-15.5 29q0 39 78 81q71 38 202 73v205q0 15 -6.5 24.5t-16.5 9.5q-18 0 -31.5 -14.5t-13.5 -36.5v-126q0 -28 -19.5 -49t-49.5 -25v394q-159 -111 -200 -223q31 58 80 58q17 0 28.5 -11.5t11.5 -28.5v-126q0 -27 -18 -45 t-45 -18h-85q-27 0 -45 26t-18 65q0 64 43.5 137t127 141.5t167.5 104t165 35.5q-75 -26 -143 -75v-171q34 28 80 28q24 0 40.5 -13.5t16.5 -31.5v-223zM281 -148h137q13 0 23.5 7.5t10.5 20.5v98l-112 -41q-82 -33 -82 -62q0 -10 6.5 -16.5t16.5 -6.5zM132 34q16 0 25.5 6 t9.5 17v97q1 7 -2 12q-5 5 -10 5q-15 0 -36 -37t-21 -65q0 -13 9 -24q11 -11 25 -11z"/>
<glyph glyph-name="Ccedilla" horiz-adv-x="605" unicode="" d="M613 -69q0 -77 -114.5 -163.5t-206.5 -86.5q-128 0 -207.5 77.5t-79.5 214.5q0 142 66 290q77 179 186 179q26 0 52 -17q28 -22 28 -60q0 -88 -41 -150q-31 -50 -54 -50q-12 0 -21.5 10.5t-11.5 18.5q0 10 27.5 48.5t27.5 75.5q0 16 -17 16q-34 0 -86 -116 q-58 -131 -58 -257q0 -212 139 -212q73 0 167 64q99 68 99 136q0 32 -22 53q-20 21 -52 21l-16 -2q-8 -56 -32 -83q-18 -21 -37 -21q-38 0 -38 34q0 43 43 181q22 71 37.5 110.5t26.5 57.5t27 27q18 12 30 12q21 0 39.5 -13.5t18.5 -38.5q0 -33 -80 -190q79 -31 111 -58 q49 -41 49 -108z"/>
<glyph glyph-name="Egrave" horiz-adv-x="1525" unicode="" d="M746 -201l-260 61q-142 29 -213 29q-47 0 -81 -14q-30 -16 -30 -44q0 -43 83 -81.5t170 -38.5q195 0 331 88zM693 127l-26 -11q-26 -14 -32 -31q-1 -12 17 -27.5t31 -15.5q23 0 23 37q0 28 -13 48zM406 58q0 19 -9.5 47.5t-20.5 38.5q-9 -3 -18 -20q-5 -14 -7 -29 q0 -15 12 -28t28 -13q8 0 15 4zM1504 190q0 -142 -21 -171q-13 -19 -38 -19q-32 0 -47 32q-3 8 -3 24v12l2 50q0 53 -14.5 64t-84.5 11l-63 -1q-31 -3 -48 -17q-17 -29 -32 -176t-36 -195q-17 -37 -43 -49q-11 -6 -52 -6q-35 0 -89 9.5t-91 12.5q-187 -131 -383 -131 q-158 0 -293 74.5t-135 158.5q0 98 193 98q48 0 110 -9t146 -29l328 -82q77 66 77 177q0 64 -18 93q-19 27 -62 27q-31 0 -32 -10q10 -18 10 -41q0 -41 -25 -75q-29 -40 -76 -40q-41 0 -86 35q-51 39 -51 85q0 34 29 65q25 22 55 29q-32 23 -86 23t-92 -25q45 -48 45 -129 q0 -26 -29 -53.5t-72 -27.5q-47 0 -87.5 41t-40.5 95q0 66 31 101q-74 66 -152 66q-71 0 -71 -40q0 -34 47 -85q37 -43 37 -58q0 -12 -15 -27q-14 -11 -25 -12q-34 0 -65 41q-41 51 -41 149q0 66 35.5 110.5t86.5 44.5q135 0 247 -124q46 13 147 13q49 0 96 -17 q59 -17 96 -57q25 5 88 5q80 0 130 -57q45 -54 45 -126q0 -123 -73 -208q11 -3 24 -3q57 0 89 29q27 34 53.5 208.5t63.5 210.5q27 25 125 25q48 0 109.5 -9t83.5 -22q43 -23 43 -88z"/>
<glyph glyph-name="Eacute" horiz-adv-x="1033" unicode="" d="M343 -136q-119 29 -168 29q-128 0 -128 -49q0 -23 31 -38q17 -8 34.5 -12t41.5 -4q104 0 189 74zM403 -10q0 57 -101 96q-20 -41 -39.5 -71t-41.5 -50l168 -41l8 38q6 20 6 28zM227 103q-47 0 -77 -3.5t-54 -13.5q37 -42 64 -42q17 0 41 20q26 18 26 39zM276 269 q-7 1 -20 1q-20 0 -42 -8l-13 -70l55 -6zM1026 233q0 -88 -44 -280q-40 -177 -53 -195.5t-48 -18.5q-20 0 -20 30l25 151q26 161 26 239q0 65 -17 85q-21 26 -87 26l-50 -1q-14 -53 -41 -203q-12 -68 -23 -110.5t-21 -64.5q-36 -77 -118 -77q-47 0 -119 24 q-139 -128 -292 -128q-89 0 -153 65q-52 55 -52 91q0 55 59 82q46 21 140 21q-43 15 -84 55q-47 42 -47 79q0 21 26 47q28 25 49 25q0 80 9.5 130t23.5 65q24 24 110 24q127 0 178 -39q-3 -28 -28 -91l-36 -92q64 -17 125 -53q74 -45 74 -87q0 -27 -12.5 -58t-39.5 -72l80 7 q30 39 69 224q20 89 36.5 141t30.5 66q21 21 85 21q30 0 53 -2t56 -9q62 -9 82 -23q48 -26 48 -94z"/>
<glyph glyph-name="Edieresis" horiz-adv-x="1072" unicode="" d="M346 -150q-101 30 -167 30q-55 0 -93 -15q-34 -17 -34 -39q0 -25 36 -42q30 -12 73 -12q51 0 104 23.5t81 54.5zM1049 234q0 -116 -21 -178q-8 -30 -37 -30q-56 0 -56 68l4 27l4 36q0 32 -19 54q-11 12 -88 12l-66 -1q-31 -3 -41.5 -19t-35 -173t-36.5 -177 q-28 -46 -110 -46q-39 0 -106 19q-73 -63 -128 -96q-75 -40 -154 -40q-88 0 -157 60q-59 53 -59 100t50 74.5t119 27.5q137 0 277 -38q14 31 14 75q0 27 -36 54q-31 23 -67 32l-33 -61q-17 -31 -27 -33.5t-14.5 -3.5t-17.5 -1q-38 0 -39 14l42 105q41 104 45 139l-37 2 q-60 0 -91 -8q-2 -5 -4 -28q0 -28 18 -60t20 -41q0 -7 -15 -19q-15 -7 -27 -9q-26 0 -65.5 73.5t-39.5 122.5t35 71q41 27 145 27q118 0 162 -17q36 -13 36 -44q0 -44 -56 -146q71 -13 133 -51q68 -44 68 -88q0 -34 -44 -123l73 9q25 32 44 117l29 165q14 77 33 108 q25 43 87 43q151 0 227 -26q62 -21 62 -78z"/>
<glyph glyph-name="Igrave" horiz-adv-x="816" unicode="" d="M808 -20q0 -126 -328 -298q-156 -81 -181 -81q-11 0 -24 11t-14 24q0 15 23 26q92 36 97 40q121 56 205 124q110 90 110 176q0 29 -27 49q-27 18 -67 18l-1 -93q0 -45 -15.5 -84t-38.5 -39q-39 0 -39 28l3 65l4 84v14q0 46 -5 55q-31 -44 -64 -73q-51 -43 -90 -43 q-90 0 -161.5 59.5t-136.5 164.5q-53 86 -53 105q0 14 34 38q38 25 78 25q16 0 39 -49l48 -103q16 -30 34 -54t41 -45q48 -45 87 -45q69 0 107 108q25 77 25 146q0 22 12.5 36t31.5 14q53 0 53 -42l3 -69l3 -113q106 -42 137 -63q70 -47 70 -116z"/>
<glyph glyph-name="Iacute" horiz-adv-x="1027" unicode="" d="M862 128q0 31 -37 53q-35 24 -76 24q-59 0 -99 -129h153q32 9 40 14q19 13 19 38zM1012 138q0 -77 -81 -125q-73 -43 -186 -43h-131q-33 -118 -122.5 -206.5t-180.5 -88.5q-84 0 -154.5 39.5t-104.5 96.5q-22 37 -33.5 87t-11.5 111q0 79 14.5 144.5t46.5 130.5 q68 139 170 139q34 0 57 -29.5t23 -75.5q0 -59 -29.5 -132.5t-52.5 -73.5q-49 0 -49 38q0 11 25 52q24 43 24 71q0 33 -20 33q-32 0 -69 -95q-47 -124 -47 -263q0 -103 39 -148q35 -38 109 -38q77 0 157 56q89 61 136 165q-85 11 -120 49q-31 34 -46 117l-28 207 q-49 368 -49 474q0 36 8.5 49t30.5 13q42 0 59 -51q4 -17 7 -48t3 -61q0 -81 13 -216q7 -74 15 -148l9 -133q6 -66 29 -98q29 -37 99 -45q16 93 61 163q60 92 152 92q89 0 158.5 -68t69.5 -141z"/>
<glyph glyph-name="Icircumflex" horiz-adv-x="913" unicode="" d="M905 -37q0 -80 -124 -177q-39 -31 -85 -60.5t-122 -71.5q-142 -78 -166 -78q-15 0 -26.5 11.5t-11.5 22.5q0 12 28 23q57 26 119 60q275 156 275 278q0 73 -75 73l-23 -2q0 -65 -2.5 -93t-4.5 -43q0 -25 -12 -64q-16 -42 -34 -42q-23 0 -34 3q-12 6 -14 23q0 40 15 202 q-21 -44 -66 -83q-39 -34 -56 -34q-55 0 -106 45q-15 15 -33 36t-38 48q-32 44 -42 45q-28 0 -74.5 -36t-64.5 -36q-108 0 -108 311l1 79l1 82q0 12 20 24.5t37 12.5q26 0 26 -50q0 -337 61 -337q18 0 56.5 31.5t74.5 31.5q31 0 55 -47l39 -85q17 -31 47 -47t46 -16 q35 0 70 63q19 39 29 80.5t10 87.5q0 25 14.5 42.5t35.5 17.5q51 0 51 -40v-119q47 0 86.5 -16.5t71.5 -47.5q53 -51 53 -108z"/>
<glyph glyph-name="Idieresis" horiz-adv-x="682" unicode="" d="M697 -109q0 -92 -80 -157t-195 -65q-125 0 -236 89q-172 139 -172 361q0 59 31 100q30 36 60 36q61 0 95 -58q28 -46 28 -118q0 -38 -11 -67.5t-33 -29.5q-9 0 -19.5 9.5t-12.5 20.5l6 21q3 11 5 22.5t2 26.5q0 14 -9.5 28.5t-20.5 14.5q-28 0 -28 -53q0 -131 103 -231 q42 -40 88.5 -60t101.5 -20q69 0 124.5 37.5t55.5 102.5q0 30 -5.5 51.5t-19.5 44.5q-24 42 -54 48l-71 -105q-48 -70 -64 -70q-9 0 -25 11q-11 11 -13 28q0 17 59 130q56 108 56 163l-29 4q-59 0 -75 -20q1 -9 3 -21.5t9.5 -40t7.5 -35.5q0 -32 -36 -32q-30 0 -65.5 79.5 t-35.5 116.5q0 24 6 39.5t20.5 26.5t35.5 16t53 5q125 0 176 -12q83 -20 83 -56q0 -13 -4 -32t-13 -42q-15 -44 -33 -61q63 -32 105 -94q46 -69 46 -152z"/>
<glyph glyph-name="Eth" horiz-adv-x="472" unicode="" d="M105 -116v17l-4 10q-8 3 -12 3l-10 -2q-1 -4 -2 -11v-17q1 -6 3 -7.5t15 -5.5q6 1 10 13zM277 -84q0 -41 -34.5 -69.5t-87.5 -28.5h-45q-28 0 -46 5q-16 3 -32 16q-31 22 -31 53v24q0 12 4 21.5t17 19.5q20 18 45 18h32q34 0 53 -22t19 -53l-2 -17l15 9q17 13 17 32v18 q0 12 -4.5 23t-6.5 16q-3 6 -10 16h-12v16q0 1 -1 1h1v15q-3 -3 -11.5 -8t-13.5 -8l-30 -12l-29 -4q-31 0 -43 10q-8 6 -11.5 15t-3.5 25v306h74v-288q2 -6 6 -8l16 -3q15 0 29 13q14 11 17 38v248h77v-296h141v296h75v-356h-205l10 -18q9 -20 10 -24.5t1 -11.5v-27z"/>
<glyph glyph-name="Ntilde" horiz-adv-x="645" unicode="" d="M121 73v61q0 11 -8 16q-4 5 -14 5q-9 0 -18 -6q-4 -4 -5 -15v-61q0 -12 5 -17q2 -1 7.5 -2.5t11.5 -2.5q7 0 14 4.5t7 17.5zM684 54l-9 -64h-256v41h-5l-5 19q15 3 25 12t19 23l1 4l-4 24l-3 30q-2 2 -2 3q-5 7 -10 11l-25 21q-7 9 -23 11q-19 0 -35 -24v-168h-76v289 h-105q-44 0 -72 -27q-7 -7 -11 -13.5t-8 -16.5q9 3 30 5q17 0 31 -5t27 -19q8 -7 13 -13t8 -13q8 -11 8 -32v-73q0 -26 -33 -61q-15 -13 -32 -21q-19 -7 -33 -7q-39 0 -68 23q-30 27 -30 66v104q0 66 44.5 115t108.5 49h290v-61h-92v-51q14 7 29 11t35 4q35 0 58 -31l30 -30 q20 -23 20 -45l5 -20l6 -26l-3 -11q-2 -7 -8 -18.5t-10 -17.5z"/>
<glyph glyph-name="Ograve" horiz-adv-x="266" unicode="" d="M229 477v-82h-75v64q0 56 14 80.5t50 42.5l17 -27q-21 -8 -32 -28t-11 -50h37zM108 477v-82h-75v64l2 45q4 19 10 31q17 30 52 47l17 -27q-21 -8 -32 -28t-11 -50h37z"/>
<glyph glyph-name="Oacute" horiz-adv-x="266" unicode="" d="M155 497v81h75v-64q0 -49 -12 -76q-16 -29 -52 -47l-17 27q19 7 31 28t12 51h-37zM34 497v81h76v-64q0 -49 -12 -76q-16 -29 -53 -47l-17 27q18 7 30 28q12 18 12 51h-36z"/>
<glyph glyph-name="Ocircumflex" horiz-adv-x="178" unicode="" d="M126 477v-82h-76v64q0 28 2 41t4 19t6 16q19 31 52 47l18 -27q-21 -8 -32 -28t-11 -50h37z"/>
<glyph glyph-name="Otilde" horiz-adv-x="178" unicode="" d="M49 497v81h75v-64q0 -49 -12 -76q-7 -13 -21 -25.5t-32 -21.5l-17 27q19 7 31 28q12 18 12 51h-36z"/>
<glyph glyph-name="Odieresis" horiz-adv-x="1250" unicode="" d="M431 -112q-86 15 -206 15q-58 0 -105.5 -17t-47.5 -51q0 -22 31.5 -34.5t65.5 -12.5q176 0 262 100zM1228 -43q0 -26 -1 -78t-1 -78q0 -31 -2 -51t-4 -23q-15 -20 -42 -20q-26 0 -38 26q-5 12 -8 77t-3 184q0 66 -13 137q-18 88 -45 108q-8 4 -36 4q-55 0 -86 -28 q-20 -31 -44 -140q-12 -57 -24 -99.5t-23 -66t-46 -41.5q-21 -10 -47.5 -16t-57.5 -6q-76 0 -193 24q-131 -166 -304 -166q-87 0 -157 51t-70 123q0 50 65 85q61 29 151 29q111 0 276 -45q18 37 18 63v7q-42 16 -123 80q-30 23 -75 71q-40 42 -60 57q-32 23 -67 23 q-34 0 -60 -53q-21 -44 -21 -88q0 -64 -39 -64q-41 0 -41 77t43 162q52 106 133 106q33 0 67 -17.5t69 -54.5l131 -142q42 -42 69 -56q38 -23 79 -23q51 0 77 27q19 18 38 94q13 58 13 97q0 11 9 20.5t26 11.5q18 0 34.5 -11.5t16.5 -30.5q0 -98 -44 -171 q-18 -28 -38.5 -51.5t-43.5 -42.5q-51 -40 -95 -40l-15 1q-3 -16 -8 -29.5t-21 -40.5q69 -22 132 -22q73 0 108 30q37 43 69 191q28 141 61 174.5t120 33.5h26h19h14h18q3 0 6 1q21 -2 39 -12q28 -16 43 -48q8 -18 13 -72t9 -119.5t4 -128.5zM1120 337h2h-11h9z"/>
<glyph glyph-name="multiply" horiz-adv-x="933" unicode="" d="M925 8q0 -34 -40 -90q-31 -45 -77 -85q-63 -52 -220 -143q-143 -82 -163 -82q-14 0 -30 9t-16 21q0 17 12 25l26 11q27 13 78 40.5t114 63.5q35 23 67.5 50t58.5 55q73 78 73 141q0 65 -90 79l-43 -237q-41 -25 -69 -25q-33 0 -33 40q1 9 3 21.5t7 34.5q9 48 9 61l-197 1 q-114 0 -114 70q0 18 43 79q63 90 79 117q42 76 42 124q0 69 -102 69q-121 0 -198 -36q-27 -12 -52 -39q-20 -20 -22 -35l3 -21l3 -20q0 -12 -25 -12q-22 0 -35 23q-12 18 -12 43q0 80 78 134q34 23 106.5 44t135.5 21q82 0 141 -42.5t59 -113.5q0 -72 -58 -170 q-41 -68 -94 -127q14 -8 41 -11l43 -1l49 2l93 4q19 62 19 114l-1 100q0 35 14 52q16 14 50 14q33 0 47.5 -9t14.5 -36q0 -15 -3 -48.5t-11 -105.5q91 -25 136 -60q60 -45 60 -114z"/>
<glyph glyph-name="Oslash" horiz-adv-x="943" unicode="" d="M775 110q0 40 -31 84t-85 44q-64 0 -64 -46q0 -73 26 -128q154 0 154 46zM927 98q0 -74 -69 -106q-41 -19 -90 -19h-88q12 -36 50.5 -65t65.5 -29q28 0 46 -15t18 -34q0 -20 -14 -38.5t-37 -18.5q-77 0 -112 47q-40 -83 -127 -147q-101 -72 -207 -72q-49 0 -109 29 t-93 68q-47 50 -88 153q-58 141 -58 304q0 95 41 145q36 45 91 45q38 0 66 -55q25 -52 25 -112q0 -97 -38 -97q-12 0 -23 10q-10 12 -10 31l4 21l4 39q0 23 -7.5 40t-18.5 18q-32 0 -32 -101q0 -89 16.5 -161.5t52.5 -141.5q71 -137 170 -137q81 0 167 74q32 28 101 112 q-15 15 -30 45q-4 7 -12 24q-11 21 -15 26q-99 0 -158 17.5t-80 50.5q-3 5 -10 26.5t-11.5 38.5t-8.5 35.5t-5 28.5q0 22 -16 165l-14 153q0 53 44 53q26 0 43 -19.5t17 -45.5q0 -32 3.5 -97t3.5 -88q0 -75 11.5 -122t28.5 -61q20 -19 49 -29.5t65 -10.5q-28 79 -28 180 q0 45 31 80q35 41 93 41q115 0 208.5 -90t93.5 -188z"/>
<glyph glyph-name="Ugrave" horiz-adv-x="1086" unicode="" d="M1094 -87q0 -104 -106.5 -183.5t-244.5 -79.5q-118 0 -267 48q-162 52 -279 144q-184 145 -184 329q0 55 25 98q29 47 77 47q58 0 88 -62q21 -44 21 -99q0 -110 -44 -110q-11 0 -22 9t-13 22l8 18q8 19 8 49q0 18 -8 29.5t-20 12.5q-31 0 -31 -52q0 -40 27 -99 q15 -29 35.5 -57t46.5 -52q71 -71 181 -120q144 -63 327 -63q88 0 165 45q91 55 91 138q0 53 -27 102t-60 49q-4 -4 -61 -106q-41 -80 -62 -80q-14 0 -29 18q-12 17 -12 33q0 12 47 118t47 152q0 12 -2 17l-24 3q-19 0 -42 -7t-60 -25q-63 -31 -92 -31q-37 0 -87 40l-83 76 q-44 41 -69 41q-22 0 -22 -21q0 -14 32 -55.5t32 -56.5q0 -14 -15 -31q-14 -13 -30 -14q-26 0 -66 43q-42 51 -42 102q0 45 36 88t82 43q43 0 94 -45l79 -80q42 -44 68 -44q29 0 118 53t149 53q93 0 93 -64q0 -22 -15 -67t-40 -79q91 -18 143 -106q20 -34 29.5 -65.5 t9.5 -65.5z"/>
<glyph glyph-name="Uacute" horiz-adv-x="1192" unicode="" d="M464 -125q-72 35 -152 35q-73 0 -126 -28q-47 -24 -47 -57q0 -17 32.5 -34.5t69.5 -17.5q35 0 63.5 6t58.5 21q45 25 101 75zM1176 277q0 -46 -3.5 -79.5t-12.5 -70.5q-20 -85 -54 -85q-46 0 -46 84q0 7 1 17.5t4 22.5l5 38q0 32 -19 51q-23 13 -78 13l-29 1l-28 2 q-35 0 -50 -16q-20 -20 -20 -107q0 -43 -16 -128t-45 -134q-20 -34 -53.5 -53t-63.5 -19q-45 0 -131 34q-152 -159 -277 -159q-88 0 -154 50.5t-66 127.5q0 51 60 83q49 25 121 25q29 0 63 -4t73 -13l137 -32q36 35 66 114q26 70 26 114q0 85 -51 85q-38 0 -124.5 -86.5 t-117.5 -86.5q-40 0 -64 56q-9 27 -21 102q-7 55 -19 55q-28 0 -58 -89q-25 -83 -25 -139q0 -51 -42 -51q-49 0 -49 111q0 75 64 172q69 102 136 102q38 0 58 -54l19 -102q8 -54 25 -54q26 0 77 48l93 87q59 47 107 47q87 0 87 -128q0 -77 -33 -172.5t-71 -146.5 q27 -9 54 -9q41 0 62 21q27 25 54 148q10 48 16 90.5t6 70.5q0 46 26 95q30 57 71 57q132 0 200 -14q110 -24 110 -92z"/>
<glyph glyph-name="Ucircumflex" horiz-adv-x="1143" unicode="" d="M479 -132q-133 13 -221 13q-171 0 -171 -73q0 -27 33.5 -40.5t74.5 -13.5q75 0 164 39q36 16 66 34.5t54 40.5zM402 61q0 41 -27 85q-28 -16 -28 -56q0 -11 12 -23t26 -12q8 0 17 6zM1128 20q0 -224 -8.5 -259t-41.5 -35q-14 0 -27 14.5t-13 33.5l-2 60l-2 59v36v29v23 v19v16v13q0 46 -5 66q0 57 -12.5 93t-34.5 56q-8 6 -23 6l-30 -3q-16 0 -35 -8q-18 -6 -26 -15q-17 -20 -48 -146.5t-57 -158.5q-45 -56 -177 -56q-69 -63 -173 -115q-131 -63 -220 -63q-92 0 -167 50.5t-75 109.5q0 47 71 80q79 37 202 37q53 0 152 -11l165 -15 q52 61 52 139q0 26 -9.5 70t-26.5 61q-12 10 -37 10q-24 0 -72 -24q14 -16 27.5 -50t13.5 -59q0 -97 -102 -97q-46 0 -84.5 40.5t-38.5 92.5q0 50 29 99q-74 63 -140 63q-78 0 -78 -40q0 -31 43 -81q42 -53 42 -63q0 -7 -15 -21q-15 -10 -27 -12q-34 0 -65 40 q-40 50 -40 145q0 60 32 107q37 49 96 49q48 0 116 -30q80 -35 121 -93l60 16q32 8 55 8q194 0 194 -232q0 -39 -42 -132l16 -3q42 0 70 61q16 34 46.5 152.5t43.5 136.5q35 55 132 55q110 0 137 -29q38 -41 38 -295z"/>
<glyph glyph-name="Udieresis" horiz-adv-x="653" unicode="" d="M369 165q-103 -19 -169 -52t-66 -69q0 -40 57 -40q56 0 119 62.5t59 98.5zM179 388q0 54 -25 54q-8 0 -25 -36q-1 -4 -7 -25.5t-6 -35.5q0 -44 14 -44q15 0 32 21.5t17 65.5zM645 11q0 -18 -15.5 -30t-33.5 -14q-56 0 -56 79l-4 123l-82 3q-25 -88 -108 -174 q-92 -96 -172 -96q-62 0 -103 35.5t-41 80.5q0 87 94 148q40 25 104 47.5t155 43.5q0 107 -33 194q-36 95 -89 95q-21 0 -42 -15q-21 -13 -30 -32l20 2q36 0 57 -37q14 -31 14 -74q0 -74 -54 -134t-108 -60q-104 0 -104 127q0 67 17 122t55 106q76 106 195 106 q81 0 141 -118q53 -106 53 -228q0 -22 -4 -37q8 1 14 1q4 0 10 -1t9 -1l25 -3l-3 92l-3 49q0 43 54 43q32 0 43 -27q7 -18 7 -103q0 -77 9 -181.5t9 -131.5z"/>
<glyph glyph-name="Yacute" horiz-adv-x="802" unicode="" d="M385 157q-45 0 -85 -9.5t-82 -28.5q-88 -39 -88 -93q0 -38 62 -38q55 0 111 49.5t82 119.5zM237 360q0 26 -46 26q-30 0 -58 -11q-27 -14 -27 -36q0 -33 51 -33q27 0 53.5 16t26.5 38zM787 114q0 -98 -133 -200q-108 -82 -162 -82q-25 0 -43 14q-18 12 -18 31 q0 16 16 39.5t28 28.5l43 5q38 4 91 26q78 35 78 120q0 18 -19 18q-20 0 -36 -13t-17 -26v-11q0 -9 -18 -24q-21 -15 -38 -15q-40 0 -40 89v35l-59 6q-24 -107 -86 -178q-75 -86 -177 -86q-54 0 -107 38q-56 42 -56 101q0 75 93 140q56 37 125 59t151 22l4 41q0 96 -32 175 q-38 87 -98 87q-25 0 -51 -17q-3 -2 -17 -13q-22 -17 -35 -29q77 0 116 -33t39 -89t-77 -108q-67 -46 -122 -46q-27 0 -47 7.5t-38 25.5q-32 35 -32 96q0 105 85 205q92 108 210 108q73 0 121 -68q57 -83 57 -244q0 -36 -1.5 -51t-6.5 -40l50 -9q9 93 17 115t37 22 q43 0 43 -59q0 -17 -2 -50t-8 -88q50 27 72 27q41 0 70.5 -30t29.5 -72z"/>
<glyph glyph-name="Thorn" horiz-adv-x="810" unicode="" d="M325 -11l-80 42q-61 34 -76 51q-10 -3 -19 -8.5t-18 -13.5q-23 -20 -23 -35q0 -54 101 -54q34 0 61.5 4t53.5 14zM709 68q0 19 -39 40q-20 9 -41.5 14.5t-60.5 10.5q0 -22 -60 -99l79 -4q122 0 122 38zM475 145h-100q-38 0 -135 -31q18 -20 83.5 -41t96.5 -25 q27 17 55 97zM377 364q0 47 -15 47q-17 0 -31.5 -23.5t-16.5 -40.5q0 -47 26 -47q16 0 26.5 19.5t10.5 44.5zM923 759q4 -8 4 -30q0 -63 -46 -73q-8 0 -49 10t-66 10q-201 0 -315 -38q-142 -45 -226.5 -132t-84.5 -178q0 -101 32 -150q101 48 251 48l64 -3q6 11 6 63 q0 41 -13 83q-13 48 -34 52q0 -8 5 -22l5 -24q0 -64 -37.5 -103.5t-111.5 -39.5q-40 0 -72 39q-29 38 -29 86q0 58 48 118q57 68 146 68q77 0 135.5 -86.5t58.5 -194.5v-21v-14q-2 -9 -2 -12q33 0 65 -10.5t65 -29.5q80 -45 80 -119q0 -42 -71.5 -79.5t-140.5 -37.5 q-71 0 -158 18q-47 -42 -131 -69q-32 -9 -63.5 -15t-54.5 -6q-72 0 -122 34q-55 37 -55 96q0 30 30.5 77.5t68.5 66.5q-61 66 -61 161q0 88 43.5 170.5t118.5 144.5q97 77 234 120q125 39 238 39h139q81 0 106 -17z"/>
<glyph glyph-name="germandbls" horiz-adv-x="755" unicode="" d="M507 0q0 -193 -11 -249t-48 -56q-28 0 -38 25.5t-10 92.5l1 110l2 110q0 181 -30 235q-37 15 -131 15t-127 -11q-10 -23 -10 -52q0 -22 6 -57l6 -40q0 -16 -11.5 -32.5t-29.5 -18.5q-61 0 -61 110q0 126 33 159q77 43 234 43q123 0 186 -25q16 -8 26 -36t10 -75 q0 -41 1 -111t2 -137zM748 64q0 -38 -29 -69q-29 -28 -68 -28q-44 0 -79.5 37t-35.5 91q0 35 18 68q19 31 40 31q27 0 39 -21q6 -16 26 -41q13 -8 33 -11q17 0 25 -5q31 -16 31 -52zM365 107q0 -38 -31 -80.5t-66 -42.5q-31 0 -72 45q-42 53 -42 110q0 37 16 68 q8 15 17.5 23t22.5 8q26 0 39 -22q4 -11 26 -40q15 -9 35 -12q18 0 24 -3q31 -14 31 -54z"/>
<glyph glyph-name="agrave" horiz-adv-x="918" unicode="" d="M911 48q0 -27 -7 -41q-54 -11 -190 -25q-114 -10 -182 -10l-116 5q-44 0 -68.5 3.5t-40.5 10.5q-40 12 -40 52q0 39 92.5 155t92.5 165q0 85 -149 85q-71 0 -140 -30q-88 -39 -88 -108q0 -36 -19 -36q-25 0 -37 30.5t-12 65.5q0 56 81 119q96 73 225 73q94 0 150 -46 q60 -52 60 -146q0 -44 -40 -111q-12 -24 -72 -104q-39 -53 -39 -70q0 -12 50 -21t105 -9q74 13 161 22t176 9q12 0 20.5 -4t14.5 -10q12 -12 12 -24z"/>
<glyph glyph-name="aacute" horiz-adv-x="1294" unicode="" d="M976 78q0 17 -1.5 27t-5.5 18q-42 -7 -67 -29q16 -39 52 -39q22 0 22 23zM1279 156q0 -45 -8 -103.5t-28 -152.5q-31 -156 -53 -208q-12 -29 -43 -29q-43 0 -43 55l26 130q27 132 27 201q0 49 -11 63q-15 18 -45 18q-44 0 -54 -5q15 -29 15 -66q0 -36 -22.5 -58 t-55.5 -22q-42 0 -94 40t-52 90q0 22 20.5 49.5t44.5 40.5q-27 26 -49 44t-36 28q-26 17 -52.5 27t-49.5 10t-32 -1.5t-17 -6.5q-18 -9 -18 -37q0 -36 21.5 -71.5t50.5 -49.5q6 -3 44 -9q19 -3 19 -22q0 -33 -24 -58t-56 -25q-7 0 -29 13t-33 26q-56 -99 -159 -205 q-123 -126 -202 -126q-50 0 -89 27t-39 68q0 78 77 185l145 178q77 106 77 174q0 39 -24 57t-82 18q-89 0 -176 -41.5t-87 -91.5q0 -38 -13 -39q-13 0 -37 25q-26 31 -26 64q0 77 95 127q105 57 282 57q49 0 101 -42.5t52 -101.5q0 -54 -21.5 -101t-56.5 -93l-68 -82 q-127 -163 -127 -206q0 -57 65 -57q54 0 145 85t132 175q-33 57 -33 163q0 67 42 103q41 39 119 39q134 0 262 -200q38 15 155 15q128 0 128 -85z"/>
<glyph glyph-name="acircumflex" horiz-adv-x="526" unicode="" d="M504 252q0 -28 -4 -86q-9 -130 -9 -193q0 -88 -9 -160q-4 -35 -18 -103q-27 -27 -42 -29q-28 0 -40 26q-7 18 -7 69q3 46 5.5 92t2.5 79q0 52 4.5 125t4.5 85q0 111 -35 111q-97 0 -184.5 -73.5t-87.5 -140.5q0 -20 20 -20q23 0 68.5 37t64.5 75q25 0 38 -13 q16 -13 16 -29q0 -43 -66 -88q-63 -47 -105 -47q-48 0 -77.5 35.5t-29.5 105.5q0 48 49 115.5t125 111.5q81 47 198 47q79 0 100 -28q18 -24 18 -104z"/>
<glyph glyph-name="atilde" horiz-adv-x="539" unicode="" d="M525 259q0 -125 -22 -222q-13 -58 -29 -93.5t-40 -59.5q-64 -64 -170 -117q-59 -30 -251 -106q-113 -45 -233 -85q-110 -37 -236 -73q-190 -52 -225 -52q-29 0 -29 24q0 20 23 30l110 33q357 103 576 192.5t312 170.5q81 71 81 315q0 78 -19 78q-108 0 -198 -86 q-82 -77 -82 -143q0 -34 19 -34q15 0 41.5 20.5t40.5 45.5l24 41q10 20 26 22q48 0 48 -38q0 -52 -68 -107q-62 -49 -104 -49q-44 0 -74.5 41.5t-30.5 106.5q0 26 9.5 54t30.5 62q46 74 120 122q92 56 205 56q75 0 107 -32q38 -33 38 -117z"/>
<glyph glyph-name="adieresis" horiz-adv-x="704" unicode="" d="M689 276q0 -66 -50 -123q-40 -46 -123 -101l-155 -96q-94 -59 -159 -117q-71 -62 -71 -93q0 -17 24 -17q16 0 74.5 54.5t99.5 54.5q24 0 65.5 -40t73.5 -40q25 0 47 22q26 28 26 77q0 59 -51 59l-22 -3v22q33 51 114 51q78 0 78 -77q0 -67 -78.5 -150.5t-137.5 -83.5 q-41 0 -83 41q-45 39 -64 39q-25 0 -64 -36l-71 -67q-50 -36 -103 -36q-34 0 -60 20q-24 21 -24 53q0 77 101 159q54 43 239 156q66 40 102 64q41 27 65 47q75 61 75 105q0 35 -32 35q-30 0 -90.5 -61.5t-83.5 -61.5q-32 0 -53 48l-27 91q-14 48 -31 48q-29 0 -65 -49 q-19 -28 -29 -58t-10 -64l1 -23q12 -14 26 -14h4v-28q-38 -20 -64 -20q-34 0 -63 26q-26 28 -26 64q0 74 71 164q84 102 183 102q45 0 67 -46q9 -17 23 -86q9 -45 22 -46q14 0 35 22l43 46q91 82 136 82q40 0 70 -38q25 -36 25 -77z"/>
<glyph glyph-name="aring" horiz-adv-x="763" unicode="" d="M275 135q0 45 -28 76t-67 31q-25 0 -49 -14q-9 -17 -9 -46q0 -43 22 -72q26 -35 73 -35q25 0 41.5 16.5t16.5 43.5zM747 259q0 -62 -48 -101q-29 -22 -88 -44q-47 -18 -47 -31q0 -26 41 -51l73 -34l-14 -43q-10 1 -15 1q-59 0 -117 -46l-102 -97q-65 -54 -143 -54 q-69 0 -109 35.5t-40 90.5q9 12 36 24q26 9 56 9l42 -43q32 -29 63 -29q28 0 59 29l60 58q38 37 84 44q-49 20 -61 29q-31 23 -31 60q0 38 62 73l83 44q44 32 44 92t-62 97q-58 32 -145 32q-65 0 -148 -31q-95 -38 -116 -88q27 10 66 10q78 0 124.5 -39.5t46.5 -98.5 q0 -38 -65 -92q-69 -59 -146 -59q-75 0 -125 46t-50 120q0 90 79 181q111 122 307 122q160 0 261 -76q85 -63 85 -140z"/>
<glyph glyph-name="ae" horiz-adv-x="753" unicode="" d="M414 -92q0 17 -43 17q-26 0 -50.5 -13t-25.5 -26q0 -27 32 -27q27 0 56 16t31 33zM270 172q0 25 -15 46q-16 19 -42 19q-34 0 -61 -18q-25 -19 -25 -48q0 -32 22 -51.5t55 -19.5q66 0 66 72zM737 244q0 -65 -43 -94q-23 -15 -80 -30q-43 -9 -43 -28q0 -21 34 -45 q15 -11 34 -18t38 -10l2 -15q0 -29 -23 -39q-56 0 -116 -57l-104 -106q-66 -57 -131 -57q-39 0 -69 30q-28 31 -28 69q0 55 60 102q30 23 63 35t71 12q41 0 76 -31l59 36q-91 43 -91 96q0 31 65 60l75 32q39 24 39 70q0 57 -50 95q-57 46 -150 46q-81 0 -148 -22 q-85 -30 -112 -86q52 19 85 19q64 0 103.5 -30.5t39.5 -82.5q0 -75 -63 -123q-60 -50 -143 -50q-67 0 -116 46q-56 50 -56 135q0 94 116 185q125 98 279 98q141 0 239 -80q88 -72 88 -162z"/>
<glyph glyph-name="ccedilla" horiz-adv-x="678" unicode="" d="M577 141q0 48 -46 48q-22 0 -48 -26q-22 -28 -22 -57q0 -20 11.5 -32.5t30.5 -12.5q26 0 50 26t24 54zM244 139q0 33 -47 62l-45 -43q-30 -33 -30 -52q0 -33 38 -33q84 0 84 66zM434 425q0 28 -16 50q-15 17 -34 17q-23 0 -50 -36q-25 -38 -25 -66q0 -20 14.5 -37 t34.5 -17q32 0 55 26q21 27 21 63zM664 136q0 -53 -46 -98t-103 -45q-60 0 -104.5 38t-44.5 92q0 93 126 155l73 -37q20 -9 39.5 -19.5t28.5 -19.5q31 -28 31 -66zM324 164q0 -62 -40 -112q-47 -62 -132 -62q-53 0 -95 38t-42 101q0 55 67 112q62 51 97 51q35 -14 43 -18 q25 -11 45 -24q57 -39 57 -86zM522 425q0 -63 -58 -106q-54 -39 -122 -39q-52 0 -94.5 37t-42.5 82q0 64 50 114q45 43 96 43q73 0 122 -34.5t49 -96.5z"/>
<glyph glyph-name="egrave" horiz-adv-x="376" unicode="" d="M156 42h-36q-24 0 -24 -13q0 -23 29 -35q12 14 31 48zM409 -138q0 -47 -37 -81q-18 -16 -39 -24.5t-45 -8.5q-44 0 -97.5 40t-53.5 73q0 21 14 37t30 18q11 0 38 -21q24 -21 60 -21q21 0 21 13q0 25 -36 69.5t-55 54.5q-9 -17 -19 -32t-23 -31q-26 -32 -42 -32 q-39 0 -74.5 46.5t-35.5 91.5q0 40 23 40q14 0 38 7q14 3 25.5 5t20.5 2l32 -3l33 -3q48 115 59 190q-35 10 -62 10q-46 0 -70 -10q0 -30 17 -75l20 -47q0 -19 -29 -19q-27 0 -67 66t-40 120q0 22 12 42.5t29 29.5q30 17 129 17q130 0 182 -33l3 -22q0 -72 -119 -292 q53 -12 102 -75q56 -68 56 -142z"/>
<glyph glyph-name="eacute" horiz-adv-x="767" unicode="" d="M750 271q0 -37 -16 -152.5t-42 -175.5q-45 -118 -159 -118q-72 0 -128 23q-67 26 -67 69q0 41 50 96q50 50 50 86q0 49 -51 49q-71 0 -101 -70l-43 -103q-27 -55 -42 -56q-14 0 -28 15t-14 31q0 9 41 127t41 166q0 18 -2 24q-30 0 -69 -12.5t-45 -30.5q3 -13 22 -49 q15 -27 15 -50q0 -39 -30 -39q-32 0 -79.5 79.5t-47.5 134.5q0 46 48.5 69t106.5 23q13 0 34.5 1t49.5 4l69 5q74 0 74 -53q0 -39 -53 -160q64 35 129 35q96 0 96 -91q0 -47 -33 -95q-7 -11 -25.5 -32.5t-47.5 -52.5q3 -13 34 -23t64 -10l28 3q28 34 61 187q15 72 23 121 t8 80q0 21 0.5 44.5t3.5 36.5q6 17 26 17q38 0 49 -50v-103z"/>
<glyph glyph-name="ecircumflex" horiz-adv-x="537" unicode="" d="M237 108q-13 5 -27 5q-10 0 -79 -17q-2 -17 17.5 -38.5t38.5 -21.5q31 21 50 72zM288 252q-18 12 -46 12q-29 0 -45 -5v-67h79zM530 122q0 -47 -45 -47q-13 0 -31.5 4t-30.5 7l-98 19q-27 -74 -59 -110q-37 -42 -89 -42q-43 0 -101 41q-63 47 -63 108q0 42 77 78v58 q0 97 39 127q37 26 151 26q74 0 129 -40l-44 -165q38 -6 66.5 -11.5t40.5 -8.5q58 -18 58 -44z"/>
<glyph glyph-name="edieresis" horiz-adv-x="742" unicode="" d="M325 62q0 31 -21 31q-15 0 -28 -11t-15 -28q0 -45 20 -45q44 0 44 53zM749 -80q0 -118 -91 -184q-83 -59 -220 -59q-148 0 -266 89q-159 120 -159 361q0 77 13.5 150.5t41.5 149.5q46 127 117 221q64 85 104 85q24 0 45.5 -24.5t21.5 -52.5q-3 -4 -5 -6q-6 -6 -17 -15 q-25 -21 -49 -48q-69 -85 -120 -199q-64 -142 -64 -247q0 -133 31 -208.5t103 -125.5q91 -64 231 -64q80 0 129 37q54 43 54 120q0 49 -32 88.5t-82 51.5l-62 -102q-45 -70 -60 -70q-37 0 -37 54l34 64q19 37 34.5 67.5t29 64t22.5 67.5t9 57q0 21 -35 21q-61 0 -119 -32 q-73 -37 -79 -96q23 24 55 24q34 0 59 -22q26 -20 26 -50q0 -58 -52 -104q-48 -40 -92 -40q-115 0 -115 107q0 59 31.5 121t85.5 106q45 39 115 62q41 14 77 21t78 7q50 0 83.5 -15t33.5 -42q0 -37 -27 -96q-9 -21 -20 -39.5t-24 -35.5q163 -71 163 -219z"/>
<glyph glyph-name="igrave" horiz-adv-x="661" unicode="" d="M653 41q0 -28 -42 -45q-44 -15 -186 -35q-74 -9 -133 -14t-108 -5q-75 0 -88 14q-32 35 -50 123q-8 43 -22 182l-17 163q0 52 40 52q42 0 56 -49q3 -9 5 -25q6 -40 6 -85q0 -109 15 -176t38 -80q21 -14 57 -17l50 1q39 0 91 4t113 13l125 16q50 0 50 -37z"/>
<glyph glyph-name="iacute" horiz-adv-x="1016" unicode="" d="M714 95q0 17 -5 30l-63 -22v-7q0 -30 33 -30q35 0 35 29zM426 68l-42 78q-5 -2 -15 -20.5t-10 -26.5q0 -13 12 -26t29 -18zM1009 168q0 -17 -27 -191q-5 -34 -9 -65.5t-10.5 -71.5t-13 -68.5t-16.5 -56.5q-17 -54 -50 -54q-49 0 -49 60l19 145q9 67 14 111.5t5 69.5 l-6 81q-10 12 -70 12q3 -11 5 -20t2 -21q0 -40 -30 -75t-71 -35q-47 0 -93 40t-46 78q0 60 83 97q-43 16 -89 16q-32 0 -53 -4t-39 -16q43 -40 43 -116q0 -52 -36 -79q-24 -18 -56 -18q-51 0 -98.5 42.5t-47.5 91.5q0 50 50 106q-108 82 -163 82q-30 0 -42 -9.5t-12 -39.5 q0 -39 18 -78q11 -23 34 -52q18 -21 18 -27q0 -10 -16 -25q-15 -11 -29 -12q-45 0 -80 60q-33 63 -33 139q0 65 47 118q41 50 81 50q72 0 132 -38q35 -20 131 -103q73 25 123 25q138 0 213 -90q42 16 158 16q109 0 109 -75z"/>
<glyph glyph-name="icircumflex" horiz-adv-x="557" unicode="" d="M236 94q-32 0 -72 -0.5t-56 -11.5q9 -18 32 -38q23 -18 42 -18q24 0 54 68zM279 259q-38 6 -52 6h-6l-16 -92l58 -9zM549 3q0 -103 -208 -214q-62 -31 -284 -116q-170 -66 -421 -129.5t-322 -63.5q-48 0 -48 32q0 37 46 54l193 38q118 26 246.5 64.5t281.5 94.5 q33 11 87 31q41 15 116 45q179 83 179 154q0 46 -103 78q-12 -38 -51 -80q-44 -46 -82 -46q-50 0 -109 41q-65 44 -65 100q0 18 29.5 47.5t55.5 32.5l15 114q10 57 30 80q26 29 99 29q63 0 96 -9t77 -42q-7 -30 -22.5 -79.5t-36.5 -112.5q201 -65 201 -143z"/>
<glyph glyph-name="idieresis" horiz-adv-x="537" unicode="" d="M529 -17q0 -97 -239 -208q-164 -76 -556 -176q-353 -89 -430 -89q-18 0 -37.5 9.5t-21.5 24.5q0 31 47 46l123 15q75 11 167 31.5t207 52.5q244 66 412 151q199 98 199 178q0 24 -27 48q-15 12 -32 17.5t-41 5.5q-112 -196 -132 -196q-12 0 -24 9.5t-12 19.5 q0 5 48.5 115t74.5 200q-11 1 -21.5 1.5t-21.5 0.5h-20q-45 0 -68 -6l-4 -24q0 -28 17 -66l19 -44q0 -5 -15 -16q-12 -7 -25 -8q-27 0 -64.5 76t-37.5 121q0 8 8 31.5t18 32.5q51 34 151 34q200 0 200 -57q0 -26 -21.5 -78.5t-38.5 -75.5q88 -19 143 -64.5t55 -111.5z"/>
<glyph glyph-name="eth" horiz-adv-x="604" unicode="" d="M596 315q0 -96 -80 -209q-87 -123 -178 -123q-85 0 -171 82q-64 60 -117 155q-43 78 -43 95q0 14 35 44q41 32 76 32q18 0 51 -82q37 -104 72 -148q64 -84 123 -84t101 88q16 36 24.5 76t8.5 81q0 26 14.5 46.5t37.5 20.5q46 0 46 -74z"/>
<glyph glyph-name="ntilde" horiz-adv-x="698" unicode="" d="M682 146q0 -75 -56 -123.5t-145 -48.5q-198 0 -340 25q-32 6 -49 15q-31 19 -48 70l-48 360l-45 371q0 16 12.5 30t30.5 14q31 0 48 -15q8 -11 20 -45q5 -47 9 -104.5t4 -101.5q0 -37 8 -94t11 -84l12 -99q0 -53 11 -121t25 -83q12 -15 112 -27q77 -9 112 -9 q189 0 189 28q0 26 -87 64.5t-143 38.5q-61 0 -61 -54q0 -6 -6 -13t-13 -9q-28 0 -49.5 25.5t-21.5 54.5q0 40 67 85q77 53 176 53q77 0 171 -67t94 -136z"/>
<glyph glyph-name="ograve" horiz-adv-x="707" unicode="" d="M691 215q0 -115 -71 -214q-66 -89 -127 -89q-56 0 -109 44q-33 29 -71 82q-32 44 -40 44q-28 0 -72 -36.5t-66 -36.5q-45 0 -73 58q-40 79 -40 258l1 81l1 69q0 9 17 25q8 6 18 10.5t17 5.5q27 0 27 -35q0 -121 13 -215q17 -137 53 -137q15 0 54.5 34t75.5 34 q32 0 54 -40q6 -14 18 -41t19 -41q39 -70 91 -70q43 0 66 41q12 23 23.5 92.5t11.5 99.5q0 27 16.5 43.5t40.5 16.5q52 0 52 -83z"/>
<glyph glyph-name="oacute" horiz-adv-x="437" unicode="" d="M423 235q0 -114 -21 -213q-26 -128 -77 -178q-106 -107 -498 -249q-139 -50 -370 -116q-201 -55 -236 -55q-11 0 -20.5 5.5t-11.5 16.5q0 13 11.5 25.5t27.5 12.5q20 0 337 99q236 74 343 115q187 73 281 155q62 52 78 126q6 30 6 132q0 81 -6 105q-9 37 -44 37 q-96 0 -125 -39l-5 -53l4 -39l5 -41q0 -31 -39 -31q-30 0 -40 34q-4 14 -7 43.5t-3 66.5q0 104 62 142q27 18 93 29t140 11q58 0 89 -44q26 -38 26 -97z"/>
<glyph glyph-name="ocircumflex" horiz-adv-x="900" unicode="" d="M893 153q0 -17 -18 -71q-8 -26 -17 -47t-18 -37q-71 -115 -163 -115q-140 0 -303 163l-112 116q-57 54 -91 54q-35 0 -55 -48q-8 -21 -12 -40.5t-4 -44.5q0 -56 -46 -56q-23 0 -35 21t-12 49q0 72 47 161q56 103 133 103q67 0 142 -76l133 -154q43 -48 105 -93t105 -54 l28 -2q43 0 74 88q24 72 24 116q0 8 18.5 19t35.5 11q15 0 27 -21q14 -20 14 -42z"/>
<glyph glyph-name="otilde" horiz-adv-x="785" unicode="" d="M777 194q0 -102 -47.5 -162.5t-126.5 -60.5q-28 0 -91 4t-97 4q-100 9 -123 19q-35 15 -35 52q0 23 50 85l92 114q50 71 50 124q0 71 -117 71q-99 0 -171 -21q-90 -27 -90 -80l2 -17l2 -13q0 -7 -24 -7q-44 0 -44 65q0 67 77 122q39 27 94.5 40.5t128.5 13.5 q97 0 161 -44t64 -119q0 -117 -178 -295q41 -21 157 -21q83 0 105 17q31 28 31 116v41l1 44q20 10 48 10q81 0 81 -102z"/>
<glyph glyph-name="odieresis" horiz-adv-x="684" unicode="" d="M511 109q0 41 -31 81q-35 48 -88 48q-62 0 -62 -50q0 -78 26 -124h17h14q46 0 65 4q59 9 59 41zM669 97q0 -56 -29 -81q-22 -19 -69.5 -32t-68.5 -13l-44 -1l-41 -1q18 -35 52 -62q38 -32 75 -32q11 0 20.5 -2t19.5 -11q17 -14 17 -33q0 -47 -16 -47q-15 0 -50 7l-49 7 q-88 0 -178 -31q-53 -19 -130 -60q-61 -31 -80 -31q-10 0 -18 3.5t-18 12.5q-21 20 -21 49q0 38 134 86q120 42 175 42q11 0 43 7q-65 52 -89 106q-38 -5 -66 -5q-117 0 -160 47q-35 38 -48 115l-14 148l-23 214q0 50 43 50q40 0 55 -43q9 -27 9 -100q0 -248 53 -299 q22 -21 110 -34q-30 89 -30 182q0 45 37.5 83t88.5 38q107 0 206 -84q52 -44 78 -92.5t26 -102.5z"/>
<glyph glyph-name="divide" horiz-adv-x="697" unicode="" d="M689 -500q0 -19 -22 -39.5t-44 -20.5t-36 12.5t-16 30.5l1 151l1 171l6 143l8 152v13q0 46 -3 63q-8 49 -32 49q-27 0 -96.5 -34.5t-92.5 -34.5q-36 0 -87 39l-80 74q-45 39 -69 39q-14 0 -17 -3t-5 -17q0 -13 32 -56q34 -40 34 -57q0 -16 -13 -29.5t-30 -13.5 q-32 0 -71 45q-42 50 -42 104q0 47 37 88.5t87 41.5q36 0 85 -43l77 -80q41 -43 68 -43q31 0 106 39.5t107 39.5q38 0 65.5 -23.5t27.5 -69.5v-206v-260q0 -56 1 -97t5 -84z"/>
<glyph glyph-name="oslash" horiz-adv-x="655" unicode="" d="M640 242q0 -74 -12 -133t-38 -106q-44 -80 -129.5 -156t-218.5 -152t-458 -171q-277 -81 -307 -81q-11 0 -23 8.5t-12 21.5q0 25 30 25q45 0 243 55q257 72 442 169q172 87 270 199q114 123 114 249q0 106 -52 106q-36 0 -108 -89.5t-104 -89.5q-38 0 -61 53 q-8 18 -31 97q-14 53 -27 53q-50 0 -50 -239q0 -25 -14 -45.5t-30 -20.5q-50 0 -50 89q0 111 49.5 205t120.5 94q30 0 52 -45l34 -84q17 -45 37 -45t57 40q20 22 35 38q23 24 38 38q26 20 51 30t53 10q43 0 71 -38.5t28 -84.5z"/>
<glyph glyph-name="ugrave" horiz-adv-x="735" unicode="" d="M422 85q0 30 -14 40q-17 -3 -64 -28q19 -36 54 -36q24 0 24 24zM721 159q0 -84 -31 -251q-27 -161 -49 -210q-12 -30 -44 -30q-42 0 -42 60l22 127q23 129 23 195q0 57 -8 66q-14 17 -48 17q-46 0 -56 -5q21 -38 21 -63q0 -35 -27 -59t-58 -24q-36 0 -86 38 q-56 42 -56 90q0 47 64 87l-88 71q-56 36 -96 36q-71 0 -71 -43t22 -75q8 -10 41 -42q21 -20 21 -36q0 -15 -17.5 -32.5t-35.5 -19.5q-29 0 -67 57q-42 65 -42 148q0 162 164 162q133 0 258 -195q104 16 155 16q131 0 131 -85z"/>
<glyph glyph-name="uacute" horiz-adv-x="1020" unicode="" d="M1004 299q0 -101 -81 -236q-86 -142 -167 -142q-96 0 -171 191l-45 121q-22 55 -55 55q-41 0 -65 -77q-20 -63 -20 -136l1 -27l2 -23q0 -20 -14.5 -34t-28.5 -15q-14 0 -22 3q-11 7 -20 33l-15 81q-14 73 -35 127q-44 105 -110 105q-26 0 -45 -26.5t-19 -57.5 q0 -40 18 -72q6 -12 12.5 -20t23 -25t16.5 -30q0 -14 -16.5 -27.5t-33.5 -15.5q-48 0 -77 54q-24 51 -24 124q0 43 10.5 78t32.5 65q47 63 126 63q139 0 185 -236q6 45 16.5 78.5t26.5 60.5q38 69 102 69q41 0 68 -36q20 -27 41 -90q5 -22 14.5 -53t17.5 -56 q21 -70 54 -117.5t56 -47.5q27 0 76 92q56 101 56 183q0 14 -5 29l-4 20q0 6 25 15q21 6 36 6q23 0 40 -15.5t17 -37.5z"/>
<glyph glyph-name="ucircumflex" horiz-adv-x="1018" unicode="" d="M1012 114q0 -8 -12 -25t-25 -17q-10 0 -50 -13l-64 -19l-33 -204q-18 -116 -28 -139q-9 -26 -28 -26q-57 0 -57 52l21 128l28 166q-60 -14 -180.5 -26.5t-182.5 -12.5q-145 0 -145 69q0 22 21 51l51 61q20 24 38.5 51t36.5 61q35 67 35 102q0 40 -38 61q-35 21 -90 21 q-96 0 -170.5 -40.5t-74.5 -86.5q0 -27 -20 -27q-16 0 -26 23q-12 21 -12 48q0 83 82 137t209 54q217 0 217 -169q0 -63 -38 -132q-9 -18 -26.5 -45t-41.5 -60q-35 -46 -37 -62q0 -19 58 -19l41 1l36 2q62 0 138 11l127 19v45q0 79 -21 118t-74 39q-56 0 -56 -46 q0 -44 23 -79q24 -33 24 -44t-12 -24.5t-24 -14.5q-17 0 -45 52q-33 64 -33 134q0 68 40.5 108.5t103.5 40.5q80 0 126 -67q22 -34 33.5 -82.5t11.5 -110.5v-48q20 0 58 13l47 13q15 0 26 -14q12 -12 12 -28z"/>
<glyph glyph-name="udieresis" horiz-adv-x="704" unicode="" d="M688 281q0 -79 -95 -164q-57 -51 -190 -130t-157 -100q95 53 173.5 80t140.5 27q39 0 65.5 -22t26.5 -59q0 -120 -269 -310l-79 -52q-60 -38 -72 -38q-14 0 -16 17q0 15 34 41l81 55q75 57 134 122q64 71 64 112q0 55 -31 55q-81 0 -198 -50q-68 -30 -122 -64t-97 -74 q-10 -9 -25.5 -30t-37.5 -55q-28 -39 -58 -39q-14 0 -30 20.5t-18 36.5q0 30 18 72q8 18 20.5 35.5t26.5 30.5q32 28 64.5 51.5t76.5 48.5l153 86q44 27 90 58q24 16 81.5 55.5t81.5 62.5q30 32 30 67q0 12 -6.5 23.5t-18.5 11.5q-37 0 -97 -63t-89 -63q-27 0 -48 49 q-1 4 -9 30q-12 42 -17 62q-12 48 -26 49q-29 0 -66 -49q-21 -26 -31.5 -51t-10.5 -52l1 -40q3 -13 21 -19q4 -7 4 -12q0 -9 -7 -17q-25 -16 -49 -16q-21 0 -36 5.5t-30 19.5q-26 26 -26 60q0 80 78 164q85 91 187 91q53 0 74 -104q6 -38 8 -40q5 -18 14 -18q17 0 40 22 l43 46q23 20 56 39q47 27 82 27q46 0 72 -33q9 -14 15 -31.5t6 -36.5z"/>
<glyph glyph-name="yacute" horiz-adv-x="1296" unicode="" d="M1280 289q0 -134 -105.5 -275t-252.5 -220q-134 -70 -374 -140q-188 -53 -383 -92q-172 -34 -200 -34q-34 0 -34 27q0 22 30 31l299 63q337 81 552 187q337 165 337 368q0 69 -43 69q-34 0 -123.5 -98t-122.5 -98q-38 0 -70 92l-24 80q-12 38 -27 40q-31 0 -48 -58 q-9 -32 -17.5 -109.5t-17.5 -90.5q-24 -34 -89 -46q-23 -3 -107 -3q-65 0 -117 23t-52 66q0 33 73.5 123.5t73.5 135.5q0 50 -99 50q-92 0 -160 -15q-85 -21 -85 -66q0 -7 6 -19q6 -9 6 -17q0 -36 -26 -36q-29 0 -49 23q-17 23 -17 61q0 70 87.5 122t224.5 52q104 0 165 -42 q56 -36 56 -90q0 -67 -147 -237q33 -24 85 -24h15h12q21 0 37 1t27 4l21 82q12 53 28 87q56 122 155 122q42 0 68 -38l28 -85q23 -67 43 -67q13 0 40 38l56 85q34 49 60 67q40 32 98 32q51 0 83 -45q24 -35 24 -86z"/>
<glyph glyph-name="thorn" horiz-adv-x="1267" unicode="" d="M530 38q0 19 -13 38q-12 21 -31 25l-4 -18q0 -20 15 -41q14 -16 28 -18q3 3 4 6t1 8zM218 102q-28 0 -52.5 -5.5t-51.5 -19.5q11 -41 50 -41h7q16 6 47 66zM268 254q-24 0 -81 -18l-10 -50l79 10zM1259 79q0 -25 -46 -47q-37 -15 -71 -20q0 -23 -8 -64.5t-24 -113.5 q-31 -127 -47 -160q-12 -26 -34 -26q-30 0 -30 43l27 114q13 55 21 104t8 84q-108 -17 -188 -17q-99 0 -134 6q-70 13 -70 62q0 7 28.5 77.5t28.5 120.5q0 85 -71 85q-61 0 -112 -58q-38 -47 -51 -96q71 -24 111 -72q34 -40 34 -91q0 -88 -89 -88q-67 0 -106 64 q-15 27 -21.5 56.5t-6.5 66.5h-85l-60 -105q-40 -61 -74 -61q-66 0 -124 43t-58 91q0 35 18 53q9 11 46 29q0 24 0.5 48t6.5 60q11 64 26 82q8 11 61 24q26 5 37 7q30 5 57 5q36 0 83 -13.5t54 -26.5q3 -6 3 -16q0 -32 -43 -137l61 -5q0 49 20 92t60 86q78 83 180 83 q64 0 104.5 -38t40.5 -95q0 -67 -25 -139l-39 -96q24 -11 65.5 -17t100.5 -6q89 0 141 11l-13 107q-12 57 -58 57q-50 0 -50 -57q0 -30 12 -47.5t14 -25.5q0 -36 -26 -36q-32 0 -54 52q-17 43 -17 103q0 63 40.5 115t100.5 52q67 0 101 -78q25 -64 25 -155l-1 -72 q56 16 92 16q28 0 28 -20z"/>
<glyph glyph-name="ydieresis" horiz-adv-x="1150" unicode="" d="M1002 602q0 15 -6 23q-10 22 -34 43q-23 18 -48 21q-6 -8 -7 -22l1 -24l8 -28q15 -42 56 -42q11 0 15 2q15 7 15 27zM1132 210q0 -21 -1.5 -30.5t-6.5 -30.5q-39 -156 -287.5 -270.5t-561.5 -114.5q-148 0 -295 30l39 87q61 -16 139.5 -25.5t149.5 -9.5q223 0 418 70.5 t280 173.5q26 31 46 72q19 43 19 63q0 13 -12 22l-15 4q-27 0 -68 -32q-33 -27 -53 -52q-14 -46 -32.5 -74t-44.5 -46q-40 14 -64 49l-12 31q13 37 37 65q10 11 15.5 16.5t20.5 17.5q22 37 37 97q13 63 13 97q0 13 -5 21q-5 1 -10 1q-31 0 -85 -49q-34 -32 -57.5 -65.5 t-40.5 -74.5q0 -86 -16 -146q-8 -29 -19.5 -54t-30.5 -48q-31 6 -68 35q-28 22 -43 47q0 35 18 91q25 77 74 139q-7 37 -26 77q-24 49 -49 49q-18 0 -31 -22q-21 -100 -58 -192.5t-100 -160.5q-36 -39 -78 -58.5t-80 -19.5q-40 0 -77 19q-34 22 -49 59.5t-15 82.5q0 27 6 62 q2 12 4.5 25t10 35.5t20.5 52.5t26 57q41 72 91 128l80 -69q-27 -21 -66 -74q-20 -27 -35.5 -52.5t-24.5 -45t-15.5 -39.5t-12.5 -42q-10 -42 -10 -70q0 -47 27 -58l15 -2q40 0 86 37q56 46 98 141l35 100l21 67q11 40 47 63.5t82 23.5q41 0 83 -21q20 -11 35.5 -26 t32.5 -40l27 24l29 22q-14 16 -21.5 26t-15.5 22q-3 7 -8 22.5t-5 29.5q0 73 57 130.5t147 57.5q89 0 136 -19q46 -16 58 -46l5 -18l2 -18q0 -30 -24 -56q-20 -22 -52 -34l-33 -11l-41 -4q-33 0 -59.5 11t-46.5 39q-8 10 -12.5 29t-4.5 35l2 27q-13 -15 -18.5 -24t-11.5 -24 q-3 -12 -5 -22t-2 -23l2 -17l9 -39q5 -12 11.5 -20.5t14.5 -13.5q13 1 23 1.5t16 0.5h13q44 0 65 -10q13 -5 25.5 -34t12.5 -66q0 -23 -2 -32.5t-9 -37.5l38 8l32 2q47 0 71 -31.5t24 -80.5z"/>
<glyph glyph-name="OE" horiz-adv-x="707" unicode="" d="M403 552q0 -25 -33 -57q-33 -30 -68 -30q-48 0 -81.5 40t-33.5 101q0 39 19 66.5t50 27.5q23 0 43 -33l19 -33q12 0 27 -7l22 -6q10 0 23 -26q3 -6 8 -18.5t5 -24.5zM691 215q0 -115 -71 -214q-66 -89 -127 -89q-56 0 -109 44q-33 29 -71 82q-32 44 -40 44 q-28 0 -72 -36.5t-66 -36.5q-45 0 -73 58q-40 79 -40 258l1 81l1 69q0 9 17 25q8 6 18 10.5t17 5.5q27 0 27 -35q0 -121 13 -215q17 -137 53 -137q15 0 54.5 34t75.5 34q32 0 54 -40q6 -14 18 -41t19 -41q39 -70 91 -70q43 0 66 41q12 23 23.5 92.5t11.5 99.5 q0 27 16.5 43.5t40.5 16.5q52 0 52 -83z"/>
<glyph glyph-name="oe" horiz-adv-x="697" unicode="" d="M403 552q0 -25 -33 -57q-33 -30 -68 -30q-48 0 -81.5 40t-33.5 101q0 39 19 66.5t50 27.5q23 0 43 -33l19 -33q12 0 27 -7l22 -6q10 0 23 -26q3 -6 8 -18.5t5 -24.5zM689 -500q0 -19 -22 -39.5t-44 -20.5t-36 12.5t-16 30.5l1 151l1 171l6 143l8 152v13q0 46 -3 63 q-8 49 -32 49q-27 0 -96.5 -34.5t-92.5 -34.5q-36 0 -87 39l-80 74q-45 39 -69 39q-14 0 -17 -3t-5 -17q0 -13 32 -56q34 -40 34 -57q0 -16 -13 -29.5t-30 -13.5q-32 0 -71 45q-42 50 -42 104q0 47 37 88.5t87 41.5q36 0 85 -43l77 -80q41 -43 68 -43q31 0 106 39.5 t107 39.5q38 0 65.5 -23.5t27.5 -69.5v-206v-260q0 -56 1 -97t5 -84z"/>
<glyph glyph-name="Scaron" horiz-adv-x="604" unicode="" d="M403 552q0 -25 -33 -57q-33 -30 -68 -30q-48 0 -81.5 40t-33.5 101q0 39 19 66.5t50 27.5q23 0 43 -33l19 -33q12 0 27 -7l22 -6q10 0 23 -26q3 -6 8 -18.5t5 -24.5zM596 315q0 -96 -80 -209q-87 -123 -178 -123q-85 0 -171 82q-64 60 -117 155q-43 78 -43 95q0 14 35 44 q41 32 76 32q18 0 51 -82q37 -104 72 -148q64 -84 123 -84t101 88q16 36 24.5 76t8.5 81q0 26 14.5 46.5t37.5 20.5q46 0 46 -74z"/>
<glyph glyph-name="scaron" horiz-adv-x="785" unicode="" d="M733 552q0 -25 -33 -57q-33 -30 -68 -30q-48 0 -81.5 40t-33.5 101q0 39 19 66.5t50 27.5q23 0 43 -33l19 -33q12 0 27 -7l22 -6q10 0 23 -26q3 -6 8 -18.5t5 -24.5zM777 194q0 -102 -47.5 -162.5t-126.5 -60.5q-28 0 -91 4t-97 4q-100 9 -123 19q-35 15 -35 52 q0 23 50 85l92 114q50 71 50 124q0 71 -117 71q-99 0 -171 -21q-90 -27 -90 -80l2 -17l2 -13q0 -7 -24 -7q-44 0 -44 65q0 67 77 122q39 27 94.5 40.5t128.5 13.5q97 0 161 -44t64 -119q0 -117 -178 -295q41 -21 157 -21q83 0 105 17q31 28 31 116v41l1 44q20 10 48 10 q81 0 81 -102z"/>
<glyph glyph-name="Ydieresis" horiz-adv-x="655" unicode="" d="M403 552q0 -25 -33 -57q-33 -30 -68 -30q-48 0 -81.5 40t-33.5 101q0 39 19 66.5t50 27.5q23 0 43 -33l19 -33q12 0 27 -7l22 -6q10 0 23 -26q3 -6 8 -18.5t5 -24.5zM640 242q0 -74 -12 -133t-38 -106q-44 -80 -129.5 -156t-218.5 -152t-458 -171q-277 -81 -307 -81 q-11 0 -23 8.5t-12 21.5q0 25 30 25q45 0 243 55q257 72 442 169q172 87 270 199q114 123 114 249q0 106 -52 106q-36 0 -108 -89.5t-104 -89.5q-38 0 -61 53q-8 18 -31 97q-14 53 -27 53q-50 0 -50 -239q0 -25 -14 -45.5t-30 -20.5q-50 0 -50 89q0 111 49.5 205t120.5 94 q30 0 52 -45l34 -84q17 -45 37 -45t57 40q20 22 35 38q23 24 38 38q26 20 51 30t53 10q43 0 71 -38.5t28 -84.5z"/>
<glyph glyph-name="florin" horiz-adv-x="767" unicode="" d="M403 552q0 -25 -33 -57q-33 -30 -68 -30q-48 0 -81.5 40t-33.5 101q0 39 19 66.5t50 27.5q23 0 43 -33l19 -33q12 0 27 -7l22 -6q10 0 23 -26q3 -6 8 -18.5t5 -24.5zM750 271q0 -37 -16 -152.5t-42 -175.5q-45 -118 -159 -118q-72 0 -128 23q-67 26 -67 69q0 41 50 96 q50 50 50 86q0 49 -51 49q-71 0 -101 -70l-43 -103q-27 -55 -42 -56q-14 0 -28 15t-14 31q0 9 41 127t41 166q0 18 -2 24q-30 0 -69 -12.5t-45 -30.5q3 -13 22 -49q15 -27 15 -50q0 -39 -30 -39q-32 0 -79.5 79.5t-47.5 134.5q0 46 48.5 69t106.5 23q13 0 34.5 1t49.5 4 l69 5q74 0 74 -53q0 -39 -53 -160q64 35 129 35q96 0 96 -91q0 -47 -33 -95q-7 -11 -25.5 -32.5t-47.5 -52.5q3 -13 34 -23t64 -10l28 3q28 34 61 187q15 72 23 121t8 80q0 21 0.5 44.5t3.5 36.5q6 17 26 17q38 0 49 -50v-103z"/>
<glyph glyph-name="circumflex" horiz-adv-x="557" unicode="" d="M403 552q0 -25 -33 -57q-33 -30 -68 -30q-48 0 -81.5 40t-33.5 101q0 39 19 66.5t50 27.5q23 0 43 -33l19 -33q12 0 27 -7l22 -6q10 0 23 -26q3 -6 8 -18.5t5 -24.5zM236 94q-32 0 -72 -0.5t-56 -11.5q9 -18 32 -38q23 -18 42 -18q24 0 54 68zM279 259q-38 6 -52 6h-6 l-16 -92l58 -9zM549 3q0 -103 -208 -214q-62 -31 -284 -116q-170 -66 -421 -129.5t-322 -63.5q-48 0 -48 32q0 37 46 54l193 38q118 26 246.5 64.5t281.5 94.5q33 11 87 31q41 15 116 45q179 83 179 154q0 46 -103 78q-12 -38 -51 -80q-44 -46 -82 -46q-50 0 -109 41 q-65 44 -65 100q0 18 29.5 47.5t55.5 32.5l15 114q10 57 30 80q26 29 99 29q63 0 96 -9t77 -42q-7 -30 -22.5 -79.5t-36.5 -112.5q201 -65 201 -143z"/>
<glyph glyph-name="caron" horiz-adv-x="1000" unicode=""/>
<glyph glyph-name="tilde" horiz-adv-x="437" unicode="" d="M403 552q0 -25 -33 -57q-33 -30 -68 -30q-48 0 -81.5 40t-33.5 101q0 39 19 66.5t50 27.5q23 0 43 -33l19 -33q12 0 27 -7l22 -6q10 0 23 -26q3 -6 8 -18.5t5 -24.5zM423 235q0 -114 -21 -213q-26 -128 -77 -178q-106 -107 -498 -249q-139 -50 -370 -116 q-201 -55 -236 -55q-11 0 -20.5 5.5t-11.5 16.5q0 13 11.5 25.5t27.5 12.5q20 0 337 99q236 74 343 115q187 73 281 155q62 52 78 126q6 30 6 132q0 81 -6 105q-9 37 -44 37q-96 0 -125 -39l-5 -53l4 -39l5 -41q0 -31 -39 -31q-30 0 -40 34q-4 14 -7 43.5t-3 66.5 q0 104 62 142q27 18 93 29t140 11q58 0 89 -44q26 -38 26 -97z"/>
<glyph glyph-name="Aytham" horiz-adv-x="678" unicode="" d="M577 141q0 48 -46 48q-22 0 -48 -26q-22 -28 -22 -57q0 -20 11.5 -32.5t30.5 -12.5q26 0 50 26t24 54zM244 139q0 33 -47 62l-45 -43q-30 -33 -30 -52q0 -33 38 -33q84 0 84 66zM434 425q0 28 -16 50q-15 17 -34 17q-23 0 -50 -36q-25 -38 -25 -66q0 -20 14.5 -37 t34.5 -17q32 0 55 26q21 27 21 63zM664 136q0 -53 -46 -98t-103 -45q-60 0 -104.5 38t-44.5 92q0 93 126 155l73 -37q20 -9 39.5 -19.5t28.5 -19.5q31 -28 31 -66zM324 164q0 -62 -40 -112q-47 -62 -132 -62q-53 0 -95 38t-42 101q0 55 67 112q62 51 97 51q35 -14 43 -18 q25 -11 45 -24q57 -39 57 -86zM522 425q0 -63 -58 -106q-54 -39 -122 -39q-52 0 -94.5 37t-42.5 82q0 64 50 114q45 43 96 43q73 0 122 -34.5t49 -96.5z"/>
<glyph glyph-name="uni0B84" horiz-adv-x="1000" unicode=""/>
<glyph glyph-name="TamlA" horiz-adv-x="653" unicode="" d="M369 165q-103 -19 -169 -52t-66 -69q0 -40 57 -40q56 0 119 62.5t59 98.5zM179 388q0 54 -25 54q-8 0 -25 -36q-1 -4 -7 -25.5t-6 -35.5q0 -44 14 -44q15 0 32 21.5t17 65.5zM645 11q0 -18 -15.5 -30t-33.5 -14q-56 0 -56 79l-4 123l-82 3q-25 -88 -108 -174 q-92 -96 -172 -96q-62 0 -103 35.5t-41 80.5q0 87 94 148q40 25 104 47.5t155 43.5q0 107 -33 194q-36 95 -89 95q-21 0 -42 -15q-21 -13 -30 -32l20 2q36 0 57 -37q14 -31 14 -74q0 -74 -54 -134t-108 -60q-104 0 -104 127q0 67 17 122t55 106q76 106 195 106 q81 0 141 -118q53 -106 53 -228q0 -22 -4 -37q8 1 14 1q4 0 10 -1t9 -1l25 -3l-3 92l-3 49q0 43 54 43q32 0 43 -27q7 -18 7 -103q0 -77 9 -181.5t9 -131.5z"/>
<glyph glyph-name="TamlAA" horiz-adv-x="802" unicode="" d="M385 157q-45 0 -85 -9.5t-82 -28.5q-88 -39 -88 -93q0 -38 62 -38q55 0 111 49.5t82 119.5zM237 360q0 26 -46 26q-30 0 -58 -11q-27 -14 -27 -36q0 -33 51 -33q27 0 53.5 16t26.5 38zM787 114q0 -98 -133 -200q-108 -82 -162 -82q-25 0 -43 14q-18 12 -18 31 q0 16 16 39.5t28 28.5l43 5q38 4 91 26q78 35 78 120q0 18 -19 18q-20 0 -36 -13t-17 -26v-11q0 -9 -18 -24q-21 -15 -38 -15q-40 0 -40 89v35l-59 6q-24 -107 -86 -178q-75 -86 -177 -86q-54 0 -107 38q-56 42 -56 101q0 75 93 140q56 37 125 59t151 22l4 41q0 96 -32 175 q-38 87 -98 87q-25 0 -51 -17q-3 -2 -17 -13q-22 -17 -35 -29q77 0 116 -33t39 -89t-77 -108q-67 -46 -122 -46q-27 0 -47 7.5t-38 25.5q-32 35 -32 96q0 105 85 205q92 108 210 108q73 0 121 -68q57 -83 57 -244q0 -36 -1.5 -51t-6.5 -40l50 -9q9 93 17 115t37 22 q43 0 43 -59q0 -17 -2 -50t-8 -88q50 27 72 27q41 0 70.5 -30t29.5 -72z"/>
<glyph glyph-name="TamlI" horiz-adv-x="810" unicode="" d="M325 -11l-80 42q-61 34 -76 51q-10 -3 -19 -8.5t-18 -13.5q-23 -20 -23 -35q0 -54 101 -54q34 0 61.5 4t53.5 14zM709 68q0 19 -39 40q-20 9 -41.5 14.5t-60.5 10.5q0 -22 -60 -99l79 -4q122 0 122 38zM475 145h-100q-38 0 -135 -31q18 -20 83.5 -41t96.5 -25 q27 17 55 97zM377 364q0 47 -15 47q-17 0 -31.5 -23.5t-16.5 -40.5q0 -47 26 -47q16 0 26.5 19.5t10.5 44.5zM923 759q4 -8 4 -30q0 -63 -46 -73q-8 0 -49 10t-66 10q-201 0 -315 -38q-142 -45 -226.5 -132t-84.5 -178q0 -101 32 -150q101 48 251 48l64 -3q6 11 6 63 q0 41 -13 83q-13 48 -34 52q0 -8 5 -22l5 -24q0 -64 -37.5 -103.5t-111.5 -39.5q-40 0 -72 39q-29 38 -29 86q0 58 48 118q57 68 146 68q77 0 135.5 -86.5t58.5 -194.5v-21v-14q-2 -9 -2 -12q33 0 65 -10.5t65 -29.5q80 -45 80 -119q0 -42 -71.5 -79.5t-140.5 -37.5 q-71 0 -158 18q-47 -42 -131 -69q-32 -9 -63.5 -15t-54.5 -6q-72 0 -122 34q-55 37 -55 96q0 30 30.5 77.5t68.5 66.5q-61 66 -61 161q0 88 43.5 170.5t118.5 144.5q97 77 234 120q125 39 238 39h139q81 0 106 -17z"/>
<glyph glyph-name="TamlII" horiz-adv-x="755" unicode="" d="M507 0q0 -193 -11 -249t-48 -56q-28 0 -38 25.5t-10 92.5l1 110l2 110q0 181 -30 235q-37 15 -131 15t-127 -11q-10 -23 -10 -52q0 -22 6 -57l6 -40q0 -16 -11.5 -32.5t-29.5 -18.5q-61 0 -61 110q0 126 33 159q77 43 234 43q123 0 186 -25q16 -8 26 -36t10 -75 q0 -41 1 -111t2 -137zM748 64q0 -38 -29 -69q-29 -28 -68 -28q-44 0 -79.5 37t-35.5 91q0 35 18 68q19 31 40 31q27 0 39 -21q6 -16 26 -41q13 -8 33 -11q17 0 25 -5q31 -16 31 -52zM365 107q0 -38 -31 -80.5t-66 -42.5q-31 0 -72 45q-42 53 -42 110q0 37 16 68 q8 15 17.5 23t22.5 8q26 0 39 -22q4 -11 26 -40q15 -9 35 -12q18 0 24 -3q31 -14 31 -54z"/>
<glyph glyph-name="TamlU" horiz-adv-x="918" unicode="" d="M911 48q0 -27 -7 -41q-54 -11 -190 -25q-114 -10 -182 -10l-116 5q-44 0 -68.5 3.5t-40.5 10.5q-40 12 -40 52q0 39 92.5 155t92.5 165q0 85 -149 85q-71 0 -140 -30q-88 -39 -88 -108q0 -36 -19 -36q-25 0 -37 30.5t-12 65.5q0 56 81 119q96 73 225 73q94 0 150 -46 q60 -52 60 -146q0 -44 -40 -111q-12 -24 -72 -104q-39 -53 -39 -70q0 -12 50 -21t105 -9q74 13 161 22t176 9q12 0 20.5 -4t14.5 -10q12 -12 12 -24z"/>
<glyph glyph-name="TamlUU" horiz-adv-x="1294" unicode="" d="M976 78q0 17 -1.5 27t-5.5 18q-42 -7 -67 -29q16 -39 52 -39q22 0 22 23zM1279 156q0 -45 -8 -103.5t-28 -152.5q-31 -156 -53 -208q-12 -29 -43 -29q-43 0 -43 55l26 130q27 132 27 201q0 49 -11 63q-15 18 -45 18q-44 0 -54 -5q15 -29 15 -66q0 -36 -22.5 -58 t-55.5 -22q-42 0 -94 40t-52 90q0 22 20.5 49.5t44.5 40.5q-27 26 -49 44t-36 28q-26 17 -52.5 27t-49.5 10t-32 -1.5t-17 -6.5q-18 -9 -18 -37q0 -36 21.5 -71.5t50.5 -49.5q6 -3 44 -9q19 -3 19 -22q0 -33 -24 -58t-56 -25q-7 0 -29 13t-33 26q-56 -99 -159 -205 q-123 -126 -202 -126q-50 0 -89 27t-39 68q0 78 77 185l145 178q77 106 77 174q0 39 -24 57t-82 18q-89 0 -176 -41.5t-87 -91.5q0 -38 -13 -39q-13 0 -37 25q-26 31 -26 64q0 77 95 127q105 57 282 57q49 0 101 -42.5t52 -101.5q0 -54 -21.5 -101t-56.5 -93l-68 -82 q-127 -163 -127 -206q0 -57 65 -57q54 0 145 85t132 175q-33 57 -33 163q0 67 42 103q41 39 119 39q134 0 262 -200q38 15 155 15q128 0 128 -85z"/>
<glyph glyph-name="TamlE" horiz-adv-x="526" unicode="" d="M504 252q0 -28 -4 -86q-9 -130 -9 -193q0 -88 -9 -160q-4 -35 -18 -103q-27 -27 -42 -29q-28 0 -40 26q-7 18 -7 69q3 46 5.5 92t2.5 79q0 52 4.5 125t4.5 85q0 111 -35 111q-97 0 -184.5 -73.5t-87.5 -140.5q0 -20 20 -20q23 0 68.5 37t64.5 75q25 0 38 -13 q16 -13 16 -29q0 -43 -66 -88q-63 -47 -105 -47q-48 0 -77.5 35.5t-29.5 105.5q0 48 49 115.5t125 111.5q81 47 198 47q79 0 100 -28q18 -24 18 -104z"/>
<glyph glyph-name="TamlEE" horiz-adv-x="539" unicode="" d="M525 259q0 -125 -22 -222q-13 -58 -29 -93.5t-40 -59.5q-64 -64 -170 -117q-59 -30 -251 -106q-113 -45 -233 -85q-110 -37 -236 -73q-190 -52 -225 -52q-29 0 -29 24q0 20 23 30l110 33q357 103 576 192.5t312 170.5q81 71 81 315q0 78 -19 78q-108 0 -198 -86 q-82 -77 -82 -143q0 -34 19 -34q15 0 41.5 20.5t40.5 45.5l24 41q10 20 26 22q48 0 48 -38q0 -52 -68 -107q-62 -49 -104 -49q-44 0 -74.5 41.5t-30.5 106.5q0 26 9.5 54t30.5 62q46 74 120 122q92 56 205 56q75 0 107 -32q38 -33 38 -117z"/>
<glyph glyph-name="TamlAI" horiz-adv-x="704" unicode="" d="M689 276q0 -66 -50 -123q-40 -46 -123 -101l-155 -96q-94 -59 -159 -117q-71 -62 -71 -93q0 -17 24 -17q16 0 74.5 54.5t99.5 54.5q24 0 65.5 -40t73.5 -40q25 0 47 22q26 28 26 77q0 59 -51 59l-22 -3v22q33 51 114 51q78 0 78 -77q0 -67 -78.5 -150.5t-137.5 -83.5 q-41 0 -83 41q-45 39 -64 39q-25 0 -64 -36l-71 -67q-50 -36 -103 -36q-34 0 -60 20q-24 21 -24 53q0 77 101 159q54 43 239 156q66 40 102 64q41 27 65 47q75 61 75 105q0 35 -32 35q-30 0 -90.5 -61.5t-83.5 -61.5q-32 0 -53 48l-27 91q-14 48 -31 48q-29 0 -65 -49 q-19 -28 -29 -58t-10 -64l1 -23q12 -14 26 -14h4v-28q-38 -20 -64 -20q-34 0 -63 26q-26 28 -26 64q0 74 71 164q84 102 183 102q45 0 67 -46q9 -17 23 -86q9 -45 22 -46q14 0 35 22l43 46q91 82 136 82q40 0 70 -38q25 -36 25 -77z"/>
<glyph glyph-name="TamlO" horiz-adv-x="763" unicode="" d="M275 135q0 45 -28 76t-67 31q-25 0 -49 -14q-9 -17 -9 -46q0 -43 22 -72q26 -35 73 -35q25 0 41.5 16.5t16.5 43.5zM747 259q0 -62 -48 -101q-29 -22 -88 -44q-47 -18 -47 -31q0 -26 41 -51l73 -34l-14 -43q-10 1 -15 1q-59 0 -117 -46l-102 -97q-65 -54 -143 -54 q-69 0 -109 35.5t-40 90.5q9 12 36 24q26 9 56 9l42 -43q32 -29 63 -29q28 0 59 29l60 58q38 37 84 44q-49 20 -61 29q-31 23 -31 60q0 38 62 73l83 44q44 32 44 92t-62 97q-58 32 -145 32q-65 0 -148 -31q-95 -38 -116 -88q27 10 66 10q78 0 124.5 -39.5t46.5 -98.5 q0 -38 -65 -92q-69 -59 -146 -59q-75 0 -125 46t-50 120q0 90 79 181q111 122 307 122q160 0 261 -76q85 -63 85 -140z"/>
<glyph glyph-name="TamlOO" horiz-adv-x="753" unicode="" d="M414 -92q0 17 -43 17q-26 0 -50.5 -13t-25.5 -26q0 -27 32 -27q27 0 56 16t31 33zM270 172q0 25 -15 46q-16 19 -42 19q-34 0 -61 -18q-25 -19 -25 -48q0 -32 22 -51.5t55 -19.5q66 0 66 72zM737 244q0 -65 -43 -94q-23 -15 -80 -30q-43 -9 -43 -28q0 -21 34 -45 q15 -11 34 -18t38 -10l2 -15q0 -29 -23 -39q-56 0 -116 -57l-104 -106q-66 -57 -131 -57q-39 0 -69 30q-28 31 -28 69q0 55 60 102q30 23 63 35t71 12q41 0 76 -31l59 36q-91 43 -91 96q0 31 65 60l75 32q39 24 39 70q0 57 -50 95q-57 46 -150 46q-81 0 -148 -22 q-85 -30 -112 -86q52 19 85 19q64 0 103.5 -30.5t39.5 -82.5q0 -75 -63 -123q-60 -50 -143 -50q-67 0 -116 46q-56 50 -56 135q0 94 116 185q125 98 279 98q141 0 239 -80q88 -72 88 -162z"/>
<glyph glyph-name="TamlAU" horiz-adv-x="763" unicode="" d="M275 135q0 45 -28 76t-67 31q-25 0 -49 -14q-9 -17 -9 -46q0 -43 22 -72q26 -35 73 -35q25 0 41.5 16.5t16.5 43.5zM747 259q0 -62 -48 -101q-29 -22 -88 -44q-47 -18 -47 -31q0 -26 41 -51l73 -34l-14 -43q-10 1 -15 1q-59 0 -117 -46l-102 -97q-65 -54 -143 -54 q-69 0 -109 35.5t-40 90.5q9 12 36 24q26 9 56 9l42 -43q32 -29 63 -29q28 0 59 29l60 58q38 37 84 44q-49 20 -61 29q-31 23 -31 60q0 38 62 73l83 44q44 32 44 92t-62 97q-58 32 -145 32q-65 0 -148 -31q-95 -38 -116 -88q27 10 66 10q78 0 124.5 -39.5t46.5 -98.5 q0 -38 -65 -92q-69 -59 -146 -59q-75 0 -125 46t-50 120q0 90 79 181q111 122 307 122q160 0 261 -76q85 -63 85 -140z"/>
<glyph glyph-name="TamlKA" horiz-adv-x="376" unicode="" d="M156 42h-36q-24 0 -24 -13q0 -23 29 -35q12 14 31 48zM409 -138q0 -47 -37 -81q-18 -16 -39 -24.5t-45 -8.5q-44 0 -97.5 40t-53.5 73q0 21 14 37t30 18q11 0 38 -21q24 -21 60 -21q21 0 21 13q0 25 -36 69.5t-55 54.5q-9 -17 -19 -32t-23 -31q-26 -32 -42 -32 q-39 0 -74.5 46.5t-35.5 91.5q0 40 23 40q14 0 38 7q14 3 25.5 5t20.5 2l32 -3l33 -3q48 115 59 190q-35 10 -62 10q-46 0 -70 -10q0 -30 17 -75l20 -47q0 -19 -29 -19q-27 0 -67 66t-40 120q0 22 12 42.5t29 29.5q30 17 129 17q130 0 182 -33l3 -22q0 -72 -119 -292 q53 -12 102 -75q56 -68 56 -142z"/>
<glyph glyph-name="TamlNGA" horiz-adv-x="767" unicode="" d="M750 271q0 -37 -16 -152.5t-42 -175.5q-45 -118 -159 -118q-72 0 -128 23q-67 26 -67 69q0 41 50 96q50 50 50 86q0 49 -51 49q-71 0 -101 -70l-43 -103q-27 -55 -42 -56q-14 0 -28 15t-14 31q0 9 41 127t41 166q0 18 -2 24q-30 0 -69 -12.5t-45 -30.5q3 -13 22 -49 q15 -27 15 -50q0 -39 -30 -39q-32 0 -79.5 79.5t-47.5 134.5q0 46 48.5 69t106.5 23q13 0 34.5 1t49.5 4l69 5q74 0 74 -53q0 -39 -53 -160q64 35 129 35q96 0 96 -91q0 -47 -33 -95q-7 -11 -25.5 -32.5t-47.5 -52.5q3 -13 34 -23t64 -10l28 3q28 34 61 187q15 72 23 121 t8 80q0 21 0.5 44.5t3.5 36.5q6 17 26 17q38 0 49 -50v-103z"/>
<glyph glyph-name="TamlCA" horiz-adv-x="537" unicode="" d="M237 108q-13 5 -27 5q-10 0 -79 -17q-2 -17 17.5 -38.5t38.5 -21.5q31 21 50 72zM288 252q-18 12 -46 12q-29 0 -45 -5v-67h79zM530 122q0 -47 -45 -47q-13 0 -31.5 4t-30.5 7l-98 19q-27 -74 -59 -110q-37 -42 -89 -42q-43 0 -101 41q-63 47 -63 108q0 42 77 78v58 q0 97 39 127q37 26 151 26q74 0 129 -40l-44 -165q38 -6 66.5 -11.5t40.5 -8.5q58 -18 58 -44z"/>
<glyph glyph-name="TamlJA" horiz-adv-x="704" unicode="" d="M688 281q0 -79 -95 -164q-57 -51 -190 -130t-157 -100q95 53 173.5 80t140.5 27q39 0 65.5 -22t26.5 -59q0 -120 -269 -310l-79 -52q-60 -38 -72 -38q-14 0 -16 17q0 15 34 41l81 55q75 57 134 122q64 71 64 112q0 55 -31 55q-81 0 -198 -50q-68 -30 -122 -64t-97 -74 q-10 -9 -25.5 -30t-37.5 -55q-28 -39 -58 -39q-14 0 -30 20.5t-18 36.5q0 30 18 72q8 18 20.5 35.5t26.5 30.5q32 28 64.5 51.5t76.5 48.5l153 86q44 27 90 58q24 16 81.5 55.5t81.5 62.5q30 32 30 67q0 12 -6.5 23.5t-18.5 11.5q-37 0 -97 -63t-89 -63q-27 0 -48 49 q-1 4 -9 30q-12 42 -17 62q-12 48 -26 49q-29 0 -66 -49q-21 -26 -31.5 -51t-10.5 -52l1 -40q3 -13 21 -19q4 -7 4 -12q0 -9 -7 -17q-25 -16 -49 -16q-21 0 -36 5.5t-30 19.5q-26 26 -26 60q0 80 78 164q85 91 187 91q53 0 74 -104q6 -38 8 -40q5 -18 14 -18q17 0 40 22 l43 46q23 20 56 39q47 27 82 27q46 0 72 -33q9 -14 15 -31.5t6 -36.5z"/>
<glyph glyph-name="TamlNYA" horiz-adv-x="742" unicode="" d="M325 62q0 31 -21 31q-15 0 -28 -11t-15 -28q0 -45 20 -45q44 0 44 53zM749 -80q0 -118 -91 -184q-83 -59 -220 -59q-148 0 -266 89q-159 120 -159 361q0 77 13.5 150.5t41.5 149.5q46 127 117 221q64 85 104 85q24 0 45.5 -24.5t21.5 -52.5q-3 -4 -5 -6q-6 -6 -17 -15 q-25 -21 -49 -48q-69 -85 -120 -199q-64 -142 -64 -247q0 -133 31 -208.5t103 -125.5q91 -64 231 -64q80 0 129 37q54 43 54 120q0 49 -32 88.5t-82 51.5l-62 -102q-45 -70 -60 -70q-37 0 -37 54l34 64q19 37 34.5 67.5t29 64t22.5 67.5t9 57q0 21 -35 21q-61 0 -119 -32 q-73 -37 -79 -96q23 24 55 24q34 0 59 -22q26 -20 26 -50q0 -58 -52 -104q-48 -40 -92 -40q-115 0 -115 107q0 59 31.5 121t85.5 106q45 39 115 62q41 14 77 21t78 7q50 0 83.5 -15t33.5 -42q0 -37 -27 -96q-9 -21 -20 -39.5t-24 -35.5q163 -71 163 -219z"/>
<glyph glyph-name="TamlTTA" horiz-adv-x="661" unicode="" d="M653 41q0 -28 -42 -45q-44 -15 -186 -35q-74 -9 -133 -14t-108 -5q-75 0 -88 14q-32 35 -50 123q-8 43 -22 182l-17 163q0 52 40 52q42 0 56 -49q3 -9 5 -25q6 -40 6 -85q0 -109 15 -176t38 -80q21 -14 57 -17l50 1q39 0 91 4t113 13l125 16q50 0 50 -37z"/>
<glyph glyph-name="TamlNNA" horiz-adv-x="1016" unicode="" d="M714 95q0 17 -5 30l-63 -22v-7q0 -30 33 -30q35 0 35 29zM426 68l-42 78q-5 -2 -15 -20.5t-10 -26.5q0 -13 12 -26t29 -18zM1009 168q0 -17 -27 -191q-5 -34 -9 -65.5t-10.5 -71.5t-13 -68.5t-16.5 -56.5q-17 -54 -50 -54q-49 0 -49 60l19 145q9 67 14 111.5t5 69.5 l-6 81q-10 12 -70 12q3 -11 5 -20t2 -21q0 -40 -30 -75t-71 -35q-47 0 -93 40t-46 78q0 60 83 97q-43 16 -89 16q-32 0 -53 -4t-39 -16q43 -40 43 -116q0 -52 -36 -79q-24 -18 -56 -18q-51 0 -98.5 42.5t-47.5 91.5q0 50 50 106q-108 82 -163 82q-30 0 -42 -9.5t-12 -39.5 q0 -39 18 -78q11 -23 34 -52q18 -21 18 -27q0 -10 -16 -25q-15 -11 -29 -12q-45 0 -80 60q-33 63 -33 139q0 65 47 118q41 50 81 50q72 0 132 -38q35 -20 131 -103q73 25 123 25q138 0 213 -90q42 16 158 16q109 0 109 -75z"/>
<glyph glyph-name="TamlTA" horiz-adv-x="557" unicode="" d="M236 94q-32 0 -72 -0.5t-56 -11.5q9 -18 32 -38q23 -18 42 -18q24 0 54 68zM279 259q-38 6 -52 6h-6l-16 -92l58 -9zM549 3q0 -103 -208 -214q-62 -31 -284 -116q-170 -66 -421 -129.5t-322 -63.5q-48 0 -48 32q0 37 46 54l193 38q118 26 246.5 64.5t281.5 94.5 q33 11 87 31q41 15 116 45q179 83 179 154q0 46 -103 78q-12 -38 -51 -80q-44 -46 -82 -46q-50 0 -109 41q-65 44 -65 100q0 18 29.5 47.5t55.5 32.5l15 114q10 57 30 80q26 29 99 29q63 0 96 -9t77 -42q-7 -30 -22.5 -79.5t-36.5 -112.5q201 -65 201 -143z"/>
<glyph glyph-name="TamlNA" horiz-adv-x="537" unicode="" d="M529 -17q0 -97 -239 -208q-164 -76 -556 -176q-353 -89 -430 -89q-18 0 -37.5 9.5t-21.5 24.5q0 31 47 46l123 15q75 11 167 31.5t207 52.5q244 66 412 151q199 98 199 178q0 24 -27 48q-15 12 -32 17.5t-41 5.5q-112 -196 -132 -196q-12 0 -24 9.5t-12 19.5 q0 5 48.5 115t74.5 200q-11 1 -21.5 1.5t-21.5 0.5h-20q-45 0 -68 -6l-4 -24q0 -28 17 -66l19 -44q0 -5 -15 -16q-12 -7 -25 -8q-27 0 -64.5 76t-37.5 121q0 8 8 31.5t18 32.5q51 34 151 34q200 0 200 -57q0 -26 -21.5 -78.5t-38.5 -75.5q88 -19 143 -64.5t55 -111.5z"/>
<glyph glyph-name="TamlNNNA" horiz-adv-x="735" unicode="" d="M422 85q0 30 -14 40q-17 -3 -64 -28q19 -36 54 -36q24 0 24 24zM721 159q0 -84 -31 -251q-27 -161 -49 -210q-12 -30 -44 -30q-42 0 -42 60l22 127q23 129 23 195q0 57 -8 66q-14 17 -48 17q-46 0 -56 -5q21 -38 21 -63q0 -35 -27 -59t-58 -24q-36 0 -86 38 q-56 42 -56 90q0 47 64 87l-88 71q-56 36 -96 36q-71 0 -71 -43t22 -75q8 -10 41 -42q21 -20 21 -36q0 -15 -17.5 -32.5t-35.5 -19.5q-29 0 -67 57q-42 65 -42 148q0 162 164 162q133 0 258 -195q104 16 155 16q131 0 131 -85z"/>
<glyph glyph-name="TamlPA" horiz-adv-x="604" unicode="" d="M596 315q0 -96 -80 -209q-87 -123 -178 -123q-85 0 -171 82q-64 60 -117 155q-43 78 -43 95q0 14 35 44q41 32 76 32q18 0 51 -82q37 -104 72 -148q64 -84 123 -84t101 88q16 36 24.5 76t8.5 81q0 26 14.5 46.5t37.5 20.5q46 0 46 -74z"/>
<glyph glyph-name="TamlMA" horiz-adv-x="698" unicode="" d="M682 146q0 -75 -56 -123.5t-145 -48.5q-198 0 -340 25q-32 6 -49 15q-31 19 -48 70l-48 360l-45 371q0 16 12.5 30t30.5 14q31 0 48 -15q8 -11 20 -45q5 -47 9 -104.5t4 -101.5q0 -37 8 -94t11 -84l12 -99q0 -53 11 -121t25 -83q12 -15 112 -27q77 -9 112 -9 q189 0 189 28q0 26 -87 64.5t-143 38.5q-61 0 -61 -54q0 -6 -6 -13t-13 -9q-28 0 -49.5 25.5t-21.5 54.5q0 40 67 85q77 53 176 53q77 0 171 -67t94 -136z"/>
<glyph glyph-name="TamlYA" horiz-adv-x="707" unicode="" d="M691 215q0 -115 -71 -214q-66 -89 -127 -89q-56 0 -109 44q-33 29 -71 82q-32 44 -40 44q-28 0 -72 -36.5t-66 -36.5q-45 0 -73 58q-40 79 -40 258l1 81l1 69q0 9 17 25q8 6 18 10.5t17 5.5q27 0 27 -35q0 -121 13 -215q17 -137 53 -137q15 0 54.5 34t75.5 34 q32 0 54 -40q6 -14 18 -41t19 -41q39 -70 91 -70q43 0 66 41q12 23 23.5 92.5t11.5 99.5q0 27 16.5 43.5t40.5 16.5q52 0 52 -83z"/>
<glyph glyph-name="TamlRA" horiz-adv-x="437" unicode="" d="M423 235q0 -114 -21 -213q-26 -128 -77 -178q-106 -107 -498 -249q-139 -50 -370 -116q-201 -55 -236 -55q-11 0 -20.5 5.5t-11.5 16.5q0 13 11.5 25.5t27.5 12.5q20 0 337 99q236 74 343 115q187 73 281 155q62 52 78 126q6 30 6 132q0 81 -6 105q-9 37 -44 37 q-96 0 -125 -39l-5 -53l4 -39l5 -41q0 -31 -39 -31q-30 0 -40 34q-4 14 -7 43.5t-3 66.5q0 104 62 142q27 18 93 29t140 11q58 0 89 -44q26 -38 26 -97z"/>
<glyph glyph-name="TamlRRA" horiz-adv-x="655" unicode="" d="M640 242q0 -74 -12 -133t-38 -106q-44 -80 -129.5 -156t-218.5 -152t-458 -171q-277 -81 -307 -81q-11 0 -23 8.5t-12 21.5q0 25 30 25q45 0 243 55q257 72 442 169q172 87 270 199q114 123 114 249q0 106 -52 106q-36 0 -108 -89.5t-104 -89.5q-38 0 -61 53 q-8 18 -31 97q-14 53 -27 53q-50 0 -50 -239q0 -25 -14 -45.5t-30 -20.5q-50 0 -50 89q0 111 49.5 205t120.5 94q30 0 52 -45l34 -84q17 -45 37 -45t57 40q20 22 35 38q23 24 38 38q26 20 51 30t53 10q43 0 71 -38.5t28 -84.5z"/>
<glyph glyph-name="TamlLA" horiz-adv-x="900" unicode="" d="M893 153q0 -17 -18 -71q-8 -26 -17 -47t-18 -37q-71 -115 -163 -115q-140 0 -303 163l-112 116q-57 54 -91 54q-35 0 -55 -48q-8 -21 -12 -40.5t-4 -44.5q0 -56 -46 -56q-23 0 -35 21t-12 49q0 72 47 161q56 103 133 103q67 0 142 -76l133 -154q43 -48 105 -93t105 -54 l28 -2q43 0 74 88q24 72 24 116q0 8 18.5 19t35.5 11q15 0 27 -21q14 -20 14 -42z"/>
<glyph glyph-name="TamlLLA" horiz-adv-x="697" unicode="" d="M689 -500q0 -19 -22 -39.5t-44 -20.5t-36 12.5t-16 30.5l1 151l1 171l6 143l8 152v13q0 46 -3 63q-8 49 -32 49q-27 0 -96.5 -34.5t-92.5 -34.5q-36 0 -87 39l-80 74q-45 39 -69 39q-14 0 -17 -3t-5 -17q0 -13 32 -56q34 -40 34 -57q0 -16 -13 -29.5t-30 -13.5 q-32 0 -71 45q-42 50 -42 104q0 47 37 88.5t87 41.5q36 0 85 -43l77 -80q41 -43 68 -43q31 0 106 39.5t107 39.5q38 0 65.5 -23.5t27.5 -69.5v-206v-260q0 -56 1 -97t5 -84z"/>
<glyph glyph-name="TamlLLLA" horiz-adv-x="684" unicode="" d="M511 109q0 41 -31 81q-35 48 -88 48q-62 0 -62 -50q0 -78 26 -124h17h14q46 0 65 4q59 9 59 41zM669 97q0 -56 -29 -81q-22 -19 -69.5 -32t-68.5 -13l-44 -1l-41 -1q18 -35 52 -62q38 -32 75 -32q11 0 20.5 -2t19.5 -11q17 -14 17 -33q0 -47 -16 -47q-15 0 -50 7l-49 7 q-88 0 -178 -31q-53 -19 -130 -60q-61 -31 -80 -31q-10 0 -18 3.5t-18 12.5q-21 20 -21 49q0 38 134 86q120 42 175 42q11 0 43 7q-65 52 -89 106q-38 -5 -66 -5q-117 0 -160 47q-35 38 -48 115l-14 148l-23 214q0 50 43 50q40 0 55 -43q9 -27 9 -100q0 -248 53 -299 q22 -21 110 -34q-30 89 -30 182q0 45 37.5 83t88.5 38q107 0 206 -84q52 -44 78 -92.5t26 -102.5z"/>
<glyph glyph-name="TamlVA" horiz-adv-x="785" unicode="" d="M777 194q0 -102 -47.5 -162.5t-126.5 -60.5q-28 0 -91 4t-97 4q-100 9 -123 19q-35 15 -35 52q0 23 50 85l92 114q50 71 50 124q0 71 -117 71q-99 0 -171 -21q-90 -27 -90 -80l2 -17l2 -13q0 -7 -24 -7q-44 0 -44 65q0 67 77 122q39 27 94.5 40.5t128.5 13.5 q97 0 161 -44t64 -119q0 -117 -178 -295q41 -21 157 -21q83 0 105 17q31 28 31 116v41l1 44q20 10 48 10q81 0 81 -102z"/>
<glyph glyph-name="TamlSSA" horiz-adv-x="1018" unicode="" d="M1012 114q0 -8 -12 -25t-25 -17q-10 0 -50 -13l-64 -19l-33 -204q-18 -116 -28 -139q-9 -26 -28 -26q-57 0 -57 52l21 128l28 166q-60 -14 -180.5 -26.5t-182.5 -12.5q-145 0 -145 69q0 22 21 51l51 61q20 24 38.5 51t36.5 61q35 67 35 102q0 40 -38 61q-35 21 -90 21 q-96 0 -170.5 -40.5t-74.5 -86.5q0 -27 -20 -27q-16 0 -26 23q-12 21 -12 48q0 83 82 137t209 54q217 0 217 -169q0 -63 -38 -132q-9 -18 -26.5 -45t-41.5 -60q-35 -46 -37 -62q0 -19 58 -19l41 1l36 2q62 0 138 11l127 19v45q0 79 -21 118t-74 39q-56 0 -56 -46 q0 -44 23 -79q24 -33 24 -44t-12 -24.5t-24 -14.5q-17 0 -45 52q-33 64 -33 134q0 68 40.5 108.5t103.5 40.5q80 0 126 -67q22 -34 33.5 -82.5t11.5 -110.5v-48q20 0 58 13l47 13q15 0 26 -14q12 -12 12 -28z"/>
<glyph glyph-name="TamlSA" horiz-adv-x="1020" unicode="" d="M1004 299q0 -101 -81 -236q-86 -142 -167 -142q-96 0 -171 191l-45 121q-22 55 -55 55q-41 0 -65 -77q-20 -63 -20 -136l1 -27l2 -23q0 -20 -14.5 -34t-28.5 -15q-14 0 -22 3q-11 7 -20 33l-15 81q-14 73 -35 127q-44 105 -110 105q-26 0 -45 -26.5t-19 -57.5 q0 -40 18 -72q6 -12 12.5 -20t23 -25t16.5 -30q0 -14 -16.5 -27.5t-33.5 -15.5q-48 0 -77 54q-24 51 -24 124q0 43 10.5 78t32.5 65q47 63 126 63q139 0 185 -236q6 45 16.5 78.5t26.5 60.5q38 69 102 69q41 0 68 -36q20 -27 41 -90q5 -22 14.5 -53t17.5 -56 q21 -70 54 -117.5t56 -47.5q27 0 76 92q56 101 56 183q0 14 -5 29l-4 20q0 6 25 15q21 6 36 6q23 0 40 -15.5t17 -37.5z"/>
<glyph glyph-name="TamlHA" horiz-adv-x="1296" unicode="" d="M1280 289q0 -134 -105.5 -275t-252.5 -220q-134 -70 -374 -140q-188 -53 -383 -92q-172 -34 -200 -34q-34 0 -34 27q0 22 30 31l299 63q337 81 552 187q337 165 337 368q0 69 -43 69q-34 0 -123.5 -98t-122.5 -98q-38 0 -70 92l-24 80q-12 38 -27 40q-31 0 -48 -58 q-9 -32 -17.5 -109.5t-17.5 -90.5q-24 -34 -89 -46q-23 -3 -107 -3q-65 0 -117 23t-52 66q0 33 73.5 123.5t73.5 135.5q0 50 -99 50q-92 0 -160 -15q-85 -21 -85 -66q0 -7 6 -19q6 -9 6 -17q0 -36 -26 -36q-29 0 -49 23q-17 23 -17 61q0 70 87.5 122t224.5 52q104 0 165 -42 q56 -36 56 -90q0 -67 -147 -237q33 -24 85 -24h15h12q21 0 37 1t27 4l21 82q12 53 28 87q56 122 155 122q42 0 68 -38l28 -85q23 -67 43 -67q13 0 40 38l56 85q34 49 60 67q40 32 98 32q51 0 83 -45q24 -35 24 -86z"/>
<glyph glyph-name="TamlvAA" horiz-adv-x="454" unicode="" d="M432 172l-6 -111q0 -45 -2 -64t-5 -31q-13 -47 -40 -47q-24 0 -44 12q-23 17 -23 48l6 61q6 53 6 75q0 9 -6.5 23t-15.5 18q-17 9 -81 9q-53 0 -76.5 -3.5t-35.5 -20.5t-12 -40l1 -42q0 -28 -33 -28q-23 0 -36.5 20.5t-13.5 51.5q0 54 20.5 105t51.5 63q26 7 114 7 q113 0 174 -25q57 -21 57 -81z"/>
<glyph glyph-name="TamlvI" horiz-adv-x="212" unicode="" d="M107 4h-71v405q0 132 -78 132h-27q-32 0 -54.5 -25.5t-22.5 -61.5v-19q0 -15 5 -26t19 -23h-77q-8 8 -14 23l-5 26v19q0 32 9 55.5t31 44.5q40 40 109 40h27q69 0 109 -52.5t40 -132.5v-405z"/>
<glyph glyph-name="TamlvII" horiz-adv-x="0" unicode="" d="M-120 555v17q0 9 -3 11l-8 8l-13 3q-9 0 -14.5 -4.5t-8.5 -17.5v-17q0 -10 6 -16t18 -8q5 0 13 5.5t10 18.5zM-48 537q0 -18 -22 -40q-21 -19 -46 -19h-36q-33 0 -53.5 22t-20.5 56v18l4 12q-9 -1 -15 -4.5t-18 -13.5q-21 -18 -21 -41v-19q0 -11 1.5 -17t7.5 -19 q4 -12 8.5 -19.5t14.5 -20.5h-74l-11 19l-8 19q-9 26 -9 38v29q0 21 9.5 38.5t30.5 34.5q39 32 88 32h52q40 0 79 -23t39 -56v-26z"/>
<glyph glyph-name="TamlvU" horiz-adv-x="462" unicode="" d="M349 226v110h-100v-110h100zM412 182h-228v154h-173v46h401v-200z"/>
<glyph glyph-name="TamlvUU" horiz-adv-x="638" unicode="" d="M358 226v110h-100v-110h100zM596 236q0 -97 -45 -152q-66 -84 -229 -84q-44 0 -105 31q-67 36 -104 95l28 27q32 -48 79 -75l22.5 -9t34 -11.5t45.5 -4.5q127 0 176 56q34 39 34 117v100q0 68 -43 121.5t-103 53.5q-56 0 -92 -33t-36 -86h164v-200h-227v154h-182v46h182 q0 76 53 124t147 48q86 0 148 -66q53 -61 53 -142v-110z"/>
<glyph glyph-name="TamlvE" horiz-adv-x="551" unicode="" d="M209 99q0 63 -19 97q-15 31 -40 31q-16 0 -25 -11.5t-11 -27.5q0 -58 17 -113.5t46 -55.5q14 0 24 28q4 13 6 24t2 28zM543 7v-20v-16v-13q0 -46 -5 -61q-6 -34 -27 -34q-40 0 -59 56q-5 17 -13 103l-4 102q0 70 -17 178t-37.5 154t-50.5 46q-47 0 -114 -65 q-70 -70 -91 -158q31 17 70 17q45 0 77 -48q28 -44 28 -99q0 -74 -35 -132t-86 -58q-80 0 -126 78q-40 68 -40 167q0 91 25.5 164t76.5 127q89 93 197 93q115 0 176 -155q26 -67 40.5 -195t14.5 -231z"/>
<glyph glyph-name="TamlvEE" horiz-adv-x="533" unicode="" d="M403 145q0 85 -67 85q-87 0 -139 -43q-45 -37 -45 -85q0 -42 25 -71q28 -28 64 -28q66 0 109 31q53 38 53 111zM526 171q0 -91 -83.5 -168.5t-189.5 -77.5q-53 0 -104 27.5t-82 73.5q-52 79 -52 241q0 48 19 117q12 44 28.5 81t39.5 70q50 75 129 117q70 36 139 36 q63 0 107 -36t44 -93q0 -56 -58 -107q-26 -23 -52.5 -35t-52.5 -12q-13 0 -23 13q-8 13 -8 30q0 19 61 50t61 51q0 46 -63 46q-106 0 -186.5 -124t-80.5 -286q90 137 239 137q77 0 124 -46q44 -40 44 -105z"/>
<glyph glyph-name="TamlvAI" horiz-adv-x="857" unicode="" d="M428 75q5 4 5 8q0 12 -13.5 40t-21.5 30q-19 0 -19 -29q0 -20 15.5 -34.5t33.5 -14.5zM842 127q0 -52 -39.5 -100.5t-86.5 -48.5q-74 0 -129 58q-42 50 -42 89q0 13 16.5 28t28.5 15q23 0 53 -33q33 -31 58 -31q20 0 20 26q0 40 -35 84q-38 49 -87 49q-67 0 -125 -44 q17 -26 33 -67q13 -41 13 -60q0 -34 -27 -66q-30 -33 -74 -33q-50 0 -94 38q-50 42 -50 100q0 37 40 95q-85 52 -144 52q-30 0 -53 -14.5t-23 -35.5q0 -36 23 -66q5 -7 14 -17q14 -15 26 -26q20 -19 22 -32q0 -19 -14 -35.5t-31 -16.5q-44 0 -82 74.5t-38 160.5 q0 58 39.5 95.5t108.5 37.5q96 0 234 -107q92 55 197 55q93 0 174 -76q74 -72 74 -148z"/>
<glyph glyph-name="uni0BCA" horiz-adv-x="1135" unicode="" d="M209 99q0 63 -19 97q-15 31 -40 31q-16 1 -25 -11t-11 -28q0 -58 17 -114t46 -55q14 0 24 28q4 13 6 24t2 28zM543 7v-20v-16v-13q0 -46 -5 -61q-6 -34 -27 -34q-40 0 -59 56q-5 17 -13 103l-4 102q0 70 -17 178q-18 108 -38 154t-50 46q-47 0 -114 -65q-70 -70 -91 -158 q31 17 70 17q45 0 77 -48q28 -44 28 -99q0 -74 -35 -132t-86 -58q-80 0 -126 78q-40 68 -40 167q-1 91 25 164t77 127q89 93 197 93q115 0 176 -155q26 -67 40 -195t15 -231zM1120 145l-6 -111q0 -45 -2 -64t-4 -31q-14 -47 -40 -47q-24 0 -44 12q-24 17 -24 48l6 61 q6 53 6 75q0 9 -6 23t-16 18q-16 9 -80 9q-54 0 -77 -4t-35 -20q-12 -17 -12 -40v-42q0 -28 -32 -28q-24 0 -37 20t-13 52q0 54 20 105t52 63q26 7 114 7q112 0 174 -25q56 -21 56 -81z"/>
<glyph glyph-name="uni0BCB" horiz-adv-x="1121" unicode="" d="M403 145q0 85 -67 85q-87 0 -139 -43q-45 -37 -45 -85q0 -42 25 -71q28 -28 64 -28q66 0 109 31q53 38 53 111zM526 171q0 -91 -84 -169t-189 -77q-53 -1 -104 27t-82 74q-52 79 -52 241q0 48 19 117q12 44 28 81t40 70q50 75 129 117q70 36 139 36q63 0 107 -36t44 -93 q0 -56 -58 -107q-27 -23 -53 -35t-52 -12q-13 0 -23 13q-8 13 -8 30q0 19 61 50t61 51q0 46 -63 46q-106 0 -186 -124t-81 -286q90 137 239 137q77 0 124 -46q44 -40 44 -105zM1107 169l-6 -111q0 -45 -2 -64t-5 -31q-13 -47 -40 -47q-24 0 -44 12q-23 17 -23 48l6 61 q6 53 6 75q-1 9 -7 23t-15 18q-17 9 -81 9q-52 0 -76 -4t-36 -20q-12 -17 -12 -40l1 -42q0 -28 -33 -28q-22 0 -36 20t-14 52q0 54 20 105t52 63q26 7 114 7q113 0 174 -25q57 -21 57 -81z"/>
<glyph glyph-name="uni0BCC" horiz-adv-x="1495" unicode="" d="M209 99q0 63 -19 97q-15 31 -40 31q-16 1 -25 -11t-11 -28q0 -58 17 -114t46 -55q14 0 24 28q4 13 6 24t2 28zM543 7v-20v-16v-13q0 -46 -5 -61q-6 -34 -27 -34q-40 0 -59 56q-5 17 -13 103l-4 102q0 70 -17 178q-18 108 -38 154t-50 46q-47 0 -114 -65q-70 -70 -91 -158 q31 17 70 17q45 0 77 -48q28 -44 28 -99q0 -74 -35 -132t-86 -58q-80 0 -126 78q-40 68 -40 167q-1 91 25 164t77 127q89 93 197 93q115 0 176 -155q26 -67 40 -195t15 -231zM1428 -484q0 -18 -22 -39t-44 -21t-36 13t-16 31v150l2 172l6 142l8 152v14q0 46 -4 62 q-8 50 -32 50q-26 0 -96 -35t-92 -35q-36 0 -88 40l-80 74q-44 38 -68 38q-14 0 -17 -3t-5 -17q0 -12 32 -56q34 -40 34 -56t-13 -30t-31 -14q-32 0 -70 46q-42 50 -42 104q0 46 37 88t87 42q36 0 84 -44l78 -80q40 -42 68 -42q30 0 105 39t107 39q38 0 66 -23t28 -69v-206 v-260q0 -56 1 -97t5 -85z"/>
<glyph glyph-name="TamlPulli" horiz-adv-x="0" unicode="" d="M-78 552q0 -25 -33 -57q-33 -30 -68 -30q-47 0 -81 40t-34 101q0 38 19 66t50 28q23 0 43 -33l19 -33q12 0 27 -7l22 -6q10 0 23 -26q3 -7 8 -19t5 -24z"/>
<glyph glyph-name="TamAUL" horiz-adv-x="697" unicode="" d="M689 -500q0 -19 -22 -39.5t-44 -20.5t-36 12.5t-16 30.5l1 151l1 171l6 143l8 152v13q0 46 -3 63q-8 49 -32 49q-27 0 -96.5 -34.5t-92.5 -34.5q-36 0 -87 39l-80 74q-45 39 -69 39q-14 0 -17 -3t-5 -17q0 -13 32 -56q34 -40 34 -57q0 -16 -13 -29.5t-30 -13.5 q-32 0 -71 45q-42 50 -42 104q0 47 37 88.5t87 41.5q36 0 85 -43l77 -80q41 -43 68 -43q31 0 106 39.5t107 39.5q38 0 65.5 -23.5t27.5 -69.5v-206v-260q0 -56 1 -97t5 -84z"/>
<glyph glyph-name="uni200C" horiz-adv-x="1000" unicode=""/>
<glyph glyph-name="uni200D" horiz-adv-x="1000" unicode=""/>
<glyph glyph-name="endash" horiz-adv-x="681" unicode="" d="M755 496q-27 -20 -47 -20l-14 1q-7 2 -19.5 21.5t-28.5 57.5q-11 25 -20 27l-17 -3q-4 -2 -24 -23q-4 -4 -7 -8q3 0 6 -1q74 -9 83 -61l1 -16q0 -13 -7 -30q0 -30 -16 -50q-6 -10 -17.5 -17.5t-26.5 -14.5l-18 -1q-13 0 -25 5.5t-26 18.5q-6 8 -14 20q-11 18 -17 29 q-17 29 -19 65l-8 1h-9q-50 0 -119 -13.5t-102 -24.5q-38 -11 -75 -65l-48 -78q-9 -12 -16 -38.5t-14 -66.5q-13 -86 -13 -130q0 -80 62.5 -143t134.5 -63q94 0 149 56q13 13 22 27t15 32q14 33 14 68q0 21 -3 36q-2 5 -3 11q-3 7 -8 12q-11 17 -30 17q-8 0 -11.5 -2 t-12.5 -10v-114h-77v296h-68v-296h-76v356h315v-60h-94v-116q18 9 40 9q40 0 71 -33q15 -19 23.5 -44.5t8.5 -55.5q0 -108 -74 -178t-201 -70q-54 0 -101 17.5t-87 54.5q-86 78 -86 193v36l-1 39q0 44 3 66t6 33.5t10 22.5q3 9 9.5 20t10.5 19.5t10 20.5t15 25 q17 28 35 51.5t41 45.5q40 38 70 57q14 8 36.5 18.5t42.5 17.5l56 14q24 4 58 4h22l30 -3q13 0 26 -4q6 -1 13 -3q15 32 48 56l39 21q9 3 21.5 5.5t20.5 2.5q28 0 56 -19q16 -11 40 -59zM557 493q0 -9 1 -19l5 -33q3 -12 15 -12q6 0 15.5 8t10.5 14l1 13q0 28 -48 29z"/>
<glyph glyph-name="emdash" horiz-adv-x="938" unicode="" d="M272 88v85q0 11 -10 21q-13 10 -23 10q-16 -3 -26 -9q-8 -11 -8 -22v-85q0 -19 9.5 -26t24.5 -7q6 0 10 2.5t12 9.5q11 13 11 21zM441 81v58q0 9 -4.5 12.5t-11.5 3.5q-5 0 -10 -2t-7 -14v-60l6 -10q7 -5 10 -5l3 2l8 4q5 5 6 11zM842 64q0 5 -7 21l-12 -21h19zM794 197 v74l-2 4l-18 6l-9 -5l-2 -2l-2 -7v-73l5 -4l13 -3h7t5.5 3t2.5 7zM923 55l-1 -41l-6 -11l-5 -4l-11 -2h-102l-88 -191l-76 25l74 166h-177v59l22 21l18 30q14 33 14 57l-1 23q0 13 -6 28q-5 17 -7 22.5t-10 14.5q-10 14 -21 20.5t-25 8.5h-38q-20 0 -49 -24q-6 -4 -17 -20 v-5q13 5 31 5q31 0 55 -20q26 -24 26 -62v-67q0 -41 -38 -68q-30 -23 -69 -23q-36 0 -66 27q-24 27 -24 64v98q0 65 44 113l14 14q-2 11 -4 21q-4 20 -14 46q-19 46 -40 64q-45 39 -113 39q-55 0 -105.5 -57t-50.5 -131q0 -27 1.5 -41.5t6.5 -47.5q8 -30 11 -40.5t12 -29.5 q26 -58 79 -81l5 7q-6 5 -11 23l-4 16l-1 16v48l1 15q1 1 4 12.5t13 23.5q23 21 48 21h22q36 -3 55.5 -25t19.5 -48v-55q0 -88 -119 -88q-97 0 -143 70t-46 204q0 92 56.5 155.5t145.5 63.5q95 0 153 -44q23 -21 39.5 -56t16.5 -62l-2 -16q26 11 57 11h47q62 0 107 -57 q10 -12 16.5 -23t11.5 -30q10 -31 10 -66q0 -38 -14 -75l-7 -15l-8 -12l-4 -5h104l26 50q-34 8 -58 29q-29 27 -29 67v54q0 36 24.5 59.5t58.5 23.5h38q20 0 27 -5q14 -2 27 -16q23 -26 23 -55v-77q0 -8 -3 -17.5t-4 -14.5l-4 -9q22 -18 35 -40q22 -30 22 -58z"/>
<glyph glyph-name="quoteleft" horiz-adv-x="178" unicode="" d="M126 477v-82h-76v64q0 28 2 41t4 19t6 16q19 31 52 47l18 -27q-21 -8 -32 -28t-11 -50h37z"/>
<glyph glyph-name="quoteright" horiz-adv-x="178" unicode="" d="M49 497v81h75v-64q0 -49 -12 -76q-7 -13 -21 -25.5t-32 -21.5l-17 27q19 7 31 28q12 18 12 51h-36z"/>
<glyph glyph-name="quotesinglbase" horiz-adv-x="376" unicode="" d="M403 552q0 -25 -33 -57q-33 -30 -68 -30q-48 0 -81.5 40t-33.5 101q0 39 19 66.5t50 27.5q23 0 43 -33l19 -33q12 0 27 -7l22 -6q10 0 23 -26q3 -6 8 -18.5t5 -24.5zM156 42h-36q-24 0 -24 -13q0 -23 29 -35q12 14 31 48zM409 -138q0 -47 -37 -81q-18 -16 -39 -24.5 t-45 -8.5q-44 0 -97.5 40t-53.5 73q0 21 14 37t30 18q11 0 38 -21q24 -21 60 -21q21 0 21 13q0 25 -36 69.5t-55 54.5q-9 -17 -19 -32t-23 -31q-26 -32 -42 -32q-39 0 -74.5 46.5t-35.5 91.5q0 40 23 40q14 0 38 7q14 3 25.5 5t20.5 2l32 -3l33 -3q48 115 59 190 q-35 10 -62 10q-46 0 -70 -10q0 -30 17 -75l20 -47q0 -19 -29 -19q-27 0 -67 66t-40 120q0 22 12 42.5t29 29.5q30 17 129 17q130 0 182 -33l3 -22q0 -72 -119 -292q53 -12 102 -75q56 -68 56 -142z"/>
<glyph glyph-name="quotedblleft" horiz-adv-x="266" unicode="" d="M229 477v-82h-75v64q0 56 14 80.5t50 42.5l17 -27q-21 -8 -32 -28t-11 -50h37zM108 477v-82h-75v64l2 45q4 19 10 31q17 30 52 47l17 -27q-21 -8 -32 -28t-11 -50h37z"/>
<glyph glyph-name="quotedblright" horiz-adv-x="266" unicode="" d="M155 497v81h75v-64q0 -49 -12 -76q-16 -29 -52 -47l-17 27q19 7 31 28t12 51h-37zM34 497v81h76v-64q0 -49 -12 -76q-16 -29 -53 -47l-17 27q18 7 30 28q12 18 12 51h-36z"/>
<glyph glyph-name="quotedblbase" horiz-adv-x="537" unicode="" d="M403 552q0 -25 -33 -57q-33 -30 -68 -30q-48 0 -81.5 40t-33.5 101q0 39 19 66.5t50 27.5q23 0 43 -33l19 -33q12 0 27 -7l22 -6q10 0 23 -26q3 -6 8 -18.5t5 -24.5zM237 108q-13 5 -27 5q-10 0 -79 -17q-2 -17 17.5 -38.5t38.5 -21.5q31 21 50 72zM288 252 q-18 12 -46 12q-29 0 -45 -5v-67h79zM530 122q0 -47 -45 -47q-13 0 -31.5 4t-30.5 7l-98 19q-27 -74 -59 -110q-37 -42 -89 -42q-43 0 -101 41q-63 47 -63 108q0 42 77 78v58q0 97 39 127q37 26 151 26q74 0 129 -40l-44 -165q38 -6 66.5 -11.5t40.5 -8.5q58 -18 58 -44z "/>
<glyph glyph-name="dagger" horiz-adv-x="661" unicode="" d="M403 552q0 -25 -33 -57q-33 -30 -68 -30q-48 0 -81.5 40t-33.5 101q0 39 19 66.5t50 27.5q23 0 43 -33l19 -33q12 0 27 -7l22 -6q10 0 23 -26q3 -6 8 -18.5t5 -24.5zM653 41q0 -28 -42 -45q-44 -15 -186 -35q-74 -9 -133 -14t-108 -5q-75 0 -88 14q-32 35 -50 123 q-8 43 -22 182l-17 163q0 52 40 52q42 0 56 -49q3 -9 5 -25q6 -40 6 -85q0 -109 15 -176t38 -80q21 -14 57 -17l50 1q39 0 91 4t113 13l125 16q50 0 50 -37z"/>
<glyph glyph-name="daggerdbl" horiz-adv-x="1016" unicode="" d="M403 552q0 -25 -33 -57q-33 -30 -68 -30q-48 0 -81.5 40t-33.5 101q0 39 19 66.5t50 27.5q23 0 43 -33l19 -33q12 0 27 -7l22 -6q10 0 23 -26q3 -6 8 -18.5t5 -24.5zM714 95q0 17 -5 30l-63 -22v-7q0 -30 33 -30q35 0 35 29zM426 68l-42 78q-5 -2 -15 -20.5t-10 -26.5 q0 -13 12 -26t29 -18zM1009 168q0 -17 -27 -191q-5 -34 -9 -65.5t-10.5 -71.5t-13 -68.5t-16.5 -56.5q-17 -54 -50 -54q-49 0 -49 60l19 145q9 67 14 111.5t5 69.5l-6 81q-10 12 -70 12q3 -11 5 -20t2 -21q0 -40 -30 -75t-71 -35q-47 0 -93 40t-46 78q0 60 83 97 q-43 16 -89 16q-32 0 -53 -4t-39 -16q43 -40 43 -116q0 -52 -36 -79q-24 -18 -56 -18q-51 0 -98.5 42.5t-47.5 91.5q0 50 50 106q-108 82 -163 82q-30 0 -42 -9.5t-12 -39.5q0 -39 18 -78q11 -23 34 -52q18 -21 18 -27q0 -10 -16 -25q-15 -11 -29 -12q-45 0 -80 60 q-33 63 -33 139q0 65 47 118q41 50 81 50q72 0 132 -38q35 -20 131 -103q73 25 123 25q138 0 213 -90q42 16 158 16q109 0 109 -75z"/>
<glyph glyph-name="bullet" horiz-adv-x="323" unicode="" d="M290 279q0 -38 -21 -70q-38 -57 -109 -57q-39 0 -68 19q-14 9 -25.5 21.5t-18.5 26.5q-15 29 -15 61q0 39 20 69t48.5 44.5t60.5 14.5q39 0 71 -22q28 -18 41 -47q16 -26 16 -60z"/>
<glyph glyph-name="ellipsis" horiz-adv-x="742" unicode="" d="M664 552q0 -25 -33 -57q-33 -30 -68 -30q-48 0 -81.5 40t-33.5 101q0 39 19 66.5t50 27.5q23 0 43 -33l19 -33q12 0 27 -7l22 -6q10 0 23 -26q3 -6 8 -18.5t5 -24.5zM325 62q0 31 -21 31q-15 0 -28 -11t-15 -28q0 -45 20 -45q44 0 44 53zM749 -80q0 -118 -91 -184 q-83 -59 -220 -59q-148 0 -266 89q-159 120 -159 361q0 77 13.5 150.5t41.5 149.5q46 127 117 221q64 85 104 85q24 0 45.5 -24.5t21.5 -52.5q-3 -4 -5 -6q-6 -6 -17 -15q-25 -21 -49 -48q-69 -85 -120 -199q-64 -142 -64 -247q0 -133 31 -208.5t103 -125.5q91 -64 231 -64 q80 0 129 37q54 43 54 120q0 49 -32 88.5t-82 51.5l-62 -102q-45 -70 -60 -70q-37 0 -37 54l34 64q19 37 34.5 67.5t29 64t22.5 67.5t9 57q0 21 -35 21q-61 0 -119 -32q-73 -37 -79 -96q23 24 55 24q34 0 59 -22q26 -20 26 -50q0 -58 -52 -104q-48 -40 -92 -40 q-115 0 -115 107q0 59 31.5 121t85.5 106q45 39 115 62q41 14 77 21t78 7q50 0 83.5 -15t33.5 -42q0 -37 -27 -96q-9 -21 -20 -39.5t-24 -35.5q163 -71 163 -219z"/>
<glyph glyph-name="perthousand" horiz-adv-x="537" unicode="" d="M403 552q0 -25 -33 -57q-33 -30 -68 -30q-48 0 -81.5 40t-33.5 101q0 39 19 66.5t50 27.5q23 0 43 -33l19 -33q12 0 27 -7l22 -6q10 0 23 -26q3 -6 8 -18.5t5 -24.5zM529 -17q0 -97 -239 -208q-164 -76 -556 -176q-353 -89 -430 -89q-18 0 -37.5 9.5t-21.5 24.5 q0 31 47 46l123 15q75 11 167 31.5t207 52.5q244 66 412 151q199 98 199 178q0 24 -27 48q-15 12 -32 17.5t-41 5.5q-112 -196 -132 -196q-12 0 -24 9.5t-12 19.5q0 5 48.5 115t74.5 200q-11 1 -21.5 1.5t-21.5 0.5h-20q-45 0 -68 -6l-4 -24q0 -28 17 -66l19 -44 q0 -5 -15 -16q-12 -7 -25 -8q-27 0 -64.5 76t-37.5 121q0 8 8 31.5t18 32.5q51 34 151 34q200 0 200 -57q0 -26 -21.5 -78.5t-38.5 -75.5q88 -19 143 -64.5t55 -111.5z"/>
<glyph glyph-name="guilsinglleft" horiz-adv-x="698" unicode="" d="M403 552q0 -25 -33 -57q-33 -30 -68 -30q-48 0 -81.5 40t-33.5 101q0 39 19 66.5t50 27.5q23 0 43 -33l19 -33q12 0 27 -7l22 -6q10 0 23 -26q3 -6 8 -18.5t5 -24.5zM682 146q0 -75 -56 -123.5t-145 -48.5q-198 0 -340 25q-32 6 -49 15q-31 19 -48 70l-48 360l-45 371 q0 16 12.5 30t30.5 14q31 0 48 -15q8 -11 20 -45q5 -47 9 -104.5t4 -101.5q0 -37 8 -94t11 -84l12 -99q0 -53 11 -121t25 -83q12 -15 112 -27q77 -9 112 -9q189 0 189 28q0 26 -87 64.5t-143 38.5q-61 0 -61 -54q0 -6 -6 -13t-13 -9q-28 0 -49.5 25.5t-21.5 54.5q0 40 67 85 q77 53 176 53q77 0 171 -67t94 -136z"/>
<glyph glyph-name="guilsinglright" horiz-adv-x="684" unicode="" d="M403 552q0 -25 -33 -57q-33 -30 -68 -30q-48 0 -81.5 40t-33.5 101q0 39 19 66.5t50 27.5q23 0 43 -33l19 -33q12 0 27 -7l22 -6q10 0 23 -26q3 -6 8 -18.5t5 -24.5zM511 109q0 41 -31 81q-35 48 -88 48q-62 0 -62 -50q0 -78 26 -124h17h14q46 0 65 4q59 9 59 41zM669 97 q0 -56 -29 -81q-22 -19 -69.5 -32t-68.5 -13l-44 -1l-41 -1q18 -35 52 -62q38 -32 75 -32q11 0 20.5 -2t19.5 -11q17 -14 17 -33q0 -47 -16 -47q-15 0 -50 7l-49 7q-88 0 -178 -31q-53 -19 -130 -60q-61 -31 -80 -31q-10 0 -18 3.5t-18 12.5q-21 20 -21 49q0 38 134 86 q120 42 175 42q11 0 43 7q-65 52 -89 106q-38 -5 -66 -5q-117 0 -160 47q-35 38 -48 115l-14 148l-23 214q0 50 43 50q40 0 55 -43q9 -27 9 -100q0 -248 53 -299q22 -21 110 -34q-30 89 -30 182q0 45 37.5 83t88.5 38q107 0 206 -84q52 -44 78 -92.5t26 -102.5z"/>
<glyph glyph-name="Euro" horiz-adv-x="1000" unicode=""/>
<glyph glyph-name="trademark" horiz-adv-x="900" unicode="" d="M403 552q0 -25 -33 -57q-33 -30 -68 -30q-48 0 -81.5 40t-33.5 101q0 39 19 66.5t50 27.5q23 0 43 -33l19 -33q12 0 27 -7l22 -6q10 0 23 -26q3 -6 8 -18.5t5 -24.5zM893 153q0 -17 -18 -71q-8 -26 -17 -47t-18 -37q-71 -115 -163 -115q-140 0 -303 163l-112 116 q-57 54 -91 54q-35 0 -55 -48q-8 -21 -12 -40.5t-4 -44.5q0 -56 -46 -56q-23 0 -35 21t-12 49q0 72 47 161q56 103 133 103q67 0 142 -76l133 -154q43 -48 105 -93t105 -54l28 -2q43 0 74 88q24 72 24 116q0 8 18.5 19t35.5 11q15 0 27 -21q14 -20 14 -42z"/>
<glyph glyph-name="uni25CC" horiz-adv-x="1000" unicode=""/>
<glyph glyph-name="NULL" horiz-adv-x="0"/>
<glyph glyph-name="TamlSHA" d="M530 38q0 19 -13 38q-12 21 -31 25l-4 -18q0 -20 15 -41q14 -16 28 -18q3 3 4 6t1 8zM218 102q-28 0 -52.5 -5.5t-51.5 -19.5q11 -41 50 -41h7q16 6 47 66zM268 254q-24 0 -81 -18l-10 -50l79 10zM1259 79q0 -25 -46 -47q-37 -15 -71 -20q0 -23 -8 -64.5t-24 -113.5 q-31 -127 -47 -160q-12 -26 -34 -26q-30 0 -30 43l27 114q13 55 21 104t8 84q-108 -17 -188 -17q-99 0 -134 6q-70 13 -70 62q0 7 28.5 77.5t28.5 120.5q0 85 -71 85q-61 0 -112 -58q-38 -47 -51 -96q71 -24 111 -72q34 -40 34 -91q0 -88 -89 -88q-67 0 -106 64 q-15 27 -21.5 56.5t-6.5 66.5h-85l-60 -105q-40 -61 -74 -61q-66 0 -124 43t-58 91q0 35 18 53q9 11 46 29q0 24 0.5 48t6.5 60q11 64 26 82q8 11 61 24q26 5 37 7q30 5 57 5q36 0 83 -13.5t54 -26.5q3 -6 3 -16q0 -32 -43 -137l61 -5q0 49 20 92t60 86q78 83 180 83 q64 0 104.5 -38t40.5 -95q0 -67 -25 -139l-39 -96q24 -11 65.5 -17t100.5 -6q89 0 141 11l-13 107q-12 57 -58 57q-50 0 -50 -57q0 -30 12 -47.5t14 -25.5q0 -36 -26 -36q-32 0 -54 52q-17 43 -17 103q0 63 40.5 115t100.5 52q67 0 101 -78q25 -64 25 -155l-1 -72 q56 16 92 16q28 0 28 -20z" horiz-adv-x="1267"/>
<glyph glyph-name="TamlSRI" d="M1002 602q0 15 -6 23q-10 22 -34 43q-23 18 -48 21q-6 -8 -7 -22l1 -24l8 -28q15 -42 56 -42q11 0 15 2q15 7 15 27zM1132 210q0 -21 -1.5 -30.5t-6.5 -30.5q-39 -156 -287.5 -270.5t-561.5 -114.5q-148 0 -295 30l39 87q61 -16 139.5 -25.5t149.5 -9.5q223 0 418 70.5 t280 173.5q26 31 46 72q19 43 19 63q0 13 -12 22l-15 4q-27 0 -68 -32q-33 -27 -53 -52q-14 -46 -32.5 -74t-44.5 -46q-40 14 -64 49l-12 31q13 37 37 65q10 11 15.5 16.5t20.5 17.5q22 37 37 97q13 63 13 97q0 13 -5 21q-5 1 -10 1q-31 0 -85 -49q-34 -32 -57.5 -65.5 t-40.5 -74.5q0 -86 -16 -146q-8 -29 -19.5 -54t-30.5 -48q-31 6 -68 35q-28 22 -43 47q0 35 18 91q25 77 74 139q-7 37 -26 77q-24 49 -49 49q-18 0 -31 -22q-21 -100 -58 -192.5t-100 -160.5q-36 -39 -78 -58.5t-80 -19.5q-40 0 -77 19q-34 22 -49 59.5t-15 82.5q0 27 6 62 q2 12 4.5 25t10 35.5t20.5 52.5t26 57q41 72 91 128l80 -69q-27 -21 -66 -74q-20 -27 -35.5 -52.5t-24.5 -45t-15.5 -39.5t-12.5 -42q-10 -42 -10 -70q0 -47 27 -58l15 -2q40 0 86 37q56 46 98 141l35 100l21 67q11 40 47 63.5t82 23.5q41 0 83 -21q20 -11 35.5 -26 t32.5 -40l27 24l29 22q-14 16 -21.5 26t-15.5 22q-3 7 -8 22.5t-5 29.5q0 73 57 130.5t147 57.5q89 0 136 -19q46 -16 58 -46l5 -18l2 -18q0 -30 -24 -56q-20 -22 -52 -34l-33 -11l-41 -4q-33 0 -59.5 11t-46.5 39q-8 10 -12.5 29t-4.5 35l2 27q-13 -15 -18.5 -24t-11.5 -24 q-3 -12 -5 -22t-2 -23l2 -17l9 -39q5 -12 11.5 -20.5t14.5 -13.5q13 1 23 1.5t16 0.5h13q44 0 65 -10q13 -5 25.5 -34t12.5 -66q0 -23 -2 -32.5t-9 -37.5l38 8l32 2q47 0 71 -31.5t24 -80.5z" horiz-adv-x="1150"/>
<glyph glyph-name="TamlKA_TamlPulli.half" d="M156 42h-36q-24 0 -24 -13q0 -23 29 -35q12 14 31 48zM409 -138q0 -47 -37 -81q-18 -17 -39 -25t-45 -8q-44 0 -98 40t-53 73q0 21 14 37t30 18q11 0 38 -21q24 -21 60 -21q21 0 21 13q0 25 -36 69t-55 55q-9 -17 -19 -32t-23 -31q-26 -32 -42 -32q-39 0 -75 46t-35 92 q0 40 23 40q14 0 38 7q14 3 26 5t20 2l32 -3l33 -3q48 115 59 190q-35 10 -62 10q-46 0 -70 -10q0 -30 17 -75l20 -47q0 -19 -29 -19q-27 0 -67 66t-40 120q0 23 12 43t29 29q30 17 129 17q130 0 182 -33l3 -22q0 -72 -119 -292q53 -12 102 -75q56 -68 56 -142zM403 552 q0 -25 -33 -57q-33 -30 -68 -30q-48 0 -82 40t-33 101q0 38 19 66t50 28q23 0 43 -33l19 -33q12 0 27 -7l22 -6q10 0 23 -26q3 -7 8 -19t5 -24z" horiz-adv-x="376"/>
<glyph glyph-name="TamlNGA_TamlPulli.half" d="M403 552q0 -25 -33 -57q-33 -30 -68 -30q-48 0 -81.5 40t-33.5 101q0 39 19 66.5t50 27.5q23 0 43 -33l19 -33q12 0 27 -7l22 -6q10 0 23 -26q3 -6 8 -18.5t5 -24.5zM750 271q0 -37 -16 -152.5t-42 -175.5q-45 -118 -159 -118q-72 0 -128 23q-67 26 -67 69q0 41 50 96 q50 50 50 86q0 49 -51 49q-71 0 -101 -70l-43 -103q-27 -55 -42 -56q-14 0 -28 15t-14 31q0 9 41 127t41 166q0 18 -2 24q-30 0 -69 -12.5t-45 -30.5q3 -13 22 -49q15 -27 15 -50q0 -39 -30 -39q-32 0 -79.5 79.5t-47.5 134.5q0 46 48.5 69t106.5 23q13 0 34.5 1t49.5 4 l69 5q74 0 74 -53q0 -39 -53 -160q64 35 129 35q96 0 96 -91q0 -47 -33 -95q-7 -11 -25.5 -32.5t-47.5 -52.5q3 -13 34 -23t64 -10l28 3q28 34 61 187q15 72 23 121t8 80q0 21 0.5 44.5t3.5 36.5q6 17 26 17q38 0 49 -50v-103z" horiz-adv-x="767"/>
<glyph glyph-name="TamlCA_TamlPulli.half" d="M237 108q-13 5 -27 5q-10 0 -79 -17q-3 -16 17 -38t39 -22q31 21 50 72zM288 252q-18 12 -46 12q-29 0 -45 -5v-67h79zM530 122q0 -47 -45 -47q-13 0 -31 4t-31 7l-98 19q-27 -74 -59 -110q-37 -42 -89 -42q-43 0 -101 41q-63 47 -63 108q0 42 77 78v58q0 97 39 127 q37 26 151 26q74 0 129 -40l-44 -165q39 -6 67 -12t40 -8q58 -18 58 -44zM403 552q0 -25 -33 -57q-33 -30 -68 -30q-48 0 -82 40t-33 101q0 38 19 66t50 28q23 0 43 -33l19 -33q12 0 27 -7l22 -6q10 0 23 -26q3 -7 8 -19t5 -24z" horiz-adv-x="537"/>
<glyph glyph-name="TamlNYA_TamlPulli.half" d="M325 62q0 31 -21 31q-15 0 -28 -11t-15 -28q0 -45 20 -45q44 0 44 53zM749 -80q0 -118 -91 -184q-83 -59 -220 -59q-148 0 -266 89q-159 120 -159 361q-1 77 13 151t42 149q46 127 117 221q64 85 104 85q23 -1 45 -25t22 -52q-3 -4 -5 -6q-6 -6 -17 -15q-25 -21 -49 -48 q-69 -85 -120 -199q-64 -142 -64 -247q0 -133 31 -209t103 -125q91 -64 231 -64q80 0 129 37q54 43 54 120q0 48 -32 88t-82 52l-62 -102q-45 -70 -60 -70q-37 0 -37 54l34 64q18 38 34 68t30 64t22 67q9 34 9 57q0 21 -35 21q-61 0 -119 -32q-73 -37 -79 -96q23 24 55 24 q34 0 59 -22q26 -20 26 -50q0 -58 -52 -104q-48 -40 -92 -40q-115 0 -115 107q-1 59 31 121t86 106q45 39 115 62q41 14 77 21t78 7q50 0 84 -15t33 -42q0 -37 -27 -96q-9 -22 -20 -40t-24 -35q163 -71 163 -219zM724 552q0 -25 -33 -57q-33 -30 -68 -30q-47 0 -81 40 t-34 101q0 38 19 66t50 28q23 0 43 -33l19 -33q12 0 27 -7l22 -6q10 0 23 -26q3 -7 8 -19t5 -24z" horiz-adv-x="742"/>
<glyph glyph-name="TamlTTA_TamlPulli.half" d="M653 41q0 -28 -42 -45q-44 -15 -186 -35q-74 -9 -133 -14t-108 -5q-75 0 -88 14q-32 35 -50 123q-8 43 -22 182l-17 163q0 52 40 52q42 0 56 -49q3 -9 5 -25q6 -40 6 -85q0 -109 15 -176t38 -80q21 -14 57 -17l50 1q39 0 91 4t113 13l125 16q50 0 50 -37zM440 488 q0 -25 -33 -57q-33 -30 -68 -30q-47 0 -81 40t-34 101q0 38 19 66t50 28q23 0 43 -33l19 -33q12 0 27 -7l22 -6q10 0 23 -26q3 -7 8 -19t5 -24z" horiz-adv-x="661"/>
<glyph glyph-name="TamlNNA_TamlPulli.half" d="M714 95q0 17 -5 30l-63 -22v-7q0 -30 33 -30q35 0 35 29zM426 68l-42 78q-5 -2 -15 -20t-10 -27q0 -13 12 -26t29 -18zM1009 168q0 -17 -27 -191q-5 -33 -9 -65q-5 -32 -11 -72t-12 -68t-17 -57q-17 -54 -50 -54q-49 0 -49 60l19 145q9 68 14 112t5 69l-6 81 q-10 12 -70 12q3 -11 5 -20t2 -21q0 -40 -30 -75t-71 -35q-47 0 -93 40t-46 78q0 60 83 97q-43 16 -89 16q-32 0 -53 -4t-39 -16q43 -40 43 -116q0 -52 -36 -79q-24 -18 -56 -18q-50 1 -98 43t-48 91q0 50 50 106q-108 82 -163 82q-30 1 -42 -9t-12 -40q0 -39 18 -78 q11 -23 34 -52q18 -21 18 -27q0 -10 -16 -25q-15 -11 -29 -12q-45 0 -80 60q-33 63 -33 139q0 65 47 118q41 50 81 50q72 0 132 -38q35 -20 131 -103q73 25 123 25q138 0 213 -90q42 16 158 16q109 0 109 -75zM776 526q0 -25 -33 -57q-33 -30 -68 -30q-47 0 -81 40t-34 101 q0 38 19 66t50 28q23 0 43 -33l19 -33q12 0 27 -7l22 -6q10 0 23 -26q3 -7 8 -19t5 -24z" horiz-adv-x="1016"/>
<glyph glyph-name="TamlTA_TamlPulli.half" d="M403 552q0 -25 -33 -57q-33 -30 -68 -30q-48 0 -81.5 40t-33.5 101q0 39 19 66.5t50 27.5q23 0 43 -33l19 -33q12 0 27 -7l22 -6q10 0 23 -26q3 -6 8 -18.5t5 -24.5zM236 94q-32 0 -72 -0.5t-56 -11.5q9 -18 32 -38q23 -18 42 -18q24 0 54 68zM279 259q-38 6 -52 6h-6 l-16 -92l58 -9zM549 3q0 -103 -208 -214q-62 -31 -284 -116q-170 -66 -421 -129.5t-322 -63.5q-48 0 -48 32q0 37 46 54l193 38q118 26 246.5 64.5t281.5 94.5q33 11 87 31q41 15 116 45q179 83 179 154q0 46 -103 78q-12 -38 -51 -80q-44 -46 -82 -46q-50 0 -109 41 q-65 44 -65 100q0 18 29.5 47.5t55.5 32.5l15 114q10 57 30 80q26 29 99 29q63 0 96 -9t77 -42q-7 -30 -22.5 -79.5t-36.5 -112.5q201 -65 201 -143z" horiz-adv-x="557"/>
<glyph glyph-name="TamlNA_TamlPulli.half" d="M529 -17q0 -97 -239 -208q-164 -76 -556 -176q-353 -89 -430 -89q-18 0 -38 10t-21 24q0 31 47 46l123 15q75 11 167 31t207 53q244 66 412 151q199 98 199 178q0 24 -27 48q-15 12 -32 18t-41 5q-112 -196 -132 -196q-12 -1 -24 9t-12 20q0 5 48 115t75 200q-11 1 -21 1 t-22 1h-20q-45 0 -68 -6l-4 -24q0 -28 17 -66l19 -44q0 -5 -15 -16q-12 -7 -25 -8q-26 0 -64 76t-38 121q0 8 8 32t18 32q51 34 151 34q200 0 200 -57q1 -27 -21 -79t-39 -75q88 -19 143 -65t55 -111zM403 552q0 -25 -33 -57q-33 -30 -68 -30q-48 0 -82 40t-33 101 q0 38 19 66t50 28q23 0 43 -33l19 -33q12 0 27 -7l22 -6q10 0 23 -26q3 -7 8 -19t5 -24z" horiz-adv-x="537"/>
<glyph glyph-name="TamlPA_TamlPulli.half" d="M403 552q0 -25 -33 -57q-33 -30 -68 -30q-48 0 -81.5 40t-33.5 101q0 39 19 66.5t50 27.5q23 0 43 -33l19 -33q12 0 27 -7l22 -6q10 0 23 -26q3 -6 8 -18.5t5 -24.5zM596 315q0 -96 -80 -209q-87 -123 -178 -123q-85 0 -171 82q-64 60 -117 155q-43 78 -43 95q0 14 35 44 q41 32 76 32q18 0 51 -82q37 -104 72 -148q64 -84 123 -84t101 88q16 36 24.5 76t8.5 81q0 26 14.5 46.5t37.5 20.5q46 0 46 -74z" horiz-adv-x="604"/>
<glyph glyph-name="TamlMA_TamlPulli.half" d="M682 146q0 -76 -56 -124t-145 -48q-198 0 -340 25q-32 6 -49 15q-31 19 -48 70l-48 360l-45 371q1 16 13 30t30 14q31 0 48 -15q8 -11 20 -45q5 -47 9 -105t4 -101q0 -37 8 -94t11 -84l12 -99q0 -53 11 -121t25 -83q12 -15 112 -27q77 -9 112 -9q189 0 189 28 q0 26 -87 64t-143 39q-61 0 -61 -54q0 -6 -6 -13t-13 -9q-27 -1 -49 25t-22 55q0 40 67 85q77 53 176 53q77 0 171 -67t94 -136zM403 552q0 -25 -33 -57q-33 -30 -68 -30q-48 0 -82 40t-33 101q0 38 19 66t50 28q23 0 43 -33l19 -33q12 0 27 -7l22 -6q10 0 23 -26 q3 -7 8 -19t5 -24z" horiz-adv-x="698"/>
<glyph glyph-name="TamlYA_TamlPulli.half" d="M403 552q0 -25 -33 -57q-33 -30 -68 -30q-48 0 -81.5 40t-33.5 101q0 39 19 66.5t50 27.5q23 0 43 -33l19 -33q12 0 27 -7l22 -6q10 0 23 -26q3 -6 8 -18.5t5 -24.5zM691 215q0 -115 -71 -214q-66 -89 -127 -89q-56 0 -109 44q-33 29 -71 82q-32 44 -40 44 q-28 0 -72 -36.5t-66 -36.5q-45 0 -73 58q-40 79 -40 258l1 81l1 69q0 9 17 25q8 6 18 10.5t17 5.5q27 0 27 -35q0 -121 13 -215q17 -137 53 -137q15 0 54.5 34t75.5 34q32 0 54 -40q6 -14 18 -41t19 -41q39 -70 91 -70q43 0 66 41q12 23 23.5 92.5t11.5 99.5 q0 27 16.5 43.5t40.5 16.5q52 0 52 -83z" horiz-adv-x="707"/>
<glyph glyph-name="TamlRA_TamlPulli.half" d="M403 552q0 -25 -33 -57q-33 -30 -68 -30q-48 0 -81.5 40t-33.5 101q0 39 19 66.5t50 27.5q23 0 43 -33l19 -33q12 0 27 -7l22 -6q10 0 23 -26q3 -6 8 -18.5t5 -24.5zM423 235q0 -114 -21 -213q-26 -128 -77 -178q-106 -107 -498 -249q-139 -50 -370 -116 q-201 -55 -236 -55q-11 0 -20.5 5.5t-11.5 16.5q0 13 11.5 25.5t27.5 12.5q20 0 337 99q236 74 343 115q187 73 281 155q62 52 78 126q6 30 6 132q0 81 -6 105q-9 37 -44 37q-96 0 -125 -39l-5 -53l4 -39l5 -41q0 -31 -39 -31q-30 0 -40 34q-4 14 -7 43.5t-3 66.5 q0 104 62 142q27 18 93 29t140 11q58 0 89 -44q26 -38 26 -97z" horiz-adv-x="437"/>
<glyph glyph-name="TamlLA_TamlPulli.half" d="M893 153q0 -17 -18 -71q-8 -26 -17 -47t-18 -37q-71 -115 -163 -115q-140 0 -303 163l-112 116q-57 54 -91 54q-35 0 -55 -48q-8 -20 -12 -40t-4 -45q0 -56 -46 -56q-23 0 -35 21t-12 49q0 72 47 161q56 103 133 103q67 0 142 -76l133 -154q43 -48 105 -93t105 -54l28 -2 q43 0 74 88q24 72 24 116q0 8 18 19t36 11q15 0 27 -21q14 -20 14 -42zM732 429q0 -25 -33 -57q-33 -30 -68 -30q-47 0 -81 40t-34 101q0 39 19 67t50 27q23 0 43 -33l19 -33q12 0 27 -7l22 -6q10 0 23 -26q3 -6 8 -18t5 -25z" horiz-adv-x="900"/>
<glyph glyph-name="TamlVA_TamlPulli.half" d="M733 552q0 -25 -33 -57q-33 -30 -68 -30q-48 0 -81.5 40t-33.5 101q0 39 19 66.5t50 27.5q23 0 43 -33l19 -33q12 0 27 -7l22 -6q10 0 23 -26q3 -6 8 -18.5t5 -24.5zM777 194q0 -102 -47.5 -162.5t-126.5 -60.5q-28 0 -91 4t-97 4q-100 9 -123 19q-35 15 -35 52 q0 23 50 85l92 114q50 71 50 124q0 71 -117 71q-99 0 -171 -21q-90 -27 -90 -80l2 -17l2 -13q0 -7 -24 -7q-44 0 -44 65q0 67 77 122q39 27 94.5 40.5t128.5 13.5q97 0 161 -44t64 -119q0 -117 -178 -295q41 -21 157 -21q83 0 105 17q31 28 31 116v41l1 44q20 10 48 10 q81 0 81 -102z" horiz-adv-x="785"/>
<glyph glyph-name="TamlLLLA_TamlPulli.half" d="M511 109q0 41 -31 81q-35 48 -88 48q-62 0 -62 -50q0 -78 26 -124h17h14q46 0 65 4q59 9 59 41zM669 97q0 -56 -29 -81q-22 -19 -70 -32t-68 -13l-44 -1l-41 -1q18 -35 52 -62q38 -32 75 -32q10 0 20 -2t20 -11q17 -14 17 -33q0 -47 -16 -47q-15 0 -50 7l-49 7 q-88 0 -178 -31q-53 -19 -130 -60q-61 -31 -80 -31q-10 0 -18 4t-18 12q-21 20 -21 49q0 38 134 86q120 42 175 42q11 0 43 7q-65 52 -89 106q-38 -5 -66 -5q-117 0 -160 47q-35 38 -48 115l-14 148l-23 214q0 50 43 50q40 0 55 -43q9 -27 9 -100q0 -248 53 -299 q22 -21 110 -34q-30 89 -30 182q-1 45 37 83t89 38q107 0 206 -84q52 -44 78 -92t26 -103zM403 552q0 -25 -33 -57q-33 -30 -68 -30q-48 0 -82 40t-33 101q0 38 19 66t50 28q23 0 43 -33l19 -33q12 0 27 -7l22 -6q10 0 23 -26q3 -7 8 -19t5 -24z" horiz-adv-x="684"/>
<glyph glyph-name="TamlLLA_TamlPulli.half" d="M403 552q0 -25 -33 -57q-33 -30 -68 -30q-48 0 -81.5 40t-33.5 101q0 39 19 66.5t50 27.5q23 0 43 -33l19 -33q12 0 27 -7l22 -6q10 0 23 -26q3 -6 8 -18.5t5 -24.5zM689 -500q0 -19 -22 -39.5t-44 -20.5t-36 12.5t-16 30.5l1 151l1 171l6 143l8 152v13q0 46 -3 63 q-8 49 -32 49q-27 0 -96.5 -34.5t-92.5 -34.5q-36 0 -87 39l-80 74q-45 39 -69 39q-14 0 -17 -3t-5 -17q0 -13 32 -56q34 -40 34 -57q0 -16 -13 -29.5t-30 -13.5q-32 0 -71 45q-42 50 -42 104q0 47 37 88.5t87 41.5q36 0 85 -43l77 -80q41 -43 68 -43q31 0 106 39.5 t107 39.5q38 0 65.5 -23.5t27.5 -69.5v-206v-260q0 -56 1 -97t5 -84z" horiz-adv-x="697"/>
<glyph glyph-name="TamlRRA_TamlPulli.half" d="M403 552q0 -25 -33 -57q-33 -30 -68 -30q-48 0 -81.5 40t-33.5 101q0 39 19 66.5t50 27.5q23 0 43 -33l19 -33q12 0 27 -7l22 -6q10 0 23 -26q3 -6 8 -18.5t5 -24.5zM640 242q0 -74 -12 -133t-38 -106q-44 -80 -129.5 -156t-218.5 -152t-458 -171q-277 -81 -307 -81 q-11 0 -23 8.5t-12 21.5q0 25 30 25q45 0 243 55q257 72 442 169q172 87 270 199q114 123 114 249q0 106 -52 106q-36 0 -108 -89.5t-104 -89.5q-38 0 -61 53q-8 18 -31 97q-14 53 -27 53q-50 0 -50 -239q0 -25 -14 -45.5t-30 -20.5q-50 0 -50 89q0 111 49.5 205t120.5 94 q30 0 52 -45l34 -84q17 -45 37 -45t57 40q20 22 35 38q23 24 38 38q26 20 51 30t53 10q43 0 71 -38.5t28 -84.5z" horiz-adv-x="655"/>
<glyph glyph-name="TamlNNNA_TamlPulli.half" d="M403 552q0 -25 -33 -57q-33 -30 -68 -30q-48 0 -81.5 40t-33.5 101q0 39 19 66.5t50 27.5q23 0 43 -33l19 -33q12 0 27 -7l22 -6q10 0 23 -26q3 -6 8 -18.5t5 -24.5zM422 85q0 30 -14 40q-17 -3 -64 -28q19 -36 54 -36q24 0 24 24zM721 159q0 -84 -31 -251 q-27 -161 -49 -210q-12 -30 -44 -30q-42 0 -42 60l22 127q23 129 23 195q0 57 -8 66q-14 17 -48 17q-46 0 -56 -5q21 -38 21 -63q0 -35 -27 -59t-58 -24q-36 0 -86 38q-56 42 -56 90q0 47 64 87l-88 71q-56 36 -96 36q-71 0 -71 -43t22 -75q8 -10 41 -42q21 -20 21 -36 q0 -15 -17.5 -32.5t-35.5 -19.5q-29 0 -67 57q-42 65 -42 148q0 162 164 162q133 0 258 -195q104 16 155 16q131 0 131 -85z" horiz-adv-x="735"/>
<glyph glyph-name="TamlSA_TamlPulli.half" d="M403 552q0 -25 -33 -57q-33 -30 -68 -30q-48 0 -81.5 40t-33.5 101q0 39 19 66.5t50 27.5q23 0 43 -33l19 -33q12 0 27 -7l22 -6q10 0 23 -26q3 -6 8 -18.5t5 -24.5zM1004 299q0 -101 -81 -236q-86 -142 -167 -142q-96 0 -171 191l-45 121q-22 55 -55 55q-41 0 -65 -77 q-20 -63 -20 -136l1 -27l2 -23q0 -20 -14.5 -34t-28.5 -15q-14 0 -22 3q-11 7 -20 33l-15 81q-14 73 -35 127q-44 105 -110 105q-26 0 -45 -26.5t-19 -57.5q0 -40 18 -72q6 -12 12.5 -20t23 -25t16.5 -30q0 -14 -16.5 -27.5t-33.5 -15.5q-48 0 -77 54q-24 51 -24 124 q0 43 10.5 78t32.5 65q47 63 126 63q139 0 185 -236q6 45 16.5 78.5t26.5 60.5q38 69 102 69q41 0 68 -36q20 -27 41 -90q5 -22 14.5 -53t17.5 -56q21 -70 54 -117.5t56 -47.5q27 0 76 92q56 101 56 183q0 14 -5 29l-4 20q0 6 25 15q21 6 36 6q23 0 40 -15.5t17 -37.5z" horiz-adv-x="1020"/>
<glyph glyph-name="TamlJA_TamlPulli.half" d="M403 552q0 -25 -33 -57q-33 -30 -68 -30q-48 0 -81.5 40t-33.5 101q0 39 19 66.5t50 27.5q23 0 43 -33l19 -33q12 0 27 -7l22 -6q10 0 23 -26q3 -6 8 -18.5t5 -24.5zM688 281q0 -79 -95 -164q-57 -51 -190 -130t-157 -100q95 53 173.5 80t140.5 27q39 0 65.5 -22 t26.5 -59q0 -120 -269 -310l-79 -52q-60 -38 -72 -38q-14 0 -16 17q0 15 34 41l81 55q75 57 134 122q64 71 64 112q0 55 -31 55q-81 0 -198 -50q-68 -30 -122 -64t-97 -74q-10 -9 -25.5 -30t-37.5 -55q-28 -39 -58 -39q-14 0 -30 20.5t-18 36.5q0 30 18 72q8 18 20.5 35.5 t26.5 30.5q32 28 64.5 51.5t76.5 48.5l153 86q44 27 90 58q24 16 81.5 55.5t81.5 62.5q30 32 30 67q0 12 -6.5 23.5t-18.5 11.5q-37 0 -97 -63t-89 -63q-27 0 -48 49q-1 4 -9 30q-12 42 -17 62q-12 48 -26 49q-29 0 -66 -49q-21 -26 -31.5 -51t-10.5 -52l1 -40q3 -13 21 -19 q4 -7 4 -12q0 -9 -7 -17q-25 -16 -49 -16q-21 0 -36 5.5t-30 19.5q-26 26 -26 60q0 80 78 164q85 91 187 91q53 0 74 -104q6 -38 8 -40q5 -18 14 -18q17 0 40 22l43 46q23 20 56 39q47 27 82 27q46 0 72 -33q9 -14 15 -31.5t6 -36.5z" horiz-adv-x="704"/>
<glyph glyph-name="TamlSSA_TamlPulli.half" d="M763 592q0 -25 -33 -57q-33 -30 -68 -30q-48 0 -81.5 40t-33.5 101q0 39 19 66.5t50 27.5q23 0 43 -33l19 -33q12 0 27 -7l22 -6q10 0 23 -26q3 -6 8 -18.5t5 -24.5zM1012 114q0 -8 -12 -25t-25 -17q-10 0 -50 -13l-64 -19l-33 -204q-18 -116 -28 -139q-9 -26 -28 -26 q-57 0 -57 52l21 128l28 166q-60 -14 -180.5 -26.5t-182.5 -12.5q-145 0 -145 69q0 22 21 51l51 61q20 24 38.5 51t36.5 61q35 67 35 102q0 40 -38 61q-35 21 -90 21q-96 0 -170.5 -40.5t-74.5 -86.5q0 -27 -20 -27q-16 0 -26 23q-12 21 -12 48q0 83 82 137t209 54 q217 0 217 -169q0 -63 -38 -132q-9 -18 -26.5 -45t-41.5 -60q-35 -46 -37 -62q0 -19 58 -19l41 1l36 2q62 0 138 11l127 19v45q0 79 -21 118t-74 39q-56 0 -56 -46q0 -44 23 -79q24 -33 24 -44t-12 -24.5t-24 -14.5q-17 0 -45 52q-33 64 -33 134q0 68 40.5 108.5t103.5 40.5 q80 0 126 -67q22 -34 33.5 -82.5t11.5 -110.5v-48q20 0 58 13l47 13q15 0 26 -14q12 -12 12 -28z" horiz-adv-x="1018"/>
<glyph glyph-name="TamlHA_TamlPulli.half" d="M883 602q0 -25 -33 -57q-33 -30 -68 -30q-48 0 -81.5 40t-33.5 101q0 39 19 66.5t50 27.5q23 0 43 -33l19 -33q12 0 27 -7l22 -6q10 0 23 -26q3 -6 8 -18.5t5 -24.5zM1280 289q0 -134 -105.5 -275t-252.5 -220q-134 -70 -374 -140q-188 -53 -383 -92q-172 -34 -200 -34 q-34 0 -34 27q0 22 30 31l299 63q337 81 552 187q337 165 337 368q0 69 -43 69q-34 0 -123.5 -98t-122.5 -98q-38 0 -70 92l-24 80q-12 38 -27 40q-31 0 -48 -58q-9 -32 -17.5 -109.5t-17.5 -90.5q-24 -34 -89 -46q-23 -3 -107 -3q-65 0 -117 23t-52 66q0 33 73.5 123.5 t73.5 135.5q0 50 -99 50q-92 0 -160 -15q-85 -21 -85 -66q0 -7 6 -19q6 -9 6 -17q0 -36 -26 -36q-29 0 -49 23q-17 23 -17 61q0 70 87.5 122t224.5 52q104 0 165 -42q56 -36 56 -90q0 -67 -147 -237q33 -24 85 -24h15h12q21 0 37 1t27 4l21 82q12 53 28 87q56 122 155 122 q42 0 68 -38l28 -85q23 -67 43 -67q13 0 40 38l56 85q34 49 60 67q40 32 98 32q51 0 83 -45q24 -35 24 -86z" horiz-adv-x="1296"/>
<glyph glyph-name="TamlSHA_TamlPulli.half" d="M403 552q0 -25 -33 -57q-33 -30 -68 -30q-48 0 -81.5 40t-33.5 101q0 39 19 66.5t50 27.5q23 0 43 -33l19 -33q12 0 27 -7l22 -6q10 0 23 -26q3 -6 8 -18.5t5 -24.5zM530 38q0 19 -13 38q-12 21 -31 25l-4 -18q0 -20 15 -41q14 -16 28 -18q3 3 4 6t1 8zM218 102 q-28 0 -52.5 -5.5t-51.5 -19.5q11 -41 50 -41h7q16 6 47 66zM268 254q-24 0 -81 -18l-10 -50l79 10zM1259 79q0 -25 -46 -47q-37 -15 -71 -20q0 -23 -8 -64.5t-24 -113.5q-31 -127 -47 -160q-12 -26 -34 -26q-30 0 -30 43l27 114q13 55 21 104t8 84q-108 -17 -188 -17 q-99 0 -134 6q-70 13 -70 62q0 7 28.5 77.5t28.5 120.5q0 85 -71 85q-61 0 -112 -58q-38 -47 -51 -96q71 -24 111 -72q34 -40 34 -91q0 -88 -89 -88q-67 0 -106 64q-15 27 -21.5 56.5t-6.5 66.5h-85l-60 -105q-40 -61 -74 -61q-66 0 -124 43t-58 91q0 35 18 53q9 11 46 29 q0 24 0.5 48t6.5 60q11 64 26 82q8 11 61 24q26 5 37 7q30 5 57 5q36 0 83 -13.5t54 -26.5q3 -6 3 -16q0 -32 -43 -137l61 -5q0 49 20 92t60 86q78 83 180 83q64 0 104.5 -38t40.5 -95q0 -67 -25 -139l-39 -96q24 -11 65.5 -17t100.5 -6q89 0 141 11l-13 107q-12 57 -58 57 q-50 0 -50 -57q0 -30 12 -47.5t14 -25.5q0 -36 -26 -36q-32 0 -54 52q-17 43 -17 103q0 63 40.5 115t100.5 52q67 0 101 -78q25 -64 25 -155l-1 -72q56 16 92 16q28 0 28 -20z" horiz-adv-x="1267"/>
<glyph glyph-name="TamlKA_TamlvI.abvs" d="M220 111l-11 1q-39 0 -73 -22q0 -14 14 -28q14 -11 32 -13q11 0 38 62zM268 258h-80v-73h66zM539 -33q0 -42 -29 -85q-37 -51 -99 -51q-51 0 -104 42t-53 81q0 8 13 24q11 16 22 17q21 0 58 -21.5t52 -21.5q25 0 25 25t-39 69.5t-80 49.5q-63 -144 -123 -144t-114.5 49.5 t-54.5 96.5q0 22 25 43q21 17 53 23q-6 14 -6 65q0 81 18 131q34 23 133 23q123 0 151 -31l-21 -86q-15 -56 -33 -91q89 -19 151 -87q55 -59 55 -121zM578 407q0 -65 -4.5 -125.5t-14.5 -128.5q-17 -15 -32 -16q-27 0 -43 26q-9 35 -9 81v96q0 158 -50 158q-22 0 -50 -17 q-30 -15 -48 -39l-20 -32q-9 -15 -14 -15q-20 0 -34 14t-14 35q0 45 71 105q75 64 146 64q116 0 116 -206z" horiz-adv-x="586"/>
<glyph glyph-name="TamlNGA_TamlvI.abvs" d="M665 324q0 28 3.5 49t6.5 34q6 17 26 17q38 0 49 -50v-103q0 -37 -16 -152.5t-42 -175.5q-45 -118 -159 -118q-72 0 -128 23q-67 26 -67 69q0 41 50 96q50 50 50 86q0 49 -51 49q-71 0 -101 -70l-43 -103q-27 -55 -42 -56q-14 0 -28 15t-14 31q0 9 41 127t41 166 q0 18 -2 24q-30 0 -69 -12.5t-45 -30.5q3 -13 22 -49q15 -27 15 -50q0 -39 -30 -39q-32 0 -79.5 79.5t-47.5 134.5q0 46 48.5 69t106.5 23q13 0 34.5 1t49.5 4l69 5q74 0 74 -53q0 -39 -53 -160q64 35 129 35q96 0 96 -91q0 -47 -33 -95q-7 -11 -25.5 -32.5t-47.5 -52.5 q3 -13 34 -23t64 -10l28 3q28 34 61 187q3 16 8.5 39.5t7.5 38.5q-32 0 -59 7.5t-51 25.5q-48 40 -48 103q0 85 63 160q72 84 180 84q101 0 148.5 -75.5t47.5 -250.5q0 -115 -18 -307q-7 -72 -14.5 -131t-11.5 -83q-9 -57 -47 -57q-25 0 -25 45l10 101l9 136l2 60l3 111 q0 348 -103 348q-49 0 -92 -54t-43 -114q0 -25 14.5 -44.5t35.5 -19.5q3 24 4.5 40.5t3.5 35.5z" horiz-adv-x="937"/>
<glyph glyph-name="TamlCA_TamlvI.abvs" d="M236 120l-25 2q-24 0 -82 -16q0 -17 19 -39t36 -22q33 20 52 75zM283 263q-17 12 -41 12q-26 0 -46 -6v-65h79zM526 133q0 -47 -42 -47q-32 0 -159 31q-30 -75 -59 -111q-37 -43 -90 -43q-46 0 -101 42q-62 47 -62 109q0 44 76 78v59q0 92 35 121t146 29q82 0 136 -39 l-43 -165q89 -13 105 -19q58 -13 58 -45zM625 494q0 -62 -50 -172q-43 -106 -59 -106t-39 15q-21 16 -21 26q0 6 20 38q25 39 38 67q20 46 20 88q0 25 -15.5 41.5t-37.5 16.5q-28 0 -61 -20q-14 -8 -24 -14.5t-15 -13.5l-28 -37q-4 -6 -11 -13l-5 -5q-9 0 -24.5 12.5 t-15.5 28.5q0 44 50 102q63 69 150 69q53 0 90.5 -37t37.5 -86z" horiz-adv-x="604"/>
<glyph glyph-name="TamlNYA_TamlvI.abvs" d="M853 476q0 -31 -10.5 -72.5t-32.5 -96.5q-38 -103 -54 -105q-20 0 -40.5 14t-20.5 26q0 8 35 72.5t35 116.5q0 62 -55 62q-36 0 -70 -28q-15 -10 -30 -19q-9 -7 -19 -21.5t-19 -32.5q-1 -3 -3 -8q-16 0 -28.5 14t-14.5 28q0 51 56 110q64 66 144 66q51 0 89 -36t38 -90z M325 62q0 31 -21 31q-15 0 -28 -11t-15 -28q0 -45 20 -45q44 0 44 53zM749 -80q0 -118 -91 -184q-83 -59 -220 -59q-148 0 -266 89q-159 120 -159 361q0 77 13.5 150.5t41.5 149.5q46 127 117 221q64 85 104 85q24 0 45.5 -24.5t21.5 -52.5q-3 -4 -5 -6q-6 -6 -17 -15 q-25 -21 -49 -48q-69 -85 -120 -199q-64 -142 -64 -247q0 -133 31 -208.5t103 -125.5q91 -64 231 -64q80 0 129 37q54 43 54 120q0 49 -32 88.5t-82 51.5l-62 -102q-45 -70 -60 -70q-37 0 -37 54l34 64q19 37 34.5 67.5t29 64t22.5 67.5t9 57q0 21 -35 21q-61 0 -119 -32 q-73 -37 -79 -96q23 24 55 24q34 0 59 -22q26 -20 26 -50q0 -58 -52 -104q-48 -40 -92 -40q-115 0 -115 107q0 59 31.5 121t85.5 106q45 39 115 62q41 14 77 21t78 7q50 0 83.5 -15t33.5 -42q0 -37 -27 -96q-9 -21 -20 -39.5t-24 -35.5q163 -71 163 -219z" horiz-adv-x="815"/>
<glyph glyph-name="TamlTTA_TamlvI.abvs" d="M355 187q0 66 -37 66q-41 0 -41 -42q0 -32 13 -54q14 -19 48 -36q17 31 17 66zM540 69q0 -25 -48 -47.5t-110 -31.5q-50 -110 -168 -232q-90 -94 -197 -175q-36 21 -36 59q0 47 60 112l127 115q82 73 115 124l-97 -3q-88 0 -126 17q-54 25 -54 83q0 20 19 100l35 163 q23 118 34 152q21 68 48 68q13 0 26.5 -19.5t15.5 -35.5l-26 -150q-26 -147 -26 -184q0 -51 10 -60.5t38 -14.5l52 -3q-23 54 -23 76q0 63 37 105t99 42q101 0 101 -133q0 -28 -4 -49.5t-16 -47.5q63 9 89 9q9 0 16 -12.5t9 -26.5z" horiz-adv-x="547"/>
<glyph glyph-name="TamlNNA_TamlvI.abvs" d="M446 141l-51 76q-18 -9 -18 -50q0 -25 44 -40zM727 207q0 9 -7 31l-58 -29v-6q0 -28 28 -28q14 0 25.5 8.5t11.5 23.5zM1011 278l-3 -109l-2 -140q0 -68 -3 -110.5t-11 -66.5q-15 -52 -60 -52q-11 0 -25.5 21t-14.5 45l1 108l1 144q0 80 -20 146q-14 8 -32 8t-39 -6 q5 -13 9 -25.5t5 -19.5q0 -46 -26 -82t-75 -36q-47 0 -93 34.5t-46 69.5q0 31 18 55l46 46q-8 3 -19.5 6t-19.5 3l-36 -1q-53 0 -95 -33q21 -18 38.5 -58t17.5 -68q0 -45 -33 -71q-29 -23 -69 -23q-52 0 -97 38.5t-45 95.5q0 30 33 90q-31 28 -80 44t-81 16q-56 0 -56 -39 t24 -80q12 -22 43 -53q23 -26 23 -36t-13.5 -23t-36.5 -13q-45 0 -85.5 63.5t-40.5 139.5q0 69 39 119t91 50q62 0 125 -32l131 -77q18 15 66.5 30t77.5 15q121 0 194 -64q70 38 179 38q51 0 74 -23q21 -24 21 -84zM1207 335q0 -185 -52 -185q-17 0 -29.5 10t-13.5 25l-1 70 l-1 74q0 181 -68 181q-48 0 -77 -26q-8 -6 -12 -11q-11 -12 -24 -35t-27 -25q-21 0 -36.5 23t-15.5 48q0 46 68 90q67 39 138 39q77 0 114 -55q37 -60 37 -223z" horiz-adv-x="1222"/>
<glyph glyph-name="TamlTA_TamlvI.abvs" d="M235 95q-30 3 -54 3q-54 0 -77 -15q44 -55 77 -55q24 0 54 67zM278 261q-8 7 -29 7h-12q-9 -2 -14 -2q-16 -37 -16 -93l55 -7zM547 5q0 -105 -206 -215q-26 -13 -57 -27t-74 -30l-154 -58q-152 -57 -410 -119.5t-336 -62.5q-19 0 -33.5 9t-14.5 21q0 13 14 34t30 21 q11 0 113 18l170 35q81 20 165 44t170 52q202 66 297 108q42 18 71.5 35t55.5 38q55 41 55 71q0 39 -24 60q-16 18 -69 33q-14 -36 -51 -78q-43 -46 -81 -46q-53 0 -108 40q-65 46 -65 107q0 11 27.5 39.5t57.5 34.5q11 96 16 114q10 55 29 79q29 31 101 31q109 0 171 -51 q-20 -69 -35.5 -119.5t-24.5 -76.5q200 -68 200 -141zM589 493q0 -91 -27 -226q-22 -112 -33 -130q-3 -12 -31 -12q-44 0 -44 67q0 15 12.5 91t12.5 131v30q0 19 -2 27q-5 29 -36 29q-36 0 -69 -21q-21 -10 -45 -39q-16 -20 -23 -20q-42 0 -42 44q0 22 17.5 46t55 49.5 t74.5 38t77 12.5q34 0 63 -22q40 -31 40 -95z" horiz-adv-x="586"/>
<glyph glyph-name="TamlNA_TamlvI.abvs" d="M535 -9q0 -99 -233 -211q-190 -88 -571 -190q-336 -89 -415 -89q-60 0 -60 40q0 25 31 35l191 31q213 38 447 118q99 34 180.5 69.5t147.5 73.5q152 86 152 149q0 30 -26 52t-75 22l-76 -131q-37 -62 -53 -64q-13 0 -25.5 11t-14.5 22l42 96q24 54 43 106.5t36 108.5 l-38 2q-64 0 -93 -8l-3 -24q0 -14 4.5 -30t13.5 -35l19 -40q0 -10 -12 -22q-8 -7 -23 -9q-29 0 -70 73.5t-41 124.5q0 46 35 72q38 25 151 25q194 0 194 -53q0 -16 -21 -72q-9 -22 -19.5 -45.5t-17.5 -35.5q200 -46 200 -172zM583 476q0 -31 -10.5 -72.5t-32.5 -96.5 q-38 -103 -54 -105q-20 0 -40.5 14t-20.5 26q0 8 35 72.5t35 116.5q0 62 -55 62q-36 0 -70 -28q-15 -10 -30 -19q-9 -7 -19 -21.5t-19 -32.5q-1 -3 -3 -8q-16 0 -28.5 14t-14.5 28q0 51 56 110q64 66 144 66q51 0 89 -36t38 -90z" horiz-adv-x="573"/>
<glyph glyph-name="TamlPA_TamlvI.abvs" d="M743 206q0 -46 -4 -119t-13 -171q0 -77 -10 -145t-13 -85.5t-12.5 -36t-18.5 -20.5q-40 0 -40 26l9 120q0 51 2 93q7 146 7 159q0 156 -12 239q-22 161 -93 161q-49 0 -91 -54t-42 -108q0 -35 14.5 -48.5t48.5 -13.5l25 1q9 31 38 31q15 0 32.5 -23t17.5 -44 q0 -42 -68 -120q-80 -90 -157 -90q-198 0 -315 299q-53 137 -54 150q0 19 29.5 42.5t50.5 23.5q46 0 66 -32q5 -8 19 -73q7 -34 16 -65t19 -55q36 -83 97 -144q53 -55 85 -55q66 0 101 99q-80 0 -127 36.5t-47 99.5q0 88 63 163q71 81 176 81q201 0 201 -322z" horiz-adv-x="766"/>
<glyph glyph-name="TamlMA_TamlvI.abvs" d="M837 260q0 -46 -2 -186.5t-2 -192.5l-4 -231q-6 -27 -31 -45q-17 -11 -34 -13q-32 0 -32 38l2 84l2 81v398q0 128 -10 178q-14 77 -61 77q-38 0 -69 -28q-9 -8 -17.5 -20.5t-21.5 -33.5q-17 -27 -25 -29q-20 0 -37 32q-13 28 -13 52q0 32 65 73q71 45 153 45 q22 0 55.5 -11.5t42.5 -24.5q39 -53 39 -243zM678 139q0 -75 -56 -127q-50 -45 -101 -45q-129 0 -249 12l-122 13q-76 0 -106 87l-48 364l-44 366q0 13 14.5 29t29.5 16q50 0 63 -40q3 -9 6 -48.5t3 -69.5q0 -54 6 -118q3 -29 11 -94l27 -246q14 -118 26 -133 q14 -14 115 -27q28 -3 63.5 -6.5t50.5 -3.5q182 0 182 28t-90 66t-135 38q-62 0 -62 -59q0 -7 -7 -12t-17 -5q-28 0 -49 30q-16 26 -16 49q0 42 68 88q76 52 168 52q87 0 178 -68.5t91 -135.5z" horiz-adv-x="860"/>
<glyph glyph-name="TamlYA_TamlvI.abvs" d="M834 278q0 -139 -21 -342q-24 -216 -53 -275q-14 -28 -37 -28q-14 0 -27.5 16.5t-15.5 34.5l20 88q12 50 21 100q5 29 16 94q21 132 21 241q0 224 -94 224q-54 0 -98.5 -47.5t-44.5 -108.5q0 -29 9 -44q15 -20 48 -20l1 14l1 16q0 25 16.5 42.5t34.5 17.5q59 0 59 -82 q0 -115 -71 -214q-66 -90 -126 -90q-56 0 -109 44q-31 27 -71 81q-32 44 -40 44q-29 0 -75.5 -35.5t-63.5 -35.5q-112 0 -112 316l-1 83l-1 69q0 9 18 23.5t34 14.5q30 0 30 -52q0 -58 3 -106.5t11 -100.5q17 -128 50 -128q18 0 59 34q19 16 37.5 25t34.5 9q31 0 55 -40 l37 -80q42 -72 92 -72q43 0 65 43q18 36 24 103q-81 32 -101 48q-47 34 -47 100q0 85 70 161q74 80 171 80q67 0 114 -53q57 -65 57 -212z" horiz-adv-x="857"/>
<glyph glyph-name="TamlRA_TamlvI.abvs" d="M261 272q-13 13 -74 13q-56 0 -72 -16q-12 -12 -12 -60q0 -26 6 -48t6 -39q0 -16 -11.5 -31.5t-25.5 -17.5q-64 0 -64 106q0 130 31 158q18 17 74 27.5t114 10.5q30 0 49.5 -2.5t41.5 -7.5q45 -11 53.5 -21.5t18.5 -99.5t10 -160q0 -18 -0.5 -32t-3.5 -30 q-26 -128 -77 -178q-106 -107 -498 -249q-139 -50 -370 -116q-201 -55 -236 -55q-11 0 -20.5 5.5t-11.5 16.5q0 13 11.5 25.5t27.5 12.5q20 0 337 99q236 74 343 115q187 73 281 155q33 28 54.5 59t29.5 67q13 31 19.5 65t6.5 68q0 55 -12 99.5t-26 60.5zM579 464 q0 -56 -4 -99.5t-17 -109.5q-17 -95 -26 -112q-12 -28 -33 -28q-48 0 -48 75l10 71q4 32 7 68.5t3 60.5q0 101 -38 101q-40 0 -74 -23q-22 -16 -45 -43q-18 -24 -24 -24q-14 0 -28.5 14.5t-14.5 34.5q0 43 76.5 96.5t149.5 53.5q48 0 77 -36t29 -100z" horiz-adv-x="586"/>
<glyph glyph-name="TamlLA_TamlvI.abvs" d="M1024 274q0 -86 -6 -176.5t-20 -201.5q-28 -238 -60 -238q-18 0 -32 14q-14 11 -14 31l21 165q9 78 15 160.5t6 146.5q0 281 -103 281q-57 0 -105 -60q-40 -54 -40 -103q0 -22 22 -40q22 -16 51 -16q11 0 16 2v42q0 13 15 27q14 11 30 13q23 0 38.5 -18.5t15.5 -42.5 q0 -124 -59 -211t-137 -87q-107 0 -219 65q-40 22 -173 122q-91 66 -132 66q-37 0 -49 -55l-2 -92q0 -56 -48 -56q-18 0 -33 21t-15 48q0 119 37 194q44 87 124 87q61 0 129 -52l125 -108q71 -59 143.5 -97.5t120.5 -38.5q47 0 68 47q4 8 9.5 32.5t10.5 46.5l-23 -1 q-63 0 -111 41t-48 111q0 66 63 137q73 79 174 79q103 0 153 -88q42 -72 42 -197z" horiz-adv-x="1046"/>
<glyph glyph-name="TamlVA_TamlvI.abvs" d="M981 207q0 -115 -18 -307q-7 -72 -14.5 -131t-11.5 -83q-9 -57 -47 -57q-25 0 -25 45l10 101l9 136l2 60l3 111q0 348 -103 348q-49 0 -92 -54t-43 -114q0 -25 14.5 -44.5t35.5 -19.5v77q0 32 49 32q85 0 85 -105q0 -149 -91 -204q-46 -29 -221 -29q-18 0 -53.5 3 t-83.5 8q-86 12 -95 16q-38 15 -38 52q0 24 23 56l55 65q118 137 118 202q0 77 -126 77q-118 0 -193 -32q-63 -27 -63 -67l2 -15l2 -12q0 -12 -14 -13q-52 0 -52 66q0 64 70 118q30 23 87 39q33 9 65 14t66 5q101 0 166 -40q71 -45 71 -124q0 -75 -71 -171 q-32 -44 -111 -129q28 -9 61 -14t73 -5l101 -1q65 0 95 24q13 9 22 62q-32 0 -59 7.5t-51 25.5q-48 40 -48 103q0 85 63 160q72 84 180 84q101 0 148.5 -75.5t47.5 -250.5z" horiz-adv-x="1003"/>
<glyph glyph-name="TamlLLLA_TamlvI.abvs" d="M514 113q0 41 -35 83.5t-82 42.5q-66 0 -66 -47q0 -67 26 -126q157 0 157 47zM670 104q0 -62 -26 -84q-20 -18 -67 -32t-71 -14l-41 -1l-46 -1q17 -37 52 -63q39 -31 75 -31q28 0 43.5 -15t15.5 -36q0 -11 -6.5 -24.5t-16.5 -14.5q-5 0 -16.5 1t-28.5 4l-47 5 q-90 0 -183 -32q-48 -17 -128 -59q-57 -32 -77 -32q-19 0 -36 14q-24 18 -24 47q0 44 142 93q123 41 171 41q14 0 42 5q-61 46 -93 108l-29 -1q-59 0 -120.5 15.5t-77.5 29.5q-30 35 -45 112l-17 150l-22 215q0 44 45 44q39 0 53 -36q9 -24 9 -81q0 -273 51 -320 q27 -24 114 -37q-31 96 -31 165q0 63 34.5 100t88.5 37q115 0 214 -84.5t99 -187.5zM781 332l-1 -87v-84q0 -33 -30 -33q-36 0 -50 33q-6 16 -14 89l-5 86q0 23 -3 46t-10 48q-17 57 -40 57q-36 0 -70 -29q-21 -19 -43 -55q-8 -13 -15 -22q-2 -3 -6 -7q-50 0 -50 51 q0 42 68 107q75 70 144 70q55 0 77 -31q48 -69 48 -239z" horiz-adv-x="803"/>
<glyph glyph-name="TamlLLA_TamlvI.abvs" d="M678 -496q0 -14 -24.5 -32t-41.5 -18q-24 0 -37 14q-13 11 -13 30l3 158l3 163l7 167l8 178q0 66 -33 66q-29 0 -97.5 -34t-91.5 -34q-42 0 -127.5 77t-107.5 77t-22 -22q0 -15 31 -56q33 -39 33 -57q0 -16 -13 -29.5t-29 -13.5q-32 0 -71 45q-42 51 -42 105 q0 44 38 86.5t85 42.5q37 0 87 -43l78 -80q43 -43 65 -43q34 0 107.5 39t105.5 39q57 0 77 -33q20 -30 20 -127l-3 -216l-4 -305q0 -20 1 -42t4 -45zM856 363q0 -15 -2.5 -57.5t-2.5 -62.5l-5 -106q0 -41 -37 -41q-27 0 -41 24q-12 18 -12 42q0 77 -1 117.5t-2 74.5 q-9 104 -47 104q-26 0 -55.5 -18t-47.5 -43q-30 -42 -35 -43q-44 0 -44 51q0 38 62 96q75 69 165 69q105 0 105 -207z" horiz-adv-x="871"/>
<glyph glyph-name="TamlRRA_TamlvI.abvs" d="M641 218q0 -125 -56 -228q-38 -72 -134 -153q-44 -36 -94 -70.5t-106 -67.5q-104 -58 -305 -124q-61 -19 -153 -45q-80 -22 -168 -44l-155 -34q-11 0 -24 11t-14 25q0 11 36 19q70 12 113 21q57 12 126 31q132 35 240.5 75t202.5 89q87 44 154.5 92.5t120.5 104.5 q117 122 117 247q0 112 -51 112q-35 0 -109 -89t-107 -89q-35 0 -57 52q-8 17 -31 98q-13 51 -28 52q-23 0 -36.5 -51.5t-13.5 -112.5l1 -51l1 -40q0 -21 -17 -35t-36 -14q-44 0 -44 88q0 54 11.5 104t34.5 95q50 99 120 99q33 0 58 -45l35 -82q17 -45 36 -45q18 0 57 40 q61 62 76 75q50 41 93 41q48 0 77 -39.5t29 -111.5zM822 444q0 -148 -30.5 -407t-57.5 -312q-11 -22 -33 -22q-12 0 -23 12q-8 11 -8 22l26 234q27 240 27 353q0 171 -67 171q-52 0 -87 -39l-26 -34q-11 -15 -26 -17q-21 0 -32 21t-11 48q0 49 60.5 84.5t129.5 35.5 q79 0 121 -47q37 -40 37 -103z" horiz-adv-x="827"/>
<glyph glyph-name="TamlNNNA_TamlvI.abvs" d="M467 139q0 24 -24 47q-38 -17 -56 -45q35 -23 49 -23q31 0 31 21zM779 -157q0 -23 -13 -38t-27 -17q-17 0 -35 19q-16 19 -16 36q0 56 -15 181q-20 157 -48 197q-7 10 -44 10q-35 0 -61 -20q40 -46 40 -88q0 -24 -28.5 -49t-62.5 -25q-39 0 -89 26q-58 33 -58 80 q0 48 41 85l-86 39q-48 19 -85 19t-66.5 -12.5t-29.5 -33.5q0 -52 52 -89l48 -30q23 -12 25 -27q0 -14 -12 -37q-16 -25 -32 -25q-45 0 -102 69q-60 74 -60 157q0 68 53.5 109.5t110.5 41.5q110 0 262 -126q149 67 198 67q66 0 86 -35q27 -49 43 -215q0 -37 7 -164 q4 -72 4 -105zM919 474q0 -59 -24.5 -154.5t-37.5 -96.5q-13 0 -24 2t-20 8q-19 10 -20 23q0 9 20.5 64t20.5 105q0 79 -53 79q-24 0 -56 -25q-27 -17 -39 -37l-26 -45q-12 -20 -18 -22q-17 0 -31 13.5t-14 37.5q0 53 53 115q60 72 135 72q65 0 102 -43q16 -19 24 -42t8 -54 z" horiz-adv-x="916"/>
<glyph glyph-name="TamlSA_TamlvI.abvs" d="M1177 364q0 -81 -16 -196t-50 -269q-42 -191 -73 -191q-38 0 -38 52l21 102q26 112 39 201q21 135 21 244q0 83 -9 125q-20 81 -77 81q-56 0 -107 -55q-44 -50 -44 -101q0 -32 9 -43.5t32 -11.5q12 0 12 14l-3 21l-3 23q0 25 50 25q26 0 41.5 -15.5t15.5 -37.5 q0 -109 -71 -238q-77 -144 -162 -144q-38 0 -88 49q-21 21 -41 52.5t-34 65.5q-74 186 -117 186q-41 0 -61 -71q-14 -51 -14 -127l4 -39l4 -37q0 -20 -19 -35q-13 -9 -30 -11q-23 0 -38 38q-10 53 -57 193q-18 44 -51.5 74.5t-65.5 30.5q-62 0 -62 -86q0 -39 21 -72 q6 -9 14 -18.5t23 -23.5q21 -20 21 -32q0 -14 -19 -29q-8 -6 -17 -9.5t-18 -4.5q-41 0 -76 54q-15 27 -23 58t-8 68q0 45 9 79.5t30 63.5q46 64 136 64q66 0 115 -68q43 -61 70 -170q0 49 5.5 83t22.5 68q36 77 102 77q43 0 73 -36q23 -25 45 -84q10 -29 17.5 -51.5 t19.5 -51.5q25 -64 62 -113.5t58 -49.5q24 0 65 83q34 66 62 151q-4 -1 -15.5 -2.5t-19.5 -2.5q-53 0 -87 47q-28 42 -28 95q0 70 67 136q71 73 162 73q193 0 193 -251z" horiz-adv-x="1192"/>
<glyph glyph-name="TamlJA_TamlvI.abvs" d="M692 281q0 -79 -96 -163q-59 -53 -192 -129t-159 -99q197 104 317 104q36 0 63.5 -22t27.5 -53q0 -74 -90 -167q-55 -55 -180 -145q-21 -15 -81 -52q-32 -20 -50 -29.5t-25 -10.5q-16 0 -16 20q0 12 37 39l83 58q198 150 198 232q0 54 -31 54q-73 0 -198 -51 q-138 -58 -220 -135q-25 -25 -67 -86q-28 -39 -53 -39q-17 0 -35 20q-14 20 -16 37q0 28 19 69.5t51 69.5q26 22 63.5 48.5t79.5 49.5l153 86q38 23 74.5 47t93.5 66q72 51 82 62q33 30 33 70q0 30 -29 30q-34 0 -94 -61t-92 -61q-25 0 -46 50l-25 91q-13 50 -28 50 q-28 0 -68 -51t-40 -104v-48l30 -9v-24q-27 -23 -60 -23q-36 0 -65 29q-28 31 -28 58q0 78 77 164q87 93 189 93q51 0 77 -106q2 -16 3.5 -22.5t5 -20.5t13.5 -16q18 0 41 23l47 48q72 69 132 69q46 0 73 -37q10 -15 15.5 -33.5t5.5 -39.5zM878 449q0 -178 -32 -427 q-15 -124 -28 -196.5t-26 -101.5t-45 -29q-24 0 -24 37l27 237q27 243 27 357q0 82 -7 113q-15 60 -62 60q-50 0 -80 -21q-5 -4 -16.5 -17t-20.5 -24q-8 -13 -25 -15q-13 0 -30 23q-15 24 -15 49q0 53 64 81t134 28q76 0 120 -45q39 -42 39 -109z" horiz-adv-x="884"/>
<glyph glyph-name="TamlSSA_TamlvI.abvs" d="M1001 103q0 -13 -13 -29q-12 -18 -25 -18t-55 -13l-28 -7q-23 -6 -32 -6q-42 -288 -65 -344q-11 -26 -28 -26q-25 0 -41 15t-16 37l25 129l28 167q-57 -12 -175 -24q-43 0 -103.5 -4.5t-69.5 -4.5q-157 0 -157 69q0 22 27 54l53 62q43 52 74 108q36 63 36 99q0 40 -33 61 q-16 11 -38 17t-50 6q-100 0 -174 -36t-74 -87q0 -26 -20 -26q-15 0 -27.5 23t-12.5 48q0 85 89 138q85 48 204 48q216 0 216 -172q0 -61 -40 -131q-10 -19 -29 -45.5t-45 -58.5q-37 -46 -39 -61q0 -19 71 -19l49 1l47 1h15q53 0 105 7l113 17v43q0 79 -17 120t-64 41 q-65 0 -65 -52q0 -43 20 -75q21 -30 21 -39q0 -15 -10.5 -28t-21.5 -15q-18 0 -46 52q-29 60 -29 125q0 66 38.5 112.5t99.5 46.5q173 0 173 -253v-58q19 0 55 10l44 11q15 0 27 -11q12 -9 13 -25zM995 536q0 -40 -21 -142.5t-34 -103.5q-30 0 -47 11t-19 26q3 8 4 14 q6 20 14 41q20 52 20 107q0 81 -57 81q-20 0 -47.5 -21t-45.5 -48l-22 -44q-9 -21 -20 -21q-18 0 -32 15q-12 15 -12 34q0 60 49 121q60 73 139 73q59 0 97 -45q34 -42 34 -98z" horiz-adv-x="1008"/>
<glyph glyph-name="TamlHA_TamlvI.abvs" d="M1280 294q0 -139 -105 -282q-101 -135 -253 -215q-136 -72 -375 -139q-101 -28 -185.5 -48.5t-197.5 -42.5q-167 -33 -200 -33q-35 0 -35 26q0 22 30 31l300 62q334 79 552 186q341 168 341 368q0 37 -9.5 53.5t-36.5 16.5q-33 0 -125 -98.5t-122 -98.5q-38 0 -68 94 l-23 80q-12 39 -26 40q-30 0 -48 -58q-5 -16 -9.5 -46.5t-9.5 -68.5q-9 -70 -18 -84q-37 -54 -173 -54q-72 0 -125 19q-69 25 -69 73q0 34 74.5 123t74.5 140q0 23 -35 37q-30 10 -65 10q-91 0 -159 -15q-86 -22 -86 -66q0 -6 6 -18.5t6 -18.5q0 -13 -7.5 -23t-19.5 -12 q-28 0 -48 23q-18 26 -18 61q0 71 87 122.5t225 51.5q101 0 165 -41q58 -38 58 -91q0 -47 -57 -128q-16 -22 -42 -53q-16 -19 -48 -56q28 -26 89 -26q50 0 85 7q6 15 12.5 39t10.5 42q12 60 26 88q20 46 62 84q46 38 93 38q41 0 68 -35l31 -87q23 -69 40 -69q12 0 41 39 l56 82q37 51 60 70q38 32 97 32q54 0 83 -41q25 -32 25 -90zM1470 482q0 -116 -45 -375t-69 -320q-8 -20 -17.5 -29.5t-22.5 -9.5q-34 0 -34 31q0 14 36 226q48 294 48 383q0 71 -6 97q-12 53 -56 53q-49 0 -77 -22q-10 -10 -31 -41q-15 -20 -32 -22q-16 0 -31 22 q-4 6 -7 15q-6 16 -6 34q0 46 64 82t136 36q67 0 108.5 -43t41.5 -117z" horiz-adv-x="1475"/>
<glyph glyph-name="TamlSHA_TamlvI.abvs" d="M529 37q0 18 -11 38.5t-33 26.5l-4 -20q0 -22 18 -43q13 -14 26 -16q1 2 2.5 6t1.5 8zM216 101q-27 0 -50.5 -5.5t-53.5 -20.5q10 -40 47 -40q6 1 10 1q20 6 47 65zM266 252q-35 0 -79 -20l-12 -48l79 10zM1258 77q0 -34 -115 -64q0 -31 -14 -90t-21 -91 q-32 -131 -45.5 -157t-36.5 -26q-11 0 -20 12.5t-9 27.5l28 116q29 116 29 188q-93 -15 -189 -15h-25h-20h-16h-13q-46 0 -60 5q-70 12 -70 63l27 71q28 73 28 124q0 42 -10 59q-15 27 -58 27q-108 0 -162 -152q144 -56 144 -166q0 -87 -90 -87q-68 0 -106 63 q-14 25 -20.5 56t-6.5 67h-85l-59 -108q-40 -60 -76 -60q-63 0 -124 44q-58 46 -58 91q0 35 19 54q6 7 45 29q0 31 1.5 54t5.5 55q11 64 26 82q8 10 63 24t93 14q39 0 84.5 -15t52.5 -29l3 -15q0 -26 -43 -137l60 -4q9 101 80 178q78 85 184 85q65 0 103.5 -39t38.5 -97 q0 -71 -25 -139l-38 -93q25 -11 66.5 -17t97.5 -6q33 0 140 10q-9 102 -11 107q-13 58 -59 58q-22 0 -37 -17q-14 -19 -14 -44q0 -20 15 -43q15 -20 15 -29q0 -32 -31 -32q-28 0 -49 46.5t-21 104.5q0 63 41 116.5t102 53.5q65 0 101 -80q27 -67 27 -155v-70q53 17 89 17 q28 0 28 -25zM1290 504q0 -63 -22.5 -158.5t-35.5 -95.5q-24 0 -43 10.5t-21 20.5q0 18 20 67t20 102q0 83 -57 83q-18 0 -49 -20q-25 -18 -44 -45l-23 -44q-10 -21 -20 -22q-12 0 -27.5 12.5t-16.5 27.5q0 75 60 138.5t137 63.5q52 0 87 -42.5t35 -97.5z" horiz-adv-x="1284"/>
<glyph glyph-name="TamlKA_TamlvII.abvs" d="M219 111q-30 0 -51.5 -6t-38.5 -17q26 -40 51 -40q18 0 39 63zM269 257h-83v-72h68zM586 583q0 -70 -69 -120q-56 -40 -98 -40q-44 0 -44 42q0 9 9 21t17 13q65 0 65 35q0 9 -9 15t-25 8q-51 0 -91 -55q-32 -44 -32 -79q0 -23 -8 -32q-5 -8 -27 -14l28 3q55 0 87 -31 q-34 -133 -54 -177q85 -19 143.5 -81.5t58.5 -127.5q0 -51 -34 -92q-37 -46 -87 -46q-61 0 -112.5 40.5t-51.5 85.5q0 13 13 25.5t22 13.5q18 0 55 -20q17 -10 32 -16t25 -6q25 0 25 21q0 30 -44 77t-78 47q-63 -142 -119 -142q-59 0 -114.5 49t-55.5 95q0 49 75 70l-2 23 l-2 30q0 91 19 145q20 11 53 15t89 4q-3 15 -3 38q0 76 39 148q62 109 192 109q47 0 80 -30t33 -64z" horiz-adv-x="545"/>
<glyph glyph-name="TamlNGA_TamlvII.abvs" d="M663 284q13 27 21.5 36.5t19.5 9.5q2 0 14 -2q15 0 21 -8q11 -15 11 -49q0 -37 -16 -152.5t-42 -175.5q-45 -118 -159 -118q-72 0 -128 23q-67 26 -67 69q0 41 50 96q50 50 50 86q0 49 -51 49q-71 0 -101 -70l-43 -103q-27 -55 -42 -56q-14 0 -28 15t-14 31q0 9 41 127 t41 166q0 18 -2 24q-30 0 -69 -12.5t-45 -30.5q3 -13 22 -49q15 -27 15 -50q0 -39 -30 -39q-32 0 -79.5 79.5t-47.5 134.5q0 46 48.5 69t106.5 23q13 0 34.5 1t49.5 4l69 5q74 0 74 -53q0 -39 -53 -160q64 35 129 35q96 0 96 -91q0 -47 -33 -95q-7 -11 -25.5 -32.5 t-47.5 -52.5q3 -13 34 -23t64 -10l28 3q28 34 61 187q2 13 3.5 16l3.5 7q-63 24 -94 82t-31 148q0 58 15.5 105t48.5 89q71 94 183 94q52 0 84 -39q29 -32 29 -82q0 -63 -67 -129.5t-131 -66.5q-37 0 -37 23q0 24 16 34l38 18q50 32 50 84q0 43 -33 43q-25 0 -68 -41 q-52 -54 -52 -126q0 -69 7 -100q12 -52 51 -80q1 3 4 35.5t3 44.5z" horiz-adv-x="767"/>
<glyph glyph-name="TamlCA_TamlvII.abvs" d="M238 110l-25 2q-24 0 -82 -16q0 -15 19 -38t36 -23q32 19 52 75zM285 253q-17 12 -41 12q-26 0 -46 -6v-65h79zM607 586q0 -67 -72 -120q-56 -41 -95 -41q-45 0 -45 42q0 8 10 20.5t18 14.5q63 0 63 35q0 9 -8.5 15t-24.5 8q-75 0 -117 -105l-8 -41q0 -17 -14 -26 q33 -5 56 -13.5t41 -23.5l-46 -164q41 -6 69 -10.5t36 -7.5q58 -15 58 -45q0 -48 -42 -48q-32 0 -159 31q-14 -36 -30 -65.5t-29 -45.5q-38 -43 -90 -43q-44 0 -101 42q-62 47 -62 109q0 44 76 78v59q0 80 28.5 113t105.5 33l42 -2q-3 8 -3 45q0 80 45 150q61 100 184 100 q48 0 81 -30.5t33 -63.5z" horiz-adv-x="539"/>
<glyph glyph-name="TamlNYA_TamlvII.abvs" d="M625 352q32 -15 32 -42q0 -37 -27 -96q-9 -21 -20 -39.5t-24 -35.5q163 -71 163 -219q0 -118 -91 -184q-83 -59 -220 -59q-148 0 -266 89q-159 120 -159 361q0 77 13.5 150.5t41.5 149.5q46 127 117 221q64 85 104 85q24 0 45.5 -24.5t21.5 -52.5q-3 -4 -5 -6 q-6 -6 -17 -15q-25 -21 -49 -48q-69 -85 -120 -199q-64 -142 -64 -247q0 -133 31 -208.5t103 -125.5q91 -64 231 -64q80 0 129 37q54 43 54 120q0 49 -32 88.5t-82 51.5l-62 -102q-45 -70 -60 -70q-37 0 -37 54l34 64q19 37 34.5 67.5t29 64t22.5 67.5t9 57q0 21 -35 21 q-61 0 -119 -32q-73 -37 -79 -96q23 24 55 24q34 0 59 -22q26 -20 26 -50q0 -58 -52 -104q-48 -40 -92 -40q-115 0 -115 107q0 59 31.5 121t85.5 106q45 39 115 62q20 7 47 15t46 11q0 78 12.5 131.5t45.5 95.5q64 81 175 81q59 0 92 -32q28 -25 28 -66q0 -65 -55 -110 q-52 -46 -121 -46q-52 0 -52 33q0 17 12.5 30.5t27.5 13.5q61 0 61 37q0 30 -37 30q-41 0 -74 -37q-47 -53 -47 -161q24 0 40.5 -1.5t38.5 -11.5zM325 62q0 31 -21 31q-15 0 -28 -11t-15 -28q0 -45 20 -45q44 0 44 53z" horiz-adv-x="742"/>
</font>
</defs>
</svg>
