<svg xmlns="http://www.w3.org/2000/svg" width="135" height="400">
  <path fill="none" d="M72 157c-18 22-33 41-22 71 9 25 33 41 46 63 9 15 16 36 7 51-9 17-38 27-29 49"/>
  <path fill="#C1272D" d="M72 155.7C59 172 46 188.2 46.4 210c.3 25.5 18.6 44.2 34.4 62 16 18 35.8 46.5 21.3 70.6-8 14-29 21.6-29 40 0 3.3 1 6.4 2 9.6 0-.7 1-1.7 0-2.5-7-19.3 19-31 28-44.6 12-17 3-40-6-56-13-21-35-36-44.3-60-5.2-13-5.2-26 .4-39 5-11 13.3-21 21-30 .5-.3-.3-2 0-2.3z"/>
  <ellipse cx="66.5" cy="80.4" fill="#21C2F7" ry="75.8" rx="61.9"/>
  <ellipse cx="66.3" cy="80.1" fill="#22C3F7" ry="75.4" rx="61.5"/>
  <ellipse cx="66" cy="79.8" fill="#23C3F7" ry="74.9" rx="61.1"/>
  <ellipse cx="65.8" cy="79.5" fill="#24C4F7" ry="74.5" rx="60.7"/>
  <ellipse cx="65.5" cy="79.2" fill="#25C5F7" ry="74" rx="60.3"/>
  <ellipse cx="65.2" cy="79" fill="#26C5F7" ry="73.6" rx="59.9"/>
  <ellipse cx="65" cy="78.7" fill="#27C6F7" ry="73.2" rx="59.5"/>
  <ellipse cx="64.7" cy="78.4" fill="#28C7F8" ry="72.7" rx="59.1"/>
  <ellipse cx="64.5" cy="78.1" fill="#29C7F8" ry="72.3" rx="58.7"/>
  <ellipse cx="64.2" cy="77.9" fill="#2AC8F8" ry="71.8" rx="58.3"/>
  <ellipse cx="63.9" cy="77.6" fill="#2BC9F8" ry="71.4" rx="58"/>
  <ellipse cx="63.7" cy="77.3" fill="#2CC9F8" ry="71" rx="57.6"/>
  <ellipse cx="63.4" cy="77" fill="#2DCAF8" ry="70.5" rx="57.2"/>
  <ellipse cx="63.2" cy="76.7" fill="#2ECBF8" ry="70.1" rx="56.8"/>
  <ellipse cx="62.9" cy="76.5" fill="#2FCCF8" ry="69.6" rx="56.4"/>
  <ellipse cx="62.6" cy="76.2" fill="#30CCF8" ry="69.2" rx="56"/>
  <ellipse cx="62.4" cy="75.9" fill="#31CDF8" ry="68.8" rx="55.6"/>
  <ellipse cx="62.1" cy="75.6" fill="#32CEF8" ry="68.3" rx="55.2"/>
  <ellipse cx="61.9" cy="75.3" fill="#33CEF8" ry="67.9" rx="54.8"/>
  <ellipse cx="61.6" cy="75.1" fill="#34CFF8" ry="67.5" rx="54.5"/>
  <ellipse cx="61.3" cy="74.8" fill="#35D0F8" ry="67" rx="54.1"/>
  <ellipse cx="61.1" cy="74.5" fill="#36D0F9" ry="66.6" rx="53.7"/>
  <ellipse cx="60.8" cy="74.2" fill="#37D1F9" ry="66.1" rx="53.3"/>
  <ellipse cx="60.6" cy="74" fill="#38D2F9" ry="65.7" rx="52.9"/>
  <ellipse cx="60.3" cy="73.7" fill="#39D2F9" ry="65.3" rx="52.5"/>
  <ellipse cx="60" cy="73.4" fill="#3AD3F9" ry="64.8" rx="52.1"/>
  <ellipse cx="59.8" cy="73.1" fill="#3BD4F9" ry="64.4" rx="51.7"/>
  <ellipse cx="59.5" cy="72.8" fill="#3CD4F9" ry="63.9" rx="51.3"/>
  <ellipse cx="59.3" cy="72.6" fill="#3DD5F9" ry="63.5" rx="50.9"/>
  <ellipse cx="59" cy="72.3" fill="#3DD6F9" ry="63.1" rx="50.6"/>
  <ellipse cx="58.7" cy="72" fill="#3ED6F9" ry="62.6" rx="50.2"/>
  <ellipse cx="58.5" cy="71.7" fill="#3FD7F9" ry="62.2" rx="49.8"/>
  <ellipse cx="58.2" cy="71.5" fill="#40D8F9" ry="61.7" rx="49.4"/>
  <ellipse cx="58" cy="71.2" fill="#41D8F9" ry="61.3" rx="49"/>
  <ellipse cx="57.7" cy="70.9" fill="#42D9F9" ry="60.9" rx="48.6"/>
  <ellipse cx="57.4" cy="70.6" fill="#43DAFA" ry="60.4" rx="48.2"/>
  <ellipse cx="57.2" cy="70.3" fill="#44DAFA" ry="60" rx="47.8"/>
  <ellipse cx="56.9" cy="70.1" fill="#45DBFA" ry="59.5" rx="47.4"/>
  <ellipse cx="56.7" cy="69.8" fill="#46DCFA" ry="59.1" rx="47"/>
  <ellipse cx="56.4" cy="69.5" fill="#47DCFA" ry="58.7" rx="46.7"/>
  <ellipse cx="56.1" cy="69.2" fill="#48DDFA" ry="58.2" rx="46.3"/>
  <ellipse cx="55.9" cy="69" fill="#49DEFA" ry="57.8" rx="45.9"/>
  <ellipse cx="55.6" cy="68.7" fill="#4ADFFA" ry="57.3" rx="45.5"/>
  <ellipse cx="55.4" cy="68.4" fill="#4BDFFA" ry="56.9" rx="45.1"/>
  <ellipse cx="55.1" cy="68.1" fill="#4CE0FA" ry="56.5" rx="44.7"/>
  <ellipse cx="54.8" cy="67.8" fill="#4DE1FA" ry="56" rx="44.3"/>
  <ellipse cx="54.6" cy="67.6" fill="#4EE1FA" ry="55.6" rx="43.9"/>
  <ellipse cx="54.3" cy="67.3" fill="#4FE2FA" ry="55.1" rx="43.5"/>
  <ellipse cx="54.1" cy="67" fill="#50E3FA" ry="54.7" rx="43.2"/>
  <ellipse cx="53.8" cy="66.7" fill="#51E3FB" ry="54.3" rx="42.8"/>
  <ellipse cx="53.5" cy="66.4" fill="#52E4FB" ry="53.8" rx="42.4"/>
  <ellipse cx="53.3" cy="66.2" fill="#53E5FB" ry="53.4" rx="42"/>
  <ellipse cx="53" cy="65.9" fill="#54E5FB" ry="52.9" rx="41.6"/>
  <ellipse cx="52.8" cy="65.6" fill="#55E6FB" ry="52.5" rx="41.2"/>
  <ellipse cx="52.5" cy="65.3" fill="#56E7FB" ry="52.1" rx="40.8"/>
  <ellipse cx="52.2" cy="65.1" fill="#57E7FB" ry="51.6" rx="40.4"/>
  <ellipse cx="52" cy="64.8" fill="#58E8FB" ry="51.2" rx="40"/>
  <ellipse cx="51.8" cy="65.3" fill="#59E8FB" ry="50.9" rx="39.8" transform="translate(.13 -.794)"/>
  <ellipse cx="51.6" cy="65.9" fill="#5AE8FB" ry="50.6" rx="39.6" transform="translate(.26 -1.587)"/>
  <path fill="#5BE8FB" d="M91 64.4c0 27.8-17.8 50.3-39.5 50.3S12 92 12.2 64.2C12.2 36.2 30 14 51.8 14S91 36.5 91 64.3z"/>
  <path fill="#5CE9FB" d="M90.7 64.3c0 27.7-17.8 50-39.4 50-21.6-.2-39-22.7-39-50.3 0-27.7 17.8-50 39.4-50s39 22.6 39 50.3z"/>
  <path fill="#5DE9FB" d="M90.4 64.2C90.2 91.7 72.7 114 51 113.8c-21.4 0-38.7-22.5-38.6-50C12.6 36 30.2 14 51.7 14c21.5 0 38.8 22.5 38.7 50z"/>
  <path fill="#5EE9FB" d="M90 64c0 27.4-17.6 49.5-39 49.3S12.3 91 12.5 63.5c.2-27.3 17.7-49.4 39-49.2S90.3 36.7 90.2 64z"/>
  <path fill="#5FE9FB" d="M89.7 64c-.2 27.2-17.6 49-39 49-21.2-.3-38.3-22.5-38-49.7 0-27.2 17.6-49 39-49C73 14.5 90 36.7 89.7 64z"/>
  <path fill="#60E9FB" d="M89.4 63.8c-.2 27-17.6 49-38.8 48.7-21.2-.2-38-22.3-38-49.4.4-27 17.7-48 39-48 21 0 38 23 37.8 50z"/>
  <path fill="#61E9FB" d="M89 63.7c-.2 27-17.5 48.6-38.6 48.3s-38-22.2-37.6-49c.3-27 17.6-48.6 38.6-48.4 21 .2 38 22.2 37.7 49z"/>
  <path fill="#62EAFB" d="M88.8 63.6c-.4 26.8-17.6 48.2-38.5 48-21-.2-37.7-22-37.4-49 0-26.6 17-48 38-48 21 .4 37 22.2 37 49z"/>
  <path fill="#63EAFB" d="M88.4 63.5C88 90 71 111.5 50 111.2c-20.7-.3-37.3-22-37-48.7.3-26.6 17.5-48 38.3-47.7 20.8.3 37.5 22 37 48.7z"/>
  <path fill="#64EAFB" d="M88 63.4c-.3 26.4-17.4 47.6-38 47.3-20.8-.3-37.3-22-37-48.4.5-26.5 17.5-47.7 38.3-47.4C72 15 88.5 37 88 63z"/>
  <path fill="#65EAFB" d="M87.8 63.2c-.4 26.3-17.4 47.4-38 47-20.6-.2-37-21.8-36.6-48 .4-26.4 17.4-47.5 38-47.2s37 22 36.6 48.2z"/>
  <path fill="#66EAFB" d="M87.4 63C87 89.4 70 110.3 49.6 110 29 109.4 13 88 13.3 62c.4-26.4 17.4-47.3 37.7-47 20.6.3 37 21.8 36.4 48z"/>
  <path fill="#67EAFB" d="M87 63c-.3 26-17.2 46.8-37.6 46.4C29 109 13 87.7 13.4 61.7c.4-26 17.3-46.8 37.7-46.4C72 15.6 88 37 87 63z"/>
  <path fill="#68EAFB" d="M86.8 63c-.5 25.7-17.3 46.4-37.5 46C29 108.6 13 87.3 13.5 61.5c.5-26 17.3-46.5 37.5-46C71.3 15.8 87.3 37 86.8 63z"/>
  <path fill="#69EBFB" d="M86.5 62.8C86 88.5 69.2 109 49 108.5S13 87 13.7 61.3C14 35.6 30.7 15 51 15.5S87 37 86.5 62.8z"/>
  <path fill="#6AEBFB" d="M86 62.7c-.4 25.5-17 46-37 45.4-20 0-36-21-35.3-47C14.2 36 31 16 51 16c20 .4 35.7 21.5 35 47z"/>
  <path fill="#6BEBFB" d="M85.8 62.5c-.6 25.4-17.2 45.6-37 45.2-20-.5-35.6-21.5-35-47 .5-25.2 17-45.5 37-45s35.6 21.4 35 46.8z"/>
  <path fill="#6CEBFB" d="M85.5 62.4c-.6 25.3-17.2 45.3-37 44.8S13.5 86 14 60.6c.5-25.2 17-45.3 36.8-44.8 19.8.5 35.3 21.4 34.7 46.6z"/>
  <path fill="#6DEBFB" d="M85.2 62.3c-.7 25-17 45-36.8 44.5-19.7-.5-35-21.3-34.4-46.4.6-25 17-45 36.7-44.5 19.7 0 35 21 34.5 46z"/>
  <path fill="#6EEBFA" d="M84.8 62.2c-.6 25-17 44.7-36.6 44.2-19.5-.6-34.8-21.2-34-46.2.5-25 17-44.7 36.5-44.2 19.5.6 34.8 21.2 34 46.2z"/>
  <path fill="#6FECFA" d="M84.5 62c-.7 25-17 44.5-36.4 44S14 84.7 15 60c.7-24.8 17-44.4 36.4-43.8s34.6 21 34 46z"/>
  <path fill="#70ECFA" d="M84.2 62c-.8 24.6-17 44-36.3 43.5-20-.6-35-21-34-45.7 1-24.6 17-44 36-43.5 19 .7 35 21 34 45.7z"/>
  <path fill="#71ECFA" d="M84 61.8c-1 24.5-17 44-36.3 43.3-19.2 0-34-21-33.4-45 .8-24 17-44 36.2-43 19.2 1 34 21 33.5 46z"/>
  <path fill="#72ECFA" d="M83.5 61.7c-.8 24.3-17 43.6-36 43s-34-21-33-45.3c.7-24.3 16.8-43.5 36-43 19 .7 33.8 21 33 45.3z"/>
  <path fill="#73ECFA" d="M83.2 61.6c-.8 24.2-17 43.2-35.8 42.6-19-.7-33.7-20.8-33-45 1-24.2 17-43.3 36-42.6s33.6 20.8 32.8 45z"/>
  <path fill="#74ECFA" d="M83 61.5c-1 24-17 43-35.8 42.3C28.4 103 13.8 83 14.6 59c1-24 17-43 35.7-42.3C69 17.4 83.7 37.4 83 61.5z"/>
  <path fill="#75ECFA" d="M82.5 61.4c-.8 23.8-16.7 42.6-35.5 42S13.8 82.6 14.7 58.7s16.8-42.7 35.5-42c18.8.7 33.2 20.7 32.3 44.6z"/>
  <path fill="#76EDFA" d="M82.2 61.2C81.2 85 65.5 103.6 47 103c-18.7-1-33-20.7-32.2-44.4 1-23.8 16.8-42.4 35.4-41.7s33 20 32 44z"/>
  <path fill="#77EDFA" d="M82 61c-1 23.7-16.8 42.2-35.3 41.4C28.2 101.7 14 82 15 58.4c1-23.6 16.6-42 35-41.4 18.6.8 32.8 20.5 32 44z"/>
  <path fill="#78EDFA" d="M81.6 61c-1 23.4-16.7 41.8-35 41S14 81.6 15 58.2c1-23.5 16.7-41.8 35-41S82.6 37.6 81.7 61z"/>
  <path fill="#79EDFA" d="M81.2 61c-1 23.2-16.6 41.4-34.8 40.6C28 100.8 14 81.2 15 58c1-23.3 16.7-41.5 35-40.7C68.3 18 82.2 37.6 81.2 61z"/>
  <path fill="#7AEDFA" d="M81 60.8c-1 23-16.8 41.2-35 40.2-18.2-.7-32-20-31-43.3 1-23 16.6-41.2 34.7-40.3s32 20.2 31 43.4z"/>
  <path fill="#7BEDFA" d="M80.6 60.7c-1 23-16.6 41-34.6 40S14.2 80.5 15.3 57.5c1-23 16.6-41 34.6-40s31 20.2 30 43.2z"/>
  <path fill="#7CEEFA" d="M80.3 60.5c-1 23-16.6 40.6-34.5 39.8-18-1-31.5-20-30.4-43 1-22.8 16.5-40.6 34.4-39.7 18 1 31.6 20 30.5 43z"/>
  <path fill="#7DEEFA" d="M80 60.4C78.7 83 63.4 100.7 45.6 99.8c-17.8-1-31.3-20-30.2-42.7 1-22 16.6-40 34.4-39 17.7 1 31.2 20 30 43z"/>
  <path fill="#7EEEFA" d="M79.6 60.3c-1.2 22.5-16.4 40-34 39-17.8-.8-31.2-20-30-42.4 1.2-23 16.4-40 34-40s31.2 20 30 42z"/>
  <path fill="#7FEEFA" d="M79.3 60.2C78 82.6 63 100 45.3 99c-17.5-1-30.8-20-29.6-42.3C17 34.3 32 17 49.7 18 67 19 80.4 37.7 79.2 60z"/>
  <path fill="#80EEFA" d="M79 60c-1.3 22.3-16.4 39.5-33.8 38.5-17.5-1-30.6-19.8-29.4-42C17 34.3 32 17 49.6 18 67 19 80.2 38 79 60z"/>
  <path fill="#81EEFA" d="M78.6 60C77.4 82 62.3 99 45 98S14.6 78.5 16 56.4c1-22 16.2-39 33.5-38S80 38 78.5 60z"/>
  <path fill="#82EFFA" d="M78.3 59.8c-1.3 22-16.3 39-33.5 37.8C27.6 96.6 14.8 78 16 56c1.3-21.8 16.2-38.8 33.5-37.7s30 19.6 28.8 41.5z"/>
  <path fill="#83EFFA" d="M78 59.7c-1.3 21.8-16.3 38.6-33.4 37.5-17-1-29.8-19.6-28.5-41.3 2-22 17-39 34-38s30 19 29 41z"/>
  <path fill="#84EFFA" d="M77.6 59.6c-1.3 21.6-16 38.3-33 37.2-17-1-29.8-19.5-28.4-41 1.3-21.7 16.2-38.4 33-37.3S79 38 77.7 59.5z"/>
  <path fill="#85EFFA" d="M77.3 59.5c-1.4 21.4-16 38-33 36.8-17-1-29.4-19.4-28-40.8 1.3-21.5 16-38 33-37 16.8 1.2 29.4 19.5 28 41z"/>
  <path fill="#86EFFA" d="M77 59.4C75.6 80.7 61 97 44 96c-16.6-1.2-29-19.4-27.6-40.7 1.4-21.4 16-37.7 32.8-36.6C66 20 78.4 38 77 59.4z"/>
  <path fill="#87EFFA" d="M76.7 59.2c-1.5 21.2-16 37.4-32.7 36.3C27.3 94.3 15 76.2 16.5 55c1.5-21 16-37.2 32.7-36 16.6 1 29 19 27.5 40.2z"/>
  <path fill="#88EFFA" d="M76.3 59c-1.4 21-16 37.2-32.5 36C27.3 93.8 15 76 16.6 54.8c1.4-21 16-37 32.5-36 17 1.4 29 19.4 28 40.4z"/>
  <path fill="#89F0FA" d="M76 59c-1.5 21-16 36.8-32.4 35.6s-28.4-19-27-40C18 33.8 32.6 18 49 19c16.4 1.3 28.5 19 27 40z"/>
  <path fill="#8AF0FA" d="M75.7 59c-1.5 20.6-16 36.4-32.2 35.2-16.3-1.3-28.3-19-26.8-39.8C18.3 33.7 32.7 18 49 19.2c16.3 1.2 28.2 19 26.7 39.7z"/>
  <path fill="#8BF0FA" d="M75.4 58.8c-1.6 20.5-16 36.2-32 35-16.3-1.3-28-19-26.6-39.6s16-36.2 32-35c16.3 1.3 28 19 26.6 39.6z"/>
  <path fill="#8CF0FA" d="M75 58.6c-1.6 20.5-15.8 36-32 34.7S15.5 74.3 17 54c1.5-20.4 15.8-36 32-34.6 16 1.3 27.6 18.8 26 39.2z"/>
  <path fill="#8DF0FA" d="M74.7 58.5C73 78.8 59 94 43 92.8c-16-1.3-27.6-18.7-26-39 1.6-20.2 16-35.6 31.8-34.3 16 1.3 27.5 18.8 26 39z"/>
  <path fill="#8EF0FA" d="M74.4 58.4c-1.7 20-15.8 35.3-31.6 34C27 91 15.5 73.7 17 53.6c1.8-20 16-35.3 31.7-34C64.5 21 76 38.3 74.4 58.4z"/>
  <path fill="#8FF1FA" d="M74 58.3c-1.6 20-15.7 35-31.4 33.7s-27-18.6-25.4-38.6c1.7-20 15.8-35 31.5-33.7s27 18.6 25.3 38.6z"/>
  <path fill="#90F1FA" d="M73.7 58.2C72 78 58 93 42.4 91.5 27 90.2 15.6 73 17.4 53.2 19 33.4 33 18.5 48.4 19.8c15.7 1.4 27 18.6 25 38.4z"/>
  <path fill="#91F1FA" d="M73.4 58c-1.7 19.7-15.7 34.5-31 33-15.6-1.3-26.7-18.4-25-38C19.2 33.3 33 18.5 48.6 20 64 21.2 75 38.3 73.4 58z"/>
  <path fill="#92F1FA" d="M73 58c-1.7 19.4-15.6 34-31 32.7s-26.3-18.4-24.5-38 15.7-34 31-32.6C63.8 22 74.8 39 73 58z"/>
  <path fill="#93F1FA" d="M72.7 57.8C71 77.2 57 91.8 42 90.2 26.6 88.8 15.7 72 17.5 52.6c1.8-19.4 15.6-34 30.8-32.4 15.3 1.4 26 18.3 24.3 37.6z"/>
  <path fill="#94F1FA" d="M72.4 57.7C70.6 77 57 91.3 41.7 89.7c-15-1.4-25.8-18-24-37.3 1.8-19.2 15.6-33.6 30.7-32 15 1.4 25.8 18 24 37.3z"/>
  <path fill="#95F1FA" d="M72 57.6c-1.8 19-15.4 33.3-30.4 31.8C26.6 88 16 71.2 17.8 52.2S33.3 19 48.3 20.4 74 38.4 72 57.6z"/>
  <path fill="#96F2FA" d="M71.8 57.5c-2 19-15.5 33-30.4 31.4C26.4 87 16 70 18 52c1.8-19 15.4-33 30.3-31.5 14.8 1.5 25.4 18 23.5 37z"/>
  <path fill="#97F2FA" d="M71.4 57.4C69.4 76 56 90 41.2 88.4c-14.7-1.5-25-18-23.2-36.7C20 33 33.4 19 48.2 20.7 63 22 73.4 38.7 71.4 57.3z"/>
  <path fill="#98F2FA" d="M71 57.2C69.3 75.8 55.8 89.6 41 88c-14.6-1.5-25-18-23-36.5s15.5-32.3 30-30.8c14.8 1.6 25 18 23 36.5z"/>
  <path fill="#99F2F9" d="M70.8 57c-2 18.6-15.4 32.2-30 30.6C26.5 86 16.3 69.8 18.3 51.3c2-18.4 15.4-32 30-30.5S73 38.8 71 57z"/>
  <path fill="#9AF2F9" d="M70.5 57c-2 18.3-15.4 31.8-29.8 30.2-14.4-1.6-24.4-17.8-22.4-36 2-18.4 15.3-32 29.7-30.3 14.4 1 24.5 17 22.5 36z"/>
  <path fill="#9BF2F9" d="M70 57c-2 18-15 31.3-29.3 29.6C26.3 85 16.3 69 18.4 51c2-18.2 15.3-31.6 29.6-30s24.2 17.7 22 36z"/>
  <path fill="#9CF3F9" d="M69.8 56.8c-2 18-15.2 31.2-29.4 29.5-14.2-1.7-24-17.6-22-35.6S33.8 19.5 48 21.2c14 1.6 24 17.6 21.8 35.6z"/>
  <path fill="#9DF3F9" d="M69.5 56.6c-2 18-15.2 31-29.3 29.3-14-2-23.7-18-21.6-36 2-18 15.2-31 29.2-29 14 1 23.8 17 21.7 35z"/>
  <path fill="#9EF3F9" d="M69 56.5c-2 17.7-15 30.6-29 29-14-2-23.5-17.5-21.3-35.3 2-17.7 15-30.6 29-29C61.7 23 71.3 38.7 69 56.4z"/>
  <path fill="#9FF3F9" d="M68.8 56.4c-2 17.5-15 30.3-29 28.6C26 83.2 16.8 67.6 19 50c2-17.4 15-30.2 29-28.5s23.2 17.4 21 35z"/>
  <path fill="#A0F3F9" d="M68.5 56.3c-2.2 17.4-15 30-28.8 28.3C26 82.8 16.7 67.3 19 50s15-30 28.7-28.4c13.7 1.8 23 17.3 20.8 34.7z"/>
  <path fill="#A1F3F9" d="M68.2 56.2c-2.3 17.2-15 29.7-28.7 28C26 82 16.7 66.8 19 49.6s15-29.8 28.6-28c13.6 2 22.8 17.4 20.6 34.6z"/>
  <path fill="#A2F3F9" d="M67.8 56c-2.2 17-15 29.5-28.4 27.7C26 82 16.8 66.5 19 49.5c2.3-17 15-29.5 28.5-27.7C61 23.8 70 39 67.8 56z"/>
  <path fill="#A3F4F9" d="M67.5 56c-2.3 17-15 29-28.3 27.2s-22.3-17-20-34c2.2-17 15-29 28.3-27.2s22.3 17 20 34z"/>
  <path fill="#A4F4F9" d="M67.2 55.8c-2.3 16.8-15 29-28.2 27S17 65.8 19.2 49c2.4-16.7 15-28.8 28.2-27 13.3 2 22 17 19.8 33.8z"/>
  <path fill="#A5F4F9" d="M67 55.7c-2.5 16.6-15 28.6-28.2 26.7-13-2-21.8-17-19.5-33.5 2.4-17 15-29 28-27s22 17 19.7 33z"/>
  <path fill="#A6F4F9" d="M66.5 55.6C64.2 72 51.7 84 38.7 82S17 65 19.4 48.5c2.4-16.4 15-28.2 28-26.3 13 2 21.5 16.8 19 33.3z"/>
  <path fill="#A7F4F9" d="M66.2 55.5c-2.4 16.3-14.8 28-27.7 26-13-2-21.4-16.7-19-33 2.4-16.4 14.8-28 27.7-26 13 1.8 21.4 16.6 19 33z"/>
  <path fill="#A8F4F9" d="M66 55.3C63.3 71.5 51 83 38.2 81c-12.7-2-21-16.6-18.7-32.8S34.3 20.5 47 22.5s21 16.7 19 32.8z"/>
  <path fill="#A9F5F9" d="M65.6 55.2c-2.5 16-14.8 27.4-27.4 25.4-12.7-2-21-16.6-18.5-32.6S34.5 20.6 47 22.6s21 16.6 18.6 32.6z"/>
  <path fill="#AAF5F9" d="M65.2 55C62.7 71 50.5 82.3 38 80.3S17.3 63.7 19.8 47.8c2.5-16 14.7-27 27.3-25C60 24.8 68 39 66 55z"/>
  <path fill="#ABF5F9" d="M65 55c-2.7 15.7-15 26.8-27.3 24.8-12.4-2-20.4-16.5-18-32.2C22.5 32 34.7 20.8 47 22.8c12.4 2 20.4 16.5 18 32.2z"/>
  <path fill="#ACF5F9" d="M64.6 55C62 70.3 50 81.3 37.6 79.2c-12.3-2-20.2-16.3-17.6-32S34.6 21 47 23s20 16.3 17.6 32z"/>
  <path fill="#ADF5F9" d="M64.2 54.8c-2.5 15.4-14.5 26.2-26.7 24-12.2-2-20-16.2-17.4-31.6 3-15.4 15-26.2 27-24C59 25 67 39 64 54.7z"/>
  <path fill="#AEF5F9" d="M64 54.6c-2.7 15.3-14.6 26-26.7 24-12-2.3-19.7-16.3-17-31.6 2.5-15.3 14.4-26 26.5-23.8 12 2 19.7 16.2 17 31.4z"/>
  <path fill="#AFF5F9" d="M63.6 54.5C61 69.5 49 80.2 37 78c-11.8-2-19.4-16-16.7-31.2s14.5-25.6 26.5-23.5c12 2 19.4 16 16.8 31.2z"/>
  <path fill="#B0F6F9" d="M63.3 54.4c-2.7 15-14.5 25.3-26.3 23.2-12-2.2-19.3-16-16.6-31C23 31.6 35 21.2 46.7 23.4s19.3 16 16.6 31z"/>
  <path fill="#B1F6F9" d="M63 54.3C60 69 48.4 79.3 36.7 77c-11.7-2-19-15.8-16.3-30.6 2.7-14.8 14.4-25 26-23 12 2.3 19.2 16 16.4 31z"/>
  <path fill="#B2F6F9" d="M62.6 54.2C60 68.8 48.2 79 36.6 76.7c-11.6-2.2-18.8-16-16-30.5 2.7-14.7 14.4-24.8 26-22.6 11.6 2.2 18.8 16 16 30.6z"/>
  <path fill="#B3F6F9" d="M62.3 54C59.5 68.7 48 78.6 36.5 76.4 25 74 18 60.4 20.7 46 23.5 31.5 35 21.5 46.5 23.7 58 26 65 39.5 62.3 54z"/>
  <path fill="#B4F6F9" d="M62 54c-2.8 14.3-14.3 24-25.7 21.8C25 73.6 18 60 20.8 45.8c2.8-14.4 14.3-24.2 25.7-22C57.8 26 64.8 39.6 62 53.8z"/>
  <path fill="#B5F6F9" d="M61.6 53.8C58.8 68 47.4 77.8 36 75.4c-11-2.3-18-15.7-15-30 2.7-14 14-23.7 25.4-21.4 11.2 2.2 18 15.6 15.2 29.8z"/>
  <path fill="#B6F7F9" d="M61.3 53.7C58.3 67.7 47 77.3 36 75c-11.2-2.3-18-15.6-15-29.7 2.8-14 14.2-23.5 25.3-21.2s18 16 15 30z"/>
  <path fill="#B7F7F9" d="M61 53.6c-3 14-14.2 23.3-25.2 21C24.8 72 18.2 59 21 45c3-13.8 14.3-23 25.3-20.8C57.3 26.5 64 39.7 61 53.6z"/>
  <path fill="#B8F7F9" d="M60.7 53.5c-3 13.7-14.2 23-25 20.6C24.7 72 18 59 21 45s14-23 25-20.7c11 2.4 17.4 15.4 14.5 29.2z"/>
  <path fill="#B9F7F9" d="M60.3 53.3c-3 13.6-14 22.7-25 20.4-10.7-2.4-17-15.4-14-29s14-22.7 25-20.3c10.6 2.4 17 15.3 14 29z"/>
  <path fill="#BAF7F9" d="M60 53.2c-3 13.5-14 22.4-24.7 20-10.7-2.4-17-15.2-14-28.7s14-22.4 24.8-20C57 27 63 39.8 60 53.2z"/>
  <path fill="#BBF7F9" d="M59.7 53c-3 13.4-14 22.2-24.6 19.8-10-2.5-16-15.2-13-28.5s14-22 25-19.7C57 27 63 39.8 60 53z"/>
  <path fill="#BCF8F9" d="M59.3 53c-3 13-14 21.8-24.4 19.3C24 70 18 57.3 21 44c3-13 14-21.7 24.5-19.3S62.2 39.7 59 53z"/>
  <path fill="#BDF8F9" d="M59 53c-3 13-14 21.4-24.2 19-10.4-2.6-16.2-15-13.2-28s14-21.6 24.3-19c10 2.2 16 15 13 28z"/>
  <path fill="#BEF8F9" d="M58.7 52.8c-3 12.8-14 21.2-24 18.7-10.3-2.5-16-15-13-27.8C25 30.7 35.7 22.5 46 25c10 2.5 15.8 15 12.7 27.8z"/>
  <path fill="#BFF8F9" d="M58.4 52.6c-3.2 12.7-14 21-24 18.4-10-2.5-15.7-14.8-12.6-27.5 3.2-12.7 14-21 24-18.4 10 3 15.7 15 12.6 28z"/>
  <path fill="#C0F8F9" d="M58 52.5c-3 12.6-13.8 20.7-23.8 18C24.2 68 18.8 56 22 43.5c3-12.7 13.8-20.8 23.7-18 10 2 15.5 14.5 12.3 27z"/>
  <path fill="#C1F8F9" d="M57.7 52.4C54.5 64.8 44 72.7 34 70.2c-9.8-2.6-15.2-14.8-12-27 3.2-12.5 13.8-20.5 23.7-18C55.5 28 61 40 57.7 52.5z"/>
  <path fill="#C2F8F9" d="M57.4 52.3c-3.2 12.2-13.8 20-23.5 17.4C24 67 19 55 22 43s14-20.2 23.6-17.6c9.7 2.6 15 14.6 11.8 27z"/>
  <path fill="#C3F9F9" d="M57 52.2c-3.2 12-13.6 19.7-23.3 17C24 66.8 19 54.8 22.2 42.7c3.3-12 13.7-19.7 23.4-17C55.2 28 60.3 40 57 52z"/>
  <path fill="#C4F9F8" d="M56.7 52c-3.3 12-13.6 19.5-23 17C24 66 19 54.3 22.2 42.3 25.6 30.3 36 23 45.5 25.6 55 28.3 60 40 56.7 52z"/>
  <path fill="#C5F9F8" d="M56.4 52c-3.3 11.7-13.6 19-23 16.4C24 65.7 19 54 22.4 42.2c3.3-11.8 13.6-19 23-16.5S59.7 40 56.4 52z"/>
  <path fill="#C6F9F8" d="M56 51.8c-3.3 11.6-13.5 19-22.8 16.2-9.3-2.7-14-14.3-10.7-26C26 30.4 36 23.2 45.5 26c9 2.6 14 14.2 10.6 25.8z"/>
  <path fill="#C7F9F8" d="M55.8 51.7C52.4 63.2 42.2 70.3 33 67.5c-9-2.7-13.8-14.2-10.4-25.7C26 30.3 36.2 23.2 45.3 26c9.2 2.7 13.8 14.2 10.5 25.7z"/>
  <path fill="#C8F9F8" d="M55.4 51.6C52 63 42 70 33 67c-9.2-2.6-13.7-14-10.3-25.4C26 30.3 36.2 23.3 45.3 26c9 2.8 13.5 14.2 10 25.6z"/>
  <path fill="#C9FAF8" d="M55 51.5c-3.3 11-13.4 18-22.3 15.2-9-2.8-13.4-14-10-25.3s13.6-18 22.5-15.2 13.3 14 10 25.3z"/>
  <path fill="#CAFAF8" d="M54.8 51.3c-3.5 11-13.5 17.7-22.3 15-8.8-3-13-14-9.6-25 3-11 13-17.8 22-15 9 2.8 13 14 9 25z"/>
  <path fill="#CBFAF8" d="M54.4 51.2c-3.5 11-13.3 17.4-22 14.6-8.7-2.8-13-14-9.4-24.8 3.5-11 13.4-17.4 22-14.6s13 14 9.4 24.8z"/>
  <path fill="#CCFAF8" d="M54 51c-3.3 11-13 17.3-21.7 14.5-8.6-3-12.7-14-9-24.6S36.5 24 45 26c8.7 3 12.8 14 9 24.6z"/>
  <path fill="#CDFAF8" d="M53.8 51C50.2 61.6 40.5 67.8 32 65c-8.4-3-12.4-13.8-8.8-24.4C26.7 30 36.5 23.8 45 26.6c8.4 3 12.4 13.8 8.8 24.4z"/>
  <path fill="#CEFAF8" d="M53.5 51C50 61.2 40.2 67.3 32 64.4c-8.5-3-12.3-13.7-8.7-24S36.6 23.7 45 26.6c8.2 3 12 13.7 8.5 24.2z"/>
  <path fill="#CFFAF8" d="M53 50.8C49.6 61 40 67 31.8 64s-12-13.6-8.3-23.8C27 30 36.5 24 44.8 27s12 13.5 8.3 23.8z"/>
  <path fill="#D0FBF8" d="M52.8 50.6c-3.6 10.2-13.2 16-21.3 13-8-3-11.7-13.5-8-23.6C27 29.8 36.7 24 44.8 27c8 3 11.7 13.5 8 23.6z"/>
  <path fill="#D1FBF8" d="M52.5 50.5c-3.7 10-13.2 15.7-21.2 12.7S20 49.7 23.6 39.7s13-15.6 21-12.6 11.6 14 8 24z"/>
  <path fill="#D2FBF8" d="M52.2 50.4c-3.8 9.8-13.2 15.3-21 12.3-8-3-11.3-13.3-7.5-23.2 3.7-9.8 13-15.3 21-12.3 7.8 3 11.2 13.4 7.5 23.2z"/>
  <path fill="#D3FBF8" d="M51.8 50.3c-3.7 9.6-13 15-20.8 12-7.8-3-11-13.3-7.2-23 3.7-9.6 13-15 20.8-12 7.7 3 11 13.3 7.2 23z"/>
  <path fill="#D4FBF8" d="M51.5 50.2C47.7 59.7 38.5 65 30.8 62c-7.6-3.2-10.7-13.4-7-23 3.8-9.4 13-14.6 20.7-11.6 7.7 3 10.8 13.2 7 22.8z"/>
  <path fill="#D5FBF8" d="M51.2 50c-3.8 9.4-13 14.5-20.5 11.4C23 58.4 20 48.4 24 39c3.8-9.4 13-14.5 20.5-11.5S55 40.7 51.2 50z"/>
  <path fill="#D6FCF8" d="M51 50c-4 9-13 14-20.5 11S20.2 48 24 38.7c4-9.2 13-14.2 20.4-11 7.4 3 10.3 13 6.5 22.2z"/>
  <path fill="#D7FCF8" d="M50.5 49.8c-3.8 9-13 14-20.2 10.8-7.3-3.2-10-13-6.2-22 4-9.2 13-14 21-10.8 7 3 10 13 6 22z"/>
  <path fill="#D8FCF8" d="M50.2 49.7c-4 9-13 13.6-20 10.4-7.2-3-10-12-6-21s13-13 20-10c7.3 3 10 13 6 22z"/>
  <ellipse cx="74.2" cy="317" fill="#D9FCF8" ry="17.4" rx="14" transform="rotate(24.19 693.168 93.897)"/>
  <ellipse cx="73" cy="313.8" fill="#DAFCF8" ry="17.2" rx="13.8" transform="rotate(23.893 693.068 93.785)"/>
  <path fill="#DBFCF8" d="M49.5 49.2c-3.7 8.6-12.4 13-19.3 10-7-3-9.5-12.3-5.7-21 3.7-8.5 12.3-13 19.3-10s9.4 12.4 5.7 21z"/>
  <path fill="#DCFCF9" d="M49.3 49c-3.6 8.6-12.2 13-19 10-6.8-2.8-9.4-12-5.8-20.6 3.7-8.5 12.2-13 19-10s9.5 12 5.8 20.6z"/>
  <path fill="#DDFCF9" d="M49 49c-3.4 8.3-11.8 12.8-18.6 10-6.8-3-9.4-12-5.8-20.5 3.5-8.4 12-13 18.7-10 6.8 2.8 9.4 12 5.8 20.4z"/>
  <path fill="#DEFCF9" d="M49 48.7c-3.5 8.4-11.8 13-18.5 10-6.7-2.7-9.3-11.7-6-20 3.6-8.4 12-13 18.6-10 7 2.7 10 11.7 6 20z"/>
  <path fill="#DFFCF9" d="M48.8 48.6c-3.4 8.2-11.5 12.7-18.2 10-6.6-2.7-9.3-11.6-6-20 3.5-8 11.6-12.6 18.2-10 6.7 2.8 9.3 11.7 6 20z"/>
  <path fill="#E0FDF9" d="M48.6 48.4c-3.3 8.2-11.3 12.7-18 10-6.4-2.6-9-11.4-5.8-19.6 3.2-8 11.2-12.6 17.8-10 6.6 2.7 9.2 11.4 6 19.6z"/>
  <path fill="#E1FDF9" d="M48.4 48.2c-3.2 8-11 12.6-17.6 10-6.5-2.5-9.2-11.2-6-19.3 3.2-8 11-13 17.6-10s9.2 11 6 19z"/>
  <path fill="#E2FDFA" d="M48.2 48c-3 8-10.8 12.5-17.3 10s-10-11-6-19c3-8 10-12.4 17-10 6 2.6 9 11 6 19z"/>
  <path fill="#E3FDFA" d="M48 48c-3 7.8-10.6 12.3-17 10-6.3-2.6-9-11-6-19 3-7.8 10.5-12.2 17-9.8 6.3 2.4 9 10.8 6 18.7z"/>
  <path fill="#E4FDFA" d="M47.8 47.7c-3 8-10.3 12.3-16.6 10-6.3-2.4-9-10.6-6.2-18.5 3-7.8 10.4-12.2 16.7-10 6.3 2.5 9 10.7 6 18.5z"/>
  <path fill="#E5FDFA" d="M47.6 47.6c-2.8 7.7-10 12.2-16.3 10C25 55 22.3 47 25 39.3c3-7.8 10.2-12.2 16.4-10 6.3 2.3 9 10.4 6.2 18.2z"/>
  <path fill="#E6FDFA" d="M47.4 47.4c-2.7 7.7-10 12-16 10-6.2-2.3-9-10.3-6.3-18 3-7.6 10-12 17-9.8 6 2.2 9 10 6 17.8z"/>
  <path fill="#E7FDFB" d="M47.3 47.2c-2.7 7.6-9.7 12-15.8 10-6-2.2-9-10-6.3-17.6 2.6-7.6 9.7-12 15.8-10 6 2.2 9 10 6.3 17.6z"/>
  <path fill="#E8FDFB" d="M47 47c-2.5 7.6-9.4 12-15.4 10s-9-9.8-6.3-17.3c2.5-7.5 9.4-12 15.4-10 6 2.2 9 10 6.4 17.4z"/>
  <path fill="#E9FDFB" d="M47 47c-2.5 7.3-9.3 11.7-15.3 9.7s-8.8-9.5-6.4-17c2.4-7.3 9.2-11.7 15.2-9.8 6 2 8.8 9 6.4 17z"/>
  <path fill="#EAFDFB" d="M46.7 46.7c-2.3 7.4-9 11.8-15 10-5.8-2-8.7-9.5-6.3-16.8 2.3-8 9-12 15-10 5.8 2 8.6 9 6.3 16z"/>
  <path fill="#EBFDFB" d="M46.5 46.6c-2.2 7.2-8.8 11.6-14.6 9.8-6-1.8-9-9.2-7-16.4 2-7.3 9-11.6 14-9.8 6 1.8 8 9 6 16.4z"/>
  <path fill="#ECFDFB" d="M46.3 46.4c-2 7.2-8.5 11.5-14.3 9.8-5.7-1.7-8.7-9-6.5-16 2-7.3 8.6-11.6 14.3-10 5.8 1.8 8.7 9 6.5 16.2z"/>
  <path fill="#ECFEFC" d="M46 46.2c-2 7-8.2 11.5-14 9.8-5.6-1.7-8.5-8.7-6.4-15.8 2-7 8.3-11.4 14-9.8 5.7 1.7 8.6 8.8 6.5 15.8z"/>
  <path fill="#EDFEFC" d="M46 46c-2 7-8.2 11.4-13.8 9.8-5.6-1.6-8.5-8.5-6.6-15.5 2-7 8-11.4 13.7-9.8C45 32 48 39 46 46z"/>
  <path fill="#EEFEFC" d="M45.8 46c-2 6.8-8 11.2-13.5 9.6-5.5-1.5-8.5-8.3-6.6-15.2 2-7 8-11.3 13.4-9.7 6 1.5 9 8.3 7 15.3z"/>
  <path fill="#EFFEFC" d="M45.6 45.7c-1.8 7-7.7 11.2-13.2 9.8-5.4-1.5-8.4-8.2-6.7-15s7.7-11.2 13.2-9.7c5 1.4 8 8 6 15z"/>
  <path fill="#F0FEFC" d="M45.4 45.6c-1.7 6.7-7.4 11-12.8 9.7-5.4-1.4-8.5-8-6.8-14.7 1.7-6.7 7.4-11 12.8-9.7 5.4 1 8.4 7 6.8 14z"/>
  <path fill="#F1FEFC" d="M45.2 45.4C43.6 52 38 56.4 32.7 55c-5.4-1.2-8.4-7.6-6.8-14.3 1-6.6 7-11 12-9.7 5 1.3 8 7.8 7 14.4z"/>
  <path fill="#F2FEFD" d="M45 45.2c-1.5 6.6-7 11-12.2 9.7-5.3-2-8.4-8-7-15 1.6-7 7-11 12.4-10 5.2 1 8.3 7 6.8 14z"/>
  <path fill="#F3FEFD" d="M44.8 45c-1.4 6.6-6.7 11-12 9.7-5-1-8.2-7.3-6.8-13.8 1.4-7 6.7-11 12-10 5 1 8.2 7 6.8 14z"/>
  <path fill="#F4FEFD" d="M44.6 45C43.3 51.2 38 55.5 33 54.4c-5-1-8.3-7-7-13.5s6.6-11 11.7-10c5 1 8.2 7 7 13z"/>
  <path fill="#F5FEFD" d="M44.5 44.7C43.2 51 38.2 55.4 33 54.4c-5-1-8-7-7-13.3 1.3-6 6.4-10 11.5-9 5 1 8.2 7 7 13z"/>
  <path fill="#F6FEFD" d="M44.3 44.6c-1 6.2-6 10.5-11 9.6-5-1-8.2-6.7-7-13 1-6.2 6-10.5 11-9.6 5 1 8 6.8 7 13z"/>
  <path fill="#F7FEFE" d="M44 44.4c-1 6.2-5.8 10.4-10.7 9.6s-8-6.5-7-12.7c1-6 5.8-10.4 10.7-9.5 5 .8 8 6.5 7 12.6z"/>
  <path fill="#F8FEFE" d="M44 44.2c-1 6-5.7 10.4-10.6 9.6s-8-6.3-7-12.4c.8-6 5.5-10.3 10.4-9.5 4.8 0 8 6 7 12z"/>
  <path fill="#F9FFFE" d="M43.7 44c-.8 6-5.4 10.3-10.2 9.6-4.8-.7-8-6-7-12 .7-6 5.3-10.3 10-9.6 4.8.7 8 6 7.2 12z"/>
  <path fill="#FAFFFE" d="M43.5 44c-.7 5.8-5 10-10 9.4-4.6-.6-7.8-6-7-11.7.7-6 5-10.2 9.8-9.6 4.7 1 8 6 7.2 12z"/>
  <path fill="#FBFFFE" d="M43.3 43.7c-.6 5.8-5 10-9.6 9.6-4.6-.6-8-5.7-7.2-11.5.6-5.8 5-10 9.6-9.5 5 .5 8 5.7 8 11.4z"/>
  <path fill="#FCFFFE" d="M43 43.6c-.4 5.7-4.6 10-9.2 9.5-4.5 0-7.8-5-7.3-11 .6-5 4.8-10 9.3-9 4.6 1 8 6 7.3 11z"/>
  <path fill="#FDFFFF" d="M43 43.4c-.5 5.6-4.5 10-9 9.5-4.6-1-8-6-7.4-11 .5-6 4.5-10 9-10s7.8 5 7.4 11z"/>
  <path fill="#FEFFFF" d="M42.8 43.2c-.4 5.6-4.3 9.8-8.7 9.5-4-.3-7-5-7-10.6 1-5 4-9 9-9 5 1 8 5 8 11z"/>
  <path fill="#FFF" d="M42.6 43c-.3 5.5-4 9.8-8.4 9.5-4.4-.2-7.7-5-7.5-10.3.3-5.5 4-9.7 8.4-9.5 5 .3 8 5 8 10.4zM50 31.8c-.3 2-1.8 3.2-3.3 3-1.4-.3-2.3-2-2-4C45 29 46.5 28 48 28s2.3 2 2 3.8z"/>
  <path fill="#1EC1F7" d="M67.7 156.5c-2.2.7-4.6 8.3-4.3 10.5.4 3 3.4 1 5 .4 1.5-.5 3 .2 4.6.3 1.5 0 3.7-1.3 5-.5 1.4-2.3-3.6-6.4-5-8-.7-.8-2-2.7-3-3-1-.4-1.3.2-2.3.3"/>
  <path fill="none" d="M66.2 157c1.7-1 3.5-.7 5.2-.6"/>
  <path fill="#C1272D" d="M66.2 158c1.7-.6 3.4-.5 5.2-.3v-2.5c-1.8-.2-3.5-.3-5.2.4-.3 0 .2 2.4 0 2.5z"/>
</svg>
