<svg xmlns="http://www.w3.org/2000/svg" xmlns:xlink="http://www.w3.org/1999/xlink" x="0px" y="0px" width="200px" height="500px" viewBox="0 0 200 500" enable-background="new 0 0 200 500" xml:space="preserve">
<g>
	<g>
		<g>
			<path fill="none" d="M728.092,206.977c-18,22-33,41-22,71c9,25,33,41,46,63c9,15,16,36,7,51c-9,17-38,27-29,49"/>
		</g>
		<g>
			<path fill="#C1272D" d="M728.092,205.727c-13.202,16.149-25.967,32.487-25.749,54.285c0.255,25.506,18.552,44.212,34.381,62.037
				c15.88,17.884,35.816,46.487,21.31,70.506c-8.407,13.919-29.555,21.69-29.661,39.935c-0.021,3.397,0.496,6.532,1.72,9.737
				c-0.275-0.721,0.28-1.767,0-2.5c-7.367-19.301,19.103-31.118,27.941-44.672c11.353-17.409,2.941-40.608-6.703-56.591
				c-13.034-21.597-35.102-36.413-44.702-60.305c-5.278-13.135-5.256-26.397,0.408-39.333c4.971-11.351,13.285-21.094,21.056-30.599
				C728.508,207.719,727.691,206.217,728.092,205.727L728.092,205.727z"/>
		</g>
	</g>
	<g>
		<g>
			<ellipse fill="#21C2F7" cx="722.546" cy="130.356" rx="61.854" ry="75.805"/>
			<ellipse fill="#22C3F7" cx="722.286" cy="130.078" rx="61.465" ry="75.365"/>
			<ellipse fill="#23C3F7" cx="722.025" cy="129.8" rx="61.075" ry="74.925"/>
			<ellipse fill="#24C4F7" cx="721.766" cy="129.522" rx="60.686" ry="74.486"/>
			<ellipse fill="#25C5F7" cx="721.505" cy="129.244" rx="60.296" ry="74.046"/>
			<ellipse fill="#26C5F7" cx="721.246" cy="128.965" rx="59.907" ry="73.606"/>
			<ellipse fill="#27C6F7" cx="720.985" cy="128.688" rx="59.517" ry="73.167"/>
			<ellipse fill="#28C7F8" cx="720.725" cy="128.409" rx="59.127" ry="72.727"/>
			<ellipse fill="#29C7F8" cx="720.465" cy="128.131" rx="58.738" ry="72.288"/>
			<ellipse fill="#2AC8F8" cx="720.205" cy="127.853" rx="58.348" ry="71.848"/>
			<ellipse fill="#2BC9F8" cx="719.945" cy="127.575" rx="57.958" ry="71.408"/>
			<ellipse fill="#2CC9F8" cx="719.685" cy="127.296" rx="57.569" ry="70.969"/>
			<ellipse fill="#2DCAF8" cx="719.425" cy="127.018" rx="57.18" ry="70.529"/>
			<ellipse fill="#2ECBF8" cx="719.165" cy="126.74" rx="56.79" ry="70.089"/>
			<ellipse fill="#2FCCF8" cx="718.905" cy="126.462" rx="56.4" ry="69.649"/>
			<ellipse fill="#30CCF8" cx="718.645" cy="126.184" rx="56.011" ry="69.21"/>
			<ellipse fill="#31CDF8" cx="718.384" cy="125.905" rx="55.621" ry="68.771"/>
			<ellipse fill="#32CEF8" cx="718.124" cy="125.627" rx="55.231" ry="68.331"/>
			<ellipse fill="#33CEF8" cx="717.864" cy="125.349" rx="54.842" ry="67.891"/>
			<ellipse fill="#34CFF8" cx="717.604" cy="125.071" rx="54.452" ry="67.452"/>
			<ellipse fill="#35D0F8" cx="717.344" cy="124.792" rx="54.063" ry="67.012"/>
			<ellipse fill="#36D0F9" cx="717.084" cy="124.515" rx="53.673" ry="66.572"/>
			<ellipse fill="#37D1F9" cx="716.824" cy="124.236" rx="53.284" ry="66.132"/>
			<ellipse fill="#38D2F9" cx="716.563" cy="123.958" rx="52.894" ry="65.693"/>
			<ellipse fill="#39D2F9" cx="716.304" cy="123.68" rx="52.504" ry="65.253"/>
			<ellipse fill="#3AD3F9" cx="716.043" cy="123.402" rx="52.115" ry="64.813"/>
			<ellipse fill="#3BD4F9" cx="715.784" cy="123.124" rx="51.725" ry="64.374"/>
			<ellipse fill="#3CD4F9" cx="715.523" cy="122.845" rx="51.335" ry="63.935"/>
			<ellipse fill="#3DD5F9" cx="715.263" cy="122.567" rx="50.946" ry="63.495"/>
			<ellipse fill="#3DD6F9" cx="715.003" cy="122.289" rx="50.556" ry="63.055"/>
			<ellipse fill="#3ED6F9" cx="714.743" cy="122.011" rx="50.167" ry="62.615"/>
			<ellipse fill="#3FD7F9" cx="714.483" cy="121.732" rx="49.777" ry="62.176"/>
			<ellipse fill="#40D8F9" cx="714.223" cy="121.455" rx="49.388" ry="61.736"/>
			<ellipse fill="#41D8F9" cx="713.963" cy="121.176" rx="48.998" ry="61.296"/>
			<ellipse fill="#42D9F9" cx="713.703" cy="120.898" rx="48.608" ry="60.857"/>
			<ellipse fill="#43DAFA" cx="713.442" cy="120.62" rx="48.219" ry="60.417"/>
			<ellipse fill="#44DAFA" cx="713.183" cy="120.342" rx="47.829" ry="59.977"/>
			<ellipse fill="#45DBFA" cx="712.922" cy="120.063" rx="47.439" ry="59.538"/>
			<ellipse fill="#46DCFA" cx="712.662" cy="119.785" rx="47.05" ry="59.098"/>
			<ellipse fill="#47DCFA" cx="712.402" cy="119.507" rx="46.66" ry="58.659"/>
			<ellipse fill="#48DDFA" cx="712.142" cy="119.229" rx="46.271" ry="58.219"/>
			<ellipse fill="#49DEFA" cx="711.882" cy="118.951" rx="45.881" ry="57.779"/>
			<ellipse fill="#4ADFFA" cx="711.622" cy="118.672" rx="45.491" ry="57.34"/>
			<ellipse fill="#4BDFFA" cx="711.362" cy="118.395" rx="45.102" ry="56.9"/>
			<ellipse fill="#4CE0FA" cx="711.102" cy="118.116" rx="44.712" ry="56.46"/>
			<ellipse fill="#4DE1FA" cx="710.841" cy="117.838" rx="44.323" ry="56.021"/>
			<ellipse fill="#4EE1FA" cx="710.582" cy="117.56" rx="43.933" ry="55.581"/>
			<ellipse fill="#4FE2FA" cx="710.322" cy="117.282" rx="43.543" ry="55.141"/>
			<ellipse fill="#50E3FA" cx="710.061" cy="117.003" rx="43.154" ry="54.702"/>
			<ellipse fill="#51E3FB" cx="709.801" cy="116.725" rx="42.764" ry="54.262"/>
			<ellipse fill="#52E4FB" cx="709.541" cy="116.447" rx="42.375" ry="53.823"/>
			<ellipse fill="#53E5FB" cx="709.281" cy="116.169" rx="41.985" ry="53.383"/>
			<ellipse fill="#54E5FB" cx="709.021" cy="115.891" rx="41.595" ry="52.943"/>
			<ellipse fill="#55E6FB" cx="708.761" cy="115.612" rx="41.206" ry="52.503"/>
			<ellipse fill="#56E7FB" cx="708.501" cy="115.334" rx="40.816" ry="52.064"/>
			<ellipse fill="#57E7FB" cx="708.24" cy="115.056" rx="40.427" ry="51.624"/>
			<ellipse fill="#58E8FB" cx="707.98" cy="114.778" rx="40.037" ry="51.185"/>
			
				<ellipse transform="matrix(1 0.0011 -0.0011 1 0.129 -0.794)" fill="#59E8FB" cx="707.865" cy="114.615" rx="39.826" ry="50.911"/>
			
				<ellipse transform="matrix(1 0.0022 -0.0022 1 0.2585 -1.5874)" fill="#5AE8FB" cx="707.75" cy="114.453" rx="39.614" ry="50.637"/>
			<path fill="#5BE8FB" d="M747.037,114.424c-0.091,27.814-17.808,50.303-39.568,50.229s-39.329-22.682-39.237-50.497
				c0.092-27.815,17.808-50.303,39.568-50.229C729.562,64.001,747.129,86.609,747.037,114.424z"/>
			<path fill="#5CE9FB" d="M746.711,114.306c-0.122,27.664-17.769,50.01-39.413,49.912c-21.644-0.098-39.093-22.604-38.971-50.267
				c0.122-27.664,17.769-50.01,39.413-49.912S746.833,86.642,746.711,114.306z"/>
			<path fill="#5DE9FB" d="M746.384,114.188c-0.152,27.512-17.729,49.716-39.256,49.593c-21.528-0.123-38.856-22.526-38.704-50.038
				c0.152-27.513,17.729-49.716,39.256-49.593C729.208,64.273,746.537,86.676,746.384,114.188z"/>
			<path fill="#5EE9FB" d="M746.058,114.071c-0.184,27.36-17.689,49.422-39.101,49.274s-38.62-22.448-38.438-49.809
				c0.183-27.361,17.689-49.422,39.101-49.274S746.24,86.709,746.058,114.071z"/>
			<path fill="#5FE9FB" d="M745.73,113.953c-0.213,27.209-17.649,49.128-38.944,48.957c-21.294-0.172-38.384-22.37-38.171-49.579
				c0.214-27.21,17.65-49.128,38.944-48.957C728.854,64.545,745.944,86.742,745.73,113.953z"/>
			<path fill="#60E9FB" d="M745.404,113.835c-0.244,27.058-17.61,48.834-38.788,48.638c-21.178-0.197-38.148-22.292-37.904-49.35
				c0.244-27.059,17.61-48.834,38.788-48.638C728.678,64.682,745.648,86.776,745.404,113.835z"/>
			<path fill="#61E9FB" d="M745.077,113.717c-0.274,26.907-17.571,48.541-38.632,48.32s-37.912-22.213-37.638-49.12
				c0.274-26.908,17.571-48.541,38.632-48.32C728.501,64.817,745.352,86.809,745.077,113.717z"/>
			<path fill="#62EAFB" d="M744.751,113.599c-0.306,26.756-17.532,48.247-38.477,48.001c-20.943-0.246-37.676-22.135-37.371-48.891
				c0.306-26.757,17.532-48.247,38.477-48.001C728.323,64.954,745.056,86.842,744.751,113.599z"/>
			<path fill="#63EAFB" d="M744.424,113.481c-0.335,26.605-17.492,47.954-38.319,47.684c-20.827-0.271-37.44-22.057-37.104-48.662
				c0.335-26.605,17.492-47.953,38.319-47.683C728.146,65.09,744.76,86.875,744.424,113.481z"/>
			<path fill="#64EAFB" d="M744.098,113.363c-0.366,26.453-17.453,47.66-38.164,47.365c-20.71-0.294-37.204-21.979-36.838-48.432
				c0.366-26.454,17.453-47.66,38.164-47.365C727.97,65.226,744.464,86.909,744.098,113.363z"/>
			<path fill="#65EAFB" d="M743.771,113.246c-0.396,26.302-17.413,47.366-38.007,47.046c-20.595-0.319-36.969-21.901-36.571-48.203
				c0.396-26.303,17.413-47.366,38.007-47.046S744.167,86.942,743.771,113.246z"/>
			<path fill="#66EAFB" d="M743.444,113.127c-0.428,26.151-17.375,47.072-37.852,46.729c-20.478-0.344-36.731-21.823-36.305-47.974
				c0.427-26.152,17.374-47.072,37.852-46.729C727.616,65.498,743.871,86.976,743.444,113.127z"/>
			<path fill="#67EAFB" d="M743.117,113.01c-0.457,26-17.335,46.778-37.695,46.41c-20.36-0.369-36.495-21.745-36.038-47.745
				c0.458-26,17.335-46.778,37.695-46.41C727.439,65.634,743.575,87.009,743.117,113.01z"/>
			<path fill="#68EAFB" d="M742.791,112.892c-0.488,25.849-17.296,46.485-37.539,46.092c-20.244-0.393-36.26-21.667-35.771-47.515
				c0.487-25.849,17.295-46.484,37.539-46.091C727.263,65.77,743.278,87.042,742.791,112.892z"/>
			<path fill="#69EBFB" d="M742.464,112.774c-0.519,25.697-17.256,46.191-37.383,45.773s-36.023-21.588-35.505-47.286
				c0.519-25.698,17.256-46.191,37.383-45.773S742.982,87.076,742.464,112.774z"/>
			<path fill="#6AEBFB" d="M742.138,112.656c-0.55,25.546-17.217,45.897-37.228,45.455c-20.01-0.442-35.787-21.511-35.238-47.057
				c0.549-25.547,17.217-45.897,37.228-45.455C726.909,66.042,742.687,87.109,742.138,112.656z"/>
			<path fill="#6BEBFB" d="M741.811,112.538c-0.58,25.395-17.178,45.604-37.07,45.137c-19.894-0.467-35.552-21.432-34.972-46.827
				c0.579-25.396,17.177-45.604,37.07-45.137C726.732,66.178,742.391,87.143,741.811,112.538z"/>
			<path fill="#6CEBFB" d="M741.483,112.42c-0.609,25.243-17.138,45.31-36.914,44.818s-35.315-21.354-34.705-46.598
				c0.61-25.244,17.138-45.31,36.915-44.818C726.556,66.314,742.094,87.176,741.483,112.42z"/>
			<path fill="#6DEBFB" d="M741.157,112.302c-0.641,25.092-17.099,45.016-36.759,44.5c-19.66-0.516-35.079-21.276-34.438-46.369
				c0.641-25.093,17.099-45.016,36.759-44.5C726.379,66.45,741.798,87.209,741.157,112.302z"/>
			<path fill="#6EEBFA" d="M740.83,112.185c-0.671,24.941-17.059,44.722-36.602,44.182c-19.544-0.541-34.844-21.198-34.172-46.139
				c0.671-24.942,17.059-44.722,36.603-44.182C726.202,66.586,741.502,87.243,740.83,112.185z"/>
			<path fill="#6FECFA" d="M740.504,112.067c-0.702,24.79-17.02,44.428-36.446,43.863s-34.607-21.12-33.905-45.91
				c0.701-24.791,17.02-44.428,36.446-43.863S741.205,87.276,740.504,112.067z"/>
			<path fill="#70ECFA" d="M740.177,111.949c-0.731,24.639-16.979,44.135-36.29,43.545c-19.31-0.59-34.37-21.042-33.639-45.68
				c0.732-24.64,16.98-44.135,36.291-43.545C725.849,66.858,740.909,87.31,740.177,111.949z"/>
			<path fill="#71ECFA" d="M739.851,111.831c-0.763,24.487-16.941,43.841-36.134,43.227c-19.193-0.614-34.135-20.963-33.372-45.451
				c0.763-24.488,16.94-43.841,36.134-43.227C725.672,66.994,740.613,87.343,739.851,111.831z"/>
			<path fill="#72ECFA" d="M739.523,111.713c-0.793,24.336-16.901,43.547-35.978,42.909s-33.898-20.885-33.105-45.222
				c0.793-24.337,16.901-43.547,35.978-42.908C725.495,67.13,740.317,87.376,739.523,111.713z"/>
			<path fill="#73ECFA" d="M739.197,111.595c-0.824,24.185-16.862,43.253-35.822,42.59c-18.959-0.664-33.662-20.808-32.839-44.992
				c0.824-24.186,16.862-43.253,35.822-42.59S740.021,87.41,739.197,111.595z"/>
			<path fill="#74ECFA" d="M738.87,111.478c-0.854,24.033-16.822,42.959-35.665,42.272c-18.843-0.688-33.427-20.729-32.572-44.763
				c0.854-24.034,16.822-42.959,35.665-42.272C725.141,67.402,739.725,87.443,738.87,111.478z"/>
			<path fill="#75ECFA" d="M738.544,111.359c-0.885,23.882-16.783,42.666-35.51,41.954s-33.19-20.651-32.306-44.534
				s16.783-42.666,35.51-41.953C724.964,67.539,739.429,87.476,738.544,111.359z"/>
			<path fill="#76EDFA" d="M738.217,111.242c-0.915,23.731-16.744,42.372-35.354,41.635c-18.609-0.737-32.954-20.573-32.039-44.304
				c0.915-23.732,16.744-42.372,35.354-41.635S739.132,87.51,738.217,111.242z"/>
			<path fill="#77EDFA" d="M737.891,111.124c-0.946,23.58-16.705,42.079-35.197,41.317c-18.493-0.762-32.719-20.495-31.772-44.075
				c0.945-23.581,16.704-42.078,35.197-41.317C724.61,67.811,738.836,87.543,737.891,111.124z"/>
			<path fill="#78EDFA" d="M737.563,111.006c-0.977,23.429-16.665,41.785-35.041,40.999s-32.482-20.417-31.506-43.845
				c0.977-23.43,16.665-41.785,35.041-40.999S738.54,87.576,737.563,111.006z"/>
			<path fill="#79EDFA" d="M737.237,110.888c-1.007,23.278-16.626,41.491-34.885,40.681c-18.26-0.811-32.246-20.338-31.239-43.616
				c1.006-23.278,16.625-41.491,34.885-40.68C724.257,68.083,738.244,87.609,737.237,110.888z"/>
			<path fill="#7AEDFA" d="M736.91,110.77c-1.037,23.126-16.586,41.197-34.729,40.362c-18.143-0.835-32.01-20.261-30.973-43.387
				c1.037-23.127,16.586-41.197,34.729-40.362S737.947,87.643,736.91,110.77z"/>
			<path fill="#7BEDFA" d="M736.584,110.652c-1.068,22.975-16.547,40.903-34.573,40.043c-18.025-0.86-31.773-20.182-30.706-43.157
				c1.067-22.976,16.547-40.904,34.573-40.044C723.903,68.354,737.651,87.676,736.584,110.652z"/>
			<path fill="#7CEEFA" d="M736.257,110.534c-1.099,22.824-16.508,40.61-34.416,39.726c-17.909-0.884-31.538-20.104-30.439-42.928
				c1.098-22.824,16.507-40.61,34.416-39.725C723.727,68.491,737.355,87.709,736.257,110.534z"/>
			<path fill="#7DEEFA" d="M735.931,110.417c-1.129,22.672-16.469,40.316-34.261,39.407c-17.793-0.909-31.302-20.026-30.173-42.699
				c1.129-22.673,16.468-40.316,34.261-39.407C723.55,68.626,737.059,87.743,735.931,110.417z"/>
			<path fill="#7EEEFA" d="M735.604,110.298c-1.159,22.521-16.429,40.022-34.104,39.089c-17.676-0.934-31.065-19.948-29.906-42.47
				c1.159-22.522,16.429-40.022,34.104-39.089S736.763,87.776,735.604,110.298z"/>
			<path fill="#7FEEFA" d="M735.276,110.181c-1.189,22.37-16.389,39.729-33.947,38.771c-17.56-0.958-30.83-19.87-29.64-42.24
				c1.189-22.371,16.389-39.729,33.948-38.771C723.196,68.899,736.467,87.81,735.276,110.181z"/>
			<path fill="#80EEFA" d="M734.95,110.063c-1.221,22.219-16.35,39.435-33.792,38.452c-17.442-0.983-30.594-19.792-29.373-42.011
				c1.22-22.22,16.35-39.435,33.792-38.452C723.02,69.035,736.171,87.843,734.95,110.063z"/>
			<path fill="#81EEFA" d="M734.623,109.945c-1.25,22.068-16.311,39.141-33.636,38.134c-17.325-1.007-30.357-19.714-29.106-41.782
				c1.251-22.068,16.311-39.141,33.637-38.134C722.843,69.171,735.874,87.876,734.623,109.945z"/>
			<path fill="#82EFFA" d="M734.297,109.827c-1.281,21.916-16.271,38.847-33.479,37.815c-17.209-1.032-30.121-19.635-28.84-41.552
				c1.28-21.917,16.271-38.848,33.479-37.816S735.578,87.91,734.297,109.827z"/>
			<path fill="#83EFFA" d="M733.97,109.709c-1.312,21.765-16.231,38.554-33.323,37.498c-17.092-1.057-29.885-19.558-28.573-41.323
				c1.312-21.766,16.231-38.554,33.324-37.497C722.489,69.443,735.282,87.943,733.97,109.709z"/>
			<path fill="#84EFFA" d="M733.644,109.591c-1.343,21.614-16.192,38.26-33.168,37.179c-16.975-1.081-29.648-19.479-28.307-41.094
				c1.343-21.614,16.192-38.26,33.168-37.179S734.985,87.977,733.644,109.591z"/>
			<path fill="#85EFFA" d="M733.316,109.474c-1.373,21.462-16.152,37.966-33.011,36.86c-16.859-1.105-29.413-19.401-28.04-40.864
				c1.372-21.463,16.152-37.966,33.012-36.861C722.136,69.715,734.689,88.01,733.316,109.474z"/>
			<path fill="#86EFFA" d="M732.99,109.355c-1.403,21.312-16.114,37.672-32.855,36.542c-16.742-1.13-29.177-19.323-27.773-40.635
				c1.403-21.312,16.113-37.672,32.855-36.542C721.959,69.851,734.394,88.043,732.99,109.355z"/>
			<path fill="#87EFFA" d="M732.663,109.238c-1.434,21.16-16.074,37.378-32.699,36.224c-16.625-1.155-28.94-19.245-27.507-40.405
				c1.434-21.161,16.074-37.379,32.7-36.224C721.781,69.987,734.098,88.077,732.663,109.238z"/>
			<path fill="#88EFFA" d="M732.337,109.12c-1.465,21.009-16.035,37.085-32.543,35.906c-16.509-1.18-28.705-19.167-27.24-40.176
				c1.464-21.01,16.034-37.085,32.543-35.906C721.604,70.123,733.801,88.11,732.337,109.12z"/>
			<path fill="#89F0FA" d="M732.01,109.002c-1.495,20.858-15.995,36.791-32.387,35.587s-28.469-19.089-26.974-39.947
				c1.494-20.858,15.995-36.791,32.388-35.587C721.428,70.259,733.505,88.144,732.01,109.002z"/>
			<path fill="#8AF0FA" d="M731.684,108.884c-1.525,20.707-15.956,36.498-32.231,35.27c-16.274-1.229-28.232-19.011-26.707-39.717
				c1.525-20.707,15.956-36.498,32.231-35.269C721.251,70.395,733.209,88.177,731.684,108.884z"/>
			<path fill="#8BF0FA" d="M731.356,108.766c-1.556,20.555-15.916,36.204-32.074,34.951c-16.158-1.253-27.996-18.933-26.44-39.488
				s15.916-36.204,32.075-34.951C721.074,70.531,732.912,88.21,731.356,108.766z"/>
			<path fill="#8CF0FA" d="M731.03,108.648c-1.587,20.404-15.878,35.91-31.919,34.632s-27.76-18.854-26.174-39.258
				c1.586-20.405,15.877-35.91,31.919-34.633C720.897,70.667,732.616,88.244,731.03,108.648z"/>
			<path fill="#8DF0FA" d="M730.703,108.53c-1.617,20.253-15.838,35.616-31.763,34.314c-15.925-1.302-27.523-18.776-25.907-39.029
				c1.617-20.253,15.838-35.616,31.763-34.314C720.721,70.803,732.32,88.277,730.703,108.53z"/>
			<path fill="#8EF0FA" d="M730.377,108.413c-1.647,20.102-15.799,35.322-31.606,33.996c-15.809-1.327-27.288-18.698-25.641-38.8
				c1.646-20.102,15.798-35.322,31.606-33.996C720.544,70.939,732.024,88.31,730.377,108.413z"/>
			<path fill="#8FF1FA" d="M730.05,108.294c-1.678,19.951-15.759,35.029-31.45,33.678s-27.052-18.62-25.374-38.57
				c1.678-19.951,15.759-35.029,31.45-33.678S731.728,88.343,730.05,108.294z"/>
			<path fill="#90F1FA" d="M729.723,108.177c-1.708,19.799-15.719,34.735-31.293,33.359c-15.575-1.376-26.816-18.542-25.107-38.341
				c1.708-19.8,15.719-34.735,31.294-33.359C720.19,71.211,731.432,88.377,729.723,108.177z"/>
			<path fill="#91F1FA" d="M729.396,108.059c-1.739,19.648-15.681,34.441-31.138,33.041c-15.458-1.4-26.58-18.464-24.841-38.112
				c1.738-19.648,15.68-34.441,31.138-33.041C720.014,71.347,731.136,88.41,729.396,108.059z"/>
			<path fill="#92F1FA" d="M729.069,107.941c-1.769,19.497-15.641,34.147-30.981,32.723s-26.344-18.385-24.574-37.882
				s15.641-34.147,30.982-32.723C719.837,71.483,730.839,88.443,729.069,107.941z"/>
			<path fill="#93F1FA" d="M728.743,107.823c-1.8,19.345-15.602,33.854-30.825,32.404c-15.225-1.45-26.108-18.308-24.308-37.653
				c1.799-19.346,15.601-33.854,30.825-32.404C719.66,71.62,730.543,88.477,728.743,107.823z"/>
			<path fill="#94F1FA" d="M728.416,107.705c-1.83,19.194-15.562,33.56-30.669,32.086c-15.107-1.474-25.871-18.229-24.041-37.424
				c1.83-19.195,15.562-33.56,30.67-32.086C719.483,71.755,730.247,88.51,728.416,107.705z"/>
			<path fill="#95F1FA" d="M728.09,107.587c-1.861,19.043-15.522,33.266-30.514,31.768c-14.991-1.499-25.635-18.151-23.774-37.195
				s15.522-33.266,30.514-31.768S729.951,88.543,728.09,107.587z"/>
			<path fill="#96F2FA" d="M727.763,107.47c-1.892,18.892-15.483,32.972-30.356,31.449c-14.875-1.523-25.399-18.073-23.508-36.965
				c1.891-18.893,15.482-32.973,30.357-31.45C719.13,72.027,729.654,88.577,727.763,107.47z"/>
			<path fill="#97F2FA" d="M727.437,107.352c-1.922,18.741-15.444,32.679-30.201,31.131c-14.758-1.548-25.163-17.995-23.241-36.736
				c1.922-18.741,15.443-32.679,30.201-31.131C718.953,72.164,729.358,88.61,727.437,107.352z"/>
			<path fill="#98F2FA" d="M727.109,107.234c-1.952,18.589-15.404,32.385-30.045,30.813c-14.641-1.573-24.927-17.917-22.975-36.507
				s15.404-32.385,30.046-30.813C718.776,72.3,729.063,88.644,727.109,107.234z"/>
			<path fill="#99F2F9" d="M726.783,107.116c-1.983,18.438-15.365,32.091-29.889,30.495c-14.524-1.597-24.691-17.839-22.708-36.277
				c1.982-18.438,15.365-32.091,29.889-30.495S728.766,88.677,726.783,107.116z"/>
			<path fill="#9AF2F9" d="M726.456,106.998c-2.014,18.287-15.325,31.797-29.732,30.176c-14.407-1.622-24.455-17.761-22.441-36.048
				c2.013-18.287,15.326-31.797,29.733-30.176C718.422,72.572,728.47,88.71,726.456,106.998z"/>
			<path fill="#9BF2F9" d="M726.13,106.88c-2.044,18.136-15.286,31.504-29.577,29.858c-14.29-1.646-24.219-17.683-22.175-35.818
				c2.044-18.136,15.287-31.504,29.577-29.858S728.174,88.744,726.13,106.88z"/>
			<path fill="#9CF3F9" d="M725.803,106.762c-2.074,17.984-15.247,31.21-29.42,29.54c-14.174-1.67-23.983-17.604-21.908-35.589
				c2.074-17.985,15.247-31.21,29.421-29.54C718.068,72.844,727.878,88.777,725.803,106.762z"/>
			<path fill="#9DF3F9" d="M725.477,106.645c-2.105,17.833-15.208,30.916-29.265,29.221c-14.058-1.695-23.747-17.526-21.642-35.36
				c2.104-17.833,15.208-30.916,29.265-29.221C717.892,72.98,727.581,88.811,725.477,106.645z"/>
			<path fill="#9EF3F9" d="M725.149,106.526c-2.136,17.682-15.168,30.623-29.108,28.903c-13.94-1.72-23.51-17.448-21.375-35.13
				c2.136-17.683,15.169-30.623,29.109-28.903C717.715,73.116,727.285,88.844,725.149,106.526z"/>
			<path fill="#9FF3F9" d="M724.823,106.409c-2.166,17.531-15.129,30.329-28.952,28.585c-13.824-1.745-23.274-17.371-21.108-34.901
				c2.165-17.531,15.129-30.329,28.952-28.584S726.989,88.877,724.823,106.409z"/>
			<path fill="#A0F3F9" d="M724.496,106.291c-2.196,17.38-15.089,30.035-28.796,28.267c-13.707-1.769-23.038-17.292-20.842-34.672
				s15.09-30.035,28.797-28.266C717.361,73.388,726.692,88.911,724.496,106.291z"/>
			<path fill="#A1F3F9" d="M724.17,106.173c-2.228,17.228-15.051,29.741-28.641,27.948c-13.59-1.793-22.802-17.214-20.575-34.442
				s15.051-29.741,28.641-27.948C717.185,73.524,726.396,88.944,724.17,106.173z"/>
			<path fill="#A2F3F9" d="M723.843,106.055c-2.258,17.077-15.011,29.447-28.483,27.63c-13.474-1.818-22.566-17.136-20.309-34.213
				c2.257-17.077,15.011-29.447,28.484-27.629C717.008,73.66,726.101,88.978,723.843,106.055z"/>
			<path fill="#A3F4F9" d="M723.516,105.937c-2.288,16.926-14.971,29.154-28.327,27.312s-22.33-17.058-20.042-33.983
				c2.288-16.926,14.972-29.154,28.328-27.312S725.804,89.011,723.516,105.937z"/>
			<path fill="#A4F4F9" d="M723.189,105.819c-2.318,16.774-14.932,28.86-28.171,26.993c-13.24-1.867-22.095-16.979-19.775-33.754
				c2.317-16.775,14.932-28.86,28.172-26.993C716.654,73.932,725.508,89.044,723.189,105.819z"/>
			<path fill="#A5F4F9" d="M722.862,105.701c-2.349,16.624-14.892,28.566-28.015,26.675c-13.124-1.892-21.858-16.901-19.509-33.525
				c2.349-16.624,14.893-28.566,28.016-26.674S725.212,89.077,722.862,105.701z"/>
			<path fill="#A6F4F9" d="M722.536,105.583c-2.38,16.472-14.854,28.272-27.859,26.356c-13.007-1.916-21.622-16.823-19.242-33.295
				c2.379-16.473,14.854-28.272,27.859-26.356C716.301,74.204,724.916,89.111,722.536,105.583z"/>
			<path fill="#A7F4F9" d="M722.209,105.466c-2.41,16.321-14.813,27.979-27.702,26.038c-12.891-1.941-21.386-16.745-18.976-33.066
				c2.409-16.321,14.813-27.979,27.703-26.038C716.124,74.34,724.619,89.144,722.209,105.466z"/>
			<path fill="#A8F4F9" d="M721.883,105.348c-2.44,16.169-14.774,27.685-27.547,25.72c-12.773-1.966-21.149-16.667-18.709-32.837
				s14.774-27.685,27.547-25.72C715.947,74.476,724.323,89.177,721.883,105.348z"/>
			<path fill="#A9F5F9" d="M721.556,105.23c-2.471,16.018-14.734,27.391-27.391,25.402c-12.656-1.99-20.913-16.589-18.442-32.608
				s14.735-27.391,27.392-25.401S724.027,89.211,721.556,105.23z"/>
			<path fill="#AAF5F9" d="M721.229,105.112c-2.502,15.867-14.695,27.098-27.234,25.083c-12.54-2.015-20.678-16.511-18.176-32.378
				c2.501-15.867,14.695-27.097,27.234-25.083C715.594,74.749,723.73,89.244,721.229,105.112z"/>
			<path fill="#ABF5F9" d="M720.902,104.994c-2.532,15.716-14.655,26.804-27.078,24.765c-12.423-2.039-20.441-16.433-17.909-32.149
				c2.531-15.716,14.656-26.804,27.079-24.765C715.417,74.884,723.435,89.277,720.902,104.994z"/>
			<path fill="#ACF5F9" d="M720.576,104.876c-2.563,15.565-14.617,26.51-26.923,24.447c-12.306-2.064-20.205-16.355-17.643-31.92
				s14.617-26.51,26.923-24.446S723.139,89.311,720.576,104.876z"/>
			<path fill="#ADF5F9" d="M720.249,104.758c-2.593,15.414-14.577,26.216-26.766,24.128c-12.19-2.088-19.97-16.276-17.376-31.69
				c2.592-15.414,14.577-26.216,26.767-24.128C715.063,75.156,722.843,89.344,720.249,104.758z"/>
			<path fill="#AEF5F9" d="M719.923,104.641c-2.624,15.262-14.538,25.922-26.61,23.81c-12.073-2.113-19.733-16.198-17.109-31.461
				c2.623-15.263,14.538-25.922,26.61-23.81C714.886,75.292,722.546,89.377,719.923,104.641z"/>
			<path fill="#AFF5F9" d="M719.596,104.522c-2.654,15.111-14.498,25.629-26.454,23.492c-11.956-2.138-19.497-16.121-16.843-31.232
				s14.499-25.628,26.455-23.491C714.709,75.429,722.25,89.411,719.596,104.522z"/>
			<path fill="#B0F6F9" d="M719.27,104.405c-2.686,14.959-14.459,25.335-26.298,23.173c-11.84-2.162-19.261-16.042-16.576-31.002
				c2.684-14.96,14.459-25.335,26.298-23.173S721.954,89.444,719.27,104.405z"/>
			<path fill="#B1F6F9" d="M718.942,104.287c-2.715,14.809-14.42,25.042-26.142,22.855c-11.723-2.187-19.024-15.964-16.31-30.773
				c2.715-14.809,14.42-25.041,26.143-22.855C714.355,75.701,721.657,89.478,718.942,104.287z"/>
			<path fill="#B2F6F9" d="M718.616,104.169c-2.746,14.657-14.381,24.748-25.986,22.537c-11.605-2.211-18.788-15.886-16.043-30.543
				c2.745-14.658,14.381-24.748,25.986-22.537C714.179,75.836,721.361,89.511,718.616,104.169z"/>
			<path fill="#B3F6F9" d="M718.289,104.051c-2.776,14.506-14.341,24.454-25.829,22.219c-11.489-2.236-18.553-15.808-15.776-30.314
				c2.775-14.506,14.341-24.454,25.83-22.218C714.002,75.973,721.065,89.544,718.289,104.051z"/>
			<path fill="#B4F6F9" d="M717.963,103.933c-2.808,14.355-14.302,24.16-25.674,21.9c-11.372-2.26-18.316-15.729-15.51-30.085
				c2.806-14.355,14.302-24.16,25.674-21.9C713.825,76.109,720.77,89.578,717.963,103.933z"/>
			<path fill="#B5F6F9" d="M717.636,103.815c-2.837,14.204-14.262,23.866-25.518,21.582c-11.256-2.285-18.08-15.652-15.243-29.855
				c2.837-14.204,14.263-23.866,25.519-21.582C713.648,76.245,720.473,89.611,717.636,103.815z"/>
			<path fill="#B6F7F9" d="M717.309,103.697c-2.867,14.053-14.222,23.573-25.36,21.264c-11.14-2.31-17.845-15.574-14.977-29.626
				c2.867-14.053,14.223-23.572,25.361-21.263S720.177,89.645,717.309,103.697z"/>
			<path fill="#B7F7F9" d="M716.982,103.58c-2.898,13.901-14.184,23.279-25.205,20.945c-11.022-2.334-17.608-15.495-14.71-29.396
				c2.897-13.901,14.184-23.279,25.206-20.945C713.295,76.517,719.881,89.678,716.982,103.58z"/>
			<path fill="#B8F7F9" d="M716.655,103.462c-2.929,13.75-14.144,22.985-25.049,20.627c-10.905-2.359-17.372-15.417-14.443-29.167
				s14.145-22.985,25.05-20.627C713.118,76.653,719.584,89.711,716.655,103.462z"/>
			<path fill="#B9F7F9" d="M716.329,103.344c-2.959,13.599-14.104,22.691-24.893,20.309c-10.789-2.383-17.136-15.339-14.177-28.938
				c2.958-13.599,14.104-22.691,24.894-20.308C712.941,76.789,719.288,89.745,716.329,103.344z"/>
			<path fill="#BAF7F9" d="M716.002,103.226c-2.989,13.447-14.064,22.397-24.736,19.99c-10.672-2.408-16.899-15.261-13.91-28.708
				s14.065-22.398,24.737-19.99C712.765,76.925,718.992,89.778,716.002,103.226z"/>
			<path fill="#BBF7F9" d="M715.676,103.108c-3.021,13.296-14.025,22.104-24.58,19.672c-10.556-2.432-16.664-15.183-13.644-28.479
				c3.02-13.296,14.025-22.104,24.581-19.672C712.588,77.061,718.696,89.811,715.676,103.108z"/>
			<path fill="#BCF8F9" d="M715.349,102.99c-3.051,13.145-13.986,21.81-24.424,19.354c-10.438-2.457-16.428-15.105-13.377-28.25
				c3.05-13.146,13.986-21.811,24.425-19.354S718.399,89.845,715.349,102.99z"/>
			<path fill="#BDF8F9" d="M715.022,102.873c-3.082,12.994-13.947,21.516-24.269,19.035c-10.322-2.481-16.191-15.026-13.11-28.021
				s13.947-21.517,24.27-19.035C712.234,77.333,718.104,89.878,715.022,102.873z"/>
			<path fill="#BEF8F9" d="M714.695,102.754c-3.111,12.843-13.907,21.223-24.111,18.717c-10.206-2.506-15.956-14.948-12.844-27.792
				c3.11-12.843,13.907-21.223,24.112-18.717C712.057,77.469,717.808,89.911,714.695,102.754z"/>
			<path fill="#BFF8F9" d="M714.369,102.637c-3.143,12.691-13.868,20.929-23.956,18.399c-10.089-2.531-15.72-14.871-12.577-27.562
				c3.142-12.691,13.868-20.929,23.957-18.399C711.88,77.605,717.511,89.945,714.369,102.637z"/>
			<path fill="#C0F8F9" d="M714.042,102.519c-3.173,12.54-13.828,20.635-23.8,18.081c-9.972-2.555-15.483-14.792-12.311-27.333
				c3.172-12.54,13.829-20.635,23.801-18.08C711.703,77.741,717.215,89.978,714.042,102.519z"/>
			<path fill="#C1F8F9" d="M713.716,102.401c-3.204,12.389-13.79,20.341-23.644,17.762c-9.855-2.58-15.248-14.714-12.044-27.103
				c3.202-12.389,13.789-20.342,23.644-17.762C711.526,77.877,716.919,90.011,713.716,102.401z"/>
			<path fill="#C2F8F9" d="M713.389,102.283c-3.233,12.238-13.75,20.048-23.487,17.444c-9.738-2.604-15.011-14.636-11.777-26.874
				s13.75-20.048,23.488-17.444C711.35,78.013,716.623,90.045,713.389,102.283z"/>
			<path fill="#C3F9F9" d="M713.063,102.165c-3.265,12.086-13.711,19.754-23.332,17.126c-9.621-2.629-14.774-14.558-11.511-26.645
				c3.264-12.086,13.711-19.754,23.332-17.125C711.173,78.149,716.326,90.078,713.063,102.165z"/>
			<path fill="#C4F9F8" d="M712.735,102.047c-3.295,11.935-13.671,19.46-23.175,16.807c-9.505-2.653-14.539-14.479-11.244-26.415
				c3.294-11.936,13.671-19.46,23.176-16.807C710.996,78.285,716.03,90.111,712.735,102.047z"/>
			<path fill="#C5F9F8" d="M712.409,101.929c-3.326,11.784-13.632,19.167-23.02,16.489c-9.389-2.678-14.303-14.402-10.978-26.186
				c3.324-11.784,13.632-19.167,23.02-16.489S715.734,90.145,712.409,101.929z"/>
			<path fill="#C6F9F8" d="M712.082,101.812c-3.355,11.633-13.592,18.873-22.863,16.171c-9.271-2.703-14.066-14.324-10.711-25.957
				c3.355-11.633,13.593-18.873,22.864-16.17C710.643,78.558,715.438,90.178,712.082,101.812z"/>
			<path fill="#C7F9F8" d="M711.755,101.693c-3.386,11.481-13.553,18.579-22.706,15.853c-9.155-2.727-13.831-14.245-10.444-25.727
				c3.386-11.481,13.553-18.579,22.707-15.852C710.466,78.693,715.142,90.211,711.755,101.693z"/>
			<path fill="#C8F9F8" d="M711.429,101.576c-3.417,11.33-13.514,18.285-22.551,15.534c-9.038-2.751-13.595-14.167-10.178-25.498
				c3.416-11.33,13.514-18.285,22.552-15.534C710.289,78.83,714.846,90.245,711.429,101.576z"/>
			<path fill="#C9FAF8" d="M711.102,101.458c-3.447,11.179-13.474,17.991-22.395,15.216c-8.921-2.776-13.358-14.089-9.911-25.269
				s13.475-17.992,22.396-15.216S714.55,90.278,711.102,101.458z"/>
			<path fill="#CAFAF8" d="M710.775,101.34c-3.478,11.028-13.435,17.698-22.238,14.898c-8.805-2.801-13.123-14.011-9.645-25.04
				c3.477-11.028,13.435-17.698,22.239-14.897C709.936,79.102,714.253,90.312,710.775,101.34z"/>
			<path fill="#CBFAF8" d="M710.448,101.222c-3.508,10.876-13.395,17.404-22.082,14.579c-8.688-2.825-12.887-13.933-9.378-24.81
				c3.508-10.876,13.396-17.404,22.083-14.579S713.957,90.345,710.448,101.222z"/>
			<path fill="#CCFAF8" d="M710.122,101.104c-3.539,10.726-13.356,17.11-21.927,14.261c-8.57-2.85-12.649-13.855-9.111-24.581
				s13.356-17.11,21.928-14.261C709.582,79.374,713.661,90.378,710.122,101.104z"/>
			<path fill="#CDFAF8" d="M709.795,100.986c-3.569,10.574-13.316,16.816-21.77,13.943c-8.455-2.875-12.414-13.777-8.845-24.352
				c3.568-10.574,13.316-16.816,21.771-13.942C709.405,79.51,713.364,90.412,709.795,100.986z"/>
			<path fill="#CEFAF8" d="M709.469,100.869c-3.601,10.422-13.277,16.522-21.614,13.624c-8.338-2.899-12.178-13.699-8.578-24.122
				s13.277-16.523,21.615-13.624C709.229,79.646,713.068,90.445,709.469,100.869z"/>
			<path fill="#CFFAF8" d="M709.142,100.75c-3.63,10.271-13.237,16.229-21.457,13.306c-8.222-2.924-11.942-13.621-8.312-23.893
				c3.629-10.271,13.237-16.229,21.458-13.306S712.772,90.479,709.142,100.75z"/>
			<path fill="#D0FBF8" d="M708.815,100.633c-3.661,10.12-13.198,15.935-21.302,12.988c-8.104-2.948-11.706-13.542-8.045-23.664
				c3.66-10.12,13.198-15.935,21.303-12.987C708.874,79.918,712.477,90.512,708.815,100.633z"/>
			<path fill="#D1FBF8" d="M708.488,100.515c-3.691,9.969-13.159,15.642-21.146,12.669c-7.987-2.973-11.47-13.464-7.778-23.434
				c3.69-9.969,13.159-15.642,21.146-12.669C708.697,80.054,712.18,90.545,708.488,100.515z"/>
			<path fill="#D2FBF8" d="M708.162,100.397c-3.723,9.818-13.12,15.348-20.989,12.351c-7.871-2.998-11.234-13.386-7.512-23.205
				c3.721-9.818,13.119-15.348,20.99-12.351C708.521,80.19,711.884,90.579,708.162,100.397z"/>
			<path fill="#D3FBF8" d="M707.835,100.279c-3.752,9.667-13.08,15.054-20.833,12.033c-7.754-3.022-10.998-13.308-7.245-22.975
				c3.752-9.667,13.08-15.054,20.834-12.033C708.344,80.326,711.588,90.612,707.835,100.279z"/>
			<path fill="#D4FBF8" d="M707.509,100.161c-3.783,9.516-13.041,14.76-20.678,11.715c-7.637-3.047-10.762-13.23-6.979-22.746
				c3.782-9.516,13.041-14.76,20.679-11.714C708.167,80.462,711.291,90.645,707.509,100.161z"/>
			<path fill="#D5FBF8" d="M707.182,100.043c-3.813,9.364-13.001,14.466-20.521,11.396c-7.521-3.071-10.525-13.152-6.712-22.517
				c3.813-9.364,13.001-14.466,20.521-11.396C707.99,80.598,710.995,90.679,707.182,100.043z"/>
			<path fill="#D6FCF8" d="M706.855,99.925c-3.845,9.213-12.962,14.173-20.365,11.078c-7.404-3.096-10.289-13.074-6.445-22.287
				c3.843-9.213,12.962-14.173,20.366-11.078C707.813,80.734,710.699,90.712,706.855,99.925z"/>
			<path fill="#D7FCF8" d="M706.528,99.808c-3.874,9.062-12.923,13.879-20.209,10.76c-7.287-3.121-10.053-12.996-6.179-22.058
				c3.874-9.062,12.923-13.879,20.21-10.759C707.637,80.87,710.403,90.745,706.528,99.808z"/>
			<path fill="#D8FCF8" d="M706.202,99.689c-3.905,8.911-12.884,13.585-20.053,10.441c-7.171-3.145-9.817-12.917-5.912-21.828
				c3.903-8.911,12.883-13.585,20.054-10.441C707.46,81.006,710.106,90.779,706.202,99.689z"/>
			
				<ellipse transform="matrix(0.9122 0.4098 -0.4098 0.9122 99.339 -275.8161)" fill="#D9FCF8" cx="693.104" cy="93.834" rx="14.001" ry="17.388"/>
			
				<ellipse transform="matrix(0.9143 0.405 -0.405 0.9143 97.3788 -272.6552)" fill="#DAFCF8" cx="693.042" cy="93.803" rx="13.832" ry="17.179"/>
			<path fill="#DBFCF8" d="M705.501,99.239c-3.747,8.59-12.392,13.106-19.308,10.088c-6.917-3.02-9.485-12.431-5.737-21.021
				c3.746-8.59,12.392-13.106,19.309-10.087C706.68,81.237,709.249,90.648,705.501,99.239z"/>
			<path fill="#DCFCF9" d="M705.314,99.073c-3.653,8.505-12.167,13.014-19.014,10.07c-6.848-2.945-9.438-12.227-5.784-20.732
				c3.653-8.505,12.167-13.014,19.015-10.07S708.968,90.567,705.314,99.073z"/>
			<path fill="#DDFCF9" d="M705.127,98.906c-3.56,8.421-11.94,12.921-18.719,10.052c-6.779-2.87-9.39-12.022-5.83-20.444
				c3.559-8.42,11.941-12.921,18.721-10.052C706.077,81.333,708.687,90.485,705.127,98.906z"/>
			<path fill="#DEFCF9" d="M704.94,98.74c-3.466,8.336-11.715,12.829-18.425,10.035c-6.711-2.795-9.342-11.818-5.876-20.155
				c3.465-8.336,11.715-12.829,18.426-10.034C705.775,81.38,708.406,90.403,704.94,98.74z"/>
			<path fill="#DFFCF9" d="M704.754,98.573c-3.372,8.252-11.489,12.736-18.131,10.017c-6.643-2.72-9.294-11.614-5.922-19.866
				c3.371-8.251,11.489-12.736,18.132-10.017C705.474,81.427,708.125,90.321,704.754,98.573z"/>
			<path fill="#E0FDF9" d="M704.566,98.407c-3.277,8.167-11.263,12.644-17.836,10c-6.573-2.646-9.245-11.41-5.968-19.578
				c3.276-8.167,11.263-12.644,17.837-9.999C705.173,81.475,707.845,90.24,704.566,98.407z"/>
			<path fill="#E1FDF9" d="M704.38,98.241c-3.184,8.082-11.037,12.551-17.542,9.982c-6.505-2.571-9.197-11.206-6.014-19.289
				c3.183-8.083,11.037-12.551,17.542-9.981S707.563,90.158,704.38,98.241z"/>
			<path fill="#E2FDFA" d="M704.193,98.074c-3.09,7.998-10.813,12.459-17.248,9.964c-6.437-2.496-9.149-11.002-6.061-19
				c3.09-7.998,10.813-12.458,17.249-9.963C704.569,81.57,707.282,90.076,704.193,98.074z"/>
			<path fill="#E3FDFA" d="M704.006,97.908c-2.995,7.913-10.586,12.366-16.953,9.947c-6.368-2.421-9.102-10.797-6.106-18.711
				c2.995-7.913,10.586-12.366,16.954-9.946C704.268,81.618,707.002,89.995,704.006,97.908z"/>
			<path fill="#E4FDFA" d="M703.819,97.742c-2.901,7.828-10.36,12.273-16.659,9.929c-6.299-2.346-9.054-10.593-6.152-18.422
				c2.901-7.828,10.36-12.273,16.66-9.928C703.967,81.666,706.721,89.913,703.819,97.742z"/>
			<path fill="#E5FDFA" d="M703.632,97.575c-2.808,7.744-10.134,12.181-16.364,9.911c-6.23-2.271-9.006-10.389-6.198-18.133
				c2.807-7.744,10.135-12.181,16.365-9.91C703.665,81.713,706.439,89.831,703.632,97.575z"/>
			<path fill="#E6FDFA" d="M703.445,97.409c-2.714,7.659-9.908,12.089-16.07,9.894c-6.162-2.196-8.958-10.185-6.244-17.844
				c2.713-7.659,9.908-12.088,16.071-9.893C703.363,81.76,706.159,89.749,703.445,97.409z"/>
			<path fill="#E7FDFB" d="M703.259,97.242c-2.62,7.575-9.684,11.996-15.776,9.876c-6.094-2.121-8.91-9.98-6.291-17.556
				c2.62-7.574,9.684-11.996,15.777-9.875C703.062,81.808,705.878,89.667,703.259,97.242z"/>
			<path fill="#E8FDFB" d="M703.071,97.076c-2.525,7.49-9.457,11.904-15.481,9.858c-6.025-2.046-8.862-9.776-6.337-17.267
				c2.525-7.49,9.458-11.903,15.483-9.857C702.76,81.855,705.597,89.585,703.071,97.076z"/>
			<path fill="#E9FDFB" d="M702.885,96.91c-2.432,7.405-9.231,11.811-15.188,9.84c-5.956-1.971-8.814-9.572-6.383-16.978
				c2.432-7.405,9.231-11.811,15.188-9.839C702.459,81.903,705.316,89.504,702.885,96.91z"/>
			<path fill="#EAFDFB" d="M702.697,96.743c-2.337,7.321-9.005,11.719-14.893,9.823c-5.888-1.896-8.767-9.368-6.429-16.689
				c2.337-7.32,9.006-11.718,14.894-9.822C702.157,81.951,705.035,89.422,702.697,96.743z"/>
			<path fill="#EBFDFB" d="M702.511,96.577c-2.243,7.236-8.779,11.626-14.599,9.805c-5.819-1.821-8.719-9.164-6.475-16.4
				c2.243-7.236,8.78-11.626,14.6-9.805C701.855,81.998,704.754,89.34,702.511,96.577z"/>
			<path fill="#ECFDFB" d="M702.324,96.41c-2.149,7.152-8.554,11.534-14.305,9.788c-5.751-1.747-8.671-8.959-6.521-16.111
				c2.149-7.151,8.554-11.533,14.305-9.787C701.554,82.046,704.474,89.259,702.324,96.41z"/>
			<path fill="#ECFEFC" d="M702.137,96.244c-2.056,7.066-8.328,11.441-14.01,9.77c-5.682-1.672-8.622-8.756-6.567-15.823
				c2.056-7.067,8.329-11.44,14.012-9.769C701.253,82.093,704.192,89.177,702.137,96.244z"/>
			<path fill="#EDFEFC" d="M701.95,96.078c-1.962,6.982-8.103,11.349-13.716,9.752c-5.613-1.597-8.574-8.552-6.613-15.534
				c1.962-6.982,8.103-11.348,13.717-9.751C700.951,82.141,703.912,89.095,701.95,96.078z"/>
			<path fill="#EEFEFC" d="M701.764,95.911c-1.868,6.897-7.877,11.256-13.422,9.735c-5.545-1.522-8.526-8.347-6.659-15.245
				c1.868-6.897,7.877-11.255,13.423-9.734C700.649,82.188,703.631,89.013,701.764,95.911z"/>
			<path fill="#EFFEFC" d="M701.576,95.745c-1.773,6.813-7.65,11.164-13.127,9.717c-5.477-1.447-8.479-8.143-6.705-14.956
				s7.651-11.163,13.128-9.716C700.348,82.236,703.35,88.932,701.576,95.745z"/>
			<path fill="#F0FEFC" d="M701.39,95.579c-1.68,6.728-7.425,11.071-12.833,9.699c-5.407-1.373-8.431-7.939-6.751-14.667
				c1.68-6.728,7.425-11.07,12.833-9.698C700.047,82.284,703.069,88.85,701.39,95.579z"/>
			<path fill="#F1FEFC" d="M701.202,95.412c-1.585,6.644-7.198,10.979-12.538,9.682c-5.339-1.297-8.383-7.735-6.797-14.378
				c1.585-6.644,7.199-10.978,12.539-9.681C699.745,82.331,702.788,88.768,701.202,95.412z"/>
			<path fill="#F2FEFD" d="M701.016,95.246c-1.491,6.559-6.974,10.886-12.244,9.664c-5.271-1.223-8.335-7.53-6.844-14.09
				c1.492-6.559,6.975-10.885,12.245-9.663C699.443,82.379,702.507,88.687,701.016,95.246z"/>
			<path fill="#F3FEFD" d="M700.829,95.079c-1.397,6.475-6.748,10.793-11.95,9.646c-5.202-1.147-8.287-7.326-6.89-13.801
				c1.398-6.474,6.748-10.793,11.951-9.646C699.142,82.426,702.227,88.604,700.829,95.079z"/>
			<path fill="#F4FEFD" d="M700.642,94.913c-1.304,6.39-6.521,10.701-11.655,9.629c-5.134-1.073-8.239-7.122-6.936-13.512
				s6.522-10.7,11.656-9.628C698.84,82.474,701.945,88.523,700.642,94.913z"/>
			<path fill="#F5FEFD" d="M700.455,94.747c-1.21,6.305-6.296,10.608-11.361,9.611c-5.064-0.998-8.191-6.918-6.981-13.223
				c1.21-6.305,6.297-10.607,11.362-9.61C698.539,82.521,701.664,88.441,700.455,94.747z"/>
			<path fill="#F6FEFD" d="M700.268,94.58c-1.115,6.221-6.069,10.516-11.066,9.593c-4.996-0.923-8.144-6.713-7.027-12.934
				c1.115-6.22,6.07-10.515,11.067-9.592C698.237,82.569,701.384,88.359,700.268,94.58z"/>
			<path fill="#F7FEFE" d="M700.081,94.414c-1.021,6.136-5.845,10.423-10.772,9.576s-8.096-6.509-7.074-12.646
				c1.022-6.135,5.846-10.422,10.774-9.574C697.936,82.617,701.103,88.277,700.081,94.414z"/>
			<path fill="#F8FEFE" d="M699.895,94.247c-0.928,6.052-5.619,10.331-10.479,9.558s-8.048-6.305-7.12-12.356
				c0.929-6.051,5.62-10.33,10.479-9.557C697.634,82.664,700.821,88.196,699.895,94.247z"/>
			<path fill="#F9FFFE" d="M699.707,94.081c-0.833,5.966-5.393,10.238-10.184,9.541c-4.79-0.699-7.999-6.102-7.166-12.068
				c0.834-5.966,5.394-10.237,10.185-9.539C697.333,82.712,700.541,88.114,699.707,94.081z"/>
			<path fill="#FAFFFE" d="M699.521,93.915c-0.739,5.882-5.167,10.146-9.89,9.523c-4.722-0.624-7.951-5.897-7.212-11.779
				c0.74-5.882,5.168-10.145,9.891-9.521C697.031,82.759,700.26,88.032,699.521,93.915z"/>
			<path fill="#FBFFFE" d="M699.334,93.748c-0.646,5.797-4.941,10.053-9.596,9.505c-4.653-0.549-7.903-5.693-7.258-11.49
				c0.646-5.797,4.941-10.053,9.596-9.504C696.729,82.807,699.979,87.951,699.334,93.748z"/>
			<path fill="#FCFFFE" d="M699.146,93.582c-0.552,5.713-4.715,9.961-9.301,9.488c-4.585-0.474-7.855-5.489-7.304-11.202
				c0.552-5.712,4.716-9.959,9.302-9.486C696.428,82.854,699.698,87.869,699.146,93.582z"/>
			<path fill="#FDFFFF" d="M698.96,93.416c-0.458,5.628-4.49,9.868-9.007,9.47c-4.516-0.399-7.808-5.285-7.351-10.913
				c0.459-5.628,4.491-9.867,9.008-9.469C696.127,82.902,699.417,87.787,698.96,93.416z"/>
			<path fill="#FEFFFF" d="M698.772,93.249c-0.363,5.543-4.264,9.775-8.712,9.452c-4.447-0.324-7.76-5.08-7.396-10.624
				c0.364-5.543,4.265-9.774,8.714-9.451C695.825,82.95,699.137,87.705,698.772,93.249z"/>
			<path fill="#FFFFFF" d="M698.586,93.083c-0.27,5.459-4.038,9.683-8.418,9.435c-4.379-0.249-7.712-4.876-7.442-10.335
				c0.271-5.458,4.039-9.682,8.419-9.433C695.523,82.997,698.855,87.624,698.586,93.083z"/>
		</g>
		<g>
			<path fill="#FFFFFF" d="M705.997,81.818c-0.339,1.865-1.798,3.165-3.257,2.906c-1.459-0.26-2.366-1.983-2.026-3.847
				c0.341-1.864,1.798-3.165,3.257-2.905S706.337,79.955,705.997,81.818z"/>
		</g>
		<g>
			<path fill="#1EC1F7" d="M723.74,206.534c-2.262,0.649-4.598,8.242-4.326,10.444c0.357,2.904,3.431,0.922,5.096,0.399
				c1.418-0.445,2.95,0.224,4.482,0.345c1.514,0.12,3.745-1.37,4.965-0.507c1.396-2.317-3.538-6.409-4.94-8.009
				c-0.749-0.854-1.867-2.744-3.004-3.091C725.051,205.821,724.678,206.367,723.74,206.534"/>
		</g>
	</g>
	<g>
		<g>
			<path fill="none" d="M722.164,206.859c1.751-0.75,3.502-0.6,5.253-0.45"/>
		</g>
		<g>
			<path fill="#C1272D" d="M722.164,208.109c1.715-0.673,3.449-0.603,5.253-0.45c-0.052-0.004,0.089-2.493,0-2.5
				c-1.804-0.153-3.538-0.223-5.253,0.45C721.864,205.727,722.431,208.004,722.164,208.109L722.164,208.109z"/>
		</g>
	</g>
</g>
</svg>