<svg width="135" height="400" xmlns="http://www.w3.org/2000/svg">
 <g>
  <g id="svg_1533">
   <g id="svg_1534">
    <g id="svg_1535">
     <path id="svg_1536" d="m72.09198,156.97701c-18,22 -33,41 -22,71.00003c9,25 33,40.99998 46,62.99998c9,15 16,36 7,51c-9,17 -38,27 -29,49" fill="none"/>
    </g>
    <g id="svg_1537">
     <path id="svg_1538" d="m72.092,155.72701c-13.2021,16.149 -25.967,32.487 -25.749,54.28499c0.255,25.50601 18.552,44.21201 34.381,62.03702c15.88,17.884 35.816,46.487 21.31,70.50598c-8.407,13.91901 -29.555,21.69 -29.661,39.935c-0.021,3.397 0.496,6.53201 1.72,9.737c-0.275,-0.72098 0.28,-1.767 0,-2.5c-7.367,-19.30099 19.103,-31.11798 27.94099,-44.672c11.353,-17.409 2.941,-40.608 -6.703,-56.591c-13.034,-21.59698 -35.102,-36.41299 -44.702,-60.30499c-5.2781,-13.13499 -5.256,-26.397 0.408,-39.33299c4.971,-11.351 13.285,-21.09401 21.056,-30.599c0.415,-0.50801 -0.402,-2.01001 -0.001,-2.5l0,0l0,0l0,0z" fill="#C1272D"/>
    </g>
   </g>
   <g id="svg_1539">
    <g id="svg_1540">
     <ellipse id="svg_1541" ry="75.805" rx="61.854" cy="80.356" cx="66.546" fill="#21C2F7"/>
     <ellipse id="svg_1542" ry="75.365" rx="61.465" cy="80.078" cx="66.286" fill="#22C3F7"/>
     <ellipse id="svg_1543" ry="74.925" rx="61.075" cy="79.8" cx="66.025" fill="#23C3F7"/>
     <ellipse id="svg_1544" ry="74.486" rx="60.686" cy="79.522" cx="65.766" fill="#24C4F7"/>
     <ellipse id="svg_1545" ry="74.046" rx="60.296" cy="79.244" cx="65.505" fill="#25C5F7"/>
     <ellipse id="svg_1546" ry="73.606" rx="59.907" cy="78.965" cx="65.246" fill="#26C5F7"/>
     <ellipse id="svg_1547" ry="73.167" rx="59.517" cy="78.688" cx="64.985" fill="#27C6F7"/>
     <ellipse id="svg_1548" ry="72.727" rx="59.127" cy="78.409" cx="64.725" fill="#28C7F8"/>
     <ellipse id="svg_1549" ry="72.288" rx="58.738" cy="78.131" cx="64.465" fill="#29C7F8"/>
     <ellipse id="svg_1550" ry="71.848" rx="58.348" cy="77.853" cx="64.205" fill="#2AC8F8"/>
     <ellipse id="svg_1551" ry="71.408" rx="57.958" cy="77.575" cx="63.945" fill="#2BC9F8"/>
     <ellipse id="svg_1552" ry="70.969" rx="57.569" cy="77.296" cx="63.685" fill="#2CC9F8"/>
     <ellipse id="svg_1553" ry="70.529" rx="57.18" cy="77.018" cx="63.425" fill="#2DCAF8"/>
     <ellipse id="svg_1554" ry="70.089" rx="56.79" cy="76.74" cx="63.165" fill="#2ECBF8"/>
     <ellipse id="svg_1555" ry="69.649" rx="56.4" cy="76.462" cx="62.905" fill="#2FCCF8"/>
     <ellipse id="svg_1556" ry="69.21" rx="56.011" cy="76.184" cx="62.645" fill="#30CCF8"/>
     <ellipse id="svg_1557" ry="68.771" rx="55.621" cy="75.905" cx="62.384" fill="#31CDF8"/>
     <ellipse id="svg_1558" ry="68.331" rx="55.231" cy="75.627" cx="62.124" fill="#32CEF8"/>
     <ellipse id="svg_1559" ry="67.891" rx="54.842" cy="75.349" cx="61.864" fill="#33CEF8"/>
     <ellipse id="svg_1560" ry="67.452" rx="54.452" cy="75.071" cx="61.604" fill="#34CFF8"/>
     <ellipse id="svg_1561" ry="67.012" rx="54.063" cy="74.792" cx="61.344" fill="#35D0F8"/>
     <ellipse id="svg_1562" ry="66.572" rx="53.673" cy="74.515" cx="61.084" fill="#36D0F9"/>
     <ellipse id="svg_1563" ry="66.132" rx="53.284" cy="74.236" cx="60.824" fill="#37D1F9"/>
     <ellipse id="svg_1564" ry="65.693" rx="52.894" cy="73.958" cx="60.563" fill="#38D2F9"/>
     <ellipse id="svg_1565" ry="65.253" rx="52.504" cy="73.68" cx="60.304" fill="#39D2F9"/>
     <ellipse id="svg_1566" ry="64.813" rx="52.115" cy="73.402" cx="60.043" fill="#3AD3F9"/>
     <ellipse id="svg_1567" ry="64.374" rx="51.725" cy="73.124" cx="59.784" fill="#3BD4F9"/>
     <ellipse id="svg_1568" ry="63.935" rx="51.335" cy="72.845" cx="59.523" fill="#3CD4F9"/>
     <ellipse id="svg_1569" ry="63.495" rx="50.946" cy="72.567" cx="59.263" fill="#3DD5F9"/>
     <ellipse id="svg_1570" ry="63.055" rx="50.556" cy="72.289" cx="59.003" fill="#3DD6F9"/>
     <ellipse id="svg_1571" ry="62.615" rx="50.167" cy="72.011" cx="58.743" fill="#3ED6F9"/>
     <ellipse id="svg_1572" ry="62.176" rx="49.777" cy="71.732" cx="58.483" fill="#3FD7F9"/>
     <ellipse id="svg_1573" ry="61.736" rx="49.388" cy="71.455" cx="58.223" fill="#40D8F9"/>
     <ellipse id="svg_1574" ry="61.296" rx="48.998" cy="71.176" cx="57.963" fill="#41D8F9"/>
     <ellipse id="svg_1575" ry="60.857" rx="48.608" cy="70.898" cx="57.703" fill="#42D9F9"/>
     <ellipse id="svg_1576" ry="60.417" rx="48.219" cy="70.62" cx="57.442" fill="#43DAFA"/>
     <ellipse id="svg_1577" ry="59.977" rx="47.829" cy="70.342" cx="57.183" fill="#44DAFA"/>
     <ellipse id="svg_1578" ry="59.538" rx="47.439" cy="70.063" cx="56.922" fill="#45DBFA"/>
     <ellipse id="svg_1579" ry="59.098" rx="47.05" cy="69.785" cx="56.662" fill="#46DCFA"/>
     <ellipse id="svg_1580" ry="58.659" rx="46.66" cy="69.507" cx="56.402" fill="#47DCFA"/>
     <ellipse id="svg_1581" ry="58.219" rx="46.271" cy="69.229" cx="56.142" fill="#48DDFA"/>
     <ellipse id="svg_1582" ry="57.779" rx="45.881" cy="68.951" cx="55.882" fill="#49DEFA"/>
     <ellipse id="svg_1583" ry="57.34" rx="45.491" cy="68.672" cx="55.622" fill="#4ADFFA"/>
     <ellipse id="svg_1584" ry="56.9" rx="45.102" cy="68.395" cx="55.362" fill="#4BDFFA"/>
     <ellipse id="svg_1585" ry="56.46" rx="44.712" cy="68.116" cx="55.102" fill="#4CE0FA"/>
     <ellipse id="svg_1586" ry="56.021" rx="44.323" cy="67.838" cx="54.841" fill="#4DE1FA"/>
     <ellipse id="svg_1587" ry="55.581" rx="43.933" cy="67.56" cx="54.582" fill="#4EE1FA"/>
     <ellipse id="svg_1588" ry="55.141" rx="43.543" cy="67.282" cx="54.322" fill="#4FE2FA"/>
     <ellipse id="svg_1589" ry="54.702" rx="43.154" cy="67.003" cx="54.061" fill="#50E3FA"/>
     <ellipse id="svg_1590" ry="54.262" rx="42.764" cy="66.725" cx="53.801" fill="#51E3FB"/>
     <ellipse id="svg_1591" ry="53.823" rx="42.375" cy="66.447" cx="53.541" fill="#52E4FB"/>
     <ellipse id="svg_1592" ry="53.383" rx="41.985" cy="66.169" cx="53.281" fill="#53E5FB"/>
     <ellipse id="svg_1593" ry="52.943" rx="41.595" cy="65.891" cx="53.021" fill="#54E5FB"/>
     <ellipse id="svg_1594" ry="52.503" rx="41.206" cy="65.612" cx="52.761" fill="#55E6FB"/>
     <ellipse id="svg_1595" ry="52.064" rx="40.816" cy="65.334" cx="52.501" fill="#56E7FB"/>
     <ellipse id="svg_1596" ry="51.624" rx="40.427" cy="65.056" cx="52.24" fill="#57E7FB"/>
     <ellipse id="svg_1597" ry="51.185" rx="40.037" cy="64.778" cx="51.98" fill="#58E8FB"/>
     <ellipse id="svg_1598" ry="50.911" rx="39.826" cy="65.33666" cx="51.81079" fill="#59E8FB" transform="matrix(1,0.0011,-0.0011,1,0.129,-0.794) "/>
     <ellipse id="svg_1599" ry="50.637" rx="39.614" cy="65.89644" cx="51.64318" fill="#5AE8FB" transform="matrix(1,0.0022,-0.0022,1,0.2585,-1.5874) "/>
     <path id="svg_1600" d="m91.03699,64.424c-0.091,27.814 -17.80798,50.30301 -39.56799,50.229s-39.32898,-22.68201 -39.237,-50.497c0.09198,-27.81499 17.80798,-50.303 39.56799,-50.229c21.76202,0.074 39.32904,22.682 39.237,50.497z" fill="#5BE8FB"/>
     <path id="svg_1601" d="m90.711,64.306c-0.122,27.664 -17.769,50.01 -39.413,49.912c-21.644,-0.098 -39.093,-22.604 -38.971,-50.267c0.122,-27.664 17.769,-50.01 39.413,-49.912s39.093,22.603 38.971,50.267l0,0z" fill="#5CE9FB"/>
     <path id="svg_1602" d="m90.384,64.188c-0.152,27.51199 -17.729,49.716 -39.256,49.59299c-21.528,-0.123 -38.856,-22.52599 -38.704,-50.03799c0.152,-27.513 17.729,-49.716 39.256,-49.593c21.528,0.123 38.857,22.526 38.704,50.038l0,0z" fill="#5DE9FB"/>
     <path id="svg_1603" d="m90.05798,64.071c-0.18402,27.36 -17.68903,49.422 -39.10101,49.274s-38.61999,-22.448 -38.43798,-49.809c0.18298,-27.361 17.68903,-49.422 39.10101,-49.274s38.61999,22.447 38.43798,49.809z" fill="#5EE9FB"/>
     <path id="svg_1604" d="m89.72998,63.953c-0.21301,27.209 -17.64899,49.12799 -38.94403,48.957c-21.29395,-0.172 -38.38397,-22.37001 -38.17096,-49.57899c0.21399,-27.21 17.64996,-49.128 38.94397,-48.95701c21.29504,0.171 38.38501,22.368 38.17102,49.579z" fill="#5FE9FB"/>
     <path id="svg_1605" d="m89.40399,63.835c-0.24402,27.05801 -17.60999,48.83401 -38.78802,48.63801c-21.17798,-0.19701 -38.14795,-22.29201 -37.90399,-49.35001c0.24402,-27.059 17.60999,-48.834 38.78802,-48.638c21.17798,0.197 38.14801,22.291 37.90399,49.35z" fill="#60E9FB"/>
     <path id="svg_1606" d="m89.07703,63.717c-0.27399,26.90699 -17.57098,48.54099 -38.63202,48.32s-37.91199,-22.21301 -37.638,-49.12c0.27405,-26.908 17.57104,-48.541 38.63202,-48.32c21.06195,0.22 37.91296,22.212 37.638,49.12z" fill="#61E9FB"/>
     <path id="svg_1607" d="m88.75098,63.599c-0.30597,26.756 -17.53197,48.24699 -38.47699,48.00101c-20.94299,-0.246 -37.67603,-22.13503 -37.37103,-48.89101c0.30603,-26.757 17.53204,-48.247 38.47705,-48.001c20.94299,0.246 37.67603,22.134 37.37097,48.891z" fill="#62EAFB"/>
     <path id="svg_1608" d="m88.42401,63.481c-0.33502,26.605 -17.492,47.95399 -38.31903,47.68399c-20.82697,-0.271 -37.43994,-22.05699 -37.10394,-48.66199c0.33496,-26.605 17.49194,-47.953 38.31897,-47.683c20.82599,0.27 37.44,22.055 37.104,48.661z" fill="#63EAFB"/>
     <path id="svg_1609" d="m88.09802,63.363c-0.36604,26.453 -17.453,47.66 -38.164,47.365c-20.71002,-0.29398 -37.20398,-21.979 -36.83801,-48.432c0.36603,-26.45399 17.453,-47.66 38.164,-47.365c20.70996,0.295 37.20398,21.978 36.83801,48.432z" fill="#64EAFB"/>
     <path id="svg_1610" d="m87.771,63.246c-0.396,26.302 -17.413,47.366 -38.007,47.046c-20.595,-0.319 -36.969,-21.901 -36.571,-48.203c0.396,-26.303 17.413,-47.366 38.007,-47.046s36.967,21.899 36.571,48.203l0,0z" fill="#65EAFB"/>
     <path id="svg_1611" d="m87.44397,63.127c-0.42798,26.151 -17.375,47.07201 -37.85199,46.729c-20.47803,-0.34401 -36.73102,-21.82301 -36.30499,-47.974c0.427,-26.152 17.37396,-47.07201 37.85199,-46.729c20.47705,0.345 36.73199,21.823 36.30499,47.974z" fill="#66EAFB"/>
     <path id="svg_1612" d="m87.117,63.01c-0.45702,25.99999 -17.33501,46.77799 -37.69501,46.41c-20.35999,-0.369 -36.495,-21.745 -36.03796,-47.745c0.45795,-26 17.33496,-46.778 37.69495,-46.41c20.36005,0.369 36.49602,21.744 36.03802,47.745z" fill="#67EAFB"/>
     <path id="svg_1613" d="m86.791,62.892c-0.488,25.849 -17.296,46.485 -37.539,46.092c-20.244,-0.393 -36.26,-21.667 -35.771,-47.515c0.487,-25.849 17.295,-46.484 37.539,-46.091c20.243,0.392 36.258,21.664 35.771,47.514l0,0z" fill="#68EAFB"/>
     <path id="svg_1614" d="m86.464,62.774c-0.519,25.697 -17.256,46.191 -37.383,45.773s-36.023,-21.588 -35.505,-47.286c0.519,-25.698 17.256,-46.191 37.383,-45.773s36.02299,21.588 35.505,47.286l0,0z" fill="#69EBFB"/>
     <path id="svg_1615" d="m86.138,62.656c-0.55,25.54601 -17.217,45.897 -37.228,45.455c-20.01,-0.442 -35.787,-21.511 -35.238,-47.057c0.549,-25.547 17.217,-45.897 37.228,-45.455c20.009,0.443 35.78699,21.51 35.238,47.057l0,0z" fill="#6AEBFB"/>
     <path id="svg_1616" d="m85.81097,62.538c-0.58002,25.395 -17.17798,45.604 -37.07001,45.137c-19.89398,-0.46701 -35.552,-21.43201 -34.97199,-46.827c0.57898,-25.396 17.177,-45.604 37.07002,-45.137c19.893,0.467 35.55199,21.432 34.97198,46.827z" fill="#6BEBFB"/>
     <path id="svg_1617" d="m85.483,62.42c-0.609,25.243 -17.138,45.31001 -36.914,44.818s-35.315,-21.354 -34.7051,-46.598c0.6101,-25.244 17.138,-45.31 36.9151,-44.818c19.777,0.492 35.315,21.354 34.704,46.598l0,0z" fill="#6CEBFB"/>
     <path id="svg_1618" d="m85.15698,62.302c-0.64099,25.092 -17.099,45.016 -36.75897,44.5c-19.66003,-0.51601 -35.07904,-21.276 -34.43805,-46.369c0.64099,-25.093 17.09902,-45.016 36.75903,-44.5c19.66003,0.517 35.07898,21.276 34.43799,46.369z" fill="#6DEBFB"/>
     <path id="svg_1619" d="m84.83002,62.185c-0.67102,24.94101 -17.05901,44.722 -36.60199,44.18201c-19.54401,-0.541 -34.84399,-21.19801 -34.172,-46.13901c0.67096,-24.94199 17.05896,-44.722 36.60297,-44.182c19.54303,0.54 34.84302,21.197 34.17102,46.139z" fill="#6EEBFA"/>
     <path id="svg_1620" d="m84.504,62.067c-0.702,24.79 -17.02,44.428 -36.446,43.863s-34.6069,-21.12 -33.905,-45.91c0.701,-24.791 17.02,-44.428 36.4461,-43.863s34.6059,21.119 33.9049,45.91l0,0z" fill="#6FECFA"/>
     <path id="svg_1621" d="m84.177,61.949c-0.73103,24.639 -16.979,44.135 -36.28998,43.54501c-19.31,-0.59 -34.37,-21.04201 -33.63904,-45.68c0.73199,-24.64 16.98004,-44.135 36.29102,-43.54501c19.31,0.589 34.37,21.041 33.638,45.68z" fill="#70ECFA"/>
     <path id="svg_1622" d="m83.851,61.831c-0.763,24.487 -16.94099,43.841 -36.134,43.227c-19.193,-0.614 -34.135,-20.963 -33.372,-45.451c0.763,-24.488 16.94,-43.841 36.134,-43.227c19.193,0.614 34.134,20.963 33.372,45.451l0,0z" fill="#71ECFA"/>
     <path id="svg_1623" d="m83.523,61.713c-0.793,24.336 -16.901,43.547 -35.978,42.909s-33.898,-20.885 -33.105,-45.222c0.793,-24.337 16.901,-43.547 35.978,-42.908c19.077,0.638 33.899,20.884 33.105,45.221l0,0z" fill="#72ECFA"/>
     <path id="svg_1624" d="m83.19702,61.595c-0.82397,24.185 -16.862,43.25301 -35.82202,42.59c-18.95898,-0.66399 -33.66199,-20.808 -32.83899,-44.992c0.82404,-24.186 16.862,-43.253 35.82202,-42.59s33.66296,20.80701 32.83899,44.992z" fill="#73ECFA"/>
     <path id="svg_1625" d="m82.87,61.478c-0.854,24.033 -16.82202,42.959 -35.66498,42.272c-18.84302,-0.688 -33.427,-20.729 -32.57202,-44.763c0.854,-24.034 16.82202,-42.959 35.66498,-42.272c18.84302,0.687 33.427,20.728 32.57202,44.763z" fill="#74ECFA"/>
     <path id="svg_1626" d="m82.54401,61.359c-0.88501,23.882 -16.78302,42.66599 -35.51001,41.954s-33.19,-20.651 -32.30597,-44.534s16.78296,-42.666 35.51001,-41.953c18.72595,0.71301 33.19098,20.65 32.30597,44.533z" fill="#75ECFA"/>
     <path id="svg_1627" d="m82.217,61.242c-0.915,23.731 -16.744,42.372 -35.354,41.635c-18.609,-0.737 -32.954,-20.573 -32.039,-44.304c0.915,-23.732 16.744,-42.372 35.354,-41.635s32.954,20.572 32.039,44.304l0,0z" fill="#76EDFA"/>
     <path id="svg_1628" d="m81.89099,61.124c-0.94598,23.57999 -16.70502,42.079 -35.19702,41.31699c-18.49298,-0.76199 -32.71899,-20.495 -31.77197,-44.075c0.94501,-23.58099 16.70398,-42.078 35.19702,-41.31699c18.49097,0.76199 32.71698,20.494 31.77197,44.075z" fill="#77EDFA"/>
     <path id="svg_1629" d="m81.56299,61.006c-0.97699,23.429 -16.66498,41.785 -35.04102,40.99901s-32.48199,-20.41702 -31.50598,-43.845c0.97699,-23.43 16.66498,-41.785 35.04102,-40.999s32.48297,20.41499 31.50598,43.84499z" fill="#78EDFA"/>
     <path id="svg_1630" d="m81.237,60.888c-1.00702,23.278 -16.62598,41.491 -34.88501,40.681c-18.26001,-0.811 -32.24597,-20.338 -31.23901,-43.616c1.00604,-23.278 16.625,-41.491 34.88501,-40.68c18.25903,0.81 32.24603,20.336 31.23901,43.615z" fill="#79EDFA"/>
     <path id="svg_1631" d="m80.90997,60.77c-1.03699,23.126 -16.58601,41.197 -34.729,40.36201c-18.14301,-0.83501 -32.01001,-20.261 -30.97302,-43.387c1.03705,-23.12701 16.586,-41.19701 34.729,-40.362s32.01007,20.25999 30.97302,43.38699z" fill="#7AEDFA"/>
     <path id="svg_1632" d="m80.58398,60.652c-1.06799,22.975 -16.547,40.90299 -34.57301,40.04301c-18.02502,-0.86 -31.77301,-20.18201 -30.70598,-43.15701c1.06701,-22.97601 16.547,-40.904 34.573,-40.044c18.02502,0.85999 31.77301,20.182 30.70599,43.158z" fill="#7BEDFA"/>
     <path id="svg_1633" d="m80.25702,60.534c-1.099,22.82401 -16.508,40.61 -34.41602,39.726c-17.909,-0.884 -31.53796,-20.10399 -30.43896,-42.92799c1.09796,-22.824 16.50696,-40.61 34.41595,-39.725c17.909,0.884 31.53699,20.102 30.43903,42.92699z" fill="#7CEEFA"/>
     <path id="svg_1634" d="m79.93103,60.417c-1.12903,22.672 -16.46899,40.316 -34.26099,39.40701c-17.79303,-0.90901 -31.302,-20.026 -30.17303,-42.69901c1.12903,-22.673 16.46802,-40.316 34.26105,-39.407c17.79193,0.908 31.30096,20.02499 30.17297,42.699z" fill="#7DEEFA"/>
     <path id="svg_1635" d="m79.604,60.298c-1.159,22.521 -16.42902,40.02201 -34.104,39.089c-17.67603,-0.93399 -31.065,-19.948 -29.90601,-42.46999c1.159,-22.522 16.42902,-40.022 34.104,-39.089s31.065,19.948 29.90601,42.46999z" fill="#7EEEFA"/>
     <path id="svg_1636" d="m79.276,60.181c-1.189,22.37 -16.389,39.729 -33.947,38.771c-17.56,-0.958 -30.83,-19.87 -29.64,-42.24c1.189,-22.371 16.389,-39.729 33.948,-38.771c17.559,0.958 30.83,19.869 29.639,42.24l0,0z" fill="#7FEEFA"/>
     <path id="svg_1637" d="m78.95001,60.063c-1.22102,22.21899 -16.34998,39.435 -33.79199,38.452c-17.44202,-0.983 -30.59399,-19.79199 -29.37299,-42.011c1.21997,-22.22 16.34998,-39.435 33.79199,-38.452c17.44299,0.983 30.59399,19.791 29.37299,42.011z" fill="#80EEFA"/>
     <path id="svg_1638" d="m78.623,59.945c-1.25,22.068 -16.311,39.141 -33.636,38.134c-17.325,-1.007 -30.357,-19.714 -29.106,-41.782c1.251,-22.068 16.311,-39.141 33.637,-38.134c17.325,1.008 30.356,19.713 29.105,41.782l0,0z" fill="#81EEFA"/>
     <path id="svg_1639" d="m78.297,59.827c-1.28101,21.91599 -16.271,38.84699 -33.479,37.81499c-17.20898,-1.032 -30.12097,-19.63499 -28.83997,-41.552c1.27997,-21.917 16.271,-38.848 33.47894,-37.81599s30.12103,19.636 28.84003,41.553z" fill="#82EFFA"/>
     <path id="svg_1640" d="m77.97,59.709c-1.312,21.765 -16.2311,38.554 -33.323,37.498c-17.092,-1.057 -29.885,-19.558 -28.573,-41.323c1.312,-21.766 16.231,-38.554 33.3239,-37.497c17.0911,1.056 29.8841,19.556 28.5721,41.322l0,0z" fill="#83EFFA"/>
     <path id="svg_1641" d="m77.64398,59.591c-1.34303,21.614 -16.19202,38.25999 -33.16803,37.179c-16.97498,-1.08101 -29.64795,-19.479 -28.30695,-41.094c1.34296,-21.61401 16.19196,-38.26 33.16797,-37.179s29.64801,19.48 28.30701,41.094z" fill="#84EFFA"/>
     <path id="svg_1642" d="m77.316,59.474c-1.373,21.462 -16.152,37.966 -33.011,36.86c-16.859,-1.105 -29.413,-19.401 -28.0401,-40.864c1.3721,-21.463 16.1521,-37.966 33.0121,-36.861c16.859,1.106 29.412,19.401 28.039,40.865l0,0z" fill="#85EFFA"/>
     <path id="svg_1643" d="m76.98999,59.355c-1.40302,21.312 -16.11401,37.67199 -32.85498,36.542c-16.742,-1.13 -29.177,-19.32301 -27.77301,-40.635c1.40302,-21.312 16.11298,-37.672 32.85498,-36.54199c16.742,1.13099 29.177,19.32299 27.77301,40.63499z" fill="#86EFFA"/>
     <path id="svg_1644" d="m76.663,59.238c-1.43401,21.16 -16.0739,37.378 -32.6989,36.224c-16.625,-1.155 -28.9401,-19.245 -27.5071,-40.405c1.434,-21.161 16.074,-37.379 32.7,-36.224c16.624,1.154 28.941,19.244 27.506,40.405l0,0l0,0z" fill="#87EFFA"/>
     <path id="svg_1645" d="m76.33698,59.12c-1.46497,21.009 -16.03497,37.085 -32.54297,35.906c-16.50903,-1.18001 -28.70502,-19.167 -27.24005,-40.176c1.46405,-21.01 16.03401,-37.085 32.54303,-35.906c16.50703,1.179 28.70404,19.166 27.23999,40.176z" fill="#88EFFA"/>
     <path id="svg_1646" d="m76.01001,59.002c-1.495,20.858 -15.995,36.791 -32.38702,35.58701s-28.46899,-19.089 -26.974,-39.94701c1.49402,-20.858 15.995,-36.791 32.388,-35.587c16.39099,1.204 28.46802,19.089 26.97302,39.947z" fill="#89F0FA"/>
     <path id="svg_1647" d="m75.684,58.884c-1.525,20.707 -15.956,36.498 -32.231,35.27c-16.274,-1.229 -28.232,-19.011 -26.707,-39.717c1.525,-20.707 15.956,-36.498 32.231,-35.269c16.274,1.227 28.232,19.009 26.707,39.716l0,0z" fill="#8AF0FA"/>
     <path id="svg_1648" d="m75.356,58.766c-1.556,20.555 -15.916,36.204 -32.0739,34.951c-16.1581,-1.25301 -27.99609,-18.93301 -26.44,-39.488s15.9159,-36.204 32.07491,-34.951c16.157,1.253 27.995,18.932 26.43899,39.488l0,0z" fill="#8BF0FA"/>
     <path id="svg_1649" d="m75.03003,58.648c-1.58698,20.404 -15.87799,35.91 -31.91901,34.632s-27.76001,-18.854 -26.17401,-39.258c1.586,-20.40501 15.87701,-35.91 31.91901,-34.633c16.04095,1.278 27.76001,18.855 26.17401,39.259z" fill="#8CF0FA"/>
     <path id="svg_1650" d="m74.703,58.53c-1.617,20.253 -15.838,35.616 -31.763,34.314c-15.925,-1.302 -27.523,-18.776 -25.907,-39.029c1.617,-20.253 15.838,-35.616 31.763,-34.314c15.925,1.302 27.524,18.776 25.907,39.029l0,0z" fill="#8DF0FA"/>
     <path id="svg_1651" d="m74.377,58.413c-1.647,20.102 -15.799,35.322 -31.606,33.996c-15.809,-1.327 -27.288,-18.698 -25.641,-38.8c1.646,-20.102 15.798,-35.322 31.606,-33.996c15.808,1.326 27.288,18.697 25.641,38.8l0,0z" fill="#8EF0FA"/>
     <path id="svg_1652" d="m74.04999,58.294c-1.67798,19.951 -15.75897,35.029 -31.45001,33.678s-27.052,-18.62 -25.37396,-38.57c1.67798,-19.951 15.75897,-35.029 31.44995,-33.678s27.05206,18.619 25.37402,38.57z" fill="#8FF1FA"/>
     <path id="svg_1653" d="m73.723,58.177c-1.708,19.799 -15.719,34.735 -31.293,33.359c-15.575,-1.376 -26.816,-18.542 -25.107,-38.341c1.708,-19.8 15.719,-34.735 31.294,-33.359c15.573,1.375 26.815,18.541 25.106,38.341l0,0z" fill="#90F1FA"/>
     <path id="svg_1654" d="m73.396,58.059c-1.73901,19.648 -15.681,34.441 -31.138,33.041c-15.458,-1.4 -26.58,-18.464 -24.841,-38.112c1.738,-19.648 15.68,-34.441 31.138,-33.041c15.459,1.4 26.581,18.463 24.841,38.112l0,0z" fill="#91F1FA"/>
     <path id="svg_1655" d="m73.06897,57.941c-1.76898,19.497 -15.64099,34.147 -30.98102,32.723s-26.34399,-18.385 -24.57397,-37.882s15.64099,-34.147 30.98199,-32.723c15.341,1.424 26.34302,18.384 24.573,37.882z" fill="#92F1FA"/>
     <path id="svg_1656" d="m72.74298,57.823c-1.79999,19.345 -15.60199,33.854 -30.82501,32.40401c-15.22498,-1.45001 -26.10797,-18.30801 -24.30798,-37.65301c1.79901,-19.346 15.60101,-33.854 30.82501,-32.404c15.22498,1.45 26.10803,18.307 24.30798,37.653z" fill="#93F1FA"/>
     <path id="svg_1657" d="m72.416,57.705c-1.83,19.194 -15.562,33.56 -30.669,32.086c-15.107,-1.474 -25.871,-18.229 -24.041,-37.424c1.83,-19.195 15.562,-33.56 30.67,-32.086c15.107,1.474 25.871,18.229 24.04,37.424l0,0z" fill="#94F1FA"/>
     <path id="svg_1658" d="m72.09003,57.587c-1.86102,19.043 -15.52197,33.266 -30.51398,31.768c-14.99103,-1.49899 -25.63501,-18.15099 -23.77405,-37.19499s15.52203,-33.26601 30.51404,-31.76801s25.63495,18.151 23.77399,37.195z" fill="#95F1FA"/>
     <path id="svg_1659" d="m71.763,57.47c-1.892,18.892 -15.483,32.972 -30.356,31.449c-14.875,-1.52299 -25.399,-18.073 -23.508,-36.965c1.891,-18.893 15.482,-32.973 30.357,-31.45c14.874,1.523 25.398,18.073 23.507,36.966l0,0z" fill="#96F2FA"/>
     <path id="svg_1660" d="m71.43701,57.352c-1.922,18.741 -15.44403,32.67901 -30.20099,31.131c-14.758,-1.548 -25.16302,-17.995 -23.24103,-36.736c1.922,-18.741 15.44299,-32.679 30.20099,-31.131c14.75702,1.548 25.16199,17.994 23.24103,36.736z" fill="#97F2FA"/>
     <path id="svg_1661" d="m71.10901,57.234c-1.95203,18.589 -15.40399,32.385 -30.04498,30.813c-14.64099,-1.573 -24.927,-17.917 -22.97504,-36.507s15.40399,-32.385 30.04602,-30.813c14.64099,1.57301 24.92798,17.917 22.974,36.507z" fill="#98F2FA"/>
     <path id="svg_1662" d="m70.783,57.116c-1.98299,18.438 -15.365,32.091 -29.889,30.495c-14.524,-1.597 -24.691,-17.839 -22.708,-36.277c1.982,-18.438 15.365,-32.091 29.889,-30.495s24.691,17.838 22.708,36.277l0,0z" fill="#99F2F9"/>
     <path id="svg_1663" d="m70.456,56.998c-2.014,18.287 -15.325,31.797 -29.732,30.176c-14.407,-1.622 -24.455,-17.761 -22.441,-36.048c2.013,-18.287 15.326,-31.797 29.733,-30.176c14.406,1.622 24.454,17.76 22.44,36.048l0,0z" fill="#9AF2F9"/>
     <path id="svg_1664" d="m70.13,56.88c-2.04401,18.136 -15.28601,31.50401 -29.57697,29.85801c-14.29004,-1.646 -24.21906,-17.68301 -22.17505,-35.81801c2.04401,-18.136 15.28705,-31.504 29.57703,-29.858s24.21899,17.68201 22.17499,35.818z" fill="#9BF2F9"/>
     <path id="svg_1665" d="m69.80298,56.762c-2.07397,17.984 -15.24701,31.21 -29.41998,29.54c-14.17401,-1.67 -23.98303,-17.604 -21.90802,-35.589c2.07397,-17.985 15.24701,-31.21 29.42102,-29.54c14.172,1.67101 23.98199,17.604 21.90698,35.589z" fill="#9CF3F9"/>
     <path id="svg_1666" d="m69.47699,56.645c-2.10498,17.833 -15.20801,30.91601 -29.26501,29.221c-14.05798,-1.69498 -23.74701,-17.526 -21.64197,-35.36c2.104,-17.833 15.20801,-30.916 29.26495,-29.22099c14.05707,1.695 23.74603,17.52599 21.64203,35.35999z" fill="#9DF3F9"/>
     <path id="svg_1667" d="m69.14899,56.526c-2.13599,17.682 -15.16796,30.623 -29.10797,28.903c-13.94,-1.72 -23.51001,-17.448 -21.375,-35.13c2.13599,-17.68301 15.16895,-30.623 29.10895,-28.903c13.94006,1.71999 23.51001,17.448 21.37402,35.13z" fill="#9EF3F9"/>
     <path id="svg_1668" d="m68.823,56.409c-2.16602,17.53101 -15.12903,30.32901 -28.95203,28.58501c-13.82397,-1.74501 -23.27399,-17.371 -21.10797,-34.90102c2.16498,-17.531 15.12903,-30.32899 28.95203,-28.58398s23.27399,17.368 21.10797,34.89999z" fill="#9FF3F9"/>
     <path id="svg_1669" d="m68.49597,56.291c-2.19598,17.38 -15.08899,30.035 -28.79602,28.267c-13.70697,-1.769 -23.03796,-17.292 -20.84198,-34.672s15.09003,-30.035 28.797,-28.266c13.70605,1.768 23.03705,17.291 20.841,34.671z" fill="#A0F3F9"/>
     <path id="svg_1670" d="m68.16998,56.173c-2.22803,17.228 -15.05103,29.741 -28.64099,27.94801c-13.59003,-1.793 -22.802,-17.214 -20.57501,-34.442s15.05103,-29.741 28.64099,-27.948c13.59003,1.793 22.80103,17.213 20.57501,34.44199z" fill="#A1F3F9"/>
     <path id="svg_1671" d="m67.84302,56.055c-2.258,17.077 -15.01099,29.447 -28.48297,27.63c-13.474,-1.81799 -22.56604,-17.13599 -20.30902,-34.213c2.25702,-17.077 15.01099,-29.447 28.48401,-27.629c13.47296,1.817 22.56598,17.13499 20.30798,34.212z" fill="#A2F3F9"/>
     <path id="svg_1672" d="m67.516,55.937c-2.288,16.926 -14.971,29.154 -28.327,27.312s-22.33,-17.058 -20.042,-33.983c2.288,-16.926 14.972,-29.154 28.328,-27.312s22.329,17.057 20.041,33.983l0,0z" fill="#A3F4F9"/>
     <path id="svg_1673" d="m67.189,55.819c-2.318,16.774 -14.932,28.86 -28.171,26.993c-13.24,-1.867 -22.095,-16.979 -19.775,-33.754c2.3171,-16.775 14.9321,-28.86 28.1721,-26.993c13.2389,1.867 22.0929,16.979 19.7739,33.754l0,0z" fill="#A4F4F9"/>
     <path id="svg_1674" d="m66.862,55.701c-2.349,16.624 -14.892,28.566 -28.015,26.675c-13.124,-1.892 -21.858,-16.901 -19.509,-33.525c2.349,-16.624 14.893,-28.566 28.016,-26.674s21.858,16.9 19.508,33.524l0,0z" fill="#A5F4F9"/>
     <path id="svg_1675" d="m66.53601,55.583c-2.38,16.472 -14.854,28.272 -27.85901,26.356c-13.00702,-1.916 -21.62201,-16.82301 -19.242,-33.295c2.37903,-16.473 14.854,-28.272 27.85901,-26.356c13.00702,1.916 21.62201,16.823 19.242,33.295z" fill="#A6F4F9"/>
     <path id="svg_1676" d="m66.209,55.466c-2.41,16.321 -14.813,27.979 -27.702,26.038c-12.891,-1.94099 -21.386,-16.745 -18.976,-33.066c2.409,-16.321 14.813,-27.979 27.703,-26.038c12.89,1.94 21.385,16.744 18.975,33.066l0,0z" fill="#A7F4F9"/>
     <path id="svg_1677" d="m65.883,55.348c-2.44,16.169 -14.77399,27.68501 -27.547,25.71999c-12.77301,-1.966 -21.14899,-16.66699 -18.70898,-32.83699s14.77399,-27.68501 27.547,-25.72c12.77301,1.965 21.14899,16.666 18.70898,32.837z" fill="#A8F4F9"/>
     <path id="svg_1678" d="m65.556,55.23c-2.471,16.018 -14.734,27.391 -27.391,25.402c-12.656,-1.99001 -20.913,-16.589 -18.442,-32.60801s14.735,-27.391 27.3921,-25.401s20.9119,16.588 18.4409,32.607l0,0z" fill="#A9F5F9"/>
     <path id="svg_1679" d="m65.229,55.112c-2.502,15.867 -14.695,27.098 -27.234,25.083c-12.54,-2.015 -20.678,-16.511 -18.176,-32.378c2.501,-15.867 14.695,-27.097 27.234,-25.083c12.541,2.015 20.677,16.51 18.17599,32.378l0,0z" fill="#AAF5F9"/>
     <path id="svg_1680" d="m64.90198,54.994c-2.53198,15.716 -14.65497,26.804 -27.078,24.765c-12.42297,-2.039 -20.44098,-16.43301 -17.909,-32.149c2.53101,-15.716 14.65601,-26.804 27.07898,-24.76499c12.42303,2.03899 20.44104,16.43199 17.90802,32.14899z" fill="#ABF5F9"/>
     <path id="svg_1681" d="m64.57599,54.876c-2.56299,15.565 -14.617,26.51 -26.92297,24.447c-12.30603,-2.064 -20.20502,-16.355 -17.64301,-31.92s14.617,-26.51 26.92297,-24.446s20.20599,16.354 17.64301,31.919z" fill="#ACF5F9"/>
     <path id="svg_1682" d="m64.249,54.758c-2.593,15.414 -14.577,26.216 -26.766,24.128c-12.19,-2.08801 -19.97,-16.276 -17.376,-31.69c2.592,-15.414 14.577,-26.216 26.767,-24.128c12.189,2.088 19.969,16.276 17.375,31.69l0,0z" fill="#ADF5F9"/>
     <path id="svg_1683" d="m63.92297,54.641c-2.62402,15.262 -14.53802,25.922 -26.60999,23.81001c-12.073,-2.11301 -19.73303,-16.19801 -17.10901,-31.46101c2.62299,-15.263 14.53796,-25.922 26.60999,-23.81c12.07202,2.112 19.73206,16.197 17.10901,31.461z" fill="#AEF5F9"/>
     <path id="svg_1684" d="m63.596,54.522c-2.654,15.111 -14.498,25.629 -26.454,23.492c-11.956,-2.138 -19.497,-16.121 -16.843,-31.232s14.499,-25.628 26.455,-23.491c11.955,2.138 19.496,16.12 16.842,31.231l0,0z" fill="#AFF5F9"/>
     <path id="svg_1685" d="m63.27,54.405c-2.686,14.959 -14.459,25.335 -26.298,23.173c-11.84,-2.162 -19.261,-16.042 -16.576,-31.002c2.684,-14.96 14.459,-25.335 26.298,-23.173s19.26,16.041 16.576,31.002l0,0z" fill="#B0F6F9"/>
     <path id="svg_1686" d="m62.942,54.287c-2.715,14.809 -14.42,25.042 -26.142,22.855c-11.723,-2.187 -19.024,-15.964 -16.31,-30.773c2.715,-14.809 14.42,-25.041 26.143,-22.855c11.722,2.187 19.024,15.964 16.309,30.773l0,0z" fill="#B1F6F9"/>
     <path id="svg_1687" d="m62.61603,54.169c-2.74597,14.657 -14.38098,24.74801 -25.98602,22.537c-11.60498,-2.211 -18.78796,-15.886 -16.04297,-30.543c2.745,-14.658 14.38098,-24.748 25.98602,-22.537c11.60596,2.21 18.78796,15.885 16.04297,30.543z" fill="#B2F6F9"/>
     <path id="svg_1688" d="m62.289,54.051c-2.776,14.506 -14.341,24.454 -25.829,22.219c-11.489,-2.236 -18.553,-15.80799 -15.776,-30.314c2.775,-14.506 14.341,-24.454 25.83,-22.218c11.488,2.235 18.551,15.806 15.775,30.313l0,0z" fill="#B3F6F9"/>
     <path id="svg_1689" d="m61.96301,53.933c-2.80798,14.355 -14.302,24.16 -25.67401,21.9c-11.37201,-2.26 -18.31598,-15.729 -15.51001,-30.085c2.80603,-14.355 14.302,-24.16 25.67401,-21.9c11.37201,2.261 18.31702,15.73 15.51001,30.085z" fill="#B4F6F9"/>
     <path id="svg_1690" d="m61.636,53.815c-2.837,14.204 -14.262,23.866 -25.518,21.582c-11.256,-2.285 -18.08,-15.652 -15.243,-29.855c2.837,-14.204 14.263,-23.866 25.519,-21.582c11.254,2.285 18.079,15.651 15.242,29.855l0,0z" fill="#B5F6F9"/>
     <path id="svg_1691" d="m61.309,53.697c-2.867,14.053 -14.222,23.573 -25.36,21.264c-11.14,-2.31 -17.845,-15.574 -14.977,-29.626c2.867,-14.053 14.223,-23.572 25.361,-21.263s17.844,15.573 14.976,29.625l0,0z" fill="#B6F7F9"/>
     <path id="svg_1692" d="m60.982,53.58c-2.898,13.901 -14.184,23.279 -25.205,20.945c-11.022,-2.334 -17.608,-15.495 -14.71,-29.396c2.897,-13.901 14.184,-23.279 25.206,-20.945c11.022,2.333 17.608,15.494 14.709,29.396l0,0z" fill="#B7F7F9"/>
     <path id="svg_1693" d="m60.655,53.462c-2.929,13.75 -14.1439,22.985 -25.049,20.627c-10.905,-2.35899 -17.372,-15.417 -14.443,-29.167s14.145,-22.985 25.05,-20.627c10.905,2.358 17.371,15.416 14.442,29.167l0,0z" fill="#B8F7F9"/>
     <path id="svg_1694" d="m60.32898,53.344c-2.95898,13.599 -14.104,22.691 -24.89301,20.309c-10.789,-2.383 -17.13599,-15.339 -14.177,-28.938c2.95801,-13.599 14.104,-22.69099 24.89398,-20.308c10.78802,2.382 17.13507,15.33801 14.17603,28.937z" fill="#B9F7F9"/>
     <path id="svg_1695" d="m60.002,53.226c-2.989,13.44699 -14.064,22.397 -24.736,19.99c-10.672,-2.408 -16.899,-15.261 -13.91,-28.708s14.065,-22.398 24.737,-19.99c10.672,2.407 16.899,15.26 13.909,28.708l0,0z" fill="#BAF7F9"/>
     <path id="svg_1696" d="m59.67603,53.108c-3.021,13.296 -14.02502,22.104 -24.58002,19.672c-10.55597,-2.432 -16.664,-15.183 -13.64398,-28.479c3.02002,-13.29601 14.02502,-22.104 24.58099,-19.672c10.55499,2.432 16.66296,15.182 13.64301,28.479z" fill="#BBF7F9"/>
     <path id="svg_1697" d="m59.349,52.99c-3.051,13.145 -13.986,21.81 -24.424,19.354c-10.438,-2.457 -16.428,-15.105 -13.377,-28.25c3.05,-13.146 13.986,-21.811 24.425,-19.354s16.426,15.105 13.376,28.25l0,0z" fill="#BCF8F9"/>
     <path id="svg_1698" d="m59.02197,52.873c-3.08203,12.994 -13.94702,21.516 -24.26898,19.035c-10.32202,-2.481 -16.19104,-15.02599 -13.11005,-28.021s13.94702,-21.517 24.27002,-19.035c10.32104,2.481 16.19104,15.026 13.10901,28.021z" fill="#BDF8F9"/>
     <path id="svg_1699" d="m58.695,52.754c-3.111,12.843 -13.907,21.223 -24.111,18.717c-10.206,-2.506 -15.956,-14.948 -12.844,-27.792c3.11,-12.843 13.907,-21.223 24.112,-18.717c10.205,2.507 15.956,14.949 12.843,27.792l0,0z" fill="#BEF8F9"/>
     <path id="svg_1700" d="m58.36902,52.637c-3.14301,12.691 -13.86798,20.929 -23.95599,18.399c-10.08899,-2.53101 -15.72003,-14.871 -12.57703,-27.562c3.14203,-12.691 13.86804,-20.929 23.95703,-18.399c10.08698,2.53001 15.71796,14.87 12.57599,27.562z" fill="#BFF8F9"/>
     <path id="svg_1701" d="m58.04199,52.519c-3.17297,12.54 -13.828,20.635 -23.79999,18.081c-9.97198,-2.555 -15.48303,-14.792 -12.31104,-27.333c3.172,-12.54 13.82904,-20.63499 23.80103,-18.08c9.97101,2.554 15.48303,14.791 12.31,27.332z" fill="#C0F8F9"/>
     <path id="svg_1702" d="m57.716,52.401c-3.20398,12.389 -13.78998,20.341 -23.64398,17.762c-9.85504,-2.58 -15.24805,-14.714 -12.04401,-27.103c3.20197,-12.389 13.789,-20.342 23.64398,-17.762c9.854,2.579 15.24701,14.71301 12.04401,27.103z" fill="#C1F8F9"/>
     <path id="svg_1703" d="m57.38898,52.283c-3.23297,12.23801 -13.75,20.048 -23.487,17.444c-9.73798,-2.604 -15.01099,-14.63599 -11.77698,-26.874s13.75,-20.048 23.48798,-17.444c9.737,2.604 15.01001,14.636 11.776,26.874z" fill="#C2F8F9"/>
     <path id="svg_1704" d="m57.06299,52.165c-3.26501,12.086 -13.711,19.754 -23.33197,17.126c-9.62103,-2.629 -14.77405,-14.558 -11.51105,-26.645c3.26404,-12.08601 13.711,-19.75401 23.33203,-17.125c9.62097,2.628 14.77399,14.557 11.51099,26.644z" fill="#C3F9F9"/>
     <path id="svg_1705" d="m56.73499,52.047c-3.29498,11.93501 -13.67102,19.46001 -23.17499,16.807c-9.505,-2.653 -14.539,-14.479 -11.24402,-26.41499c3.29401,-11.936 13.67102,-19.46001 23.17603,-16.807c9.50397,2.653 14.53802,14.479 11.24298,26.41499z" fill="#C4F9F8"/>
     <path id="svg_1706" d="m56.409,51.929c-3.326,11.784 -13.632,19.167 -23.02,16.489c-9.389,-2.678 -14.303,-14.402 -10.978,-26.186c3.324,-11.784 13.632,-19.167 23.02,-16.489s14.303,14.402 10.978,26.186l0,0z" fill="#C5F9F8"/>
     <path id="svg_1707" d="m56.082,51.812c-3.355,11.633 -13.592,18.873 -22.863,16.171c-9.271,-2.703 -14.066,-14.324 -10.711,-25.957c3.355,-11.633 13.5929,-18.873 22.8639,-16.17c9.2711,2.702 14.0661,14.322 10.7101,25.956l0,0z" fill="#C6F9F8"/>
     <path id="svg_1708" d="m55.755,51.693c-3.38599,11.481 -13.55298,18.579 -22.70599,15.853c-9.15503,-2.727 -13.83099,-14.245 -10.44403,-25.727c3.38605,-11.481 13.55304,-18.579 22.70703,-15.852c9.15399,2.726 13.83002,14.244 10.44299,25.726z" fill="#C7F9F8"/>
     <path id="svg_1709" d="m55.429,51.576c-3.417,11.33 -13.514,18.285 -22.551,15.534c-9.038,-2.751 -13.595,-14.167 -10.178,-25.498c3.416,-11.33 13.5141,-18.285 22.552,-15.534c9.037,2.752 13.594,14.167 10.177,25.498l0,0z" fill="#C8F9F8"/>
     <path id="svg_1710" d="m55.10199,51.458c-3.44702,11.179 -13.474,17.991 -22.39502,15.216c-8.92096,-2.776 -13.35797,-14.089 -9.91101,-25.269s13.47504,-17.992 22.39606,-15.216s13.35797,14.089 9.90997,25.269z" fill="#C9FAF8"/>
     <path id="svg_1711" d="m54.775,51.34c-3.478,11.028 -13.435,17.698 -22.238,14.898c-8.805,-2.801 -13.123,-14.011 -9.645,-25.04c3.477,-11.028 13.435,-17.698 22.239,-14.897c8.805,2.801 13.122,14.011 9.644,25.039l0,0z" fill="#CAFAF8"/>
     <path id="svg_1712" d="m54.448,51.222c-3.508,10.876 -13.39502,17.404 -22.08197,14.579c-8.68805,-2.825 -12.88702,-13.93301 -9.37805,-24.81001c3.508,-10.876 13.396,-17.404 22.08301,-14.57899s12.88599,13.933 9.37701,24.81z" fill="#CBFAF8"/>
     <path id="svg_1713" d="m54.122,51.104c-3.539,10.726 -13.356,17.11 -21.927,14.261c-8.57,-2.85 -12.649,-13.855 -9.111,-24.581s13.356,-17.11 21.928,-14.261c8.57,2.851 12.649,13.855 9.11,24.581l0,0z" fill="#CCFAF8"/>
     <path id="svg_1714" d="m53.79498,50.986c-3.56903,10.574 -13.31598,16.816 -21.77002,13.943c-8.45496,-2.875 -12.414,-13.777 -8.84497,-24.352c3.56799,-10.57401 13.31598,-16.816 21.771,-13.942c8.45404,2.875 12.41302,13.777 8.84399,24.351z" fill="#CDFAF8"/>
     <path id="svg_1715" d="m53.469,50.869c-3.601,10.422 -13.277,16.522 -21.614,13.624c-8.338,-2.89899 -12.178,-13.699 -8.578,-24.122s13.277,-16.523 21.615,-13.624c8.337,2.899 12.176,13.698 8.577,24.122l0,0z" fill="#CEFAF8"/>
     <path id="svg_1716" d="m53.14203,50.75c-3.63,10.271 -13.237,16.229 -21.45697,13.306c-8.22205,-2.924 -11.94202,-13.621 -8.31201,-23.893c3.62897,-10.271 13.237,-16.229 21.45801,-13.306s11.94092,13.62199 8.31097,23.893z" fill="#CFFAF8"/>
     <path id="svg_1717" d="m52.815,50.633c-3.661,10.12 -13.198,15.935 -21.302,12.988c-8.104,-2.948 -11.706,-13.542 -8.045,-23.664c3.66,-10.12 13.198,-15.935 21.303,-12.987c8.103,2.948 11.706,13.542 8.044,23.663l0,0z" fill="#D0FBF8"/>
     <path id="svg_1718" d="m52.48798,50.515c-3.69098,9.969 -13.159,15.642 -21.146,12.669c-7.987,-2.973 -11.46997,-13.464 -7.77802,-23.434c3.69,-9.969 13.159,-15.642 21.146,-12.669c7.98706,2.973 11.47003,13.464 7.77802,23.434z" fill="#D1FBF8"/>
     <path id="svg_1719" d="m52.162,50.397c-3.723,9.818 -13.12,15.348 -20.989,12.351c-7.871,-2.998 -11.234,-13.386 -7.512,-23.205c3.721,-9.818 13.119,-15.348 20.99,-12.351c7.87,2.998 11.233,13.387 7.511,23.205l0,0z" fill="#D2FBF8"/>
     <path id="svg_1720" d="m51.835,50.279c-3.752,9.667 -13.08,15.054 -20.833,12.033c-7.754,-3.022 -10.998,-13.308 -7.245,-22.975c3.752,-9.667 13.08,-15.054 20.834,-12.033c7.753,3.022 10.997,13.308 7.244,22.975l0,0z" fill="#D3FBF8"/>
     <path id="svg_1721" d="m51.509,50.161c-3.7831,9.516 -13.0411,14.76 -20.678,11.715c-7.637,-3.047 -10.762,-13.23 -6.979,-22.746c3.782,-9.516 13.0409,-14.76 20.6789,-11.714c7.6361,3.046 10.7601,13.229 6.9781,22.745l0,0z" fill="#D4FBF8"/>
     <path id="svg_1722" d="m51.182,50.043c-3.813,9.364 -13.001,14.466 -20.521,11.396c-7.521,-3.071 -10.525,-13.152 -6.712,-22.517c3.813,-9.364 13.001,-14.466 20.521,-11.396c7.52,3.072 10.525,13.153 6.712,22.517l0,0z" fill="#D5FBF8"/>
     <path id="svg_1723" d="m50.855,49.925c-3.845,9.213 -12.962,14.173 -20.365,11.078c-7.404,-3.096 -10.289,-13.074 -6.445,-22.287c3.843,-9.213 12.962,-14.173 20.3659,-11.078c7.4021,3.096 10.2881,13.074 6.4441,22.287l0,0z" fill="#D6FCF8"/>
     <path id="svg_1724" d="m50.52802,49.808c-3.87402,9.062 -12.92303,13.879 -20.20898,10.76c-7.28699,-3.121 -10.05304,-12.996 -6.17902,-22.058c3.87402,-9.062 12.92303,-13.87901 20.21002,-10.759c7.28699,3.119 10.05298,12.994 6.17798,22.057z" fill="#D7FCF8"/>
     <path id="svg_1725" d="m50.202,49.689c-3.9049,8.911 -12.8839,13.585 -20.053,10.441c-7.171,-3.145 -9.817,-12.917 -5.912,-21.828c3.903,-8.911 12.8831,-13.585 20.054,-10.441c7.169,3.145 9.815,12.918 5.911,21.828l0,0z" fill="#D8FCF8"/>
     <ellipse id="svg_1726" ry="17.388" rx="14.001" cy="317.04278" cx="74.23857" fill="#D9FCF8" transform="matrix(0.9122,0.4098,-0.4098,0.9122,99.339,-275.8161) "/>
     <ellipse id="svg_1727" ry="17.179" rx="13.832" cy="313.77471" cx="72.99228" fill="#DAFCF8" transform="matrix(0.9143,0.405,-0.405,0.9143,97.3788,-272.6552) "/>
     <path id="svg_1728" d="m49.501,49.239c-3.747,8.59 -12.392,13.106 -19.308,10.088c-6.917,-3.02 -9.485,-12.431 -5.737,-21.021c3.746,-8.59 12.392,-13.106 19.309,-10.087c6.915,3.018 9.484,12.429 5.736,21.02l0,0z" fill="#DBFCF8"/>
     <path id="svg_1729" d="m49.314,49.073c-3.653,8.505 -12.167,13.014 -19.0139,10.07c-6.8481,-2.945 -9.4381,-12.227 -5.784,-20.732c3.6529,-8.505 12.1669,-13.014 19.0149,-10.07s9.437,12.226 5.783,20.732l0,0z" fill="#DCFCF9"/>
     <path id="svg_1730" d="m49.12701,48.906c-3.56,8.42101 -11.94,12.92101 -18.71899,10.052c-6.77899,-2.87 -9.39001,-12.022 -5.83002,-20.444c3.55902,-8.42 11.94098,-12.921 18.72101,-10.052c6.77802,2.871 9.388,12.023 5.828,20.444z" fill="#DDFCF9"/>
     <path id="svg_1731" d="m48.94,48.74c-3.466,8.336 -11.71503,12.829 -18.42499,10.035c-6.711,-2.795 -9.34204,-11.818 -5.87604,-20.155c3.46503,-8.33601 11.71503,-12.829 18.42603,-10.034c6.71002,2.794 9.341,11.817 5.875,20.154z" fill="#DEFCF9"/>
     <path id="svg_1732" d="m48.75403,48.573c-3.37201,8.252 -11.48901,12.736 -18.13098,10.017c-6.64301,-2.71999 -9.29401,-11.614 -5.922,-19.866c3.37097,-8.251 11.48895,-12.736 18.13196,-10.017c6.64099,2.72 9.29199,11.614 5.92102,19.866z" fill="#DFFCF9"/>
     <path id="svg_1733" d="m48.56598,48.407c-3.27698,8.167 -11.263,12.644 -17.836,10c-6.573,-2.646 -9.245,-11.41 -5.96802,-19.578c3.276,-8.167 11.263,-12.644 17.83704,-9.999c6.57397,2.645 9.24597,11.41 5.96698,19.577z" fill="#E0FDF9"/>
     <path id="svg_1734" d="m48.38,48.241c-3.184,8.082 -11.037,12.551 -17.542,9.982c-6.505,-2.571 -9.197,-11.206 -6.014,-19.289c3.183,-8.083 11.037,-12.551 17.542,-9.981s9.197,11.205 6.014,19.288l0,0z" fill="#E1FDF9"/>
     <path id="svg_1735" d="m48.193,48.074c-3.09,7.998 -10.813,12.459 -17.248,9.964c-6.437,-2.496 -9.1491,-11.002 -6.061,-19c3.09,-7.998 10.8129,-12.458 17.249,-9.963c6.436,2.495 9.149,11.001 6.06,18.999l0,0z" fill="#E2FDFA"/>
     <path id="svg_1736" d="m48.00598,47.908c-2.995,7.913 -10.586,12.366 -16.953,9.94701c-6.36798,-2.42101 -9.10199,-10.797 -6.10602,-18.71101c2.995,-7.91299 10.586,-12.366 16.95404,-9.946c6.367,2.42 9.10101,10.797 6.10498,18.71z" fill="#E3FDFA"/>
     <path id="svg_1737" d="m47.819,47.742c-2.901,7.828 -10.36,12.273 -16.659,9.929c-6.299,-2.346 -9.0541,-10.593 -6.152,-18.422c2.901,-7.828 10.36,-12.273 16.66,-9.928c6.299,2.345 9.053,10.592 6.151,18.421l0,0z" fill="#E4FDFA"/>
     <path id="svg_1738" d="m47.63202,47.575c-2.80798,7.744 -10.13397,12.181 -16.36401,9.911c-6.22998,-2.271 -9.00598,-10.389 -6.198,-18.133c2.80701,-7.744 10.13501,-12.181 16.36499,-9.91c6.22998,2.27 9.00403,10.388 6.19702,18.132z" fill="#E5FDFA"/>
     <path id="svg_1739" d="m47.445,47.409c-2.714,7.659 -9.908,12.089 -16.07,9.894c-6.162,-2.196 -8.958,-10.185 -6.244,-17.844c2.713,-7.659 9.908,-12.088 16.071,-9.893c6.161,2.194 8.957,10.183 6.243,17.843l0,0z" fill="#E6FDFA"/>
     <path id="svg_1740" d="m47.25897,47.242c-2.62,7.575 -9.68402,11.996 -15.776,9.876c-6.09399,-2.12099 -8.90997,-9.98 -6.29102,-17.556c2.62,-7.574 9.68402,-11.99599 15.77704,-9.875c6.09302,2.121 8.909,9.98 6.28998,17.555z" fill="#E7FDFB"/>
     <path id="svg_1741" d="m47.071,47.076c-2.525,7.49 -9.4571,11.904 -15.481,9.858c-6.025,-2.046 -8.862,-9.776 -6.337,-17.267c2.5249,-7.49 9.458,-11.903 15.483,-9.857c6.024,2.045 8.861,9.775 6.335,17.266l0,0z" fill="#E8FDFB"/>
     <path id="svg_1742" d="m46.885,46.91c-2.432,7.405 -9.231,11.811 -15.188,9.84c-5.956,-1.971 -8.814,-9.572 -6.383,-16.978c2.432,-7.405 9.231,-11.811 15.188,-9.839c5.957,1.97 8.814,9.571 6.383,16.977l0,0z" fill="#E9FDFB"/>
     <path id="svg_1743" d="m46.697,46.743c-2.337,7.321 -9.005,11.719 -14.893,9.823c-5.888,-1.896 -8.767,-9.368 -6.429,-16.689c2.337,-7.32 9.006,-11.718 14.894,-9.822c5.888,1.896 8.766,9.367 6.428,16.688l0,0z" fill="#EAFDFB"/>
     <path id="svg_1744" d="m46.51099,46.577c-2.24298,7.236 -8.77899,11.626 -14.599,9.805c-5.81897,-1.82101 -8.71899,-9.164 -6.47498,-16.4c2.24298,-7.236 8.77997,-11.626 14.59998,-9.805c5.81799,1.821 8.71704,9.16299 6.474,16.4z" fill="#EBFDFB"/>
     <path id="svg_1745" d="m46.32397,46.41c-2.14899,7.15199 -8.55402,11.534 -14.30499,9.78799c-5.75104,-1.747 -8.67102,-8.959 -6.521,-16.111c2.14899,-7.151 8.55396,-11.533 14.30499,-9.78699c5.75104,1.74599 8.67102,8.959 6.521,16.11z" fill="#ECFDFB"/>
     <path id="svg_1746" d="m46.137,46.244c-2.056,7.066 -8.328,11.441 -14.01,9.77c-5.682,-1.672 -8.622,-8.756 -6.567,-15.823c2.056,-7.067 8.329,-11.44 14.012,-9.769c5.681,1.671 8.62,8.755 6.565,15.822l0,0z" fill="#ECFEFC"/>
     <path id="svg_1747" d="m45.95001,46.078c-1.96198,6.98199 -8.10303,11.349 -13.716,9.752c-5.61298,-1.597 -8.57397,-8.552 -6.61298,-15.534c1.96198,-6.98199 8.10297,-11.348 13.71698,-9.751c5.61298,1.596 8.57397,8.55 6.612,15.533z" fill="#EDFEFC"/>
     <path id="svg_1748" d="m45.764,45.911c-1.868,6.897 -7.877,11.256 -13.422,9.735c-5.545,-1.522 -8.526,-8.347 -6.659,-15.245c1.868,-6.897 7.877,-11.255 13.4229,-9.734c5.5431,1.521 8.5251,8.346 6.6581,15.244l0,0z" fill="#EEFEFC"/>
     <path id="svg_1749" d="m45.57599,45.745c-1.77301,6.813 -7.65002,11.16399 -13.12701,9.717c-5.47699,-1.447 -8.479,-8.143 -6.70496,-14.956s7.651,-11.16299 13.12799,-9.716c5.47601,1.446 8.47797,8.142 6.70398,14.955z" fill="#EFFEFC"/>
     <path id="svg_1750" d="m45.39001,45.579c-1.67999,6.728 -7.42499,11.071 -12.83301,9.699c-5.40698,-1.373 -8.43097,-7.939 -6.75098,-14.667c1.67999,-6.728 7.42499,-11.07 12.83301,-9.698c5.40796,1.37099 8.42993,7.937 6.75098,14.666z" fill="#F0FEFC"/>
     <path id="svg_1751" d="m45.20203,45.412c-1.58502,6.644 -7.198,10.979 -12.53802,9.682c-5.33899,-1.297 -8.383,-7.735 -6.797,-14.378c1.58502,-6.644 7.19904,-10.978 12.539,-9.681c5.33899,1.296 8.38202,7.73299 6.79602,14.377z" fill="#F1FEFC"/>
     <path id="svg_1752" d="m45.016,45.246c-1.491,6.559 -6.974,10.886 -12.244,9.664c-5.271,-1.223 -8.335,-7.53 -6.844,-14.09c1.492,-6.559 6.975,-10.885 12.245,-9.663c5.27,1.222 8.334,7.53 6.843,14.089l0,0z" fill="#F2FEFD"/>
     <path id="svg_1753" d="m44.829,45.079c-1.397,6.475 -6.748,10.793 -11.95,9.646c-5.202,-1.147 -8.287,-7.326 -6.89,-13.801c1.398,-6.474 6.748,-10.793 11.951,-9.646c5.202,1.148 8.287,7.326 6.889,13.801l0,0z" fill="#F3FEFD"/>
     <path id="svg_1754" d="m44.64203,44.913c-1.30402,6.39 -6.521,10.701 -11.65497,9.629c-5.13403,-1.073 -8.23901,-7.122 -6.93604,-13.512s6.52203,-10.7 11.65601,-9.628c5.133,1.072 8.23798,7.121 6.935,13.511z" fill="#F4FEFD"/>
     <path id="svg_1755" d="m44.45502,44.747c-1.21002,6.305 -6.29602,10.608 -11.36102,9.611c-5.06396,-0.998 -8.19098,-6.918 -6.98096,-13.223c1.20996,-6.305 6.297,-10.607 11.362,-9.61c5.06396,0.996 8.18896,6.916 6.97998,13.222z" fill="#F5FEFD"/>
     <path id="svg_1756" d="m44.268,44.58c-1.115,6.221 -6.069,10.516 -11.066,9.593c-4.996,-0.923 -8.144,-6.713 -7.027,-12.934c1.115,-6.22 6.07,-10.515 11.067,-9.592c4.995,0.922 8.142,6.712 7.026,12.933l0,0z" fill="#F6FEFD"/>
     <path id="svg_1757" d="m44.081,44.414c-1.021,6.136 -5.845,10.423 -10.772,9.576s-8.096,-6.509 -7.074,-12.646c1.022,-6.135 5.846,-10.422 10.774,-9.574c4.927,0.847 8.094,6.507 7.072,12.644l0,0z" fill="#F7FEFE"/>
     <path id="svg_1758" d="m43.89502,44.247c-0.92798,6.052 -5.61902,10.331 -10.479,9.558s-8.04797,-6.305 -7.12,-12.356c0.92902,-6.05099 5.62,-10.32999 10.479,-9.557c4.85895,0.772 8.04596,6.304 7.12,12.355z" fill="#F8FEFE"/>
     <path id="svg_1759" d="m43.707,44.081c-0.833,5.966 -5.393,10.238 -10.1841,9.541c-4.7899,-0.699 -7.9989,-6.102 -7.1659,-12.068c0.834,-5.966 5.394,-10.237 10.185,-9.539c4.791,0.697 7.999,6.099 7.165,12.066l0,0z" fill="#F9FFFE"/>
     <path id="svg_1760" d="m43.521,43.915c-0.739,5.882 -5.167,10.146 -9.89,9.523c-4.722,-0.624 -7.951,-5.897 -7.212,-11.779c0.74,-5.882 5.168,-10.145 9.891,-9.521c4.721,0.621 7.95,5.894 7.211,11.777l0,0z" fill="#FAFFFE"/>
     <path id="svg_1761" d="m43.33398,43.748c-0.646,5.797 -4.94098,10.053 -9.59601,9.505c-4.65302,-0.549 -7.90302,-5.693 -7.258,-11.49c0.646,-5.797 4.94098,-10.053 9.59601,-9.504c4.65302,0.548 7.90302,5.69199 7.258,11.489z" fill="#FBFFFE"/>
     <path id="svg_1762" d="m43.146,43.582c-0.552,5.713 -4.715,9.961 -9.301,9.488c-4.585,-0.474 -7.855,-5.489 -7.304,-11.202c0.552,-5.712 4.716,-9.959 9.302,-9.486c4.585,0.472 7.855,5.487 7.303,11.2l0,0z" fill="#FCFFFE"/>
     <path id="svg_1763" d="m42.96,43.416c-0.458,5.628 -4.49,9.868 -9.007,9.47c-4.516,-0.399 -7.808,-5.285 -7.351,-10.913c0.459,-5.628 4.491,-9.867 9.0081,-9.469c4.5169,0.398 7.8069,5.283 7.3499,10.912l0,0z" fill="#FDFFFF"/>
     <path id="svg_1764" d="m42.772,43.249c-0.363,5.543 -4.264,9.775 -8.712,9.452c-4.447,-0.324 -7.76,-5.08 -7.3961,-10.624c0.364,-5.543 4.265,-9.774 8.7141,-9.451c4.447,0.324 7.759,5.079 7.394,10.623l0,0z" fill="#FEFFFF"/>
     <path id="svg_1765" d="m42.586,43.083c-0.27002,5.459 -4.03802,9.683 -8.41797,9.435c-4.37903,-0.249 -7.71204,-4.876 -7.44202,-10.335c0.271,-5.458 4.039,-9.682 8.41901,-9.433c4.37799,0.247 7.70996,4.874 7.44098,10.333z" fill="#FFFFFF"/>
    </g>
    <g id="svg_1766">
     <path id="svg_1767" d="m49.99701,31.818c-0.33899,1.865 -1.79797,3.165 -3.25702,2.906c-1.45898,-0.26 -2.36597,-1.983 -2.026,-3.847c0.341,-1.864 1.79803,-3.165 3.25702,-2.905s2.36597,1.983 2.026,3.846z" fill="#FFFFFF"/>
    </g>
    <g id="svg_1768">
     <path id="svg_1769" d="m67.73999,156.534c-2.26202,0.649 -4.59802,8.242 -4.32599,10.444c0.35699,2.90401 3.43097,0.922 5.09601,0.399c1.41797,-0.44499 2.94995,0.224 4.48199,0.345c1.51398,0.12 3.745,-1.37 4.96497,-0.507c1.396,-2.317 -3.53796,-6.409 -4.94,-8.009c-0.74895,-0.85399 -1.867,-2.74399 -3.00397,-3.09099c-0.96198,-0.29401 -1.33502,0.252 -2.27301,0.41899" fill="#1EC1F7"/>
    </g>
   </g>
   <g id="svg_1770">
    <g id="svg_1771">
     <path id="svg_1772" d="m66.164,156.85899c1.75098,-0.75 3.50201,-0.60001 5.25299,-0.45" fill="none"/>
    </g>
    <g id="svg_1773">
     <path id="svg_1774" d="m66.164,158.10899c1.71503,-0.673 3.44897,-0.603 5.25299,-0.45c-0.052,-0.00401 0.08899,-2.49301 0,-2.5c-1.80402,-0.153 -3.53796,-0.22302 -5.25299,0.45c-0.29999,0.11801 0.26703,2.39499 0,2.5l0,0z" fill="#C1272D"/>
    </g>
   </g>
  </g>
 </g>
</svg>