<svg width="135" height="410" xmlns="http://www.w3.org/2000/svg">
 <g>
  <g id="svg_381">
   <g id="svg_382">
    <g id="svg_383">
     <path fill="none" d="m77.58099,146.097c-11.744,10.524 -51.269,31.004 -47.11501,48.3c4.217,18.32399 47.306,22.39999 60.99001,26.72699c16.80099,4.651 37.002,14.25601 37.23,34.888c0.06,26.32001 -38.131,34.849 -56.23399,42.664c-17.076,7.75299 -29.97501,16.28302 -33.44,35.59302c-4.92601,29.20499 45.258,39.56 61.239,56.133" id="svg_384"/>
    </g>
    <g id="svg_385">
     <path fill="#C1272D" d="m77.581,144.847c-13.836,12.149 -31.615,19.808 -43.008,34.73399c-3.105,4.06801 -4.701,8.59001 -4.412,13.68001c0.418,7.36099 6.474,12.04199 12.481,15.28101c15.116,8.14799 32.676,8.881 48.813,13.83099c17.951,5.508 45.06599,19.089 35.084,42.62801c-6.985,16.474 -29.035,23.00598 -44.292,28.62c-19.604,7.21399 -38.897,17.10999 -43.237,39.396c-2.712,13.92902 6.442,24.39801 17.256,31.80801c13.961,9.565 31.927,14.668 43.983,26.82498c-0.407,-0.41 0.426,-2.07001 0,-2.5c-12.006,-12.10599 -29.965,-17.457 -43.983,-26.82498c-6.64,-4.43802 -13.018,-9.98001 -16.119,-17.51801c-3.895,-9.46402 1.479,-20.94702 7.528,-28.30402c12.498,-15.19598 34.108,-19.45898 51.341,-26.92099c14.787,-6.40201 29.729,-16.129 29.68101,-33.90401c-0.104,-37.60699 -54.02901,-37.06999 -79.29501,-46.61099c-6.602,-2.493 -13.71,-6.021 -17.493,-12.256c-3.931,-6.48201 1.025,-13.088 5.322,-17.961c11.42,-12.95201 27.528,-20.246 40.348,-31.50301c0.42599,-0.37199 -0.4,-2.147 0.002,-2.5l0,0l0,0z" id="svg_386"/>
    </g>
   </g>
   <g id="svg_387">
    <g id="svg_388">
     <ellipse fill="#8FD61D" cx="66.243" cy="79.166" rx="61.854" ry="75.805" id="svg_389"/>
     <ellipse fill="#90D61D" cx="65.988" cy="78.893" rx="61.472" ry="75.373" id="svg_390"/>
     <ellipse fill="#91D71E" cx="65.732" cy="78.62" rx="61.089" ry="74.94" id="svg_391"/>
     <ellipse fill="#92D71E" cx="65.477" cy="78.346" rx="60.706" ry="74.509" id="svg_392"/>
     <ellipse fill="#93D71F" cx="65.221" cy="78.073" rx="60.323" ry="74.077" id="svg_393"/>
     <ellipse fill="#94D81F" cx="64.966" cy="77.799" rx="59.941" ry="73.645" id="svg_394"/>
     <ellipse fill="#95D820" cx="64.71" cy="77.526" rx="59.558" ry="73.213" id="svg_395"/>
     <ellipse fill="#96D920" cx="64.454" cy="77.253" rx="59.175" ry="72.781" id="svg_396"/>
     <ellipse fill="#97D921" cx="64.199" cy="76.979" rx="58.792" ry="72.349" id="svg_397"/>
     <ellipse fill="#98D921" cx="63.943" cy="76.706" rx="58.41" ry="71.917" id="svg_398"/>
     <ellipse fill="#99DA22" cx="63.688" cy="76.433" rx="58.027" ry="71.485" id="svg_399"/>
     <ellipse fill="#9ADA22" cx="63.432" cy="76.16" rx="57.644" ry="71.053" id="svg_400"/>
     <ellipse fill="#9BDA22" cx="63.177" cy="75.886" rx="57.261" ry="70.622" id="svg_401"/>
     <ellipse fill="#9CDB23" cx="62.921" cy="75.613" rx="56.878" ry="70.19" id="svg_402"/>
     <ellipse fill="#9DDB23" cx="62.666" cy="75.34" rx="56.496" ry="69.757" id="svg_403"/>
     <ellipse fill="#9EDC24" cx="62.41" cy="75.066" rx="56.113" ry="69.326" id="svg_404"/>
     <ellipse fill="#9FDC24" cx="62.155" cy="74.793" rx="55.73" ry="68.894" id="svg_405"/>
     <ellipse fill="#A0DC25" cx="61.899" cy="74.52" rx="55.347" ry="68.462" id="svg_406"/>
     <ellipse fill="#A1DD25" cx="61.644" cy="74.247" rx="54.965" ry="68.03" id="svg_407"/>
     <ellipse fill="#A2DD26" cx="61.388" cy="73.973" rx="54.582" ry="67.598" id="svg_408"/>
     <ellipse fill="#A3DD26" cx="61.133" cy="73.7" rx="54.199" ry="67.166" id="svg_409"/>
     <ellipse fill="#A4DE27" cx="60.877" cy="73.427" rx="53.816" ry="66.734" id="svg_410"/>
     <ellipse fill="#A5DE27" cx="60.622" cy="73.153" rx="53.434" ry="66.302" id="svg_411"/>
     <ellipse fill="#A6DE27" cx="60.366" cy="72.88" rx="53.051" ry="65.87" id="svg_412"/>
     <ellipse fill="#A7DF28" cx="60.111" cy="72.606" rx="52.668" ry="65.438" id="svg_413"/>
     <ellipse fill="#A8DF28" cx="59.855" cy="72.333" rx="52.285" ry="65.006" id="svg_414"/>
     <ellipse fill="#A9E029" cx="59.599" cy="72.06" rx="51.903" ry="64.574" id="svg_415"/>
     <ellipse fill="#AAE029" cx="59.344" cy="71.787" rx="51.52" ry="64.143" id="svg_416"/>
     <ellipse fill="#ABE02A" cx="59.088" cy="71.513" rx="51.137" ry="63.711" id="svg_417"/>
     <ellipse fill="#ABE12A" cx="58.833" cy="71.24" rx="50.754" ry="63.278" id="svg_418"/>
     <ellipse fill="#ACE12B" cx="58.577" cy="70.967" rx="50.372" ry="62.847" id="svg_419"/>
     <ellipse fill="#ADE12B" cx="58.322" cy="70.693" rx="49.989" ry="62.415" id="svg_420"/>
     <ellipse fill="#AEE22C" cx="58.066" cy="70.42" rx="49.606" ry="61.983" id="svg_421"/>
     <ellipse fill="#AFE22C" cx="57.811" cy="70.147" rx="49.223" ry="61.551" id="svg_422"/>
     <ellipse fill="#B0E32D" cx="57.555" cy="69.874" rx="48.84" ry="61.119" id="svg_423"/>
     <ellipse fill="#B1E32D" cx="57.3" cy="69.6" rx="48.458" ry="60.687" id="svg_424"/>
     <ellipse fill="#B2E32D" cx="57.044" cy="69.327" rx="48.075" ry="60.255" id="svg_425"/>
     <ellipse fill="#B3E42E" cx="56.789" cy="69.054" rx="47.692" ry="59.823" id="svg_426"/>
     <ellipse fill="#B4E42E" cx="56.533" cy="68.78" rx="47.309" ry="59.391" id="svg_427"/>
     <ellipse fill="#B5E42F" cx="56.278" cy="68.507" rx="46.927" ry="58.959" id="svg_428"/>
     <ellipse fill="#B6E52F" cx="56.022" cy="68.234" rx="46.544" ry="58.527" id="svg_429"/>
     <ellipse fill="#B7E530" cx="55.767" cy="67.96" rx="46.161" ry="58.095" id="svg_430"/>
     <ellipse fill="#B8E530" cx="55.511" cy="67.687" rx="45.778" ry="57.664" id="svg_431"/>
     <ellipse fill="#B9E631" cx="55.255" cy="67.414" rx="45.396" ry="57.232" id="svg_432"/>
     <ellipse fill="#BAE631" cx="55" cy="67.141" rx="45.013" ry="56.799" id="svg_433"/>
     <ellipse fill="#BBE732" cx="54.744" cy="66.867" rx="44.63" ry="56.368" id="svg_434"/>
     <ellipse fill="#BCE732" cx="54.489" cy="66.594" rx="44.247" ry="55.936" id="svg_435"/>
     <ellipse fill="#BDE732" cx="54.233" cy="66.32" rx="43.865" ry="55.504" id="svg_436"/>
     <ellipse fill="#BEE833" cx="53.978" cy="66.047" rx="43.482" ry="55.072" id="svg_437"/>
     <ellipse fill="#BFE833" cx="53.722" cy="65.774" rx="43.099" ry="54.64" id="svg_438"/>
     <ellipse fill="#C0E834" cx="53.467" cy="65.5" rx="42.716" ry="54.208" id="svg_439"/>
     <ellipse fill="#C1E934" cx="53.211" cy="65.227" rx="42.333" ry="53.776" id="svg_440"/>
     <ellipse fill="#C2E935" cx="52.956" cy="64.954" rx="41.951" ry="53.344" id="svg_441"/>
     <ellipse fill="#C3EA35" cx="52.7" cy="64.681" rx="41.568" ry="52.912" id="svg_442"/>
     <ellipse fill="#C4EA36" cx="52.445" cy="64.407" rx="41.185" ry="52.48" id="svg_443"/>
     <ellipse fill="#C5EA36" cx="52.189" cy="64.134" rx="40.802" ry="52.049" id="svg_444"/>
     <ellipse fill="#C6EB37" cx="51.933" cy="63.861" rx="40.42" ry="51.616" id="svg_445"/>
     <ellipse fill="#C7EB37" cx="51.678" cy="63.587" rx="40.037" ry="51.185" id="svg_446"/>
     <path fill="#C8EB37" d="m90.872,63.283c-0.079,27.878 -17.82401,50.427 -39.634,50.363c-21.811,-0.063 -39.428,-22.715 -39.35,-50.593c0.079,-27.879 17.824,-50.427 39.635,-50.363c21.81,0.064 39.428,22.714 39.349,50.593l0,0z" id="svg_447"/>
     <path fill="#C9EC36" d="m90.02901,62.979c-0.15799,27.488 -17.722,49.669 -39.231,49.542c-21.50999,-0.12701 -38.819,-22.51399 -38.66199,-50.001c0.157,-27.489 17.722,-49.66899 39.23099,-49.542c21.50999,0.127 38.81999,22.513 38.662,50.001z" id="svg_448"/>
     <path fill="#CAEC36" d="m89.186,62.675c-0.236,27.098 -17.62,48.911 -38.828,48.721c-21.208,-0.19 -38.209,-22.312 -37.974,-49.41c0.236,-27.098 17.621,-48.911 38.829,-48.721c21.208,0.191 38.209,22.312 37.973,49.41l0,0z" id="svg_449"/>
     <path fill="#CBEC35" d="m88.343,62.371c-0.314,26.707 -17.519,48.153 -38.425,47.899c-20.907,-0.253 -37.601,-22.10999 -37.286,-48.818c0.315,-26.708 17.519,-48.153 38.426,-47.899c20.907,0.254 37.6,22.11 37.285,48.818l0,0z" id="svg_450"/>
     <path fill="#CCED35" d="m87.5,62.067c-0.394,26.317 -17.417,47.395 -38.022,47.078c-20.606,-0.31699 -36.992,-21.909 -36.598,-48.226c0.394,-26.318 17.417,-47.395 38.023,-47.078c20.606,0.317 36.991,21.908 36.597,48.226l0,0z" id="svg_451"/>
     <path fill="#CDED34" d="m86.658,61.763c-0.472,25.927 -17.31499,46.63699 -37.62,46.257c-20.30499,-0.38 -36.383,-21.70801 -35.91,-47.634c0.472,-25.928 17.315,-46.638 37.62,-46.257c20.304,0.38 36.382,21.706 35.91,47.634z" id="svg_452"/>
     <path fill="#CEED34" d="m85.815,61.458c-0.55099,25.53699 -17.214,45.87901 -37.217,45.436c-20.00301,-0.444 -35.77301,-21.506 -35.222,-47.042c0.55099,-25.53799 17.21399,-45.88 37.21799,-45.436c20.002,0.444 35.772,21.505 35.22101,47.042z" id="svg_453"/>
     <path fill="#CFEE33" d="m84.972,61.154c-0.63,25.147 -17.112,45.122 -36.814,44.615s-35.164,-21.304 -34.53401,-46.451c0.62901,-25.147 17.112,-45.122 36.81401,-44.615s35.164,21.304 34.534,46.451z" id="svg_454"/>
     <path fill="#D0EE33" d="m84.129,60.85c-0.70798,24.757 -17.011,44.36401 -36.412,43.79301c-19.401,-0.57001 -34.55499,-21.103 -33.847,-45.85901c0.70801,-24.757 17.011,-44.364 36.412,-43.793c19.40201,0.571 34.55501,21.102 33.847,45.859z" id="svg_455"/>
     <path fill="#D1EE33" d="m83.286,60.546c-0.787,24.366 -16.909,43.606 -36.008,42.972c-19.1,-0.634 -33.946,-20.901 -33.159,-45.268c0.787,-24.367 16.909,-43.606 36.009,-42.972c19.1,0.635 33.945,20.901 33.158,45.268l0,0z" id="svg_456"/>
     <path fill="#D2EF32" d="m82.44299,60.242c-0.866,23.97601 -16.80701,42.848 -35.605,42.15101c-18.79901,-0.69701 -33.33701,-20.7 -32.471,-44.676c0.866,-23.97701 16.808,-42.848 35.60599,-42.151c18.798,0.698 33.33601,20.699 32.47001,44.67599z" id="svg_457"/>
     <path fill="#D3EF32" d="m81.601,59.938c-0.944,23.586 -16.70599,42.09 -35.203,41.33s-32.728,-20.49799 -31.78299,-44.08399c0.944,-23.58601 16.70599,-42.09 35.20299,-41.33001s32.72701,20.497 31.783,44.084z" id="svg_458"/>
     <path fill="#D4EF31" d="m80.758,59.634c-1.02299,23.196 -16.604,41.33299 -34.8,40.509c-18.196,-0.82401 -32.11899,-20.297 -31.09499,-43.493c1.02299,-23.196 16.60399,-41.332 34.801,-40.508c18.19499,0.823 32.117,20.295 31.09399,43.492z" id="svg_459"/>
     <path fill="#D5F031" d="m79.915,59.33c-1.102,22.806 -16.502,40.575 -34.397,39.688c-17.896,-0.888 -31.51,-20.095 -30.407,-42.901c1.102,-22.806 16.502,-40.574 34.397,-39.687c17.895,0.886 31.509,20.093 30.407,42.9l0,0z" id="svg_460"/>
     <path fill="#D6F030" d="m79.072,59.025c-1.181,22.416 -16.401,39.817 -33.995,38.866c-17.594,-0.951 -30.9,-19.893 -29.72,-42.309s16.401,-39.816 33.995,-38.866c17.595,0.951 30.901,19.893 29.72,42.309l0,0z" id="svg_461"/>
     <path fill="#D7F030" d="m78.229,58.722c-1.259,22.025 -16.299,39.059 -33.592,38.044s-30.291,-19.691 -29.031,-41.717c1.259,-22.026 16.299,-39.059 33.592,-38.045s30.291,19.691 29.03099,41.718l0,0z" id="svg_462"/>
     <path fill="#D8F130" d="m77.386,58.417c-1.33801,21.635 -16.197,38.301 -33.189,37.224c-16.992,-1.078 -29.682,-19.49 -28.344,-41.125c1.338,-21.636 16.197,-38.301 33.189,-37.224c16.993,1.078 29.683,19.489 28.344,41.125l0,0z" id="svg_463"/>
     <path fill="#D9F12F" d="m76.543,58.113c-1.41699,21.245 -16.09599,37.54301 -32.786,36.402c-16.69101,-1.14101 -29.073,-19.289 -27.65601,-40.534c1.41701,-21.246 16.09601,-37.543 32.786,-36.402s29.07301,19.289 27.65601,40.534z" id="svg_464"/>
     <path fill="#DAF12F" d="m75.701,57.809c-1.495,20.854 -15.994,36.785 -32.38301,35.581c-16.38998,-1.20399 -28.46399,-19.087 -26.968,-39.942c1.49599,-20.855 15.99399,-36.785 32.384,-35.581c16.388,1.204 28.46201,19.087 26.96701,39.942z" id="svg_465"/>
     <path fill="#DBF22E" d="m74.858,57.505c-1.57401,20.465 -15.89301,36.027 -31.98,34.76c-16.08801,-1.26801 -27.85501,-18.886 -26.28,-39.35101c1.57399,-20.465 15.892,-36.027 31.98,-34.75999s27.854,18.886 26.28,39.351z" id="svg_466"/>
     <path fill="#DCF22E" d="m74.015,57.201c-1.653,20.075 -15.791,35.27 -31.578,33.939c-15.787,-1.33099 -27.246,-18.684 -25.592,-38.759c1.653,-20.075 15.791,-35.27 31.578,-33.938s27.245,18.682 25.592,38.758z" id="svg_467"/>
     <path fill="#DDF22D" d="m73.172,56.897c-1.731,19.684 -15.689,34.511 -31.175,33.117c-15.486,-1.395 -26.637,-18.482 -24.904,-38.167c1.731,-19.685 15.689,-34.512 31.175,-33.117s26.636,18.482 24.904,38.167l0,0z" id="svg_468"/>
     <path fill="#DEF32D" d="m72.329,56.593c-1.81001,19.294 -15.587,33.753 -30.772,32.296c-15.185,-1.458 -26.027,-18.281 -24.217,-37.575c1.81,-19.294 15.587,-33.753 30.772,-32.296c15.185,1.457 26.028,18.28 24.217,37.575l0,0z" id="svg_469"/>
     <path fill="#DFF32C" d="m71.486,56.289c-1.889,18.904 -15.486,32.996 -30.369,31.475c-14.884,-1.521 -25.418,-18.08 -23.529,-36.984c1.889,-18.904 15.486,-32.996 30.369,-31.475c14.884,1.521 25.418,18.079 23.529,36.984l0,0z" id="svg_470"/>
     <path fill="#E0F42C" d="m70.644,55.984c-1.96799,18.514 -15.384,32.238 -29.967,30.654c-14.58301,-1.58501 -24.80901,-17.878 -22.841,-36.392c1.968,-18.514 15.384,-32.238 29.967,-30.653c14.582,1.584 24.808,17.877 22.841,36.391z" id="svg_471"/>
     <path fill="#E0F42C" d="m69.80099,55.68c-2.04601,18.124 -15.283,31.48 -29.564,29.833s-24.20001,-17.676 -22.153,-35.8c2.04601,-18.124 15.283,-31.48 29.564,-29.833c14.28101,1.648 24.19901,17.676 22.153,35.8z" id="svg_472"/>
     <path fill="#E1F42B" d="m68.95799,55.376c-2.125,17.733 -15.181,30.723 -29.161,29.012c-13.98001,-1.712 -23.591,-17.475 -21.46501,-35.208c2.125,-17.734 15.181,-30.723 29.16101,-29.011s23.59,17.473 21.465,35.207z" id="svg_473"/>
     <path fill="#E2F52B" d="m68.115,55.072c-2.20399,17.343 -15.079,29.965 -28.758,28.19c-13.679,-1.775 -22.982,-17.273 -20.778,-34.617c2.204,-17.344 15.08,-29.964 28.759,-28.19c13.679,1.775 22.981,17.273 20.777,34.617l0,0z" id="svg_474"/>
     <path fill="#E3F52A" d="m67.272,54.768c-2.28201,16.953 -14.978,29.207 -28.355,27.369c-13.378,-1.838 -22.373,-17.072 -20.09,-34.025c2.282,-16.954 14.978,-29.207 28.355,-27.369c13.378,1.838 22.373,17.071 20.09,34.025l0,0z" id="svg_475"/>
     <path fill="#E4F52A" d="m66.429,54.464c-2.361,16.563 -14.876,28.449 -27.953,26.547s-21.764,-16.87 -19.402,-33.433c2.361,-16.563 14.876,-28.449 27.953,-26.547c13.077,1.901 21.764,16.869 19.402,33.433l0,0z" id="svg_476"/>
     <path fill="#E5F629" d="m65.586,54.16c-2.44,16.172 -14.774,27.69099 -27.55,25.727c-12.77499,-1.965 -21.155,-16.669 -18.71399,-32.842c2.439,-16.173 14.77399,-27.691 27.54999,-25.726s21.15401,16.667 18.714,32.841z" id="svg_477"/>
     <path fill="#E6F629" d="m64.744,53.855c-2.519,15.783 -14.673,26.933 -27.147,24.905c-12.474,-2.028 -20.545,-16.467 -18.026,-32.25c2.519,-15.783 14.67301,-26.933 27.147,-24.905c12.474,2.029 20.54399,16.467 18.026,32.25z" id="svg_478"/>
     <path fill="#E7F628" d="m63.901,53.551c-2.597,15.393 -14.571,26.175 -26.744,24.084c-12.173,-2.092 -19.937,-16.266 -17.338,-31.658c2.597,-15.393 14.571,-26.175 26.744,-24.083s19.935,16.265 17.338,31.657l0,0z" id="svg_479"/>
     <path fill="#E8F728" d="m63.058,53.247c-2.67599,15.002 -14.47,25.417 -26.341,23.263c-11.87199,-2.155 -19.32799,-16.064 -16.651,-31.066c2.67601,-15.002 14.47,-25.417 26.34201,-23.262c11.871,2.154 19.32599,16.063 16.64999,31.065z" id="svg_480"/>
     <path fill="#E9F728" d="m62.215,52.943c-2.754,14.612 -14.368,24.659 -25.938,22.441c-11.571,-2.219 -18.71799,-15.863 -15.96199,-30.47501c2.754,-14.612 14.368,-24.659 25.938,-22.44099s18.717,15.863 15.96199,30.475z" id="svg_481"/>
     <path fill="#EAF727" d="m61.37199,52.639c-2.83301,14.222 -14.26601,23.901 -25.53601,21.62c-11.26999,-2.28201 -18.10898,-15.661 -15.27498,-29.883c2.83299,-14.222 14.267,-23.902 25.53598,-21.62s18.10901,15.661 15.27501,29.883z" id="svg_482"/>
     <path fill="#EBF827" d="m60.529,52.335c-2.912,13.832 -14.165,23.144 -25.133,20.799c-10.969,-2.345 -17.5,-15.459 -14.587,-29.291c2.912,-13.832 14.165,-23.144 25.133,-20.799s17.499,15.459 14.587,29.291l0,0z" id="svg_483"/>
     <path fill="#ECF826" d="m59.687,52.031c-2.991,13.441 -14.063,22.386 -24.73,19.978c-10.66701,-2.409 -16.89101,-15.258 -13.899,-28.7c2.991,-13.442 14.063,-22.386 24.73,-19.978c10.66701,2.409 16.89,15.258 13.899,28.7z" id="svg_484"/>
     <path fill="#EDF826" d="m58.844,51.727c-3.069,13.051 -13.961,21.628 -24.328,19.157c-10.366,-2.472 -16.282,-15.056 -13.211,-28.108c3.069,-13.051 13.961,-21.628 24.327,-19.156s16.282,15.055 13.212,28.107l0,0z" id="svg_485"/>
     <path fill="#EEF925" d="m58.00101,51.422c-3.14799,12.661 -13.86,20.87 -23.925,18.33501c-10.06499,-2.536 -15.672,-14.854 -12.52299,-27.51601c3.14799,-12.661 13.86,-20.87001 23.925,-18.335s15.67099,14.855 12.52299,27.516z" id="svg_486"/>
     <path fill="#EFF925" d="m57.158,51.119c-3.227,12.271 -13.758,20.112 -23.521,17.514c-9.764,-2.59901 -15.063,-14.653 -11.835,-26.924c3.227,-12.271 13.758,-20.112 23.521,-17.514s15.062,14.652 11.835,26.924l0,0z" id="svg_487"/>
     <path fill="#F0F925" d="m56.315,50.814c-3.30501,11.88 -13.65601,19.354 -23.119,16.693c-9.463,-2.663 -14.455,-14.452 -11.14799,-26.333c3.306,-11.881 13.65599,-19.354 23.119,-16.692c9.463,2.66199 14.45399,14.451 11.14799,26.332z" id="svg_488"/>
     <path fill="#F1FA24" d="m55.472,50.51c-3.384,11.49 -13.555,18.597 -22.716,15.87201c-9.162,-2.72601 -13.846,-14.25 -10.46,-25.741c3.384,-11.491 13.555,-18.596 22.716,-15.871c9.162,2.725 13.845,14.249 10.46,25.74l0,0z" id="svg_489"/>
     <path fill="#F2FA24" d="m54.629,50.206c-3.463,11.101 -13.453,17.839 -22.313,15.05c-8.86,-2.789 -13.236,-14.048 -9.772,-25.149c3.463,-11.1 13.453,-17.838 22.313,-15.05s13.236,14.048 9.772,25.149l0,0z" id="svg_490"/>
     <path fill="#F3FA23" d="m53.787,49.902c-3.54201,10.71 -13.35201,17.081 -21.911,14.229c-8.55901,-2.853 -12.62701,-13.847 -9.084,-24.55799c3.54199,-10.71 13.351,-17.081 21.90999,-14.229s12.627,13.847 9.08501,24.558z" id="svg_491"/>
     <path fill="#F4FB23" d="m52.944,49.598c-3.621,10.32 -13.25,16.323 -21.508,13.408c-8.25801,-2.916 -12.01801,-13.646 -8.39601,-23.966c3.62001,-10.32 13.25,-16.323 21.50801,-13.408s12.01599,13.645 8.396,23.966z" id="svg_492"/>
     <path fill="#F5FB22" d="m52.101,49.294c-3.69901,9.93 -13.14799,15.565 -21.104,12.586c-7.957,-2.979 -11.409,-13.444 -7.70799,-23.374c3.69901,-9.93 13.14799,-15.56499 21.104,-12.586c7.95599,2.979 11.407,13.443 7.70799,23.374z" id="svg_493"/>
     <path fill="#F6FB22" d="m51.258,48.99c-3.77699,9.54 -13.04599,14.807 -20.702,11.765c-7.655,-3.042 -10.799,-13.242 -7.021,-22.782c3.778,-9.54 13.04599,-14.807 20.702,-11.765s10.799,13.241 7.021,22.782z" id="svg_494"/>
     <path fill="#F7FC21" d="m50.41499,48.686c-3.856,9.149 -12.94501,14.049 -20.299,10.944c-7.354,-3.106 -10.19,-13.041 -6.33301,-22.19099c3.856,-9.149 12.94501,-14.049 20.299,-10.944c7.35501,3.106 10.19002,13.041 6.33301,22.19099z" id="svg_495"/>
     <ellipse transform="matrix(0.9122,0.4098,-0.4098,0.9122,49.1377,-57.9701) " fill="#F8FC21" cx="29.98583" cy="96.8233" rx="14.001" ry="17.388" id="svg_496"/>
     <ellipse transform="matrix(0.9125,0.409,-0.409,0.9125,49.0018,-57.8637) " fill="#F8FC22" cx="29.95835" cy="96.70819" rx="13.971" ry="17.351" id="svg_497"/>
     <ellipse transform="matrix(0.9129,0.4082,-0.4082,0.9129,48.8676,-57.7586) " fill="#F8FC23" cx="29.94247" cy="96.58575" rx="13.941" ry="17.315" id="svg_498"/>
     <ellipse transform="matrix(0.9133,0.4073,-0.4073,0.9133,48.7318,-57.6518) " fill="#F8FC24" cx="29.91952" cy="96.45289" rx="13.912" ry="17.278" id="svg_499"/>
     <ellipse transform="matrix(0.9137,0.4065,-0.4065,0.9137,48.597,-57.5455) " fill="#F8FC25" cx="29.90408" cy="96.33144" rx="13.882" ry="17.241" id="svg_500"/>
     <ellipse transform="matrix(0.914,0.4056,-0.4056,0.914,48.4615,-57.4387) " fill="#F8FC26" cx="29.87117" cy="96.20378" rx="13.853" ry="17.204" id="svg_501"/>
     <ellipse transform="matrix(0.9144,0.4048,-0.4048,0.9144,48.3233,-57.3295) " fill="#F8FC27" cx="29.85615" cy="96.0823" rx="13.823" ry="17.168" id="svg_502"/>
     <ellipse transform="matrix(0.9148,0.4039,-0.4039,0.9148,48.1867,-57.2214) " fill="#F8FC28" cx="29.83515" cy="95.94836" rx="13.793" ry="17.131" id="svg_503"/>
     <ellipse transform="matrix(0.9152,0.403,-0.403,0.9152,48.0476,-57.1111) " fill="#F8FC29" cx="29.81441" cy="95.8154" rx="13.764" ry="17.094" id="svg_504"/>
     <ellipse transform="matrix(0.9156,0.4022,-0.4022,0.9156,47.9103,-57.0021) " fill="#F8FC2A" cx="29.80006" cy="95.69291" rx="13.734" ry="17.058" id="svg_505"/>
     <path fill="#F8FC2B" d="m49.244,48.089c-3.77,8.611 -12.44701,13.12901 -19.379,10.092c-6.933,-3.038 -9.498,-12.481 -5.726,-21.092c3.76999,-8.611 12.44699,-13.129 19.379,-10.091c6.933,3.037 9.496,12.48 5.726,21.091z" id="svg_506"/>
     <path fill="#F8FC2C" d="m49.211,48.06c-3.753,8.596 -12.407,13.113 -19.328,10.089c-6.921,-3.025 -9.489,-12.445 -5.734,-21.041c3.753,-8.596 12.407,-13.113 19.328,-10.088c6.921,3.023 9.488,12.443 5.734,21.04l0,0z" id="svg_507"/>
     <path fill="#F8FC2D" d="m49.17799,48.031c-3.737,8.581 -12.367,13.096 -19.276,10.085c-6.909,-3.01099 -9.48,-12.409 -5.742,-20.99c3.737,-8.581 12.367,-13.096 19.276,-10.085c6.90901,3.011 9.48001,12.408 5.742,20.99z" id="svg_508"/>
     <path fill="#F8FC2E" d="m49.146,48.001c-3.72,8.566 -12.328,13.08 -19.225,10.083c-6.896,-2.999 -9.472,-12.373 -5.75,-20.939c3.72,-8.566 12.328,-13.08 19.224,-10.082c6.897,2.997 9.471,12.372 5.751,20.938l0,0z" id="svg_509"/>
     <path fill="#F8FC2F" d="m49.11301,47.972c-3.70399,8.551 -12.28799,13.064 -19.173,10.08c-6.88499,-2.985 -9.463,-12.33701 -5.758,-20.889c3.70401,-8.551 12.28801,-13.064 19.173,-10.079c6.88399,2.985 9.46199,12.336 5.758,20.888z" id="svg_510"/>
     <path fill="#F8FC30" d="m49.08,47.943c-3.687,8.536 -12.248,13.048 -19.121,10.077c-6.873,-2.972 -9.455,-12.30099 -5.767,-20.838c3.688,-8.536 12.24899,-13.047 19.121,-10.076s9.455,12.3 5.767,20.837z" id="svg_511"/>
     <path fill="#F9FC31" d="m49.047,47.914c-3.67099,8.521 -12.20799,13.032 -19.069,10.074c-6.86,-2.959 -9.44699,-12.266 -5.774,-20.788c3.67101,-8.521 12.209,-13.031 19.069,-10.073s9.44501,12.265 5.774,20.787z" id="svg_512"/>
     <path fill="#F9FC32" d="m49.01401,47.884c-3.65399,8.507 -12.16899,13.015 -19.01799,10.07c-6.84901,-2.946 -9.438,-12.229 -5.783,-20.736c3.65399,-8.506 12.16899,-13.015 19.01799,-10.07s9.438,12.229 5.783,20.736z" id="svg_513"/>
     <path fill="#F9FC33" d="m48.981,47.855c-3.638,8.492 -12.129,12.999 -18.966,10.067c-6.836,-2.933 -9.43,-12.194 -5.791,-20.686c3.638,-8.492 12.129,-12.999 18.966,-10.067s9.43,12.194 5.791,20.686l0,0z" id="svg_514"/>
     <path fill="#F9FC34" d="m48.948,47.826c-3.621,8.47701 -12.089,12.982 -18.914,10.064c-6.82399,-2.919 -9.42099,-12.158 -5.799,-20.635c3.62199,-8.477 12.09,-12.98199 18.914,-10.063c6.825,2.918 9.42101,12.157 5.799,20.634z" id="svg_515"/>
     <path fill="#F9FC35" d="m48.916,47.797c-3.604,8.46201 -12.05,12.966 -18.862,10.061c-6.813,-2.90701 -9.41299,-12.122 -5.80701,-20.584c3.60501,-8.46201 12.05,-12.966 18.86301,-10.061c6.811,2.90601 9.411,12.121 5.806,20.584z" id="svg_516"/>
     <path fill="#F9FC36" d="m48.883,47.768c-3.588,8.447 -12.00999,12.95 -18.811,10.058c-6.8,-2.893 -9.40498,-12.086 -5.815,-20.533c3.588,-8.447 12.00999,-12.95 18.811,-10.058s9.40401,12.085 5.815,20.533z" id="svg_517"/>
     <path fill="#F9FC37" d="m48.85001,47.738c-3.57199,8.432 -11.97099,12.934 -18.759,10.055c-6.78799,-2.88 -9.396,-12.05 -5.823,-20.483c3.57201,-8.432 11.97101,-12.934 18.759,-10.054s9.39499,12.05 5.823,20.482z" id="svg_518"/>
     <path fill="#F9FC38" d="m48.817,47.709c-3.555,8.417 -11.931,12.917 -18.707,10.052c-6.776,-2.867 -9.388,-12.014 -5.831,-20.432c3.555,-8.417 11.931,-12.917 18.707,-10.051c6.776,2.866 9.387,12.013 5.831,20.431l0,0z" id="svg_519"/>
     <path fill="#F9FC39" d="m48.784,47.68c-3.539,8.403 -11.89099,12.901 -18.655,10.049c-6.76399,-2.854 -9.379,-11.979 -5.839,-20.381c3.539,-8.402 11.89101,-12.901 18.65501,-10.048c6.76399,2.852 9.379,11.977 5.83899,20.38z" id="svg_520"/>
     <path fill="#F9FC3A" d="m48.75101,47.65c-3.522,8.388 -11.85199,12.885 -18.604,10.046c-6.752,-2.841 -9.37099,-11.943 -5.847,-20.331c3.522,-8.387 11.85201,-12.88499 18.604,-10.045c6.752,2.841 9.37,11.943 5.847,20.33z" id="svg_521"/>
     <path fill="#F9FC3B" d="m48.71899,47.622c-3.506,8.373 -11.81201,12.869 -18.552,10.042c-6.74001,-2.827 -9.36301,-11.907 -5.855,-20.28c3.506,-8.373 11.812,-12.869 18.55199,-10.042c6.73901,2.827 9.36102,11.906 5.85501,20.28z" id="svg_522"/>
     <path fill="#F9FC3C" d="m48.686,47.592c-3.489,8.358 -11.772,12.853 -18.5,10.039c-6.728,-2.814 -9.354,-11.871 -5.864,-20.229c3.489,-8.358 11.772,-12.853 18.5,-10.039c6.728,2.814 9.354,11.871 5.864,20.229l0,0z" id="svg_523"/>
     <path fill="#F9FC3D" d="m48.653,47.563c-3.47301,8.34299 -11.73199,12.836 -18.44901,10.036c-6.71599,-2.801 -9.34599,-11.835 -5.87199,-20.178c3.47299,-8.34299 11.733,-12.836 18.44901,-10.036c6.71599,2.80099 9.345,11.834 5.87199,20.178z" id="svg_524"/>
     <path fill="#F9FC3E" d="m48.62,47.534c-3.456,8.328 -11.693,12.82 -18.397,10.033c-6.704,-2.788 -9.337,-11.799 -5.88,-20.128c3.457,-8.328 11.693,-12.82 18.397,-10.032c6.704,2.787 9.337,11.798 5.88,20.127l0,0z" id="svg_525"/>
     <path fill="#F9FC3F" d="m48.58701,47.504c-3.44,8.313 -11.653,12.804 -18.345,10.03c-6.692,-2.77499 -9.32899,-11.764 -5.888,-20.077c3.44,-8.313 11.65401,-12.804 18.34601,-10.029c6.69099,2.774 9.32698,11.763 5.88699,20.076z" id="svg_526"/>
     <path fill="#F9FC40" d="m48.554,47.475c-3.423,8.298 -11.613,12.788 -18.293,10.027c-6.68,-2.762 -9.32,-11.727 -5.896,-20.026c3.423,-8.298 11.614,-12.788 18.294,-10.026c6.679,2.76 9.319,11.726 5.895,20.025l0,0z" id="svg_527"/>
     <path fill="#F9FC41" d="m48.521,47.446c-3.406,8.284 -11.574,12.771 -18.242,10.024c-6.668,-2.749 -9.312,-11.691 -5.904,-19.976c3.407,-8.283 11.574,-12.771 18.242,-10.023c6.668,2.748 9.312,11.691 5.904,19.975l0,0z" id="svg_528"/>
     <path fill="#F9FC42" d="m48.489,47.417c-3.39,8.269 -11.534,12.755 -18.19,10.021c-6.65599,-2.735 -9.304,-11.65601 -5.91299,-19.925c3.39099,-8.269 11.535,-12.755 18.19,-10.02s9.30299,11.65401 5.91299,19.924z" id="svg_529"/>
     <path fill="#F9FC43" d="m48.45599,47.388c-3.37401,8.253 -11.49501,12.739 -18.13901,10.018c-6.644,-2.722 -9.295,-11.62 -5.92,-19.874c3.37401,-8.254 11.495,-12.739 18.13901,-10.017s9.29401,11.618 5.92,19.873z" id="svg_530"/>
     <path fill="#F9FC44" d="m48.423,47.358c-3.35701,8.239 -11.455,12.723 -18.086,10.014c-6.632,-2.709 -9.287,-11.583 -5.92801,-19.823c3.35701,-8.23901 11.455,-12.722 18.086,-10.014c6.63101,2.709 9.28601,11.584 5.92801,19.823z" id="svg_531"/>
     <path fill="#F9FC45" d="m48.39,47.329c-3.34,8.224 -11.415,12.706 -18.035,10.011c-6.62,-2.696 -9.279,-11.548 -5.937,-19.772c3.34,-8.224 11.416,-12.706 18.035,-10.011c6.62,2.695 9.278,11.547 5.937,19.772l0,0z" id="svg_532"/>
     <path fill="#F9FD46" d="m48.35699,47.3c-3.32401,8.209 -11.375,12.68999 -17.983,10.008c-6.60701,-2.683 -9.27,-11.512 -5.944,-19.722c3.32399,-8.209 11.375,-12.68999 17.983,-10.008c6.608,2.683 9.26901,11.51199 5.944,19.722z" id="svg_533"/>
     <path fill="#F9FD47" d="m48.325,47.271c-3.308,8.194 -11.336,12.674 -17.932,10.005c-6.596,-2.669 -9.262,-11.477 -5.953,-19.671c3.308,-8.194 11.336,-12.674 17.932,-10.005s9.261,11.476 5.953,19.671l0,0z" id="svg_534"/>
     <path fill="#F9FD48" d="m48.292,47.241c-3.291,8.18 -11.297,12.658 -17.88,10.002c-6.583,-2.657 -9.253,-11.44 -5.96,-19.621c3.291,-8.179 11.296,-12.657 17.88,-10.001s9.251,11.441 5.96,19.62l0,0z" id="svg_535"/>
     <path fill="#F9FD49" d="m48.259,47.212c-3.274,8.165 -11.257,12.642 -17.828,9.999c-6.571,-2.643 -9.245,-11.404 -5.969,-19.569c3.274,-8.165 11.257,-12.641 17.828,-9.999c6.572,2.643 9.244,11.404 5.969,19.569l0,0z" id="svg_536"/>
     <path fill="#F9FD4A" d="m48.226,47.183c-3.258,8.149 -11.217,12.625 -17.776,9.996c-6.56,-2.63 -9.23599,-11.369 -5.97699,-19.519c3.258,-8.15 11.217,-12.625 17.77699,-9.996c6.55901,2.63 9.235,11.369 5.976,19.519z" id="svg_537"/>
     <path fill="#F9FD4B" d="m48.19299,47.154c-3.242,8.135 -11.17801,12.609 -17.72501,9.993c-6.547,-2.617 -9.228,-11.333 -5.985,-19.468c3.242,-8.135 11.17801,-12.608 17.72501,-9.992c6.548,2.616 9.22801,11.332 5.985,19.467z" id="svg_538"/>
     <path fill="#F9FD4C" d="m48.161,47.125c-3.22499,8.12 -11.138,12.592 -17.67299,9.99c-6.535,-2.604 -9.21901,-11.297 -5.99301,-19.417c3.22501,-8.12 11.138,-12.592 17.673,-9.989c6.535,2.602 9.218,11.295 5.993,19.416z" id="svg_539"/>
     <path fill="#F9FD4D" d="m48.127,47.095c-3.20799,8.105 -11.09799,12.576 -17.621,9.986c-6.52299,-2.59 -9.211,-11.261 -6.00099,-19.366c3.20799,-8.105 11.09799,-12.576 17.62199,-9.986c6.52299,2.59 9.21001,11.261 6,19.366z" id="svg_540"/>
     <path fill="#F9FD4E" d="m48.095,47.066c-3.192,8.09 -11.059,12.56 -17.57,9.983c-6.511,-2.577 -9.202,-11.225 -6.009,-19.316c3.192,-8.09 11.059,-12.56 17.57,-9.982c6.511,2.577 9.202,11.224 6.009,19.315l0,0z" id="svg_541"/>
     <path fill="#F9FD4F" d="m48.062,47.037c-3.175,8.076 -11.019,12.544 -17.51799,9.98c-6.49901,-2.564 -9.194,-11.189 -6.01801,-19.265c3.17599,-8.075 11.019,-12.543 17.51801,-9.979c6.5,2.563 9.194,11.188 6.01799,19.264z" id="svg_542"/>
     <path fill="#F9FD50" d="m48.02901,47.007c-3.159,8.061 -10.979,12.528 -17.466,9.978c-6.487,-2.551 -9.18599,-11.153 -6.026,-19.214c3.15901,-8.061 10.979,-12.527 17.46701,-9.97701c6.48698,2.55 9.18399,11.153 6.02499,19.21301z" id="svg_543"/>
     <path fill="#FAFD51" d="m47.996,46.978c-3.142,8.04601 -10.939,12.512 -17.41501,9.97501c-6.47499,-2.538 -9.17699,-11.118 -6.034,-19.164c3.14301,-8.04601 10.94,-12.511 17.41501,-9.974c6.476,2.53799 9.177,11.117 6.034,19.16299z" id="svg_544"/>
     <path fill="#FAFD52" d="m47.963,46.949c-3.12599,8.03101 -10.89999,12.495 -17.36299,9.971c-6.46301,-2.52399 -9.16901,-11.082 -6.04201,-19.113c3.12601,-8.031 10.89999,-12.495 17.36301,-9.97s9.16899,11.081 6.04199,19.112z" id="svg_545"/>
     <path fill="#FAFD53" d="m47.931,46.92c-3.10899,8.016 -10.86,12.479 -17.311,9.968c-6.45099,-2.512 -9.161,-11.046 -6.04999,-19.062c3.10899,-8.016 10.85999,-12.479 17.31099,-9.967c6.451,2.511 9.16,11.044 6.05,19.061z" id="svg_546"/>
     <path fill="#FAFD54" d="m47.89799,46.891c-3.093,8.001 -10.821,12.462 -17.26001,9.965c-6.439,-2.499 -9.15199,-11.01 -6.058,-19.011c3.093,-8.001 10.82001,-12.462 17.25902,-9.964s9.15199,11.008 6.05899,19.01z" id="svg_547"/>
     <path fill="#FAFD55" d="m47.86501,46.861c-3.07599,7.986 -10.78099,12.446 -17.20799,9.962c-6.427,-2.485 -9.144,-10.974 -6.06601,-18.961c3.07701,-7.986 10.78101,-12.446 17.20801,-9.961c6.42699,2.485 9.14299,10.974 6.06599,18.96z" id="svg_548"/>
     <path fill="#FAFD56" d="m47.832,46.832c-3.06,7.972 -10.741,12.43 -17.15601,9.959c-6.41499,-2.473 -9.13499,-10.938 -6.07399,-18.91c3.06,-7.97099 10.741,-12.43 17.15599,-9.958c6.41501,2.472 9.13501,10.937 6.07401,18.909z" id="svg_549"/>
     <path fill="#FAFD57" d="m47.799,46.803c-3.043,7.957 -10.702,12.414 -17.10399,9.956c-6.403,-2.459 -9.12601,-10.902 -6.082,-18.859c3.043,-7.957 10.702,-12.414 17.10399,-9.955s9.12601,10.901 6.082,18.858z" id="svg_550"/>
     <path fill="#FAFD58" d="m47.767,46.773c-3.027,7.942 -10.662,12.398 -17.053,9.953c-6.391,-2.446 -9.118,-10.866 -6.09,-18.809c3.027,-7.941 10.662,-12.397 17.053,-9.952s9.117,10.867 6.09,18.808l0,0z" id="svg_551"/>
     <path fill="#FAFD59" d="m47.733,46.745c-3.00999,7.92699 -10.62201,12.381 -17,9.949c-6.379,-2.433 -9.11,-10.831 -6.099,-18.758c3.011,-7.92699 10.623,-12.381 17.00099,-9.949c6.37901,2.432 9.11,10.83 6.09801,18.758z" id="svg_552"/>
     <path fill="#FAFD5A" d="m47.701,46.715c-2.994,7.912 -10.58301,12.36501 -16.94901,9.94601c-6.367,-2.42001 -9.10201,-10.79501 -6.106,-18.707c2.994,-7.912 10.58301,-12.36501 16.95001,-9.946c6.36499,2.42 9.099,10.795 6.105,18.70699z" id="svg_553"/>
     <path fill="#FAFD5B" d="m47.668,46.686c-2.97701,7.897 -10.543,12.34901 -16.897,9.943c-6.355,-2.406 -9.093,-10.759 -6.11499,-18.656c2.978,-7.896 10.543,-12.348 16.89799,-9.942c6.354,2.406 9.092,10.758 6.114,18.655z" id="svg_554"/>
     <path fill="#FAFD5C" d="m47.63499,46.657c-2.961,7.882 -10.50301,12.333 -16.84601,9.94c-6.343,-2.393 -9.08499,-10.723 -6.123,-18.605c2.961,-7.882 10.50301,-12.33199 16.84601,-9.939c6.343,2.392 9.08501,10.721 6.123,18.604z" id="svg_555"/>
     <path fill="#FAFD5D" d="m47.602,46.627c-2.944,7.867 -10.463,12.316 -16.794,9.937c-6.331,-2.38 -9.076,-10.687 -6.131,-18.555c2.945,-7.867 10.464,-12.316 16.794,-9.936c6.331,2.38 9.076,10.687 6.131,18.554l0,0z" id="svg_556"/>
     <path fill="#FAFD5E" d="m47.569,46.598c-2.928,7.853 -10.424,12.3 -16.742,9.934c-6.319,-2.367 -9.068,-10.651 -6.139,-18.504c2.928,-7.853 10.424,-12.3 16.743,-9.933c6.318,2.366 9.067,10.651 6.138,18.503l0,0z" id="svg_557"/>
     <path fill="#FAFD5F" d="m47.537,46.569c-2.911,7.838 -10.384,12.284 -16.691,9.931c-6.306,-2.354 -9.059,-10.616 -6.147,-18.454c2.912,-7.837 10.385,-12.283 16.691,-9.93c6.306,2.354 9.059,10.615 6.147,18.453l0,0z" id="svg_558"/>
     <path fill="#FAFD60" d="m47.504,46.54c-2.895,7.822 -10.345,12.267 -16.63899,9.927c-6.29401,-2.34 -9.05101,-10.579 -6.155,-18.402c2.89499,-7.82301 10.34499,-12.26701 16.63899,-9.927c6.29401,2.34 9.05,10.579 6.155,18.402z" id="svg_559"/>
     <path fill="#FAFD61" d="m47.471,46.511c-2.878,7.808 -10.305,12.251 -16.587,9.924c-6.283,-2.328 -9.042,-10.543 -6.163,-18.352c2.878,-7.808 10.305,-12.251 16.587,-9.924c6.282,2.327 9.042,10.543 6.163,18.352l0,0z" id="svg_560"/>
     <path fill="#FAFD62" d="m47.438,46.481c-2.861,7.793 -10.265,12.235 -16.536,9.921c-6.27,-2.314 -9.034,-10.508 -6.171,-18.301c2.862,-7.792 10.265,-12.234 16.536,-9.92c6.27,2.314 9.033,10.507 6.171,18.3l0,0z" id="svg_561"/>
     <path fill="#FAFD63" d="m47.405,46.452c-2.845,7.778 -10.226,12.21899 -16.48399,9.918c-6.25801,-2.301 -9.026,-10.472 -6.179,-18.25c2.845,-7.778 10.226,-12.218 16.48399,-9.917c6.258,2.3 9.02501,10.471 6.179,18.249z" id="svg_562"/>
     <path fill="#FAFD64" d="m47.373,46.423c-2.829,7.763 -10.186,12.203 -16.432,9.916c-6.247,-2.288 -9.018,-10.436 -6.188,-18.2c2.829,-7.763 10.186,-12.202 16.432,-9.915s9.017,10.435 6.188,18.199l0,0z" id="svg_563"/>
     <path fill="#FAFD65" d="m47.339,46.394c-2.812,7.749 -10.146,12.187 -16.38,9.912c-6.234,-2.275 -9.009,-10.4 -6.195,-18.149c2.813,-7.748 10.146,-12.186 16.381,-9.911c6.233,2.274 9.007,10.399 6.194,18.148l0,0z" id="svg_564"/>
     <path fill="#FAFD66" d="m47.30701,46.364c-2.795,7.734 -10.106,12.17 -16.32899,9.909c-6.222,-2.262 -9,-10.36401 -6.20399,-18.098c2.79599,-7.733 10.10699,-12.16901 16.32899,-9.908c6.22198,2.261 8.99998,10.363 6.20399,18.097z" id="svg_565"/>
     <path fill="#FAFD67" d="m47.274,46.335c-2.77901,7.719 -10.067,12.154 -16.27701,9.906c-6.20999,-2.249 -8.99199,-10.32899 -6.21199,-18.047c2.77899,-7.719 10.067,-12.153 16.27699,-9.905s8.992,10.327 6.21201,18.046z" id="svg_566"/>
     <path fill="#FAFD68" d="m47.241,46.306c-2.763,7.704 -10.02699,12.137 -16.226,9.903c-6.198,-2.236 -8.983,-10.292 -6.22,-17.997c2.763,-7.70399 10.02701,-12.137 16.226,-9.902c6.198,2.235 8.983,10.292 6.22,17.996z" id="svg_567"/>
     <path fill="#FAFD69" d="m47.208,46.277c-2.746,7.689 -9.987,12.121 -16.173,9.899c-6.186,-2.222 -8.975,-10.256 -6.228,-17.946c2.747,-7.688 9.988,-12.121 16.174,-9.899s8.974,10.256 6.227,17.946l0,0z" id="svg_568"/>
     <path fill="#FAFD6A" d="m47.175,46.248c-2.729,7.674 -9.948,12.105 -16.12201,9.896c-6.174,-2.209 -8.967,-10.221 -6.23599,-17.895c2.73,-7.674 9.948,-12.104 16.12199,-9.896s8.96701,10.22 6.23601,17.895z" id="svg_569"/>
     <path fill="#FAFD6B" d="m47.14301,46.218c-2.713,7.659 -9.90799,12.089 -16.06999,9.894c-6.162,-2.196 -8.95801,-10.185 -6.244,-17.844c2.713,-7.659 9.909,-12.088 16.07098,-9.893c6.16101,2.195 8.95601,10.184 6.24301,17.843z" id="svg_570"/>
     <path fill="#FAFD6C" d="m47.11,46.189c-2.696,7.645 -9.869,12.073 -16.019,9.891c-6.15001,-2.183 -8.95,-10.149 -6.252,-17.794c2.69699,-7.644 9.86899,-12.07201 16.019,-9.89s8.94901,10.14799 6.252,17.793z" id="svg_571"/>
     <path fill="#FAFD6D" d="m47.077,46.16c-2.68,7.629 -9.829,12.056 -15.967,9.888c-6.138,-2.17 -8.942,-10.113 -6.261,-17.743c2.681,-7.629 9.83,-12.056 15.967,-9.887c6.139,2.169 8.942,10.112 6.261,17.742l0,0z" id="svg_572"/>
     <path fill="#FAFD6E" d="m47.044,46.13c-2.663,7.615 -9.789,12.04 -15.915,9.884c-6.126,-2.156 -8.933,-10.077 -6.268,-17.692c2.664,-7.615 9.79,-12.04 15.915,-9.883c6.126,2.156 8.932,10.077 6.268,17.691l0,0z" id="svg_573"/>
     <path fill="#FAFD6F" d="m47.011,46.102c-2.647,7.60001 -9.75,12.023 -15.86301,9.881c-6.114,-2.14301 -8.92499,-10.042 -6.276,-17.642c2.647,-7.59901 9.75,-12.023 15.86301,-9.88c6.114,2.143 8.924,10.04 6.276,17.641z" id="svg_574"/>
     <path fill="#FAFD70" d="m46.979,46.072c-2.63,7.584 -9.71001,12.007 -15.812,9.878c-6.10201,-2.13 -8.91701,-10.005 -6.285,-17.591c2.631,-7.584 9.70999,-12.007 15.812,-9.877c6.10201,2.13 8.916,10.005 6.285,17.59z" id="svg_575"/>
     <path fill="#FBFD71" d="m46.946,46.043c-2.614,7.57 -9.67,11.991 -15.75999,9.875c-6.09001,-2.117 -8.908,-9.97 -6.29201,-17.54c2.614,-7.57 9.67,-11.991 15.76001,-9.874c6.08899,2.116 8.907,9.969 6.29199,17.539z" id="svg_576"/>
     <path fill="#FBFD72" d="m46.91299,46.014c-2.597,7.555 -9.63,11.975 -15.70801,9.872s-8.899,-9.934 -6.30099,-17.489c2.59799,-7.555 9.631,-11.97501 15.70799,-9.871c6.07802,2.102 8.89902,9.932 6.30101,17.488z" id="svg_577"/>
     <path fill="#FBFD73" d="m46.88,45.984c-2.581,7.541 -9.591,11.958 -15.656,9.869c-6.066,-2.091 -8.891,-9.898 -6.309,-17.438c2.581,-7.54 9.591,-11.958 15.657,-9.868c6.065,2.09 8.89,9.897 6.308,17.437l0,0z" id="svg_578"/>
     <path fill="#FBFD74" d="m46.847,45.955c-2.564,7.525 -9.55099,11.942 -15.605,9.866c-6.054,-2.078 -8.882,-9.862 -6.317,-17.388c2.565,-7.525 9.552,-11.942 15.605,-9.865c6.054,2.077 8.883,9.862 6.317,17.387z" id="svg_579"/>
     <path fill="#FBFD75" d="m46.814,45.926c-2.54799,7.51099 -9.51199,11.92599 -15.55301,9.863c-6.04199,-2.064 -8.87399,-9.826 -6.32498,-17.337c2.54799,-7.511 9.51199,-11.926 15.554,-9.86201c6.041,2.063 8.873,9.825 6.32399,17.33601z" id="svg_580"/>
     <path fill="#FBFD76" d="m46.78101,45.896c-2.53099,7.49599 -9.472,11.91 -15.50099,9.85999c-6.03,-2.05099 -8.866,-9.791 -6.33301,-17.28699c2.532,-7.495 9.472,-11.909 15.502,-9.858c6.02899,2.051 8.864,9.79 6.332,17.285z" id="svg_581"/>
     <path fill="#FBFD77" d="m46.749,45.868c-2.515,7.48 -9.432,11.894 -15.45,9.856c-6.018,-2.038 -8.857,-9.754 -6.341,-17.235c2.515,-7.48 9.433,-11.893 15.45,-9.855c6.017,2.036 8.856,9.752 6.341,17.234l0,0z" id="svg_582"/>
     <path fill="#FBFD78" d="m46.716,45.838c-2.498,7.466 -9.393,11.877 -15.398,9.853c-6.006,-2.025 -8.849,-9.718 -6.35,-17.185c2.499,-7.466 9.393,-11.877 15.398,-9.853s8.849,9.719 6.35,17.185l0,0z" id="svg_583"/>
     <path fill="#FBFD79" d="m46.683,45.809c-2.48199,7.451 -9.353,11.861 -15.347,9.85c-5.993,-2.01199 -8.84,-9.683 -6.35699,-17.134c2.48199,-7.451 9.35399,-11.86 15.347,-9.849s8.84,9.682 6.35699,17.133z" id="svg_584"/>
     <path fill="#FBFD7A" d="m46.64999,45.78c-2.465,7.436 -9.313,11.845 -15.29401,9.847c-5.981,-1.999 -8.832,-9.647 -6.366,-17.083c2.466,-7.436 9.314,-11.844 15.295,-9.846c5.98102,1.997 8.83101,9.645 6.36501,17.082z" id="svg_585"/>
     <path fill="#FBFD7B" d="m46.617,45.75c-2.449,7.421 -9.273,11.829 -15.243,9.844c-5.97,-1.986 -8.824,-9.611 -6.374,-17.033s9.274,-11.828 15.244,-9.843c5.969,1.986 8.823,9.611 6.373,17.032l0,0z" id="svg_586"/>
     <path fill="#FBFD7C" d="m46.584,45.721c-2.432,7.407 -9.234,11.813 -15.191,9.841c-5.957,-1.972 -8.815,-9.575 -6.381,-16.981c2.433,-7.406 9.234,-11.812 15.191,-9.84c5.957,1.971 8.815,9.573 6.381,16.98l0,0z" id="svg_587"/>
     <path fill="#FBFD7D" d="m46.552,45.692c-2.416,7.392 -9.194,11.796 -15.14,9.838c-5.94501,-1.959 -8.80701,-9.539 -6.39,-16.931c2.416,-7.391 9.194,-11.795 15.14,-9.837c5.94499,1.958 8.806,9.538 6.39,16.93z" id="svg_588"/>
     <path fill="#FBFD7E" d="m46.519,45.663c-2.399,7.376 -9.15399,11.78 -15.08699,9.834c-5.93401,-1.946 -8.798,-9.503 -6.39801,-16.88c2.399,-7.376 9.155,-11.779 15.088,-9.834s8.79701,9.50301 6.397,16.88z" id="svg_589"/>
     <path fill="#FBFD7F" d="m46.48599,45.634c-2.382,7.362 -9.11501,11.764 -15.036,9.832c-5.92101,-1.93301 -8.79001,-9.468 -6.40601,-16.83c2.383,-7.362 9.11501,-11.763 15.036,-9.831c5.92102,1.932 8.79001,9.466 6.40601,16.829z" id="svg_590"/>
     <path fill="#FBFD80" d="m46.453,45.604c-2.366,7.347 -9.075,11.747 -14.98401,9.828c-5.909,-1.919 -8.78099,-9.431 -6.414,-16.779c2.367,-7.347 9.076,-11.747 14.985,-9.827c5.908,1.92001 8.78001,9.43101 6.41301,16.778z" id="svg_591"/>
     <path fill="#FBFD81" d="m46.42,45.575c-2.34999,7.332 -9.036,11.731 -14.933,9.825c-5.897,-1.906 -8.77299,-9.396 -6.422,-16.728c2.34999,-7.332 9.036,-11.73 14.933,-9.824c5.897,1.906 8.77299,9.395 6.422,16.727z" id="svg_592"/>
     <path fill="#FBFD82" d="m46.38699,45.546c-2.33301,7.317 -8.996,11.715 -14.881,9.822c-5.88501,-1.894 -8.765,-9.35999 -6.43001,-16.67699c2.33301,-7.317 8.99699,-11.714 14.881,-9.821c5.88501,1.892 8.76501,9.35899 6.43001,16.67599z" id="svg_593"/>
     <path fill="#FBFD83" d="m46.354,45.517c-2.31601,7.303 -8.95601,11.69901 -14.82901,9.819c-5.873,-1.88 -8.756,-9.324 -6.43799,-16.627c2.317,-7.302 8.957,-11.698 14.83,-9.818c5.87199,1.88 8.75499,9.323 6.437,16.626z" id="svg_594"/>
     <path fill="#FBFD84" d="m46.322,45.487c-2.3,7.288 -8.917,11.683 -14.777,9.816c-5.861,-1.867 -8.748,-9.288 -6.447,-16.576c2.301,-7.287 8.917,-11.682 14.778,-9.815c5.86,1.867 8.747,9.288 6.446,16.575l0,0z" id="svg_595"/>
     <path fill="#FBFD85" d="m46.289,45.458c-2.284,7.272 -8.877,11.666 -14.726,9.813c-5.849,-1.854 -8.739,-9.25201 -6.455,-16.525c2.284,-7.272 8.877,-11.666 14.726,-9.812c5.849,1.853 8.74001,9.252 6.455,16.524z" id="svg_596"/>
     <path fill="#FBFD86" d="m46.256,45.429c-2.267,7.258 -8.837,11.65 -14.674,9.81c-5.837,-1.841 -8.731,-9.216 -6.463,-16.474c2.268,-7.258 8.838,-11.649 14.675,-9.809c5.836,1.839 8.73,9.215 6.462,16.473l0,0z" id="svg_597"/>
     <path fill="#FBFD87" d="m46.22301,45.4c-2.25,7.243 -8.797,11.633 -14.62199,9.807c-5.825,-1.828 -8.72301,-9.181 -6.47101,-16.424c2.25101,-7.243 8.798,-11.633 14.623,-9.806c5.82399,1.827 8.722,9.18 6.47,16.423z" id="svg_598"/>
     <path fill="#FBFD88" d="m46.19,45.371c-2.23401,7.228 -8.758,11.617 -14.571,9.804c-5.813,-1.814 -8.714,-9.145 -6.479,-16.373c2.235,-7.228 8.759,-11.617 14.571,-9.803s8.714,9.143 6.479,16.372z" id="svg_599"/>
     <path fill="#FBFD89" d="m46.158,45.341c-2.218,7.213 -8.718,11.601 -14.519,9.80099c-5.80101,-1.802 -8.70601,-9.109 -6.48701,-16.322s8.71901,-11.601 14.52002,-9.8s8.70399,9.108 6.48599,16.32101z" id="svg_600"/>
     <path fill="#FBFD8A" d="m46.125,45.312c-2.201,7.19801 -8.67799,11.58501 -14.467,9.797c-5.789,-1.788 -8.69701,-9.073 -6.49501,-16.271c2.201,-7.198 8.679,-11.584 14.46701,-9.796s8.69699,9.071 6.495,16.27z" id="svg_601"/>
     <path fill="#FBFD8B" d="m46.092,45.283c-2.18399,7.18401 -8.63899,11.569 -14.416,9.79401c-5.77701,-1.775 -8.68901,-9.037 -6.50301,-16.221c2.185,-7.18301 8.63901,-11.568 14.416,-9.793c5.77602,1.77399 8.688,9.036 6.50301,16.21999z" id="svg_602"/>
     <path fill="#FBFD8C" d="m46.05901,45.253c-2.168,7.169 -8.599,11.553 -14.364,9.792c-5.765,-1.762 -8.681,-9.001 -6.511,-16.17c2.168,-7.168 8.60001,-11.552 14.364,-9.791c5.765,1.762 8.67999,9.001 6.511,16.169z" id="svg_603"/>
     <path fill="#FBFD8D" d="m46.026,45.225c-2.151,7.153 -8.56,11.536 -14.312,9.788c-5.753,-1.749 -8.672,-8.965 -6.52,-16.12c2.152,-7.153 8.56,-11.535 14.313,-9.787c5.752,1.748 8.672,8.964 6.519,16.119l0,0z" id="svg_604"/>
     <path fill="#FBFD8E" d="m45.993,45.195c-2.13499,7.139 -8.51999,11.52 -14.25999,9.785c-5.741,-1.735 -8.664,-8.929 -6.52701,-16.068c2.13501,-7.139 8.52101,-11.519 14.261,-9.784s8.662,8.928 6.526,16.067z" id="svg_605"/>
     <path fill="#FBFD8F" d="m45.96001,45.166c-2.118,7.124 -8.48,11.503 -14.20799,9.782c-5.729,-1.722 -8.655,-8.894 -6.53601,-16.018c2.119,-7.124 8.481,-11.503 14.209,-9.781s8.655,8.893 6.535,16.017z" id="svg_606"/>
     <path fill="#FCFE90" d="m45.92799,45.137c-2.10201,7.109 -8.44,11.487 -14.157,9.779c-5.71701,-1.709 -8.647,-8.857 -6.54401,-15.967c2.103,-7.109 8.44099,-11.487 14.157,-9.778c5.71701,1.708 8.64702,8.856 6.54401,15.966z" id="svg_607"/>
     <path fill="#FCFE91" d="m45.895,45.107c-2.08501,7.09399 -8.401,11.471 -14.10501,9.776c-5.70499,-1.69601 -8.638,-8.82201 -6.55199,-15.917c2.086,-7.094 8.401,-11.47 14.10599,-9.774c5.70401,1.696 8.63701,8.821 6.55101,15.915z" id="svg_608"/>
     <path fill="#FCFE92" d="m45.862,45.078c-2.069,7.07999 -8.362,11.45499 -14.054,9.77299c-5.692,-1.683 -8.63,-8.786 -6.56,-15.866c2.06999,-7.079 8.362,-11.455 14.054,-9.771c5.69299,1.68201 8.63,8.785 6.56,15.86401z" id="svg_609"/>
     <path fill="#FCFE93" d="m45.82899,45.049c-2.052,7.06499 -8.32201,11.439 -14.002,9.77s-8.621,-8.75 -6.56799,-15.814s8.32199,-11.438 14.00198,-9.769c5.68102,1.668 8.62201,8.748 6.56801,15.813z" id="svg_610"/>
     <path fill="#FCFE94" d="m45.79601,45.02c-2.036,7.049 -8.282,11.422 -13.95,9.76601c-5.668,-1.65701 -8.61299,-8.714 -6.576,-15.764c2.037,-7.049 8.283,-11.422 13.951,-9.765c5.668,1.656 8.61198,8.713 6.575,15.76299z" id="svg_611"/>
     <path fill="#FCFE95" d="m45.76401,44.991c-2.02,7.035 -8.243,11.40601 -13.89799,9.763c-5.65601,-1.644 -8.604,-8.678 -6.584,-15.713c2.02,-7.035 8.243,-11.406 13.899,-9.762c5.65498,1.642 8.60298,8.677 6.58299,15.712z" id="svg_612"/>
     <path fill="#FCFE96" d="m45.731,44.961c-2.003,7.02 -8.203,11.39 -13.847,9.76c-5.644,-1.63 -8.596,-8.643 -6.592,-15.663s8.204,-11.39 13.848,-9.759c5.643,1.63 8.595,8.642 6.591,15.662l0,0z" id="svg_613"/>
     <path fill="#FCFE97" d="m45.698,44.932c-1.986,7.005 -8.163,11.374 -13.795,9.757c-5.632,-1.617 -8.588,-8.606 -6.6,-15.612c1.987,-7.004 8.163,-11.373 13.795,-9.756c5.632,1.617 8.588,8.606 6.6,15.611l0,0z" id="svg_614"/>
     <path fill="#FCFE98" d="m45.66499,44.903c-1.97,6.99 -8.12401,11.357 -13.743,9.754c-5.62001,-1.604 -8.58,-8.571 -6.608,-15.561c1.97,-6.99 8.12399,-11.357 13.74399,-9.753c5.61902,1.603 8.57802,8.57 6.60701,15.56z" id="svg_615"/>
     <path fill="#FCFE99" d="m45.632,44.874c-1.953,6.976 -8.084,11.341 -13.692,9.751c-5.608,-1.591 -8.571,-8.535 -6.616,-15.51c1.95399,-6.975 8.084,-11.341 13.692,-9.75c5.60799,1.59 8.571,8.533 6.616,15.509z" id="svg_616"/>
     <path fill="#FCFE9A" d="m45.60001,44.844c-1.937,6.96 -8.04399,11.325 -13.64,9.748c-5.59599,-1.578 -8.563,-8.499 -6.625,-15.46c1.938,-6.96001 8.04401,-11.32401 13.64,-9.747c5.59599,1.578 8.562,8.499 6.625,15.459z" id="svg_617"/>
     <path fill="#FCFE9B" d="m45.566,44.815c-1.92,6.946 -8.004,11.309 -13.588,9.745c-5.584,-1.565 -8.554,-8.463 -6.633,-15.409c1.921,-6.945 8.005,-11.308 13.589,-9.744c5.584,1.564 8.554,8.462 6.632,15.408l0,0z" id="svg_618"/>
     <path fill="#FCFE9C" d="m45.534,44.786c-1.90399,6.931 -7.965,11.292 -13.537,9.741c-5.57199,-1.551 -8.545,-8.427 -6.64099,-15.358c1.90399,-6.931 7.965,-11.292 13.537,-9.741c5.57199,1.55099 8.545,8.427 6.64099,15.358z" id="svg_619"/>
     <path fill="#FCFE9D" d="m45.50101,44.757c-1.88699,6.91599 -7.925,11.27599 -13.485,9.738c-5.56,-1.538 -8.537,-8.39101 -6.649,-15.307c1.888,-6.916 7.92601,-11.276 13.485,-9.73801c5.56,1.538 8.537,8.39101 6.649,15.30701z" id="svg_620"/>
     <path fill="#FCFE9E" d="m45.468,44.728c-1.871,6.901 -7.886,11.26 -13.433,9.735c-5.548,-1.52499 -8.52901,-8.355 -6.657,-15.257c1.87199,-6.9 7.886,-11.259 13.43399,-9.734c5.547,1.524 8.528,8.354 6.65601,15.256z" id="svg_621"/>
     <path fill="#FCFE9F" d="m45.435,44.698c-1.854,6.886 -7.84599,11.244 -13.381,9.732c-5.536,-1.512 -8.52,-8.32 -6.66499,-15.206c1.855,-6.886 7.84599,-11.243 13.38199,-9.731c5.535,1.511 8.52,8.319 6.664,15.205z" id="svg_622"/>
     <path fill="#FCFEA0" d="m45.402,44.669c-1.837,6.872 -7.806,11.228 -13.33,9.729c-5.524,-1.499 -8.512,-8.284 -6.673,-15.155c1.838,-6.871 7.807,-11.227 13.33,-9.729c5.524,1.499 8.512,8.283 6.673,15.155l0,0z" id="svg_623"/>
     <path fill="#FCFEA1" d="m45.37,44.64c-1.821,6.856 -7.767,11.211 -13.278,9.726c-5.51199,-1.485 -8.504,-8.248 -6.68199,-15.104c1.82199,-6.856 7.767,-11.21 13.27899,-9.725c5.511,1.484 8.50301,8.24599 6.681,15.103z" id="svg_624"/>
     <path fill="#FCFEA2" d="m45.337,44.61c-1.805,6.842 -7.727,11.195 -13.227,9.723c-5.5,-1.472 -8.495,-8.212 -6.689,-15.054c1.806,-6.841 7.728,-11.194 13.227,-9.722c5.499,1.473 8.495,8.212 6.689,15.053l0,0z" id="svg_625"/>
     <path fill="#FCFEA3" d="m45.304,44.582c-1.78799,6.827 -7.687,11.178 -13.174,9.72c-5.48801,-1.459 -8.487,-8.176 -6.698,-15.003s7.68799,-11.178 13.17499,-9.719c5.487,1.458 8.48601,8.174 6.69701,15.002z" id="svg_626"/>
     <path fill="#FCFEA4" d="m45.271,44.552c-1.771,6.812 -7.647,11.16199 -13.123,9.717c-5.476,-1.446 -8.47899,-8.141 -6.70599,-14.953c1.772,-6.812 7.64799,-11.162 13.12399,-9.715c5.47501,1.445 8.47801,8.139 6.705,14.951z" id="svg_627"/>
     <path fill="#FCFEA5" d="m45.23801,44.523c-1.75499,6.797 -7.608,11.146 -13.071,9.713s-8.47,-8.104 -6.713,-14.901c1.755,-6.796 7.608,-11.146 13.071,-9.712c5.463,1.432 8.46999,8.103 6.713,14.9z" id="svg_628"/>
     <path fill="#FCFEA6" d="m45.20599,44.494c-1.739,6.782 -7.56801,11.13 -13.02,9.71c-5.452,-1.42001 -8.461,-8.068 -6.722,-14.85101c1.739,-6.782 7.56799,-11.129 13.02,-9.709c5.451,1.41901 8.46101,8.067 6.722,14.85001z" id="svg_629"/>
     <path fill="#FCFEA7" d="m45.172,44.464c-1.722,6.767 -7.528,11.113 -12.967,9.708c-5.44,-1.407 -8.453,-8.033 -6.73,-14.8c1.723,-6.767 7.529,-11.113 12.968,-9.707c5.439,1.406 8.453,8.032 6.729,14.799l0,0z" id="svg_630"/>
     <path fill="#FCFEA8" d="m45.14,44.435c-1.70599,6.752 -7.489,11.097 -12.916,9.705c-5.427,-1.394 -8.444,-7.997 -6.73801,-14.75c1.70601,-6.752 7.48901,-11.097 12.91701,-9.703c5.42599,1.39301 8.444,7.996 6.737,14.748z" id="svg_631"/>
     <path fill="#FCFEA9" d="m45.107,44.406c-1.689,6.738 -7.449,11.081 -12.864,9.702c-5.416,-1.38 -8.436,-7.961 -6.746,-14.699c1.69,-6.737 7.45,-11.081 12.865,-9.7c5.414,1.379 8.435,7.959 6.745,14.697l0,0z" id="svg_632"/>
     <path fill="#FCFEAA" d="m45.07401,44.377c-1.672,6.722 -7.40999,11.064 -12.81299,9.698c-5.403,-1.367 -8.42802,-7.925 -6.75401,-14.647c1.673,-6.723 7.41,-11.064 12.813,-9.697c5.403,1.365 8.42799,7.923 6.754,14.646z" id="svg_633"/>
     <path fill="#FCFEAB" d="m45.041,44.348c-1.65601,6.708 -7.37,11.048 -12.761,9.695c-5.39099,-1.354 -8.41901,-7.889 -6.76199,-14.597c1.657,-6.707 7.37,-11.048 12.761,-9.694c5.39099,1.353 8.42,7.888 6.76199,14.596z" id="svg_634"/>
     <path fill="#FCFEAC" d="m45.008,44.318c-1.63899,6.693 -7.33,11.032 -12.709,9.692c-5.379,-1.341 -8.411,-7.854 -6.771,-14.54601c1.64,-6.69199 7.33099,-11.032 12.71001,-9.69099c5.379,1.34 8.411,7.852 6.76999,14.545z" id="svg_635"/>
     <path fill="#FCFEAD" d="m44.976,44.289c-1.623,6.678 -7.291,11.016 -12.658,9.689c-5.367,-1.328 -8.402,-7.817 -6.778,-14.496c1.624,-6.678 7.291,-11.016 12.658,-9.688c5.366,1.328 8.402,7.817 6.778,14.495l0,0z" id="svg_636"/>
     <path fill="#FCFEAE" d="m44.94299,44.26c-1.606,6.66299 -7.25101,11 -12.606,9.686c-5.355,-1.315 -8.394,-7.782 -6.787,-14.445c1.60699,-6.663 7.25101,-10.999 12.606,-9.685c5.35501,1.314 8.39401,7.781 6.787,14.444z" id="svg_637"/>
     <path fill="#FCFEAF" d="m44.91,44.23c-1.589,6.648 -7.211,10.983 -12.554,9.683c-5.343,-1.301 -8.386,-7.746 -6.795,-14.394c1.591,-6.648 7.212,-10.983 12.555,-9.682c5.342,1.301 8.385,7.745 6.794,14.393l0,0z" id="svg_638"/>
     <path fill="#FDFEB0" d="m44.877,44.201c-1.573,6.634 -7.171,10.967 -12.502,9.68c-5.331,-1.288 -8.377,-7.71 -6.803,-14.343s7.172,-10.967 12.503,-9.679c5.33,1.287 8.377,7.709 6.802,14.342l0,0z" id="svg_639"/>
     <path fill="#FDFEB1" d="m44.844,44.172c-1.557,6.619 -7.132,10.951 -12.451,9.677c-5.319,-1.275 -8.369,-7.674 -6.811,-14.292c1.558,-6.619 7.133,-10.951 12.452,-9.676c5.319,1.274 8.368,7.672 6.81,14.291l0,0z" id="svg_640"/>
     <path fill="#FDFEB2" d="m44.812,44.143c-1.541,6.604 -7.092,10.93501 -12.399,9.673c-5.30699,-1.262 -8.36,-7.638 -6.819,-14.242c1.54201,-6.603 7.093,-10.934 12.40001,-9.672c5.30499,1.261 8.35899,7.637 6.81799,14.241z" id="svg_641"/>
     <path fill="#FDFEB3" d="m44.778,44.114c-1.523,6.589 -7.052,10.918 -12.347,9.67s-8.352,-7.602 -6.827,-14.191c1.524,-6.588 7.053,-10.918 12.348,-9.669c5.295,1.247 8.352,7.6 6.826,14.19l0,0z" id="svg_642"/>
     <path fill="#FDFEB4" d="m44.746,44.084c-1.507,6.574 -7.013,10.902 -12.295,9.667c-5.283,-1.235 -8.34401,-7.566 -6.83501,-14.14c1.508,-6.574 7.013,-10.902 12.29601,-9.666c5.28099,1.235 8.342,7.565 6.834,14.139z" id="svg_643"/>
     <path fill="#FDFEB5" d="m44.713,44.055c-1.491,6.559 -6.973,10.886 -12.244,9.664c-5.271,-1.223 -8.335,-7.53 -6.843,-14.09c1.492,-6.559 6.974,-10.885 12.244,-9.663c5.271,1.222 8.335,7.53 6.843,14.089l0,0z" id="svg_644"/>
     <path fill="#FDFEB6" d="m44.68,44.026c-1.474,6.544 -6.934,10.87 -12.192,9.661c-5.259,-1.209 -8.327,-7.495 -6.851,-14.039c1.475,-6.544 6.934,-10.869 12.193,-9.66c5.258,1.209 8.326,7.493 6.85,14.038l0,0z" id="svg_645"/>
     <path fill="#FDFEB7" d="m44.647,43.997c-1.45801,6.529 -6.894,10.854 -12.14101,9.658c-5.24699,-1.196 -8.31799,-7.459 -6.85899,-13.988c1.45799,-6.529 6.895,-10.853 12.14099,-9.657c5.24701,1.195 8.31801,7.457 6.85901,13.987z" id="svg_646"/>
     <path fill="#FDFEB8" d="m44.614,43.967c-1.441,6.515 -6.854,10.837 -12.088,9.655c-5.235,-1.183 -8.31,-7.423 -6.868,-13.938c1.442,-6.514 6.855,-10.836 12.089,-9.653c5.235,1.182 8.31,7.422 6.867,13.936l0,0z" id="svg_647"/>
     <path fill="#FDFEB9" d="m44.582,43.938c-1.425,6.5 -6.814,10.821 -12.037,9.65099c-5.22299,-1.17 -8.30099,-7.38699 -6.875,-13.88699c1.42599,-6.499 6.815,-10.82 12.03799,-9.65c5.22101,1.17 8.3,7.386 6.87401,13.886z" id="svg_648"/>
     <path fill="#FDFEBA" d="m44.549,43.909c-1.408,6.484 -6.775,10.805 -11.985,9.648c-5.211,-1.157 -8.293,-7.351 -6.884,-13.836c1.409,-6.484 6.775,-10.804 11.986,-9.647c5.21,1.156 8.292,7.35 6.883,13.835l0,0z" id="svg_649"/>
     <path fill="#FDFEBB" d="m44.516,43.88c-1.392,6.47 -6.735,10.788 -11.934,9.646c-5.199,-1.144 -8.285,-7.315 -6.892,-13.785s6.736,-10.788 11.934,-9.645c5.199,1.142 8.285,7.314 6.892,13.784l0,0z" id="svg_650"/>
     <path fill="#FDFEBC" d="m44.483,43.851c-1.375,6.455 -6.695,10.772 -11.882,9.642c-5.187,-1.13 -8.276,-7.279 -6.9,-13.734c1.376,-6.455 6.696,-10.771 11.883,-9.641c5.186,1.129 8.276,7.278 6.899,13.733l0,0z" id="svg_651"/>
     <path fill="#FDFEBD" d="m44.45,43.821c-1.358,6.44 -6.65599,10.756 -11.83,9.639c-5.17499,-1.117 -8.26799,-7.243 -6.90799,-13.684c1.36,-6.44 6.657,-10.755 11.83099,-9.638c5.174,1.117 8.26801,7.243 6.907,13.683z" id="svg_652"/>
     <path fill="#FDFEBE" d="m44.417,43.792c-1.342,6.425 -6.616,10.74 -11.778,9.636c-5.163,-1.104 -8.26,-7.208 -6.917,-13.633s6.617,-10.739 11.779,-9.635c5.163,1.104 8.26,7.207 6.916,13.632l0,0z" id="svg_653"/>
     <path fill="#FDFEBF" d="m44.385,43.763c-1.326,6.411 -6.577,10.724 -11.727,9.633c-5.15,-1.091 -8.251,-7.172 -6.924,-13.583c1.327,-6.41 6.578,-10.723 11.728,-9.632c5.149,1.091 8.249,7.172 6.923,13.582l0,0z" id="svg_654"/>
     <path fill="#FDFEC0" d="m44.35201,43.733c-1.30901,6.396 -6.537,10.708 -11.675,9.63c-5.13901,-1.078 -8.243,-7.136 -6.933,-13.532c1.31099,-6.395 6.53799,-10.707 11.67599,-9.629c5.138,1.078 8.242,7.13599 6.93201,13.531z" id="svg_655"/>
     <path fill="#FDFEC1" d="m44.319,43.705c-1.292,6.38 -6.497,10.69 -11.623,9.626c-5.127,-1.064 -8.234,-7.1 -6.94,-13.48c1.293,-6.38 6.498,-10.69 11.624,-9.626c5.125,1.064 8.233,7.099 6.939,13.48l0,0z" id="svg_656"/>
     <path fill="#FDFEC2" d="m44.286,43.675c-1.276,6.366 -6.45799,10.674 -11.57199,9.624c-5.114,-1.051 -8.226,-7.064 -6.948,-13.43c1.27699,-6.36501 6.45799,-10.674 11.57199,-9.623c5.114,1.05099 8.22501,7.063 6.948,13.429z" id="svg_657"/>
     <path fill="#FDFEC3" d="m44.25301,43.646c-1.25999,6.351 -6.418,10.658 -11.51999,9.62099c-5.10301,-1.039 -8.21701,-7.028 -6.957,-13.379c1.25999,-6.351 6.418,-10.658 11.521,-9.62c5.10199,1.037 8.217,7.027 6.95599,13.37801z" id="svg_658"/>
     <path fill="#FDFEC4" d="m44.22,43.617c-1.243,6.336 -6.378,10.642 -11.468,9.618c-5.09,-1.025 -8.208,-6.993 -6.964,-13.329s6.379,-10.642 11.469,-9.616c5.089,1.023 8.208,6.99 6.963,13.327l0,0z" id="svg_659"/>
     <path fill="#FDFEC5" d="m44.188,43.587c-1.22701,6.321 -6.338,10.626 -11.41701,9.61501c-5.078,-1.012 -8.2,-6.957 -6.97299,-13.278s6.33899,-10.625 11.41699,-9.61301c5.078,1.011 8.201,6.955 6.97301,13.276z" id="svg_660"/>
     <path fill="#FDFEC6" d="m44.155,43.558c-1.21,6.307 -6.299,10.61 -11.365,9.611c-5.066,-0.999 -8.192,-6.92 -6.981,-13.227c1.211,-6.306 6.299,-10.609 11.365,-9.61c5.066,0.999 8.192,6.92 6.981,13.226l0,0z" id="svg_661"/>
     <path fill="#FDFEC7" d="m44.122,43.529c-1.194,6.292 -6.259,10.594 -11.313,9.608c-5.054,-0.986 -8.183,-6.885 -6.989,-13.176c1.194,-6.291 6.26,-10.593 11.314,-9.607c5.053,0.985 8.183,6.883 6.988,13.175l0,0z" id="svg_662"/>
     <path fill="#FDFEC8" d="m44.089,43.5c-1.177,6.276 -6.21901,10.577 -11.261,9.605c-5.04199,-0.973 -8.175,-6.84901 -6.99701,-13.125s6.22,-10.577 11.26201,-9.604c5.041,0.971 8.175,6.847 6.996,13.124z" id="svg_663"/>
     <path fill="#FDFEC9" d="m44.056,43.471c-1.16,6.262 -6.18,10.561 -11.209,9.602c-5.03,-0.959 -8.167,-6.813 -7.005,-13.075c1.162,-6.261 6.181,-10.56 11.21,-9.601c5.029,0.958 8.166,6.811 7.004,13.074l0,0z" id="svg_664"/>
     <path fill="#FDFECA" d="m44.023,43.441c-1.144,6.247 -6.14,10.544 -11.158,9.599s-8.158,-6.777 -7.013,-13.024c1.145,-6.247 6.141,-10.544 11.159,-9.598c5.017,0.946 8.158,6.776 7.012,13.023l0,0z" id="svg_665"/>
     <path fill="#FDFECB" d="m43.991,43.412c-1.127,6.232 -6.101,10.528 -11.106,9.596c-5.006,-0.933 -8.15,-6.741 -7.021,-12.973s6.102,-10.528 11.107,-9.595c5.004,0.932 8.149,6.74 7.02,12.972l0,0z" id="svg_666"/>
     <path fill="#FDFECC" d="m43.95799,43.383c-1.11101,6.217 -6.061,10.51199 -11.054,9.59299c-4.994,-0.92 -8.142,-6.706 -7.03,-12.923c1.112,-6.217 6.062,-10.511 11.056,-9.591c4.992,0.918 8.14001,6.704 7.028,12.92101z" id="svg_667"/>
     <path fill="#FDFECD" d="m43.925,43.354c-1.09401,6.203 -6.021,10.496 -11.00301,9.59c-4.98199,-0.907 -8.133,-6.669 -7.03799,-12.872c1.09599,-6.202 6.022,-10.495 11.004,-9.588c4.981,0.905 8.133,6.667 7.037,12.87z" id="svg_668"/>
     <path fill="#FDFECE" d="m43.892,43.324c-1.078,6.188 -5.981,10.48 -10.951,9.587c-4.97,-0.894 -8.125,-6.634 -7.046,-12.821c1.079,-6.187 5.982,-10.479 10.952,-9.585c4.969,0.892 8.125,6.632 7.045,12.819l0,0z" id="svg_669"/>
     <path fill="#FDFECF" d="m43.85899,43.295c-1.062,6.172 -5.942,10.46301 -10.899,9.583c-4.95801,-0.88 -8.116,-6.598 -7.054,-12.771c1.062,-6.172 5.942,-10.46201 10.89999,-9.582c4.95702,0.881 8.11601,6.598 7.05301,12.77z" id="svg_670"/>
     <path fill="#FEFED0" d="m43.826,43.266c-1.04401,6.158 -5.90201,10.447 -10.84801,9.58c-4.946,-0.867 -8.10699,-6.562 -7.062,-12.72c1.04601,-6.157 5.903,-10.446 10.84801,-9.579c4.946,0.867 8.10899,6.561 7.062,12.719z" id="svg_671"/>
     <path fill="#FEFED1" d="m43.793,43.237c-1.028,6.143 -5.862,10.431 -10.796,9.577c-4.934,-0.854 -8.099,-6.526 -7.07,-12.669c1.029,-6.143 5.863,-10.43 10.797,-9.576c4.933,0.853 8.099,6.525 7.069,12.668l0,0z" id="svg_672"/>
     <path fill="#FEFED2" d="m43.761,43.208c-1.012,6.128 -5.823,10.415 -10.744,9.574c-4.922,-0.841 -8.091,-6.49 -7.078,-12.618c1.013,-6.128 5.824,-10.414 10.745,-9.573c4.92,0.84 8.09,6.489 7.077,12.617l0,0z" id="svg_673"/>
     <path fill="#FEFED3" d="m43.728,43.178c-0.996,6.113 -5.78299,10.39799 -10.69299,9.571c-4.91,-0.828 -8.08301,-6.455 -7.086,-12.568c0.99699,-6.113 5.784,-10.397 10.69299,-9.57c4.909,0.828 8.08301,6.454 7.086,12.567z" id="svg_674"/>
     <path fill="#FEFED4" d="m43.69501,43.149c-0.979,6.098 -5.743,10.382 -10.64099,9.568c-4.89801,-0.814 -8.07401,-6.418 -7.09401,-12.51701c0.98,-6.098 5.744,-10.381 10.642,-9.56699c4.89699,0.814 8.073,6.418 7.093,12.516z" id="svg_675"/>
     <path fill="#FEFED5" d="m43.662,43.12c-0.962,6.083 -5.704,10.366 -10.589,9.565c-4.886,-0.801 -8.066,-6.382 -7.103,-12.466c0.963,-6.083 5.705,-10.365 10.59,-9.563c4.885,0.8 8.066,6.38 7.102,12.464l0,0z" id="svg_676"/>
     <path fill="#FEFED6" d="m43.629,43.09c-0.946,6.069 -5.664,10.35 -10.538,9.562c-4.874,-0.789 -8.057,-6.347 -7.11,-12.416c0.947,-6.068 5.665,-10.349 10.538,-9.56c4.874,0.788 8.058,6.346 7.11,12.414l0,0z" id="svg_677"/>
     <path fill="#FEFED7" d="m43.597,43.062c-0.929,6.053 -5.625,10.333 -10.48601,9.55901c-4.862,-0.775 -8.049,-6.311 -7.11899,-12.36501c0.931,-6.05299 5.625,-10.333 10.487,-9.557c4.86,0.773 8.04799,6.30901 7.118,12.363z" id="svg_678"/>
     <path fill="#FEFED8" d="m43.563,43.032c-0.91301,6.039 -5.584,10.317 -10.43401,9.555c-4.84999,-0.762 -8.041,-6.275 -7.127,-12.313c0.914,-6.039 5.586,-10.316 10.435,-9.554c4.85001,0.761 8.041,6.27299 7.12601,12.312z" id="svg_679"/>
     <path fill="#FEFED9" d="m43.53101,43.003c-0.896,6.024 -5.545,10.301 -10.38199,9.552c-4.83701,-0.749 -8.03201,-6.239 -7.13501,-12.263c0.897,-6.023 5.54601,-10.3 10.383,-9.551c4.836,0.748 8.032,6.238 7.134,12.262z" id="svg_680"/>
     <path fill="#FEFFDA" d="m43.498,42.974c-0.88,6.009 -5.505,10.285 -10.331,9.549c-4.826,-0.736 -8.023,-6.203 -7.143,-12.212c0.881,-6.008 5.506,-10.284 10.332,-9.548c4.825,0.735 8.023,6.201 7.142,12.211l0,0z" id="svg_681"/>
     <path fill="#FEFFDB" d="m43.465,42.944c-0.86299,5.994 -5.466,10.269 -10.27899,9.546c-4.813,-0.723 -8.015,-6.167 -7.151,-12.16199c0.86499,-5.994 5.467,-10.26801 10.28,-9.54501c4.813,0.723 8.015,6.167 7.14999,12.161z" id="svg_682"/>
     <path fill="#FEFFDC" d="m43.433,42.915c-0.847,5.979 -5.427,10.252 -10.228,9.543c-4.801,-0.709 -8.007,-6.132 -7.159,-12.111c0.848,-5.979 5.427,-10.251 10.229,-9.542c4.8,0.709 8.006,6.131 7.158,12.11l0,0z" id="svg_683"/>
     <path fill="#FEFFDD" d="m43.399,42.886c-0.83,5.965 -5.38701,10.236 -10.175,9.54c-4.78999,-0.696 -7.99899,-6.095 -7.16699,-12.06001c0.83099,-5.964 5.38699,-10.235 10.17599,-9.53899c4.789,0.695 7.998,6.09399 7.166,12.059z" id="svg_684"/>
     <path fill="#FEFFDE" d="m43.367,42.857c-0.813,5.949 -5.347,10.219 -10.124,9.537c-4.777,-0.683 -7.99,-6.06 -7.175,-12.009c0.814,-5.949 5.348,-10.219 10.125,-9.536c4.776,0.682 7.989,6.058 7.174,12.008l0,0z" id="svg_685"/>
     <path fill="#FEFFDF" d="m43.334,42.828c-0.797,5.935 -5.308,10.203 -10.07201,9.534c-4.765,-0.67 -7.98099,-6.024 -7.183,-11.958s5.308,-10.203 10.073,-9.533c4.76401,0.668 7.981,6.022 7.18201,11.957z" id="svg_686"/>
     <path fill="#FEFFE0" d="m43.301,42.798c-0.781,5.92 -5.268,10.187 -10.021,9.531c-4.753,-0.657 -7.973,-5.988 -7.191,-11.908c0.782,-5.919 5.269,-10.186 10.021,-9.529c4.753,0.656 7.973,5.986 7.191,11.906l0,0z" id="svg_687"/>
     <path fill="#FEFFE1" d="m43.268,42.769c-0.764,5.905 -5.228,10.171 -9.969,9.527s-7.964,-5.952 -7.199,-11.857c0.765,-5.904 5.229,-10.17 9.969,-9.526c4.741,0.643 7.965,5.951 7.199,11.856l0,0z" id="svg_688"/>
     <path fill="#FEFFE2" d="m43.235,42.74c-0.748,5.89 -5.188,10.154 -9.91701,9.524c-4.72899,-0.63 -7.95599,-5.916 -7.20799,-11.806c0.74899,-5.89 5.189,-10.154 9.918,-9.523c4.729,0.62901 7.957,5.915 7.207,11.805z" id="svg_689"/>
     <path fill="#FEFFE3" d="m43.203,42.71c-0.731,5.875 -5.149,10.138 -9.86501,9.521c-4.717,-0.617 -7.948,-5.88 -7.216,-11.756c0.73201,-5.875 5.149,-10.137 9.86601,-9.52c4.71599,0.618 7.948,5.88 7.215,11.755z" id="svg_690"/>
     <path fill="#FEFFE4" d="m43.17,42.681c-0.715,5.86 -5.10899,10.122 -9.814,9.519c-4.705,-0.604 -7.939,-5.84499 -7.224,-11.70499c0.716,-5.86 5.11,-10.121 9.814,-9.51701c4.705,0.603 7.94,5.843 7.224,11.703z" id="svg_691"/>
     <path fill="#FEFFE5" d="m43.13699,42.652c-0.698,5.846 -5.069,10.106 -9.76201,9.516c-4.69299,-0.591 -7.931,-5.809 -7.23199,-11.654c0.69901,-5.845 5.07001,-10.105 9.763,-9.514c4.69202,0.589 7.93001,5.807 7.231,11.652z" id="svg_692"/>
     <path fill="#FEFFE6" d="m43.104,42.623c-0.682,5.831 -5.03,10.089 -9.71,9.512c-4.681,-0.578 -7.923,-5.772 -7.24,-11.603s5.031,-10.089 9.711,-9.511c4.68,0.577 7.922,5.771 7.239,11.602l0,0z" id="svg_693"/>
     <path fill="#FEFFE7" d="m43.071,42.594c-0.665,5.815 -4.99,10.073 -9.659,9.509c-4.669,-0.564 -7.914,-5.737 -7.248,-11.553c0.667,-5.815 4.991,-10.072 9.66,-9.507c4.668,0.563 7.914,5.735 7.247,11.551l0,0z" id="svg_694"/>
     <path fill="#FEFFE8" d="m43.039,42.564c-0.64799,5.80099 -4.951,10.057 -9.60699,9.506c-4.65701,-0.552 -7.90601,-5.701 -7.25601,-11.502c0.65001,-5.8 4.951,-10.056 9.608,-9.504c4.655,0.55 7.90401,5.7 7.255,11.5z" id="svg_695"/>
     <path fill="#FEFFE9" d="m43.005,42.535c-0.632,5.786 -4.911,10.041 -9.555,9.503c-4.645,-0.539 -7.897,-5.665 -7.265,-11.451c0.633,-5.786 4.912,-10.04 9.556,-9.501c4.645,0.537 7.898,5.663 7.264,11.449l0,0z" id="svg_696"/>
     <path fill="#FEFFEA" d="m42.973,42.506c-0.615,5.771 -4.871,10.024 -9.503,9.5c-4.633,-0.525 -7.889,-5.629 -7.272,-11.401c0.617,-5.771 4.872,-10.023 9.504,-9.498c4.631,0.524 7.888,5.628 7.271,11.399l0,0z" id="svg_697"/>
     <path fill="#FEFFEB" d="m42.94,42.477c-0.599,5.756 -4.832,10.008 -9.452,9.497c-4.621,-0.512 -7.88,-5.593 -7.28001,-11.35c0.60001,-5.756 4.832,-10.007 9.45201,-9.495c4.62,0.511 7.881,5.591 7.28,11.348z" id="svg_698"/>
     <path fill="#FEFFEC" d="m42.907,42.447c-0.58299,5.742 -4.79199,9.992 -9.39999,9.494c-4.60901,-0.499 -7.87201,-5.558 -7.289,-11.299s4.79199,-9.991 9.39999,-9.492c4.60901,0.498 7.873,5.556 7.289,11.297z" id="svg_699"/>
     <path fill="#FEFFED" d="m42.87399,42.418c-0.565,5.727 -4.752,9.976 -9.34801,9.49c-4.597,-0.486 -7.86299,-5.521 -7.29599,-11.249c0.567,-5.726 4.75299,-9.975 9.349,-9.489c4.595,0.486 7.86301,5.521 7.295,11.248z" id="svg_700"/>
     <path fill="#FEFFEE" d="m42.841,42.389c-0.549,5.711 -4.71201,9.959 -9.29601,9.487c-4.584,-0.473 -7.855,-5.486 -7.30499,-11.198c0.55099,-5.711 4.713,-9.958 9.297,-9.486c4.584,0.473 7.856,5.485 7.304,11.197z" id="svg_701"/>
     <path fill="#FEFFEF" d="m42.80901,42.36c-0.53299,5.697 -4.67299,9.943 -9.245,9.484c-4.573,-0.459 -7.847,-5.45 -7.313,-11.146c0.534,-5.696 4.673,-9.942 9.246,-9.483c4.57098,0.458 7.84599,5.44801 7.312,11.145z" id="svg_702"/>
     <path fill="#FFFFF0" d="m42.776,42.331c-0.517,5.682 -4.633,9.927 -9.193,9.481c-4.561,-0.446 -7.838,-5.414 -7.321,-11.096s4.634,-9.926 9.194,-9.48c4.559,0.445 7.838,5.412 7.32,11.095l0,0z" id="svg_703"/>
     <path fill="#FFFFF1" d="m42.743,42.301c-0.5,5.667 -4.593,9.911 -9.14099,9.478c-4.548,-0.433 -7.83,-5.378 -7.32901,-11.045c0.50101,-5.667 4.59401,-9.91 9.142,-9.477c4.54701,0.432 7.83,5.377 7.328,11.044z" id="svg_704"/>
     <path fill="#FFFFF2" d="m42.71,42.272c-0.483,5.652 -4.554,9.895 -9.089,9.475c-4.537,-0.42 -7.822,-5.342 -7.337,-10.995c0.485,-5.652 4.555,-9.894 9.091,-9.474c4.534,0.42 7.82,5.342 7.335,10.994l0,0z" id="svg_705"/>
     <path fill="#FFFFF3" d="m42.677,42.243c-0.467,5.638 -4.514,9.878 -9.038,9.472c-4.524,-0.407 -7.813,-5.307 -7.345,-10.944c0.468,-5.637 4.515,-9.877 9.039,-9.471c4.523,0.407 7.813,5.305 7.344,10.943l0,0z" id="svg_706"/>
     <path fill="#FFFFF4" d="m42.645,42.214c-0.45,5.622 -4.47501,9.862 -8.98601,9.468c-4.51199,-0.394 -7.80499,-5.271 -7.354,-10.893c0.45201,-5.622 4.47601,-9.861 8.98701,-9.467c4.51099,0.393 7.80499,5.269 7.353,10.892z" id="svg_707"/>
     <path fill="#FFFFF5" d="m42.611,42.185c-0.434,5.607 -4.435,9.846 -8.935,9.465s-7.796,-5.234 -7.361,-10.842c0.435,-5.607 4.436,-9.845 8.936,-9.464c4.499,0.379 7.796,5.233 7.36,10.841l0,0z" id="svg_708"/>
     <path fill="#FFFFF6" d="m42.579,42.155c-0.417,5.593 -4.395,9.829 -8.883,9.462c-4.488,-0.368 -7.788,-5.199 -7.37,-10.792c0.419,-5.592 4.396,-9.829 8.884,-9.461c4.487,0.367 7.788,5.199 7.369,10.791l0,0z" id="svg_709"/>
     <path fill="#FFFFF7" d="m42.54601,42.126c-0.401,5.578 -4.355,9.813 -8.83101,9.459c-4.47699,-0.354 -7.77899,-5.163 -7.37799,-10.741c0.40201,-5.577 4.356,-9.812 8.83301,-9.458c4.47499,0.354 7.77798,5.16199 7.37599,10.74z" id="svg_710"/>
     <path fill="#FFFFF8" d="m42.513,42.097c-0.384,5.563 -4.31599,9.797 -8.78,9.457c-4.464,-0.341 -7.771,-5.127 -7.386,-10.69c0.386,-5.563 4.317,-9.796 8.78101,-9.455c4.463,0.339 7.771,5.125 7.38499,10.688z" id="svg_711"/>
     <path fill="#FFFFF9" d="m42.48,42.067c-0.367,5.548 -4.276,9.781 -8.728,9.453c-4.452,-0.328 -7.762,-5.091 -7.394,-10.639c0.369,-5.548 4.277,-9.78 8.729,-9.452c4.452,0.327 7.763,5.09 7.393,10.638l0,0z" id="svg_712"/>
     <path fill="#FFFFFA" d="m42.44701,42.038c-0.351,5.534 -4.23599,9.765 -8.67599,9.45c-4.44,-0.315 -7.754,-5.055 -7.40201,-10.588s4.237,-9.764 8.677,-9.44901c4.439,0.314 7.754,5.054 7.401,10.58701z" id="svg_713"/>
     <path fill="#FFFFFB" d="m42.41499,42.009c-0.334,5.519 -4.19701,9.749 -8.625,9.447c-4.42801,-0.302 -7.746,-5.02 -7.41,-10.538c0.336,-5.518 4.198,-9.747 8.625,-9.445c4.42801,0.3 7.74602,5.018 7.41,10.536z" id="svg_714"/>
     <path fill="#FFFFFC" d="m42.382,41.98c-0.31801,5.503 -4.157,9.731 -8.573,9.444c-4.416,-0.289 -7.737,-4.984 -7.418,-10.48701c0.319,-5.503 4.15799,-9.731 8.573,-9.44199c4.41499,0.28699 7.73799,4.981 7.418,10.485z" id="svg_715"/>
     <path fill="#FFFFFD" d="m42.349,41.951c-0.301,5.489 -4.117,9.715 -8.521,9.44c-4.404,-0.275 -7.729,-4.947 -7.426,-10.436c0.303,-5.488 4.118,-9.715 8.522,-9.439c4.403,0.274 7.728,4.946 7.425,10.435l0,0z" id="svg_716"/>
     <path fill="#FFFFFE" d="m42.31599,41.921c-0.285,5.474 -4.078,9.69901 -8.46901,9.438c-4.392,-0.262 -7.72,-4.912 -7.43399,-10.386c0.287,-5.473 4.07899,-9.698 8.47,-9.436c4.39,0.26099 7.72,4.91 7.433,10.384z" id="svg_717"/>
     <path fill="#FFFFFF" d="m42.283,41.892c-0.269,5.459 -4.038,9.683 -8.417,9.435c-4.38,-0.249 -7.712,-4.876 -7.442,-10.335c0.27,-5.458 4.039,-9.682 8.418,-9.433c4.379,0.248 7.712,4.874 7.441,10.333l0,0z" id="svg_718"/>
    </g>
    <g id="svg_719">
     <path fill="#FFFFFF" d="m49.694,30.628c-0.34,1.865 -1.798,3.165 -3.257,2.906c-1.45799,-0.25999 -2.36499,-1.98299 -2.02499,-3.84599c0.339,-1.86501 1.797,-3.166 3.257,-2.90601c1.45799,0.26 2.36499,1.982 2.02499,3.846z" id="svg_720"/>
    </g>
    <g id="svg_721">
     <path fill="#8ED61A" d="m67.438,155.34399c-2.263,0.649 -4.59801,8.241 -4.32701,10.44299c0.35701,2.90401 3.43102,0.922 5.09501,0.40001c1.418,-0.44502 2.95,0.224 4.48201,0.34398c1.515,0.121 3.745,-1.36899 4.96399,-0.50699c1.39801,-2.317 -3.53699,-6.40901 -4.939,-8.009c-0.75,-0.85399 -1.867,-2.74399 -3.004,-3.09099c-0.96001,-0.293 -1.334,0.25301 -2.271,0.42" id="svg_722"/>
    </g>
   </g>
   <g id="svg_723">
    <g id="svg_724">
     <path fill="none" d="m65.862,155.668c1.75101,-0.75 3.502,-0.60001 5.252,-0.45" id="svg_725"/>
    </g>
    <g id="svg_726">
     <path fill="#C1272D" d="m65.862,156.918c1.715,-0.673 3.44901,-0.603 5.252,-0.45c-0.05099,-0.004 0.089,-2.493 0,-2.5c-1.80299,-0.153 -3.53799,-0.22301 -5.252,0.45c-0.3,0.118 0.267,2.395 0,2.5l0,0z" id="svg_727"/>
    </g>
   </g>
  </g>
 </g>
</svg>