<svg xmlns="http://www.w3.org/2000/svg" width="135" height="410">
  <path fill="none" d="M77.6 146c-11.8 10.6-51.3 31-47 48.4 4 18.3 47.2 22.4 61 26.7 16.7 5 37 15 37 35 0 27-38 35-56 43-17.2 8-30 17-33.6 36-5 29 45.3 40 61.3 56"/>
  <path fill="#C1272D" d="M77.6 144.8c-14 12.2-31.6 20-43 34.8-3 4-4.7 8.6-4.4 13.7.4 7.3 6.4 12 12.4 15.2 15.2 8.2 32.7 9 49 14 17.8 5.4 45 19 35 42.5-7 16.5-29 23-44.4 28.6-19.6 7.2-38.8 17-43.2 39.4-2.7 14 6.5 24.4 17.3 31.8 14 9.6 32 14.7 44 27-.5-.6.4-2.2 0-2.6-12-12.2-30-17.5-44-27-6.7-4.3-13-10-16.2-17.4-3-9.5 2-21 8-28.3 13-15.2 34-19.5 52-27 15-6.3 30-16 30-33.8 0-37.6-54-37-79-46.6-6-2-13-6-17-12s1-13 5-18c11-13 27-20 40-31 .8 0 0-2 0-2z"/>
  <ellipse cx="66.2" cy="79.2" fill="#8FD61D" rx="61.9" ry="75.8"/>
  <ellipse cx="66" cy="78.9" fill="#90D61D" rx="61.5" ry="75.4"/>
  <ellipse cx="65.7" cy="78.6" fill="#91D71E" rx="61.1" ry="74.9"/>
  <ellipse cx="65.5" cy="78.3" fill="#92D71E" rx="60.7" ry="74.5"/>
  <ellipse cx="65.2" cy="78.1" fill="#93D71F" rx="60.3" ry="74.1"/>
  <ellipse cx="65" cy="77.8" fill="#94D81F" rx="59.9" ry="73.6"/>
  <ellipse cx="64.7" cy="77.5" fill="#95D820" rx="59.6" ry="73.2"/>
  <ellipse cx="64.5" cy="77.3" fill="#96D920" rx="59.2" ry="72.8"/>
  <ellipse cx="64.2" cy="77" fill="#97D921" rx="58.8" ry="72.3"/>
  <ellipse cx="63.9" cy="76.7" fill="#98D921" rx="58.4" ry="71.9"/>
  <ellipse cx="63.7" cy="76.4" fill="#99DA22" rx="58" ry="71.5"/>
  <ellipse cx="63.4" cy="76.2" fill="#9ADA22" rx="57.6" ry="71.1"/>
  <ellipse cx="63.2" cy="75.9" fill="#9BDA22" rx="57.3" ry="70.6"/>
  <ellipse cx="62.9" cy="75.6" fill="#9CDB23" rx="56.9" ry="70.2"/>
  <ellipse cx="62.7" cy="75.3" fill="#9DDB23" rx="56.5" ry="69.8"/>
  <ellipse cx="62.4" cy="75.1" fill="#9EDC24" rx="56.1" ry="69.3"/>
  <ellipse cx="62.2" cy="74.8" fill="#9FDC24" rx="55.7" ry="68.9"/>
  <ellipse cx="61.9" cy="74.5" fill="#A0DC25" rx="55.3" ry="68.5"/>
  <ellipse cx="61.6" cy="74.2" fill="#A1DD25" rx="55" ry="68"/>
  <ellipse cx="61.4" cy="74" fill="#A2DD26" rx="54.6" ry="67.6"/>
  <ellipse cx="61.1" cy="73.7" fill="#A3DD26" rx="54.2" ry="67.2"/>
  <ellipse cx="60.9" cy="73.4" fill="#A4DE27" rx="53.8" ry="66.7"/>
  <ellipse cx="60.6" cy="73.2" fill="#A5DE27" rx="53.4" ry="66.3"/>
  <ellipse cx="60.4" cy="72.9" fill="#A6DE27" rx="53.1" ry="65.9"/>
  <ellipse cx="60.1" cy="72.6" fill="#A7DF28" rx="52.7" ry="65.4"/>
  <ellipse cx="59.9" cy="72.3" fill="#A8DF28" rx="52.3" ry="65"/>
  <ellipse cx="59.6" cy="72.1" fill="#A9E029" rx="51.9" ry="64.6"/>
  <ellipse cx="59.3" cy="71.8" fill="#AAE029" rx="51.5" ry="64.1"/>
  <ellipse cx="59.1" cy="71.5" fill="#ABE02A" rx="51.1" ry="63.7"/>
  <ellipse cx="58.8" cy="71.2" fill="#ABE12A" rx="50.8" ry="63.3"/>
  <ellipse cx="58.6" cy="71" fill="#ACE12B" rx="50.4" ry="62.8"/>
  <ellipse cx="58.3" cy="70.7" fill="#ADE12B" rx="50" ry="62.4"/>
  <ellipse cx="58.1" cy="70.4" fill="#AEE22C" rx="49.6" ry="62"/>
  <ellipse cx="57.8" cy="70.1" fill="#AFE22C" rx="49.2" ry="61.6"/>
  <ellipse cx="57.6" cy="69.9" fill="#B0E32D" rx="48.8" ry="61.1"/>
  <ellipse cx="57.3" cy="69.6" fill="#B1E32D" rx="48.5" ry="60.7"/>
  <ellipse cx="57" cy="69.3" fill="#B2E32D" rx="48.1" ry="60.3"/>
  <ellipse cx="56.8" cy="69.1" fill="#B3E42E" rx="47.7" ry="59.8"/>
  <ellipse cx="56.5" cy="68.8" fill="#B4E42E" rx="47.3" ry="59.4"/>
  <ellipse cx="56.3" cy="68.5" fill="#B5E42F" rx="46.9" ry="59"/>
  <ellipse cx="56" cy="68.2" fill="#B6E52F" rx="46.5" ry="58.5"/>
  <ellipse cx="55.8" cy="68" fill="#B7E530" rx="46.2" ry="58.1"/>
  <ellipse cx="55.5" cy="67.7" fill="#B8E530" rx="45.8" ry="57.7"/>
  <ellipse cx="55.3" cy="67.4" fill="#B9E631" rx="45.4" ry="57.2"/>
  <ellipse cx="55" cy="67.1" fill="#BAE631" rx="45" ry="56.8"/>
  <ellipse cx="54.7" cy="66.9" fill="#BBE732" rx="44.6" ry="56.4"/>
  <ellipse cx="54.5" cy="66.6" fill="#BCE732" rx="44.2" ry="55.9"/>
  <ellipse cx="54.2" cy="66.3" fill="#BDE732" rx="43.9" ry="55.5"/>
  <ellipse cx="54" cy="66" fill="#BEE833" rx="43.5" ry="55.1"/>
  <ellipse cx="53.7" cy="65.8" fill="#BFE833" rx="43.1" ry="54.6"/>
  <ellipse cx="53.5" cy="65.5" fill="#C0E834" rx="42.7" ry="54.2"/>
  <ellipse cx="53.2" cy="65.2" fill="#C1E934" rx="42.3" ry="53.8"/>
  <ellipse cx="53" cy="65" fill="#C2E935" rx="42" ry="53.3"/>
  <ellipse cx="52.7" cy="64.7" fill="#C3EA35" rx="41.6" ry="52.9"/>
  <ellipse cx="52.4" cy="64.4" fill="#C4EA36" rx="41.2" ry="52.5"/>
  <ellipse cx="52.2" cy="64.1" fill="#C5EA36" rx="40.8" ry="52"/>
  <ellipse cx="51.9" cy="63.9" fill="#C6EB37" rx="40.4" ry="51.6"/>
  <ellipse cx="51.7" cy="63.6" fill="#C7EB37" rx="40" ry="51.2"/>
  <path fill="#C8EB37" d="M91 63.3c-.2 28-18 50.4-39.8 50.3C29.4 113.6 11.8 91 12 63c0-27.8 17.7-50.4 39.5-50.3C73.3 12.7 91 35.4 91 63.3z"/>
  <path fill="#C9EC36" d="M90 63c0 27.5-17.7 49.6-39.2 49.5-21.5 0-38.8-22.5-38.7-50C13 35 30 13 52 13s38.2 22.5 38 50z"/>
  <path fill="#CAEC36" d="M89.2 62.7c-.2 27-17.6 49-38.8 48.7C29.2 111.2 12 89 12.4 62c.2-27 17.6-49 38.8-48.7 21.2.2 38.2 22.3 38 49.4z"/>
  <path fill="#CBEC35" d="M88.3 62.4c-.3 26.7-17.5 48-38.4 48-21-.4-38-22.2-38-49 0-26.7 17-48 38-47.8 21 .2 37 22 37 48.8z"/>
  <path fill="#CCED35" d="M87.5 62c-.4 26.4-17.4 47.5-38 47-20.5 0-37-21.7-36.5-48 .3-26.4 17.3-47.5 38-47.2 20.5.4 37 22 36.5 48.3z"/>
  <path fill="#CDED34" d="M86.7 61.8c-.5 26-17.4 46.6-37.7 46.2-20.3-.4-36.3-21.7-36-47.6.6-26 17.4-46.7 37.7-46.3C71 15 87 36 86.7 62z"/>
  <path fill="#CEED34" d="M85.8 61.5C85.3 87 68.6 107.3 48.6 107c-20-.5-35.8-21.6-35.2-47 .5-25.7 17.2-46 37.2-45.6 20 .5 35.8 21.5 35.2 47z"/>
  <path fill="#CFEE33" d="M85 61.2c-.7 25-17 45-36.8 44.6S13 84.5 13.6 59.3c.7-25 17-45 36.8-44.6S85.6 36 85 61.2z"/>
  <path fill="#D0EE33" d="M84 61c-.6 24.6-17 44.2-36.3 43.6-19.4-.5-34.5-21-33.8-45.8C14 34 31 14.4 50 15c19.4.6 34.5 21 33.8 46z"/>
  <path fill="#D1EE33" d="M83.3 60.5c-.8 24.4-17 43.7-36 43-19-.6-34-21-33.2-45.3 1-24.3 17-43.6 36-43 20 .7 34 21 34 45.3z"/>
  <path fill="#D2EF32" d="M82.4 60.2c-.8 24-16.8 43-35.6 42.2-18.8-.7-33.3-20.7-32.4-44.7.8-24 16.8-42.8 35.6-42 18.8.6 33.3 20.6 32.4 44.5z"/>
  <path fill="#D3EF32" d="M81.6 60c-1 23.5-16.7 42-35.2 41.3s-32.7-20.5-31.8-44C15.6 33.6 31.3 15 49.8 16s32.7 20.3 31.8 44z"/>
  <path fill="#D4EF31" d="M80.8 59.6C79.8 82.8 64.2 101 46 100c-18.2-.6-32.2-20-31-43.3 1-23 16.5-41.3 34.7-40.5 18.2 1 32 20.4 31 43.6z"/>
  <path fill="#D5F031" d="M80 59.3C78.7 82 63.3 100 45.4 99 27.4 98 14 79 15 56c1.2-22.7 16.6-40.5 34.5-39.6 18 1 31.5 20 30.4 43z"/>
  <path fill="#D6F030" d="M79 59c-1 22.4-16.3 39.8-34 39-17.5-1-30.8-20-29.6-42.4s16.4-39.8 34-39c17.5 1 31 20 29.7 42.4z"/>
  <path fill="#D7F030" d="M78.2 58.7c-1.2 22-16.3 39-33.6 38S14.3 77.2 15.6 55C17 33 32 16 49.2 17s30.3 19.7 29 41.7z"/>
  <path fill="#D8F130" d="M77.4 58.4C76 80 61.2 96.7 44.2 95.6c-17-1-29.7-19.4-28.3-41C17 32.8 32 16 49 17.2c17 1 29.7 19.5 28.4 41z"/>
  <path fill="#D9F12F" d="M76.5 58c-1.4 21.4-16 37.7-32.7 36.5C27 93.5 14.8 75.2 16 54c1.5-21.3 16.2-37.6 33-36.4S78 37 76.4 58z"/>
  <path fill="#DAF12F" d="M75.7 57.8c-1.5 21-16 36.8-32.4 35.6-16.4-1.2-28.4-19-27-40 1.5-20.8 16-36.7 32.4-35.5 16.3 1 28.5 19 27 39z"/>
  <path fill="#DBF22E" d="M75 57.5c-1.7 20.5-16 36-32 34.8C26.7 91 15 73.3 16.5 53c1.6-20.6 16-36 32-34.8S76.5 37 75 57.5z"/>
  <path fill="#DCF22E" d="M74 57.2c-1.6 20-15.8 35.3-31.6 34-15.8-1.4-27.2-18.7-25.6-38.8 1.7-20 15.8-35.3 31.6-34S75.7 37 74 57.2z"/>
  <path fill="#DDF22D" d="M73.2 57C71.4 76.5 57.5 91.3 42 90c-15.5-1.4-26.6-18.5-25-38.2 2-19.6 16-34.5 31.4-33s26.6 18.4 25 38z"/>
  <path fill="#DEF32D" d="M72.3 56.6C70.5 76 56.7 90.3 41.6 89c-15.2-1.6-26-18.4-24.3-37.7C19 32 33 17.6 48 19c15.3 1.5 26 18.3 24.3 37.6z"/>
  <path fill="#DFF32C" d="M71.5 56.3c-2 19-15.5 33-30.4 31.5-14-1.6-25-18-23-37s16-33 31-31.5 26 18 24 37z"/>
  <path fill="#E0F42C" d="M70.6 56c-2 18.5-15.3 32.2-30 30.6C26.2 85 16 68.8 18 50.2 20 31.7 33.4 18 48 19.6c14.6 1.6 24.8 18 22.8 36.4z"/>
  <path fill="#E0F42C" d="M69.8 55.7c-2 18-15.3 31.5-29.6 29.8S16 67.8 18.2 49.7c2-18 15.2-31.5 29.4-29.8C62 21 71.8 37 69.8 55z"/>
  <path fill="#E1F42B" d="M69 55.4C66.8 73 53.8 86 39.8 84.4c-14-1.7-23.6-17.5-21.5-35.2 2.2-17.8 15.2-30.7 29.2-29S71 37.6 69 55.4z"/>
  <path fill="#E2F52B" d="M68 55c-2 17.4-15 30-28.6 28.3-13.7-1.8-23-17.3-20.8-34.7 2.2-17.3 15-30 28.7-28C61 22 70.3 37.6 68 55z"/>
  <path fill="#E3F52A" d="M67.3 54.8C65 71.8 52.3 84 39 82c-13.5-1.7-22.5-17-20.2-34 2.3-16.8 15-29 28.4-27.3 13.4 2 22.4 17 20 34z"/>
  <path fill="#E4F52A" d="M66.4 54.5C64 71 51.6 83 38.4 81S16.8 64 19.2 47.6C21.5 31 34 19 47 21s21.8 17 19.4 33.5z"/>
  <path fill="#E5F629" d="M65.6 54.2C63 70.2 50.8 82 38 80c-12.7-2-21-17-18.7-33C21.8 31 34 19.4 47 21.3s21 16.7 18.6 33z"/>
  <path fill="#E6F629" d="M64.7 54c-2.5 15.6-14.6 26.8-27 24.8-12.6-2-20.6-16.5-18-32.3 2.4-15.8 14.5-27 27-25S67.3 38 64.7 54z"/>
  <path fill="#E7F628" d="M64 53.6c-2.7 15.3-14.7 26-26.8 24-12.2-2-20-16.2-17.4-31.6 2.6-15.4 14.6-26.2 26.8-24s20 16 17.4 31.5z"/>
  <path fill="#E8F728" d="M63 53.2c-2.6 15-14.4 25.5-26.3 23.3-12-2-19.3-16-16.6-31C23 30.5 35 20 47 22s19.3 16 16.7 31z"/>
  <path fill="#E9F728" d="M62.2 53c-2.7 14.6-14.4 24.6-26 22.4-11.5-2.2-18.6-16-16-30.5 3-15 14.5-25 26-23s18.8 16 16 30z"/>
  <path fill="#EAF727" d="M61.4 52.6c-3 14.3-14.3 24-25.6 21.7-11.2-2.3-18-15.7-15.2-30C23.4 30.3 34.8 20.6 46 23s18.2 15.6 15.4 29.8z"/>
  <path fill="#EBF827" d="M60.5 52.3c-3 14-14 23.2-25 20.8-11-2-17.7-15-14.8-29 3-13 14.3-23 25-20s17.6 16 14.7 29z"/>
  <path fill="#ECF826" d="M59.7 52c-3 13.5-14 22.4-24.7 20-10.7-2.4-17-15.2-14-28.7C24 30 35 21 46 23.3 56.7 25.7 63 38.6 60 52z"/>
  <path fill="#EDF826" d="M58.8 51.7c-3 13-14 21.7-24.3 19.2-10.3-3-16.3-16-13.2-29 3-13 14-22 24.3-20S62 38 58.8 51z"/>
  <path fill="#EEF925" d="M58 51.4c-3 12.7-14 21-24 18.4-10-2.6-15.6-15-12.4-27.6 3-12.6 13.8-20.8 24-18.3S61 38 58 51z"/>
  <path fill="#EFF925" d="M57.2 51C54 63.5 43.4 71.3 33.6 68.7 24 66 18.6 54 21.8 41.7 25 29.3 35.6 21.7 45.3 24s15 14.6 12 27z"/>
  <path fill="#F0F925" d="M56.3 50.8c-3.3 12-13.6 19.4-23 16.7C23.6 64.8 18.6 53 22 41.2c3.4-12 13.7-19.4 23.2-16.7 9.4 2.6 14.4 14.4 11 26.3z"/>
  <path fill="#F1FA24" d="M55.5 50.5C52 62 42 69 32.8 66.5c-9.2-2.8-14-14.4-10.5-26C25.7 29.3 36 22 45 25c9.2 2.7 14 14.2 10.5 25.7z"/>
  <path fill="#F2FA24" d="M54.6 50.2c-3.4 11-13.4 17.8-22.3 15-8.8-2.7-13.2-14-9.8-25C26 29 36 22 45 25s13 14 9.6 25z"/>
  <path fill="#F3FA23" d="M53.8 50c-3.6 10.6-13.4 17-22 14-8.5-2.7-12.6-13.7-9-24.4 3.5-10.7 13.3-17 22-14.3s12.5 14 9 24.6z"/>
  <path fill="#F4FB23" d="M53 49.6C49.2 60 39.6 66 31.3 63c-8.2-3-12-13.6-8.4-24 3-10.3 13-16.3 21-13.4s12 13.7 8 24z"/>
  <path fill="#F5FB22" d="M52 49.3C48.5 59.3 39 65 31 62s-11.4-13.6-7.7-23.5c3.7-10 13-15.6 21-12.6s11.7 13 8 23z"/>
  <path fill="#F6FB22" d="M51.3 49c-3.8 9.5-13 14.8-20.7 11.8-7.7-3-10.8-13.3-7-22.8 3.7-9.6 13-14.8 20.6-11.8S55 39.4 51.2 49z"/>
  <path fill="#F7FC21" d="M50.4 48.7c-3.8 9-13 14-20.3 11-7-3.2-10-13-6-22.3 4-9 13-14 21-11 7 3.2 10 13 6 22.3z"/>
  <ellipse cx="30" cy="96.8" fill="#F8FC21" transform="rotate(24.19 159.814 85.666)" rx="14" ry="17.4"/>
  <ellipse cx="30" cy="96.7" fill="#F8FC22" transform="rotate(24.143 159.79 85.636)" rx="14" ry="17.4"/>
  <ellipse cx="29.9" cy="96.6" fill="#F8FC23" transform="rotate(24.09 159.766 85.625)" rx="13.9" ry="17.3"/>
  <ellipse cx="29.9" cy="96.5" fill="#F8FC24" transform="rotate(24.035 159.775 85.635)" rx="13.9" ry="17.3"/>
  <ellipse cx="29.9" cy="96.3" fill="#F8FC25" transform="rotate(23.984 159.75 85.617)" rx="13.9" ry="17.2"/>
  <ellipse cx="29.9" cy="96.2" fill="#F8FC26" transform="rotate(23.93 159.76 85.625)" rx="13.9" ry="17.2"/>
  <ellipse cx="29.9" cy="96.1" fill="#F8FC27" transform="rotate(23.88 159.725 85.6)" rx="13.8" ry="17.2"/>
  <ellipse cx="29.8" cy="95.9" fill="#F8FC28" transform="rotate(23.823 159.73 85.61)" rx="13.8" ry="17.1"/>
  <ellipse cx="29.8" cy="95.8" fill="#F8FC29" transform="rotate(23.766 159.73 85.614)" rx="13.8" ry="17.1"/>
  <ellipse cx="29.8" cy="95.7" fill="#F8FC2A" transform="rotate(23.715 159.696 85.592)" rx="13.7" ry="17.1"/>
  <path fill="#F8FC2B" d="M49.2 48C45.5 56.8 36.8 61.3 30 58.3c-7-3-9.6-12.5-6-21 4-9 12.7-13.3 19.6-10.3 7 3 9.5 12.5 5.7 21z"/>
  <path fill="#F8FC2C" d="M49.2 48C45.5 56.8 36.8 61.3 30 58c-7-3-9.6-12.3-6-21 4-8.5 12.6-13 19.5-10 7 3 9.5 12.5 5.7 21z"/>
  <path fill="#F8FC2D" d="M49.2 48C45.4 56.6 36.8 61 30 58c-7-3-9.6-12.3-5.8-21 3.7-8.5 12.3-13 19.2-10 7 3 9.5 12.4 5.8 21z"/>
  <path fill="#F8FC2E" d="M49 48c-3.5 8.6-12 13-19 10s-9.6-12.3-5.8-21c3.7-8.4 12.3-13 19.2-10 7 3 9.5 12.4 5.7 21z"/>
  <path fill="#F8FC2F" d="M49 48c-3.5 8.5-12 13-19 10s-9.5-12.3-5.8-20.8c3.7-8.6 12.3-13 19.2-10 6.8 3 9.4 12.2 5.7 20.8z"/>
  <path fill="#F8FC30" d="M49 48c-3.5 8.4-12 13-19 10s-9.5-12.3-5.8-20.8c3.7-8.6 12.2-13 19-10s9.6 12.2 6 20.7z"/>
  <path fill="#F9FC31" d="M49 48c-3.6 8.4-12.2 13-19 10-7-3-9.5-12.3-5.8-20.8s12.2-13 19-10S52.7 39.4 49 48z"/>
  <path fill="#F9FC32" d="M49 48c-3.6 8.4-12.2 13-19 10-7-3-9.4-12.3-5.8-20.8 3.7-8.5 12.2-13 19-10S52.7 39.4 49 48z"/>
  <path fill="#F9FC33" d="M49 48c-3.7 8.3-12 13-19 10-6.8-3-9.4-12.3-5.8-20.8 3.7-8.5 12.2-13 19-10S52.6 39.4 49 48z"/>
  <path fill="#F9FC34" d="M49 47.8c-3.7 8.5-12 13-19 10-6.8-2.8-9.4-12-5.8-20.5 3.7-8.5 12-13 19-10 6.8 2.8 9.4 12 5.7 20.5z"/>
  <path fill="#F9FC35" d="M49 47.8c-3.7 8.5-12 13-19 10-6.8-2.8-9.4-12-5.8-20.5 3.7-8.5 12-13 19-10 6.7 2.8 9.3 12 5.7 20.5z"/>
  <path fill="#F9FC36" d="M49 47.8c-3.7 8.4-12 13-19 10-6.7-3-9.3-12-5.7-20.5 3.5-8.5 12-13 18.8-10s10 12 6 20.5z"/>
  <path fill="#F9FC37" d="M49 47.7c-3.7 8.5-12 13-19 10-6.7-2.8-9.3-12-5.7-20.4 3.5-8.4 12-13 18.7-10s9.4 12 6 20.4z"/>
  <path fill="#F9FC38" d="M48.8 47.7c-3.5 8.4-12 13-18.7 10-6-2.8-9-12-5-20.4 4-8.4 12-13 19-10 7 2.8 10 12 6 20.4z"/>
  <path fill="#F9FC39" d="M48.8 47.7c-3.6 8.4-12 13-18.7 10-6-2.8-9-12-5-20.4 4-8.4 12-13 19-10s10 12 6 20.4z"/>
  <path fill="#F9FC3A" d="M48.8 47.6c-3.6 8.4-12 13-18.7 10-6-2.6-9-11.6-5-20 4-8.5 12-13 19-10 7 2.7 10 12 6 20z"/>
  <path fill="#F9FC3B" d="M48.7 47.6c-3.5 8.4-11.8 13-18.5 10-6.8-2.8-9.4-11.8-6-20.2 3.6-8.4 12-13 18.7-10 6 2.6 9 11.6 5 20z"/>
  <path fill="#F9FC3C" d="M48.7 47.6C45.2 56 37 60.4 30.2 57.6c-6.7-2.8-9.4-11.8-6-20.2 3.6-8.4 12-13 18.6-10 6.8 2.8 9.4 11.8 6 20.2z"/>
  <path fill="#F9FC3D" d="M48.7 47.6C45.2 56 37 60.4 30.2 57.6c-6.7-2.8-9.3-11.8-6-20.2 3.6-8.3 12-12.8 18.6-10 6.7 2.8 9.3 11.8 6 20.2z"/>
  <path fill="#F9FC3E" d="M48.6 47.5c-3.4 8.4-11.7 13-18.4 10-6.7-2.7-9.3-11.7-6-20 3.6-8.4 11.8-13 18.5-10 6.7 2.7 9.4 11.7 6 20z"/>
  <path fill="#F9FC3F" d="M48.6 47.5C45 55.8 37 60.3 30.2 57.5c-6.6-2.7-9.3-11.7-5.8-20 3.4-8.4 11.6-12.8 18.3-10 6.7 2.7 9.3 11.7 6 20z"/>
  <path fill="#F9FC40" d="M48.6 47.5C45 55.8 37 60.3 30.3 57.5c-6.7-2.8-9.4-11.7-6-20 3.5-8.3 11.7-12.8 18.4-10 6.6 2.7 9.3 11.7 6 20z"/>
  <path fill="#F9FC41" d="M48.5 47.4C45 55.7 37 60.2 30.3 57.4c-6.7-2.7-9.3-11.6-6-20 3.5-8.2 11.6-12.7 18.3-10 6.7 2.8 9.3 11.8 6 20z"/>
  <path fill="#F9FC42" d="M48.5 47.4C45 55.7 37 60.2 30.3 57.4c-6.7-2.7-9.3-11.6-6-20 3.7-8 11.7-12.4 18.4-10s9.3 11.8 6 20z"/>
  <path fill="#F9FC43" d="M48.5 47.4C45 55.6 37 60 30.3 57.4c-6.6-2.7-9.3-11.6-6-20 3.5-8 11.6-12.6 18.2-10s9.3 11.7 6 20z"/>
  <path fill="#F9FC44" d="M48.4 47.4C45 55.6 37 60 30.4 57.4c-6.7-2.7-9.3-11.6-6-20 3.4-8 11.5-12.6 18-10 6.7 2.8 9.4 11.7 6 20z"/>
  <path fill="#F9FC45" d="M48.4 47.3C45 55.6 37 60 30.4 57.3c-6.7-2.7-9.3-11.5-6-19.7 3.4-8.3 11.4-12.7 18-10 6.7 2.7 9.3 11.5 6 19.7z"/>
  <path fill="#F9FD46" d="M48.4 47.3C45 55.5 37 60 30.4 57.3c-6.6-2.7-9.3-11.5-6-19.7 3.4-8.2 11.4-12.7 18-10 6.6 2.7 9.3 11.5 6 19.7z"/>
  <path fill="#F9FD47" d="M48.3 47.3C45 55.5 37 60 30.3 57.3c-6.5-2.7-9.2-11.5-6-19.7 3.4-8.2 11.5-12.7 18-10s9.3 11.5 6 19.7z"/>
  <path fill="#F9FD48" d="M48.3 47.2C45 55.4 37 60 30.3 57.2c-6.5-2.6-9-11.4-5.8-19.6 3.2-8.2 11.2-12.6 17.8-10s9.3 11.5 6 19.6z"/>
  <path fill="#F9FD49" d="M48.3 47.2C45 55.4 37 60 30.3 57.2c-6.4-2.6-9-11.4-5.8-19.6 3.2-8 11.2-12.6 17.8-10 6.6 2.7 9.2 11.4 6 19.6z"/>
  <path fill="#F9FD4A" d="M48.2 47.2c-3.2 8-11.2 12.6-17.8 10-6.5-2.7-9.2-11.4-6-19.5 3.3-8.2 11.3-12.7 18-10 6.4 2.6 9 11.3 5.8 19.5z"/>
  <path fill="#F9FD4B" d="M48.2 47.2c-3.2 8-11.2 12.6-17.7 10-6.6-2.7-9.3-11.4-6-19.5 3.2-8.2 11.2-12.6 17.7-10 6.6 2.6 9.2 11.3 6 19.5z"/>
  <path fill="#F9FD4C" d="M48.2 47C45 55.3 37 59.8 30.5 57c-6.5-2.5-9.2-11.2-6-19.3 3.2-8 11-12.6 17.7-10 6.5 2.6 9.2 11.3 6 19.4z"/>
  <path fill="#F9FD4D" d="M48 47c-3 8.2-11 12.7-17.5 10-6.5-2.5-9.2-11.2-6-19.3 3.2-8 11-12.6 17.6-10C49 30.3 52 39 48 47z"/>
  <path fill="#F9FD4E" d="M48 47c-3 8.2-11 12.6-17.5 10-6.5-2.5-9.2-11.2-6-19.3 3.2-8 11-12.5 17.6-10C49 30.3 52 39 48 47z"/>
  <path fill="#F9FD4F" d="M48 47c-3 8-11 12.6-17.5 10-6.5-2.5-9-11.2-6-19.2 3.2-8 11-12.6 17.5-10 6.5 2.5 9.2 11.2 6 19.2z"/>
  <path fill="#F9FD50" d="M48 47c-3 8-11 12.5-17.4 10-6.5-2.6-9.2-11.2-6-19.2 3-8 11-12.6 17.4-10 6.5 2.5 9.2 11 6 19.2z"/>
  <path fill="#FAFD51" d="M48 47c-3 8-11 12.5-17.4 10-6.5-2.6-9.2-11.2-6-19.2 3-8 11-12.5 17.4-10 6.4 2.6 9 11 6 19.2z"/>
  <path fill="#FAFD52" d="M48 47c-3.2 8-11 12.4-17.4 10-6.5-2.6-9.2-11.2-6-19.2 3-8 11-12.5 17.3-10s9 11 6 19z"/>
  <path fill="#FAFD53" d="M48 47c-3.2 8-11 12.4-17.4 10-6.4-2.6-9-11.2-6-19.2s10.8-12.5 17.3-10c6 2.6 9 11 6 19z"/>
  <path fill="#FAFD54" d="M48 47c-3.2 8-11 12.4-17.4 10-6.4-2.6-9-11.2-6-19.2s10.8-12.4 17.2-10 9.2 11 6 19z"/>
  <path fill="#FAFD55" d="M48 47c-3.2 7.8-11 12.3-17.3 9.8-6.5-2.5-9.2-11-6-19 3-8 10.7-12.4 17-10 6.5 2.6 9.2 11 6.2 19z"/>
  <path fill="#FAFD56" d="M47.8 46.8c-3 8-10.7 12.5-17 10-6.5-2.5-9.3-11-6.2-19 3-8 10.7-12.3 17.2-10 6.4 2.6 9 11 6 19z"/>
  <path fill="#FAFD57" d="M47.8 46.8c-3 8-10.7 12.4-17 10-6.5-2.5-9.2-11-6.2-19 3-8 10.7-12.3 17-10S51 39 48 47z"/>
  <path fill="#FAFD58" d="M47.8 46.8c-3 8-10.7 12.4-17 10-6.5-2.5-9.2-11-6.2-19 3-7.8 10.7-12.3 17-9.8S51 38.8 48 46.8z"/>
  <path fill="#FAFD59" d="M47.7 46.7c-3 8-10.6 12.4-17 10-6.3-2.4-9-10.8-6-18.8s10.6-13 17-10c6.3 2 9 10 6 18z"/>
  <path fill="#FAFD5A" d="M47.7 46.7c-3 8-10.6 12.4-17 10-6.3-2.5-9-10.8-6-18.7 3-8 10.5-12.4 17-10 6.3 2.4 9 10.8 6 18.7z"/>
  <path fill="#FAFD5B" d="M47.7 46.7c-3 8-10.6 12.3-17 10-6.3-2.5-9-10.8-6-18.7 3-8 10.5-12.4 17-10 6.2 2.4 9 10.8 6 18.7z"/>
  <path fill="#FAFD5C" d="M47.6 46.7c-3 7.8-10.5 12.3-16.8 10-6.4-2.5-9-10.8-6-18.7 2.8-8 10.4-12.3 16.7-10 6.4 2.4 9 10.8 6 18.7z"/>
  <path fill="#FAFD5D" d="M47.6 46.6c-3 8-10.5 12.3-16.8 10-6.3-2.4-9-10.7-6-18.6 2.8-8 10.3-12.3 16.7-10 6.3 2.5 9 10.8 6 18.6z"/>
  <path fill="#FAFD5E" d="M47.6 46.6c-3 8-10.5 12.3-16.8 10-6.3-2.4-9-10.7-6-18.6 2.8-7.8 10.3-12.3 16.6-10 6.3 2.5 9 10.7 6.2 18.6z"/>
  <path fill="#FAFD5F" d="M47.5 46.6c-3 7.8-10.3 12.3-16.7 10-6.3-2.5-9-10.7-6-18.6 2.8-7.8 10.3-12.2 16.6-10 6.3 2.5 9 10.7 6 18.6z"/>
  <path fill="#FAFD60" d="M47.5 46.5c-3 8-10.3 12.3-16.6 10C24 54 21 46 24 38c3-7.8 10.4-12.2 16.6-10 6.3 2.5 9 10.7 6.2 18.5z"/>
  <path fill="#FAFD61" d="M47.5 46.5c-3 7.8-10.3 12.3-16.6 10C24 54 21 46 24 38c3-7.6 10.3-12 16.6-9.7 6.3 2.3 9 10.5 6.2 18.3z"/>
  <path fill="#FAFD62" d="M47.4 46.5c-2.8 7.8-10.2 12.2-16.5 10C24 54 22 46 24 38c3-7.6 10.3-12 16.6-9.7 6.2 2.3 9 10.5 6 18.3z"/>
  <path fill="#FAFD63" d="M47.4 46.5c-2.8 7.7-10.2 12.2-16.5 10C24 54 22 46 24 38c3-7.6 10.3-12 16.5-9.7 6.3 2.3 9 10.5 6.2 18.3z"/>
  <path fill="#FAFD64" d="M47.4 46.4c-3 7.8-10.2 12.2-16.5 10C24 54 22 46 24 38c2.8-7.5 10-12 16.4-9.7s9 10.5 6.2 18.2z"/>
  <path fill="#FAFD65" d="M47.3 46.4c-2.8 7.7-10 12.2-16.3 10-6.3-2.4-9-10.5-6.2-18.2 2.8-7.8 10-12.2 16.3-10 7 2.3 10 10.4 7 18.2z"/>
  <path fill="#FAFD66" d="M47.3 46.4c-2.8 7.7-10 12-16.3 10-6.2-2.4-9-10.5-6.2-18.2 2.8-7.8 10-12.2 16.3-10 7 2.3 9 10.4 7 18.2z"/>
  <path fill="#FAFD67" d="M47.3 46.3c-2.8 7.8-10 12.2-16.3 10-6.2-2.3-9-10.4-6.2-18 2.8-7.8 10-12.3 16.3-10s9 10.3 7 18z"/>
  <path fill="#FAFD68" d="M47.2 46.3c-2.7 7.7-10 12-16.2 10-6.2-2.3-9-10.4-6.2-18 2.8-7.8 10-12.2 16.2-10 6.2 2.2 9 10.3 6.2 18z"/>
  <path fill="#FAFD69" d="M47.2 46.3c-2.7 7.7-10 12-16.2 10-6.2-2.3-9-10.4-6.2-18 2.8-7.8 10-12.2 16.2-10s9 10.3 6.2 18z"/>
  <path fill="#FAFD6A" d="M47.2 46.2c-2.8 7.7-10 12.2-16 10-6.3-2.3-9-10.3-6.4-18 2.7-7.6 10-12 16-9.8s9 10.2 6.4 17.8z"/>
  <path fill="#FAFD6B" d="M47 46.2c-2.6 7.7-9.8 12-16 10-6-2.3-9-10.3-6.2-18 2.7-7.6 10-12 16-9.8 6.3 2.2 9 10.2 6.3 17.8z"/>
  <path fill="#FAFD6C" d="M47 46.2c-2.6 7.6-9.8 12-16 10-6-2.3-9-10.3-6.2-18 2.7-7.6 10-12 16-9.8s9 10 6.3 17.8z"/>
  <path fill="#FAFD6D" d="M47 46.2c-2.6 7.6-9.8 12-16 9.8-6-2-8.8-10-6.2-17.7 2.7-7.6 10-12 16-10 6.2 2.3 9 10.2 6.3 18z"/>
  <path fill="#FAFD6E" d="M47 46c-2.6 7.7-9.7 12.2-16 10-6-2-8.8-10-6-17.7 2.5-7.6 9.7-12 15.8-10 6 2.3 9 10.2 6.2 17.8z"/>
  <path fill="#FAFD6F" d="M47 46c-2.6 7.7-9.7 12-16 10-6-2.2-8.8-10-6-17.7 2.5-7.6 9.6-12 15.7-9.8 6 2 9 10 6.3 17.6z"/>
  <path fill="#FAFD70" d="M47 46c-2.7 7.7-9.7 12-15.8 10-6-2.2-9-10-6.3-17.6 2-7.6 9-12 15-10 6 2.2 9 10 6 17.7z"/>
  <path fill="#FBFD71" d="M47 46c-2.7 7.6-9.7 12-15.8 10-6-2.2-9-10-6.3-17.6 2-7.6 9-12 15-10 6 2.2 9 10 6 17.6z"/>
  <path fill="#FBFD72" d="M47 46c-2.7 7.6-9.7 12-15.8 10s-9-10-6.3-17.6c2-7.6 9-12 15-10 6 2.2 9 10 6 17.6z"/>
  <path fill="#FBFD73" d="M47 46c-2.7 7.5-9.7 12-15.8 10-6-2.2-9-10-6.3-17.6 2-7.5 9-12 15-10 6 2.2 9 10 6 17.6z"/>
  <path fill="#FBFD74" d="M46.8 46c-2.5 7.5-9.5 12-15.6 9.8-6-2-8.8-9.8-6.3-17.4 2-7.4 9-12 15-9.8 6 2 9 9.8 6 17.4z"/>
  <path fill="#FBFD75" d="M46.8 46c-2.5 7.4-9.5 12-15.5 9.8-6-2-9-9.8-6.4-17.3 2-7.6 9-12 15-10 6 2.2 9 10 6 17.4z"/>
  <path fill="#FBFD76" d="M46.8 46c-2.5 7.4-9.5 11.8-15.5 9.8s-9-9.8-6.4-17.3c2-7.5 9-12 15-10 6 2.2 9 10 6 17.4z"/>
  <path fill="#FBFD77" d="M46.7 46c-2.5 7.3-9.4 11.8-15.4 9.7-6-2-9-9.7-6.3-17.2 2.5-7.5 9.4-12 15.4-10 6 2.2 9 10 6.3 17.4z"/>
  <path fill="#FBFD78" d="M46.7 45.8c-2.5 7.5-9.4 12-15.4 10S22.5 46 25 38.4c2.5-7.5 9.4-12 15.4-9.8s8.8 9.7 6.3 17z"/>
  <path fill="#FBFD79" d="M46.7 45.8c-2.5 7.5-9.4 12-15.4 10-6-2.2-8.8-9.8-6.3-17.3 2.5-7.4 9.3-11.8 15.3-9.8s9 9.7 6.4 17z"/>
  <path fill="#FBFD7A" d="M46.6 45.8c-2.4 7.4-9.3 11.8-15.2 9.8-6-2-9-9.6-6.4-17 2.5-7.5 9.3-12 15.3-10S49 38.4 46.6 46z"/>
  <path fill="#FBFD7B" d="M46.6 45.8c-2.4 7.4-9.3 11.8-15.2 9.8-6-2-9-9.6-6.4-17s9.3-12 15.2-10c6 2 9 9.7 6.4 17z"/>
  <path fill="#FBFD7C" d="M46.6 45.7c-2.4 7.4-9.2 11.8-15.2 10-6-2-8.8-9.7-6.4-17 2.4-7.5 9.2-12 15.2-10s8.8 9.6 6.4 17z"/>
  <path fill="#FBFD7D" d="M46.6 45.7C44 53 37.4 57.5 31.4 55.5s-8.8-9.5-6.4-17c2.4-7.3 9.2-11.7 15.2-9.7s8.8 9.5 6.4 17z"/>
  <path fill="#FBFD7E" d="M46.5 45.7c-2.4 7.3-9 11.7-15 9.8-6-2-9-9.5-6.5-17 2.4-7.3 9.2-11.7 15-9.7s9 9.5 6.5 17z"/>
  <path fill="#FBFD7F" d="M46.5 45.6c-2.4 7.4-9 11.8-15 10-6-2-8.8-9.6-6.5-17 2.4-7.3 9.2-11.7 15-9.8 6 2 9 9.5 6.5 16.8z"/>
  <path fill="#FBFD80" d="M46.5 45.6c-2.4 7.4-9 11.8-15 9.8S22.7 46 25 38.7c2.4-7.4 9-11.8 15-10 6 2 8.8 9.6 6.5 17z"/>
  <path fill="#FBFD81" d="M46.4 45.6c-2.3 7.3-9 11.7-15 9.8-5.8-2-8.7-9.4-6.3-16.7 3-7.4 9-11.8 15-10 6 2 9 9.5 7 17z"/>
  <path fill="#FBFD82" d="M46.4 45.5c-2.3 7.4-9 11.8-15 10-5.8-2-8.7-9.5-6.3-16.8 3-7.3 9-11.7 15-9.7 6 1.4 9 9 7 16z"/>
  <path fill="#FBFD83" d="M46.4 45.5c-2.4 7.3-9 11.7-15 9.8-5.7-1.8-8.6-9.3-6.3-16.6 3-7.3 9-11.7 15-9.7 6 1.4 9 9 7 16z"/>
  <path fill="#FBFD84" d="M46.3 45.5c-2.3 7.3-9 11.7-14.8 9.8-5.8-2-8.7-9.3-6.4-16.6 3-7.3 9-11.7 15-9.7 6 1.4 9 9 7 16z"/>
  <path fill="#FBFD85" d="M46.3 45.5c-2.3 7.2-9 11.6-14.7 9.8-6-2-8.8-9.3-6.5-16.6 3-7.2 9-11.7 15-9.7 6 1.8 9 9.2 7 16.5z"/>
  <path fill="#FBFD86" d="M46.3 45.4c-2.3 7.3-9 11.7-14.7 9.8-6-1.8-8.7-9.2-6.5-16.4 3-7.3 9-11.8 15-9.8 6 1.8 9 9.2 7 16.4z"/>
  <path fill="#FBFD87" d="M46.2 45.4C44 52.6 37.4 57 31.6 55.2 25.8 53.4 23 46 25 38.8c2.4-7.3 9-11.6 14.8-9.8 5.8 1.8 8.7 9.2 6.4 16.4z"/>
  <path fill="#FBFD88" d="M46.2 45.4C44 52.6 37.4 57 31.6 55.2 25.8 53.4 23 46 25 38.8c2.4-7.2 9-11.6 14.7-9.8s8.7 9 6.5 16.4z"/>
  <path fill="#FBFD89" d="M46.2 45.3C44 52.6 37.4 57 31.6 55c-5.8-1.7-8.7-9-6.4-16.2S34 27.2 39.7 29s8.7 9 6.5 16.3z"/>
  <path fill="#FBFD8A" d="M46 45.3C44 52.5 37.5 57 31.8 55c-5.8-1.6-8.8-9-6.6-16 2.2-7.2 8.6-11.5 14.4-9.8s8.7 9 6.5 16.3z"/>
  <path fill="#FBFD8B" d="M46 45.3C44 52.5 37.6 57 31.8 55c-5.8-1.7-8.7-9-6.5-16 2.2-7.3 8.6-11.7 14.4-10 5.8 1.8 8.7 9 6.5 16.3z"/>
  <path fill="#FBFD8C" d="M46 45.3c-2 7-8.5 11.5-14.3 9.7-5.8-1.7-8.7-9-6.5-16 2.2-7.3 8.6-11.7 14.3-10 5.8 1.8 8.7 9 6.6 16.3z"/>
  <path fill="#FBFD8D" d="M46 45.2c-2 7.2-8.5 11.6-14.3 9.8-5.7-1.7-8.7-9-6.5-16 2-7.3 8.6-11.6 14.3-10 5.8 2 8.7 9 6.5 16.2z"/>
  <path fill="#FBFD8E" d="M46 45.2c-2 7-8.5 11.5-14.3 9.8-5.7-1.8-8.6-9-6.5-16 2-7.2 8.5-11.6 14.3-10S48 38 46 45.3z"/>
  <path fill="#FBFD8F" d="M46 45.2c-2.2 7-8.5 11.5-14.2 9.7-5.8-2-8.8-9-6.6-16 2-8 8.5-12 14.2-10S48 38 46 45z"/>
  <path fill="#FCFE90" d="M46 45c-2.2 7.2-8.5 11.6-14.2 10-5.8-2-8.8-9-6.6-16 2-7.2 8.5-11.5 14.2-9.8C45 31 48 38 46 45.2z"/>
  <path fill="#FCFE91" d="M46 45c-2.2 7.2-8.5 11.6-14.2 10-5.7-1.8-8.6-9-6.6-16s8.4-11.5 14-9.8C45 31 48 38 46 45.2z"/>
  <path fill="#FCFE92" d="M46 45c-2.2 7.2-8.5 11.5-14.2 10-5.7-1.8-8.6-9-6.6-16s8.4-11.5 14-9.8C45 31 48 38 46 45.2z"/>
  <path fill="#FCFE93" d="M45.8 45c-2 7-8.3 11.5-14 9.8S23.2 46 25.3 39s8.3-11.4 14-9.8C45 31 48 38 45.8 45z"/>
  <path fill="#FCFE94" d="M45.8 45c-2 7-8.3 11.4-14 9.8C26.2 53 23.2 46 25.3 39c2-7 8.3-11.4 14-9.7C44.8 31 47.7 38 45.7 45z"/>
  <path fill="#FCFE95" d="M45.8 45c-2 7-8.3 11.4-14 9.8C26.3 53 23.4 46 25.4 39s8.2-11.4 14-9.7C44.7 31 47.7 38 45.7 45z"/>
  <path fill="#FCFE96" d="M45.7 45c-2 7-8.2 11.4-13.8 9.7C26 53 23 46 25 39s8.2-11.3 13.8-9.7c6.2 1.7 9 8.7 7 15.7z"/>
  <path fill="#FCFE97" d="M45.7 45c-2 7-8.2 11.3-13.8 9.7C26 53 23 46 25 39s8.2-11.3 13.8-9.7c6 1.7 9 8.7 7 15.7z"/>
  <path fill="#FCFE98" d="M45.7 45c-2 7-8.2 11.3-13.8 9.7C26 53 23 46 25 39s8-11.3 13.8-9.7c6 1.7 9 8.7 7 15.7z"/>
  <path fill="#FCFE99" d="M45.6 45c-2 7-8 11.2-13.7 9.6C26 53 23 46 25 39s8-11.2 13.7-9.6C44.5 31 47.5 38 45.5 45z"/>
  <path fill="#FCFE9A" d="M45.6 44.8c-2 7-8 11.4-13.6 9.8C26.4 53 23.4 46 25.3 39c2-6.8 8-11.2 13.7-9.6 5.6 1.6 8.5 8.5 6.6 15.4z"/>
  <path fill="#FCFE9B" d="M45.6 44.8c-2 7-8 11.3-13.6 9.8-5.6-1.6-8.6-8.5-6.7-15.4 2-7 8-11.4 13.6-9.8 5 1.6 8 8.6 6 15.4z"/>
  <path fill="#FCFE9C" d="M45.5 44.8c-2 7-8 11.3-13.5 9.7-5.6-1.5-8.5-8.4-6.6-15.3 2-7 8-11.3 13.5-9.8 5 1.6 8 8.6 6 15.4z"/>
  <path fill="#FCFE9D" d="M45.5 44.8c-2 7-8 11.2-13.5 9.7s-8.5-8.4-6.6-15.3c2-7 8-11.3 13.5-9.8 5 1.6 8 8.4 6 15.4z"/>
  <path fill="#FCFE9E" d="M45.5 44.7c-2 7-8 11.3-13.5 9.8-5.5-1.6-8.5-8.4-6.6-15.3 1.8-7 8-11.3 13.4-9.7 5.6 1.5 8.5 8.3 6.7 15.2z"/>
  <path fill="#FCFE9F" d="M45.4 44.7c-1.8 7-7.8 11.2-13.3 9.7-5-1.4-8-8.4-6-15.2 2-7 8-11.2 14-9.7s8 8.3 6 15.2z"/>
  <path fill="#FCFEA0" d="M45.4 44.7C43.6 51.5 37.6 56 32 54.4c-5.5-1.5-8.4-8.3-6.6-15.2 1.8-6.8 7.8-11.2 13.3-9.7 5.6 1.5 8.5 8.3 6.7 15.2z"/>
  <path fill="#FCFEA1" d="M45.4 44.6c-2 7-7.8 11.3-13.3 9.8-5-1.4-8-8.4-6-15 2-7 8-11.3 14-10 5 1.6 8 8.4 6 15.2z"/>
  <path fill="#FCFEA2" d="M45.3 44.6c-1.8 7-7.7 11.2-13.2 9.7-5-1.3-8-8.3-6-15 2-7 8-11.2 13-9.7 6 1.4 9 8.2 7 15z"/>
  <path fill="#FCFEA3" d="M45.3 44.6c-1.8 6.8-7.7 11.2-13.2 9.7-5-1.5-8-8.2-6-15s8-11.3 13-9.7c6 1.4 9 8.2 7 15z"/>
  <path fill="#FCFEA4" d="M45.3 44.6c-1.8 6.8-7.7 11-13.2 9.7-5-1.5-8-8.2-6-15 2-6.8 8-11 13-9.7 6 1.4 9 8 7 15z"/>
  <path fill="#FCFEA5" d="M45.2 44.5c-1.7 6.8-7.6 11.2-13 9.7s-8.5-8-6.7-15c1.7-6.7 7.6-11 13-9.6 5.5 1.5 8.5 8 6.7 15z"/>
  <path fill="#FCFEA6" d="M45.2 44.5c-1.7 6.8-7.6 11-13 9.7-5.5-1.4-8.5-8-6.7-14.8 1.7-6.8 7.5-11.2 13-9.8 5.4 1.5 8.4 8 6.7 15z"/>
  <path fill="#FCFEA7" d="M45.2 44.5c-1.8 6.7-7.6 11-13 9.7-5.4-1.4-8.4-8-6.7-14.8 1.7-6.8 7.5-11 13-9.7 5.4 1.4 8.4 8 6.7 14.8z"/>
  <path fill="#FCFEA8" d="M45 44.4c-1.6 6.8-7.3 11-12.8 9.7-5.4-1-8.4-8-6.7-14 1.7-7 7.5-11 13-9 5.3 2 8.3 8 6.6 15z"/>
  <path fill="#FCFEA9" d="M45 44.4c-1.6 6.7-7.3 11-12.8 9.7-5.4-1-8.4-8-6.7-14 1.7-6 7.4-11 13-9 5.3 2 8.3 8 6.6 15z"/>
  <path fill="#FCFEAA" d="M45 44.4c-1.6 6.7-7.3 11-12.7 9.7-5.4-1-8.5-7-6.8-14 1.7-7 7.5-11 12.8-10 5.4 2 8.4 8 6.8 15z"/>
  <path fill="#FCFEAB" d="M45 44.3c-1.6 6.8-7.3 11-12.7 9.7-5.4-1.3-8.4-7.8-6.8-14.6 1.7-6.7 7.4-11 12.8-9.6 5.4 1.3 8.4 7.8 6.7 14.5z"/>
  <path fill="#FCFEAC" d="M45 44.3c-1.6 6.7-7.3 11-12.7 9.7-5.4-1.3-8.4-7.8-6.8-14.5 1.7-6.7 7.4-11 12.7-9.7 5.4 1.3 8.4 7.8 6.8 14.5z"/>
  <path fill="#FCFEAD" d="M45 44.3c-1.6 6.7-7.3 11-12.7 9.7-5.3-1.3-8.4-7.8-6.8-14.5 1.7-6.7 7.3-11 12.7-9.7 5.4 1.3 8.4 7.8 6.8 14.5z"/>
  <path fill="#FCFEAE" d="M45 44.3c-1.7 6.6-7.3 11-12.7 9.6-5.3-2-8.3-8-6.8-15 1.7-7 7.3-11 12.7-10 5.3 1 8.3 8 6.8 14z"/>
  <path fill="#FCFEAF" d="M45 44.2c-1.7 6.7-7.3 11-12.6 9.7-5.4-2-8.4-8-6.8-15 1.6-7 7.2-11 12.4-10 6 1 9 8 7 14z"/>
  <path fill="#FDFEB0" d="M45 44.2c-1.7 6.6-7.3 11-12.6 9.7-5.4-2-8.4-8-6.8-15s7-11 12.5-10c6 1 9 7 7 14z"/>
  <path fill="#FDFEB1" d="M44.8 44.2c-1.5 6.6-7 11-12.4 9.6-5.3-1.2-8.4-7.6-6.8-14.2 1.5-6.7 7-11 12.4-9.7 5.4 1 8.4 7 6.8 14z"/>
  <path fill="#FDFEB2" d="M44.8 44c-1.5 6.7-7 11-12.4 9.8-5.3-1.2-8.3-7.6-6.8-14.2 1.5-6.6 7-11 12.4-9.7 5.3 1 8.4 7 6.8 14z"/>
  <path fill="#FDFEB3" d="M44.8 44c-1.5 6.7-7 11-12.4 9.8s-8.3-7.6-6.8-14.2c1.5-6.6 7-11 12.4-9.7 5.2 1 8.3 7 6.8 14z"/>
  <path fill="#FDFEB4" d="M44.7 44c-1.5 6.7-7 11-12.2 9.8-5.3-1.3-8.4-7.6-7-14.2 1.6-6.6 7-11 12.4-9.7 5 1 8 7 6 14z"/>
  <path fill="#FDFEB5" d="M44.7 44c-1.5 6.6-7 11-12.2 9.7-5.3-1.2-8.4-7.5-7-14 1.6-6.6 7-11 12.4-9.7 5 1.2 8 7.5 6 14z"/>
  <path fill="#FDFEB6" d="M44.7 44c-1.5 6.6-7 11-12.2 9.7-5.3-1.2-8.3-7.5-7-14 1.6-6.6 7-11 12.3-9.7 5.3 1.2 8.4 7.5 7 14z"/>
  <path fill="#FDFEB7" d="M44.6 44c-1.4 6.5-6.8 11-12 9.7-5.3-1.2-8.4-7.5-7-14 1.5-6.6 7-11 12.2-9.7 5.2 1.2 8.3 7.5 6.8 14z"/>
  <path fill="#FDFEB8" d="M44.6 44c-1.4 6.5-6.8 10.8-12 9.6-5.3-1.2-8.4-7.4-7-14 1.5-6.4 7-10.8 12-9.6 5.4 1.2 8.5 7.5 7 14z"/>
  <path fill="#FDFEB9" d="M44.6 44c-1.4 6.4-6.8 10.8-12 9.6-5.3-1.2-8.4-7.4-7-14 1.5-6.4 7-10.7 12-9.5 5.3 2 8.4 8 7 14z"/>
  <path fill="#FDFEBA" d="M44.5 44c-1.4 6.4-6.7 10.7-12 9.6-5-1.2-8.2-7.4-6.8-14 1.4-6.4 6.8-10.7 12-9.5 5.3 2 8.3 8 6.8 14z"/>
  <path fill="#FDFEBB" d="M44.5 44c-1.4 6.4-6.7 10.7-12 9.5-5-1-8.2-7.3-6.8-13.8s6.7-10.7 12-9.6c5 2 8.2 8 6.8 14z"/>
  <path fill="#FDFEBC" d="M44.5 44c-1.4 6.3-6.7 10.6-12 9.5-5-1-8.2-7.3-6.8-13.7 1.4-6.5 6.7-10.8 12-9.7 5 2 8.2 8 6.8 14z"/>
  <path fill="#FDFEBD" d="M44.5 43.8c-1.4 6.5-6.7 10.8-12 9.7-5-1.2-8-7.3-6.8-13.7C27 33.3 32.4 29 37.5 30c5.2 1.3 8.3 7.4 7 13.8z"/>
  <path fill="#FDFEBE" d="M44.4 43.8c-1.3 6.4-6.6 10.7-11.8 9.6-5-1-8.2-7.2-7-13.6s6.7-10.7 12-9.6c5 1 8.2 7.2 6.8 13.6z"/>
  <path fill="#FDFEBF" d="M44.4 43.8c-1.3 6.4-6.6 10.7-11.7 9.6-5.2-1-8.3-7.2-7-13.6 1.4-6.4 6.6-10.7 11.8-9.6 5 1 8.2 7.2 7 13.6z"/>
  <path fill="#FDFEC0" d="M44.4 43.7C43 50 37.8 54.4 32.7 53.4c-5.2-1-8.3-7.2-7-13.6 1.4-6.4 6.6-10.7 11.7-9.6 5.2 1 8.3 7 7 13.5z"/>
  <path fill="#FDFEC1" d="M44.3 43.7C43 50 37.8 54.4 32.7 53.3c-5-1-8.2-7-7-13.4 1.3-7 6.7-11 11.8-10 5 1 8.2 7 7 13z"/>
  <path fill="#FDFEC2" d="M44.3 43.7C43 50 37.8 54.3 32.7 53.3c-5-1-8.2-7-7-13.4 1.3-7 6.6-11 11.7-10 5.2 1 8.3 7 7 13z"/>
  <path fill="#FDFEC3" d="M44.3 43.6C43 50 37.8 54.3 32.7 53.3c-5-1-8.2-7-7-13.4 1.3-7 6.5-11 11.6-10 5 1 8.2 7 7 13z"/>
  <path fill="#FDFEC4" d="M44.2 43.6C43 50 37.8 54.3 32.8 53.2c-5-1-8.3-7-7-13.3s6.4-11 11.5-10c5 1 8.2 7 7 13z"/>
  <path fill="#FDFEC5" d="M44.2 43.6C43 50 37.8 54.2 32.8 53.2s-8.2-7-7-13.3S32 29 37.2 30c5 1 8.2 7 7 13.3z"/>
  <path fill="#FDFEC6" d="M44.2 43.6C43 50 38 54.2 32.8 53.2c-5-1-8.2-7-7-13.3C27 33 32 29 37.2 30c5 1 8.2 7 7 13.3z"/>
  <path fill="#FDFEC7" d="M44 43.5C43 49.8 38 54 33 53c-5-.8-8.2-6.7-7-13 1-6.3 6-10.6 11-9.6 5.2 1 8.3 6.8 7 13z"/>
  <path fill="#FDFEC8" d="M44 43.5C43 49.8 38 54 33 53s-8-6.7-7-13 6-10.6 11-9.6 8.3 6.8 7 13z"/>
  <path fill="#FDFEC9" d="M44 43.5C43 49.7 38 54 33 53s-8-6.7-7-13 6-10.6 11-9.6 8.2 6.8 7 13z"/>
  <path fill="#FDFECA" d="M44 43.4C43 49.7 38 54 33 53s-8.3-6.7-7-13c1-6.2 6-10.5 11-9.6 5 1 8.2 6.8 7 13z"/>
  <path fill="#FDFECB" d="M44 43.4C43 49.6 38 54 33 53s-8.3-6.7-7-13 6-10.5 11-9.6c5 1 8 6.8 7 13z"/>
  <path fill="#FDFECC" d="M44 43.4C42.8 49.6 38 54 33 53s-8.2-6.7-7-13c1-6.2 6-10.5 11-9.5s8 6.7 7 13z"/>
  <path fill="#FDFECD" d="M44 43.4C42.7 49.6 38 54 33 53s-8.2-6.7-7-13c1-6 6-10.4 11-9.5 5 1 8 6.7 7 13z"/>
  <path fill="#FDFECE" d="M44 43.3c-1.2 6.2-6 10.5-11 9.6-5-1-8.2-7-7-13 1-6 6-11 10.8-10 5 1 8.2 6 7 13z"/>
  <path fill="#FDFECF" d="M44 43.3c-1.2 6.2-6 10.5-11 9.6-5-1-8.2-7-7-13 1-6 5.8-11 10.8-10 5 1 8 6 7 13z"/>
  <path fill="#FEFED0" d="M43.8 43.3c-1 6-6 10.4-10.8 9.5-5-.8-8-6.5-7-12.7 1-6 5.8-10 10.8-9 5 1 8 7 7 13z"/>
  <path fill="#FEFED1" d="M43.8 43.2c-1 6.2-6 10.5-10.8 9.6-5-.8-8-6.5-7-12.7 1-6 5.8-10 10.7-9 5 1 8 7 7 13z"/>
  <path fill="#FEFED2" d="M43.8 43.2c-1 6-6 10.4-10.8 9.6-5-1-8-6.5-7-12.6 1-6.2 5.8-10.5 10.7-9.6 5 .8 8 6.5 7 12.6z"/>
  <path fill="#FEFED3" d="M43.7 43.2c-1 6-5.8 10.4-10.7 9.5-5-.8-8-6.4-7-12.5 1-6 5.7-10.4 10.6-9.6 5 .8 8 6.5 7 12.6z"/>
  <path fill="#FEFED4" d="M43.7 43c-1 6.2-5.7 10.5-10.6 9.7-4-.8-8-6.4-7-12.5 1-6 6-10.4 11-9.6 5 .8 8 6.5 7 12.5z"/>
  <path fill="#FEFED5" d="M43.7 43c-1 6.2-5.7 10.5-10.6 9.7-4-.8-8-6.4-7-12.5 1-6 6-10.3 11-9.5 5 .8 8 6.3 7 12.4z"/>
  <path fill="#FEFED6" d="M43.6 43c-1 6.2-5.6 10.4-10.5 9.7-4-.8-8-6.4-7-12.5 1-6 6-10.3 11-9.5 5 .8 8 6.3 7 12.4z"/>
  <path fill="#FEFED7" d="M43.6 43c-1 6-5.6 10.4-10.5 9.6-4-.8-8-6.3-7-12.3 1-6 6-10.4 11-9.6 5 .8 8 6.3 7 12.4z"/>
  <path fill="#FEFED8" d="M43.6 43c-1 6-5.6 10.3-10.5 9.6-4-.8-8-6.3-7-12.3 1-6 6-10.3 11-9.6 5 .8 8 6.3 7 12.3z"/>
  <path fill="#FEFED9" d="M43.5 43c-1 6-5.5 10.3-10.4 9.6-4-.8-8-6.3-7-12.3 1-6 6-10.3 11-9.6 5 .8 8 6.3 7 12.3z"/>
  <path fill="#FEFFDA" d="M43.5 43c-1 6-5.5 10.3-10.3 9.5-5-.7-8-6.2-7.2-12.2 1-6 5.5-10.3 10.4-9.5 4.8.7 8 6.2 7 12.2z"/>
  <path fill="#FEFFDB" d="M43.5 43c-1 6-5.5 10.2-10.3 9.5-4.8-.7-8-6.2-7.2-12.2 1-6 5.5-10.2 10.3-9.5 4.8.7 8 6.2 7.2 12z"/>
  <path fill="#FEFFDC" d="M43.4 43c-.8 6-5.4 10.2-10.2 9.5-4.8-.8-8-6.2-7.2-12.2 1-6 5.5-10.2 10.3-9.5 4.8.7 8 6 7 12z"/>
  <path fill="#FEFFDD" d="M43.4 43c-.8 6-5.4 10-10.2 9.4-4.8-.7-8-6-7-12 .7-6 5.2-10.3 10-9.6 4.8.7 8 6 7.2 12z"/>
  <path fill="#FEFFDE" d="M43.4 43c-.8 5.8-5.4 10-10.2 9.4-4.7-.7-8-6-7-12 .7-6 5.2-10.2 10-9.6 4.8.7 8 6 7.2 12z"/>
  <path fill="#FEFFDF" d="M43.3 42.8c-.8 6-5.3 10.2-10 9.6-4.8-.7-8-6-7.2-12s6-10.2 11-9.4c5 0 8 6 7 11.4z"/>
  <path fill="#FEFFE0" d="M43.3 42.8c-.8 6-5.3 10.2-10 9.5-4.8-.6-8-6-7.2-12 1-5.8 6-10 10-9.4 5 0 8 6 8 11z"/>
  <path fill="#FEFFE1" d="M43.3 42.8c-.8 6-5.3 10-10 9.5s-8-6-7.2-12c1-5.8 6-10 10-9.4 5 0 8 6 8 11z"/>
  <path fill="#FEFFE2" d="M43.2 42.7c-.7 6-5.2 10.2-10 9.6-4.6-.7-7.8-6-7-11.8.7-6 5-10.2 9.8-9.6 4.8 0 8 6 7.2 11z"/>
  <path fill="#FEFFE3" d="M43.2 42.7c-.7 6-5 10-10 9.5-4.6-.6-7.8-5.8-7-11.7.7-6 5-10.2 9.8-9.5 4.7.6 8 5.8 7.2 11.7z"/>
  <path fill="#FEFFE4" d="M43.2 42.7c-.7 5.8-5 10-9.8 9.5-4.7-.6-8-5.8-7.3-11.7 1-6 6-10 10-9.5 5 .6 8 5.8 8 11.7z"/>
  <path fill="#FEFFE5" d="M43 42.7c-.6 5.8-5 10-9.6 9.5-4.7-.6-8-5.8-7.3-11.7 1-5.8 6-10 10-9.5 5 .6 8 5.8 7 11.7z"/>
  <path fill="#FEFFE6" d="M43 42.6c-.6 6-5 10-9.6 9.5-4.7 0-8-5-7.2-11s5-10 9.7-9c4 1 7 6 7 12z"/>
  <path fill="#FEFFE7" d="M43 42.6c-.6 5.8-5 10-9.6 9.5-4.7 0-8-5-7.2-11 .6-6 5-10 9.6-9 4.7 1 8 6 7.3 12z"/>
  <path fill="#FEFFE8" d="M43 42.6c-.6 5.8-5 10-9.6 9.5s-8-5-7.2-11c.6-6 5-10 9.6-9s8 6 7.2 12z"/>
  <path fill="#FEFFE9" d="M43 42.5c-.6 5.8-5 10-9.5 9.5-4.7-.5-8-5.6-7.3-11.4.6-5.8 5-10 9.5-9.5 4.7 1 8 6 7.3 12z"/>
  <path fill="#FEFFEA" d="M43 42.5c-.6 5.8-5 10-9.5 9.5-4.7-.5-8-5.6-7.3-11.4.6-5.8 5-10 9.5-9.5 4.6 1 8 6 7.3 12z"/>
  <path fill="#FEFFEB" d="M43 42.5c-.7 5.7-5 10-9.5 9.5-4.6-.5-8-5.6-7.3-11.4.6-5.7 4.8-10 9.5-9.5 4.6 1 7.8 6 7.2 12z"/>
  <path fill="#FEFFEC" d="M43 42.4c-.7 5.8-5 10-9.5 9.5-4.6-1-8-6-7.3-12s4.8-10 9.4-10c4.6 0 8 5 7.3 11z"/>
  <path fill="#FEFFED" d="M43 42.4c-.7 5.7-5 10-9.5 9.5-4.6-1-7.8-6-7.3-12 .6-6 4.8-10 9.4-10 4.6 0 7.8 5 7.3 11z"/>
  <path fill="#FEFFEE" d="M42.8 42.4c-.5 5.7-4.7 10-9.3 9.5-4.5-1-7.8-6-7.3-12 .6-6 4.8-10 9.3-10 4.6 0 8 5 7.3 11z"/>
  <path fill="#FEFFEF" d="M42.8 42.4c-.5 5.7-4.7 10-9.2 9.4-4.6-.4-8-5.4-7.3-11 .5-5.8 4.6-10 9.2-9.6 4.6.5 7.8 5.5 7.3 11.2z"/>
  <path fill="#FFFFF0" d="M42.8 42.3c-.5 5.7-4.7 10-9.2 9.5-4.6-.4-8-5.4-7.3-11s4.6-10 9.2-9.6c4.5.5 7.8 5.4 7.3 11z"/>
  <path fill="#FFFFF1" d="M42.7 42.3c-.5 5.7-4.6 10-9 9.5-4.6-.5-8-5.4-7.4-11 .5-5.7 4.6-10 9-9.5 4.7.4 8 5.3 7.4 11z"/>
  <path fill="#FFFFF2" d="M42.7 42.3c-.5 5.6-4.5 10-9 9.4-4.6-.4-8-5.3-7.4-11 .5-5.6 4.5-9.8 9-9.4 4.6.4 8 5.3 7.4 11z"/>
  <path fill="#FFFFF3" d="M42.7 42.2c-.5 5.7-4.5 10-9 9.5-4.6-.4-8-5.3-7.4-11 .5-5.6 4.5-9.8 9-9.4 4.6.4 7.8 5.3 7.4 11z"/>
  <path fill="#FFFFF4" d="M42.6 42.2c-.4 5.6-4.4 10-9 9.5-4.5-.4-7.7-5.3-7.3-11 .5-5.5 4.5-9.8 9-9.4 4.5.4 7.8 5.3 7.3 11z"/>
  <path fill="#FFFFF5" d="M42.6 42.2c-.4 5.6-4.4 9.8-9 9.4s-7.6-5-7.2-10.6c.4-5.6 4.5-9.8 9-9.5 4.4.4 7.7 5.3 7.3 11z"/>
  <path fill="#FFFFF6" d="M42.6 42.2c-.4 5.5-4.4 9.8-9 9.4-4.4-.4-7.7-5.2-7.3-10.8.4-5.6 4.4-9.8 9-9.4 4.4.3 7.7 5.2 7.3 10.8z"/>
  <path fill="#FFFFF7" d="M42.5 42c-.4 5.7-4.3 10-8.8 9.6-4.5-.4-7.8-5.2-7.4-10.8.4-5.5 4.4-9.8 9-9.4 4.3.3 7.6 5 7.2 10.7z"/>
  <path fill="#FFFFF8" d="M42.5 42c-.4 5.7-4.3 10-8.8 9.6-4.4-.4-7.7-5.2-7.4-10.7.4-6 4.4-10 8.8-10 5 0 8 5 8 10z"/>
  <path fill="#FFFFF9" d="M42.5 42c-.4 5.6-4.3 9.8-8.7 9.5-4.5-.3-7.8-5-7.4-10.6.3-6 4.2-10 8.7-10 5 0 8 5 8 10z"/>
  <path fill="#FFFFFA" d="M42.4 42c-.3 5.6-4.2 9.8-8.6 9.5-4.5-.3-7.8-5-7.4-10.6s4.2-10 8.6-10c4.5 0 7.8 5 7.4 10z"/>
  <path fill="#FFFFFB" d="M42.4 42c-.3 5.5-4.2 9.8-8.6 9.5-4.4-.3-7.8-5-7.4-10.6.3-6 4.2-10 8.6-10 4.4 0 7.8 5 7.4 10z"/>
  <path fill="#FFFFFC" d="M42.4 42c-.3 5.5-4.2 9.7-8.6 9.4-4.4-.3-7.7-5-7.4-10.5.3-6 4-10 8.6-10 4.4 0 7.7 5 7.4 10z"/>
  <path fill="#FFFFFD" d="M42.3 42c-.3 5.4-4 9.7-8.5 9.4-4.4-.3-7.7-5-7.4-10.4.3-5.5 4-9.8 8.5-9.5 4 .3 7 5 7 10.5z"/>
  <path fill="#FFFFFE" d="M42.3 42c-.3 5.4-4 9.6-8.5 9.4-4.3-.3-7.7-5-7.4-10.4.3-5.5 4-9.7 8.5-9.5 4 .3 7 5 7 10.4z"/>
  <path fill="#FFF" d="M42.3 42c-.3 5.4-4 9.6-8.4 9.3-5-.2-8-4.8-8-10.3 0-5.5 4-9.7 8-9.4 4 .2 8 4.8 7 10.3zm7.4-11.4c-.3 2-1.8 3.2-3.3 3-1.4-.3-2.3-2-2-4 .4-1.8 1.8-3 3.3-2.8 1.4.2 2.3 2 2 3.8z"/>
  <path fill="#8ED61A" d="M67.4 155.3c-2.2.7-4.6 8.3-4.3 10.5 1 3 4 1 6 .4 2-.5 3 .2 5 .3 2 .2 4-1.3 5-.5 2-2.3-3-6.4-5-8 0-.8-2-2.7-3-3-1-.4-1 .2-2 .3"/>
  <path fill="none" d="M66 155.7c1.6-.8 3.4-.6 5-.5"/>
  <path fill="#C1272D" d="M66 157c1.6-.8 3.3-.7 5-.5 0 0 .2-2.5 0-2.5-1.7-.2-3.4-.3-5 .4-.4 0 0 2.4 0 2.5z"/>
</svg>
