<svg xmlns="http://www.w3.org/2000/svg" xmlns:xlink="http://www.w3.org/1999/xlink" x="0px" y="0px" width="200px" height="500px" viewBox="0 0 200 500" enable-background="new 0 0 200 500" xml:space="preserve">
<g>
	<g>
		<g>
			<path fill="none" d="M200.581,189.097c-11.744,10.524-51.269,31.004-47.115,48.3c4.217,18.324,47.306,22.4,60.99,26.727
				c16.801,4.651,37.002,14.256,37.23,34.888c0.06,26.32-38.131,34.849-56.234,42.664c-17.076,7.753-29.975,16.283-33.44,35.593
				c-4.926,29.205,45.258,39.56,61.239,56.133"/>
		</g>
		<g>
			<path fill="#C1272D" d="M200.581,187.847c-13.836,12.149-31.615,19.808-43.008,34.734c-3.105,4.068-4.701,8.59-4.412,13.68
				c0.418,7.361,6.474,12.042,12.481,15.281c15.116,8.148,32.676,8.881,48.813,13.831c17.951,5.508,45.066,19.089,35.084,42.628
				c-6.985,16.474-29.035,23.006-44.292,28.62c-19.604,7.214-38.897,17.11-43.237,39.396c-2.712,13.929,6.442,24.398,17.256,31.808
				c13.961,9.565,31.927,14.668,43.983,26.825c-0.407-0.41,0.426-2.07,0-2.5c-12.006-12.106-29.965-17.457-43.983-26.825
				c-6.64-4.438-13.018-9.98-16.119-17.518c-3.895-9.464,1.479-20.947,7.528-28.304c12.498-15.196,34.108-19.459,51.341-26.921
				c14.787-6.402,29.729-16.129,29.681-33.904c-0.104-37.607-54.029-37.07-79.295-46.611c-6.602-2.493-13.71-6.021-17.493-12.256
				c-3.931-6.482,1.025-13.088,5.322-17.961c11.42-12.952,27.528-20.246,40.348-31.503
				C201.005,189.975,200.179,188.2,200.581,187.847L200.581,187.847z"/>
		</g>
	</g>
	<g>
		<g>
			<ellipse fill="#8FD61D" cx="189.243" cy="122.166" rx="61.854" ry="75.805"/>
			<ellipse fill="#90D61D" cx="188.988" cy="121.893" rx="61.472" ry="75.373"/>
			<ellipse fill="#91D71E" cx="188.732" cy="121.62" rx="61.089" ry="74.94"/>
			<ellipse fill="#92D71E" cx="188.477" cy="121.346" rx="60.706" ry="74.509"/>
			<ellipse fill="#93D71F" cx="188.221" cy="121.073" rx="60.323" ry="74.077"/>
			<ellipse fill="#94D81F" cx="187.966" cy="120.799" rx="59.941" ry="73.645"/>
			<ellipse fill="#95D820" cx="187.71" cy="120.526" rx="59.558" ry="73.213"/>
			<ellipse fill="#96D920" cx="187.454" cy="120.253" rx="59.175" ry="72.781"/>
			<ellipse fill="#97D921" cx="187.199" cy="119.979" rx="58.792" ry="72.349"/>
			<ellipse fill="#98D921" cx="186.943" cy="119.706" rx="58.41" ry="71.917"/>
			<ellipse fill="#99DA22" cx="186.688" cy="119.433" rx="58.027" ry="71.485"/>
			<ellipse fill="#9ADA22" cx="186.432" cy="119.16" rx="57.644" ry="71.053"/>
			<ellipse fill="#9BDA22" cx="186.177" cy="118.886" rx="57.261" ry="70.622"/>
			<ellipse fill="#9CDB23" cx="185.921" cy="118.613" rx="56.878" ry="70.19"/>
			<ellipse fill="#9DDB23" cx="185.666" cy="118.34" rx="56.496" ry="69.757"/>
			<ellipse fill="#9EDC24" cx="185.41" cy="118.066" rx="56.113" ry="69.326"/>
			<ellipse fill="#9FDC24" cx="185.155" cy="117.793" rx="55.73" ry="68.894"/>
			<ellipse fill="#A0DC25" cx="184.899" cy="117.52" rx="55.347" ry="68.462"/>
			<ellipse fill="#A1DD25" cx="184.644" cy="117.247" rx="54.965" ry="68.03"/>
			<ellipse fill="#A2DD26" cx="184.388" cy="116.973" rx="54.582" ry="67.598"/>
			<ellipse fill="#A3DD26" cx="184.133" cy="116.7" rx="54.199" ry="67.166"/>
			<ellipse fill="#A4DE27" cx="183.877" cy="116.427" rx="53.816" ry="66.734"/>
			<ellipse fill="#A5DE27" cx="183.622" cy="116.153" rx="53.434" ry="66.302"/>
			<ellipse fill="#A6DE27" cx="183.366" cy="115.88" rx="53.051" ry="65.87"/>
			<ellipse fill="#A7DF28" cx="183.111" cy="115.606" rx="52.668" ry="65.438"/>
			<ellipse fill="#A8DF28" cx="182.855" cy="115.333" rx="52.285" ry="65.006"/>
			<ellipse fill="#A9E029" cx="182.599" cy="115.06" rx="51.903" ry="64.574"/>
			<ellipse fill="#AAE029" cx="182.344" cy="114.787" rx="51.52" ry="64.143"/>
			<ellipse fill="#ABE02A" cx="182.088" cy="114.513" rx="51.137" ry="63.711"/>
			<ellipse fill="#ABE12A" cx="181.833" cy="114.24" rx="50.754" ry="63.278"/>
			<ellipse fill="#ACE12B" cx="181.577" cy="113.967" rx="50.372" ry="62.847"/>
			<ellipse fill="#ADE12B" cx="181.322" cy="113.693" rx="49.989" ry="62.415"/>
			<ellipse fill="#AEE22C" cx="181.066" cy="113.42" rx="49.606" ry="61.983"/>
			<ellipse fill="#AFE22C" cx="180.811" cy="113.147" rx="49.223" ry="61.551"/>
			<ellipse fill="#B0E32D" cx="180.555" cy="112.874" rx="48.84" ry="61.119"/>
			<ellipse fill="#B1E32D" cx="180.3" cy="112.6" rx="48.458" ry="60.687"/>
			<ellipse fill="#B2E32D" cx="180.044" cy="112.327" rx="48.075" ry="60.255"/>
			<ellipse fill="#B3E42E" cx="179.789" cy="112.054" rx="47.692" ry="59.823"/>
			<ellipse fill="#B4E42E" cx="179.533" cy="111.78" rx="47.309" ry="59.391"/>
			<ellipse fill="#B5E42F" cx="179.278" cy="111.507" rx="46.927" ry="58.959"/>
			<ellipse fill="#B6E52F" cx="179.022" cy="111.234" rx="46.544" ry="58.527"/>
			<ellipse fill="#B7E530" cx="178.767" cy="110.96" rx="46.161" ry="58.095"/>
			<ellipse fill="#B8E530" cx="178.511" cy="110.687" rx="45.778" ry="57.664"/>
			<ellipse fill="#B9E631" cx="178.255" cy="110.414" rx="45.396" ry="57.232"/>
			<ellipse fill="#BAE631" cx="178" cy="110.141" rx="45.013" ry="56.799"/>
			<ellipse fill="#BBE732" cx="177.744" cy="109.867" rx="44.63" ry="56.368"/>
			<ellipse fill="#BCE732" cx="177.489" cy="109.594" rx="44.247" ry="55.936"/>
			<ellipse fill="#BDE732" cx="177.233" cy="109.32" rx="43.865" ry="55.504"/>
			<ellipse fill="#BEE833" cx="176.978" cy="109.047" rx="43.482" ry="55.072"/>
			<ellipse fill="#BFE833" cx="176.722" cy="108.774" rx="43.099" ry="54.64"/>
			<ellipse fill="#C0E834" cx="176.467" cy="108.5" rx="42.716" ry="54.208"/>
			<ellipse fill="#C1E934" cx="176.211" cy="108.227" rx="42.333" ry="53.776"/>
			<ellipse fill="#C2E935" cx="175.956" cy="107.954" rx="41.951" ry="53.344"/>
			<ellipse fill="#C3EA35" cx="175.7" cy="107.681" rx="41.568" ry="52.912"/>
			<ellipse fill="#C4EA36" cx="175.445" cy="107.407" rx="41.185" ry="52.48"/>
			<ellipse fill="#C5EA36" cx="175.189" cy="107.134" rx="40.802" ry="52.049"/>
			<ellipse fill="#C6EB37" cx="174.933" cy="106.861" rx="40.42" ry="51.616"/>
			<ellipse fill="#C7EB37" cx="174.678" cy="106.587" rx="40.037" ry="51.185"/>
			<path fill="#C8EB37" d="M213.872,106.283c-0.079,27.878-17.824,50.427-39.634,50.363c-21.811-0.063-39.428-22.715-39.35-50.593
				c0.079-27.879,17.824-50.427,39.635-50.363C196.333,55.754,213.951,78.404,213.872,106.283z"/>
			<path fill="#C9EC36" d="M213.029,105.979c-0.158,27.488-17.722,49.669-39.231,49.542c-21.51-0.127-38.819-22.514-38.662-50.001
				c0.157-27.489,17.722-49.669,39.231-49.542C195.877,56.105,213.187,78.491,213.029,105.979z"/>
			<path fill="#CAEC36" d="M212.186,105.675c-0.236,27.098-17.62,48.911-38.828,48.721c-21.208-0.19-38.209-22.312-37.974-49.41
				c0.236-27.098,17.621-48.911,38.829-48.721C195.421,56.456,212.422,78.577,212.186,105.675z"/>
			<path fill="#CBEC35" d="M211.343,105.371c-0.314,26.707-17.519,48.153-38.425,47.899c-20.907-0.253-37.601-22.11-37.286-48.818
				c0.315-26.708,17.519-48.153,38.426-47.899C194.965,56.807,211.658,78.663,211.343,105.371z"/>
			<path fill="#CCED35" d="M210.5,105.067c-0.394,26.317-17.417,47.395-38.022,47.078c-20.606-0.317-36.992-21.909-36.598-48.226
				c0.394-26.318,17.417-47.395,38.023-47.078C194.509,57.158,210.894,78.749,210.5,105.067z"/>
			<path fill="#CDED34" d="M209.658,104.763c-0.472,25.927-17.315,46.637-37.62,46.257c-20.305-0.38-36.383-21.708-35.91-47.634
				c0.472-25.928,17.315-46.638,37.62-46.257C194.052,57.509,210.13,78.835,209.658,104.763z"/>
			<path fill="#CEED34" d="M208.815,104.458c-0.551,25.537-17.214,45.879-37.217,45.436c-20.003-0.444-35.773-21.506-35.222-47.042
				c0.551-25.538,17.214-45.88,37.218-45.436C193.596,57.86,209.366,78.921,208.815,104.458z"/>
			<path fill="#CFEE33" d="M207.972,104.154c-0.63,25.147-17.112,45.122-36.814,44.615s-35.164-21.304-34.534-46.451
				c0.629-25.147,17.112-45.122,36.814-44.615S208.602,79.007,207.972,104.154z"/>
			<path fill="#D0EE33" d="M207.129,103.85c-0.708,24.757-17.011,44.364-36.412,43.793c-19.401-0.57-34.555-21.103-33.847-45.859
				c0.708-24.757,17.011-44.364,36.412-43.793C192.684,58.562,207.837,79.093,207.129,103.85z"/>
			<path fill="#D1EE33" d="M206.286,103.546c-0.787,24.366-16.909,43.606-36.008,42.972c-19.1-0.634-33.946-20.901-33.159-45.268
				c0.787-24.367,16.909-43.606,36.009-42.972C192.228,58.913,207.073,79.179,206.286,103.546z"/>
			<path fill="#D2EF32" d="M205.443,103.242c-0.866,23.976-16.807,42.848-35.605,42.151c-18.799-0.697-33.337-20.7-32.471-44.676
				c0.866-23.977,16.808-42.848,35.606-42.151C191.771,59.264,206.309,79.265,205.443,103.242z"/>
			<path fill="#D3EF32" d="M204.601,102.938c-0.944,23.586-16.706,42.09-35.203,41.33s-32.728-20.498-31.783-44.084
				c0.944-23.586,16.706-42.09,35.203-41.33S205.545,79.351,204.601,102.938z"/>
			<path fill="#D4EF31" d="M203.758,102.634c-1.023,23.196-16.604,41.333-34.8,40.509c-18.196-0.824-32.119-20.297-31.095-43.493
				c1.023-23.196,16.604-41.332,34.801-40.508C190.859,59.965,204.781,79.437,203.758,102.634z"/>
			<path fill="#D5F031" d="M202.915,102.33c-1.102,22.806-16.502,40.575-34.397,39.688c-17.896-0.888-31.51-20.095-30.407-42.901
				c1.102-22.806,16.502-40.574,34.397-39.687C190.403,60.316,204.017,79.523,202.915,102.33z"/>
			<path fill="#D6F030" d="M202.072,102.025c-1.181,22.416-16.401,39.817-33.995,38.866c-17.594-0.951-30.9-19.893-29.72-42.309
				s16.401-39.816,33.995-38.866C189.947,60.667,203.253,79.609,202.072,102.025z"/>
			<path fill="#D7F030" d="M201.229,101.722c-1.259,22.025-16.299,39.059-33.592,38.044s-30.291-19.691-29.031-41.717
				c1.259-22.026,16.299-39.059,33.592-38.045S202.489,79.695,201.229,101.722z"/>
			<path fill="#D8F130" d="M200.386,101.417c-1.338,21.635-16.197,38.301-33.189,37.224c-16.992-1.078-29.682-19.49-28.344-41.125
				c1.338-21.636,16.197-38.301,33.189-37.224C189.035,61.37,201.725,79.781,200.386,101.417z"/>
			<path fill="#D9F12F" d="M199.543,101.113c-1.417,21.245-16.096,37.543-32.786,36.402c-16.691-1.141-29.073-19.289-27.656-40.534
				c1.417-21.246,16.096-37.543,32.786-36.402S200.96,79.868,199.543,101.113z"/>
			<path fill="#DAF12F" d="M198.701,100.809c-1.495,20.854-15.994,36.785-32.383,35.581c-16.39-1.204-28.464-19.087-26.968-39.942
				c1.496-20.855,15.994-36.785,32.384-35.581C188.122,62.071,200.196,79.954,198.701,100.809z"/>
			<path fill="#DBF22E" d="M197.858,100.505c-1.574,20.465-15.893,36.027-31.98,34.76c-16.088-1.268-27.855-18.886-26.28-39.351
				c1.574-20.465,15.892-36.027,31.98-34.76S199.432,80.04,197.858,100.505z"/>
			<path fill="#DCF22E" d="M197.015,100.201c-1.653,20.075-15.791,35.27-31.578,33.939c-15.787-1.331-27.246-18.684-25.592-38.759
				c1.653-20.075,15.791-35.27,31.578-33.938S198.668,80.125,197.015,100.201z"/>
			<path fill="#DDF22D" d="M196.172,99.897c-1.731,19.684-15.689,34.511-31.175,33.117c-15.486-1.395-26.637-18.482-24.904-38.167
				c1.731-19.685,15.689-34.512,31.175-33.117S197.904,80.212,196.172,99.897z"/>
			<path fill="#DEF32D" d="M195.329,99.593c-1.81,19.294-15.587,33.753-30.772,32.296c-15.185-1.458-26.027-18.281-24.217-37.575
				c1.81-19.294,15.587-33.753,30.772-32.296C186.297,63.475,197.14,80.298,195.329,99.593z"/>
			<path fill="#DFF32C" d="M194.486,99.289c-1.889,18.904-15.486,32.996-30.369,31.475c-14.884-1.521-25.418-18.08-23.529-36.984
				c1.889-18.904,15.486-32.996,30.369-31.475C185.841,63.826,196.375,80.384,194.486,99.289z"/>
			<path fill="#E0F42C" d="M193.644,98.984c-1.968,18.514-15.384,32.238-29.967,30.654c-14.583-1.585-24.809-17.878-22.841-36.392
				c1.968-18.514,15.384-32.238,29.967-30.653C185.385,64.177,195.611,80.47,193.644,98.984z"/>
			<path fill="#E0F42C" d="M192.801,98.68c-2.046,18.124-15.283,31.48-29.564,29.833s-24.2-17.676-22.153-35.8
				c2.046-18.124,15.283-31.48,29.564-29.833C184.929,64.528,194.847,80.556,192.801,98.68z"/>
			<path fill="#E1F42B" d="M191.958,98.376c-2.125,17.733-15.181,30.723-29.161,29.012c-13.98-1.712-23.591-17.475-21.465-35.208
				c2.125-17.734,15.181-30.723,29.161-29.011S194.083,80.642,191.958,98.376z"/>
			<path fill="#E2F52B" d="M191.115,98.072c-2.204,17.343-15.079,29.965-28.758,28.19c-13.679-1.775-22.982-17.273-20.778-34.617
				c2.204-17.344,15.08-29.964,28.759-28.19C184.017,65.23,193.319,80.728,191.115,98.072z"/>
			<path fill="#E3F52A" d="M190.272,97.768c-2.282,16.953-14.978,29.207-28.355,27.369c-13.378-1.838-22.373-17.072-20.09-34.025
				c2.282-16.954,14.978-29.207,28.355-27.369C183.56,65.581,192.555,80.814,190.272,97.768z"/>
			<path fill="#E4F52A" d="M189.429,97.464c-2.361,16.563-14.876,28.449-27.953,26.547s-21.764-16.87-19.402-33.433
				c2.361-16.563,14.876-28.449,27.953-26.547C183.104,65.932,191.791,80.9,189.429,97.464z"/>
			<path fill="#E5F629" d="M188.586,97.16c-2.44,16.172-14.774,27.691-27.55,25.727c-12.775-1.965-21.155-16.669-18.714-32.842
				c2.439-16.173,14.774-27.691,27.55-25.726S191.026,80.986,188.586,97.16z"/>
			<path fill="#E6F629" d="M187.744,96.855c-2.519,15.783-14.673,26.933-27.147,24.905c-12.474-2.028-20.545-16.467-18.026-32.25
				c2.519-15.783,14.673-26.933,27.147-24.905C182.192,66.634,190.262,81.072,187.744,96.855z"/>
			<path fill="#E7F628" d="M186.901,96.551c-2.597,15.393-14.571,26.175-26.744,24.084c-12.173-2.092-19.937-16.266-17.338-31.658
				c2.597-15.393,14.571-26.175,26.744-24.083S189.498,81.159,186.901,96.551z"/>
			<path fill="#E8F728" d="M186.058,96.247c-2.676,15.002-14.47,25.417-26.341,23.263c-11.872-2.155-19.328-16.064-16.651-31.066
				c2.676-15.002,14.47-25.417,26.342-23.262C181.279,67.336,188.734,81.245,186.058,96.247z"/>
			<path fill="#E9F728" d="M185.215,95.943c-2.754,14.612-14.368,24.659-25.938,22.441c-11.571-2.219-18.718-15.863-15.962-30.475
				c2.754-14.612,14.368-24.659,25.938-22.441S187.97,81.331,185.215,95.943z"/>
			<path fill="#EAF727" d="M184.372,95.639c-2.833,14.222-14.266,23.901-25.536,21.62c-11.27-2.282-18.109-15.661-15.275-29.883
				c2.833-14.222,14.267-23.902,25.536-21.62S187.206,81.417,184.372,95.639z"/>
			<path fill="#EBF827" d="M183.529,95.335c-2.912,13.832-14.165,23.144-25.133,20.799c-10.969-2.345-17.5-15.459-14.587-29.291
				c2.912-13.832,14.165-23.144,25.133-20.799S186.441,81.503,183.529,95.335z"/>
			<path fill="#ECF826" d="M182.687,95.031c-2.991,13.441-14.063,22.386-24.73,19.978c-10.667-2.409-16.891-15.258-13.899-28.7
				c2.991-13.442,14.063-22.386,24.73-19.978C179.455,68.74,185.678,81.589,182.687,95.031z"/>
			<path fill="#EDF826" d="M181.844,94.727c-3.069,13.051-13.961,21.628-24.328,19.157c-10.366-2.472-16.282-15.056-13.211-28.108
				c3.069-13.051,13.961-21.628,24.327-19.156S184.914,81.675,181.844,94.727z"/>
			<path fill="#EEF925" d="M181.001,94.422c-3.148,12.661-13.86,20.87-23.925,18.335c-10.065-2.536-15.672-14.854-12.523-27.516
				c3.148-12.661,13.86-20.87,23.925-18.335S184.149,81.761,181.001,94.422z"/>
			<path fill="#EFF925" d="M180.158,94.119c-3.227,12.271-13.758,20.112-23.521,17.514c-9.764-2.599-15.063-14.653-11.835-26.924
				c3.227-12.271,13.758-20.112,23.521-17.514S183.385,81.847,180.158,94.119z"/>
			<path fill="#F0F925" d="M179.315,93.814c-3.305,11.88-13.656,19.354-23.119,16.693c-9.463-2.663-14.455-14.452-11.148-26.333
				c3.306-11.881,13.656-19.354,23.119-16.692C177.63,70.144,182.621,81.933,179.315,93.814z"/>
			<path fill="#F1FA24" d="M178.472,93.51c-3.384,11.49-13.555,18.597-22.716,15.872c-9.162-2.726-13.846-14.25-10.46-25.741
				c3.384-11.491,13.555-18.596,22.716-15.871C177.174,70.495,181.857,82.019,178.472,93.51z"/>
			<path fill="#F2FA24" d="M177.629,93.206c-3.463,11.101-13.453,17.839-22.313,15.05c-8.86-2.789-13.236-14.048-9.772-25.149
				c3.463-11.1,13.453-17.838,22.313-15.05S181.093,82.105,177.629,93.206z"/>
			<path fill="#F3FA23" d="M176.787,92.902c-3.542,10.71-13.352,17.081-21.911,14.229c-8.559-2.853-12.627-13.847-9.084-24.558
				c3.542-10.71,13.351-17.081,21.91-14.229S180.329,82.191,176.787,92.902z"/>
			<path fill="#F4FB23" d="M175.944,92.598c-3.621,10.32-13.25,16.323-21.508,13.408c-8.258-2.916-12.018-13.646-8.396-23.966
				c3.62-10.32,13.25-16.323,21.508-13.408S179.564,82.277,175.944,92.598z"/>
			<path fill="#F5FB22" d="M175.101,92.294c-3.699,9.93-13.148,15.565-21.104,12.586c-7.957-2.979-11.409-13.444-7.708-23.374
				c3.699-9.93,13.148-15.565,21.104-12.586C175.349,71.899,178.8,82.363,175.101,92.294z"/>
			<path fill="#F6FB22" d="M174.258,91.99c-3.777,9.54-13.046,14.807-20.702,11.765c-7.655-3.042-10.799-13.242-7.021-22.782
				c3.778-9.54,13.046-14.807,20.702-11.765S178.036,82.449,174.258,91.99z"/>
			<path fill="#F7FC21" d="M173.415,91.686c-3.856,9.149-12.945,14.049-20.299,10.944c-7.354-3.106-10.19-13.041-6.333-22.191
				c3.856-9.149,12.945-14.049,20.299-10.944C174.437,72.601,177.272,82.536,173.415,91.686z"/>
			
				<ellipse transform="matrix(0.9122 0.4098 -0.4098 0.9122 49.1377 -57.9701)" fill="#F8FC21" cx="159.802" cy="85.643" rx="14.001" ry="17.388"/>
			
				<ellipse transform="matrix(0.9125 0.409 -0.409 0.9125 49.0018 -57.8637)" fill="#F8FC22" cx="159.791" cy="85.638" rx="13.971" ry="17.351"/>
			
				<ellipse transform="matrix(0.9129 0.4082 -0.4082 0.9129 48.8676 -57.7586)" fill="#F8FC23" cx="159.78" cy="85.632" rx="13.941" ry="17.315"/>
			
				<ellipse transform="matrix(0.9133 0.4073 -0.4073 0.9133 48.7318 -57.6518)" fill="#F8FC24" cx="159.768" cy="85.627" rx="13.912" ry="17.278"/>
			
				<ellipse transform="matrix(0.9137 0.4065 -0.4065 0.9137 48.597 -57.5455)" fill="#F8FC25" cx="159.757" cy="85.622" rx="13.882" ry="17.241"/>
			
				<ellipse transform="matrix(0.914 0.4056 -0.4056 0.914 48.4615 -57.4387)" fill="#F8FC26" cx="159.746" cy="85.616" rx="13.853" ry="17.204"/>
			
				<ellipse transform="matrix(0.9144 0.4048 -0.4048 0.9144 48.3233 -57.3295)" fill="#F8FC27" cx="159.735" cy="85.611" rx="13.823" ry="17.168"/>
			
				<ellipse transform="matrix(0.9148 0.4039 -0.4039 0.9148 48.1867 -57.2214)" fill="#F8FC28" cx="159.724" cy="85.605" rx="13.793" ry="17.131"/>
			
				<ellipse transform="matrix(0.9152 0.403 -0.403 0.9152 48.0476 -57.1111)" fill="#F8FC29" cx="159.713" cy="85.6" rx="13.764" ry="17.094"/>
			
				<ellipse transform="matrix(0.9156 0.4022 -0.4022 0.9156 47.9103 -57.0021)" fill="#F8FC2A" cx="159.702" cy="85.594" rx="13.734" ry="17.058"/>
			<path fill="#F8FC2B" d="M172.244,91.089c-3.77,8.611-12.447,13.129-19.379,10.092c-6.933-3.038-9.498-12.481-5.726-21.092
				c3.77-8.611,12.447-13.129,19.379-10.091C173.451,73.035,176.014,82.478,172.244,91.089z"/>
			<path fill="#F8FC2C" d="M172.211,91.06c-3.753,8.596-12.407,13.113-19.328,10.089c-6.921-3.025-9.489-12.445-5.734-21.041
				c3.753-8.596,12.407-13.113,19.328-10.088C173.398,73.043,175.965,82.463,172.211,91.06z"/>
			<path fill="#F8FC2D" d="M172.178,91.031c-3.737,8.581-12.367,13.096-19.276,10.085c-6.909-3.011-9.48-12.409-5.742-20.99
				c3.737-8.581,12.367-13.096,19.276-10.085C173.345,73.052,175.916,82.449,172.178,91.031z"/>
			<path fill="#F8FC2E" d="M172.146,91.001c-3.72,8.566-12.328,13.08-19.225,10.083c-6.896-2.999-9.472-12.373-5.75-20.939
				c3.72-8.566,12.328-13.08,19.224-10.082C173.292,73.06,175.866,82.435,172.146,91.001z"/>
			<path fill="#F8FC2F" d="M172.113,90.972c-3.704,8.551-12.288,13.064-19.173,10.08c-6.885-2.985-9.463-12.337-5.758-20.889
				c3.704-8.551,12.288-13.064,19.173-10.079C173.239,73.069,175.817,82.42,172.113,90.972z"/>
			<path fill="#F8FC30" d="M172.08,90.943c-3.687,8.536-12.248,13.048-19.121,10.077c-6.873-2.972-9.455-12.301-5.767-20.838
				c3.688-8.536,12.249-13.047,19.121-10.076S175.768,82.406,172.08,90.943z"/>
			<path fill="#F9FC31" d="M172.047,90.914c-3.671,8.521-12.208,13.032-19.069,10.074c-6.86-2.959-9.447-12.266-5.774-20.788
				c3.671-8.521,12.209-13.031,19.069-10.073S175.718,82.392,172.047,90.914z"/>
			<path fill="#F9FC32" d="M172.014,90.884c-3.654,8.507-12.169,13.015-19.018,10.07c-6.849-2.946-9.438-12.229-5.783-20.736
				c3.654-8.506,12.169-13.015,19.018-10.07S175.669,82.377,172.014,90.884z"/>
			<path fill="#F9FC33" d="M171.981,90.855c-3.638,8.492-12.129,12.999-18.966,10.067c-6.836-2.933-9.43-12.194-5.791-20.686
				c3.638-8.492,12.129-12.999,18.966-10.067S175.62,82.363,171.981,90.855z"/>
			<path fill="#F9FC34" d="M171.948,90.826c-3.621,8.477-12.089,12.982-18.914,10.064c-6.824-2.919-9.421-12.158-5.799-20.635
				c3.622-8.477,12.09-12.982,18.914-10.063C172.974,73.11,175.57,82.349,171.948,90.826z"/>
			<path fill="#F9FC35" d="M171.916,90.797c-3.604,8.462-12.05,12.966-18.862,10.061c-6.813-2.907-9.413-12.122-5.807-20.584
				c3.605-8.462,12.05-12.966,18.863-10.061C172.921,73.119,175.521,82.334,171.916,90.797z"/>
			<path fill="#F9FC36" d="M171.883,90.768c-3.588,8.447-12.01,12.95-18.811,10.058c-6.8-2.893-9.405-12.086-5.815-20.533
				c3.588-8.447,12.01-12.95,18.811-10.058S175.472,82.32,171.883,90.768z"/>
			<path fill="#F9FC37" d="M171.85,90.738c-3.572,8.432-11.971,12.934-18.759,10.055c-6.788-2.88-9.396-12.05-5.823-20.483
				c3.572-8.432,11.971-12.934,18.759-10.054S175.422,82.306,171.85,90.738z"/>
			<path fill="#F9FC38" d="M171.817,90.709c-3.555,8.417-11.931,12.917-18.707,10.052c-6.776-2.867-9.388-12.014-5.831-20.432
				c3.555-8.417,11.931-12.917,18.707-10.051C172.762,73.144,175.373,82.291,171.817,90.709z"/>
			<path fill="#F9FC39" d="M171.784,90.68c-3.539,8.403-11.891,12.901-18.655,10.049c-6.764-2.854-9.379-11.979-5.839-20.381
				c3.539-8.402,11.891-12.901,18.655-10.048C172.709,73.152,175.324,82.277,171.784,90.68z"/>
			<path fill="#F9FC3A" d="M171.751,90.65c-3.522,8.388-11.852,12.885-18.604,10.046c-6.752-2.841-9.371-11.943-5.847-20.331
				c3.522-8.387,11.852-12.885,18.604-10.045C172.656,73.161,175.274,82.263,171.751,90.65z"/>
			<path fill="#F9FC3B" d="M171.719,90.622c-3.506,8.373-11.812,12.869-18.552,10.042c-6.74-2.827-9.363-11.907-5.855-20.28
				c3.506-8.373,11.812-12.869,18.552-10.042C172.603,73.169,175.225,82.248,171.719,90.622z"/>
			<path fill="#F9FC3C" d="M171.686,90.592c-3.489,8.358-11.772,12.853-18.5,10.039c-6.728-2.814-9.354-11.871-5.864-20.229
				c3.489-8.358,11.772-12.853,18.5-10.039C172.55,73.177,175.176,82.234,171.686,90.592z"/>
			<path fill="#F9FC3D" d="M171.653,90.563c-3.473,8.343-11.732,12.836-18.449,10.036c-6.716-2.801-9.346-11.835-5.872-20.178
				c3.473-8.343,11.733-12.836,18.449-10.036C172.497,73.186,175.126,82.219,171.653,90.563z"/>
			<path fill="#F9FC3E" d="M171.62,90.534c-3.456,8.328-11.693,12.82-18.397,10.033c-6.704-2.788-9.337-11.799-5.88-20.128
				c3.457-8.328,11.693-12.82,18.397-10.032C172.444,73.194,175.077,82.205,171.62,90.534z"/>
			<path fill="#F9FC3F" d="M171.587,90.504c-3.44,8.313-11.653,12.804-18.345,10.03c-6.692-2.775-9.329-11.764-5.888-20.077
				c3.44-8.313,11.654-12.804,18.346-10.029C172.391,73.202,175.027,82.191,171.587,90.504z"/>
			<path fill="#F9FC40" d="M171.554,90.475c-3.423,8.298-11.613,12.788-18.293,10.027c-6.68-2.762-9.32-11.727-5.896-20.026
				c3.423-8.298,11.614-12.788,18.294-10.026C172.338,73.21,174.978,82.176,171.554,90.475z"/>
			<path fill="#F9FC41" d="M171.521,90.446c-3.406,8.284-11.574,12.771-18.242,10.024c-6.668-2.749-9.312-11.691-5.904-19.976
				c3.407-8.283,11.574-12.771,18.242-10.023C172.285,73.219,174.929,82.162,171.521,90.446z"/>
			<path fill="#F9FC42" d="M171.489,90.417c-3.39,8.269-11.534,12.755-18.19,10.021c-6.656-2.735-9.304-11.656-5.913-19.925
				c3.391-8.269,11.535-12.755,18.19-10.02S174.879,82.147,171.489,90.417z"/>
			<path fill="#F9FC43" d="M171.456,90.388c-3.374,8.253-11.495,12.739-18.139,10.018c-6.644-2.722-9.295-11.62-5.92-19.874
				c3.374-8.254,11.495-12.739,18.139-10.017S174.83,82.133,171.456,90.388z"/>
			<path fill="#F9FC44" d="M171.423,90.358c-3.357,8.239-11.455,12.723-18.086,10.014c-6.632-2.709-9.287-11.583-5.928-19.823
				c3.357-8.239,11.455-12.722,18.086-10.014C172.126,73.244,174.781,82.119,171.423,90.358z"/>
			<path fill="#F9FC45" d="M171.39,90.329c-3.34,8.224-11.415,12.706-18.035,10.011c-6.62-2.696-9.279-11.548-5.937-19.772
				c3.34-8.224,11.416-12.706,18.035-10.011C172.073,73.252,174.731,82.104,171.39,90.329z"/>
			<path fill="#F9FD46" d="M171.357,90.3c-3.324,8.209-11.375,12.69-17.983,10.008c-6.607-2.683-9.27-11.512-5.944-19.722
				c3.324-8.209,11.375-12.69,17.983-10.008C172.021,73.261,174.682,82.09,171.357,90.3z"/>
			<path fill="#F9FD47" d="M171.325,90.271c-3.308,8.194-11.336,12.674-17.932,10.005c-6.596-2.669-9.262-11.477-5.953-19.671
				c3.308-8.194,11.336-12.674,17.932-10.005S174.633,82.076,171.325,90.271z"/>
			<path fill="#F9FD48" d="M171.292,90.241c-3.291,8.18-11.297,12.658-17.88,10.002c-6.583-2.657-9.253-11.44-5.96-19.621
				c3.291-8.179,11.296-12.657,17.88-10.001S174.583,82.062,171.292,90.241z"/>
			<path fill="#F9FD49" d="M171.259,90.212c-3.274,8.165-11.257,12.642-17.828,9.999c-6.571-2.643-9.245-11.404-5.969-19.569
				c3.274-8.165,11.257-12.641,17.828-9.999C171.862,73.286,174.534,82.047,171.259,90.212z"/>
			<path fill="#F9FD4A" d="M171.226,90.183c-3.258,8.149-11.217,12.625-17.776,9.996c-6.56-2.63-9.236-11.369-5.977-19.519
				c3.258-8.15,11.217-12.625,17.777-9.996C171.809,73.294,174.485,82.033,171.226,90.183z"/>
			<path fill="#F9FD4B" d="M171.193,90.154c-3.242,8.135-11.178,12.609-17.725,9.993c-6.547-2.617-9.228-11.333-5.985-19.468
				c3.242-8.135,11.178-12.608,17.725-9.992C171.756,73.303,174.436,82.019,171.193,90.154z"/>
			<path fill="#F9FD4C" d="M171.161,90.125c-3.225,8.12-11.138,12.592-17.673,9.99c-6.535-2.604-9.219-11.297-5.993-19.417
				c3.225-8.12,11.138-12.592,17.673-9.989C171.703,73.311,174.386,82.004,171.161,90.125z"/>
			<path fill="#F9FD4D" d="M171.127,90.095c-3.208,8.105-11.098,12.576-17.621,9.986c-6.523-2.59-9.211-11.261-6.001-19.366
				c3.208-8.105,11.098-12.576,17.622-9.986C171.65,73.319,174.337,81.99,171.127,90.095z"/>
			<path fill="#F9FD4E" d="M171.095,90.066c-3.192,8.09-11.059,12.56-17.57,9.983c-6.511-2.577-9.202-11.225-6.009-19.316
				c3.192-8.09,11.059-12.56,17.57-9.982C171.597,73.328,174.288,81.975,171.095,90.066z"/>
			<path fill="#F9FD4F" d="M171.062,90.037c-3.175,8.076-11.019,12.544-17.518,9.98c-6.499-2.564-9.194-11.189-6.018-19.265
				c3.176-8.075,11.019-12.543,17.518-9.979C171.544,73.336,174.238,81.961,171.062,90.037z"/>
			<path fill="#F9FD50" d="M171.029,90.007c-3.159,8.061-10.979,12.528-17.466,9.978c-6.487-2.551-9.186-11.153-6.026-19.214
				c3.159-8.061,10.979-12.527,17.467-9.977C171.491,73.344,174.188,81.947,171.029,90.007z"/>
			<path fill="#FAFD51" d="M170.996,89.978c-3.142,8.046-10.939,12.512-17.415,9.975c-6.475-2.538-9.177-11.118-6.034-19.164
				c3.143-8.046,10.94-12.511,17.415-9.974C171.438,73.353,174.139,81.932,170.996,89.978z"/>
			<path fill="#FAFD52" d="M170.963,89.949c-3.126,8.031-10.9,12.495-17.363,9.971c-6.463-2.524-9.169-11.082-6.042-19.113
				c3.126-8.031,10.9-12.495,17.363-9.97S174.09,81.918,170.963,89.949z"/>
			<path fill="#FAFD53" d="M170.931,89.92c-3.109,8.016-10.86,12.479-17.311,9.968c-6.451-2.512-9.161-11.046-6.05-19.062
				c3.109-8.016,10.86-12.479,17.311-9.967C171.332,73.37,174.041,81.903,170.931,89.92z"/>
			<path fill="#FAFD54" d="M170.898,89.891c-3.093,8.001-10.821,12.462-17.26,9.965c-6.439-2.499-9.152-11.01-6.058-19.011
				c3.093-8.001,10.82-12.462,17.259-9.964S173.991,81.889,170.898,89.891z"/>
			<path fill="#FAFD55" d="M170.865,89.861c-3.076,7.986-10.781,12.446-17.208,9.962c-6.427-2.485-9.144-10.974-6.066-18.961
				c3.077-7.986,10.781-12.446,17.208-9.961C171.226,73.386,173.942,81.875,170.865,89.861z"/>
			<path fill="#FAFD56" d="M170.832,89.832c-3.06,7.972-10.741,12.43-17.156,9.959c-6.415-2.473-9.135-10.938-6.074-18.91
				c3.06-7.971,10.741-12.43,17.156-9.958C171.173,73.395,173.893,81.86,170.832,89.832z"/>
			<path fill="#FAFD57" d="M170.799,89.803c-3.043,7.957-10.702,12.414-17.104,9.956c-6.403-2.459-9.126-10.902-6.082-18.859
				c3.043-7.957,10.702-12.414,17.104-9.955S173.843,81.846,170.799,89.803z"/>
			<path fill="#FAFD58" d="M170.767,89.773c-3.027,7.942-10.662,12.398-17.053,9.953c-6.391-2.446-9.118-10.866-6.09-18.809
				c3.027-7.941,10.662-12.397,17.053-9.952S173.794,81.832,170.767,89.773z"/>
			<path fill="#FAFD59" d="M170.733,89.745c-3.01,7.927-10.622,12.381-17,9.949c-6.379-2.433-9.11-10.831-6.099-18.758
				c3.011-7.927,10.623-12.381,17.001-9.949C171.014,73.419,173.745,81.817,170.733,89.745z"/>
			<path fill="#FAFD5A" d="M170.701,89.715c-2.994,7.912-10.583,12.365-16.949,9.946c-6.367-2.42-9.102-10.795-6.106-18.707
				c2.994-7.912,10.583-12.365,16.95-9.946C170.961,73.428,173.695,81.803,170.701,89.715z"/>
			<path fill="#FAFD5B" d="M170.668,89.686c-2.977,7.897-10.543,12.349-16.897,9.943c-6.355-2.406-9.093-10.759-6.115-18.656
				c2.978-7.896,10.543-12.348,16.898-9.942C170.908,73.437,173.646,81.789,170.668,89.686z"/>
			<path fill="#FAFD5C" d="M170.635,89.657c-2.961,7.882-10.503,12.333-16.846,9.94c-6.343-2.393-9.085-10.723-6.123-18.605
				c2.961-7.882,10.503-12.332,16.846-9.939C170.855,73.445,173.597,81.774,170.635,89.657z"/>
			<path fill="#FAFD5D" d="M170.602,89.627c-2.944,7.867-10.463,12.316-16.794,9.937c-6.331-2.38-9.076-10.687-6.131-18.555
				c2.945-7.867,10.464-12.316,16.794-9.936C170.802,73.453,173.547,81.76,170.602,89.627z"/>
			<path fill="#FAFD5E" d="M170.569,89.598c-2.928,7.853-10.424,12.3-16.742,9.934c-6.319-2.367-9.068-10.651-6.139-18.504
				c2.928-7.853,10.424-12.3,16.743-9.933C170.749,73.461,173.498,81.746,170.569,89.598z"/>
			<path fill="#FAFD5F" d="M170.537,89.569c-2.911,7.838-10.384,12.284-16.691,9.931c-6.306-2.354-9.059-10.616-6.147-18.454
				c2.912-7.837,10.385-12.283,16.691-9.93C170.696,73.47,173.449,81.731,170.537,89.569z"/>
			<path fill="#FAFD60" d="M170.504,89.54c-2.895,7.822-10.345,12.267-16.639,9.927c-6.294-2.34-9.051-10.579-6.155-18.402
				c2.895-7.823,10.345-12.267,16.639-9.927C170.643,73.478,173.399,81.717,170.504,89.54z"/>
			<path fill="#FAFD61" d="M170.471,89.511c-2.878,7.808-10.305,12.251-16.587,9.924c-6.283-2.328-9.042-10.543-6.163-18.352
				c2.878-7.808,10.305-12.251,16.587-9.924C170.59,73.486,173.35,81.702,170.471,89.511z"/>
			<path fill="#FAFD62" d="M170.438,89.481c-2.861,7.793-10.265,12.235-16.536,9.921c-6.27-2.314-9.034-10.508-6.171-18.301
				c2.862-7.792,10.265-12.234,16.536-9.92C170.537,73.495,173.3,81.688,170.438,89.481z"/>
			<path fill="#FAFD63" d="M170.405,89.452c-2.845,7.778-10.226,12.219-16.484,9.918c-6.258-2.301-9.026-10.472-6.179-18.25
				c2.845-7.778,10.226-12.218,16.484-9.917C170.484,73.503,173.251,81.674,170.405,89.452z"/>
			<path fill="#FAFD64" d="M170.373,89.423c-2.829,7.763-10.186,12.203-16.432,9.916c-6.247-2.288-9.018-10.436-6.188-18.2
				c2.829-7.763,10.186-12.202,16.432-9.915S173.202,81.659,170.373,89.423z"/>
			<path fill="#FAFD65" d="M170.339,89.394c-2.812,7.749-10.146,12.187-16.38,9.912c-6.234-2.275-9.009-10.4-6.195-18.149
				c2.813-7.748,10.146-12.186,16.381-9.911C170.378,73.52,173.152,81.645,170.339,89.394z"/>
			<path fill="#FAFD66" d="M170.307,89.364c-2.795,7.734-10.106,12.17-16.329,9.909c-6.222-2.262-9-10.364-6.204-18.098
				c2.796-7.733,10.107-12.169,16.329-9.908C170.325,73.528,173.103,81.63,170.307,89.364z"/>
			<path fill="#FAFD67" d="M170.274,89.335c-2.779,7.719-10.067,12.154-16.277,9.906c-6.21-2.249-8.992-10.329-6.212-18.047
				c2.779-7.719,10.067-12.153,16.277-9.905S173.054,81.616,170.274,89.335z"/>
			<path fill="#FAFD68" d="M170.241,89.306c-2.763,7.704-10.027,12.137-16.226,9.903c-6.198-2.236-8.983-10.292-6.22-17.997
				c2.763-7.704,10.027-12.137,16.226-9.902C170.219,73.545,173.004,81.602,170.241,89.306z"/>
			<path fill="#FAFD69" d="M170.208,89.277c-2.746,7.689-9.987,12.121-16.173,9.899c-6.186-2.222-8.975-10.256-6.228-17.946
				c2.747-7.688,9.988-12.121,16.174-9.899S172.955,81.587,170.208,89.277z"/>
			<path fill="#FAFD6A" d="M170.175,89.248c-2.729,7.674-9.948,12.105-16.122,9.896c-6.174-2.209-8.967-10.221-6.236-17.895
				c2.73-7.674,9.948-12.104,16.122-9.896S172.906,81.573,170.175,89.248z"/>
			<path fill="#FAFD6B" d="M170.143,89.218c-2.713,7.659-9.908,12.089-16.07,9.894c-6.162-2.196-8.958-10.185-6.244-17.844
				c2.713-7.659,9.909-12.088,16.071-9.893C170.061,73.57,172.856,81.559,170.143,89.218z"/>
			<path fill="#FAFD6C" d="M170.11,89.189c-2.696,7.645-9.869,12.073-16.019,9.891c-6.15-2.183-8.95-10.149-6.252-17.794
				c2.697-7.644,9.869-12.072,16.019-9.89S172.807,81.544,170.11,89.189z"/>
			<path fill="#FAFD6D" d="M170.077,89.16c-2.68,7.629-9.829,12.056-15.967,9.888c-6.138-2.17-8.942-10.113-6.261-17.743
				c2.681-7.629,9.83-12.056,15.967-9.887C169.955,73.587,172.758,81.53,170.077,89.16z"/>
			<path fill="#FAFD6E" d="M170.044,89.13c-2.663,7.615-9.789,12.04-15.915,9.884c-6.126-2.156-8.933-10.077-6.268-17.692
				c2.664-7.615,9.79-12.04,15.915-9.883C169.902,73.595,172.708,81.516,170.044,89.13z"/>
			<path fill="#FAFD6F" d="M170.011,89.102c-2.647,7.6-9.75,12.023-15.863,9.881c-6.114-2.143-8.925-10.042-6.276-17.642
				c2.647-7.599,9.75-12.023,15.863-9.88C169.849,73.604,172.659,81.501,170.011,89.102z"/>
			<path fill="#FAFD70" d="M169.979,89.072c-2.63,7.584-9.71,12.007-15.812,9.878c-6.102-2.13-8.917-10.005-6.285-17.591
				c2.631-7.584,9.71-12.007,15.812-9.877C169.796,73.612,172.61,81.487,169.979,89.072z"/>
			<path fill="#FBFD71" d="M169.946,89.043c-2.614,7.57-9.67,11.991-15.76,9.875c-6.09-2.117-8.908-9.97-6.292-17.54
				c2.614-7.57,9.67-11.991,15.76-9.874C169.743,73.62,172.561,81.473,169.946,89.043z"/>
			<path fill="#FBFD72" d="M169.913,89.014c-2.597,7.555-9.63,11.975-15.708,9.872s-8.899-9.934-6.301-17.489
				c2.598-7.555,9.631-11.975,15.708-9.871C169.69,73.628,172.511,81.458,169.913,89.014z"/>
			<path fill="#FBFD73" d="M169.88,88.984c-2.581,7.541-9.591,11.958-15.656,9.869c-6.066-2.091-8.891-9.898-6.309-17.438
				c2.581-7.54,9.591-11.958,15.657-9.868C169.637,73.637,172.462,81.444,169.88,88.984z"/>
			<path fill="#FBFD74" d="M169.847,88.955c-2.564,7.525-9.551,11.942-15.605,9.866c-6.054-2.078-8.882-9.862-6.317-17.388
				c2.565-7.525,9.552-11.942,15.605-9.865C169.584,73.645,172.413,81.43,169.847,88.955z"/>
			<path fill="#FBFD75" d="M169.814,88.926c-2.548,7.511-9.512,11.926-15.553,9.863c-6.042-2.064-8.874-9.826-6.325-17.337
				c2.548-7.511,9.512-11.926,15.554-9.862C169.531,73.653,172.363,81.415,169.814,88.926z"/>
			<path fill="#FBFD76" d="M169.781,88.896c-2.531,7.496-9.472,11.91-15.501,9.86c-6.03-2.051-8.866-9.791-6.333-17.287
				c2.532-7.495,9.472-11.909,15.502-9.858C169.478,73.662,172.313,81.401,169.781,88.896z"/>
			<path fill="#FBFD77" d="M169.749,88.868c-2.515,7.48-9.432,11.894-15.45,9.856c-6.018-2.038-8.857-9.754-6.341-17.235
				c2.515-7.48,9.433-11.893,15.45-9.855C169.425,73.67,172.264,81.386,169.749,88.868z"/>
			<path fill="#FBFD78" d="M169.716,88.838c-2.498,7.466-9.393,11.877-15.398,9.853c-6.006-2.025-8.849-9.718-6.35-17.185
				c2.499-7.466,9.393-11.877,15.398-9.853S172.215,81.372,169.716,88.838z"/>
			<path fill="#FBFD79" d="M169.683,88.809c-2.482,7.451-9.353,11.861-15.347,9.85c-5.993-2.012-8.84-9.683-6.357-17.134
				c2.482-7.451,9.354-11.86,15.347-9.849S172.166,81.358,169.683,88.809z"/>
			<path fill="#FBFD7A" d="M169.65,88.78c-2.465,7.436-9.313,11.845-15.294,9.847c-5.981-1.999-8.832-9.647-6.366-17.083
				c2.466-7.436,9.314-11.844,15.295-9.846C169.266,73.695,172.116,81.343,169.65,88.78z"/>
			<path fill="#FBFD7B" d="M169.617,88.75c-2.449,7.421-9.273,11.829-15.243,9.844c-5.97-1.986-8.824-9.611-6.374-17.033
				s9.274-11.828,15.244-9.843C169.213,73.704,172.067,81.329,169.617,88.75z"/>
			<path fill="#FBFD7C" d="M169.584,88.721c-2.432,7.407-9.234,11.813-15.191,9.841c-5.957-1.972-8.815-9.575-6.381-16.981
				c2.433-7.406,9.234-11.812,15.191-9.84C169.16,73.712,172.018,81.314,169.584,88.721z"/>
			<path fill="#FBFD7D" d="M169.552,88.692c-2.416,7.392-9.194,11.796-15.14,9.838c-5.945-1.959-8.807-9.539-6.39-16.931
				c2.416-7.391,9.194-11.795,15.14-9.837C169.107,73.72,171.968,81.3,169.552,88.692z"/>
			<path fill="#FBFD7E" d="M169.519,88.663c-2.399,7.376-9.154,11.78-15.087,9.834c-5.934-1.946-8.798-9.503-6.398-16.88
				c2.399-7.376,9.155-11.779,15.088-9.834S171.919,81.286,169.519,88.663z"/>
			<path fill="#FBFD7F" d="M169.486,88.634c-2.382,7.362-9.115,11.764-15.036,9.832c-5.921-1.933-8.79-9.468-6.406-16.83
				c2.383-7.362,9.115-11.763,15.036-9.831C169.001,73.737,171.87,81.271,169.486,88.634z"/>
			<path fill="#FBFD80" d="M169.453,88.604c-2.366,7.347-9.075,11.747-14.984,9.828c-5.909-1.919-8.781-9.431-6.414-16.779
				c2.367-7.347,9.076-11.747,14.985-9.827C168.948,73.746,171.82,81.257,169.453,88.604z"/>
			<path fill="#FBFD81" d="M169.42,88.575c-2.35,7.332-9.036,11.731-14.933,9.825c-5.897-1.906-8.773-9.396-6.422-16.728
				c2.35-7.332,9.036-11.73,14.933-9.824C168.895,73.754,171.771,81.243,169.42,88.575z"/>
			<path fill="#FBFD82" d="M169.387,88.546c-2.333,7.317-8.996,11.715-14.881,9.822c-5.885-1.894-8.765-9.36-6.43-16.677
				c2.333-7.317,8.997-11.714,14.881-9.821C168.842,73.762,171.722,81.229,169.387,88.546z"/>
			<path fill="#FBFD83" d="M169.354,88.517c-2.316,7.303-8.956,11.699-14.829,9.819c-5.873-1.88-8.756-9.324-6.438-16.627
				c2.317-7.302,8.957-11.698,14.83-9.818C168.789,73.771,171.672,81.214,169.354,88.517z"/>
			<path fill="#FBFD84" d="M169.322,88.487c-2.3,7.288-8.917,11.683-14.777,9.816c-5.861-1.867-8.748-9.288-6.447-16.576
				c2.301-7.287,8.917-11.682,14.778-9.815C168.736,73.779,171.623,81.2,169.322,88.487z"/>
			<path fill="#FBFD85" d="M169.289,88.458c-2.284,7.272-8.877,11.666-14.726,9.813c-5.849-1.854-8.739-9.252-6.455-16.525
				c2.284-7.272,8.877-11.666,14.726-9.812C168.683,73.787,171.574,81.186,169.289,88.458z"/>
			<path fill="#FBFD86" d="M169.256,88.429c-2.267,7.258-8.837,11.65-14.674,9.81c-5.837-1.841-8.731-9.216-6.463-16.474
				c2.268-7.258,8.838-11.649,14.675-9.809C168.63,73.795,171.524,81.171,169.256,88.429z"/>
			<path fill="#FBFD87" d="M169.223,88.4c-2.25,7.243-8.797,11.633-14.622,9.807c-5.825-1.828-8.723-9.181-6.471-16.424
				c2.251-7.243,8.798-11.633,14.623-9.806C168.577,73.804,171.475,81.157,169.223,88.4z"/>
			<path fill="#FBFD88" d="M169.19,88.371c-2.234,7.228-8.758,11.617-14.571,9.804c-5.813-1.814-8.714-9.145-6.479-16.373
				c2.235-7.228,8.759-11.617,14.571-9.803S171.425,81.142,169.19,88.371z"/>
			<path fill="#FBFD89" d="M169.158,88.341c-2.218,7.213-8.718,11.601-14.519,9.801c-5.801-1.802-8.706-9.109-6.487-16.322
				s8.719-11.601,14.52-9.8S171.376,81.128,169.158,88.341z"/>
			<path fill="#FBFD8A" d="M169.125,88.312c-2.201,7.198-8.678,11.585-14.467,9.797c-5.789-1.788-8.697-9.073-6.495-16.271
				c2.201-7.198,8.679-11.584,14.467-9.796S171.327,81.113,169.125,88.312z"/>
			<path fill="#FBFD8B" d="M169.092,88.283c-2.184,7.184-8.639,11.569-14.416,9.794c-5.777-1.775-8.689-9.037-6.503-16.221
				c2.185-7.183,8.639-11.568,14.416-9.793C168.365,73.837,171.277,81.099,169.092,88.283z"/>
			<path fill="#FBFD8C" d="M169.059,88.253c-2.168,7.169-8.599,11.553-14.364,9.792c-5.765-1.762-8.681-9.001-6.511-16.17
				c2.168-7.168,8.6-11.552,14.364-9.791C168.313,73.846,171.228,81.085,169.059,88.253z"/>
			<path fill="#FBFD8D" d="M169.026,88.225c-2.151,7.153-8.56,11.536-14.312,9.788c-5.753-1.749-8.672-8.965-6.52-16.12
				c2.152-7.153,8.56-11.535,14.313-9.787C168.259,73.854,171.179,81.07,169.026,88.225z"/>
			<path fill="#FBFD8E" d="M168.993,88.195c-2.135,7.139-8.52,11.52-14.26,9.785c-5.741-1.735-8.664-8.929-6.527-16.068
				c2.135-7.139,8.521-11.519,14.261-9.784S171.129,81.056,168.993,88.195z"/>
			<path fill="#FBFD8F" d="M168.96,88.166c-2.118,7.124-8.48,11.503-14.208,9.782c-5.729-1.722-8.655-8.894-6.536-16.018
				c2.119-7.124,8.481-11.503,14.209-9.781S171.08,81.042,168.96,88.166z"/>
			<path fill="#FCFE90" d="M168.928,88.137c-2.102,7.109-8.44,11.487-14.157,9.779c-5.717-1.709-8.647-8.857-6.544-15.967
				c2.103-7.109,8.441-11.487,14.157-9.778C168.101,73.879,171.031,81.027,168.928,88.137z"/>
			<path fill="#FCFE91" d="M168.895,88.107c-2.085,7.094-8.401,11.471-14.105,9.776c-5.705-1.696-8.638-8.822-6.552-15.917
				c2.086-7.094,8.401-11.47,14.106-9.774C168.048,73.888,170.981,81.013,168.895,88.107z"/>
			<path fill="#FCFE92" d="M168.862,88.078c-2.069,7.08-8.362,11.455-14.054,9.773c-5.692-1.683-8.63-8.786-6.56-15.866
				c2.07-7.079,8.362-11.455,14.054-9.771C167.995,73.896,170.932,80.999,168.862,88.078z"/>
			<path fill="#FCFE93" d="M168.829,88.049c-2.052,7.065-8.322,11.439-14.002,9.77s-8.621-8.75-6.568-15.814
				s8.322-11.438,14.002-9.769C167.942,73.904,170.883,80.984,168.829,88.049z"/>
			<path fill="#FCFE94" d="M168.796,88.02c-2.036,7.049-8.282,11.422-13.95,9.766c-5.668-1.657-8.613-8.714-6.576-15.764
				c2.037-7.049,8.283-11.422,13.951-9.765C167.889,73.913,170.833,80.97,168.796,88.02z"/>
			<path fill="#FCFE95" d="M168.764,87.991c-2.02,7.035-8.243,11.406-13.898,9.763c-5.656-1.644-8.604-8.678-6.584-15.713
				c2.02-7.035,8.243-11.406,13.899-9.762C167.836,73.921,170.784,80.956,168.764,87.991z"/>
			<path fill="#FCFE96" d="M168.731,87.961c-2.003,7.02-8.203,11.39-13.847,9.76c-5.644-1.63-8.596-8.643-6.592-15.663
				s8.204-11.39,13.848-9.759C167.783,73.929,170.735,80.941,168.731,87.961z"/>
			<path fill="#FCFE97" d="M168.698,87.932c-1.986,7.005-8.163,11.374-13.795,9.757c-5.632-1.617-8.588-8.606-6.6-15.612
				c1.987-7.004,8.163-11.373,13.795-9.756C167.73,73.938,170.686,80.927,168.698,87.932z"/>
			<path fill="#FCFE98" d="M168.665,87.903c-1.97,6.99-8.124,11.357-13.743,9.754c-5.62-1.604-8.58-8.571-6.608-15.561
				c1.97-6.99,8.124-11.357,13.744-9.753C167.677,73.946,170.636,80.913,168.665,87.903z"/>
			<path fill="#FCFE99" d="M168.632,87.874c-1.953,6.976-8.084,11.341-13.692,9.751c-5.608-1.591-8.571-8.535-6.616-15.51
				c1.954-6.975,8.084-11.341,13.692-9.75C167.624,73.955,170.587,80.898,168.632,87.874z"/>
			<path fill="#FCFE9A" d="M168.6,87.844c-1.937,6.96-8.044,11.325-13.64,9.748c-5.596-1.578-8.563-8.499-6.625-15.46
				c1.938-6.96,8.044-11.324,13.64-9.747C167.571,73.963,170.537,80.884,168.6,87.844z"/>
			<path fill="#FCFE9B" d="M168.566,87.815c-1.92,6.946-8.004,11.309-13.588,9.745c-5.584-1.565-8.554-8.463-6.633-15.409
				c1.921-6.945,8.005-11.308,13.589-9.744C167.518,73.971,170.488,80.869,168.566,87.815z"/>
			<path fill="#FCFE9C" d="M168.534,87.786c-1.904,6.931-7.965,11.292-13.537,9.741c-5.572-1.551-8.545-8.427-6.641-15.358
				c1.904-6.931,7.965-11.292,13.537-9.741C167.465,73.979,170.438,80.855,168.534,87.786z"/>
			<path fill="#FCFE9D" d="M168.501,87.757c-1.887,6.916-7.925,11.276-13.485,9.738c-5.56-1.538-8.537-8.391-6.649-15.307
				c1.888-6.916,7.926-11.276,13.485-9.738C167.412,73.988,170.389,80.841,168.501,87.757z"/>
			<path fill="#FCFE9E" d="M168.468,87.728c-1.871,6.901-7.886,11.26-13.433,9.735c-5.548-1.525-8.529-8.355-6.657-15.257
				c1.872-6.9,7.886-11.259,13.434-9.734C167.359,73.996,170.34,80.826,168.468,87.728z"/>
			<path fill="#FCFE9F" d="M168.435,87.698c-1.854,6.886-7.846,11.244-13.381,9.732c-5.536-1.512-8.52-8.32-6.665-15.206
				c1.855-6.886,7.846-11.243,13.382-9.731C167.306,74.004,170.291,80.812,168.435,87.698z"/>
			<path fill="#FCFEA0" d="M168.402,87.669c-1.837,6.872-7.806,11.228-13.33,9.729c-5.524-1.499-8.512-8.284-6.673-15.155
				c1.838-6.871,7.807-11.227,13.33-9.729C167.253,74.013,170.241,80.797,168.402,87.669z"/>
			<path fill="#FCFEA1" d="M168.37,87.64c-1.821,6.856-7.767,11.211-13.278,9.726c-5.512-1.485-8.504-8.248-6.682-15.104
				c1.822-6.856,7.767-11.21,13.279-9.725C167.2,74.021,170.192,80.783,168.37,87.64z"/>
			<path fill="#FCFEA2" d="M168.337,87.61c-1.805,6.842-7.727,11.195-13.227,9.723c-5.5-1.472-8.495-8.212-6.689-15.054
				c1.806-6.841,7.728-11.194,13.227-9.722C167.147,74.03,170.143,80.769,168.337,87.61z"/>
			<path fill="#FCFEA3" d="M168.304,87.582c-1.788,6.827-7.687,11.178-13.174,9.72c-5.488-1.459-8.487-8.176-6.698-15.003
				s7.688-11.178,13.175-9.719C167.094,74.038,170.093,80.754,168.304,87.582z"/>
			<path fill="#FCFEA4" d="M168.271,87.552c-1.771,6.812-7.647,11.162-13.123,9.717c-5.476-1.446-8.479-8.141-6.706-14.953
				c1.772-6.812,7.648-11.162,13.124-9.715C167.041,74.046,170.044,80.74,168.271,87.552z"/>
			<path fill="#FCFEA5" d="M168.238,87.523c-1.755,6.797-7.608,11.146-13.071,9.713s-8.47-8.104-6.713-14.901
				c1.755-6.796,7.608-11.146,13.071-9.712C166.988,74.055,169.995,80.726,168.238,87.523z"/>
			<path fill="#FCFEA6" d="M168.206,87.494c-1.739,6.782-7.568,11.13-13.02,9.71c-5.452-1.42-8.461-8.068-6.722-14.851
				c1.739-6.782,7.568-11.129,13.02-9.709C166.935,74.063,169.945,80.711,168.206,87.494z"/>
			<path fill="#FCFEA7" d="M168.172,87.464c-1.722,6.767-7.528,11.113-12.967,9.708c-5.44-1.407-8.453-8.033-6.73-14.8
				c1.723-6.767,7.529-11.113,12.968-9.707C166.882,74.071,169.896,80.697,168.172,87.464z"/>
			<path fill="#FCFEA8" d="M168.14,87.435c-1.706,6.752-7.489,11.097-12.916,9.705c-5.427-1.394-8.444-7.997-6.738-14.75
				c1.706-6.752,7.489-11.097,12.917-9.703C166.829,74.08,169.847,80.683,168.14,87.435z"/>
			<path fill="#FCFEA9" d="M168.107,87.406c-1.689,6.738-7.449,11.081-12.864,9.702c-5.416-1.38-8.436-7.961-6.746-14.699
				c1.69-6.737,7.45-11.081,12.865-9.7C166.776,74.088,169.797,80.668,168.107,87.406z"/>
			<path fill="#FCFEAA" d="M168.074,87.377c-1.672,6.722-7.41,11.064-12.813,9.698c-5.403-1.367-8.428-7.925-6.754-14.647
				c1.673-6.723,7.41-11.064,12.813-9.697C166.723,74.096,169.748,80.654,168.074,87.377z"/>
			<path fill="#FCFEAB" d="M168.041,87.348c-1.656,6.708-7.37,11.048-12.761,9.695c-5.391-1.354-8.419-7.889-6.762-14.597
				c1.657-6.707,7.37-11.048,12.761-9.694C166.67,74.105,169.699,80.64,168.041,87.348z"/>
			<path fill="#FCFEAC" d="M168.008,87.318c-1.639,6.693-7.33,11.032-12.709,9.692c-5.379-1.341-8.411-7.854-6.771-14.546
				c1.64-6.692,7.331-11.032,12.71-9.691C166.617,74.113,169.649,80.625,168.008,87.318z"/>
			<path fill="#FCFEAD" d="M167.976,87.289c-1.623,6.678-7.291,11.016-12.658,9.689c-5.367-1.328-8.402-7.817-6.778-14.496
				c1.624-6.678,7.291-11.016,12.658-9.688C166.564,74.122,169.6,80.611,167.976,87.289z"/>
			<path fill="#FCFEAE" d="M167.943,87.26c-1.606,6.663-7.251,11-12.606,9.686c-5.355-1.315-8.394-7.782-6.787-14.445
				c1.607-6.663,7.251-10.999,12.606-9.685C166.511,74.13,169.55,80.597,167.943,87.26z"/>
			<path fill="#FCFEAF" d="M167.91,87.23c-1.589,6.648-7.211,10.983-12.554,9.683c-5.343-1.301-8.386-7.746-6.795-14.394
				c1.591-6.648,7.212-10.983,12.555-9.682C166.458,74.138,169.501,80.582,167.91,87.23z"/>
			<path fill="#FDFEB0" d="M167.877,87.201c-1.573,6.634-7.171,10.967-12.502,9.68c-5.331-1.288-8.377-7.71-6.803-14.343
				s7.172-10.967,12.503-9.679C166.405,74.146,169.452,80.568,167.877,87.201z"/>
			<path fill="#FDFEB1" d="M167.844,87.172c-1.557,6.619-7.132,10.951-12.451,9.677c-5.319-1.275-8.369-7.674-6.811-14.292
				c1.558-6.619,7.133-10.951,12.452-9.676C166.353,74.155,169.402,80.553,167.844,87.172z"/>
			<path fill="#FDFEB2" d="M167.812,87.143c-1.541,6.604-7.092,10.935-12.399,9.673c-5.307-1.262-8.36-7.638-6.819-14.242
				c1.542-6.603,7.093-10.934,12.4-9.672C166.299,74.163,169.353,80.539,167.812,87.143z"/>
			<path fill="#FDFEB3" d="M167.778,87.114c-1.523,6.589-7.052,10.918-12.347,9.67s-8.352-7.602-6.827-14.191
				c1.524-6.588,7.053-10.918,12.348-9.669C166.247,74.171,169.304,80.524,167.778,87.114z"/>
			<path fill="#FDFEB4" d="M167.746,87.084c-1.507,6.574-7.013,10.902-12.295,9.667c-5.283-1.235-8.344-7.566-6.835-14.14
				c1.508-6.574,7.013-10.902,12.296-9.666C166.193,74.18,169.254,80.51,167.746,87.084z"/>
			<path fill="#FDFEB5" d="M167.713,87.055c-1.491,6.559-6.973,10.886-12.244,9.664c-5.271-1.223-8.335-7.53-6.843-14.09
				c1.492-6.559,6.974-10.885,12.244-9.663C166.141,74.188,169.205,80.496,167.713,87.055z"/>
			<path fill="#FDFEB6" d="M167.68,87.026c-1.474,6.544-6.934,10.87-12.192,9.661c-5.259-1.209-8.327-7.495-6.851-14.039
				c1.475-6.544,6.934-10.869,12.193-9.66C166.088,74.197,169.156,80.481,167.68,87.026z"/>
			<path fill="#FDFEB7" d="M167.647,86.997c-1.458,6.529-6.894,10.854-12.141,9.658c-5.247-1.196-8.318-7.459-6.859-13.988
				c1.458-6.529,6.895-10.853,12.141-9.657C166.035,74.205,169.106,80.467,167.647,86.997z"/>
			<path fill="#FDFEB8" d="M167.614,86.967c-1.441,6.515-6.854,10.837-12.088,9.655c-5.235-1.183-8.31-7.423-6.868-13.938
				c1.442-6.514,6.855-10.836,12.089-9.653C165.982,74.213,169.057,80.453,167.614,86.967z"/>
			<path fill="#FDFEB9" d="M167.582,86.938c-1.425,6.5-6.814,10.821-12.037,9.651c-5.223-1.17-8.301-7.387-6.875-13.887
				c1.426-6.499,6.815-10.82,12.038-9.65C165.929,74.222,169.008,80.438,167.582,86.938z"/>
			<path fill="#FDFEBA" d="M167.549,86.909c-1.408,6.484-6.775,10.805-11.985,9.648c-5.211-1.157-8.293-7.351-6.884-13.836
				c1.409-6.484,6.775-10.804,11.986-9.647C165.876,74.23,168.958,80.424,167.549,86.909z"/>
			<path fill="#FDFEBB" d="M167.516,86.88c-1.392,6.47-6.735,10.788-11.934,9.646c-5.199-1.144-8.285-7.315-6.892-13.785
				s6.736-10.788,11.934-9.645C165.823,74.238,168.909,80.41,167.516,86.88z"/>
			<path fill="#FDFEBC" d="M167.483,86.851c-1.375,6.455-6.695,10.772-11.882,9.642c-5.187-1.13-8.276-7.279-6.9-13.734
				c1.376-6.455,6.696-10.771,11.883-9.641C165.77,74.247,168.86,80.396,167.483,86.851z"/>
			<path fill="#FDFEBD" d="M167.45,86.821c-1.358,6.44-6.656,10.756-11.83,9.639c-5.175-1.117-8.268-7.243-6.908-13.684
				c1.36-6.44,6.657-10.755,11.831-9.638C165.717,74.255,168.811,80.381,167.45,86.821z"/>
			<path fill="#FDFEBE" d="M167.417,86.792c-1.342,6.425-6.616,10.74-11.778,9.636c-5.163-1.104-8.26-7.208-6.917-13.633
				s6.617-10.739,11.779-9.635C165.664,74.264,168.761,80.367,167.417,86.792z"/>
			<path fill="#FDFEBF" d="M167.385,86.763c-1.326,6.411-6.577,10.724-11.727,9.633c-5.15-1.091-8.251-7.172-6.924-13.583
				c1.327-6.41,6.578-10.723,11.728-9.632C165.611,74.272,168.711,80.353,167.385,86.763z"/>
			<path fill="#FDFEC0" d="M167.352,86.733c-1.309,6.396-6.537,10.708-11.675,9.63c-5.139-1.078-8.243-7.136-6.933-13.532
				c1.311-6.395,6.538-10.707,11.676-9.629C165.558,74.28,168.662,80.338,167.352,86.733z"/>
			<path fill="#FDFEC1" d="M167.319,86.705c-1.292,6.38-6.497,10.69-11.623,9.626c-5.127-1.064-8.234-7.1-6.94-13.48
				c1.293-6.38,6.498-10.69,11.624-9.626C165.505,74.289,168.613,80.324,167.319,86.705z"/>
			<path fill="#FDFEC2" d="M167.286,86.675c-1.276,6.366-6.458,10.674-11.572,9.624c-5.114-1.051-8.226-7.064-6.948-13.43
				c1.277-6.365,6.458-10.674,11.572-9.623C165.452,74.297,168.563,80.309,167.286,86.675z"/>
			<path fill="#FDFEC3" d="M167.253,86.646c-1.26,6.351-6.418,10.658-11.52,9.621c-5.103-1.039-8.217-7.028-6.957-13.379
				c1.26-6.351,6.418-10.658,11.521-9.62C165.399,74.305,168.514,80.295,167.253,86.646z"/>
			<path fill="#FDFEC4" d="M167.22,86.617c-1.243,6.336-6.378,10.642-11.468,9.618c-5.09-1.025-8.208-6.993-6.964-13.329
				s6.379-10.642,11.469-9.616C165.346,74.313,168.465,80.28,167.22,86.617z"/>
			<path fill="#FDFEC5" d="M167.188,86.587c-1.227,6.321-6.338,10.626-11.417,9.615c-5.078-1.012-8.2-6.957-6.973-13.278
				s6.339-10.625,11.417-9.613C165.293,74.322,168.416,80.266,167.188,86.587z"/>
			<path fill="#FDFEC6" d="M167.155,86.558c-1.21,6.307-6.299,10.61-11.365,9.611c-5.066-0.999-8.192-6.92-6.981-13.227
				c1.211-6.306,6.299-10.609,11.365-9.61C165.24,74.331,168.366,80.252,167.155,86.558z"/>
			<path fill="#FDFEC7" d="M167.122,86.529c-1.194,6.292-6.259,10.594-11.313,9.608c-5.054-0.986-8.183-6.885-6.989-13.176
				c1.194-6.291,6.26-10.593,11.314-9.607C165.187,74.339,168.317,80.237,167.122,86.529z"/>
			<path fill="#FDFEC8" d="M167.089,86.5c-1.177,6.276-6.219,10.577-11.261,9.605c-5.042-0.973-8.175-6.849-6.997-13.125
				s6.22-10.577,11.262-9.604C165.134,74.347,168.268,80.223,167.089,86.5z"/>
			<path fill="#FDFEC9" d="M167.056,86.471c-1.16,6.262-6.18,10.561-11.209,9.602c-5.03-0.959-8.167-6.813-7.005-13.075
				c1.162-6.261,6.181-10.56,11.21-9.601C165.081,74.355,168.218,80.208,167.056,86.471z"/>
			<path fill="#FDFECA" d="M167.023,86.441c-1.144,6.247-6.14,10.544-11.158,9.599s-8.158-6.777-7.013-13.024
				c1.145-6.247,6.141-10.544,11.159-9.598C165.028,74.364,168.169,80.194,167.023,86.441z"/>
			<path fill="#FDFECB" d="M166.991,86.412c-1.127,6.232-6.101,10.528-11.106,9.596c-5.006-0.933-8.15-6.741-7.021-12.973
				s6.102-10.528,11.107-9.595C164.975,74.372,168.12,80.18,166.991,86.412z"/>
			<path fill="#FDFECC" d="M166.958,86.383c-1.111,6.217-6.061,10.512-11.054,9.593c-4.994-0.92-8.142-6.706-7.03-12.923
				c1.112-6.217,6.062-10.511,11.056-9.591C164.922,74.38,168.07,80.166,166.958,86.383z"/>
			<path fill="#FDFECD" d="M166.925,86.354c-1.094,6.203-6.021,10.496-11.003,9.59c-4.982-0.907-8.133-6.669-7.038-12.872
				c1.096-6.202,6.022-10.495,11.004-9.588C164.869,74.389,168.021,80.151,166.925,86.354z"/>
			<path fill="#FDFECE" d="M166.892,86.324c-1.078,6.188-5.981,10.48-10.951,9.587c-4.97-0.894-8.125-6.634-7.046-12.821
				c1.079-6.187,5.982-10.479,10.952-9.585C164.816,74.397,167.972,80.137,166.892,86.324z"/>
			<path fill="#FDFECF" d="M166.859,86.295c-1.062,6.172-5.942,10.463-10.899,9.583c-4.958-0.88-8.116-6.598-7.054-12.771
				c1.062-6.172,5.942-10.462,10.9-9.582C164.763,74.406,167.922,80.123,166.859,86.295z"/>
			<path fill="#FEFED0" d="M166.826,86.266c-1.044,6.158-5.902,10.447-10.848,9.58c-4.946-0.867-8.107-6.562-7.062-12.72
				c1.046-6.157,5.903-10.446,10.848-9.579C164.71,74.414,167.873,80.108,166.826,86.266z"/>
			<path fill="#FEFED1" d="M166.793,86.237c-1.028,6.143-5.862,10.431-10.796,9.577c-4.934-0.854-8.099-6.526-7.07-12.669
				c1.029-6.143,5.863-10.43,10.797-9.576C164.657,74.422,167.823,80.094,166.793,86.237z"/>
			<path fill="#FEFED2" d="M166.761,86.208c-1.012,6.128-5.823,10.415-10.744,9.574c-4.922-0.841-8.091-6.49-7.078-12.618
				c1.013-6.128,5.824-10.414,10.745-9.573C164.604,74.431,167.774,80.08,166.761,86.208z"/>
			<path fill="#FEFED3" d="M166.728,86.178c-0.996,6.113-5.783,10.398-10.693,9.571c-4.91-0.828-8.083-6.455-7.086-12.568
				c0.997-6.113,5.784-10.397,10.693-9.57C164.551,74.439,167.725,80.065,166.728,86.178z"/>
			<path fill="#FEFED4" d="M166.695,86.149c-0.979,6.098-5.743,10.382-10.641,9.568c-4.898-0.814-8.074-6.418-7.094-12.517
				c0.98-6.098,5.744-10.381,10.642-9.567C164.499,74.447,167.675,80.051,166.695,86.149z"/>
			<path fill="#FEFED5" d="M166.662,86.12c-0.962,6.083-5.704,10.366-10.589,9.565c-4.886-0.801-8.066-6.382-7.103-12.466
				c0.963-6.083,5.705-10.365,10.59-9.563C164.445,74.456,167.626,80.036,166.662,86.12z"/>
			<path fill="#FEFED6" d="M166.629,86.09c-0.946,6.069-5.664,10.35-10.538,9.562c-4.874-0.789-8.057-6.347-7.11-12.416
				c0.947-6.068,5.665-10.349,10.538-9.56C164.393,74.464,167.577,80.022,166.629,86.09z"/>
			<path fill="#FEFED7" d="M166.597,86.062c-0.929,6.053-5.625,10.333-10.486,9.559c-4.862-0.775-8.049-6.311-7.119-12.365
				c0.931-6.053,5.625-10.333,10.487-9.557C164.339,74.472,167.527,80.008,166.597,86.062z"/>
			<path fill="#FEFED8" d="M166.563,86.032c-0.913,6.039-5.584,10.317-10.434,9.555c-4.85-0.762-8.041-6.275-7.127-12.313
				c0.914-6.039,5.586-10.316,10.435-9.554C164.287,74.481,167.478,79.993,166.563,86.032z"/>
			<path fill="#FEFED9" d="M166.531,86.003c-0.896,6.024-5.545,10.301-10.382,9.552c-4.837-0.749-8.032-6.239-7.135-12.263
				c0.897-6.023,5.546-10.3,10.383-9.551C164.233,74.489,167.429,79.979,166.531,86.003z"/>
			<path fill="#FEFFDA" d="M166.498,85.974c-0.88,6.009-5.505,10.285-10.331,9.549c-4.826-0.736-8.023-6.203-7.143-12.212
				c0.881-6.008,5.506-10.284,10.332-9.548C164.181,74.498,167.379,79.964,166.498,85.974z"/>
			<path fill="#FEFFDB" d="M166.465,85.944c-0.863,5.994-5.466,10.269-10.279,9.546c-4.813-0.723-8.015-6.167-7.151-12.162
				c0.865-5.994,5.467-10.268,10.28-9.545C164.128,74.506,167.33,79.95,166.465,85.944z"/>
			<path fill="#FEFFDC" d="M166.433,85.915c-0.847,5.979-5.427,10.252-10.228,9.543c-4.801-0.709-8.007-6.132-7.159-12.111
				c0.848-5.979,5.427-10.251,10.229-9.542C164.075,74.514,167.281,79.936,166.433,85.915z"/>
			<path fill="#FEFFDD" d="M166.399,85.886c-0.83,5.965-5.387,10.236-10.175,9.54c-4.79-0.696-7.999-6.095-7.167-12.06
				c0.831-5.964,5.387-10.235,10.176-9.539C164.022,74.522,167.231,79.921,166.399,85.886z"/>
			<path fill="#FEFFDE" d="M166.367,85.857c-0.813,5.949-5.347,10.219-10.124,9.537c-4.777-0.683-7.99-6.06-7.175-12.009
				c0.814-5.949,5.348-10.219,10.125-9.536C163.969,74.531,167.182,79.907,166.367,85.857z"/>
			<path fill="#FEFFDF" d="M166.334,85.828c-0.797,5.935-5.308,10.203-10.072,9.534c-4.765-0.67-7.981-6.024-7.183-11.958
				s5.308-10.203,10.073-9.533C163.916,74.539,167.133,79.893,166.334,85.828z"/>
			<path fill="#FEFFE0" d="M166.301,85.798c-0.781,5.92-5.268,10.187-10.021,9.531c-4.753-0.657-7.973-5.988-7.191-11.908
				c0.782-5.919,5.269-10.186,10.021-9.529C163.863,74.548,167.083,79.878,166.301,85.798z"/>
			<path fill="#FEFFE1" d="M166.268,85.769c-0.764,5.905-5.228,10.171-9.969,9.527s-7.964-5.952-7.199-11.857
				c0.765-5.904,5.229-10.17,9.969-9.526C163.81,74.556,167.034,79.864,166.268,85.769z"/>
			<path fill="#FEFFE2" d="M166.235,85.74c-0.748,5.89-5.188,10.154-9.917,9.524c-4.729-0.63-7.956-5.916-7.208-11.806
				c0.749-5.89,5.189-10.154,9.918-9.523C163.757,74.564,166.985,79.85,166.235,85.74z"/>
			<path fill="#FEFFE3" d="M166.203,85.71c-0.731,5.875-5.149,10.138-9.865,9.521c-4.717-0.617-7.948-5.88-7.216-11.756
				c0.732-5.875,5.149-10.137,9.866-9.52C163.704,74.573,166.936,79.835,166.203,85.71z"/>
			<path fill="#FEFFE4" d="M166.17,85.681c-0.715,5.86-5.109,10.122-9.814,9.519c-4.705-0.604-7.939-5.845-7.224-11.705
				c0.716-5.86,5.11-10.121,9.814-9.517C163.651,74.581,166.886,79.821,166.17,85.681z"/>
			<path fill="#FEFFE5" d="M166.137,85.652c-0.698,5.846-5.069,10.106-9.762,9.516c-4.693-0.591-7.931-5.809-7.232-11.654
				c0.699-5.845,5.07-10.105,9.763-9.514C163.598,74.589,166.836,79.807,166.137,85.652z"/>
			<path fill="#FEFFE6" d="M166.104,85.623c-0.682,5.831-5.03,10.089-9.71,9.512c-4.681-0.578-7.923-5.772-7.24-11.603
				s5.031-10.089,9.711-9.511C163.545,74.598,166.787,79.792,166.104,85.623z"/>
			<path fill="#FEFFE7" d="M166.071,85.594c-0.665,5.815-4.99,10.073-9.659,9.509c-4.669-0.564-7.914-5.737-7.248-11.553
				c0.667-5.815,4.991-10.072,9.66-9.507C163.492,74.606,166.738,79.778,166.071,85.594z"/>
			<path fill="#FEFFE8" d="M166.039,85.564c-0.648,5.801-4.951,10.057-9.607,9.506c-4.657-0.552-7.906-5.701-7.256-11.502
				c0.65-5.8,4.951-10.056,9.608-9.504C163.439,74.614,166.688,79.764,166.039,85.564z"/>
			<path fill="#FEFFE9" d="M166.005,85.535c-0.632,5.786-4.911,10.041-9.555,9.503c-4.645-0.539-7.897-5.665-7.265-11.451
				c0.633-5.786,4.912-10.04,9.556-9.501C163.386,74.623,166.639,79.749,166.005,85.535z"/>
			<path fill="#FEFFEA" d="M165.973,85.506c-0.615,5.771-4.871,10.024-9.503,9.5c-4.633-0.525-7.889-5.629-7.272-11.401
				c0.617-5.771,4.872-10.023,9.504-9.498C163.333,74.631,166.59,79.735,165.973,85.506z"/>
			<path fill="#FEFFEB" d="M165.94,85.477c-0.599,5.756-4.832,10.008-9.452,9.497c-4.621-0.512-7.88-5.593-7.28-11.35
				c0.6-5.756,4.832-10.007,9.452-9.495C163.28,74.64,166.541,79.72,165.94,85.477z"/>
			<path fill="#FEFFEC" d="M165.907,85.447c-0.583,5.742-4.792,9.992-9.4,9.494c-4.609-0.499-7.872-5.558-7.289-11.299
				s4.792-9.991,9.4-9.492C163.227,74.648,166.491,79.706,165.907,85.447z"/>
			<path fill="#FEFFED" d="M165.874,85.418c-0.565,5.727-4.752,9.976-9.348,9.49c-4.597-0.486-7.863-5.521-7.296-11.249
				c0.567-5.726,4.753-9.975,9.349-9.489C163.174,74.656,166.442,79.691,165.874,85.418z"/>
			<path fill="#FEFFEE" d="M165.841,85.389c-0.549,5.711-4.712,9.959-9.296,9.487c-4.584-0.473-7.855-5.486-7.305-11.198
				c0.551-5.711,4.713-9.958,9.297-9.486C163.121,74.665,166.393,79.677,165.841,85.389z"/>
			<path fill="#FEFFEF" d="M165.809,85.36c-0.533,5.697-4.673,9.943-9.245,9.484c-4.573-0.459-7.847-5.45-7.313-11.146
				c0.534-5.696,4.673-9.942,9.246-9.483C163.068,74.673,166.343,79.663,165.809,85.36z"/>
			<path fill="#FFFFF0" d="M165.776,85.331c-0.517,5.682-4.633,9.927-9.193,9.481c-4.561-0.446-7.838-5.414-7.321-11.096
				s4.634-9.926,9.194-9.48C163.015,74.681,166.294,79.648,165.776,85.331z"/>
			<path fill="#FFFFF1" d="M165.743,85.301c-0.5,5.667-4.593,9.911-9.141,9.478c-4.548-0.433-7.83-5.378-7.329-11.045
				c0.501-5.667,4.594-9.91,9.142-9.477C162.962,74.689,166.245,79.634,165.743,85.301z"/>
			<path fill="#FFFFF2" d="M165.71,85.272c-0.483,5.652-4.554,9.895-9.089,9.475c-4.537-0.42-7.822-5.342-7.337-10.995
				c0.485-5.652,4.555-9.894,9.091-9.474C162.909,74.698,166.195,79.62,165.71,85.272z"/>
			<path fill="#FFFFF3" d="M165.677,85.243c-0.467,5.638-4.514,9.878-9.038,9.472c-4.524-0.407-7.813-5.307-7.345-10.944
				c0.468-5.637,4.515-9.877,9.039-9.471C162.856,74.707,166.146,79.605,165.677,85.243z"/>
			<path fill="#FFFFF4" d="M165.645,85.214c-0.45,5.622-4.475,9.862-8.986,9.468c-4.512-0.394-7.805-5.271-7.354-10.893
				c0.452-5.622,4.476-9.861,8.987-9.467C162.803,74.715,166.097,79.591,165.645,85.214z"/>
			<path fill="#FFFFF5" d="M165.611,85.185c-0.434,5.607-4.435,9.846-8.935,9.465s-7.796-5.234-7.361-10.842
				c0.435-5.607,4.436-9.845,8.936-9.464C162.75,74.723,166.047,79.577,165.611,85.185z"/>
			<path fill="#FFFFF6" d="M165.579,85.155c-0.417,5.593-4.395,9.829-8.883,9.462c-4.488-0.368-7.788-5.199-7.37-10.792
				c0.419-5.592,4.396-9.829,8.884-9.461C162.697,74.731,165.998,79.563,165.579,85.155z"/>
			<path fill="#FFFFF7" d="M165.546,85.126c-0.401,5.578-4.355,9.813-8.831,9.459c-4.477-0.354-7.779-5.163-7.378-10.741
				c0.402-5.577,4.356-9.812,8.833-9.458C162.645,74.74,165.948,79.548,165.546,85.126z"/>
			<path fill="#FFFFF8" d="M165.513,85.097c-0.384,5.563-4.316,9.797-8.78,9.457c-4.464-0.341-7.771-5.127-7.386-10.69
				c0.386-5.563,4.317-9.796,8.781-9.455C162.591,74.748,165.899,79.534,165.513,85.097z"/>
			<path fill="#FFFFF9" d="M165.48,85.067c-0.367,5.548-4.276,9.781-8.728,9.453c-4.452-0.328-7.762-5.091-7.394-10.639
				c0.369-5.548,4.277-9.78,8.729-9.452C162.539,74.756,165.85,79.519,165.48,85.067z"/>
			<path fill="#FFFFFA" d="M165.447,85.038c-0.351,5.534-4.236,9.765-8.676,9.45c-4.44-0.315-7.754-5.055-7.402-10.588
				s4.237-9.764,8.677-9.449C162.485,74.765,165.8,79.505,165.447,85.038z"/>
			<path fill="#FFFFFB" d="M165.415,85.009c-0.334,5.519-4.197,9.749-8.625,9.447c-4.428-0.302-7.746-5.02-7.41-10.538
				c0.336-5.518,4.198-9.747,8.625-9.445C162.433,74.773,165.751,79.491,165.415,85.009z"/>
			<path fill="#FFFFFC" d="M165.382,84.98c-0.318,5.503-4.157,9.731-8.573,9.444c-4.416-0.289-7.737-4.984-7.418-10.487
				c0.319-5.503,4.158-9.731,8.573-9.442C162.379,74.782,165.702,79.476,165.382,84.98z"/>
			<path fill="#FFFFFD" d="M165.349,84.951c-0.301,5.489-4.117,9.715-8.521,9.44c-4.404-0.275-7.729-4.947-7.426-10.436
				c0.303-5.488,4.118-9.715,8.522-9.439C162.327,74.79,165.652,79.462,165.349,84.951z"/>
			<path fill="#FFFFFE" d="M165.316,84.921c-0.285,5.474-4.078,9.699-8.469,9.438c-4.392-0.262-7.72-4.912-7.434-10.386
				c0.287-5.473,4.079-9.698,8.47-9.436C162.273,74.798,165.603,79.447,165.316,84.921z"/>
			<path fill="#FFFFFF" d="M165.283,84.892c-0.269,5.459-4.038,9.683-8.417,9.435c-4.38-0.249-7.712-4.876-7.442-10.335
				c0.27-5.458,4.039-9.682,8.418-9.433C162.221,74.807,165.554,79.433,165.283,84.892z"/>
		</g>
		<g>
			<path fill="#FFFFFF" d="M172.694,73.628c-0.34,1.865-1.798,3.165-3.257,2.906c-1.458-0.26-2.365-1.983-2.025-3.846
				c0.339-1.865,1.797-3.166,3.257-2.906C172.127,70.042,173.034,71.764,172.694,73.628z"/>
		</g>
		<g>
			<path fill="#8ED61A" d="M190.438,198.344c-2.263,0.649-4.598,8.241-4.327,10.443c0.357,2.904,3.431,0.922,5.095,0.4
				c1.418-0.445,2.95,0.224,4.482,0.344c1.515,0.121,3.745-1.369,4.964-0.507c1.398-2.317-3.537-6.409-4.939-8.009
				c-0.75-0.854-1.867-2.744-3.004-3.091C191.749,197.631,191.375,198.177,190.438,198.344"/>
		</g>
	</g>
	<g>
		<g>
			<path fill="none" d="M188.862,198.668c1.751-0.75,3.502-0.6,5.252-0.45"/>
		</g>
		<g>
			<path fill="#C1272D" d="M188.862,199.918c1.715-0.673,3.449-0.603,5.252-0.45c-0.051-0.004,0.089-2.493,0-2.5
				c-1.803-0.153-3.538-0.223-5.252,0.45C188.562,197.536,189.129,199.813,188.862,199.918L188.862,199.918z"/>
		</g>
	</g>
</g>
</svg>