<svg xmlns="http://www.w3.org/2000/svg" width="135" height="400">
  <path fill="none" d="M66 165.2c8 20 48.7 27.4 43.3 49.8-7.3 31.2-98.2 26.2-90 78.6 6.2 36 74.6 11.2 91.8 38.6 13 21.2-19 41 0 59.8"/>
  <path fill="#C1272D" d="M66 166.4c7 16 27 21.4 38.5 33.7 10.8 12 1.3 24-9.7 30-12.7 8-27.2 12-40.6 17-12.5 6-26 13-32.5 26-4.7 10-4.7 25 2.3 34 9 11.7 29 11 42 12 14 1 33 2 43 14 12 14.6-5.8 31.6-5.8 47 0 6 2 10.6 6 15-.4-.5.5-2.2 0-2.6-3-3.5-5.3-7-6-12-.5-4 2-9.3 3.5-13.2 3-7 6.5-14 6.6-22 .3-16-12.2-23-26-25.7-16.3-4-33.3-2.6-49.3-7-6.5-2-12.7-5-16.4-11-4-6.6-4-15.4-1.8-23 4.8-13 18.5-20.5 30.5-26 13.4-6.3 28-10.4 41-17 9.5-5 18-12 18-23 0-16-20-24-31-32.4-5-4-10.2-8.6-13-15 .4.7-.2 1.8 0 2.5z"/>
  <ellipse cx="64.9" cy="80.4" fill="#F79321" rx="61.9" ry="75.8"/>
  <ellipse cx="64.4" cy="79.8" fill="#F79422" rx="61.1" ry="75"/>
  <ellipse cx="63.9" cy="79.3" fill="#F79523" rx="60.4" ry="74.2"/>
  <ellipse cx="63.4" cy="78.8" fill="#F79624" rx="59.7" ry="73.3"/>
  <ellipse cx="62.9" cy="78.3" fill="#F89724" rx="58.9" ry="72.5"/>
  <ellipse cx="62.4" cy="77.8" fill="#F89825" rx="58.2" ry="71.7"/>
  <ellipse cx="61.9" cy="77.2" fill="#F89926" rx="57.5" ry="70.9"/>
  <ellipse cx="61.5" cy="76.7" fill="#F89A27" rx="56.8" ry="70.1"/>
  <ellipse cx="61" cy="76.2" fill="#F89B28" rx="56" ry="69.2"/>
  <ellipse cx="60.5" cy="75.7" fill="#F89C29" rx="55.3" ry="68.4"/>
  <ellipse cx="60" cy="75.2" fill="#F89D2A" rx="54.6" ry="67.6"/>
  <ellipse cx="59.5" cy="74.6" fill="#F89E2B" rx="53.9" ry="66.8"/>
  <ellipse cx="59" cy="74.1" fill="#F99F2B" rx="53.1" ry="66"/>
  <ellipse cx="58.5" cy="73.6" fill="#F9A02C" rx="52.4" ry="65.1"/>
  <ellipse cx="58.1" cy="73.1" fill="#F9A12D" rx="51.7" ry="64.3"/>
  <ellipse cx="57.6" cy="72.6" fill="#F9A22E" rx="50.9" ry="63.5"/>
  <ellipse cx="57.1" cy="72" fill="#F9A22F" rx="50.2" ry="62.7"/>
  <ellipse cx="56.6" cy="71.5" fill="#F9A330" rx="49.5" ry="61.9"/>
  <ellipse cx="56.1" cy="71" fill="#F9A431" rx="48.8" ry="61"/>
  <ellipse cx="55.6" cy="70.5" fill="#FAA531" rx="48" ry="60.2"/>
  <ellipse cx="55.1" cy="70" fill="#FAA632" rx="47.3" ry="59.4"/>
  <ellipse cx="54.7" cy="69.5" fill="#FAA733" rx="46.6" ry="58.6"/>
  <ellipse cx="54.2" cy="68.9" fill="#FAA834" rx="45.9" ry="57.8"/>
  <ellipse cx="53.7" cy="68.4" fill="#FAA935" rx="45.1" ry="56.9"/>
  <ellipse cx="53.2" cy="67.9" fill="#FAAA36" rx="44.4" ry="56.1"/>
  <ellipse cx="52.7" cy="67.4" fill="#FAAB37" rx="43.7" ry="55.3"/>
  <ellipse cx="52.2" cy="66.9" fill="#FAAC38" rx="42.9" ry="54.5"/>
  <ellipse cx="51.7" cy="66.3" fill="#FBAD38" rx="42.2" ry="53.6"/>
  <ellipse cx="51.3" cy="65.8" fill="#FBAE39" rx="41.5" ry="52.8"/>
  <ellipse cx="50.8" cy="65.3" fill="#FBAF3A" rx="40.8" ry="52"/>
  <ellipse cx="50.3" cy="64.8" fill="#FBB03B" rx="40" ry="51.2"/>
  <ellipse cx="50.1" cy="64.4" fill="#FBB13B" transform="translate(.14 -.108)" rx="39.6" ry="50.6"/>
  <path fill="#FBB23A" d="M89 64.3c0 27.6-17.8 50-39.4 50-21.6-.2-39-22.7-39-50.4.2-28 17.8-50 39.4-50 21.7 0 39 22 39 50z"/>
  <path fill="#FBB33A" d="M88.3 64c-.2 27.4-17.7 49.4-39 49.3-21.5-.2-38.6-22.5-38.5-49.8.2-27.3 17.7-49.4 39-49.2 21.5 0 38.7 22.4 38.5 49.8z"/>
  <path fill="#FBB439" d="M87.7 63.8c-.3 27-17.7 48.8-38.8 48.6C27 112.2 10 90 11 63c.3-27 17.6-48.7 38.8-48.5 21.2.2 38 22.3 38 49.3z"/>
  <path fill="#FBB539" d="M87 63.6c-.3 26.7-17.5 48-38.5 48-21-.4-37.6-22.2-37.3-49 .3-26.7 17.6-48 38.5-48 21 .4 37.6 22.2 37.3 49z"/>
  <path fill="#FBB639" d="M86.3 63.3C86 89.7 69 111 48.3 110.6c-20.8-.3-37.2-22-37-48.4C12 35.8 29 14.7 49.7 15c20.6.3 37 22 36.7 48.3z"/>
  <path fill="#FBB738" d="M85.6 63c-.4 26.2-17.3 47-37.8 46.7-20.4-.3-36.6-21.8-36.2-48 .5-26 17.4-47 37.8-46.5C70 15.5 86 37 85.6 63.2z"/>
  <path fill="#FBB838" d="M85 62.8c-.5 25.8-17.3 46.4-37.5 46-20.2-.4-36.2-21.6-35.7-47.4.5-25.8 17.3-46.4 37.5-46C69.5 15.8 85.5 37 85 62.8z"/>
  <path fill="#FBB937" d="M84.3 62.6C83.7 88 67 108.4 47 108c-19.8-.5-35.5-21.6-35-47 .6-25.5 17.2-45.8 37.2-45.4 20 .5 35.7 21.5 35 47z"/>
  <path fill="#FBBA37" d="M83.6 62.4c-.6 25-17 45-36.8 44.6-19.7-.5-35.2-21.3-34.6-46.5.6-25 17-45 37-44.6 19.6 0 35 21 34.4 46z"/>
  <path fill="#FBBB36" d="M83 62c-.7 25-17 44.7-36.6 44-19.4-.4-34.7-21-34-46 .7-24.7 17-44.4 36.5-44 19 .7 34 21.3 34 46z"/>
  <path fill="#FBBC36" d="M82.3 62c-.8 24.4-17 43.8-36.2 43.2-19-.6-34-21-33-45.5 1-24.6 17-44 36-43.4 19 .7 34 21 34 45.7z"/>
  <path fill="#FBBD36" d="M81.6 61.6c-.8 24.3-16.8 43.4-36 42.8S12 83.4 13 59.4C13.8 35 30 16 49 16.6c19 .6 33.6 20.8 32.8 45z"/>
  <path fill="#FBBE35" d="M81 61.4c-1 24-16.8 42.8-35.6 42C26.6 103 12 83 13 59s16.8-42.7 35.6-42c18.7.7 33.2 20.7 32.4 44.6z"/>
  <path fill="#FBBF35" d="M80.3 61.2c-1 23.6-16.7 42-35.2 41.4-18-.8-32-20.6-31-44.2s17-42 35-41.4 33 20.5 32 44.2z"/>
  <path fill="#FBC034" d="M79.6 61c-1 23.2-16.6 41.5-35 40.7-18-.7-32-20.4-31-43.7 1-23.3 16.5-41.6 35-40.8 18 .8 32 20.4 31 43.8z"/>
  <path fill="#FBC134" d="M79 60.7c-1 23-16.6 41-34.6 40-18-.8-32-20-30.8-43 1-23 16.5-41 34.6-40.2 18 .8 31.8 20.2 30.8 43.2z"/>
  <path fill="#FBC234" d="M78.3 60.4C77.3 83 61.8 100.8 44 100c-17.8-1-31.3-20.3-30.2-43 1-22.7 16.5-40.4 34.3-39.5 18 1 32 20 31 42.7z"/>
  <path fill="#FBC333" d="M77.6 60.2C76.4 82.6 61.2 100 43.6 99 26.2 98 13 79 14 56.7 15.2 34.3 30.4 17 48 18c17.5 1 30.8 19.7 29.6 42z"/>
  <path fill="#FBC433" d="M77 60c-1.3 22-16.4 39-33.7 38C26 97 13 78.5 14.3 56.4c1-22 16.2-39 33.5-38 17.4 1 30.4 19.6 29 41.7z"/>
  <path fill="#FBC532" d="M76.3 59.7C75 81.5 60 98.3 43 97.2c-17-1-30-19.6-28.6-41.3 1.3-22 16.2-39 33.3-38 17 1 30 19 28.6 41z"/>
  <path fill="#FBC632" d="M75.6 59.5c-1.4 21.4-16 38-33 36.8-16.8-1-29.4-19.4-28-40.8 1.4-21.5 16-38 33-37 16.8 1.2 29.4 19.5 28 41z"/>
  <path fill="#FBC732" d="M75 59.2c-1.5 21.2-16 37.4-32.7 36.2-16.7-1-29-19.2-27.5-40.4 1.4-21 16-37.3 32.7-36.2C64 20 76.5 38 75 59.2z"/>
  <path fill="#FBC831" d="M74.3 59c-1.5 20.8-16 36.7-32.4 35.5-17-1.2-29-19-27-40C16 34 31 18 47 19.2c16.4 1.3 28.5 19 27 40z"/>
  <path fill="#FBC931" d="M73.6 58.7c-1.6 20.6-16 36.2-32 35s-28-19-26.4-39.5c1.5-20.5 16-36.2 32-35 16 1.4 28 19 26.4 39.5z"/>
  <path fill="#FBCA30" d="M73 58.5C71.2 78.7 57 94 41 92.7c-16-1.3-27.5-18.7-25.8-39s16-35.4 31.8-34c16 1.2 27.6 18.7 26 39z"/>
  <path fill="#FBCB30" d="M72.3 58.3c-1.7 20-15.8 35-31.4 33.5-16-1.3-27-18.5-26-38.5s15-35 31-33.5C62 21 74 38.4 72 58.3z"/>
  <path fill="#FBCC2F" d="M71.6 58c-1.8 19.6-15.7 34.4-31 33C25 89.5 14 72.5 15.6 53s15.7-34.4 31-33c15.6 1.4 26.6 18.4 25 38z"/>
  <path fill="#FBCD2F" d="M71 57.8C69 77 55.2 91.5 40 90c-15-1.3-25.8-18-24-37.4C17.8 33.3 31.5 19 46.7 20.3 62 21.7 72.7 38.5 71 57.8z"/>
  <path fill="#FBCE2F" d="M70.3 57.5c-2 19-15.5 33.2-30.5 31.7-15-1.5-25.5-18-23.6-37C18 33 31.7 18.8 46.6 20.2c15 1.7 25.5 18.3 23.7 37z"/>
  <path fill="#FBCF2E" d="M69.6 57.3c-2 18.7-15.4 32.5-30 31-14.8-1.6-25.2-18-23.3-36.7s15.5-32.5 30.2-31c14.7 1.6 25 18 23 36.7z"/>
  <path fill="#FCCF2E" d="M69 57c-2 18.4-15.4 32-30 30.4-14.3-1.6-24.5-17.8-22.5-36.2 2-18.3 15.4-32 30-30.3C60.8 22 71 38 69 57z"/>
  <path fill="#FCD02D" d="M68.3 56.8c-2 18-15.3 31.3-29.5 29.7-14.3-1.7-24-17.6-22-35.7C18.8 32.8 32 19.5 46 21c14.5 2 24.2 18 22.2 36z"/>
  <path fill="#FCD12D" d="M67.6 56.6c-2 17.7-15.2 30.7-29.2 29C24.4 84 14.8 68 17 50.4c2-17.8 15-30.8 29-29C60 23 69.8 38.8 67.7 56.6z"/>
  <path fill="#FCD22D" d="M67 56.3c-2.3 17.5-15.2 30.2-29 28.4C24.4 83 15 67.4 17 50c2.3-17.5 15.2-30.2 29-28.4C59.7 23.3 69 39 67 56.3z"/>
  <path fill="#FCD32C" d="M66.2 56c-2.2 17.3-15 29.7-28.5 28C24.2 82 15 66.8 17.3 49.5c2.3-17 15-29.5 28.6-27.7C59 23.6 68 39 66 56z"/>
  <path fill="#FCD42C" d="M65.6 55.8c-2.3 17-15 29-28.2 27C24 81 15.2 65.8 17.4 49c2.4-16.6 15-28.7 28.3-27C59 24 68 39 65.7 56z"/>
  <path fill="#FCD52B" d="M65 55.6C62.4 72 50 84 37 82S15.4 65.2 17.7 48.7c2.4-16.5 15-28.3 28-26.4 13 2 21.6 16.8 19.2 33.3z"/>
  <path fill="#FCD62B" d="M64.2 55.4C61.8 71.6 49.5 83 36.7 81 24 79.3 15.5 64.6 18 48.4s14.7-27.8 27.5-25.8 21.2 16.7 18.7 33z"/>
  <path fill="#FCD72A" d="M63.6 55C61 71 49 82.3 36.3 80.3 23.8 78.3 15.6 63.8 18 48c2.7-16 15-27 27.5-25C58 24.6 66 39 63.5 55z"/>
  <path fill="#FCD82A" d="M63 55c-2.7 15.5-14.7 26.4-27 24.3-12.3-2-20.2-16.3-17.7-32C21 32 33 21 45.3 23S65.5 39.3 63 55z"/>
  <path fill="#FCD92A" d="M62.2 54.6c-2.6 15.3-14.5 26-26.6 24-12-2.3-19.7-16.3-17-31.6S33 21 45 23.2c12.2 2 20 16.2 17.2 31.4z"/>
  <path fill="#FCDA29" d="M61.6 54.4C59 69.4 47 79.7 35.3 77.6c-12-2.2-19.3-16-16.6-31 2.7-15 14.5-25.4 26.3-23.2 11.8 2.2 19.2 16 16.6 31z"/>
  <path fill="#FCDB29" d="M61 54.2C58 68.8 46.4 79 35 76.7c-11.8-2.2-19-16-16-30.7 2.7-14.5 14.3-24.6 26-22.4 11.5 2.3 18.6 16 16 30.6z"/>
  <path fill="#FCDC28" d="M60.2 54C57.4 68.2 46 78 34.6 75.7 23.2 73.5 16.3 60 19 45.7c3-14.3 14.4-24 25.8-22C56 26.3 63 39.7 60.2 54z"/>
  <path fill="#FCDD28" d="M59.6 53.7c-3 14-14.3 23.5-25.4 21.2-11-3-17.8-16-15-30 3-14 14.3-24 25.4-21s17.8 15 15 29z"/>
  <path fill="#FCDE28" d="M59 53.4C56 67 44.7 76.4 34 74c-11-2.4-17.4-15.4-14.5-29 3-13.8 14-23 25-20.7 11 2.4 17.3 15.4 14.4 29z"/>
  <path fill="#FCDF27" d="M58.2 53.2c-3 13.4-14 22.3-24.7 20-10.5-2.6-16.8-15.4-13.8-29 3-13.3 14-22.2 24.7-20C55 27 61.2 40 58.2 53.2z"/>
  <path fill="#FCE027" d="M57.5 53c-3 13-14 21.7-24.3 19.2C22.8 69.7 16.8 57.2 20 44c3-13 14-21.7 24.3-19.2 10.4 2.4 16.3 15 13.2 28.2z"/>
  <path fill="#FCE126" d="M57 52.7c-3.2 12.8-14 21-24.2 18.6-10-2.5-15.8-15-12.7-27.7 4-12.8 14-21 24-18.6 11 2.5 16 15 13 27.7z"/>
  <path fill="#FCE226" d="M56.2 52.5C53 65 42.4 73 32.5 70.5c-10-2.8-15.5-15-12.2-27.5C23.5 30.7 34 22.7 44 25.2 54 27.8 59.4 40 56.2 52.5z"/>
  <path fill="#FCE326" d="M55.5 52.2c-3.2 12.2-13.7 20-23.4 17.3C23 67 18 55 21 42.8s13.4-20 23-17.3C53.6 28 58.8 40 55.5 52.2z"/>
  <path fill="#FCE425" d="M55 52c-3.5 11.8-14 19.3-23.3 16.6-9.5-2.6-14.4-14.4-11-26.3C24 30.5 34.2 23 43.7 25.7 53 28.4 58 40 54.7 52z"/>
  <path fill="#FCE525" d="M54.2 51.7c-3.4 11.6-13.6 18.7-22.8 16C22.2 65 17.4 53.5 21 42c3-11.7 13.3-19 22.5-16 9.3 2.6 14 14.2 10.6 25.7z"/>
  <path fill="#FCE624" d="M53.5 51.5C50 62.7 40 69.5 31 66.8c-9-2.7-13.4-14-10-25.3s13.6-18 22.5-15.4c9 3 13.5 15 10 26z"/>
  <path fill="#FCE724" d="M53 51.3c-3.6 11-13.5 17.5-22.3 14.6-8.7-3-13-14-9.4-25 3.5-11 13.4-18 22-15 8.8 3 13 14 9.6 25z"/>
  <path fill="#FCE823" d="M52.2 51C48.6 61.6 39 68 30.4 65c-8.5-2.8-12.5-13.7-9-24.4 3.6-10.6 13.4-17 22-14S55.7 40.4 52 51z"/>
  <path fill="#FCE923" d="M51.5 50.8C48 61 38.3 67 30 64.2c-8.2-3-12-13.7-8.3-24C25.3 30 35 24 43.2 26.8c8.2 3 12 13.7 8.3 24z"/>
  <path fill="#FCEA23" d="M51 50.5c-3.8 10-13.3 15.7-21.3 12.8-8-3-11.5-13.5-7.8-23.5C25 29.8 35 24 43 27s11.5 13.5 8 23.5z"/>
  <path fill="#FCEB22" d="M50.2 50.3c-3.8 9.7-13 15-21 12-7.6-3-11-13.2-7-23 3.6-9.6 13-15 20.7-12 7 3 11 13.3 7 23z"/>
  <path fill="#FCEC22" d="M49.5 50c-3.8 9.4-13 14.5-20.5 11.5S18.4 48.3 22.2 39c4-9.4 13-14.6 20.6-11.5S53.3 40.7 49.5 50z"/>
  <path fill="#FCED21" d="M49 49.8c-4 9-13 14-20.4 10.8-7.3-3-10-13-6.2-22 4-9 13-14 20.3-11C50 31 52.7 40.6 49 50z"/>
  <ellipse cx="36.4" cy="42.3" fill="#FCEE21" transform="rotate(24.19 32.413 40.84)" rx="14" ry="17.4"/>
  <ellipse cx="36.4" cy="42.3" fill="#FCEE22" transform="rotate(24.143 32.402 40.828)" rx="14" ry="17.4"/>
  <ellipse cx="36.4" cy="42.3" fill="#FCEE23" transform="rotate(24.09 32.388 40.82)" rx="13.9" ry="17.3"/>
  <ellipse cx="36.3" cy="42.3" fill="#FCEE24" transform="rotate(24.035 32.38 40.82)" rx="13.9" ry="17.3"/>
  <ellipse cx="36.3" cy="42.3" fill="#FCEE25" transform="rotate(23.984 32.367 40.81)" rx="13.9" ry="17.2"/>
  <ellipse cx="36.3" cy="42.3" fill="#FCEE26" transform="rotate(23.93 32.36 40.81)" rx="13.9" ry="17.2"/>
  <ellipse cx="36.3" cy="42.3" fill="#FCEE27" transform="rotate(23.88 32.345 40.797)" rx="13.8" ry="17.2"/>
  <ellipse cx="36.3" cy="42.3" fill="#FCEF28" transform="rotate(23.823 32.337 40.798)" rx="13.8" ry="17.1"/>
  <ellipse cx="36.3" cy="42.3" fill="#FCEF29" transform="rotate(23.766 32.327 40.796)" rx="13.8" ry="17.1"/>
  <ellipse cx="36.3" cy="42.3" fill="#FCEF2A" transform="rotate(23.715 32.312 40.783)" rx="13.7" ry="17.1"/>
  <path fill="#FCEF2B" d="M48 49.3c-4 8.6-12.6 13-19.5 10-7-3-9.5-12.4-5.8-21 3.8-8.6 12.5-13 19.4-10 7 3 10 12.4 6 21z"/>
  <path fill="#FCEF2C" d="M47.8 49.3c-3.7 8.5-12.4 13-19.3 10-7-3-9.5-12.4-5.7-21 3.7-8.6 12.4-13 19.3-10 7 3 10 12.4 6 21z"/>
  <path fill="#FCEF2D" d="M47.8 49.2c-3.7 8.6-12.4 13-19.3 10-7-3-9.5-12.3-5.7-21 3.7-8.5 12.3-13 19.2-10 7 3 9.5 12.4 5.8 21z"/>
  <path fill="#FCEF2E" d="M47.8 49.2c-3.8 8.6-12.4 13-19.3 10-7-3-9.4-12.3-5.7-21 3.7-8.4 12.3-13 19.2-10 7 3 9.5 12.4 5.8 21z"/>
  <path fill="#FCEF2F" d="M47.7 49.2c-3.7 8.5-12.3 13-19 10-7-3-9.6-12.3-6-20.8 3.8-8.6 12.4-13 19.3-10 6.8 3 9.4 12.2 5.7 20.8z"/>
  <path fill="#FCEF30" d="M47.7 49c-3.7 8.7-12.3 13.2-19 10.2-7-3-9.6-12.3-6-20.8 3.8-8.6 12.4-13 19.2-10s9 12.2 5 20.6z"/>
  <path fill="#FCEF31" d="M47.7 49c-3.7 8.6-12.3 13-19 10.2-7-3-9.6-12.3-6-20.8 3.8-8.5 12.3-13 19.2-10s9 12.2 5 20.6z"/>
  <path fill="#FCEF32" d="M47.6 49c-3.6 8.6-12 13-19 10-6.8-2.8-9.4-12-5.8-20.6 3.7-8.5 12.2-13 19-10s9.5 12.2 5.8 20.7z"/>
  <path fill="#FCEF33" d="M47.6 49c-3.6 8.5-12 13-19 10-6.8-2.8-9.4-12-5.8-20.6s12.2-13 19-10 9.4 12.2 5.8 20.6z"/>
  <path fill="#FCEF34" d="M47.6 49c-3.7 8.5-12 13-19 10-6.8-2.8-9.4-12-5.8-20.6 3.7-8.4 12-13 19-10 6.8 3 9.4 12 5.8 20.6z"/>
  <path fill="#FCF035" d="M47.5 49c-3.6 8.4-12 13-18.8 10-6.8-3-9.4-12-5.8-20.5 3-8.5 12-13 18-10 7 2.8 9 12 6 20.5z"/>
  <path fill="#FCF036" d="M47.5 49c-3.6 8.4-12 13-18.8 10-6.8-3-9.4-12-5.8-20.5 3-8.5 12-13 18-10s9 12 6 20.5z"/>
  <path fill="#FCF037" d="M47.5 49c-3.6 8.4-12 13-18.8 10-6.8-3-9.4-12-5.8-20.5 3-8.4 11-13 18-10s9 12 6 20.4z"/>
  <path fill="#FCF038" d="M47.4 49c-3.5 8.3-12 12.8-18.7 10-6.8-3-9.4-12-5.8-20.5 3-8.4 11-13 18-10 7 2.8 9 12 6 20.4z"/>
  <path fill="#FCF039" d="M47.4 49c-3.5 8.3-12 12.8-18.7 10-6.7-3-9.3-12-5.8-20.5 3-8.4 11-13 18-10 6 2.8 9 12 6 20.4z"/>
  <path fill="#FCF03A" d="M47.4 48.8c-3.6 8.4-12 13-18.6 10-6.8-2.8-9.4-12-6-20.2 3.6-8.4 12-13 18.7-10 6.8 2.8 9.4 12 6 20.2z"/>
  <path fill="#FCF03B" d="M47.3 48.8c-3.5 8.4-11.8 13-18.5 10-6.8-2.8-9.4-12-6-20.2 3.6-8.4 12-13 18.7-10 6.7 2.8 9.3 11.8 5.8 20.2z"/>
  <path fill="#FCF03C" d="M47.3 48.8c-3.5 8.3-11.8 12.8-18.5 10-6.7-2.8-9.4-11.8-6-20.2 3.6-8.4 12-13 18.6-10 6.8 2.8 9.4 11.8 6 20.2z"/>
  <path fill="#FCF03D" d="M47.3 48.8c-3.5 8.3-11.8 12.8-18.5 10-6.7-2.8-9.3-11.8-6-20.2 3.6-8.3 12-12.8 18.6-10 6.7 2.8 9.3 11.8 6 20.2z"/>
  <path fill="#FCF03E" d="M47.2 48.7c-3.4 8.4-11.7 12.8-18.4 10C22 56 19.5 47 23 38.7c3.4-8.3 11.6-13 18.4-10 6.7 2.8 9.3 11.8 5.8 20z"/>
  <path fill="#FCF03F" d="M47.2 48.7C43.8 57 35.5 61.5 29 58.7c-7-2.7-9.6-11.7-6-20s11.6-13 18.3-10c6.7 2.7 9.3 11.7 6 20z"/>
  <path fill="#FCF040" d="M47.2 48.7C43.7 57 35.6 61.5 29 58.7c-7-2.7-9.5-11.7-6-20 3.4-8.3 11.6-12.8 18.3-10 6.6 2.7 9.3 11.7 6 20z"/>
  <path fill="#FCF041" d="M47 48.6c-3.3 8.3-11.4 12.8-18 10-6.8-2.7-9.4-11.6-6-20 3.4-8.2 11.6-12.7 18.2-10 6.7 2.8 9.3 11.8 6 20z"/>
  <path fill="#FCF142" d="M47 48.6c-3.3 8.3-11.4 12.8-18 10-6.7-2.7-9.4-11.6-6-20 3.4-8.2 11.5-12.7 18.2-10s9.3 11.7 6 20z"/>
  <path fill="#FCF143" d="M47 48.6c-3.3 8.2-11.4 12.7-18 10-6.7-2.7-9.4-11.6-6-20s11.5-12.6 18-10 9.4 11.7 6 20z"/>
  <path fill="#FCF144" d="M47 48.5c-3.3 8.3-11.4 12.8-18 10-6.7-2.6-9.3-11.5-6-19.8 3.4-8.2 11.5-12.7 18-10 6.7 2.7 9.4 11.6 6 19.8z"/>
  <path fill="#FCF145" d="M47 48.5c-3.3 8.2-11.4 12.7-18 10-6.7-2.7-9.3-11.5-6-19.7 3.4-8.3 11.4-12.7 18-10s9.3 11.5 6 19.7z"/>
  <path fill="#FDF146" d="M47 48.5c-3.4 8.2-11.4 12.7-18 10-6.6-2.7-9.3-11.5-6-19.7 3.4-8.2 11.4-12.7 18-10 6.6 2.7 9.3 11.5 6 19.7z"/>
  <path fill="#FDF147" d="M47 48.5c-3.4 8.2-11.4 12.6-18 10-6.6-2.7-9.3-11.5-6-19.7 3.4-8.2 11.4-12.7 18-10 6.6 2.7 9.2 11.5 6 19.7z"/>
  <path fill="#FDF148" d="M47 48.4c-3.4 8.2-11.4 12.7-18 10-6.6-2.6-9.2-11.4-6-19.6 3.4-8.2 11.4-12.6 18-10s9.2 11.5 6 19.6z"/>
  <path fill="#FDF149" d="M47 48.4c-3.4 8.2-11.4 12.6-18 10-6.5-2.6-9.2-11.4-6-19.6 3.3-8 11.3-12.6 18-10 6.5 2.7 9 11.4 6 19.6z"/>
  <path fill="#FDF14A" d="M46.8 48.4c-3.2 8-11.2 12.6-17.7 10-6-2.7-9-11.4-6-19.4s12-13 18-10c7 2.5 9 11.2 6 19.4z"/>
  <path fill="#FDF14B" d="M46.8 48.3C43.6 56.5 35.6 61 29 58.3 22.6 55.7 20 47 23 39c3.3-8.3 11.3-12.7 17.8-10 6.6 2.5 9.2 11.2 6 19.3z"/>
  <path fill="#FDF14C" d="M46.8 48.3c-3.3 8-11.2 12.6-17.7 10-6-2.6-9-11.3-6-19.3 4-8.4 12-13 18-10 7 2.3 9 11 6 19z"/>
  <path fill="#FDF14D" d="M46.7 48.3c-3.2 8-11 12.6-17.6 10-6-2.6-9-11.3-6-19.3 4-8.4 12-13 18-10 7 2.4 10 11 6 19.2z"/>
  <path fill="#FDF14E" d="M46.7 48.3c-3.2 8-11 12.5-17.6 10-6-2.6-9-11.3-6-19.3 4-8.4 12-12.8 18-10 7 2.3 9 11 6 19z"/>
  <path fill="#FDF24F" d="M46.7 48.2c-3.2 8-11 12.6-17.5 10-6.5-2.6-9.2-11.2-6-19.3 3-8 11-13 17.5-10 6.5 2 9 11 6 19z"/>
  <path fill="#FDF250" d="M46.6 48.2c-3 8-11 12.5-17.4 10-6.5-2.6-9.2-11.2-6-19.2 3-8 11-12.6 17.4-10 6.5 2.5 9.2 11 6 19.2z"/>
  <path fill="#FDF251" d="M46.6 48.2c-3 8-11 12.5-17.4 10-6.5-2.6-9.2-11.2-6-19.2 3-8 11-12.5 17.4-10 6.4 2.5 9 11 6 19.2z"/>
  <path fill="#FDF252" d="M46.6 48c-3.2 8.2-11 12.6-17.4 10-6.5-2.4-9.2-11-6-19 3-8 11-12.5 17.3-10 6.5 2.6 9.2 11 6 19z"/>
  <path fill="#FDF253" d="M46.5 48c-3 8-10.8 12.6-17.3 10-6.4-2.4-9-11-6-19S34 26.5 40.5 29c6.4 2.6 9.2 11 6 19z"/>
  <path fill="#FDF254" d="M46.5 48c-3 8-10.8 12.5-17.3 10-6.4-2.5-9-11-6-19S34 26.6 40.5 29s9 11 6 19z"/>
  <path fill="#FDF255" d="M46.5 48c-3 8-10.8 12.5-17.2 10-6.5-2.5-9.2-11-6-19 3-8 10.7-12.4 17-10s9.3 11 6.2 19z"/>
  <path fill="#FDF256" d="M46.4 48c-3 8-10.7 12.5-17 10-6.5-2.5-9.2-11-6.2-19 3-8 10.8-12.4 17.2-10 6.4 2.6 9 11 6 19z"/>
  <path fill="#FDF257" d="M46.4 48c-3 8-10.7 12.4-17 10-6.5-2.5-9.2-11-6.2-19 3-8 10.7-12.3 17-10 6.5 2.6 9.3 11 6.2 19z"/>
  <path fill="#FDF258" d="M46.4 48c-3 8-10.7 12.4-17 10-6.5-2.5-9.2-11-6.2-19 3-7.8 10.7-12.3 17-9.8S49.5 40 46.5 48z"/>
  <path fill="#FDF259" d="M46.3 48c-3 8-10.6 12.3-17 10-6.3-2.5-9-11-6-19 3-7.8 10.6-12.3 17-9.8 6.3 2.4 9 10.8 6 18.7z"/>
  <path fill="#FDF25A" d="M46.3 48c-3 7.8-10.6 12.3-17 10-6.3-2.6-9-11-6-19s10.5-12.2 17-9.8 9 10.8 6 18.7z"/>
  <path fill="#FDF25B" d="M46.3 48c-3 7.8-10.6 12.2-17 9.8-6.3-2.4-9-10.7-6-18.6 3-8 10.5-12.4 17-10 6.2 2.4 9 10.8 6 18.7z"/>
  <path fill="#FDF35C" d="M46.2 47.8c-3 8-10.5 12.4-16.8 10-6.3-2.4-9-10.7-6-18.6 2.8-8 10.4-12.4 16.7-10 7 2.4 10 10.8 7 18.6z"/>
  <path fill="#FDF35D" d="M46.2 47.8c-3 8-10.5 12.3-16.8 10-6.3-2.4-9-10.7-6-18.6 2.8-8 10.4-12.3 16.7-10 7 2.4 10 10.8 7 18.6z"/>
  <path fill="#FDF35E" d="M46.2 47.8c-3 7.8-10.4 12.3-16.8 10-6.3-2.4-9-10.7-6-18.6S33.6 27 40 29.2c6.4 2.5 9 10.7 6.2 18.6z"/>
  <path fill="#FDF35F" d="M46 47.8c-2.7 7.8-10 12.2-16.4 10-6.6-2.6-9-10.8-6.3-18.8 3-7.8 10.4-12.2 16.7-10 6.3 2.5 9 10.7 6 18.6z"/>
  <path fill="#FDF360" d="M46 47.7c-2.8 8-10.2 12.3-16.5 10-6.3-2.4-9-10.6-6.2-18.4 3-8 10.4-12.3 16.7-10 6.3 2.4 9 10.6 6 18.4z"/>
  <path fill="#FDF361" d="M46 47.7c-2.7 7.8-10 12.3-16.4 10-6.3-2.4-9-10.6-6.2-18.4 3-7.8 10.3-12.3 16.6-10 6.2 2.4 9 10.6 6 18.4z"/>
  <path fill="#FDF362" d="M46 47.7c-2.8 7.8-10.2 12.2-16.5 10-6.3-2.4-9-10.6-6.2-18.4 3-7.8 10.3-12.2 16.6-10 6 2.4 9 10.6 6 18.4z"/>
  <path fill="#FDF363" d="M46 47.6c-2.8 7.8-10.2 12.3-16.5 10-6.2-2.3-9-10.5-6-18.3 2.7-7.8 10-12.2 16.3-10 6.3 2.4 9 10.6 6.2 18.3z"/>
  <path fill="#FDF364" d="M46 47.6c-2.8 7.8-10.2 12.2-16.4 10-6.3-2.4-9-10.5-6.2-18.3 2.8-7.7 10.2-12.2 16.4-10s9 10.5 6.2 18.3z"/>
  <path fill="#FDF365" d="M46 47.6c-3 7.7-10.2 12.2-16.4 10-6.3-2.4-9-10.5-6.2-18.3 2.8-7.7 10-12 16.4-10 6.2 2.4 9 10.5 6.2 18.3z"/>
  <path fill="#FDF366" d="M46 47.6c-3 7.7-10.2 12-16.4 10-6.2-2.4-9-10.5-6.2-18.2 2.8-7.8 10-12.2 16.3-10s9 10.4 6.2 18.2z"/>
  <path fill="#FDF367" d="M46 47.5c-3 7.7-10.2 12.2-16.4 10-6.2-2.3-9-10.4-6.2-18 2.8-7.8 10-12.3 16.3-10 6.2 2.2 9 10.3 6.2 18z"/>
  <path fill="#FDF368" d="M46 47.5c-3 7.7-10.2 12-16.4 10-6.2-2.3-9-10.4-6.2-18 2.8-7.8 10-12.2 16.2-10 6.2 2.2 9 10.3 6.3 18z"/>
  <path fill="#FDF469" d="M45.8 47.5c-2.7 7.7-10 12-16.2 10-6-2.4-9-10.4-6.2-18 2.8-7.8 10-12.2 16.2-10s9 10.3 6.2 18z"/>
  <path fill="#FDF46A" d="M45.8 47.4c-2.7 7.7-10 12-16 10-6.3-2.3-9-10.3-6.4-18 2.8-7.6 10-12 16.2-10s9 10.4 6.2 18z"/>
  <path fill="#FDF46B" d="M45.8 47.4c-2.8 7.7-10 12-16 10-6.3-2.3-9-10.3-6.4-18s10-12 16-9.8c6.3 2.2 9 10 6.4 17.8z"/>
  <path fill="#FDF46C" d="M45.7 47.4c-2.7 7.6-9.8 12-16 10-6-2.3-9-10.3-6.3-18 2.7-7.6 10-12 16-9.8 6.2 2.2 9 10 6.3 17.8z"/>
  <path fill="#FDF46D" d="M45.7 47.4c-2.7 7.6-9.8 12-16 9.8-6-2-9-10-6.2-17.7 2.6-7.6 9.8-12 16-10 6 2.3 9 10.2 6.2 18z"/>
  <path fill="#FDF46E" d="M45.7 47.3c-2.7 7.6-9.8 12-16 10-6-2.3-9-10.2-6.2-17.8 2.6-7.6 9.8-12 16-10 6 2.3 8.8 10.2 6.2 17.8z"/>
  <path fill="#FDF46F" d="M45.6 47.3c-2.6 7.6-9.7 12-15.8 10-6.2-2.3-9-10.2-6.3-17.8 2.6-7.6 9.7-12 15.8-9.8 6.2 2 9 10 6.3 17.6z"/>
  <path fill="#FDF470" d="M45.6 47.3C43 54.8 36 59.3 29.8 57c-6-2-9-10-6.3-17.5 2.6-7.5 9.7-12 15.8-9.8 6 2 9 10 6.3 17.6z"/>
  <path fill="#FDF471" d="M45.6 47.2c-2.7 7.6-9.7 12-15.8 10-6-2.2-9-10-6.3-17.6 2.6-7.6 9.7-12 15.8-10 6 2.2 9 10 6.3 17.6z"/>
  <path fill="#FDF472" d="M45.5 47.2c-2.6 7.6-9.6 12-15.7 10s-9-10-6.3-17.6c2.6-7.6 9.6-12 15.7-10 6 2.2 9 10 6.3 17.6z"/>
  <path fill="#FDF473" d="M45.5 47.2C43 54.7 36 59.2 29.8 57c-6-2-9-10-6.3-17.4 2.6-7.5 9.6-12 15.7-10 6 2.2 9 10 6.3 17.6z"/>
  <path fill="#FDF474" d="M45.5 47C43 54.8 36 59 30 57c-6.2-2-9-9.8-6.5-17.4C26 32 33 27.6 39 29.8c6.2 2 9 9.8 6.5 17.3z"/>
  <path fill="#FDF475" d="M45.4 47C43 54.7 36 59 30 57c-6.2-2-9-9.8-6.5-17.4s9.6-12 15.6-9.8c6 2 9 9.8 7 17.3z"/>
  <path fill="#FDF576" d="M45.4 47C43 54.7 36 59 30 57s-9-9.8-6.4-17.3c2.5-7.5 9.4-12 15.5-10s9 10 7 17.4z"/>
  <path fill="#FDF577" d="M45.4 47C42.8 54.6 36 59 30 57s-9-9.8-6.4-17.3c2.5-7.5 9.4-12 15.4-10 6 2.2 9 10 6.4 17.4z"/>
  <path fill="#FDF578" d="M45.3 47C42.8 54.5 36 59 30 57s-9-9.8-6.4-17.3c2.5-7.5 9.4-12 15.4-10 6 2.2 8.8 10 6.3 17.3z"/>
  <path fill="#FDF579" d="M45.3 47C42.8 54.5 36 59 30 56.8c-6-2-9-9.6-6.4-17 2.5-7.5 9.3-12 15.3-10s8 9.7 6 17.2z"/>
  <path fill="#FDF57A" d="M45.3 47C42.8 54.4 36 58.8 30 56.8s-9-9.6-6.4-17c2.5-7.5 9.3-12 15.3-10s8 9.7 6 17.2z"/>
  <path fill="#FDF57B" d="M45.2 47C42.8 54.3 36 58.7 30 56.7s-8.8-9.6-6.4-17c2.5-7.5 9.3-12 15.3-10s8 9.7 6 17z"/>
  <path fill="#FDF57C" d="M45.2 47C42.8 54.2 36 58.6 30 56.7c-6-2-8.8-9.6-6.4-17C26 32.4 33 28 38.8 29.7s8.8 9.8 6.4 17z"/>
  <path fill="#FDF57D" d="M45.2 47C42.7 54.2 36 58.6 30 56.6s-8.8-9.5-6.4-17c2.4-7 9.2-11.6 15.2-9.6s8.8 9.5 6.4 17z"/>
  <path fill="#FDF57E" d="M45 47c-2.3 7.2-9 11.6-15 9.7-6-2-8.8-9.5-6.4-17 2.4-7.3 9.2-11.7 15-9.7 6 2 9 9.5 6.5 17z"/>
  <path fill="#FDF57F" d="M45 46.8c-2.3 7.4-9 11.8-15 10-6-2-8.7-9.6-6.3-17s9-11.7 15-9.8c6 2 8.8 9.5 6.4 16.8z"/>
  <path fill="#FDF580" d="M45 46.8c-2.3 7.3-9 11.7-15 9.8-5.8-2-8.7-9.4-6.3-16.8 2.3-7.3 9-11.7 15-9.8 6 2 8.7 9.4 6.4 16.8z"/>
  <path fill="#FDF581" d="M45 46.8c-2.3 7.3-9 11.7-15 9.8-5.8-2-8.7-9.4-6.3-16.7 2.3-8 9-12 15-10 5.8 2 8.7 9 6.3 16z"/>
  <path fill="#FDF582" d="M45 46.7c-2.3 7.4-9 11.8-15 10-5.8-2-8.6-9.5-6.3-16.8s9-12 15-10c5.8 2 8.6 9 6.3 16z"/>
  <path fill="#FDF683" d="M45 46.7c-2.4 7.3-9 11.7-15 9.8-5.7-2-8.6-9.3-6.3-16.6 2.3-8 9-12 14.8-10 6 2 8.8 9 6.5 16z"/>
  <path fill="#FDF684" d="M45 46.7c-2.5 7.3-9 11.7-15 9.8-6-2-8.8-9.3-6.5-16.6 2.3-8 9-12 14.8-10 5.7 2 8.7 9 6.4 16z"/>
  <path fill="#FDF685" d="M45 46.6c-2.4 7.3-9 11.7-14.8 10-6-2-8.8-9.4-6.5-16.7 2.3-8 9-12 14.7-10 6 2 8.8 9 6.5 16z"/>
  <path fill="#FDF686" d="M45 46.6c-2.5 7.4-9 11.7-15 9.8-5.8-1.8-8.7-9.2-6.5-16.4s9-11.7 14.7-10c5.8 2 8.7 9.4 6.5 16.6z"/>
  <path fill="#FDF687" d="M44.8 46.6c-2.2 7.2-8.8 11.6-14.6 9.8-5.8-1.8-8.7-9.2-6.5-16.4 2.3-7.3 8.8-11.7 14.7-9.8 5.8 1.8 8.7 9 6.4 16.4z"/>
  <path fill="#FDF688" d="M44.8 46.6c-2.2 7.2-8.8 11.6-14.6 9.8-5.8-1.8-8.7-9.2-6.4-16.4 2.2-7.2 8.7-11.6 14.5-9.8 5.8 1.8 8.7 9 6.5 16.4z"/>
  <path fill="#FDF689" d="M44.8 46.5C42.6 53.7 36 58 30.2 56.3c-5.8-1.8-8.7-9-6.4-16.3 2.2-7.2 8.7-11.6 14.5-9.8 5.8 1.8 8.7 9 6.5 16.3z"/>
  <path fill="#FDF68A" d="M44.7 46.5C42.5 53.7 36 58 30.3 56.3c-5.8-1.8-8.7-9-6.5-16.3 2.2-7.2 8.7-11.6 14.4-9.8 5.8 1.8 8.7 9 6.5 16.3z"/>
  <path fill="#FDF68B" d="M44.7 46.5C42.5 53.7 36 58 30.3 56.3c-5.8-1.8-8.7-9-6.5-16.3 2.2-7 8.6-11.5 14.4-9.7s8.7 9 6.5 16.2z"/>
  <path fill="#FDF68C" d="M44.7 46.4C42.5 53.6 36 58 30.3 56.2c-5.8-1.7-8.7-9-6.5-16 2.2-7.3 8.6-11.7 14.4-10s8.6 9 6.5 16.2z"/>
  <path fill="#FDF68D" d="M44.6 46.4c-2 7.2-8.5 11.6-14.3 9.8-5.7-1.7-8.6-9-6.5-16C26 32.8 32.4 28.4 38 30s8.8 9 6.6 16.2z"/>
  <path fill="#FDF68E" d="M44.6 46.4c-2 7-8.5 11.5-14.3 9.8-5.7-1.8-8.6-9-6.5-16C26 33 32.3 28.5 38 30c5.8 2 8.7 9 6.6 16.2z"/>
  <path fill="#FDF68F" d="M44.6 46.4c-2 7-8.5 11.5-14.2 9.7-5.8-1-8.7-8-6.6-16s8.5-11 14.2-9c5.8 2 8.7 9 6.6 16z"/>
  <path fill="#FEF790" d="M44.5 46.3c-2 7-8.4 11.5-14 9.8-5.8-1-8.8-8-6.7-16 2-7 8.5-11 14.2-9 5.7 2 8.6 9 6.5 16z"/>
  <path fill="#FEF791" d="M44.5 46.3c-2 7-8.4 11.5-14 9.8-5.8-1-8.7-8-6.7-15 2-7 8.5-11 14.2-10 5.7 2 8.6 9 6.5 16z"/>
  <path fill="#FEF792" d="M44.5 46.3c-2 7-8.4 11.4-14 9.7-5.8-1.6-8.7-8.7-6.6-15.8 2-7 8-11.5 14-9.8 5 1.7 8 8.8 6 16z"/>
  <path fill="#FEF793" d="M44.4 46.2c-2 7-8.3 11.5-14 9.8-5.6-1.7-8.6-8.7-6.5-15.8 2-7 8-11.4 14-9.8 5 1.7 8 8.8 6 15.8z"/>
  <path fill="#FEF794" d="M44.4 46.2c-2 7-8.3 11.4-14 9.8C25 54.3 22 47.3 24 40.2c2-7 8.2-11.4 13.8-9.8 5.7 1.7 8.6 8.8 6.6 15.8z"/>
  <path fill="#FEF795" d="M44.4 46.2c-2 7-8.3 11.4-14 9.7C25 54 22 47 24 40s8-11.4 13.8-9.7C43.4 32 46.4 39 44.4 46z"/>
  <path fill="#FEF796" d="M44.3 46.2c-2 7-8.2 11.3-13.8 9.7-5.7-2-8.5-9-6.5-16s8-12 13.7-10c5.7 2 8.6 9 6.6 16z"/>
  <path fill="#FEF797" d="M44.3 46c-2 7-8.2 11.5-13.8 10C25 54.2 22 47.2 24 40.2s8-11.4 13.7-9.8C43.3 32 46.3 39 44.3 46z"/>
  <path fill="#FEF798" d="M44.3 46c-2 7-8 11.5-13.8 9.8C25 54.2 22 47.3 24 40.3s8-11.4 13.7-9.8C43.3 32 46.2 39 44.3 46z"/>
  <path fill="#FEF799" d="M44.2 46c-2 7-8 11.4-13.6 9.8C25 54.2 22 47.3 24 40.3s8-11.3 13.6-9.7C43.2 32 46.2 39 44.2 46z"/>
  <path fill="#FEF79A" d="M44.2 46c-2 7-8 11.4-13.6 9.8C25 54.2 22 47.3 24 40.3s8-11.3 13.6-9.7C43.2 32.2 46 39 44.2 46z"/>
  <path fill="#FEF79B" d="M44.2 46c-2 7-8 11.3-13.6 9.8C25 54 22 47.3 24 40.3s8-11.3 13.5-9.7C43 32.2 46 39 44.2 46z"/>
  <path fill="#FEF79C" d="M44 46c-1.8 7-7.8 11.3-13.4 9.7C25 54.2 22 47.3 24 40.4s8-11.3 13.5-9.8C43 32.2 46 39 44 46z"/>
  <path fill="#FEF79D" d="M44 46c-1.8 7-7.8 11.2-13.4 9.7C25 54 22 47.3 24 40.4s8-11.3 13.5-9.8C43 32.2 46 39 44 46z"/>
  <path fill="#FEF89E" d="M44 46c-1.8 6.8-7.8 11.2-13.4 9.7C25 54 22 47.3 24 40.4c2-7 8-11.3 13.4-9.7C43 32.2 46 39 44 46z"/>
  <path fill="#FEF89F" d="M44 46c-1.8 6.8-7.8 11-13.3 9.6C25 54 22 47.3 24 40.4c2-7 7.8-11.2 13.4-9.7C43 32.2 46 39 44 46z"/>
  <path fill="#FEF8A0" d="M44 46c-1.8 6.7-7.8 11-13.3 9.6-5.5-1.5-8.5-8.3-6.7-15.2s7.8-11.2 13.3-9.7C43 32.2 46 39 44 46z"/>
  <path fill="#FEF8A1" d="M44 45.8c-1.8 7-7.8 11.2-13.3 9.8-5.5-1.5-8.5-8.3-6.7-15 1.8-7 7.8-11.4 13.3-10C42.8 32.3 45.8 39 44 46z"/>
  <path fill="#FEF8A2" d="M44 45.8c-2 6.8-8 11.2-13.4 9.7C25 54 22 47.3 24 40.5c1.7-7 7.7-11.2 13.2-9.8 5.5 1.5 8.5 8.3 6.6 15z"/>
  <path fill="#FEF8A3" d="M44 45.8c-2 6.8-8 11.2-13.4 9.7s-8.4-8.2-6.7-15c1-6.8 7-11.2 13-9.7 5 1.4 8 8 6 15z"/>
  <path fill="#FEF8A4" d="M44 45.7c-2 7-7.8 11.2-13.2 9.8-5.5-1.5-8.5-8.2-6.7-15 2-6.8 8-11.2 14-9.7 6 1.4 9 8 7 15z"/>
  <path fill="#FEF8A5" d="M44 45.7c-2 6.8-8 11.3-13.3 9.7-5.5-1.4-8.5-8-6.7-15 1.8-6.7 7.7-11 13-9.6 5.6 1.4 8.6 8 7 15z"/>
  <path fill="#FEF8A6" d="M43.8 45.7c-1.7 6.8-7.6 11-13 9.7-5.5-1.4-8.5-8-6.7-15 2-6.6 8-11 13-9.6 6 1.5 9 8 7 15z"/>
  <path fill="#FEF8A7" d="M43.8 45.7c-1.7 6.7-7.5 11-13 9.7-5.4-1.4-8.4-8-6.7-14.8s8-11 13-9.7c6 1 9 8 7 14z"/>
  <path fill="#FEF8A8" d="M43.8 45.6c-1.8 6.8-7.5 11-13 9.7-5.4-1.4-8.4-8-6.7-14.7 2-6.8 8-11 13-9.7 6 1 9 8 7 14z"/>
  <path fill="#FEF8A9" d="M43.7 45.6c-1.7 6.7-7.4 11-12.8 9.7-6-1.4-9-8-7-14.7 1-6.7 7-11 13-9.7 5 1 8 8 6 14z"/>
  <path fill="#FEF8AA" d="M43.7 45.6c-1.7 6.7-7.4 11-12.8 9.7-6-1.4-9-8-7-14.7s7-11 13-9.7c5 1 8 7 6 14z"/>
  <path fill="#FEF9AB" d="M43.7 45.5c-1.7 6.7-7.4 11-12.8 9.7-6-1.3-9-8-7-14.6 1-6.7 7-11 13-9.7 5 1 8 7 6 14z"/>
  <path fill="#FEF9AC" d="M43.6 45.5c-1.6 6.7-7.3 11-12.7 9.7-6-1.3-9-8-7-14.5 2-6.7 7-11 13-9.7 5 1.3 8 7.8 6 14.5z"/>
  <path fill="#FEF9AD" d="M43.6 45.5c-1.6 6.7-7.3 11-12.7 9.7-6-1.4-9-7.8-7-14.5 1-6.7 7-11 12-9.7 5 1.3 8 7.8 6 14.5z"/>
  <path fill="#FEF9AE" d="M43.6 45.5C42 52 36.3 56.5 31 55c-5.4-1.2-8.4-7.6-6.8-14.3 1.6-6.7 7.2-11 12.6-9.7 5.3 1.3 8.4 7.8 6.8 14.5z"/>
  <path fill="#FEF9AF" d="M43.5 45.4C42 52 36.3 56.4 31 55c-5.4-1.2-8.4-7.6-6.8-14.3 1.6-6.6 7.2-11 12.5-9.7 5.4 1.3 8.4 7.8 6.8 14.4z"/>
  <path fill="#FEF9B0" d="M43.5 45.4C42 52 36.3 56.4 31 55c-5.3-1.2-8.4-7.6-6.8-14.3 1.6-6.6 7.2-11 12.5-9.7 5.3 1.3 8.4 7.8 6.8 14.4z"/>
  <path fill="#FEF9B1" d="M43.5 45.4C42 52 36.3 56.4 31 55c-5.3-1.2-8.4-7.6-6.8-14.3 1.6-6.6 7-11 12.4-9.6 5.4 2 8.4 8 7 15z"/>
  <path fill="#FEF9B2" d="M43.4 45.3C42 52 36.4 56.3 31 55c-5.3-1.3-8.3-7.6-6.8-14.2 1.5-6.6 7-11 12.4-9.7 5.4 2 8.4 8 6.8 15z"/>
  <path fill="#FEF9B3" d="M43.4 45.3C42 52 36.4 56.3 31 55s-8.3-7.6-6.8-14.2c1.5-6.6 7-11 12.4-9.7 5.4 2 8.4 8 6.8 15z"/>
  <path fill="#FEF9B4" d="M43.4 45.3c-1.6 6.5-7 11-12.3 9.6-5-2-8-8-6-15s7-11 13-10c5 1 8.6 7.2 7 14z"/>
  <path fill="#FEF9B5" d="M43.3 45.2c-1.5 6.6-7 11-12.2 9.7-5-2-8-8-6-15s7-11 13-10c5 1 8 7.2 7 14z"/>
  <path fill="#FEF9B6" d="M43.3 45.2c-1.5 6.6-7 11-12.2 9.7-5-2-8-8-6-15s7-11 12-10c6 1 9 7 7 14z"/>
  <path fill="#FEF9B7" d="M43.3 45.2c-1.5 6.5-7 10.8-12.2 9.6-5-1.2-8-7.4-6-14s7-10.8 12-9.6c6 1.2 9 7.5 7 14z"/>
  <path fill="#FEFAB8" d="M43.2 45.2c-1.4 6.5-6.8 10.8-12 9.6s-8.4-7.4-7-14c1.5-6.4 7-10.8 12.2-9.6 5.2 1.2 8.3 7.4 6.8 14z"/>
  <path fill="#FEFAB9" d="M43.2 45c-1.4 6.6-6.8 11-12 9.8-5.3-1.2-8.3-7.4-7-14 1.5-6.4 7-10.7 12-9.6 5.3 1.2 8.4 7.4 7 14z"/>
  <path fill="#FEFABA" d="M43.2 45c-1.4 6.6-6.8 11-12 9.7-5.2-1-8.3-7.3-7-13.8 1.5-7 7-11 12-10 5.3 1 8.4 7 7 14z"/>
  <path fill="#FEFABB" d="M43 45c-1.3 6.5-6.6 11-11.8 9.7-5.2-1-8.3-7.3-7-13.8s6.8-11 12-10 8.3 7 7 14z"/>
  <path fill="#FEFABC" d="M43 45c-1.3 6.5-6.6 10.8-11.8 9.7-5.2-1-8.3-7.3-7-13.8 1.5-7 6.8-11 12-10s8.3 7 7 13z"/>
  <path fill="#FEFABD" d="M43 45c-1.3 6.5-6.6 10.8-11.8 9.7-5-1.2-8.2-7.3-7-13.7 1.5-6.5 6.8-10.8 12-9.7 5 1 8.2 7.3 7 13.7z"/>
  <path fill="#FEFABE" d="M43 45c-1.3 6.4-6.6 10.7-11.7 9.6-5.2-1-8.3-7.2-7-13.6 1.4-6.4 6.7-10.8 11.8-9.7 6 1.2 9 7.3 7 13.7z"/>
  <path fill="#FEFABF" d="M43 45c-1.3 6.4-6.6 10.7-11.7 9.6-5.2-1-8.3-7.2-7-13.6 1.4-6.4 6.6-10.7 11.8-9.6 6 1 9 7 7 13.6z"/>
  <path fill="#FEFAC0" d="M43 45c-1.3 6.3-6.6 10.6-11.7 9.6-5.2-1-8.3-7.2-7-13.6 1.4-6.4 6.6-10.7 11.7-9.6 5.2 1 8.3 7 7 13.5z"/>
  <path fill="#FEFAC1" d="M43 45c-1.4 6.3-6.6 10.6-11.7 9.5-5-1-8.2-7-7-13.5 1.4-6.3 6.6-10.6 11.7-9.6 5 1 8.2 7 7 13.5z"/>
  <path fill="#FEFAC2" d="M43 45c-1.4 6.2-6.6 10.5-11.7 9.5-5-1-8.2-7-7-13.4 1.4-6 6.5-10 11.7-9 5 1 8 7 7 14z"/>
  <path fill="#FEFAC3" d="M43 44.8c-1.4 6.4-6.6 10.7-11.7 9.7-5-1-8.2-7-7-13.4 1.3-6 6.5-10 11.6-9 5 1 8 7 7 14z"/>
  <path fill="#FEFAC4" d="M42.8 44.8c-1.2 6.3-6.3 10.6-11.4 9.6-5-1-8.2-7-7-13.3s6.4-10 11.6-9c5 1 8 7 6.5 14z"/>
  <path fill="#FEFBC5" d="M42.8 44.8c-1.2 6.3-6.3 10.6-11.4 9.6-5-1-8.2-7-7-13.3s6.3-10 11.4-9c5 1 8.2 7 7 14z"/>
  <path fill="#FEFBC6" d="M42.8 44.7c-1.2 6.4-6.3 10.7-11.4 9.7-5-1-8.2-7-7-13.3 1.2-6 6.3-10 11.4-9 5 1 8.2 7 7 13z"/>
  <path fill="#FEFBC7" d="M42.7 44.7c-1.2 6.3-6.2 10.6-11.3 9.6-5-1-8.2-7-7-13 1.2-6.4 6.3-10.7 11.3-9.8 5 1 8.2 7 7 13.2z"/>
  <path fill="#FEFBC8" d="M42.7 44.7c-1.2 6.3-6.2 10.6-11.3 9.6-5-1-8-7-7-13 1.2-6.4 6.3-10.7 11.3-9.7 5 1 8.2 6.8 7 13z"/>
  <path fill="#FEFBC9" d="M42.7 44.7c-1.2 6.2-6.2 10.5-11.2 9.6-5-1-8.2-6.8-7-13 1-6.4 6-10.7 11.2-9.7 5 1 8 6.8 7 13z"/>
  <path fill="#FEFBCA" d="M42.6 44.6c-1 6.3-6 10.6-11 9.6s-8.3-6.7-7-13c1-6.2 6-10.5 11-9.6 5 1 8.2 6.8 7 13z"/>
  <path fill="#FEFBCB" d="M42.6 44.6c-1 6.2-6 10.5-11 9.6-5-1-8.3-6.7-7-13 1-6.2 6-10.5 11-9.6 5 1 8 6.8 7 13z"/>
  <path fill="#FEFBCC" d="M42.6 44.6c-1 6.2-6 10.5-11 9.6-5-1-8.2-6.7-7-13 1-6.2 6-10.5 11-9.5s8 6.7 7 13z"/>
  <path fill="#FEFBCD" d="M42.5 44.5c-1 6.2-6 10.5-11 9.6-5 0-8-6-7-12s6-10 11-9 8 7 7 13z"/>
  <path fill="#FEFBCE" d="M42.5 44.5c-1 6.2-6 10.5-11 9.6-5 0-8-6-7-12s6-10 11-9 8 7 7 13z"/>
  <path fill="#FEFBCF" d="M42.5 44.5c-1 6.2-6 10.4-11 9.6-5 0-8-6-7-12s6-10 11-9 8 7 7 13z"/>
  <path fill="#FEFBD0" d="M42.4 44.5c-1 6-6 10.4-10.8 9.5-5-.8-8-6.5-7-12.7 1-6 5.8-10.4 10.8-9.6 5 1 8 6.6 7 12.8z"/>
  <path fill="#FEFBD1" d="M42.4 44.4c-1 6.2-6 10.5-10.8 9.6-5-1-8-6.5-7-12.7 1-6 5.8-10.4 10.7-9.5 5 .8 8 6.5 7 12.6z"/>
  <path fill="#FEFCD2" d="M42.4 44.4c-1 6-6 10.4-10.8 9.6-5-1-8-6.5-7-12.6s5.8-10.5 10.7-9.6c5 .8 8 6.5 7 12.6z"/>
  <path fill="#FEFCD3" d="M42.3 44.4c-1 6-5.7 10.4-10.7 9.5-5-1-8-7-7-13s5.7-11 10.7-10c5 1 8 6 7 12z"/>
  <path fill="#FEFCD4" d="M42.3 44.3c-1 6-5.7 10.4-10.6 9.6-5-1-8-7-7-13s5.6-11 10.5-10c5 1 8 6 7 12z"/>
  <path fill="#FEFCD5" d="M42.3 44.3c-1 6-5.7 10.4-10.6 9.6-5-1-8-7-7-13 .8-6 5.6-11 10.5-10 5 1 8 6 7 12z"/>
  <path fill="#FEFCD6" d="M42.2 44.3c-1 6-5.6 10.3-10.5 9.5-5-.7-8-6.3-7-12.4.8-6 5.6-10.3 10.4-9.5 5 0 9 6 8 12z"/>
  <path fill="#FEFCD7" d="M42.2 44.3c-1 6-5.6 10.3-10.5 9.5-4.8-.8-8-6.3-7-12.4.8-6 5.5-10.3 10.4-9.5 5 0 8 6 8 12z"/>
  <path fill="#FEFCD8" d="M42.2 44.2c-1 6-5.6 10.3-10.5 9.6s-8-6.3-7-12.3C25.4 35.5 30 31 35 32c5 .7 8 6.2 7.2 12.2z"/>
  <path fill="#FEFCD9" d="M42 44.2c-.8 6-5.4 10.3-10.2 9.5-5-.7-8-6.2-7.2-12.2 1-6 5.6-10.3 10.4-9.6 4.8 0 8 6 7 12z"/>
  <path fill="#FFFCDA" d="M42 44.2c-.8 6-5.4 10.2-10.2 9.5-4.8-.7-8-6.2-7.2-12.2 1-6 5.5-10.3 10.4-9.5 4.8.7 8 6.2 7 12.2z"/>
  <path fill="#FFFCDB" d="M42 44c-.8 6-5.4 10.4-10.2 9.7-4.8-.7-8-6.2-7.2-12.2 1-6 5.5-10.2 10.3-9.5 4 .7 8 6 7 12z"/>
  <path fill="#FFFCDC" d="M42 44c-.8 6-5.4 10.4-10.2 9.6-4.8-.7-8-6-7-12 .7-6 5.3-10.3 10-9.6 5 .7 8 6 7.2 12z"/>
  <path fill="#FFFCDD" d="M42 44c-.8 6-5.4 10.3-10.2 9.6-4.8-.7-8-6-7-12 .7-6 5.3-10.3 10-9.6 4.8.7 8 6 7.2 12z"/>
  <path fill="#FFFCDE" d="M42 44c-.8 6-5.4 10.3-10 9.6-5-.7-8-6-7.3-12 .8-6 5.3-10.2 10-9.6 5 .7 8 6 7.3 12z"/>
  <path fill="#FFFDDF" d="M42 44c-1 6-5.4 10.2-10 9.6-5-.7-8-6-7.3-12s5.3-10.2 10-9.5c4.8 1 8 6 7.2 12z"/>
  <path fill="#FFFDE0" d="M42 44c-1 6-5.4 10.2-10 9.5-5-.6-8-6-7.3-12 .8-5.8 5.3-10 10-9.4 4.8 1 8 6 7.2 12z"/>
  <path fill="#FFFDE1" d="M42 44c-1 6-5.3 10-10 9.5-4.8-.7-8-6-7.3-12 .8-5.8 5.2-10 10-9.4 4.7 1 8 6 7.2 12z"/>
  <path fill="#FFFDE2" d="M41.8 44c-.7 5.8-5 10-10 9.5-4.6-.7-7.8-6-7-12 .7-5.7 5-10 9.8-9.4 4.8 1 8 6 7.2 12z"/>
  <path fill="#FFFDE3" d="M41.8 44c-.7 5.8-5 10-10 9.4-4.6-.6-7.8-6-7-11.7.7-6 5-10.2 9.8-9.6 4.7 1 8 6 7.2 12z"/>
  <path fill="#FFFDE4" d="M41.8 44c-.7 5.7-5 10-9.8 9.4-4.7-.6-8-6-7.3-11.7.8-6 5.2-10 10-9.5 4.6.6 7.8 5.8 7 11.7z"/>
  <path fill="#FFFDE5" d="M41.7 43.8c-.7 6-5 10-9.7 9.6-4.7-.6-8-6-7.2-11.7.7-5.8 5-10 9.7-9.5 4.7.6 8 5.8 7.2 11.6z"/>
  <path fill="#FFFDE6" d="M41.7 43.8c-.7 5.8-5 10-9.7 9.5-4.7-.6-8-5.7-7.2-11.6.6-5.8 5-10 9.7-9.5 4.7.6 8 5.8 7.2 11.6z"/>
  <path fill="#FFFDE7" d="M41.7 43.8c-.7 5.8-5 10-9.7 9.5-4.6-.6-8-5.7-7.2-11.6.6-5.8 5-10 9.6-9.5 4.7.6 8 5.8 7.3 11.6z"/>
  <path fill="#FFFDE8" d="M41.6 43.8c-.6 5.8-5 10-9.6 9.5-4.6-.6-8-5.7-7.2-11.5.6-5.8 5-10 9.6-9.5 4.7.5 8 5.7 7.3 11.5z"/>
  <path fill="#FFFDE9" d="M41.6 43.7c-.6 5.8-5 10-9.5 9.5s-7-5.6-7-11.4c1-5.8 5-10 10-9.5s8 5.7 7 11.4z"/>
  <path fill="#FFFDEA" d="M41.6 43.7c-.6 5.8-5 10-9.5 9.5s-7-5.6-7-11.4c1-5.8 5-10 10-9.5s8 5.7 7 11.4z"/>
  <path fill="#FFFDEB" d="M41.6 43.7c-.6 5.7-5 10-9.5 9.5s-7-5.6-7-11.4c1-5.7 5-10 10-9.5s8 5.7 7 11.4z"/>
  <path fill="#FFFEEC" d="M41.5 43.6c-.6 5.8-4.8 10-9.4 9.5-4 0-7-5-7-11s5-10 10-9 8 6 8 12z"/>
  <path fill="#FFFEED" d="M41.5 43.6c-.6 5.7-4.8 10-9.4 9.5-4 0-7-5-7-11 1-6 5-10 10-9s8 6 8 11z"/>
  <path fill="#FFFEEE" d="M41.5 43.6c-.6 5.7-4.8 10-9.3 9.5-4.6 0-8-5-7.3-11 0-5 4-10 9-9 4 1 8 6 7 11z"/>
  <path fill="#FFFEEF" d="M41.4 43.5c-.5 5.7-4.7 10-9.2 9.5-4.6-.4-8-5.4-7.3-11 0-5.8 4-10 9-9.6 4 .5 8 5.5 7 11.2z"/>
  <path fill="#FFFEF0" d="M41.4 43.5c-.5 5.7-4.6 10-9.2 9.5-4.6-.4-7.8-5.4-7.3-11 0-5.8 4-10 9-9.6 4 .5 8 5.4 7 11z"/>
  <path fill="#FFFEF1" d="M41.4 43.5c-.5 5.7-4.6 10-9.2 9.5-4.5-.5-7.8-5.4-7.3-11 0-5.7 4-10 9-9.6 4 .5 8 5.4 7 11z"/>
  <path fill="#FFFEF2" d="M41.3 43.5c-.5 5.6-4.5 10-9 9.4-4.6-1-8-6-7.4-11 0-6 4-10 9-10 4 0 7 5 7 11z"/>
  <path fill="#FFFEF3" d="M41.3 43.4c-.5 5.7-4.5 10-9 9.5-4.6-1-8-6-7.4-11 0-6 4-10 9-10 4 0 7 5 7 11z"/>
  <path fill="#FFFEF4" d="M41.3 43.4c-.5 5.6-4.5 10-9 9.5s-7.8-6-7.3-11c0-6 4-10 9-10 4 0 7.3 5 7 11z"/>
  <path fill="#FFFEF5" d="M41.2 43.4c-.4 5.6-4.4 9.8-9 9.4S24.6 47.6 25 42c.4-5.6 4.4-9.8 9-9.5 4.4.4 7.7 5.3 7.2 11z"/>
  <path fill="#FFFEF6" d="M41.2 43.3c-.4 5.6-4.4 10-9 9.5-4.4-.4-7.7-5.2-7.3-10.8 0-5.6 4-9.8 8-9.4 4 .3 8 5.2 7 10.7z"/>
  <path fill="#FFFEF7" d="M41.2 43.3c-.4 5.6-4.4 9.8-9 9.5-4.4-.4-7.7-5.2-7.3-10.8 0-5.5 4-9.8 8-9.4 4 .3 8 5 7 10.7z"/>
  <path fill="#FFFEF8" d="M41 43.3c-.3 5.6-4.2 9.8-8.7 9.4-4.4-.3-7.7-5-7.3-10.6.3-5 4.3-9 8.7-9 4.5 1 7.8 5 7.4 11z"/>
  <path fill="#FFFFF9" d="M41 43.3c-.3 5.5-4.2 9.7-8.6 9.4-4.5-.3-7.8-5-7.4-10.6.3-5 4.2-9 8.7-9 4.4 1 7.8 5 7.4 11z"/>
  <path fill="#FFFFFA" d="M41 43.2c-.3 5.6-4.2 9.8-8.6 9.5-4.5-.3-7.8-5-7.4-10.6.3-5 4.2-9 8.7-9 4.4 1 7.7 5 7.4 11z"/>
  <path fill="#FFFFFB" d="M41 43.2c-.3 5.5-4.2 9.7-8.6 9.4-4.4-.3-7.7-5-7.4-10.5.3-5 4.2-9 8.6-9 4.4 1 7.8 5 7.4 11z"/>
  <path fill="#FFFFFC" d="M41 43.2c-.3 5.5-4.2 9.7-8.6 9.4-4.4-.3-7.7-5-7.4-10.5.3-5 4.2-9 8.6-9 4.4 1 7.7 5 7.4 11z"/>
  <path fill="#FFFFFD" d="M41 43c-.3 5.6-4.2 10-8.6 9.6-4.4-.3-7.7-5-7.4-10.5.3-5 4-9 8.5-9 4.4 1 7.8 5 7.5 11z"/>
  <path fill="#FFFFFE" d="M41 43c-.4 5.6-4.2 9.8-8.5 9.6-4.4-.3-7.8-5-7.5-10.4.3-5.5 4-9.7 8.5-9.5 4.4.3 7.7 5 7.4 10.4z"/>
  <path fill="#FFF" d="M41 43c-.4 5.5-4 9.8-8.5 9.5-4.4-.2-7.7-5-7.5-10.3.3-5.5 4-9.7 8.5-9.5 4.3.3 7.7 5 7.4 10.4zm7.3-11.2c-.3 2-1.8 3.2-3.3 3-1.4-.3-2.3-2-2-4 .4-1.8 1.8-3 3.3-2.8 1.4.2 2.3 2 2 3.8z"/>
  <path fill="#F7931E" d="M66 156.5c-2.2.7-4.5 8.3-4.3 10.5.4 3 3.5 1 5 .4 1.5-.5 3 .2 4.6.3 1.5 0 3.7-1.3 5-.5 1.4-2.3-3.6-6.4-5-8-.7-.8-1.8-2.7-3-3-1-.4-1.3.2-2.3.3"/>
  <path fill="none" d="M64.5 157c1.7-1 3.5-.7 5.2-.6"/>
  <path fill="#C1272D" d="M64.5 158c1.7-.6 3.4-.5 5.2-.3v-2.5c-1.8-.2-3.5-.3-5.2.4-.3 0 .2 2.4 0 2.5z"/>
</svg>
