<svg width="135" height="400" xmlns="http://www.w3.org/2000/svg">
 <g>
  <g id="svg_727">
   <g id="svg_728">
    <g id="svg_729">
     <path fill="none" d="m66.033,165.166c8.104,19.944 48.62099,27.424 43.21899,49.86099c-7.204,31.16301 -98.143,26.177 -90.04,78.532c6.303,36.15002 74.732,11.22 91.83999,38.64401c12.60499,21.19 -19.80901,41.13599 -0.9,59.83398" id="svg_730"/>
    </g>
    <g id="svg_731">
     <path fill="#C1272D" d="m66.033,166.416c6.971,16.095 27.11301,21.37399 38.431,33.653c10.817,11.735 1.37701,23.317 -9.673,29.73599c-12.667,7.358 -27.146,11.343 -40.564,17.07201c-12.558,5.36101 -26.169,12.438 -32.491,25.21599c-4.752,9.60501 -4.676,24.77502 2.214,33.26501c9.444,11.63501 29.312,11.42099 42.806,12.513c14.248,1.15298 32.979,1.54199 42.882,13.57501c11.966,14.53897 -5.576,31.54898 -5.576,47.06998c0,5.86902 1.996,10.52402 6.09,14.771c-0.407,-0.422 0.425,-2.05899 0,-2.5c-3.194,-3.31299 -5.363,-6.95999 -5.979,-11.56299c-0.576,-4.30701 1.867,-9.50299 3.438,-13.39999c2.927,-7.26401 6.404,-14.328 6.451,-22.32101c0.092,-15.75598 -12.395,-22.79498 -26.243,-25.62198c-16.264,-3.32001 -33.263,-1.93402 -49.308,-6.48901c-6.544,-1.85699 -12.678,-5.21899 -16.392,-11.07901c-4.242,-6.694 -4.08,-15.552 -1.594,-22.81598c4.579,-13.38202 18.255,-21.10001 30.343,-26.63602c13.517,-6.19099 27.956,-10.26399 41.198,-17.06898c9.464,-4.86401 17.754,-11.68301 17.687,-23.09901c-0.09299,-15.959 -19.688,-24.013 -30.664,-32.09299c-5.31499,-3.91301 -10.39,-8.522 -13.057,-14.68201c0.302,0.692 -0.305,1.78999 0.001,2.498l0,0l0,0l0,0l0,0z" id="svg_732"/>
    </g>
   </g>
   <g id="svg_733">
    <g id="svg_734">
     <ellipse fill="#F79321" cx="64.854" cy="80.356" rx="61.854" ry="75.805" id="svg_735"/>
     <ellipse fill="#F79422" cx="64.369" cy="79.837" rx="61.127" ry="74.984" id="svg_736"/>
     <ellipse fill="#F79523" cx="63.883" cy="79.318" rx="60.4" ry="74.164" id="svg_737"/>
     <ellipse fill="#F79624" cx="63.398" cy="78.798" rx="59.673" ry="73.343" id="svg_738"/>
     <ellipse fill="#F89724" cx="62.912" cy="78.279" rx="58.945" ry="72.522" id="svg_739"/>
     <ellipse fill="#F89825" cx="62.427" cy="77.76" rx="58.218" ry="71.702" id="svg_740"/>
     <ellipse fill="#F89926" cx="61.941" cy="77.241" rx="57.491" ry="70.881" id="svg_741"/>
     <ellipse fill="#F89A27" cx="61.456" cy="76.721" rx="56.763" ry="70.06" id="svg_742"/>
     <ellipse fill="#F89B28" cx="60.97" cy="76.202" rx="56.036" ry="69.239" id="svg_743"/>
     <ellipse fill="#F89C29" cx="60.485" cy="75.683" rx="55.309" ry="68.419" id="svg_744"/>
     <ellipse fill="#F89D2A" cx="59.999" cy="75.164" rx="54.582" ry="67.598" id="svg_745"/>
     <ellipse fill="#F89E2B" cx="59.514" cy="74.644" rx="53.854" ry="66.777" id="svg_746"/>
     <ellipse fill="#F99F2B" cx="59.028" cy="74.125" rx="53.127" ry="65.957" id="svg_747"/>
     <ellipse fill="#F9A02C" cx="58.543" cy="73.605" rx="52.4" ry="65.136" id="svg_748"/>
     <ellipse fill="#F9A12D" cx="58.057" cy="73.086" rx="51.673" ry="64.315" id="svg_749"/>
     <ellipse fill="#F9A22E" cx="57.572" cy="72.567" rx="50.945" ry="63.495" id="svg_750"/>
     <ellipse fill="#F9A22F" cx="57.086" cy="72.048" rx="50.218" ry="62.674" id="svg_751"/>
     <ellipse fill="#F9A330" cx="56.601" cy="71.528" rx="49.491" ry="61.854" id="svg_752"/>
     <ellipse fill="#F9A431" cx="56.115" cy="71.009" rx="48.764" ry="61.033" id="svg_753"/>
     <ellipse fill="#FAA531" cx="55.63" cy="70.49" rx="48.037" ry="60.212" id="svg_754"/>
     <ellipse fill="#FAA632" cx="55.144" cy="69.971" rx="47.309" ry="59.391" id="svg_755"/>
     <ellipse fill="#FAA733" cx="54.659" cy="69.451" rx="46.582" ry="58.571" id="svg_756"/>
     <ellipse fill="#FAA834" cx="54.173" cy="68.932" rx="45.855" ry="57.75" id="svg_757"/>
     <ellipse fill="#FAA935" cx="53.688" cy="68.413" rx="45.128" ry="56.93" id="svg_758"/>
     <ellipse fill="#FAAA36" cx="53.202" cy="67.894" rx="44.4" ry="56.108" id="svg_759"/>
     <ellipse fill="#FAAB37" cx="52.717" cy="67.374" rx="43.673" ry="55.288" id="svg_760"/>
     <ellipse fill="#FAAC38" cx="52.231" cy="66.855" rx="42.946" ry="54.467" id="svg_761"/>
     <ellipse fill="#FBAD38" cx="51.746" cy="66.336" rx="42.219" ry="53.646" id="svg_762"/>
     <ellipse fill="#FBAE39" cx="51.26" cy="65.816" rx="41.491" ry="52.826" id="svg_763"/>
     <ellipse fill="#FBAF3A" cx="50.775" cy="65.297" rx="40.764" ry="52.005" id="svg_764"/>
     <ellipse fill="#FBB03B" cx="50.289" cy="64.778" rx="40.037" ry="51.185" id="svg_765"/>
     <ellipse transform="matrix(1,0.0023,-0.0023,1,0.1414,-0.108) " fill="#FBB13B" cx="50.05988" cy="64.43908" rx="39.604" ry="50.624" id="svg_766"/>
     <path fill="#FBB23A" d="m88.988,64.295c-0.125,27.649 -17.764,49.982 -39.397,49.881c-21.634,-0.10001 -39.07,-22.596 -38.945,-50.245c0.125,-27.65 17.763,-49.982 39.397,-49.881c21.634,0.1 39.07,22.596 38.945,50.245z" id="svg_767"/>
     <path fill="#FBB33A" d="m88.319,64.054c-0.188,27.339 -17.683,49.38 -39.078,49.229c-21.394,-0.15099 -38.586,-22.437 -38.399,-49.776c0.188,-27.34 17.683,-49.38 39.078,-49.229c21.395,0.151 38.58701,22.436 38.399,49.776z" id="svg_768"/>
     <path fill="#FBB439" d="m87.65,63.813c-0.25,27.029 -17.603,48.778 -38.758,48.577c-21.156,-0.202 -38.103,-22.277 -37.853,-49.307c0.25,-27.03 17.602,-48.778 38.758,-48.577c21.156,0.202 38.103,22.276 37.853,49.307z" id="svg_769"/>
     <path fill="#FBB539" d="m86.981,63.571c-0.313,26.72 -17.522,48.177 -38.438,47.926c-20.917,-0.252 -37.62,-22.117 -37.307,-48.837c0.312,-26.721 17.521,-48.177 38.438,-47.926c20.917,0.252 37.62,22.116 37.307,48.837z" id="svg_770"/>
     <path fill="#FBB639" d="m86.313,63.33c-0.375,26.41 -17.441,47.576 -38.119,47.27399c-20.678,-0.30199 -37.136,-21.95699 -36.762,-48.367c0.375,-26.411 17.441,-47.576 38.119,-47.274c20.678,0.302 37.137,21.955 36.762,48.367l0,0l0,0l0,0z" id="svg_771"/>
     <path fill="#FBB738" d="m85.644,63.088c-0.437,26.1 -17.36,46.974 -37.799,46.622c-20.439,-0.352 -36.653,-21.796 -36.216,-47.897c0.438,-26.101 17.36,-46.974 37.799,-46.622c20.439,0.352 36.653,21.796 36.216,47.897z" id="svg_772"/>
     <path fill="#FBB838" d="m84.975,62.847c-0.5,25.791 -17.28,46.373 -37.479,45.971c-20.2,-0.402 -36.17,-21.637 -35.67,-47.428c0.5,-25.792 17.28,-46.373 37.479,-45.97c20.199,0.402 36.17,21.635 35.67,47.427z" id="svg_773"/>
     <path fill="#FBB937" d="m84.306,62.605c-0.562,25.481 -17.199,45.771 -37.159,45.319c-19.962,-0.453 -35.687,-21.47701 -35.125,-46.958c0.562,-25.482 17.199,-45.771 37.16,-45.319c19.961,0.453 35.686,21.477 35.124,46.958z" id="svg_774"/>
     <path fill="#FBBA37" d="m83.637,62.364c-0.625,25.17101 -17.119,45.17 -36.84,44.667c-19.722,-0.503 -35.203,-21.317 -34.578,-46.489c0.625,-25.172 17.119,-45.17 36.84,-44.667c19.721,0.504 35.203,21.317 34.578,46.489z" id="svg_775"/>
     <path fill="#FBBB36" d="m82.968,62.123c-0.687,24.861 -17.038,44.568 -36.52,44.015c-19.483,-0.554 -34.719,-21.157 -34.032,-46.019c0.687,-24.863 17.038,-44.568 36.521,-44.015c19.481,0.553 34.718,21.156 34.031,46.019z" id="svg_776"/>
     <path fill="#FBBC36" d="m82.299,61.881c-0.75,24.552 -16.95702,43.967 -36.2,43.363c-19.245,-0.603 -34.236,-20.996 -33.487,-45.549c0.75,-24.553 16.957,-43.967 36.201,-43.363c19.243,0.604 34.235,20.997 33.486,45.549z" id="svg_777"/>
     <path fill="#FBBD36" d="m81.63,61.64c-0.812,24.242 -16.876,43.365 -35.881,42.711s-33.752,-20.836 -32.94,-45.079c0.812,-24.243 16.876,-43.365 35.881,-42.711c19.004,0.653 33.752,20.836 32.94,45.079z" id="svg_778"/>
     <path fill="#FBBE35" d="m80.961,61.399c-0.875,23.933 -16.796,42.764 -35.561,42.06c-18.766,-0.704 -33.269,-20.677 -32.395,-44.61c0.875,-23.934 16.796,-42.764 35.562,-42.06c18.765,0.704 33.268,20.676 32.394,44.61z" id="svg_779"/>
     <path fill="#FBBF35" d="m80.292,61.157c-0.937,23.623 -16.715,42.163 -35.241,41.408c-18.527,-0.75401 -32.786,-20.51701 -31.849,-44.14s16.715,-42.162 35.242,-41.408s32.785,20.516 31.848,44.14z" id="svg_780"/>
     <path fill="#FBC034" d="m79.623,60.916c-0.999,23.313 -16.634,41.561 -34.921,40.756c-18.288,-0.805 -32.303,-20.35699 -31.303,-43.671c1,-23.314 16.634,-41.561 34.922,-40.756c18.287,0.805 32.302,20.357 31.302,43.671z" id="svg_781"/>
     <path fill="#FBC134" d="m78.954,60.675c-1.061,23.003 -16.554,40.959 -34.602,40.104c-18.048,-0.855 -31.818,-20.197 -30.756,-43.201c1.062,-23.005 16.554,-40.959 34.603,-40.104c18.047,0.855 31.817,20.196 30.755,43.201z" id="svg_782"/>
     <path fill="#FBC234" d="m78.285,60.433c-1.124,22.694 -16.473,40.358 -34.28201,39.453c-17.81,-0.906 -31.335,-20.037 -30.211,-42.732c1.125,-22.695 16.473,-40.358 34.283,-39.453c17.809,0.906 31.335,20.037 30.21,42.732l0,0l0,0l0,0z" id="svg_783"/>
     <path fill="#FBC333" d="m77.616,60.192c-1.186,22.384 -16.392,39.756 -33.962,38.80099c-17.571,-0.95599 -30.852,-19.878 -29.665,-42.262c1.187,-22.385 16.393,-39.757 33.963,-38.801c17.57,0.956 30.851,19.877 29.664,42.262l0,0l0,0l0,0z" id="svg_784"/>
     <path fill="#FBC433" d="m76.947,59.951c-1.249,22.074 -16.312,39.154 -33.642,38.149c-17.332,-1.006 -30.369,-19.71799 -29.119,-41.793c1.249,-22.075 16.312,-39.155 33.644,-38.149c17.33,1.007 30.367,19.717 29.117,41.793z" id="svg_785"/>
     <path fill="#FBC532" d="m76.278,59.709c-1.312,21.765 -16.231,38.554 -33.323,37.498c-17.092,-1.057 -29.885,-19.558 -28.573,-41.323c1.312,-21.766 16.231,-38.554 33.324,-37.497c17.092,1.056 29.884,19.556 28.572,41.322z" id="svg_786"/>
     <path fill="#FBC632" d="m75.609,59.468c-1.374,21.45601 -16.15,37.952 -33.003,36.846c-16.854,-1.107 -29.401,-19.398 -28.027,-40.854c1.375,-21.456 16.151,-37.952 33.004,-36.846c16.853,1.107 29.401,19.398 28.026,40.854z" id="svg_787"/>
     <path fill="#FBC732" d="m74.94,59.227c-1.437,21.146 -16.07,37.351 -32.684,36.194c-16.615,-1.157 -28.91799,-19.238 -27.481,-40.384c1.437,-21.146 16.07,-37.351 32.685,-36.193c16.61401,1.156 28.917,19.236 27.48,40.383z" id="svg_788"/>
     <path fill="#FBC831" d="m74.271,58.985c-1.499,20.836 -15.989,36.75 -32.36399,35.542c-16.37501,-1.207 -28.43401,-19.077 -26.93501,-39.914c1.499,-20.837 15.989,-36.749 32.365,-35.542c16.375,1.207 28.434,19.077 26.934,39.914z" id="svg_789"/>
     <path fill="#FBC931" d="m73.603,58.744c-1.562,20.526 -15.908,36.147 -32.044,34.89s-27.952,-18.918 -26.39,-39.445c1.561,-20.526 15.908,-36.147 32.045,-34.889c16.136,1.257 27.951,18.916 26.389,39.444z" id="svg_790"/>
     <path fill="#FBCA30" d="m72.934,58.502c-1.624,20.217 -15.828,35.546 -31.725,34.239c-15.897,-1.308 -27.468,-18.757 -25.844,-38.975s15.828,-35.546 31.726,-34.238c15.897,1.307 27.467,18.757 25.843,38.974z" id="svg_791"/>
     <path fill="#FBCB30" d="m72.265,58.261c-1.686,19.907 -15.747,34.945 -31.405,33.587c-15.659,-1.359 -26.985,-18.598 -25.298,-38.505c1.687,-19.908 15.747,-34.945 31.406,-33.587c15.657,1.358 26.984,18.597 25.297,38.505z" id="svg_792"/>
     <path fill="#FBCC2F" d="m71.596,58.02c-1.749,19.597 -15.667,34.343 -31.086,32.935c-15.419,-1.409 -26.5,-18.438 -24.751,-38.036s15.667,-34.343 31.086,-32.935c15.419,1.409 26.5,18.437 24.751,38.036z" id="svg_793"/>
     <path fill="#FBCD2F" d="m70.927,57.778c-1.811,19.288 -15.586,33.742 -30.766,32.284c-15.18,-1.459 -26.018,-18.278 -24.206,-37.56601c1.811,-19.28899 15.586,-33.742 30.766,-32.283c15.18,1.45801 26.018,18.27701 24.206,37.56501z" id="svg_794"/>
     <path fill="#FBCE2F" d="m70.258,57.537c-1.874,18.979 -15.505,33.141 -30.446,31.632c-14.941,-1.509 -25.534,-18.118 -23.66,-37.096c1.874,-18.979 15.505,-33.141 30.447,-31.631c14.941,1.508 25.533,18.116 23.659,37.095l0,0l0,0l0,0z" id="svg_795"/>
     <path fill="#FBCF2E" d="m69.589,57.295c-1.936,18.668 -15.424,32.539 -30.126,30.98c-14.703,-1.56001 -25.051,-17.958 -23.114,-36.627s15.424,-32.538 30.127,-30.979c14.701,1.56 25.05,17.957 23.113,36.626z" id="svg_796"/>
     <path fill="#FCCF2E" d="m68.92,57.054c-1.999,18.359 -15.344,31.937 -29.807,30.328c-14.463,-1.61 -24.567,-17.798 -22.568,-36.15701c1.999,-18.359 15.344,-31.938 29.807,-30.328c14.463,1.61 24.567,17.797 22.568,36.157l0,0l0,0l0,0z" id="svg_797"/>
     <path fill="#FCD02D" d="m68.251,56.813c-2.061,18.049 -15.263,31.335 -29.487,29.676c-14.224,-1.66 -24.083,-17.638 -22.022,-35.688c2.061,-18.049 15.263,-31.335 29.487,-29.676c14.224,1.661 24.084,17.638 22.022,35.688z" id="svg_798"/>
     <path fill="#FCD12D" d="m67.583,56.571c-2.125,17.74 -15.183,30.735 -29.168,29.025c-13.985,-1.71 -23.6,-17.478 -21.477,-35.218c2.124,-17.74 15.183,-30.734 29.168,-29.024c13.985,1.71 23.6,17.477 21.477,35.217z" id="svg_799"/>
     <path fill="#FCD22D" d="m66.914,56.33c-2.187,17.43 -15.102,30.133 -28.848,28.373c-13.747,-1.761 -23.117,-17.318 -20.931,-34.748c2.186,-17.431 15.102,-30.133 28.848,-28.373c13.746,1.761 23.117,17.317 20.931,34.748z" id="svg_800"/>
     <path fill="#FCD32C" d="m66.245,56.089c-2.249,17.12 -15.022,29.531 -28.529,27.721c-13.507,-1.811 -22.633,-17.158 -20.384,-34.279c2.249,-17.121 15.022,-29.531 28.528,-27.72c13.507,1.81 22.633,17.157 20.385,34.278l0,0z" id="svg_801"/>
     <path fill="#FCD42C" d="m65.576,55.847c-2.311,16.811 -14.941,28.93 -28.208,27.069c-13.268,-1.861 -22.15,-16.999 -19.838,-33.809c2.311,-16.811 14.94,-28.93 28.208,-27.069c13.267,1.862 22.149,16.998 19.838,33.809z" id="svg_802"/>
     <path fill="#FCD52B" d="m64.907,55.606c-2.374,16.501 -14.86,28.329 -27.889,26.417c-13.029,-1.912 -21.667,-16.83801 -19.293,-33.339c2.374,-16.501 14.86,-28.329 27.889,-26.417c13.029,1.911 21.666,16.837 19.293,33.339l0,0z" id="svg_803"/>
     <path fill="#FCD62B" d="m64.238,55.365c-2.436,16.191 -14.78,27.726 -27.57,25.765c-12.79,-1.962 -21.183,-16.67799 -18.747,-32.87s14.779,-27.727 27.569,-25.765c12.791,1.962 21.18399,16.678 18.748,32.87z" id="svg_804"/>
     <path fill="#FCD72A" d="m63.569,55.123c-2.499,15.882 -14.699,27.126 -27.25,25.114c-12.551,-2.012 -20.7,-16.518 -18.201,-32.4c2.499,-15.882 14.699,-27.125 27.25,-25.114c12.551,2.012 20.699,16.518 18.201,32.4z" id="svg_805"/>
     <path fill="#FCD82A" d="m62.9,54.882c-2.561,15.572 -14.618,26.524 -26.93,24.462c-12.312,-2.063 -20.216,-16.358 -17.655,-31.931c2.561,-15.572 14.618,-26.524 26.93,-24.461c12.312,2.062 20.216,16.357 17.655,31.93z" id="svg_806"/>
     <path fill="#FCD92A" d="m62.231,54.641c-2.624,15.262 -14.538,25.922 -26.61,23.81c-12.073,-2.113 -19.733,-16.199 -17.109,-31.46099s14.538,-25.922 26.61,-23.81c12.073,2.112 19.73199,16.197 17.109,31.461l0,0l0,0l0,0z" id="svg_807"/>
     <path fill="#FCDA29" d="m61.562,54.399c-2.686,14.953 -14.457,25.321 -26.291,23.159c-11.833,-2.164 -19.249,-16.039 -16.563,-30.991c2.686,-14.953 14.457,-25.321 26.291,-23.158c11.834,2.162 19.249,16.037 16.563,30.99z" id="svg_808"/>
     <path fill="#FCDB29" d="m60.893,54.158c-2.749,14.643 -14.376,24.72 -25.971,22.507c-11.595,-2.214 -18.766,-15.878 -16.017,-30.522c2.748,-14.643 14.376,-24.72 25.971,-22.507c11.595,2.214 18.766,15.878 16.017,30.522z" id="svg_809"/>
     <path fill="#FCDC28" d="m60.224,53.917c-2.811,14.333 -14.295,24.118 -25.651,21.854c-11.356,-2.264 -18.283,-15.71901 -15.471,-30.052c2.811,-14.333 14.295,-24.118 25.651,-21.854c11.356,2.263 18.282,15.718 15.471,30.052z" id="svg_810"/>
     <path fill="#FCDD28" d="m59.555,53.675c-2.873,14.024 -14.215,23.516 -25.331,21.203c-11.117,-2.314 -17.799,-15.559 -14.926,-29.583c2.874,-14.023 14.215,-23.517 25.332,-21.203s17.799,15.559 14.925,29.583z" id="svg_811"/>
     <path fill="#FCDE28" d="m58.886,53.434c-2.936,13.71301 -14.134,22.915 -25.011,20.551c-10.877,-2.364 -17.315,-15.398 -14.379,-29.113c2.936,-13.714 14.134,-22.915 25.012,-20.551c10.877,2.364 17.314,15.398 14.378,29.113z" id="svg_812"/>
     <path fill="#FCDF27" d="m58.217,53.192c-2.998,13.404 -14.053,22.313 -24.692,19.899c-10.639,-2.415 -16.832,-15.239 -13.833,-28.643c2.998,-13.405 14.053,-22.314 24.692,-19.899c10.638,2.415 16.832,15.239 13.833,28.643z" id="svg_813"/>
     <path fill="#FCE027" d="m57.548,52.951c-3.061,13.09501 -13.973,21.712 -24.372,19.248c-10.4,-2.465 -16.349,-15.079 -13.288,-28.174c3.061,-13.095 13.973,-21.712 24.373,-19.247c10.4,2.464 16.348,15.078 13.287,28.173z" id="svg_814"/>
     <path fill="#FCE126" d="m56.879,52.709c-3.123,12.786 -13.892,21.111 -24.052,18.597c-10.161,-2.516 -15.866,-14.919 -12.742,-27.704c3.123,-12.785 13.893,-21.111 24.053,-18.596c10.16,2.515 15.865,14.918 12.741,27.703z" id="svg_815"/>
     <path fill="#FCE226" d="m56.21,52.468c-3.186,12.475 -13.812,20.509 -23.733,17.944c-9.921,-2.566 -15.382,-14.759 -12.196,-27.234c3.186,-12.476 13.812,-20.509 23.733,-17.944c9.923,2.565 15.382,14.758 12.196,27.234z" id="svg_816"/>
     <path fill="#FCE326" d="m55.542,52.227c-3.248,12.166 -13.73,19.908 -23.413,17.293c-9.683,-2.616 -14.898,-14.599 -11.65,-26.765c3.248,-12.166 13.731,-19.908 23.414,-17.292c9.681,2.615 14.897,14.598 11.649,26.764z" id="svg_817"/>
     <path fill="#FCE425" d="m54.873,51.985c-3.311,11.856 -13.65,19.306 -23.093,16.641c-9.444,-2.666 -14.415,-14.438 -11.104,-26.295c3.31,-11.856 13.65,-19.306 23.094,-16.641c9.442,2.666 14.413,14.439 11.103,26.295z" id="svg_818"/>
     <path fill="#FCE525" d="m54.204,51.744c-3.373,11.547 -13.57,18.705 -22.774,15.989c-9.204,-2.716 -13.931,-14.279 -10.558,-25.826c3.373,-11.546 13.57,-18.705 22.774,-15.988c9.204,2.716 13.931,14.278 10.558,25.825z" id="svg_819"/>
     <path fill="#FCE624" d="m53.535,51.503c-3.436,11.236 -13.489,18.103 -22.454,15.337c-8.965,-2.767 -13.448,-14.119 -10.012,-25.356s13.488,-18.104 22.454,-15.337c8.965,2.767 13.447,14.119 10.012,25.356l0,0z" id="svg_820"/>
     <path fill="#FCE724" d="m52.866,51.261c-3.498,10.927 -13.408,17.502 -22.134,14.686c-8.727,-2.817 -12.965,-13.959 -9.466,-24.886c3.497,-10.928 13.407,-17.502 22.134,-14.686c8.726,2.817 12.964,13.959 9.466,24.886z" id="svg_821"/>
     <path fill="#FCE823" d="m52.197,51.02c-3.561,10.617 -13.327,16.9 -21.814,14.034c-8.488,-2.868 -12.481,-13.799 -8.92,-24.417c3.56,-10.617 13.328,-16.9 21.815,-14.033s12.479,13.798 8.919,24.416z" id="svg_822"/>
     <path fill="#FCE923" d="m51.528,50.779c-3.623,10.308 -13.247,16.299 -21.495,13.382c-8.248,-2.918 -11.998,-13.639 -8.375,-23.947c3.623,-10.308 13.247,-16.299 21.496,-13.381c8.248,2.917 11.997,13.638 8.374,23.946l0,0z" id="svg_823"/>
     <path fill="#FCEA23" d="m50.859,50.537c-3.685,9.998 -13.166,15.698 -21.175,12.73c-8.009,-2.968 -11.514,-13.479 -7.829,-23.478c3.685,-9.998 13.167,-15.698 21.176,-12.73s11.513,13.48 7.828,23.478z" id="svg_824"/>
     <path fill="#FCEB22" d="m50.19,50.296c-3.748,9.688 -13.085,15.096 -20.855,12.078c-7.771,-3.018 -11.031,-13.319 -7.283,-23.008c3.748,-9.688 13.085,-15.096 20.856,-12.078c7.77,3.019 11.03,13.319 7.282,23.008z" id="svg_825"/>
     <path fill="#FCEC22" d="m49.521,50.055c-3.81,9.378 -13.004,14.494 -20.536,11.426c-7.532,-3.069 -10.548,-13.159 -6.737,-22.538c3.81,-9.379 13.005,-14.495 20.536,-11.426s10.548,13.158 6.737,22.538z" id="svg_826"/>
     <path fill="#FCED21" d="m48.852,49.813c-3.873,9.069 -12.924,13.893 -20.216,10.775c-7.292,-3.119 -10.064,-12.999 -6.191,-22.069c3.873,-9.069 12.924,-13.893 20.217,-10.774c7.292,3.119 10.063,12.999 6.19,22.068z" id="svg_827"/>
     <ellipse transform="matrix(0.9122,0.4098,-0.4098,0.9122,19.5826,-9.697) " fill="#FCEE21" cx="36.37782" cy="42.34113" rx="14.001" ry="17.388" id="svg_828"/>
     <ellipse transform="matrix(0.9125,0.409,-0.409,0.9125,19.5327,-9.6811) " fill="#FCEE22" cx="36.36575" cy="42.33859" rx="13.971" ry="17.351" id="svg_829"/>
     <ellipse transform="matrix(0.9129,0.4082,-0.4082,0.9129,19.4834,-9.6653) " fill="#FCEE23" cx="36.35325" cy="42.33708" rx="13.941" ry="17.315" id="svg_830"/>
     <ellipse transform="matrix(0.9133,0.4073,-0.4073,0.9133,19.4335,-9.6492) " fill="#FCEE24" cx="36.34076" cy="42.33498" rx="13.912" ry="17.278" id="svg_831"/>
     <ellipse transform="matrix(0.9137,0.4065,-0.4065,0.9137,19.384,-9.6333) " fill="#FCEE25" cx="36.32824" cy="42.33346" rx="13.882" ry="17.241" id="svg_832"/>
     <ellipse transform="matrix(0.914,0.4056,-0.4056,0.914,19.3342,-9.6173) " fill="#FCEE26" cx="36.31617" cy="42.33234" rx="13.853" ry="17.204" id="svg_833"/>
     <ellipse transform="matrix(0.9144,0.4048,-0.4048,0.9144,19.2834,-9.601) " fill="#FCEE27" cx="36.30364" cy="42.32981" rx="13.823" ry="17.168" id="svg_834"/>
     <ellipse transform="matrix(0.9148,0.4039,-0.4039,0.9148,19.2333,-9.5848) " fill="#FCEF28" cx="36.29112" cy="42.32871" rx="13.793" ry="17.131" id="svg_835"/>
     <ellipse transform="matrix(0.9152,0.403,-0.403,0.9152,19.1822,-9.5683) " fill="#FCEF29" cx="36.2786" cy="42.3276" rx="13.764" ry="17.094" id="svg_836"/>
     <ellipse transform="matrix(0.9156,0.4022,-0.4022,0.9156,19.1316,-9.5519) " fill="#FCEF2A" cx="36.26605" cy="42.32506" rx="13.734" ry="17.058" id="svg_837"/>
     <path fill="#FCEF2B" d="m47.855,49.279c-3.77,8.611 -12.447,13.129 -19.379,10.092c-6.933,-3.038 -9.497,-12.481 -5.726,-21.092c3.77,-8.611 12.447,-13.129 19.38,-10.091c6.932,3.038 9.495,12.48 5.725,21.091z" id="svg_838"/>
     <path fill="#FCEF2C" d="m47.822,49.25c-3.753,8.596 -12.407,13.113 -19.328,10.089c-6.92,-3.025 -9.488,-12.445 -5.734,-21.041c3.753,-8.596 12.407,-13.113 19.328,-10.088c6.921,3.024 9.488,12.444 5.734,21.04z" id="svg_839"/>
     <path fill="#FCEF2D" d="m47.789,49.221c-3.737,8.581 -12.367,13.096 -19.276,10.085c-6.909,-3.011 -9.479,-12.409 -5.742,-20.99c3.737,-8.581 12.368,-13.096 19.276,-10.085c6.909,3.011 9.479,12.409 5.742,20.99z" id="svg_840"/>
     <path fill="#FCEF2E" d="m47.756,49.192c-3.72,8.566 -12.328,13.08 -19.224,10.083c-6.897,-2.999 -9.471,-12.373 -5.75,-20.939c3.72,-8.566 12.328,-13.08 19.225,-10.082c6.896,2.996 9.47,12.371 5.749,20.938z" id="svg_841"/>
     <path fill="#FCEF2F" d="m47.724,49.163c-3.704,8.551 -12.288,13.064 -19.173,10.08c-6.885,-2.985 -9.463,-12.337 -5.758,-20.889c3.704,-8.551 12.289,-13.064 19.173,-10.079c6.884,2.984 9.462,12.336 5.758,20.888z" id="svg_842"/>
     <path fill="#FCEF30" d="m47.69,49.133c-3.687,8.536 -12.248,13.048 -19.12,10.077c-6.873,-2.972 -9.455,-12.301 -5.767,-20.838c3.688,-8.536 12.249,-13.047 19.122,-10.076s9.453,12.301 5.765,20.837z" id="svg_843"/>
     <path fill="#FCEF31" d="m47.658,49.104c-3.671,8.521 -12.208,13.032 -19.069,10.074c-6.861,-2.959 -9.446,-12.266 -5.775,-20.788c3.671,-8.521 12.209,-13.031 19.07,-10.073s9.445,12.265 5.774,20.787z" id="svg_844"/>
     <path fill="#FCEF32" d="m47.625,49.075c-3.654,8.507 -12.169,13.015 -19.018,10.07c-6.849,-2.946 -9.438,-12.229 -5.783,-20.736c3.654,-8.506 12.169,-13.015 19.018,-10.07s9.438,12.229 5.783,20.736z" id="svg_845"/>
     <path fill="#FCEF33" d="m47.592,49.045c-3.638,8.492 -12.129,12.999 -18.966,10.067c-6.836,-2.933 -9.429,-12.194 -5.791,-20.686s12.13,-12.999 18.966,-10.067s9.429,12.195 5.791,20.686z" id="svg_846"/>
     <path fill="#FCEF34" d="m47.56,49.017c-3.622,8.477 -12.09,12.982 -18.914,10.064c-6.825,-2.919 -9.421,-12.158 -5.799,-20.635c3.622,-8.477 12.09,-12.982 18.915,-10.063c6.823,2.918 9.419,12.156 5.798,20.634z" id="svg_847"/>
     <path fill="#FCF035" d="m47.526,48.987c-3.604,8.462 -12.05,12.966 -18.862,10.061c-6.813,-2.907 -9.412,-12.122 -5.807,-20.584c3.605,-8.462 12.051,-12.966 18.863,-10.061c6.812,2.906 9.412,12.122 5.806,20.584z" id="svg_848"/>
     <path fill="#FCF036" d="m47.494,48.958c-3.588,8.447 -12.01,12.95 -18.811,10.058c-6.8,-2.893 -9.404,-12.086 -5.815,-20.533c3.588,-8.447 12.011,-12.95 18.811,-10.058s9.404,12.085 5.815,20.533z" id="svg_849"/>
     <path fill="#FCF037" d="m47.461,48.929c-3.572,8.432 -11.971,12.934 -18.759,10.055c-6.788,-2.88 -9.395,-12.05 -5.823,-20.483c3.572,-8.432 11.971,-12.934 18.759,-10.054s9.395,12.049 5.823,20.482z" id="svg_850"/>
     <path fill="#FCF038" d="m47.428,48.899c-3.556,8.417 -11.931,12.917 -18.708,10.052c-6.776,-2.867 -9.387,-12.014 -5.831,-20.432c3.555,-8.417 11.931,-12.917 18.708,-10.051c6.777,2.866 9.387,12.013 5.831,20.431z" id="svg_851"/>
     <path fill="#FCF039" d="m47.395,48.87c-3.539,8.403 -11.891,12.901 -18.655,10.049c-6.764,-2.854 -9.379,-11.979 -5.839,-20.381c3.539,-8.402 11.892,-12.901 18.656,-10.048c6.763,2.853 9.378,11.977 5.838,20.38z" id="svg_852"/>
     <path fill="#FCF03A" d="m47.362,48.841c-3.522,8.388 -11.852,12.885 -18.604,10.046c-6.752,-2.841 -9.37,-11.943 -5.847,-20.331c3.522,-8.387 11.852,-12.885 18.604,-10.045c6.753,2.84 9.37,11.942 5.847,20.33z" id="svg_853"/>
     <path fill="#FCF03B" d="m47.33,48.812c-3.506,8.373 -11.812,12.869 -18.552,10.042c-6.74,-2.827 -9.362,-11.907 -5.855,-20.28c3.506,-8.373 11.813,-12.869 18.553,-10.042c6.738,2.827 9.36,11.906 5.854,20.28z" id="svg_854"/>
     <path fill="#FCF03C" d="m47.297,48.783c-3.489,8.358 -11.772,12.853 -18.5,10.039c-6.728,-2.814 -9.354,-11.871 -5.864,-20.229c3.489,-8.358 11.773,-12.853 18.501,-10.039c6.728,2.814 9.353,11.87 5.863,20.229z" id="svg_855"/>
     <path fill="#FCF03D" d="m47.264,48.753c-3.473,8.343 -11.733,12.837 -18.449,10.037c-6.716,-2.801 -9.345,-11.835 -5.872,-20.178c3.473,-8.343 11.733,-12.836 18.449,-10.036c6.716,2.8 9.345,11.834 5.872,20.177z" id="svg_856"/>
     <path fill="#FCF03E" d="m47.231,48.724c-3.456,8.328 -11.693,12.82 -18.397,10.033c-6.704,-2.788 -9.336,-11.799 -5.88,-20.128c3.457,-8.328 11.694,-12.82 18.397,-10.032c6.705,2.787 9.337,11.799 5.88,20.127z" id="svg_857"/>
     <path fill="#FCF03F" d="m47.198,48.695c-3.44,8.313 -11.653,12.804 -18.345,10.03c-6.692,-2.775 -9.328,-11.764 -5.888,-20.077s11.654,-12.804 18.346,-10.029c6.691,2.774 9.327,11.762 5.887,20.076z" id="svg_858"/>
     <path fill="#FCF040" d="m47.166,48.666c-3.423,8.298 -11.614,12.788 -18.294,10.027c-6.68,-2.762 -9.319,-11.727 -5.896,-20.026c3.423,-8.299 11.614,-12.788 18.294,-10.027c6.68,2.761 9.319,11.727 5.896,20.026z" id="svg_859"/>
     <path fill="#FCF041" d="m47.132,48.636c-3.406,8.284 -11.573,12.772 -18.241,10.024c-6.668,-2.749 -9.311,-11.691 -5.904,-19.976c3.407,-8.283 11.575,-12.771 18.243,-10.023c6.666,2.749 9.31,11.692 5.902,19.975z" id="svg_860"/>
     <path fill="#FCF142" d="m47.1,48.607c-3.39,8.269 -11.534,12.755 -18.19,10.021c-6.656,-2.735 -9.303,-11.656 -5.913,-19.925c3.391,-8.269 11.535,-12.755 18.191,-10.02s9.302,11.655 5.912,19.924z" id="svg_861"/>
     <path fill="#FCF143" d="m47.067,48.578c-3.374,8.253 -11.495,12.739 -18.139,10.018c-6.644,-2.722 -9.294,-11.62 -5.92,-19.874s11.496,-12.739 18.139,-10.017s9.294,11.619 5.92,19.873z" id="svg_862"/>
     <path fill="#FCF144" d="m47.034,48.549c-3.357,8.239 -11.455,12.723 -18.087,10.014c-6.632,-2.709 -9.286,-11.583 -5.928,-19.823c3.357,-8.239 11.456,-12.722 18.087,-10.014c6.632,2.709 9.286,11.583 5.928,19.823z" id="svg_863"/>
     <path fill="#FCF145" d="m47.001,48.52c-3.341,8.224 -11.416,12.706 -18.035,10.011c-6.62,-2.696 -9.278,-11.548 -5.937,-19.772c3.34,-8.224 11.416,-12.706 18.035,-10.011s9.278,11.547 5.937,19.772z" id="svg_864"/>
     <path fill="#FDF146" d="m46.968,48.49c-3.324,8.209 -11.375,12.69 -17.983,10.008c-6.607,-2.683 -9.269,-11.512 -5.944,-19.722c3.324,-8.209 11.376,-12.69 17.984,-10.008c6.607,2.683 9.268,11.513 5.943,19.722z" id="svg_865"/>
     <path fill="#FDF147" d="m46.936,48.461c-3.308,8.194 -11.336,12.674 -17.932,10.005c-6.596,-2.669 -9.261,-11.477 -5.953,-19.671c3.308,-8.194 11.336,-12.674 17.932,-10.005c6.596,2.669 9.261,11.476 5.953,19.671z" id="svg_866"/>
     <path fill="#FDF148" d="m46.903,48.432c-3.291,8.18 -11.296,12.658 -17.88,10.002c-6.584,-2.657 -9.252,-11.44 -5.961,-19.621c3.291,-8.179 11.297,-12.657 17.88,-10.001s9.252,11.44 5.961,19.62z" id="svg_867"/>
     <path fill="#FDF149" d="m46.87,48.402c-3.275,8.165 -11.257,12.642 -17.829,9.999c-6.571,-2.643 -9.244,-11.404 -5.969,-19.569c3.274,-8.165 11.257,-12.641 17.829,-9.999c6.572,2.644 9.244,11.404 5.969,19.569z" id="svg_868"/>
     <path fill="#FDF14A" d="m46.837,48.374c-3.258,8.149 -11.217,12.625 -17.776,9.996c-6.56,-2.63 -9.235,-11.369 -5.977,-19.519s11.218,-12.625 17.777,-9.996c6.559,2.63 9.235,11.368 5.976,19.519z" id="svg_869"/>
     <path fill="#FDF14B" d="m46.804,48.344c-3.242,8.135 -11.177,12.609 -17.725,9.993c-6.548,-2.617 -9.228,-11.333 -5.985,-19.468c3.242,-8.135 11.178,-12.608 17.726,-9.992c6.547,2.616 9.226,11.332 5.984,19.467z" id="svg_870"/>
     <path fill="#FDF14C" d="m46.771,48.315c-3.225,8.12 -11.138,12.592 -17.673,9.99c-6.535,-2.604 -9.219,-11.297 -5.993,-19.417c3.225,-8.12 11.138,-12.592 17.674,-9.989c6.535,2.602 9.218,11.295 5.992,19.416z" id="svg_871"/>
     <path fill="#FDF14D" d="m46.739,48.286c-3.208,8.105 -11.098,12.576 -17.622,9.986c-6.523,-2.59 -9.21,-11.261 -6.001,-19.366c3.208,-8.105 11.099,-12.576 17.622,-9.986c6.523,2.59 9.21,11.26 6.001,19.366z" id="svg_872"/>
     <path fill="#FDF14E" d="m46.706,48.256c-3.192,8.09 -11.058,12.56 -17.569,9.983c-6.512,-2.577 -9.202,-11.225 -6.01,-19.316c3.192,-8.09 11.059,-12.56 17.57,-9.982c6.511,2.577 9.201,11.225 6.009,19.315z" id="svg_873"/>
     <path fill="#FDF24F" d="m46.673,48.227c-3.175,8.076 -11.019,12.544 -17.518,9.98c-6.499,-2.564 -9.193,-11.189 -6.018,-19.265c3.176,-8.075 11.02,-12.543 17.519,-9.979c6.499,2.563 9.193,11.188 6.017,19.264z" id="svg_874"/>
     <path fill="#FDF250" d="m46.64,48.198c-3.159,8.061 -10.979,12.528 -17.466,9.978c-6.487,-2.551 -9.185,-11.153 -6.026,-19.214c3.159,-8.061 10.98,-12.527 17.467,-9.977c6.487,2.55 9.184,11.152 6.025,19.213z" id="svg_875"/>
     <path fill="#FDF251" d="m46.607,48.168c-3.143,8.046 -10.939,12.512 -17.415,9.975c-6.476,-2.538 -9.177,-11.118 -6.034,-19.164c3.143,-8.046 10.94,-12.511 17.416,-9.974c6.475,2.538 9.176,11.118 6.033,19.163z" id="svg_876"/>
     <path fill="#FDF252" d="m46.575,48.14c-3.126,8.031 -10.9,12.495 -17.363,9.971c-6.463,-2.524 -9.168,-11.082 -6.042,-19.113c3.126,-8.031 10.9,-12.495 17.363,-9.97c6.463,2.524 9.168,11.08 6.042,19.112z" id="svg_877"/>
     <path fill="#FDF253" d="m46.542,48.11c-3.109,8.016 -10.86,12.479 -17.311,9.968c-6.451,-2.512 -9.16,-11.046 -6.05,-19.062c3.109,-8.016 10.86,-12.478 17.311,-9.967c6.451,2.511 9.159,11.045 6.05,19.061z" id="svg_878"/>
     <path fill="#FDF254" d="m46.509,48.081c-3.093,8.001 -10.82,12.462 -17.259,9.965c-6.439,-2.499 -9.152,-11.01 -6.058,-19.011c3.093,-8.001 10.821,-12.462 17.26,-9.964s9.15,11.009 6.057,19.01z" id="svg_879"/>
     <path fill="#FDF255" d="m46.476,48.052c-3.077,7.986 -10.781,12.446 -17.208,9.962c-6.427,-2.485 -9.143,-10.974 -6.066,-18.961c3.077,-7.986 10.781,-12.446 17.208,-9.961s9.143,10.973 6.066,18.96z" id="svg_880"/>
     <path fill="#FDF256" d="m46.443,48.022c-3.06,7.972 -10.741,12.43 -17.156,9.959c-6.415,-2.473 -9.135,-10.938 -6.074,-18.91c3.06,-7.971 10.742,-12.43 17.157,-9.958c6.414,2.472 9.133,10.938 6.073,18.909z" id="svg_881"/>
     <path fill="#FDF257" d="m46.41,47.993c-3.043,7.957 -10.701,12.414 -17.104,9.956c-6.403,-2.459 -9.126,-10.902 -6.083,-18.859c3.043,-7.957 10.702,-12.414 17.105,-9.955c6.403,2.458 9.126,10.902 6.082,18.858z" id="svg_882"/>
     <path fill="#FDF258" d="m46.377,47.964c-3.027,7.942 -10.662,12.398 -17.053,9.953c-6.391,-2.446 -9.118,-10.866 -6.09,-18.809c3.027,-7.941 10.663,-12.397 17.053,-9.952s9.118,10.866 6.09,18.808z" id="svg_883"/>
     <path fill="#FDF259" d="m46.345,47.935c-3.01,7.927 -10.623,12.381 -17.001,9.949c-6.379,-2.433 -9.109,-10.831 -6.099,-18.758c3.011,-7.927 10.623,-12.381 17.001,-9.949c6.379,2.433 9.109,10.831 6.099,18.758z" id="svg_884"/>
     <path fill="#FDF25A" d="m46.312,47.906c-2.994,7.912 -10.583,12.365 -16.95,9.946c-6.367,-2.42 -9.101,-10.795 -6.106,-18.707s10.583,-12.365 16.95,-9.946s9.1,10.794 6.106,18.707z" id="svg_885"/>
     <path fill="#FDF25B" d="m46.279,47.876c-2.977,7.897 -10.543,12.349 -16.897,9.943c-6.354,-2.406 -9.092,-10.759 -6.115,-18.656c2.978,-7.896 10.543,-12.348 16.898,-9.942c6.355,2.406 9.092,10.758 6.114,18.655z" id="svg_886"/>
     <path fill="#FDF35C" d="m46.246,47.847c-2.961,7.882 -10.503,12.333 -16.846,9.94c-6.343,-2.393 -9.084,-10.723 -6.123,-18.605c2.961,-7.882 10.504,-12.332 16.847,-9.939c6.342,2.392 9.084,10.722 6.122,18.604z" id="svg_887"/>
     <path fill="#FDF35D" d="m46.213,47.818c-2.944,7.867 -10.464,12.316 -16.794,9.937c-6.331,-2.38 -9.075,-10.687 -6.131,-18.555c2.945,-7.867 10.464,-12.316 16.795,-9.936c6.331,2.38 9.075,10.686 6.13,18.554z" id="svg_888"/>
     <path fill="#FDF35E" d="m46.181,47.789c-2.928,7.853 -10.424,12.3 -16.743,9.934c-6.318,-2.367 -9.067,-10.651 -6.139,-18.504s10.425,-12.3 16.743,-9.933c6.318,2.366 9.067,10.65 6.139,18.503z" id="svg_889"/>
     <path fill="#FDF35F" d="m46.147,47.759c-2.911,7.838 -10.384,12.284 -16.69,9.931c-6.307,-2.354 -9.059,-10.616 -6.147,-18.454c2.912,-7.837 10.385,-12.283 16.691,-9.93c6.307,2.354 9.059,10.615 6.146,18.453z" id="svg_890"/>
     <path fill="#FDF360" d="m46.115,47.73c-2.895,7.822 -10.345,12.267 -16.639,9.927c-6.294,-2.34 -9.05,-10.579 -6.155,-18.402c2.895,-7.823 10.345,-12.267 16.639,-9.927c6.294,2.34 9.05,10.579 6.155,18.402z" id="svg_891"/>
     <path fill="#FDF361" d="m46.082,47.701c-2.878,7.808 -10.305,12.251 -16.587,9.924c-6.283,-2.328 -9.042,-10.543 -6.163,-18.352c2.878,-7.808 10.305,-12.251 16.588,-9.924c6.282,2.328 9.041,10.544 6.162,18.352z" id="svg_892"/>
     <path fill="#FDF362" d="m46.049,47.672c-2.862,7.793 -10.266,12.235 -16.536,9.921c-6.271,-2.314 -9.034,-10.508 -6.171,-18.301c2.862,-7.792 10.266,-12.234 16.536,-9.92c6.27,2.313 9.033,10.506 6.171,18.3z" id="svg_893"/>
     <path fill="#FDF363" d="m46.017,47.643c-2.846,7.778 -10.226,12.219 -16.484,9.918c-6.258,-2.301 -9.025,-10.472 -6.179,-18.25c2.845,-7.778 10.226,-12.218 16.484,-9.917c6.258,2.299 9.024,10.47 6.179,18.249z" id="svg_894"/>
     <path fill="#FDF364" d="m45.983,47.613c-2.829,7.763 -10.186,12.203 -16.432,9.916c-6.247,-2.288 -9.017,-10.436 -6.188,-18.2c2.829,-7.763 10.187,-12.202 16.433,-9.915s9.017,10.436 6.187,18.199z" id="svg_895"/>
     <path fill="#FDF365" d="m45.951,47.584c-2.812,7.749 -10.146,12.187 -16.38,9.912c-6.234,-2.275 -9.008,-10.4 -6.196,-18.149c2.813,-7.748 10.147,-12.186 16.381,-9.911c6.234,2.274 9.007,10.399 6.195,18.148z" id="svg_896"/>
     <path fill="#FDF366" d="m45.918,47.555c-2.796,7.734 -10.107,12.17 -16.329,9.909c-6.222,-2.262 -9,-10.364 -6.204,-18.098c2.796,-7.733 10.107,-12.169 16.329,-9.908s9,10.363 6.204,18.097z" id="svg_897"/>
     <path fill="#FDF367" d="m45.885,47.525c-2.779,7.719 -10.067,12.154 -16.277,9.906c-6.21,-2.249 -8.992,-10.329 -6.212,-18.047c2.779,-7.719 10.067,-12.153 16.278,-9.905c6.21,2.248 8.991,10.328 6.211,18.046z" id="svg_898"/>
     <path fill="#FDF368" d="m45.852,47.497c-2.763,7.704 -10.027,12.137 -16.225,9.903c-6.198,-2.236 -8.983,-10.292 -6.22,-17.997c2.763,-7.704 10.028,-12.137 16.226,-9.902c6.198,2.234 8.982,10.291 6.219,17.996z" id="svg_899"/>
     <path fill="#FDF469" d="m45.819,47.467c-2.746,7.689 -9.988,12.121 -16.174,9.899c-6.186,-2.222 -8.975,-10.256 -6.228,-17.946c2.747,-7.688 9.988,-12.121 16.174,-9.899s8.975,10.257 6.228,17.946z" id="svg_900"/>
     <path fill="#FDF46A" d="m45.787,47.438c-2.73,7.674 -9.948,12.105 -16.122,9.896c-6.174,-2.209 -8.966,-10.221 -6.236,-17.895c2.73,-7.674 9.949,-12.104 16.123,-9.896s8.965,10.221 6.235,17.895z" id="svg_901"/>
     <path fill="#FDF46B" d="m45.754,47.409c-2.713,7.659 -9.909,12.089 -16.07,9.894c-6.162,-2.196 -8.958,-10.185 -6.245,-17.844s9.909,-12.088 16.071,-9.893c6.162,2.194 8.957,10.183 6.244,17.843z" id="svg_902"/>
     <path fill="#FDF46C" d="m45.721,47.379c-2.696,7.645 -9.869,12.073 -16.019,9.891c-6.15,-2.183 -8.949,-10.149 -6.252,-17.794c2.697,-7.644 9.87,-12.072 16.02,-9.89c6.149,2.183 8.948,10.149 6.251,17.793z" id="svg_903"/>
     <path fill="#FDF46D" d="m45.688,47.35c-2.68,7.629 -9.829,12.056 -15.967,9.888c-6.138,-2.17 -8.941,-10.113 -6.261,-17.743c2.681,-7.629 9.83,-12.056 15.968,-9.887c6.138,2.169 8.941,10.113 6.26,17.742z" id="svg_904"/>
     <path fill="#FDF46E" d="m45.655,47.321c-2.664,7.615 -9.79,12.04 -15.915,9.884c-6.126,-2.156 -8.933,-10.077 -6.269,-17.692c2.664,-7.615 9.79,-12.04 15.916,-9.883c6.126,2.156 8.932,10.076 6.268,17.691z" id="svg_905"/>
     <path fill="#FDF46F" d="m45.623,47.292c-2.647,7.6 -9.75,12.023 -15.864,9.881c-6.114,-2.143 -8.924,-10.042 -6.276,-17.642c2.647,-7.599 9.75,-12.023 15.864,-9.88c6.113,2.143 8.923,10.041 6.276,17.641z" id="svg_906"/>
     <path fill="#FDF470" d="m45.589,47.263c-2.63,7.584 -9.71,12.007 -15.812,9.878c-6.102,-2.13 -8.916,-10.005 -6.285,-17.591c2.631,-7.584 9.71,-12.007 15.812,-9.877c6.103,2.129 8.917,10.004 6.285,17.59z" id="svg_907"/>
     <path fill="#FDF471" d="m45.557,47.233c-2.614,7.57 -9.67,11.991 -15.76,9.875c-6.09,-2.117 -8.908,-9.97 -6.293,-17.54c2.614,-7.57 9.671,-11.991 15.76,-9.874c6.09,2.117 8.907,9.969 6.293,17.539z" id="svg_908"/>
     <path fill="#FDF472" d="m45.524,47.204c-2.598,7.555 -9.631,11.975 -15.708,9.872s-8.899,-9.934 -6.301,-17.489c2.598,-7.555 9.631,-11.975 15.709,-9.871c6.077,2.103 8.898,9.932 6.3,17.488z" id="svg_909"/>
     <path fill="#FDF473" d="m45.491,47.175c-2.581,7.541 -9.591,11.958 -15.657,9.869c-6.066,-2.091 -8.891,-9.898 -6.309,-17.438c2.581,-7.54 9.591,-11.958 15.657,-9.868c6.066,2.089 8.891,9.896 6.309,17.437z" id="svg_910"/>
     <path fill="#FDF474" d="m45.458,47.146c-2.565,7.525 -9.552,11.942 -15.605,9.866c-6.054,-2.078 -8.882,-9.862 -6.317,-17.388c2.565,-7.525 9.552,-11.942 15.605,-9.865c6.054,2.076 8.882,9.861 6.317,17.387z" id="svg_911"/>
     <path fill="#FDF475" d="m45.425,47.116c-2.548,7.511 -9.512,11.926 -15.553,9.863c-6.042,-2.064 -8.874,-9.826 -6.325,-17.337s9.512,-11.926 15.554,-9.862c6.041,2.064 8.873,9.825 6.324,17.336z" id="svg_912"/>
     <path fill="#FDF576" d="m45.393,47.087c-2.532,7.496 -9.472,11.91 -15.501,9.86c-6.03,-2.051 -8.865,-9.791 -6.333,-17.287c2.532,-7.495 9.473,-11.909 15.502,-9.858s8.863,9.789 6.332,17.285z" id="svg_913"/>
     <path fill="#FDF577" d="m45.36,47.058c-2.515,7.48 -9.433,11.894 -15.45,9.856c-6.018,-2.038 -8.857,-9.754 -6.342,-17.235c2.515,-7.48 9.433,-11.893 15.45,-9.855c6.018,2.037 8.857,9.753 6.342,17.234z" id="svg_914"/>
     <path fill="#FDF578" d="m45.327,47.029c-2.499,7.466 -9.393,11.877 -15.398,9.853c-6.005,-2.025 -8.848,-9.718 -6.35,-17.185c2.499,-7.466 9.394,-11.877 15.399,-9.853c6.005,2.025 8.848,9.719 6.349,17.185z" id="svg_915"/>
     <path fill="#FDF579" d="m45.294,47c-2.482,7.451 -9.353,11.861 -15.346,9.85c-5.994,-2.012 -8.84,-9.683 -6.358,-17.134c2.482,-7.451 9.354,-11.86 15.347,-9.849s8.839,9.681 6.357,17.133z" id="svg_916"/>
     <path fill="#FDF57A" d="m45.261,46.97c-2.465,7.436 -9.313,11.845 -15.294,9.847c-5.982,-1.999 -8.832,-9.647 -6.366,-17.083c2.466,-7.436 9.314,-11.844 15.295,-9.846c5.981,1.998 8.831,9.646 6.365,17.082z" id="svg_917"/>
     <path fill="#FDF57B" d="m45.229,46.941c-2.449,7.421 -9.274,11.829 -15.243,9.844c-5.969,-1.986 -8.823,-9.611 -6.374,-17.033c2.45,-7.421 9.274,-11.828 15.244,-9.843s8.822,9.611 6.373,17.032z" id="svg_918"/>
     <path fill="#FDF57C" d="m45.196,46.912c-2.433,7.407 -9.234,11.813 -15.191,9.841c-5.958,-1.972 -8.815,-9.575 -6.382,-16.981c2.433,-7.406 9.234,-11.812 15.191,-9.84s8.814,9.573 6.382,16.98z" id="svg_919"/>
     <path fill="#FDF57D" d="m45.163,46.882c-2.416,7.392 -9.194,11.796 -15.139,9.838c-5.946,-1.959 -8.807,-9.539 -6.39,-16.931c2.416,-7.391 9.195,-11.795 15.14,-9.837c5.944,1.959 8.805,9.539 6.389,16.93z" id="svg_920"/>
     <path fill="#FDF57E" d="m45.13,46.854c-2.399,7.376 -9.155,11.78 -15.088,9.834c-5.933,-1.946 -8.798,-9.503 -6.398,-16.88c2.399,-7.376 9.155,-11.779 15.088,-9.834c5.933,1.945 8.798,9.502 6.398,16.88z" id="svg_921"/>
     <path fill="#FDF57F" d="m45.097,46.824c-2.383,7.362 -9.115,11.764 -15.036,9.832c-5.921,-1.933 -8.79,-9.468 -6.406,-16.83s9.116,-11.763 15.037,-9.831c5.92,1.933 8.788,9.467 6.405,16.829z" id="svg_922"/>
     <path fill="#FDF580" d="m45.064,46.795c-2.367,7.347 -9.076,11.747 -14.985,9.828c-5.909,-1.919 -8.781,-9.431 -6.414,-16.779c2.367,-7.347 9.076,-11.747 14.985,-9.827c5.909,1.919 8.781,9.431 6.414,16.778z" id="svg_923"/>
     <path fill="#FDF581" d="m45.032,46.766c-2.35,7.332 -9.036,11.731 -14.933,9.825c-5.897,-1.906 -8.772,-9.396 -6.422,-16.728c2.35,-7.332 9.036,-11.73 14.933,-9.824c5.896,1.905 8.772,9.394 6.422,16.727z" id="svg_924"/>
     <path fill="#FDF582" d="m44.999,46.736c-2.333,7.317 -8.996,11.715 -14.881,9.822c-5.885,-1.894 -8.764,-9.36 -6.431,-16.677s8.997,-11.714 14.881,-9.821c5.885,1.893 8.765,9.359 6.431,16.676z" id="svg_925"/>
     <path fill="#FDF683" d="m44.966,46.707c-2.317,7.303 -8.957,11.699 -14.83,9.819c-5.873,-1.88 -8.756,-9.324 -6.438,-16.627c2.317,-7.302 8.957,-11.698 14.83,-9.818c5.872,1.88 8.755,9.323 6.438,16.626z" id="svg_926"/>
     <path fill="#FDF684" d="m44.933,46.678c-2.3,7.288 -8.917,11.683 -14.778,9.816c-5.861,-1.867 -8.748,-9.288 -6.447,-16.576c2.301,-7.287 8.917,-11.682 14.778,-9.815c5.861,1.866 8.748,9.287 6.447,16.575z" id="svg_927"/>
     <path fill="#FDF685" d="m44.9,46.649c-2.284,7.272 -8.877,11.666 -14.726,9.813c-5.849,-1.854 -8.739,-9.252 -6.455,-16.525c2.284,-7.272 8.878,-11.666 14.727,-9.812c5.848,1.853 8.739,9.251 6.454,16.524z" id="svg_928"/>
     <path fill="#FDF686" d="m44.867,46.62c-2.267,7.258 -8.837,11.65 -14.674,9.81c-5.837,-1.841 -8.73,-9.216 -6.463,-16.474s8.838,-11.649 14.675,-9.809c5.836,1.839 8.73,9.214 6.462,16.473z" id="svg_929"/>
     <path fill="#FDF687" d="m44.834,46.59c-2.251,7.243 -8.798,11.633 -14.623,9.807c-5.825,-1.828 -8.722,-9.181 -6.471,-16.424c2.251,-7.243 8.798,-11.633 14.623,-9.806c5.825,1.827 8.722,9.18 6.471,16.423z" id="svg_930"/>
     <path fill="#FDF688" d="m44.802,46.561c-2.234,7.228 -8.758,11.617 -14.571,9.804c-5.813,-1.814 -8.714,-9.145 -6.479,-16.373c2.235,-7.228 8.759,-11.617 14.572,-9.803c5.811,1.814 8.712,9.144 6.478,16.372z" id="svg_931"/>
     <path fill="#FDF689" d="m44.769,46.532c-2.218,7.213 -8.719,11.601 -14.52,9.801c-5.801,-1.802 -8.705,-9.109 -6.487,-16.322c2.218,-7.213 8.719,-11.601 14.52,-9.8c5.801,1.8 8.705,9.107 6.487,16.321z" id="svg_932"/>
     <path fill="#FDF68A" d="m44.736,46.502c-2.201,7.198 -8.679,11.585 -14.467,9.797c-5.789,-1.788 -8.697,-9.073 -6.495,-16.271c2.201,-7.198 8.679,-11.584 14.468,-9.796c5.787,1.788 8.696,9.072 6.494,16.27z" id="svg_933"/>
     <path fill="#FDF68B" d="m44.703,46.473c-2.185,7.184 -8.639,11.569 -14.416,9.794c-5.777,-1.775 -8.688,-9.037 -6.503,-16.221c2.185,-7.183 8.64,-11.568 14.416,-9.793s8.688,9.037 6.503,16.22z" id="svg_934"/>
     <path fill="#FDF68C" d="m44.67,46.444c-2.168,7.169 -8.6,11.553 -14.364,9.792c-5.765,-1.762 -8.68,-9.001 -6.511,-16.17c2.168,-7.168 8.6,-11.552 14.364,-9.791s8.68,9 6.511,16.169z" id="svg_935"/>
     <path fill="#FDF68D" d="m44.638,46.415c-2.152,7.153 -8.56,11.536 -14.313,9.788c-5.752,-1.749 -8.672,-8.965 -6.52,-16.12c2.152,-7.153 8.56,-11.535 14.313,-9.787s8.672,8.965 6.52,16.119z" id="svg_936"/>
     <path fill="#FDF68E" d="m44.604,46.386c-2.135,7.139 -8.52,11.52 -14.26,9.785c-5.741,-1.735 -8.664,-8.929 -6.528,-16.068c2.135,-7.139 8.521,-11.519 14.261,-9.784c5.74,1.734 8.663,8.928 6.527,16.067z" id="svg_937"/>
     <path fill="#FDF68F" d="m44.572,46.356c-2.119,7.124 -8.48,11.503 -14.209,9.782c-5.729,-1.722 -8.655,-8.894 -6.536,-16.018s8.481,-11.503 14.209,-9.781c5.729,1.722 8.655,8.893 6.536,16.017z" id="svg_938"/>
     <path fill="#FEF790" d="m44.539,46.327c-2.103,7.109 -8.441,11.487 -14.157,9.779c-5.716,-1.709 -8.646,-8.857 -6.544,-15.967c2.103,-7.109 8.441,-11.487 14.158,-9.778c5.715,1.709 8.646,8.857 6.543,15.966z" id="svg_939"/>
     <path fill="#FEF791" d="m44.506,46.298c-2.086,7.094 -8.401,11.471 -14.105,9.776c-5.705,-1.696 -8.638,-8.822 -6.552,-15.917c2.086,-7.094 8.402,-11.47 14.106,-9.774c5.704,1.695 8.637,8.821 6.551,15.915z" id="svg_940"/>
     <path fill="#FEF792" d="m44.474,46.269c-2.069,7.08 -8.362,11.455 -14.054,9.773c-5.692,-1.683 -8.629,-8.786 -6.56,-15.866c2.07,-7.079 8.362,-11.455 14.054,-9.771c5.692,1.681 8.629,8.784 6.56,15.864z" id="svg_941"/>
     <path fill="#FEF793" d="m44.44,46.239c-2.053,7.065 -8.322,11.439 -14.002,9.77c-5.681,-1.669 -8.621,-8.75 -6.568,-15.814c2.053,-7.064 8.323,-11.438 14.003,-9.769c5.68,1.669 8.621,8.749 6.567,15.813z" id="svg_942"/>
     <path fill="#FEF794" d="m44.408,46.21c-2.036,7.049 -8.282,11.422 -13.95,9.766c-5.668,-1.657 -8.613,-8.714 -6.577,-15.764c2.037,-7.049 8.283,-11.422 13.951,-9.765c5.668,1.656 8.612,8.713 6.576,15.763z" id="svg_943"/>
     <path fill="#FEF795" d="m44.375,46.181c-2.02,7.035 -8.243,11.406 -13.899,9.763c-5.656,-1.644 -8.604,-8.678 -6.584,-15.713c2.02,-7.035 8.243,-11.406 13.899,-9.762c5.656,1.642 8.604,8.677 6.584,15.712z" id="svg_944"/>
     <path fill="#FEF796" d="m44.342,46.152c-2.003,7.02 -8.203,11.39 -13.847,9.76c-5.645,-1.63 -8.596,-8.643 -6.593,-15.663c2.004,-7.02 8.204,-11.39 13.848,-9.759c5.644,1.63 8.596,8.642 6.592,15.662z" id="svg_945"/>
     <path fill="#FEF797" d="m44.309,46.123c-1.986,7.005 -8.163,11.374 -13.795,9.757c-5.632,-1.617 -8.588,-8.606 -6.601,-15.612c1.987,-7.004 8.164,-11.373 13.795,-9.756c5.633,1.616 8.588,8.605 6.601,15.611z" id="svg_946"/>
     <path fill="#FEF798" d="m44.276,46.093c-1.97,6.99 -8.124,11.357 -13.744,9.754c-5.62,-1.604 -8.579,-8.571 -6.608,-15.561c1.97,-6.99 8.124,-11.357 13.744,-9.753c5.62,1.603 8.579,8.57 6.608,15.56z" id="svg_947"/>
     <path fill="#FEF799" d="m44.244,46.064c-1.954,6.976 -8.084,11.341 -13.692,9.751c-5.608,-1.591 -8.571,-8.535 -6.617,-15.51c1.954,-6.975 8.084,-11.341 13.692,-9.75c5.608,1.59 8.571,8.533 6.617,15.509z" id="svg_948"/>
     <path fill="#FEF79A" d="m44.211,46.035c-1.938,6.96 -8.044,11.325 -13.64,9.748c-5.596,-1.578 -8.563,-8.499 -6.625,-15.46c1.938,-6.96 8.044,-11.324 13.641,-9.747c5.595,1.577 8.561,8.498 6.624,15.459z" id="svg_949"/>
     <path fill="#FEF79B" d="m44.178,46.005c-1.92,6.946 -8.004,11.309 -13.588,9.745c-5.584,-1.565 -8.554,-8.463 -6.633,-15.409c1.921,-6.945 8.005,-11.308 13.589,-9.744c5.583,1.565 8.553,8.463 6.632,15.408z" id="svg_950"/>
     <path fill="#FEF79C" d="m44.145,45.977c-1.904,6.931 -7.965,11.292 -13.537,9.741c-5.572,-1.551 -8.545,-8.427 -6.641,-15.358s7.965,-11.292 13.537,-9.741c5.572,1.551 8.545,8.426 6.641,15.358z" id="svg_951"/>
     <path fill="#FEF79D" d="m44.112,45.947c-1.888,6.916 -7.925,11.276 -13.485,9.738c-5.56,-1.538 -8.537,-8.391 -6.649,-15.307s7.926,-11.276 13.485,-9.738c5.56,1.538 8.537,8.391 6.649,15.307z" id="svg_952"/>
     <path fill="#FEF89E" d="m44.08,45.918c-1.871,6.901 -7.886,11.26 -13.434,9.735c-5.548,-1.525 -8.529,-8.355 -6.657,-15.257c1.872,-6.9 7.886,-11.259 13.434,-9.734c5.547,1.525 8.528,8.355 6.657,15.256z" id="svg_953"/>
     <path fill="#FEF89F" d="m44.046,45.889c-1.854,6.886 -7.846,11.244 -13.381,9.732c-5.536,-1.512 -8.521,-8.32 -6.666,-15.206c1.855,-6.886 7.847,-11.243 13.382,-9.731c5.536,1.511 8.52,8.318 6.665,15.205z" id="svg_954"/>
     <path fill="#FEF8A0" d="m44.014,45.859c-1.838,6.872 -7.806,11.228 -13.33,9.729c-5.524,-1.499 -8.512,-8.284 -6.674,-15.155s7.807,-11.227 13.331,-9.729c5.523,1.499 8.511,8.284 6.673,15.155z" id="svg_955"/>
     <path fill="#FEF8A1" d="m43.981,45.83c-1.822,6.856 -7.767,11.211 -13.278,9.726c-5.512,-1.485 -8.503,-8.248 -6.682,-15.104c1.822,-6.856 7.767,-11.21 13.279,-9.725c5.511,1.484 8.503,8.247 6.681,15.103z" id="svg_956"/>
     <path fill="#FEF8A2" d="m43.948,45.801c-1.805,6.842 -7.727,11.195 -13.227,9.723c-5.5,-1.472 -8.495,-8.212 -6.69,-15.054c1.806,-6.841 7.728,-11.194 13.227,-9.722c5.5,1.472 8.495,8.211 6.69,15.053z" id="svg_957"/>
     <path fill="#FEF8A3" d="m43.916,45.772c-1.789,6.827 -7.688,11.178 -13.175,9.72c-5.487,-1.459 -8.486,-8.176 -6.698,-15.003c1.789,-6.827 7.688,-11.178 13.175,-9.719c5.487,1.459 8.486,8.175 6.698,15.002z" id="svg_958"/>
     <path fill="#FEF8A4" d="m43.882,45.743c-1.772,6.812 -7.647,11.162 -13.123,9.717c-5.476,-1.446 -8.478,-8.141 -6.706,-14.953c1.772,-6.812 7.648,-11.162 13.124,-9.715c5.475,1.445 8.478,8.139 6.705,14.951z" id="svg_959"/>
     <path fill="#FEF8A5" d="m43.85,45.713c-1.755,6.797 -7.608,11.146 -13.071,9.713c-5.464,-1.433 -8.47,-8.104 -6.714,-14.901c1.755,-6.796 7.608,-11.146 13.072,-9.712c5.462,1.432 8.468,8.103 6.713,14.9z" id="svg_960"/>
     <path fill="#FEF8A6" d="m43.817,45.684c-1.739,6.782 -7.568,11.13 -13.02,9.71c-5.451,-1.42 -8.461,-8.068 -6.722,-14.851c1.739,-6.782 7.569,-11.129 13.02,-9.709c5.451,1.419 8.461,8.068 6.722,14.85z" id="svg_961"/>
     <path fill="#FEF8A7" d="m43.784,45.655c-1.723,6.767 -7.529,11.113 -12.968,9.708c-5.439,-1.407 -8.453,-8.033 -6.73,-14.8s7.529,-11.113 12.968,-9.707c5.439,1.406 8.453,8.031 6.73,14.799z" id="svg_962"/>
     <path fill="#FEF8A8" d="m43.751,45.625c-1.706,6.752 -7.489,11.097 -12.916,9.705c-5.428,-1.394 -8.445,-7.997 -6.738,-14.75c1.706,-6.752 7.489,-11.097 12.917,-9.703c5.426,1.393 8.444,7.996 6.737,14.748z" id="svg_963"/>
     <path fill="#FEF8A9" d="m43.718,45.596c-1.689,6.738 -7.449,11.081 -12.865,9.702c-5.416,-1.38 -8.436,-7.961 -6.746,-14.699c1.69,-6.737 7.45,-11.081 12.865,-9.7c5.415,1.379 8.436,7.96 6.746,14.697z" id="svg_964"/>
     <path fill="#FEF8AA" d="m43.686,45.567c-1.673,6.722 -7.41,11.064 -12.813,9.698c-5.403,-1.367 -8.428,-7.925 -6.754,-14.647s7.41,-11.064 12.813,-9.697c5.402,1.366 8.427,7.923 6.754,14.646z" id="svg_965"/>
     <path fill="#FEF9AB" d="m43.653,45.538c-1.657,6.708 -7.37,11.048 -12.761,9.695c-5.392,-1.354 -8.419,-7.889 -6.763,-14.597c1.657,-6.707 7.371,-11.048 12.762,-9.694c5.39,1.353 8.419,7.888 6.762,14.596z" id="svg_966"/>
     <path fill="#FEF9AC" d="m43.62,45.509c-1.64,6.693 -7.33,11.032 -12.709,9.692c-5.379,-1.341 -8.411,-7.854 -6.771,-14.546c1.64,-6.692 7.331,-11.032 12.71,-9.691c5.379,1.34 8.41,7.851 6.77,14.545z" id="svg_967"/>
     <path fill="#FEF9AD" d="m43.587,45.479c-1.624,6.678 -7.291,11.016 -12.658,9.689c-5.367,-1.328 -8.402,-7.817 -6.779,-14.496c1.624,-6.678 7.292,-11.016 12.658,-9.688c5.367,1.328 8.402,7.817 6.779,14.495z" id="svg_968"/>
     <path fill="#FEF9AE" d="m43.554,45.45c-1.607,6.663 -7.251,11 -12.606,9.686c-5.355,-1.315 -8.394,-7.782 -6.787,-14.445c1.607,-6.663 7.251,-10.999 12.606,-9.685c5.356,1.314 8.394,7.781 6.787,14.444z" id="svg_969"/>
     <path fill="#FEF9AF" d="m43.521,45.421c-1.59,6.648 -7.211,10.983 -12.555,9.683c-5.343,-1.301 -8.385,-7.746 -6.795,-14.394c1.591,-6.648 7.212,-10.983 12.555,-9.682c5.343,1.301 8.386,7.744 6.795,14.393z" id="svg_970"/>
     <path fill="#FEF9B0" d="m43.489,45.392c-1.574,6.634 -7.172,10.967 -12.503,9.68c-5.331,-1.288 -8.377,-7.71 -6.803,-14.343c1.574,-6.633 7.172,-10.967 12.503,-9.679c5.331,1.287 8.377,7.708 6.803,14.342z" id="svg_971"/>
     <path fill="#FEF9B1" d="m43.456,45.362c-1.557,6.619 -7.132,10.951 -12.451,9.677c-5.319,-1.275 -8.369,-7.674 -6.812,-14.292c1.558,-6.619 7.133,-10.951 12.452,-9.676c5.318,1.274 8.368,7.673 6.811,14.291z" id="svg_972"/>
     <path fill="#FEF9B2" d="m43.423,45.333c-1.541,6.604 -7.092,10.935 -12.399,9.673c-5.307,-1.262 -8.36,-7.638 -6.819,-14.242c1.542,-6.603 7.093,-10.934 12.4,-9.672c5.306,1.262 8.359,7.637 6.818,14.241z" id="svg_973"/>
     <path fill="#FEF9B3" d="m43.39,45.304c-1.524,6.589 -7.053,10.918 -12.348,9.67s-8.352,-7.602 -6.827,-14.191c1.524,-6.588 7.053,-10.918 12.348,-9.669c5.294,1.248 8.352,7.601 6.827,14.19z" id="svg_974"/>
     <path fill="#FEF9B4" d="m43.357,45.275c-1.508,6.574 -7.013,10.902 -12.296,9.667c-5.283,-1.235 -8.344,-7.566 -6.835,-14.14c1.508,-6.574 7.013,-10.902 12.296,-9.666c5.283,1.235 8.343,7.565 6.835,14.139z" id="svg_975"/>
     <path fill="#FEF9B5" d="m43.324,45.246c-1.491,6.559 -6.973,10.886 -12.244,9.664c-5.271,-1.223 -8.335,-7.53 -6.843,-14.09c1.492,-6.559 6.974,-10.885 12.245,-9.663c5.269,1.222 8.334,7.53 6.842,14.089z" id="svg_976"/>
     <path fill="#FEF9B6" d="m43.292,45.216c-1.475,6.544 -6.934,10.87 -12.192,9.661c-5.259,-1.209 -8.327,-7.495 -6.852,-14.039c1.475,-6.544 6.934,-10.869 12.193,-9.66c5.258,1.209 8.326,7.494 6.851,14.038z" id="svg_977"/>
     <path fill="#FEF9B7" d="m43.259,45.187c-1.458,6.529 -6.894,10.854 -12.141,9.658c-5.247,-1.196 -8.318,-7.459 -6.86,-13.988s6.895,-10.853 12.141,-9.657c5.247,1.196 8.318,7.458 6.86,13.987z" id="svg_978"/>
     <path fill="#FEFAB8" d="m43.226,45.158c-1.442,6.515 -6.854,10.837 -12.089,9.655s-8.31,-7.423 -6.868,-13.938c1.442,-6.514 6.855,-10.836 12.089,-9.653c5.235,1.182 8.31,7.421 6.868,13.936z" id="svg_979"/>
     <path fill="#FEFAB9" d="m43.193,45.129c-1.425,6.5 -6.814,10.821 -12.037,9.651c-5.223,-1.17 -8.301,-7.387 -6.876,-13.887c1.426,-6.499 6.815,-10.82 12.038,-9.65c5.222,1.169 8.301,7.386 6.875,13.886z" id="svg_980"/>
     <path fill="#FEFABA" d="m43.16,45.1c-1.409,6.484 -6.775,10.805 -11.985,9.648c-5.211,-1.157 -8.293,-7.351 -6.884,-13.836c1.409,-6.484 6.776,-10.804 11.986,-9.647c5.21,1.155 8.292,7.35 6.883,13.835z" id="svg_981"/>
     <path fill="#FEFABB" d="m43.127,45.07c-1.393,6.47 -6.735,10.788 -11.934,9.646c-5.199,-1.144 -8.285,-7.315 -6.892,-13.785s6.736,-10.788 11.935,-9.645c5.198,1.143 8.284,7.314 6.891,13.784z" id="svg_982"/>
     <path fill="#FEFABC" d="m43.095,45.041c-1.376,6.455 -6.696,10.772 -11.882,9.642c-5.187,-1.13 -8.276,-7.279 -6.9,-13.734c1.376,-6.455 6.696,-10.771 11.883,-9.641c5.185,1.129 8.275,7.278 6.899,13.733z" id="svg_983"/>
     <path fill="#FEFABD" d="m43.062,45.012c-1.359,6.44 -6.656,10.756 -11.83,9.639c-5.175,-1.117 -8.268,-7.243 -6.909,-13.684c1.36,-6.44 6.657,-10.755 11.831,-9.638c5.174,1.117 8.267,7.242 6.908,13.683z" id="svg_984"/>
     <path fill="#FEFABE" d="m43.029,44.982c-1.343,6.425 -6.616,10.74 -11.779,9.636c-5.163,-1.104 -8.259,-7.208 -6.917,-13.633c1.343,-6.425 6.617,-10.739 11.779,-9.635c5.163,1.104 8.26,7.207 6.917,13.632z" id="svg_985"/>
     <path fill="#FEFABF" d="m42.996,44.953c-1.326,6.411 -6.577,10.724 -11.727,9.633c-5.15,-1.091 -8.251,-7.172 -6.925,-13.583c1.327,-6.41 6.578,-10.723 11.728,-9.632c5.15,1.091 8.25,7.172 6.924,13.582z" id="svg_986"/>
     <path fill="#FEFAC0" d="m42.963,44.924c-1.31,6.396 -6.537,10.708 -11.675,9.63c-5.139,-1.078 -8.243,-7.136 -6.933,-13.532c1.311,-6.395 6.538,-10.707 11.676,-9.629c5.138,1.078 8.242,7.135 6.932,13.531z" id="svg_987"/>
     <path fill="#FEFAC1" d="m42.931,44.895c-1.293,6.38 -6.498,10.69 -11.624,9.626c-5.126,-1.064 -8.234,-7.1 -6.94,-13.48c1.293,-6.38 6.498,-10.69 11.624,-9.626c5.125,1.064 8.233,7.099 6.94,13.48z" id="svg_988"/>
     <path fill="#FEFAC2" d="m42.897,44.866c-1.276,6.366 -6.458,10.674 -11.572,9.624c-5.115,-1.051 -8.226,-7.064 -6.949,-13.43c1.277,-6.365 6.458,-10.674 11.572,-9.623c5.115,1.05 8.226,7.063 6.949,13.429z" id="svg_989"/>
     <path fill="#FEFAC3" d="m42.865,44.836c-1.26,6.351 -6.418,10.658 -11.52,9.621c-5.103,-1.039 -8.218,-7.028 -6.957,-13.379c1.26,-6.351 6.418,-10.658 11.521,-9.62c5.101,1.038 8.216,7.027 6.956,13.378z" id="svg_990"/>
     <path fill="#FEFAC4" d="m42.832,44.807c-1.244,6.336 -6.378,10.642 -11.469,9.618c-5.09,-1.025 -8.209,-6.993 -6.965,-13.329s6.379,-10.642 11.469,-9.616c5.09,1.024 8.209,6.991 6.965,13.327z" id="svg_991"/>
     <path fill="#FEFBC5" d="m42.799,44.778c-1.228,6.321 -6.339,10.626 -11.417,9.615c-5.079,-1.012 -8.201,-6.957 -6.973,-13.278s6.339,-10.625 11.417,-9.613c5.078,1.01 8.2,6.955 6.973,13.276z" id="svg_992"/>
     <path fill="#FEFBC6" d="m42.766,44.749c-1.21,6.307 -6.299,10.61 -11.365,9.611c-5.066,-0.999 -8.192,-6.92 -6.981,-13.227c1.211,-6.306 6.3,-10.609 11.366,-9.61c5.065,0.998 8.191,6.919 6.98,13.226z" id="svg_993"/>
     <path fill="#FEFBC7" d="m42.733,44.719c-1.194,6.292 -6.259,10.594 -11.313,9.608c-5.054,-0.986 -8.184,-6.885 -6.989,-13.176c1.194,-6.291 6.26,-10.593 11.314,-9.607c5.053,0.985 8.183,6.884 6.988,13.175z" id="svg_994"/>
     <path fill="#FEFBC8" d="m42.701,44.69c-1.178,6.276 -6.22,10.577 -11.262,9.605c-5.042,-0.973 -8.175,-6.849 -6.998,-13.125c1.178,-6.276 6.22,-10.577 11.262,-9.604c5.042,0.972 8.175,6.848 6.998,13.124z" id="svg_995"/>
     <path fill="#FEFBC9" d="m42.668,44.661c-1.161,6.262 -6.181,10.561 -11.21,9.602c-5.03,-0.959 -8.167,-6.813 -7.005,-13.075c1.162,-6.261 6.181,-10.56 11.21,-9.601c5.029,0.959 8.166,6.812 7.005,13.074z" id="svg_996"/>
     <path fill="#FEFBCA" d="m42.635,44.632c-1.145,6.247 -6.141,10.544 -11.158,9.599c-5.018,-0.946 -8.158,-6.777 -7.014,-13.024c1.145,-6.247 6.141,-10.544 11.159,-9.598c5.017,0.945 8.158,6.776 7.013,13.023z" id="svg_997"/>
     <path fill="#FEFBCB" d="m42.602,44.603c-1.128,6.232 -6.101,10.528 -11.106,9.596c-5.006,-0.933 -8.15,-6.741 -7.022,-12.973c1.128,-6.232 6.102,-10.528 11.107,-9.595c5.005,0.932 8.149,6.74 7.021,12.972z" id="svg_998"/>
     <path fill="#FEFBCC" d="m42.569,44.573c-1.112,6.217 -6.062,10.512 -11.055,9.593c-4.994,-0.92 -8.141,-6.706 -7.03,-12.923c1.112,-6.217 6.062,-10.511 11.056,-9.591c4.993,0.919 8.141,6.704 7.029,12.921z" id="svg_999"/>
     <path fill="#FEFBCD" d="m42.537,44.544c-1.095,6.203 -6.022,10.496 -11.003,9.59c-4.982,-0.907 -8.133,-6.669 -7.038,-12.872c1.096,-6.202 6.022,-10.495 11.004,-9.588c4.98,0.905 8.132,6.668 7.037,12.87z" id="svg_1000"/>
     <path fill="#FEFBCE" d="m42.503,44.515c-1.078,6.188 -5.982,10.48 -10.951,9.587c-4.97,-0.894 -8.125,-6.634 -7.046,-12.821c1.079,-6.187 5.983,-10.479 10.952,-9.585c4.969,0.891 8.125,6.631 7.045,12.819z" id="svg_1001"/>
     <path fill="#FEFBCF" d="m42.471,44.486c-1.062,6.172 -5.942,10.463 -10.9,9.583c-4.958,-0.88 -8.116,-6.598 -7.054,-12.771c1.062,-6.172 5.942,-10.462 10.9,-9.582c4.958,0.88 8.116,6.597 7.054,12.77z" id="svg_1002"/>
     <path fill="#FEFBD0" d="m42.438,44.457c-1.045,6.158 -5.903,10.447 -10.848,9.58c-4.946,-0.867 -8.108,-6.562 -7.062,-12.72c1.046,-6.157 5.903,-10.446 10.849,-9.579c4.944,0.866 8.107,6.56 7.061,12.719z" id="svg_1003"/>
     <path fill="#FEFBD1" d="m42.405,44.427c-1.029,6.143 -5.863,10.431 -10.796,9.577c-4.934,-0.854 -8.1,-6.526 -7.07,-12.669c1.029,-6.143 5.863,-10.43 10.797,-9.576c4.933,0.854 8.098,6.525 7.069,12.668z" id="svg_1004"/>
     <path fill="#FEFCD2" d="m42.373,44.398c-1.013,6.128 -5.824,10.415 -10.745,9.574c-4.921,-0.841 -8.091,-6.49 -7.078,-12.618s5.824,-10.414 10.745,-9.573c4.92,0.84 8.09,6.489 7.078,12.617z" id="svg_1005"/>
     <path fill="#FEFCD3" d="m42.339,44.369c-0.996,6.113 -5.784,10.398 -10.693,9.571c-4.91,-0.828 -8.083,-6.455 -7.086,-12.568c0.997,-6.113 5.784,-10.397 10.693,-9.57c4.91,0.827 8.082,6.453 7.086,12.567z" id="svg_1006"/>
     <path fill="#FEFCD4" d="m42.307,44.339c-0.979,6.098 -5.744,10.382 -10.641,9.568c-4.898,-0.814 -8.074,-6.418 -7.095,-12.517c0.98,-6.098 5.745,-10.381 10.642,-9.567c4.896,0.815 8.073,6.418 7.094,12.516z" id="svg_1007"/>
     <path fill="#FEFCD5" d="m42.274,44.31c-0.963,6.083 -5.705,10.366 -10.59,9.565c-4.885,-0.801 -8.065,-6.382 -7.103,-12.466c0.963,-6.083 5.705,-10.365 10.59,-9.563c4.886,0.8 8.066,6.381 7.103,12.464z" id="svg_1008"/>
     <path fill="#FEFCD6" d="m42.241,44.281c-0.947,6.069 -5.665,10.35 -10.538,9.562c-4.874,-0.789 -8.058,-6.347 -7.111,-12.416c0.947,-6.068 5.665,-10.349 10.539,-9.56c4.872,0.787 8.057,6.345 7.11,12.414z" id="svg_1009"/>
     <path fill="#FEFCD7" d="m42.208,44.252c-0.93,6.053 -5.625,10.333 -10.486,9.559c-4.862,-0.775 -8.049,-6.311 -7.119,-12.365c0.931,-6.053 5.625,-10.333 10.487,-9.557c4.861,0.774 8.048,6.309 7.118,12.363z" id="svg_1010"/>
     <path fill="#FEFCD8" d="m42.175,44.223c-0.914,6.039 -5.585,10.317 -10.435,9.555s-8.041,-6.275 -7.127,-12.313c0.914,-6.039 5.586,-10.316 10.435,-9.554c4.849,0.76 8.041,6.273 7.127,12.312z" id="svg_1011"/>
     <path fill="#FEFCD9" d="m42.143,44.193c-0.897,6.024 -5.546,10.301 -10.383,9.552c-4.837,-0.749 -8.032,-6.239 -7.135,-12.263c0.897,-6.023 5.546,-10.3 10.383,-9.551c4.837,0.749 8.032,6.238 7.135,12.262z" id="svg_1012"/>
     <path fill="#FFFCDA" d="m42.11,44.164c-0.881,6.009 -5.506,10.285 -10.331,9.549c-4.826,-0.736 -8.024,-6.203 -7.144,-12.212c0.881,-6.008 5.507,-10.284 10.332,-9.548c4.825,0.735 8.023,6.202 7.143,12.211z" id="svg_1013"/>
     <path fill="#FFFCDB" d="m42.077,44.135c-0.864,5.994 -5.466,10.269 -10.279,9.546c-4.813,-0.723 -8.015,-6.167 -7.151,-12.162c0.865,-5.994 5.467,-10.268 10.28,-9.545c4.812,0.722 8.014,6.167 7.15,12.161z" id="svg_1014"/>
     <path fill="#FFFCDC" d="m42.044,44.105c-0.847,5.979 -5.427,10.252 -10.228,9.543c-4.801,-0.709 -8.007,-6.132 -7.16,-12.111c0.848,-5.979 5.427,-10.251 10.229,-9.542c4.801,0.71 8.007,6.131 7.159,12.11z" id="svg_1015"/>
     <path fill="#FFFCDD" d="m42.011,44.076c-0.831,5.965 -5.387,10.236 -10.176,9.54c-4.79,-0.696 -7.999,-6.095 -7.167,-12.06c0.831,-5.964 5.387,-10.235 10.176,-9.539c4.789,0.696 7.998,6.095 7.167,12.059z" id="svg_1016"/>
     <path fill="#FFFCDE" d="m41.979,44.047c-0.814,5.949 -5.348,10.219 -10.125,9.537c-4.777,-0.683 -7.99,-6.06 -7.175,-12.009c0.814,-5.949 5.348,-10.219 10.125,-9.536c4.776,0.682 7.989,6.059 7.175,12.008z" id="svg_1017"/>
     <path fill="#FFFDDF" d="m41.945,44.018c-0.798,5.935 -5.308,10.203 -10.072,9.534c-4.765,-0.67 -7.982,-6.024 -7.184,-11.958s5.308,-10.203 10.073,-9.533c4.765,0.668 7.982,6.022 7.183,11.957z" id="svg_1018"/>
     <path fill="#FFFDE0" d="m41.913,43.989c-0.781,5.92 -5.268,10.187 -10.021,9.531c-4.753,-0.657 -7.974,-5.988 -7.192,-11.908c0.782,-5.919 5.269,-10.186 10.021,-9.529c4.753,0.655 7.973,5.986 7.192,11.906z" id="svg_1019"/>
     <path fill="#FFFDE1" d="m41.88,43.959c-0.765,5.905 -5.229,10.171 -9.969,9.527c-4.741,-0.644 -7.965,-5.952 -7.2,-11.857c0.765,-5.904 5.229,-10.17 9.97,-9.526c4.74,0.644 7.964,5.951 7.199,11.856z" id="svg_1020"/>
     <path fill="#FFFDE2" d="m41.847,43.93c-0.749,5.89 -5.189,10.154 -9.917,9.524c-4.729,-0.63 -7.957,-5.916 -7.208,-11.806c0.749,-5.89 5.189,-10.154 9.918,-9.523c4.728,0.63 7.956,5.915 7.207,11.805z" id="svg_1021"/>
     <path fill="#FFFDE3" d="m41.814,43.901c-0.732,5.875 -5.149,10.138 -9.866,9.521c-4.717,-0.617 -7.948,-5.88 -7.216,-11.756c0.732,-5.875 5.149,-10.137 9.866,-9.52c4.717,0.617 7.948,5.88 7.216,11.755z" id="svg_1022"/>
     <path fill="#FFFDE4" d="m41.781,43.872c-0.715,5.86 -5.109,10.122 -9.814,9.519c-4.705,-0.604 -7.939,-5.845 -7.224,-11.705c0.716,-5.86 5.11,-10.121 9.814,-9.517c4.705,0.602 7.94,5.842 7.224,11.703z" id="svg_1023"/>
     <path fill="#FFFDE5" d="m41.749,43.842c-0.699,5.846 -5.07,10.106 -9.762,9.516c-4.693,-0.591 -7.931,-5.809 -7.232,-11.654c0.699,-5.845 5.07,-10.105 9.763,-9.514c4.691,0.59 7.929,5.807 7.231,11.652z" id="svg_1024"/>
     <path fill="#FFFDE6" d="m41.716,43.813c-0.683,5.831 -5.03,10.089 -9.71,9.512c-4.681,-0.578 -7.923,-5.772 -7.241,-11.603c0.683,-5.831 5.031,-10.089 9.711,-9.511c4.68,0.577 7.922,5.771 7.24,11.602z" id="svg_1025"/>
     <path fill="#FFFDE7" d="m41.683,43.784c-0.666,5.815 -4.991,10.073 -9.659,9.509c-4.669,-0.564 -7.914,-5.737 -7.249,-11.553c0.667,-5.815 4.991,-10.072 9.66,-9.507c4.668,0.563 7.914,5.735 7.248,11.551z" id="svg_1026"/>
     <path fill="#FFFDE8" d="m41.65,43.755c-0.649,5.801 -4.951,10.057 -9.607,9.506c-4.657,-0.552 -7.906,-5.701 -7.257,-11.502c0.65,-5.8 4.952,-10.056 9.608,-9.504c4.656,0.55 7.905,5.699 7.256,11.5z" id="svg_1027"/>
     <path fill="#FFFDE9" d="m41.617,43.726c-0.633,5.786 -4.911,10.041 -9.555,9.503c-4.645,-0.539 -7.898,-5.665 -7.265,-11.451c0.633,-5.786 4.912,-10.04 9.556,-9.501c4.644,0.536 7.897,5.662 7.264,11.449z" id="svg_1028"/>
     <path fill="#FFFDEA" d="m41.584,43.696c-0.616,5.771 -4.872,10.024 -9.504,9.5c-4.633,-0.525 -7.889,-5.629 -7.273,-11.401c0.617,-5.771 4.872,-10.023 9.504,-9.498c4.633,0.525 7.89,5.628 7.273,11.399z" id="svg_1029"/>
     <path fill="#FFFDEB" d="m41.552,43.667c-0.6,5.756 -4.832,10.008 -9.452,9.497c-4.621,-0.512 -7.881,-5.593 -7.281,-11.35c0.6,-5.756 4.832,-10.007 9.452,-9.495c4.62,0.511 7.88,5.592 7.281,11.348z" id="svg_1030"/>
     <path fill="#FFFEEC" d="m41.519,43.638c-0.583,5.742 -4.792,9.992 -9.4,9.494c-4.609,-0.499 -7.873,-5.558 -7.289,-11.299s4.792,-9.991 9.401,-9.492c4.607,0.497 7.871,5.555 7.288,11.297z" id="svg_1031"/>
     <path fill="#FFFEED" d="m41.486,43.609c-0.566,5.727 -4.752,9.976 -9.349,9.49c-4.597,-0.486 -7.864,-5.521 -7.297,-11.249c0.567,-5.726 4.753,-9.975 9.349,-9.489c4.596,0.486 7.864,5.521 7.297,11.248z" id="svg_1032"/>
     <path fill="#FFFEEE" d="m41.453,43.58c-0.55,5.711 -4.713,9.959 -9.297,9.487c-4.584,-0.473 -7.855,-5.486 -7.305,-11.198c0.551,-5.711 4.713,-9.958 9.297,-9.486c4.584,0.472 7.855,5.485 7.305,11.197z" id="svg_1033"/>
     <path fill="#FFFEEF" d="m41.42,43.55c-0.534,5.697 -4.673,9.943 -9.246,9.484c-4.572,-0.459 -7.847,-5.45 -7.313,-11.146c0.534,-5.696 4.673,-9.942 9.246,-9.483c4.572,0.458 7.847,5.449 7.313,11.145z" id="svg_1034"/>
     <path fill="#FFFEF0" d="m41.388,43.521c-0.518,5.682 -4.634,9.927 -9.194,9.481c-4.561,-0.446 -7.838,-5.414 -7.321,-11.096c0.518,-5.682 4.634,-9.926 9.194,-9.48c4.559,0.446 7.838,5.413 7.321,11.095z" id="svg_1035"/>
     <path fill="#FFFEF1" d="m41.354,43.492c-0.5,5.667 -4.594,9.911 -9.142,9.478c-4.548,-0.433 -7.83,-5.378 -7.33,-11.045c0.501,-5.667 4.594,-9.91 9.142,-9.477c4.549,0.432 7.831,5.377 7.33,11.044z" id="svg_1036"/>
     <path fill="#FFFEF2" d="m41.322,43.462c-0.484,5.652 -4.554,9.895 -9.09,9.475c-4.536,-0.42 -7.822,-5.342 -7.337,-10.995c0.485,-5.652 4.555,-9.894 9.091,-9.474c4.534,0.421 7.82,5.342 7.336,10.994z" id="svg_1037"/>
     <path fill="#FFFEF3" d="m41.289,43.433c-0.468,5.638 -4.515,9.878 -9.039,9.472c-4.524,-0.407 -7.813,-5.307 -7.346,-10.944c0.468,-5.637 4.515,-9.877 9.039,-9.471c4.524,0.407 7.814,5.306 7.346,10.943z" id="svg_1038"/>
     <path fill="#FFFEF4" d="m41.256,43.404c-0.451,5.622 -4.475,9.862 -8.987,9.468c-4.513,-0.394 -7.805,-5.271 -7.354,-10.893c0.452,-5.622 4.476,-9.861 8.987,-9.467c4.512,0.393 7.806,5.27 7.354,10.892z" id="svg_1039"/>
     <path fill="#FFFEF5" d="m41.223,43.375c-0.435,5.607 -4.435,9.846 -8.935,9.465s-7.796,-5.234 -7.362,-10.842c0.435,-5.607 4.436,-9.845 8.936,-9.464c4.499,0.38 7.796,5.233 7.361,10.841z" id="svg_1040"/>
     <path fill="#FFFEF6" d="m41.19,43.346c-0.418,5.593 -4.396,9.829 -8.883,9.462c-4.488,-0.368 -7.788,-5.199 -7.37,-10.792c0.419,-5.592 4.396,-9.829 8.884,-9.461c4.487,0.367 7.787,5.198 7.369,10.791z" id="svg_1041"/>
     <path fill="#FFFEF7" d="m41.158,43.316c-0.402,5.578 -4.356,9.813 -8.832,9.459c-4.477,-0.354 -7.78,-5.163 -7.378,-10.741c0.402,-5.577 4.356,-9.812 8.833,-9.458c4.474,0.354 7.778,5.162 7.377,10.74z" id="svg_1042"/>
     <path fill="#FFFEF8" d="m41.125,43.287c-0.385,5.563 -4.316,9.797 -8.78,9.457c-4.464,-0.341 -7.771,-5.127 -7.386,-10.69c0.386,-5.563 4.317,-9.796 8.781,-9.455c4.462,0.339 7.77,5.125 7.385,10.688z" id="svg_1043"/>
     <path fill="#FFFFF9" d="m41.092,43.258c-0.368,5.548 -4.276,9.781 -8.728,9.453c-4.452,-0.328 -7.763,-5.091 -7.394,-10.639c0.369,-5.548 4.277,-9.78 8.729,-9.452c4.45,0.327 7.761,5.089 7.393,10.638z" id="svg_1044"/>
     <path fill="#FFFFFA" d="m41.059,43.229c-0.352,5.534 -4.237,9.765 -8.676,9.45c-4.44,-0.315 -7.754,-5.055 -7.402,-10.588c0.353,-5.533 4.237,-9.764 8.677,-9.449c4.438,0.313 7.753,5.053 7.401,10.587z" id="svg_1045"/>
     <path fill="#FFFFFB" d="m41.026,43.199c-0.335,5.519 -4.197,9.749 -8.625,9.447c-4.428,-0.302 -7.746,-5.02 -7.41,-10.538c0.336,-5.518 4.198,-9.747 8.625,-9.445c4.427,0.301 7.746,5.018 7.41,10.536z" id="svg_1046"/>
     <path fill="#FFFFFC" d="m40.994,43.17c-0.319,5.503 -4.158,9.731 -8.573,9.444c-4.416,-0.289 -7.738,-4.984 -7.418,-10.487c0.319,-5.503 4.158,-9.731 8.573,-9.442c4.414,0.287 7.737,4.982 7.418,10.485z" id="svg_1047"/>
     <path fill="#FFFFFD" d="m40.96,43.141c-0.302,5.489 -4.118,9.715 -8.521,9.44c-4.404,-0.275 -7.729,-4.947 -7.427,-10.436c0.303,-5.488 4.118,-9.715 8.522,-9.439c4.404,0.274 7.729,4.946 7.426,10.435z" id="svg_1048"/>
     <path fill="#FFFFFE" d="m40.928,43.112c-0.286,5.474 -4.078,9.699 -8.47,9.438c-4.392,-0.262 -7.721,-4.912 -7.435,-10.386c0.287,-5.473 4.079,-9.698 8.47,-9.436c4.391,0.261 7.721,4.91 7.435,10.384z" id="svg_1049"/>
     <path fill="#FFFFFF" d="m40.895,43.083c-0.27,5.459 -4.039,9.683 -8.418,9.435c-4.38,-0.249 -7.712,-4.876 -7.443,-10.335c0.27,-5.458 4.039,-9.682 8.418,-9.433c4.38,0.247 7.713,4.874 7.443,10.333z" id="svg_1050"/>
    </g>
    <g id="svg_1051">
     <path fill="#FFFFFF" d="m48.306,31.818c-0.339,1.865 -1.798,3.165 -3.257,2.906c-1.458,-0.26 -2.366,-1.983 -2.026,-3.847c0.34,-1.864 1.798,-3.165 3.257,-2.905c1.459,0.26 2.366,1.983 2.026,3.846z" id="svg_1052"/>
    </g>
    <g id="svg_1053">
     <path fill="#F7931E" d="m66.049,156.534c-2.262,0.649 -4.597,8.242 -4.326,10.444c0.357,2.90401 3.431,0.922 5.096,0.399c1.418,-0.44499 2.95,0.224 4.482,0.345c1.515,0.12 3.74599,-1.37 4.965,-0.507c1.397,-2.317 -3.538,-6.409 -4.94,-8.009c-0.75,-0.85399 -1.867,-2.74399 -3.004,-3.09099c-0.963,-0.29401 -1.336,0.252 -2.27299,0.41899" id="svg_1054"/>
    </g>
   </g>
   <g id="svg_1055">
    <g id="svg_1056">
     <path fill="none" d="m64.473,156.85899c1.751,-0.75 3.502,-0.60001 5.253,-0.45" id="svg_1057"/>
    </g>
    <g id="svg_1058">
     <path fill="#C1272D" d="m64.473,158.10899c1.715,-0.673 3.449,-0.603 5.253,-0.45c-0.05099,-0.00401 0.089,-2.49301 0,-2.5c-1.804,-0.153 -3.53799,-0.22302 -5.253,0.45c-0.3,0.11801 0.26701,2.39499 0,2.5l0,0z" id="svg_1059"/>
    </g>
   </g>
  </g>
 </g>
</svg>