<svg xmlns="http://www.w3.org/2000/svg" xmlns:xlink="http://www.w3.org/1999/xlink" x="0px" y="0px" width="200px" height="500px" viewBox="0 0 200 500" enable-background="new 0 0 200 500" xml:space="preserve">
<g>
	<g>
		<g>
			<path fill="none" d="M63.033,162.166c8.104,19.944,48.621,27.424,43.219,49.861c-7.204,31.163-98.143,26.177-90.04,78.532
				c6.303,36.15,74.732,11.22,91.84,38.644c12.605,21.19-19.809,41.136-0.9,59.834"/>
		</g>
		<g>
			<path fill="#C1272D" d="M63.033,163.416c6.971,16.095,27.113,21.374,38.431,33.653c10.817,11.735,1.377,23.317-9.673,29.736
				c-12.667,7.358-27.146,11.343-40.564,17.072c-12.558,5.361-26.169,12.438-32.491,25.216c-4.752,9.605-4.676,24.775,2.214,33.265
				c9.444,11.635,29.312,11.421,42.806,12.513c14.248,1.153,32.979,1.542,42.882,13.575c11.966,14.539-5.576,31.549-5.576,47.07
				c0,5.869,1.996,10.524,6.09,14.771c-0.407-0.422,0.425-2.059,0-2.5c-3.194-3.313-5.363-6.96-5.979-11.563
				c-0.576-4.307,1.867-9.503,3.438-13.4c2.927-7.264,6.404-14.328,6.451-22.321c0.092-15.756-12.395-22.795-26.243-25.622
				c-16.264-3.32-33.263-1.934-49.308-6.489c-6.544-1.857-12.678-5.219-16.392-11.079c-4.242-6.694-4.08-15.552-1.594-22.816
				c4.579-13.382,18.255-21.1,30.343-26.636c13.517-6.191,27.956-10.264,41.198-17.069c9.464-4.864,17.754-11.683,17.687-23.099
				c-0.093-15.959-19.688-24.013-30.664-32.093c-5.315-3.913-10.39-8.522-13.057-14.682
				C63.334,161.61,62.727,162.708,63.033,163.416L63.033,163.416z"/>
		</g>
	</g>
	<g>
		<g>
			<ellipse fill="#F79321" cx="61.854" cy="77.356" rx="61.854" ry="75.805"/>
			<ellipse fill="#F79422" cx="61.369" cy="76.837" rx="61.127" ry="74.984"/>
			<ellipse fill="#F79523" cx="60.883" cy="76.318" rx="60.4" ry="74.164"/>
			<ellipse fill="#F79624" cx="60.398" cy="75.798" rx="59.673" ry="73.343"/>
			<ellipse fill="#F89724" cx="59.912" cy="75.279" rx="58.945" ry="72.522"/>
			<ellipse fill="#F89825" cx="59.427" cy="74.76" rx="58.218" ry="71.702"/>
			<ellipse fill="#F89926" cx="58.941" cy="74.241" rx="57.491" ry="70.881"/>
			<ellipse fill="#F89A27" cx="58.456" cy="73.721" rx="56.763" ry="70.06"/>
			<ellipse fill="#F89B28" cx="57.97" cy="73.202" rx="56.036" ry="69.239"/>
			<ellipse fill="#F89C29" cx="57.485" cy="72.683" rx="55.309" ry="68.419"/>
			<ellipse fill="#F89D2A" cx="56.999" cy="72.164" rx="54.582" ry="67.598"/>
			<ellipse fill="#F89E2B" cx="56.514" cy="71.644" rx="53.854" ry="66.777"/>
			<ellipse fill="#F99F2B" cx="56.028" cy="71.125" rx="53.127" ry="65.957"/>
			<ellipse fill="#F9A02C" cx="55.543" cy="70.605" rx="52.4" ry="65.136"/>
			<ellipse fill="#F9A12D" cx="55.057" cy="70.086" rx="51.673" ry="64.315"/>
			<ellipse fill="#F9A22E" cx="54.572" cy="69.567" rx="50.945" ry="63.495"/>
			<ellipse fill="#F9A22F" cx="54.086" cy="69.048" rx="50.218" ry="62.674"/>
			<ellipse fill="#F9A330" cx="53.601" cy="68.528" rx="49.491" ry="61.854"/>
			<ellipse fill="#F9A431" cx="53.115" cy="68.009" rx="48.764" ry="61.033"/>
			<ellipse fill="#FAA531" cx="52.63" cy="67.49" rx="48.037" ry="60.212"/>
			<ellipse fill="#FAA632" cx="52.144" cy="66.971" rx="47.309" ry="59.391"/>
			<ellipse fill="#FAA733" cx="51.659" cy="66.451" rx="46.582" ry="58.571"/>
			<ellipse fill="#FAA834" cx="51.173" cy="65.932" rx="45.855" ry="57.75"/>
			<ellipse fill="#FAA935" cx="50.688" cy="65.413" rx="45.128" ry="56.93"/>
			<ellipse fill="#FAAA36" cx="50.202" cy="64.894" rx="44.4" ry="56.108"/>
			<ellipse fill="#FAAB37" cx="49.717" cy="64.374" rx="43.673" ry="55.288"/>
			<ellipse fill="#FAAC38" cx="49.231" cy="63.855" rx="42.946" ry="54.467"/>
			<ellipse fill="#FBAD38" cx="48.746" cy="63.336" rx="42.219" ry="53.646"/>
			<ellipse fill="#FBAE39" cx="48.26" cy="62.816" rx="41.491" ry="52.826"/>
			<ellipse fill="#FBAF3A" cx="47.775" cy="62.297" rx="40.764" ry="52.005"/>
			<ellipse fill="#FBB03B" cx="47.289" cy="61.778" rx="40.037" ry="51.185"/>
			
				<ellipse transform="matrix(1 0.0023 -0.0023 1 0.1414 -0.108)" fill="#FBB13B" cx="47.053" cy="61.446" rx="39.604" ry="50.624"/>
			<path fill="#FBB23A" d="M85.988,61.295c-0.125,27.649-17.764,49.982-39.397,49.881C24.957,111.076,7.521,88.58,7.646,60.931
				C7.771,33.281,25.409,10.949,47.043,11.05C68.677,11.15,86.113,33.646,85.988,61.295z"/>
			<path fill="#FBB33A" d="M85.319,61.054c-0.188,27.339-17.683,49.38-39.078,49.229C24.847,110.132,7.655,87.846,7.842,60.507
				c0.188-27.34,17.683-49.38,39.078-49.229C68.315,11.429,85.507,33.714,85.319,61.054z"/>
			<path fill="#FBB439" d="M84.65,60.813c-0.25,27.029-17.603,48.778-38.758,48.577C24.736,109.188,7.789,87.113,8.039,60.083
				c0.25-27.03,17.602-48.778,38.758-48.577C67.953,11.708,84.9,33.782,84.65,60.813z"/>
			<path fill="#FBB539" d="M83.981,60.571c-0.313,26.72-17.522,48.177-38.438,47.926C24.626,108.245,7.923,86.38,8.236,59.66
				c0.312-26.721,17.521-48.177,38.438-47.926C67.591,11.986,84.294,33.85,83.981,60.571z"/>
			<path fill="#FBB639" d="M83.313,60.33c-0.375,26.41-17.441,47.576-38.119,47.274C24.516,107.302,8.058,85.647,8.432,59.237
				c0.375-26.411,17.441-47.576,38.119-47.274C67.229,12.265,83.688,33.918,83.313,60.33z"/>
			<path fill="#FBB738" d="M82.644,60.088c-0.437,26.1-17.36,46.974-37.799,46.622C24.406,106.358,8.192,84.914,8.629,58.813
				c0.438-26.101,17.36-46.974,37.799-46.622C66.867,12.543,83.081,33.987,82.644,60.088z"/>
			<path fill="#FBB838" d="M81.975,59.847c-0.5,25.791-17.28,46.373-37.479,45.971c-20.2-0.402-36.17-21.637-35.67-47.428
				c0.5-25.792,17.28-46.373,37.479-45.97C66.504,12.822,82.475,34.055,81.975,59.847z"/>
			<path fill="#FBB937" d="M81.306,59.605c-0.562,25.481-17.199,45.771-37.159,45.319C24.185,104.471,8.46,83.447,9.022,57.966
				c0.562-25.482,17.199-45.771,37.16-45.319C66.143,13.1,81.868,34.124,81.306,59.605z"/>
			<path fill="#FBBA37" d="M80.637,59.364c-0.625,25.171-17.119,45.17-36.84,44.667C24.075,103.528,8.594,82.714,9.219,57.542
				c0.625-25.172,17.119-45.17,36.84-44.667C65.78,13.379,81.262,34.192,80.637,59.364z"/>
			<path fill="#FBBB36" d="M79.968,59.123c-0.687,24.861-17.038,44.568-36.52,44.015C23.965,102.584,8.729,81.981,9.416,57.119
				c0.687-24.863,17.038-44.568,36.521-44.015C65.418,13.657,80.655,34.26,79.968,59.123z"/>
			<path fill="#FBBC36" d="M79.299,58.881c-0.75,24.552-16.957,43.967-36.2,43.363C23.854,101.641,8.863,81.248,9.612,56.695
				c0.75-24.553,16.957-43.967,36.201-43.363C65.056,13.936,80.048,34.329,79.299,58.881z"/>
			<path fill="#FBBD36" d="M78.63,58.64c-0.812,24.242-16.876,43.365-35.881,42.711S8.997,80.515,9.809,56.272
				c0.812-24.243,16.876-43.365,35.881-42.711C64.694,14.214,79.442,34.397,78.63,58.64z"/>
			<path fill="#FBBE35" d="M77.961,58.399c-0.875,23.933-16.796,42.764-35.561,42.06c-18.766-0.704-33.269-20.677-32.395-44.61
				c0.875-23.934,16.796-42.764,35.562-42.06C64.332,14.493,78.835,34.465,77.961,58.399z"/>
			<path fill="#FBBF35" d="M77.292,58.157C76.355,81.78,60.577,100.32,42.051,99.565C23.524,98.811,9.265,79.048,10.202,55.425
				s16.715-42.162,35.242-41.408S78.229,34.533,77.292,58.157z"/>
			<path fill="#FBC034" d="M76.623,57.916c-0.999,23.313-16.634,41.561-34.921,40.756C23.414,97.867,9.399,78.315,10.399,55.001
				c1-23.314,16.634-41.561,34.922-40.756C63.608,15.05,77.623,34.602,76.623,57.916z"/>
			<path fill="#FBC134" d="M75.954,57.675C74.893,80.678,59.4,98.634,41.352,97.779C23.304,96.924,9.534,77.582,10.596,54.578
				c1.062-23.005,16.554-40.959,34.603-40.104C63.246,15.329,77.016,34.67,75.954,57.675z"/>
			<path fill="#FBC234" d="M75.285,57.433c-1.124,22.694-16.473,40.358-34.282,39.453C23.193,95.98,9.668,76.849,10.792,54.154
				c1.125-22.695,16.473-40.358,34.283-39.453C62.884,15.607,76.41,34.738,75.285,57.433z"/>
			<path fill="#FBC333" d="M74.616,57.192C73.43,79.576,58.224,96.948,40.654,95.993C23.083,95.037,9.802,76.115,10.989,53.731
				c1.187-22.385,16.393-39.757,33.963-38.801C62.522,15.886,75.803,34.807,74.616,57.192z"/>
			<path fill="#FBC433" d="M73.947,56.951C72.698,79.025,57.635,96.105,40.305,95.1C22.973,94.094,9.936,75.382,11.186,53.307
				c1.249-22.075,16.312-39.155,33.644-38.149C62.16,16.165,75.197,34.875,73.947,56.951z"/>
			<path fill="#FBC532" d="M73.278,56.709c-1.312,21.765-16.231,38.554-33.323,37.498C22.863,93.15,10.07,74.649,11.382,52.884
				c1.312-21.766,16.231-38.554,33.324-37.497C61.798,16.443,74.59,34.943,73.278,56.709z"/>
			<path fill="#FBC632" d="M72.609,56.468c-1.374,21.456-16.15,37.952-33.003,36.846C22.752,92.207,10.205,73.916,11.579,52.46
				c1.375-21.456,16.151-37.952,33.004-36.846C61.436,16.721,73.984,35.012,72.609,56.468z"/>
			<path fill="#FBC732" d="M71.94,56.227c-1.437,21.146-16.07,37.351-32.684,36.194c-16.615-1.157-28.918-19.238-27.481-40.384
				c1.437-21.146,16.07-37.351,32.685-36.193C61.074,17,73.377,35.08,71.94,56.227z"/>
			<path fill="#FBC831" d="M71.271,55.985c-1.499,20.836-15.989,36.75-32.364,35.542C22.532,90.32,10.473,72.45,11.972,51.613
				c1.499-20.837,15.989-36.749,32.365-35.542C60.712,17.278,72.771,35.148,71.271,55.985z"/>
			<path fill="#FBC931" d="M70.603,55.744c-1.562,20.526-15.908,36.147-32.044,34.89S10.607,71.716,12.169,51.189
				C13.73,30.663,28.077,15.042,44.214,16.3C60.35,17.557,72.165,35.216,70.603,55.744z"/>
			<path fill="#FBCA30" d="M69.934,55.502C68.31,75.719,54.106,91.048,38.209,89.741c-15.897-1.308-27.468-18.757-25.844-38.975
				S28.193,15.22,44.091,16.528C59.988,17.835,71.558,35.285,69.934,55.502z"/>
			<path fill="#FBCB30" d="M69.265,55.261C67.579,75.168,53.518,90.206,37.86,88.848C22.201,87.489,10.875,70.25,12.562,50.343
				c1.687-19.908,15.747-34.945,31.406-33.587C59.625,18.114,70.952,35.353,69.265,55.261z"/>
			<path fill="#FBCC2F" d="M68.596,55.02C66.847,74.617,52.929,89.363,37.51,87.955c-15.419-1.409-26.5-18.438-24.751-38.036
				s15.667-34.343,31.086-32.935C59.264,18.393,70.345,35.421,68.596,55.02z"/>
			<path fill="#FBCD2F" d="M67.927,54.778C66.116,74.066,52.341,88.52,37.161,87.062c-15.18-1.459-26.018-18.278-24.206-37.566
				c1.811-19.289,15.586-33.742,30.766-32.283C58.901,18.671,69.739,35.49,67.927,54.778z"/>
			<path fill="#FBCE2F" d="M67.258,54.537c-1.874,18.979-15.505,33.141-30.446,31.632c-14.941-1.509-25.534-18.118-23.66-37.096
				c1.874-18.979,15.505-33.141,30.447-31.631C58.54,18.95,69.132,35.558,67.258,54.537z"/>
			<path fill="#FBCF2E" d="M66.589,54.295c-1.936,18.668-15.424,32.539-30.126,30.98c-14.703-1.56-25.051-17.958-23.114-36.627
				S28.773,16.11,43.476,17.669C58.177,19.229,68.526,35.626,66.589,54.295z"/>
			<path fill="#FCCF2E" d="M65.92,54.054c-1.999,18.359-15.344,31.937-29.807,30.328c-14.463-1.61-24.567-17.798-22.568-36.157
				c1.999-18.359,15.344-31.938,29.807-30.328C57.815,19.507,67.919,35.694,65.92,54.054z"/>
			<path fill="#FCD02D" d="M65.251,53.813C63.19,71.862,49.988,85.148,35.764,83.489c-14.224-1.66-24.083-17.638-22.022-35.688
				c2.061-18.049,15.263-31.335,29.487-29.676C57.453,19.786,67.313,35.763,65.251,53.813z"/>
			<path fill="#FCD12D" d="M64.583,53.571C62.458,71.311,49.4,84.306,35.415,82.596c-13.985-1.71-23.6-17.478-21.477-35.218
				c2.124-17.74,15.183-30.734,29.168-29.024C57.091,20.064,66.706,35.831,64.583,53.571z"/>
			<path fill="#FCD22D" d="M63.914,53.33c-2.187,17.43-15.102,30.133-28.848,28.373c-13.747-1.761-23.117-17.318-20.931-34.748
				c2.186-17.431,15.102-30.133,28.848-28.373C56.729,20.343,66.1,35.899,63.914,53.33z"/>
			<path fill="#FCD32C" d="M63.245,53.089C60.996,70.209,48.223,82.62,34.716,80.81c-13.507-1.811-22.633-17.158-20.384-34.279
				C16.581,29.41,29.354,17,42.86,18.811C56.367,20.621,65.493,35.968,63.245,53.089z"/>
			<path fill="#FCD42C" d="M62.576,52.847c-2.311,16.811-14.941,28.93-28.208,27.069c-13.268-1.861-22.15-16.999-19.838-33.809
				c2.311-16.811,14.94-28.93,28.208-27.069C56.005,20.9,64.887,36.036,62.576,52.847z"/>
			<path fill="#FCD52B" d="M61.907,52.606c-2.374,16.501-14.86,28.329-27.889,26.417c-13.029-1.912-21.667-16.838-19.293-33.339
				c2.374-16.501,14.86-28.329,27.889-26.417C55.643,21.178,64.28,36.104,61.907,52.606z"/>
			<path fill="#FCD62B" d="M61.238,52.365C58.802,68.556,46.458,80.091,33.668,78.13c-12.79-1.962-21.183-16.678-18.747-32.87
				s14.779-27.727,27.569-25.765C55.281,21.457,63.674,36.173,61.238,52.365z"/>
			<path fill="#FCD72A" d="M60.569,52.123C58.07,68.005,45.87,79.249,33.319,77.237c-12.551-2.012-20.7-16.518-18.201-32.4
				c2.499-15.882,14.699-27.125,27.25-25.114C54.919,21.735,63.067,36.241,60.569,52.123z"/>
			<path fill="#FCD82A" d="M59.9,51.882c-2.561,15.572-14.618,26.524-26.93,24.462c-12.312-2.063-20.216-16.358-17.655-31.931
				c2.561-15.572,14.618-26.524,26.93-24.461C54.557,22.014,62.461,36.309,59.9,51.882z"/>
			<path fill="#FCD92A" d="M59.231,51.641c-2.624,15.262-14.538,25.922-26.61,23.81C20.548,73.338,12.888,59.252,15.512,43.99
				s14.538-25.922,26.61-23.81C54.195,22.292,61.854,36.377,59.231,51.641z"/>
			<path fill="#FCDA29" d="M58.562,51.399C55.876,66.352,44.105,76.72,32.271,74.558c-11.833-2.164-19.249-16.039-16.563-30.991
				c2.686-14.953,14.457-25.321,26.291-23.158C53.833,22.571,61.248,36.446,58.562,51.399z"/>
			<path fill="#FCDB29" d="M57.893,51.158c-2.749,14.643-14.376,24.72-25.971,22.507c-11.595-2.214-18.766-15.878-16.017-30.522
				C18.653,28.5,30.281,18.423,41.876,20.636C53.471,22.85,60.642,36.514,57.893,51.158z"/>
			<path fill="#FCDC28" d="M57.224,50.917C54.413,65.25,42.929,75.035,31.573,72.771c-11.356-2.264-18.283-15.719-15.471-30.052
				c2.811-14.333,14.295-24.118,25.651-21.854C53.109,23.128,60.035,36.583,57.224,50.917z"/>
			<path fill="#FCDD28" d="M56.555,50.675C53.682,64.699,42.34,74.191,31.224,71.878c-11.117-2.314-17.799-15.559-14.926-29.583
				c2.874-14.023,14.215-23.517,25.332-21.203S59.429,36.651,56.555,50.675z"/>
			<path fill="#FCDE28" d="M55.886,50.434C52.95,64.147,41.752,73.349,30.875,70.985c-10.877-2.364-17.315-15.398-14.379-29.113
				c2.936-13.714,14.134-22.915,25.012-20.551C52.385,23.685,58.822,36.719,55.886,50.434z"/>
			<path fill="#FCDF27" d="M55.217,50.192c-2.998,13.404-14.053,22.313-24.692,19.899c-10.639-2.415-16.832-15.239-13.833-28.643
				c2.998-13.405,14.053-22.314,24.692-19.899C52.022,23.964,58.216,36.788,55.217,50.192z"/>
			<path fill="#FCE027" d="M54.548,49.951c-3.061,13.095-13.973,21.712-24.372,19.248c-10.4-2.465-16.349-15.079-13.288-28.174
				c3.061-13.095,13.973-21.712,24.373-19.247C51.661,24.242,57.609,36.856,54.548,49.951z"/>
			<path fill="#FCE126" d="M53.879,49.709C50.756,62.495,39.987,70.82,29.827,68.306C19.666,65.79,13.961,53.387,17.085,40.602
				c3.123-12.785,13.893-21.111,24.053-18.596C51.298,24.521,57.003,36.924,53.879,49.709z"/>
			<path fill="#FCE226" d="M53.21,49.468c-3.186,12.475-13.812,20.509-23.733,17.944c-9.921-2.566-15.382-14.759-12.196-27.234
				c3.186-12.476,13.812-20.509,23.733-17.944C50.937,24.799,56.396,36.992,53.21,49.468z"/>
			<path fill="#FCE326" d="M52.542,49.227c-3.248,12.166-13.73,19.908-23.413,17.293c-9.683-2.616-14.898-14.599-11.65-26.765
				c3.248-12.166,13.731-19.908,23.414-17.292C50.574,25.078,55.79,37.061,52.542,49.227z"/>
			<path fill="#FCE425" d="M51.873,48.985c-3.311,11.856-13.65,19.306-23.093,16.641c-9.444-2.666-14.415-14.438-11.104-26.295
				c3.31-11.856,13.65-19.306,23.094-16.641C50.212,25.356,55.183,37.129,51.873,48.985z"/>
			<path fill="#FCE525" d="M51.204,48.744C47.831,60.291,37.634,67.449,28.43,64.733c-9.204-2.716-13.931-14.279-10.558-25.826
				c3.373-11.546,13.57-18.705,22.774-15.988C49.85,25.635,54.577,37.197,51.204,48.744z"/>
			<path fill="#FCE624" d="M50.535,48.503C47.099,59.739,37.046,66.606,28.081,63.84c-8.965-2.767-13.448-14.119-10.012-25.356
				S31.557,20.38,40.523,23.147C49.488,25.914,53.97,37.266,50.535,48.503z"/>
			<path fill="#FCE724" d="M49.866,48.261c-3.498,10.927-13.408,17.502-22.134,14.686c-8.727-2.817-12.965-13.959-9.466-24.886
				C21.763,27.133,31.673,20.559,40.4,23.375C49.126,26.192,53.364,37.334,49.866,48.261z"/>
			<path fill="#FCE823" d="M49.197,48.02c-3.561,10.617-13.327,16.9-21.814,14.034c-8.488-2.868-12.481-13.799-8.92-24.417
				c3.56-10.617,13.328-16.9,21.815-14.033S52.757,37.402,49.197,48.02z"/>
			<path fill="#FCE923" d="M48.528,47.779c-3.623,10.308-13.247,16.299-21.495,13.382c-8.248-2.918-11.998-13.639-8.375-23.947
				c3.623-10.308,13.247-16.299,21.496-13.381C48.402,26.75,52.151,37.471,48.528,47.779z"/>
			<path fill="#FCEA23" d="M47.859,47.537c-3.685,9.998-13.166,15.698-21.175,12.73c-8.009-2.968-11.514-13.479-7.829-23.478
				c3.685-9.998,13.167-15.698,21.176-12.73S51.544,37.539,47.859,47.537z"/>
			<path fill="#FCEB22" d="M47.19,47.296c-3.748,9.688-13.085,15.096-20.855,12.078c-7.771-3.018-11.031-13.319-7.283-23.008
				c3.748-9.688,13.085-15.096,20.856-12.078C47.678,27.307,50.938,37.607,47.19,47.296z"/>
			<path fill="#FCEC22" d="M46.521,47.055c-3.81,9.378-13.004,14.494-20.536,11.426c-7.532-3.069-10.548-13.159-6.737-22.538
				c3.81-9.379,13.005-14.495,20.536-11.426S50.332,37.675,46.521,47.055z"/>
			<path fill="#FCED21" d="M45.852,46.813c-3.873,9.069-12.924,13.893-20.216,10.775c-7.292-3.119-10.064-12.999-6.191-22.069
				c3.873-9.069,12.924-13.893,20.217-10.774C46.954,27.864,49.725,37.744,45.852,46.813z"/>
			
				<ellipse transform="matrix(0.9122 0.4098 -0.4098 0.9122 19.5826 -9.697)" fill="#FCEE21" cx="32.412" cy="40.834" rx="14.001" ry="17.388"/>
			
				<ellipse transform="matrix(0.9125 0.409 -0.409 0.9125 19.5327 -9.6811)" fill="#FCEE22" cx="32.401" cy="40.828" rx="13.971" ry="17.351"/>
			
				<ellipse transform="matrix(0.9129 0.4082 -0.4082 0.9129 19.4834 -9.6653)" fill="#FCEE23" cx="32.39" cy="40.823" rx="13.941" ry="17.315"/>
			
				<ellipse transform="matrix(0.9133 0.4073 -0.4073 0.9133 19.4335 -9.6492)" fill="#FCEE24" cx="32.379" cy="40.817" rx="13.912" ry="17.278"/>
			
				<ellipse transform="matrix(0.9137 0.4065 -0.4065 0.9137 19.384 -9.6333)" fill="#FCEE25" cx="32.368" cy="40.812" rx="13.882" ry="17.241"/>
			
				<ellipse transform="matrix(0.914 0.4056 -0.4056 0.914 19.3342 -9.6173)" fill="#FCEE26" cx="32.357" cy="40.807" rx="13.853" ry="17.204"/>
			
				<ellipse transform="matrix(0.9144 0.4048 -0.4048 0.9144 19.2834 -9.601)" fill="#FCEE27" cx="32.346" cy="40.801" rx="13.823" ry="17.168"/>
			
				<ellipse transform="matrix(0.9148 0.4039 -0.4039 0.9148 19.2333 -9.5848)" fill="#FCEF28" cx="32.335" cy="40.796" rx="13.793" ry="17.131"/>
			
				<ellipse transform="matrix(0.9152 0.403 -0.403 0.9152 19.1822 -9.5683)" fill="#FCEF29" cx="32.324" cy="40.791" rx="13.764" ry="17.094"/>
			
				<ellipse transform="matrix(0.9156 0.4022 -0.4022 0.9156 19.1316 -9.5519)" fill="#FCEF2A" cx="32.313" cy="40.785" rx="13.734" ry="17.058"/>
			<path fill="#FCEF2B" d="M44.855,46.279c-3.77,8.611-12.447,13.129-19.379,10.092c-6.933-3.038-9.497-12.481-5.726-21.092
				c3.77-8.611,12.447-13.129,19.38-10.091C46.062,28.226,48.625,37.668,44.855,46.279z"/>
			<path fill="#FCEF2C" d="M44.822,46.25c-3.753,8.596-12.407,13.113-19.328,10.089c-6.92-3.025-9.488-12.445-5.734-21.041
				c3.753-8.596,12.407-13.113,19.328-10.088C46.009,28.234,48.576,37.654,44.822,46.25z"/>
			<path fill="#FCEF2D" d="M44.789,46.221c-3.737,8.581-12.367,13.096-19.276,10.085c-6.909-3.011-9.479-12.409-5.742-20.99
				c3.737-8.581,12.368-13.096,19.276-10.085C45.956,28.242,48.526,37.64,44.789,46.221z"/>
			<path fill="#FCEF2E" d="M44.756,46.192c-3.72,8.566-12.328,13.08-19.224,10.083c-6.897-2.999-9.471-12.373-5.75-20.939
				c3.72-8.566,12.328-13.08,19.225-10.082C45.903,28.25,48.477,37.625,44.756,46.192z"/>
			<path fill="#FCEF2F" d="M44.724,46.163c-3.704,8.551-12.288,13.064-19.173,10.08c-6.885-2.985-9.463-12.337-5.758-20.889
				c3.704-8.551,12.289-13.064,19.173-10.079C45.85,28.259,48.428,37.611,44.724,46.163z"/>
			<path fill="#FCEF30" d="M44.69,46.133C41.003,54.669,32.442,59.181,25.57,56.21c-6.873-2.972-9.455-12.301-5.767-20.838
				c3.688-8.536,12.249-13.047,19.122-10.076S48.378,37.597,44.69,46.133z"/>
			<path fill="#FCEF31" d="M44.658,46.104c-3.671,8.521-12.208,13.032-19.069,10.074c-6.861-2.959-9.446-12.266-5.775-20.788
				c3.671-8.521,12.209-13.031,19.07-10.073S48.329,37.582,44.658,46.104z"/>
			<path fill="#FCEF32" d="M44.625,46.075c-3.654,8.507-12.169,13.015-19.018,10.07c-6.849-2.946-9.438-12.229-5.783-20.736
				c3.654-8.506,12.169-13.015,19.018-10.07S48.28,37.568,44.625,46.075z"/>
			<path fill="#FCEF33" d="M44.592,46.045c-3.638,8.492-12.129,12.999-18.966,10.067c-6.836-2.933-9.429-12.194-5.791-20.686
				s12.13-12.999,18.966-10.067S48.23,37.554,44.592,46.045z"/>
			<path fill="#FCEF34" d="M44.56,46.017c-3.622,8.477-12.09,12.982-18.914,10.064c-6.825-2.919-9.421-12.158-5.799-20.635
				c3.622-8.477,12.09-12.982,18.915-10.063C45.585,28.301,48.181,37.539,44.56,46.017z"/>
			<path fill="#FCF035" d="M44.526,45.987c-3.604,8.462-12.05,12.966-18.862,10.061c-6.813-2.907-9.412-12.122-5.807-20.584
				c3.605-8.462,12.051-12.966,18.863-10.061C45.532,28.309,48.132,37.525,44.526,45.987z"/>
			<path fill="#FCF036" d="M44.494,45.958c-3.588,8.447-12.01,12.95-18.811,10.058c-6.8-2.893-9.404-12.086-5.815-20.533
				c3.588-8.447,12.011-12.95,18.811-10.058S48.083,37.51,44.494,45.958z"/>
			<path fill="#FCF037" d="M44.461,45.929c-3.572,8.432-11.971,12.934-18.759,10.055c-6.788-2.88-9.395-12.05-5.823-20.483
				c3.572-8.432,11.971-12.934,18.759-10.054S48.033,37.496,44.461,45.929z"/>
			<path fill="#FCF038" d="M44.428,45.899c-3.556,8.417-11.931,12.917-18.708,10.052c-6.776-2.867-9.387-12.014-5.831-20.432
				c3.555-8.417,11.931-12.917,18.708-10.051C45.374,28.334,47.984,37.481,44.428,45.899z"/>
			<path fill="#FCF039" d="M44.395,45.87c-3.539,8.403-11.891,12.901-18.655,10.049c-6.764-2.854-9.379-11.979-5.839-20.381
				c3.539-8.402,11.892-12.901,18.656-10.048C45.32,28.343,47.935,37.467,44.395,45.87z"/>
			<path fill="#FCF03A" d="M44.362,45.841c-3.522,8.388-11.852,12.885-18.604,10.046c-6.752-2.841-9.37-11.943-5.847-20.331
				c3.522-8.387,11.852-12.885,18.604-10.045C45.268,28.351,47.885,37.453,44.362,45.841z"/>
			<path fill="#FCF03B" d="M44.33,45.812c-3.506,8.373-11.812,12.869-18.552,10.042c-6.74-2.827-9.362-11.907-5.855-20.28
				c3.506-8.373,11.813-12.869,18.553-10.042C45.214,28.359,47.836,37.438,44.33,45.812z"/>
			<path fill="#FCF03C" d="M44.297,45.783c-3.489,8.358-11.772,12.853-18.5,10.039c-6.728-2.814-9.354-11.871-5.864-20.229
				c3.489-8.358,11.773-12.853,18.501-10.039C45.162,28.368,47.787,37.424,44.297,45.783z"/>
			<path fill="#FCF03D" d="M44.264,45.753C40.791,54.096,32.531,58.59,25.815,55.79c-6.716-2.801-9.345-11.835-5.872-20.178
				c3.473-8.343,11.733-12.836,18.449-10.036C45.108,28.376,47.737,37.41,44.264,45.753z"/>
			<path fill="#FCF03E" d="M44.231,45.724c-3.456,8.328-11.693,12.82-18.397,10.033c-6.704-2.788-9.336-11.799-5.88-20.128
				c3.457-8.328,11.694-12.82,18.397-10.032C45.056,28.384,47.688,37.396,44.231,45.724z"/>
			<path fill="#FCF03F" d="M44.198,45.695c-3.44,8.313-11.653,12.804-18.345,10.03c-6.692-2.775-9.328-11.764-5.888-20.077
				s11.654-12.804,18.346-10.029C45.002,28.393,47.638,37.381,44.198,45.695z"/>
			<path fill="#FCF040" d="M44.166,45.666c-3.423,8.298-11.614,12.788-18.294,10.027c-6.68-2.762-9.319-11.727-5.896-20.026
				C23.399,27.368,31.59,22.879,38.27,25.64C44.95,28.401,47.589,37.367,44.166,45.666z"/>
			<path fill="#FCF041" d="M44.132,45.636C40.726,53.92,32.559,58.408,25.891,55.66c-6.668-2.749-9.311-11.691-5.904-19.976
				c3.407-8.283,11.575-12.771,18.243-10.023C44.896,28.41,47.54,37.353,44.132,45.636z"/>
			<path fill="#FCF142" d="M44.1,45.607c-3.39,8.269-11.534,12.755-18.19,10.021c-6.656-2.735-9.303-11.656-5.913-19.925
				c3.391-8.269,11.535-12.755,18.191-10.02S47.49,37.338,44.1,45.607z"/>
			<path fill="#FCF143" d="M44.067,45.578c-3.374,8.253-11.495,12.739-18.139,10.018c-6.644-2.722-9.294-11.62-5.92-19.874
				s11.496-12.739,18.139-10.017S47.441,37.324,44.067,45.578z"/>
			<path fill="#FCF144" d="M44.034,45.549c-3.357,8.239-11.455,12.723-18.087,10.014c-6.632-2.709-9.286-11.583-5.928-19.823
				c3.357-8.239,11.456-12.722,18.087-10.014C44.738,28.435,47.392,37.309,44.034,45.549z"/>
			<path fill="#FCF145" d="M44.001,45.52c-3.341,8.224-11.416,12.706-18.035,10.011c-6.62-2.696-9.278-11.548-5.937-19.772
				c3.34-8.224,11.416-12.706,18.035-10.011S47.342,37.295,44.001,45.52z"/>
			<path fill="#FDF146" d="M43.968,45.49c-3.324,8.209-11.375,12.69-17.983,10.008c-6.607-2.683-9.269-11.512-5.944-19.722
				c3.324-8.209,11.376-12.69,17.984-10.008C44.632,28.451,47.293,37.281,43.968,45.49z"/>
			<path fill="#FDF147" d="M43.936,45.461C40.628,53.655,32.6,58.135,26.004,55.466c-6.596-2.669-9.261-11.477-5.953-19.671
				c3.308-8.194,11.336-12.674,17.932-10.005C44.579,28.459,47.244,37.266,43.936,45.461z"/>
			<path fill="#FDF148" d="M43.903,45.432c-3.291,8.18-11.296,12.658-17.88,10.002c-6.584-2.657-9.252-11.44-5.961-19.621
				c3.291-8.179,11.297-12.657,17.88-10.001S47.194,37.252,43.903,45.432z"/>
			<path fill="#FDF149" d="M43.87,45.402c-3.275,8.165-11.257,12.642-17.829,9.999c-6.571-2.643-9.244-11.404-5.969-19.569
				c3.274-8.165,11.257-12.641,17.829-9.999C44.473,28.477,47.145,37.237,43.87,45.402z"/>
			<path fill="#FDF14A" d="M43.837,45.374c-3.258,8.149-11.217,12.625-17.776,9.996c-6.56-2.63-9.235-11.369-5.977-19.519
				s11.218-12.625,17.777-9.996C44.42,28.485,47.096,37.223,43.837,45.374z"/>
			<path fill="#FDF14B" d="M43.804,45.344c-3.242,8.135-11.177,12.609-17.725,9.993c-6.548-2.617-9.228-11.333-5.985-19.468
				c3.242-8.135,11.178-12.608,17.726-9.992C44.367,28.493,47.046,37.209,43.804,45.344z"/>
			<path fill="#FDF14C" d="M43.771,45.315c-3.225,8.12-11.138,12.592-17.673,9.99c-6.535-2.604-9.219-11.297-5.993-19.417
				c3.225-8.12,11.138-12.592,17.674-9.989C44.314,28.501,46.997,37.194,43.771,45.315z"/>
			<path fill="#FDF14D" d="M43.739,45.286c-3.208,8.105-11.098,12.576-17.622,9.986c-6.523-2.59-9.21-11.261-6.001-19.366
				c3.208-8.105,11.099-12.576,17.622-9.986C44.261,28.51,46.948,37.18,43.739,45.286z"/>
			<path fill="#FDF14E" d="M43.706,45.256c-3.192,8.09-11.058,12.56-17.569,9.983c-6.512-2.577-9.202-11.225-6.01-19.316
				c3.192-8.09,11.059-12.56,17.57-9.982C44.208,28.518,46.898,37.166,43.706,45.256z"/>
			<path fill="#FDF24F" d="M43.673,45.227c-3.175,8.076-11.019,12.544-17.518,9.98c-6.499-2.564-9.193-11.189-6.018-19.265
				c3.176-8.075,11.02-12.543,17.519-9.979C44.155,28.526,46.849,37.151,43.673,45.227z"/>
			<path fill="#FDF250" d="M43.64,45.198c-3.159,8.061-10.979,12.528-17.466,9.978c-6.487-2.551-9.185-11.153-6.026-19.214
				c3.159-8.061,10.98-12.527,17.467-9.977C44.102,28.535,46.799,37.137,43.64,45.198z"/>
			<path fill="#FDF251" d="M43.607,45.168c-3.143,8.046-10.939,12.512-17.415,9.975c-6.476-2.538-9.177-11.118-6.034-19.164
				c3.143-8.046,10.94-12.511,17.416-9.974C44.049,28.543,46.75,37.123,43.607,45.168z"/>
			<path fill="#FDF252" d="M43.575,45.14c-3.126,8.031-10.9,12.495-17.363,9.971c-6.463-2.524-9.168-11.082-6.042-19.113
				c3.126-8.031,10.9-12.495,17.363-9.97C43.996,28.552,46.701,37.108,43.575,45.14z"/>
			<path fill="#FDF253" d="M43.542,45.11c-3.109,8.016-10.86,12.479-17.311,9.968c-6.451-2.512-9.16-11.046-6.05-19.062
				C23.29,28,31.041,23.538,37.492,26.049C43.943,28.56,46.651,37.094,43.542,45.11z"/>
			<path fill="#FDF254" d="M43.509,45.081c-3.093,8.001-10.82,12.462-17.259,9.965c-6.439-2.499-9.152-11.01-6.058-19.011
				c3.093-8.001,10.821-12.462,17.26-9.964S46.602,37.08,43.509,45.081z"/>
			<path fill="#FDF255" d="M43.476,45.052c-3.077,7.986-10.781,12.446-17.208,9.962c-6.427-2.485-9.143-10.974-6.066-18.961
				c3.077-7.986,10.781-12.446,17.208-9.961S46.553,37.065,43.476,45.052z"/>
			<path fill="#FDF256" d="M43.443,45.022c-3.06,7.972-10.741,12.43-17.156,9.959c-6.415-2.473-9.135-10.938-6.074-18.91
				c3.06-7.971,10.742-12.43,17.157-9.958C43.784,28.585,46.503,37.051,43.443,45.022z"/>
			<path fill="#FDF257" d="M43.41,44.993c-3.043,7.957-10.701,12.414-17.104,9.956c-6.403-2.459-9.126-10.902-6.083-18.859
				c3.043-7.957,10.702-12.414,17.105-9.955C43.731,28.593,46.454,37.037,43.41,44.993z"/>
			<path fill="#FDF258" d="M43.377,44.964c-3.027,7.942-10.662,12.398-17.053,9.953c-6.391-2.446-9.118-10.866-6.09-18.809
				c3.027-7.941,10.663-12.397,17.053-9.952S46.405,37.022,43.377,44.964z"/>
			<path fill="#FDF259" d="M43.345,44.935c-3.01,7.927-10.623,12.381-17.001,9.949c-6.379-2.433-9.109-10.831-6.099-18.758
				c3.011-7.927,10.623-12.381,17.001-9.949C43.625,28.61,46.355,37.008,43.345,44.935z"/>
			<path fill="#FDF25A" d="M43.312,44.906c-2.994,7.912-10.583,12.365-16.95,9.946c-6.367-2.42-9.101-10.795-6.106-18.707
				s10.583-12.365,16.95-9.946S46.306,36.993,43.312,44.906z"/>
			<path fill="#FDF25B" d="M43.279,44.876c-2.977,7.897-10.543,12.349-16.897,9.943c-6.354-2.406-9.092-10.759-6.115-18.656
				c2.978-7.896,10.543-12.348,16.898-9.942C43.52,28.627,46.257,36.979,43.279,44.876z"/>
			<path fill="#FDF35C" d="M43.246,44.847c-2.961,7.882-10.503,12.333-16.846,9.94c-6.343-2.393-9.084-10.723-6.123-18.605
				c2.961-7.882,10.504-12.332,16.847-9.939C43.466,28.635,46.208,36.965,43.246,44.847z"/>
			<path fill="#FDF35D" d="M43.213,44.818c-2.944,7.867-10.464,12.316-16.794,9.937c-6.331-2.38-9.075-10.687-6.131-18.555
				c2.945-7.867,10.464-12.316,16.795-9.936C43.414,28.644,46.158,36.95,43.213,44.818z"/>
			<path fill="#FDF35E" d="M43.181,44.789c-2.928,7.853-10.424,12.3-16.743,9.934c-6.318-2.367-9.067-10.651-6.139-18.504
				s10.425-12.3,16.743-9.933C43.36,28.652,46.109,36.936,43.181,44.789z"/>
			<path fill="#FDF35F" d="M43.147,44.759c-2.911,7.838-10.384,12.284-16.69,9.931c-6.307-2.354-9.059-10.616-6.147-18.454
				c2.912-7.837,10.385-12.283,16.691-9.93C43.308,28.66,46.06,36.921,43.147,44.759z"/>
			<path fill="#FDF360" d="M43.115,44.73c-2.895,7.822-10.345,12.267-16.639,9.927c-6.294-2.34-9.05-10.579-6.155-18.402
				c2.895-7.823,10.345-12.267,16.639-9.927C43.254,28.668,46.01,36.907,43.115,44.73z"/>
			<path fill="#FDF361" d="M43.082,44.701c-2.878,7.808-10.305,12.251-16.587,9.924c-6.283-2.328-9.042-10.543-6.163-18.352
				c2.878-7.808,10.305-12.251,16.588-9.924C43.202,28.677,45.961,36.893,43.082,44.701z"/>
			<path fill="#FDF362" d="M43.049,44.672c-2.862,7.793-10.266,12.235-16.536,9.921c-6.271-2.314-9.034-10.508-6.171-18.301
				c2.862-7.792,10.266-12.234,16.536-9.92C43.148,28.685,45.911,36.878,43.049,44.672z"/>
			<path fill="#FDF363" d="M43.017,44.643c-2.846,7.778-10.226,12.219-16.484,9.918c-6.258-2.301-9.025-10.472-6.179-18.25
				c2.845-7.778,10.226-12.218,16.484-9.917C43.096,28.693,45.862,36.864,43.017,44.643z"/>
			<path fill="#FDF364" d="M42.983,44.613c-2.829,7.763-10.186,12.203-16.432,9.916c-6.247-2.288-9.017-10.436-6.188-18.2
				c2.829-7.763,10.187-12.202,16.433-9.915S45.813,36.85,42.983,44.613z"/>
			<path fill="#FDF365" d="M42.951,44.584c-2.812,7.749-10.146,12.187-16.38,9.912c-6.234-2.275-9.008-10.4-6.196-18.149
				c2.813-7.748,10.147-12.186,16.381-9.911C42.99,28.71,45.763,36.835,42.951,44.584z"/>
			<path fill="#FDF366" d="M42.918,44.555c-2.796,7.734-10.107,12.17-16.329,9.909c-6.222-2.262-9-10.364-6.204-18.098
				c2.796-7.733,10.107-12.169,16.329-9.908S45.714,36.821,42.918,44.555z"/>
			<path fill="#FDF367" d="M42.885,44.525c-2.779,7.719-10.067,12.154-16.277,9.906c-6.21-2.249-8.992-10.329-6.212-18.047
				c2.779-7.719,10.067-12.153,16.278-9.905C42.884,28.727,45.665,36.807,42.885,44.525z"/>
			<path fill="#FDF368" d="M42.852,44.497c-2.763,7.704-10.027,12.137-16.225,9.903c-6.198-2.236-8.983-10.292-6.22-17.997
				c2.763-7.704,10.028-12.137,16.226-9.902C42.831,28.735,45.615,36.792,42.852,44.497z"/>
			<path fill="#FDF469" d="M42.819,44.467c-2.746,7.689-9.988,12.121-16.174,9.899c-6.186-2.222-8.975-10.256-6.228-17.946
				c2.747-7.688,9.988-12.121,16.174-9.899S45.566,36.778,42.819,44.467z"/>
			<path fill="#FDF46A" d="M42.787,44.438c-2.73,7.674-9.948,12.105-16.122,9.896c-6.174-2.209-8.966-10.221-6.236-17.895
				c2.73-7.674,9.949-12.104,16.123-9.896S45.517,36.764,42.787,44.438z"/>
			<path fill="#FDF46B" d="M42.754,44.409c-2.713,7.659-9.909,12.089-16.07,9.894c-6.162-2.196-8.958-10.185-6.245-17.844
				s9.909-12.088,16.071-9.893C42.672,28.76,45.467,36.749,42.754,44.409z"/>
			<path fill="#FDF46C" d="M42.721,44.379c-2.696,7.645-9.869,12.073-16.019,9.891c-6.15-2.183-8.949-10.149-6.252-17.794
				c2.697-7.644,9.87-12.072,16.02-9.89C42.619,28.769,45.418,36.735,42.721,44.379z"/>
			<path fill="#FDF46D" d="M42.688,44.35c-2.68,7.629-9.829,12.056-15.967,9.888c-6.138-2.17-8.941-10.113-6.261-17.743
				c2.681-7.629,9.83-12.056,15.968-9.887C42.566,28.777,45.369,36.721,42.688,44.35z"/>
			<path fill="#FDF46E" d="M42.655,44.321c-2.664,7.615-9.79,12.04-15.915,9.884c-6.126-2.156-8.933-10.077-6.269-17.692
				c2.664-7.615,9.79-12.04,15.916-9.883C42.513,28.786,45.319,36.706,42.655,44.321z"/>
			<path fill="#FDF46F" d="M42.623,44.292c-2.647,7.6-9.75,12.023-15.864,9.881c-6.114-2.143-8.924-10.042-6.276-17.642
				c2.647-7.599,9.75-12.023,15.864-9.88C42.46,28.794,45.27,36.692,42.623,44.292z"/>
			<path fill="#FDF470" d="M42.589,44.263c-2.63,7.584-9.71,12.007-15.812,9.878c-6.102-2.13-8.916-10.005-6.285-17.591
				c2.631-7.584,9.71-12.007,15.812-9.877C42.407,28.802,45.221,36.677,42.589,44.263z"/>
			<path fill="#FDF471" d="M42.557,44.233c-2.614,7.57-9.67,11.991-15.76,9.875c-6.09-2.117-8.908-9.97-6.293-17.54
				c2.614-7.57,9.671-11.991,15.76-9.874C42.354,28.811,45.171,36.663,42.557,44.233z"/>
			<path fill="#FDF472" d="M42.524,44.204c-2.598,7.555-9.631,11.975-15.708,9.872s-8.899-9.934-6.301-17.489
				c2.598-7.555,9.631-11.975,15.709-9.871C42.301,28.819,45.122,36.648,42.524,44.204z"/>
			<path fill="#FDF473" d="M42.491,44.175c-2.581,7.541-9.591,11.958-15.657,9.869c-6.066-2.091-8.891-9.898-6.309-17.438
				c2.581-7.54,9.591-11.958,15.657-9.868C42.248,28.827,45.073,36.634,42.491,44.175z"/>
			<path fill="#FDF474" d="M42.458,44.146c-2.565,7.525-9.552,11.942-15.605,9.866c-6.054-2.078-8.882-9.862-6.317-17.388
				c2.565-7.525,9.552-11.942,15.605-9.865C42.195,28.835,45.023,36.62,42.458,44.146z"/>
			<path fill="#FDF475" d="M42.425,44.116c-2.548,7.511-9.512,11.926-15.553,9.863c-6.042-2.064-8.874-9.826-6.325-17.337
				s9.512-11.926,15.554-9.862C42.142,28.844,44.974,36.605,42.425,44.116z"/>
			<path fill="#FDF576" d="M42.393,44.087c-2.532,7.496-9.472,11.91-15.501,9.86c-6.03-2.051-8.865-9.791-6.333-17.287
				c2.532-7.495,9.473-11.909,15.502-9.858S44.924,36.591,42.393,44.087z"/>
			<path fill="#FDF577" d="M42.36,44.058c-2.515,7.48-9.433,11.894-15.45,9.856c-6.018-2.038-8.857-9.754-6.342-17.235
				c2.515-7.48,9.433-11.893,15.45-9.855C42.036,28.861,44.875,36.577,42.36,44.058z"/>
			<path fill="#FDF578" d="M42.327,44.029c-2.499,7.466-9.393,11.877-15.398,9.853c-6.005-2.025-8.848-9.718-6.35-17.185
				c2.499-7.466,9.394-11.877,15.399-9.853C41.983,28.869,44.826,36.563,42.327,44.029z"/>
			<path fill="#FDF579" d="M42.294,44c-2.482,7.451-9.353,11.861-15.346,9.85c-5.994-2.012-8.84-9.683-6.358-17.134
				c2.482-7.451,9.354-11.86,15.347-9.849S44.776,36.548,42.294,44z"/>
			<path fill="#FDF57A" d="M42.261,43.97c-2.465,7.436-9.313,11.845-15.294,9.847c-5.982-1.999-8.832-9.647-6.366-17.083
				c2.466-7.436,9.314-11.844,15.295-9.846C41.877,28.886,44.727,36.534,42.261,43.97z"/>
			<path fill="#FDF57B" d="M42.229,43.941c-2.449,7.421-9.274,11.829-15.243,9.844c-5.969-1.986-8.823-9.611-6.374-17.033
				c2.45-7.421,9.274-11.828,15.244-9.843S44.678,36.52,42.229,43.941z"/>
			<path fill="#FDF57C" d="M42.196,43.912c-2.433,7.407-9.234,11.813-15.191,9.841c-5.958-1.972-8.815-9.575-6.382-16.981
				c2.433-7.406,9.234-11.812,15.191-9.84S44.628,36.505,42.196,43.912z"/>
			<path fill="#FDF57D" d="M42.163,43.882c-2.416,7.392-9.194,11.796-15.139,9.838c-5.946-1.959-8.807-9.539-6.39-16.931
				c2.416-7.391,9.195-11.795,15.14-9.837C41.718,28.911,44.579,36.491,42.163,43.882z"/>
			<path fill="#FDF57E" d="M42.13,43.854c-2.399,7.376-9.155,11.78-15.088,9.834c-5.933-1.946-8.798-9.503-6.398-16.88
				c2.399-7.376,9.155-11.779,15.088-9.834C41.665,28.919,44.53,36.476,42.13,43.854z"/>
			<path fill="#FDF57F" d="M42.097,43.824c-2.383,7.362-9.115,11.764-15.036,9.832c-5.921-1.933-8.79-9.468-6.406-16.83
				s9.116-11.763,15.037-9.831C41.612,28.928,44.48,36.462,42.097,43.824z"/>
			<path fill="#FDF580" d="M42.064,43.795c-2.367,7.347-9.076,11.747-14.985,9.828c-5.909-1.919-8.781-9.431-6.414-16.779
				c2.367-7.347,9.076-11.747,14.985-9.827C41.559,28.936,44.431,36.448,42.064,43.795z"/>
			<path fill="#FDF581" d="M42.032,43.766c-2.35,7.332-9.036,11.731-14.933,9.825c-5.897-1.906-8.772-9.396-6.422-16.728
				c2.35-7.332,9.036-11.73,14.933-9.824C41.506,28.944,44.382,36.433,42.032,43.766z"/>
			<path fill="#FDF582" d="M41.999,43.736c-2.333,7.317-8.996,11.715-14.881,9.822c-5.885-1.894-8.764-9.36-6.431-16.677
				s8.997-11.714,14.881-9.821C41.453,28.953,44.333,36.419,41.999,43.736z"/>
			<path fill="#FDF683" d="M41.966,43.707c-2.317,7.303-8.957,11.699-14.83,9.819c-5.873-1.88-8.756-9.324-6.438-16.627
				c2.317-7.302,8.957-11.698,14.83-9.818C41.4,28.961,44.283,36.404,41.966,43.707z"/>
			<path fill="#FDF684" d="M41.933,43.678c-2.3,7.288-8.917,11.683-14.778,9.816c-5.861-1.867-8.748-9.288-6.447-16.576
				c2.301-7.287,8.917-11.682,14.778-9.815C41.347,28.969,44.234,36.39,41.933,43.678z"/>
			<path fill="#FDF685" d="M41.9,43.649c-2.284,7.272-8.877,11.666-14.726,9.813c-5.849-1.854-8.739-9.252-6.455-16.525
				c2.284-7.272,8.878-11.666,14.727-9.812C41.294,28.978,44.185,36.376,41.9,43.649z"/>
			<path fill="#FDF686" d="M41.867,43.62c-2.267,7.258-8.837,11.65-14.674,9.81c-5.837-1.841-8.73-9.216-6.463-16.474
				s8.838-11.649,14.675-9.809C41.241,28.986,44.135,36.361,41.867,43.62z"/>
			<path fill="#FDF687" d="M41.834,43.59c-2.251,7.243-8.798,11.633-14.623,9.807c-5.825-1.828-8.722-9.181-6.471-16.424
				c2.251-7.243,8.798-11.633,14.623-9.806C41.188,28.994,44.085,36.347,41.834,43.59z"/>
			<path fill="#FDF688" d="M41.802,43.561c-2.234,7.228-8.758,11.617-14.571,9.804c-5.813-1.814-8.714-9.145-6.479-16.373
				c2.235-7.228,8.759-11.617,14.572-9.803C41.135,29.003,44.036,36.333,41.802,43.561z"/>
			<path fill="#FDF689" d="M41.769,43.532c-2.218,7.213-8.719,11.601-14.52,9.801c-5.801-1.802-8.705-9.109-6.487-16.322
				c2.218-7.213,8.719-11.601,14.52-9.8C41.083,29.011,43.987,36.318,41.769,43.532z"/>
			<path fill="#FDF68A" d="M41.736,43.502c-2.201,7.198-8.679,11.585-14.467,9.797c-5.789-1.788-8.697-9.073-6.495-16.271
				c2.201-7.198,8.679-11.584,14.468-9.796C41.029,29.02,43.938,36.304,41.736,43.502z"/>
			<path fill="#FDF68B" d="M41.703,43.473c-2.185,7.184-8.639,11.569-14.416,9.794c-5.777-1.775-8.688-9.037-6.503-16.221
				c2.185-7.183,8.64-11.568,14.416-9.793S43.888,36.29,41.703,43.473z"/>
			<path fill="#FDF68C" d="M41.67,43.444c-2.168,7.169-8.6,11.553-14.364,9.792c-5.765-1.762-8.68-9.001-6.511-16.17
				c2.168-7.168,8.6-11.552,14.364-9.791S43.839,36.275,41.67,43.444z"/>
			<path fill="#FDF68D" d="M41.638,43.415c-2.152,7.153-8.56,11.536-14.313,9.788c-5.752-1.749-8.672-8.965-6.52-16.12
				c2.152-7.153,8.56-11.535,14.313-9.787S43.79,36.261,41.638,43.415z"/>
			<path fill="#FDF68E" d="M41.604,43.386c-2.135,7.139-8.52,11.52-14.26,9.785c-5.741-1.735-8.664-8.929-6.528-16.068
				c2.135-7.139,8.521-11.519,14.261-9.784C40.817,29.053,43.74,36.247,41.604,43.386z"/>
			<path fill="#FDF68F" d="M41.572,43.356c-2.119,7.124-8.48,11.503-14.209,9.782c-5.729-1.722-8.655-8.894-6.536-16.018
				s8.481-11.503,14.209-9.781C40.765,29.061,43.691,36.232,41.572,43.356z"/>
			<path fill="#FEF790" d="M41.539,43.327c-2.103,7.109-8.441,11.487-14.157,9.779c-5.716-1.709-8.646-8.857-6.544-15.967
				c2.103-7.109,8.441-11.487,14.158-9.778C40.711,29.07,43.642,36.218,41.539,43.327z"/>
			<path fill="#FEF791" d="M41.506,43.298c-2.086,7.094-8.401,11.471-14.105,9.776c-5.705-1.696-8.638-8.822-6.552-15.917
				c2.086-7.094,8.402-11.47,14.106-9.774C40.659,29.078,43.592,36.204,41.506,43.298z"/>
			<path fill="#FEF792" d="M41.474,43.269c-2.069,7.08-8.362,11.455-14.054,9.773c-5.692-1.683-8.629-8.786-6.56-15.866
				c2.07-7.079,8.362-11.455,14.054-9.771C40.606,29.086,43.543,36.189,41.474,43.269z"/>
			<path fill="#FEF793" d="M41.44,43.239c-2.053,7.065-8.322,11.439-14.002,9.77c-5.681-1.669-8.621-8.75-6.568-15.814
				c2.053-7.064,8.323-11.438,14.003-9.769C40.553,29.095,43.494,36.175,41.44,43.239z"/>
			<path fill="#FEF794" d="M41.408,43.21c-2.036,7.049-8.282,11.422-13.95,9.766c-5.668-1.657-8.613-8.714-6.577-15.764
				c2.037-7.049,8.283-11.422,13.951-9.765C40.5,29.103,43.444,36.16,41.408,43.21z"/>
			<path fill="#FEF795" d="M41.375,43.181c-2.02,7.035-8.243,11.406-13.899,9.763c-5.656-1.644-8.604-8.678-6.584-15.713
				c2.02-7.035,8.243-11.406,13.899-9.762C40.447,29.111,43.395,36.146,41.375,43.181z"/>
			<path fill="#FEF796" d="M41.342,43.152c-2.003,7.02-8.203,11.39-13.847,9.76c-5.645-1.63-8.596-8.643-6.593-15.663
				c2.004-7.02,8.204-11.39,13.848-9.759C40.394,29.12,43.346,36.132,41.342,43.152z"/>
			<path fill="#FEF797" d="M41.309,43.123c-1.986,7.005-8.163,11.374-13.795,9.757c-5.632-1.617-8.588-8.606-6.601-15.612
				c1.987-7.004,8.164-11.373,13.795-9.756C40.341,29.128,43.296,36.117,41.309,43.123z"/>
			<path fill="#FEF798" d="M41.276,43.093c-1.97,6.99-8.124,11.357-13.744,9.754c-5.62-1.604-8.579-8.571-6.608-15.561
				c1.97-6.99,8.124-11.357,13.744-9.753C40.288,29.136,43.247,36.103,41.276,43.093z"/>
			<path fill="#FEF799" d="M41.244,43.064c-1.954,6.976-8.084,11.341-13.692,9.751c-5.608-1.591-8.571-8.535-6.617-15.51
				c1.954-6.975,8.084-11.341,13.692-9.75C40.235,29.145,43.198,36.088,41.244,43.064z"/>
			<path fill="#FEF79A" d="M41.211,43.035c-1.938,6.96-8.044,11.325-13.64,9.748c-5.596-1.578-8.563-8.499-6.625-15.46
				c1.938-6.96,8.044-11.324,13.641-9.747C40.182,29.153,43.148,36.074,41.211,43.035z"/>
			<path fill="#FEF79B" d="M41.178,43.005c-1.92,6.946-8.004,11.309-13.588,9.745c-5.584-1.565-8.554-8.463-6.633-15.409
				c1.921-6.945,8.005-11.308,13.589-9.744C40.129,29.162,43.099,36.06,41.178,43.005z"/>
			<path fill="#FEF79C" d="M41.145,42.977c-1.904,6.931-7.965,11.292-13.537,9.741c-5.572-1.551-8.545-8.427-6.641-15.358
				s7.965-11.292,13.537-9.741C40.076,29.17,43.049,36.045,41.145,42.977z"/>
			<path fill="#FEF79D" d="M41.112,42.947c-1.888,6.916-7.925,11.276-13.485,9.738c-5.56-1.538-8.537-8.391-6.649-15.307
				s7.926-11.276,13.485-9.738C40.023,29.178,43,36.031,41.112,42.947z"/>
			<path fill="#FEF89E" d="M41.08,42.918c-1.871,6.901-7.886,11.26-13.434,9.735c-5.548-1.525-8.529-8.355-6.657-15.257
				c1.872-6.9,7.886-11.259,13.434-9.734C39.97,29.187,42.951,36.017,41.08,42.918z"/>
			<path fill="#FEF89F" d="M41.046,42.889c-1.854,6.886-7.846,11.244-13.381,9.732c-5.536-1.512-8.521-8.32-6.666-15.206
				c1.855-6.886,7.847-11.243,13.382-9.731C39.917,29.195,42.901,36.002,41.046,42.889z"/>
			<path fill="#FEF8A0" d="M41.014,42.859c-1.838,6.872-7.806,11.228-13.33,9.729c-5.524-1.499-8.512-8.284-6.674-15.155
				s7.807-11.227,13.331-9.729C39.864,29.203,42.852,35.988,41.014,42.859z"/>
			<path fill="#FEF8A1" d="M40.981,42.83c-1.822,6.856-7.767,11.211-13.278,9.726c-5.512-1.485-8.503-8.248-6.682-15.104
				c1.822-6.856,7.767-11.21,13.279-9.725C39.811,29.211,42.803,35.974,40.981,42.83z"/>
			<path fill="#FEF8A2" d="M40.948,42.801c-1.805,6.842-7.727,11.195-13.227,9.723c-5.5-1.472-8.495-8.212-6.69-15.054
				c1.806-6.841,7.728-11.194,13.227-9.722C39.758,29.22,42.753,35.959,40.948,42.801z"/>
			<path fill="#FEF8A3" d="M40.916,42.772c-1.789,6.827-7.688,11.178-13.175,9.72c-5.487-1.459-8.486-8.176-6.698-15.003
				c1.789-6.827,7.688-11.178,13.175-9.719C39.705,29.229,42.704,35.945,40.916,42.772z"/>
			<path fill="#FEF8A4" d="M40.882,42.743c-1.772,6.812-7.647,11.162-13.123,9.717c-5.476-1.446-8.478-8.141-6.706-14.953
				c1.772-6.812,7.648-11.162,13.124-9.715C39.652,29.237,42.655,35.931,40.882,42.743z"/>
			<path fill="#FEF8A5" d="M40.85,42.713c-1.755,6.797-7.608,11.146-13.071,9.713c-5.464-1.433-8.47-8.104-6.714-14.901
				c1.755-6.796,7.608-11.146,13.072-9.712C39.599,29.245,42.605,35.916,40.85,42.713z"/>
			<path fill="#FEF8A6" d="M40.817,42.684c-1.739,6.782-7.568,11.13-13.02,9.71c-5.451-1.42-8.461-8.068-6.722-14.851
				c1.739-6.782,7.569-11.129,13.02-9.709C39.546,29.253,42.556,35.902,40.817,42.684z"/>
			<path fill="#FEF8A7" d="M40.784,42.655c-1.723,6.767-7.529,11.113-12.968,9.708c-5.439-1.407-8.453-8.033-6.73-14.8
				s7.529-11.113,12.968-9.707C39.493,29.262,42.507,35.887,40.784,42.655z"/>
			<path fill="#FEF8A8" d="M40.751,42.625c-1.706,6.752-7.489,11.097-12.916,9.705c-5.428-1.394-8.445-7.997-6.738-14.75
				c1.706-6.752,7.489-11.097,12.917-9.703C39.44,29.27,42.458,35.873,40.751,42.625z"/>
			<path fill="#FEF8A9" d="M40.718,42.596c-1.689,6.738-7.449,11.081-12.865,9.702c-5.416-1.38-8.436-7.961-6.746-14.699
				c1.69-6.737,7.45-11.081,12.865-9.7C39.387,29.278,42.408,35.859,40.718,42.596z"/>
			<path fill="#FEF8AA" d="M40.686,42.567c-1.673,6.722-7.41,11.064-12.813,9.698c-5.403-1.367-8.428-7.925-6.754-14.647
				s7.41-11.064,12.813-9.697C39.334,29.287,42.359,35.844,40.686,42.567z"/>
			<path fill="#FEF9AB" d="M40.653,42.538c-1.657,6.708-7.37,11.048-12.761,9.695c-5.392-1.354-8.419-7.889-6.763-14.597
				c1.657-6.707,7.371-11.048,12.762-9.694C39.281,29.295,42.31,35.83,40.653,42.538z"/>
			<path fill="#FEF9AC" d="M40.62,42.509c-1.64,6.693-7.33,11.032-12.709,9.692c-5.379-1.341-8.411-7.854-6.771-14.546
				c1.64-6.692,7.331-11.032,12.71-9.691C39.229,29.304,42.26,35.815,40.62,42.509z"/>
			<path fill="#FEF9AD" d="M40.587,42.479c-1.624,6.678-7.291,11.016-12.658,9.689c-5.367-1.328-8.402-7.817-6.779-14.496
				c1.624-6.678,7.292-11.016,12.658-9.688C39.175,29.312,42.21,35.801,40.587,42.479z"/>
			<path fill="#FEF9AE" d="M40.554,42.45c-1.607,6.663-7.251,11-12.606,9.686c-5.355-1.315-8.394-7.782-6.787-14.445
				c1.607-6.663,7.251-10.999,12.606-9.685C39.123,29.32,42.161,35.787,40.554,42.45z"/>
			<path fill="#FEF9AF" d="M40.521,42.421c-1.59,6.648-7.211,10.983-12.555,9.683c-5.343-1.301-8.385-7.746-6.795-14.394
				c1.591-6.648,7.212-10.983,12.555-9.682C39.069,29.329,42.112,35.772,40.521,42.421z"/>
			<path fill="#FEF9B0" d="M40.489,42.392c-1.574,6.634-7.172,10.967-12.503,9.68c-5.331-1.288-8.377-7.71-6.803-14.343
				c1.574-6.633,7.172-10.967,12.503-9.679C39.017,29.337,42.063,35.758,40.489,42.392z"/>
			<path fill="#FEF9B1" d="M40.456,42.362c-1.557,6.619-7.132,10.951-12.451,9.677c-5.319-1.275-8.369-7.674-6.812-14.292
				c1.558-6.619,7.133-10.951,12.452-9.676C38.963,29.345,42.013,35.744,40.456,42.362z"/>
			<path fill="#FEF9B2" d="M40.423,42.333c-1.541,6.604-7.092,10.935-12.399,9.673c-5.307-1.262-8.36-7.638-6.819-14.242
				c1.542-6.603,7.093-10.934,12.4-9.672C38.911,29.354,41.964,35.729,40.423,42.333z"/>
			<path fill="#FEF9B3" d="M40.39,42.304c-1.524,6.589-7.053,10.918-12.348,9.67s-8.352-7.602-6.827-14.191
				c1.524-6.588,7.053-10.918,12.348-9.669C38.857,29.362,41.915,35.715,40.39,42.304z"/>
			<path fill="#FEF9B4" d="M40.357,42.275c-1.508,6.574-7.013,10.902-12.296,9.667c-5.283-1.235-8.344-7.566-6.835-14.14
				c1.508-6.574,7.013-10.902,12.296-9.666C38.805,29.371,41.865,35.701,40.357,42.275z"/>
			<path fill="#FEF9B5" d="M40.324,42.246c-1.491,6.559-6.973,10.886-12.244,9.664c-5.271-1.223-8.335-7.53-6.843-14.09
				c1.492-6.559,6.974-10.885,12.245-9.663C38.751,29.379,41.816,35.687,40.324,42.246z"/>
			<path fill="#FEF9B6" d="M40.292,42.216c-1.475,6.544-6.934,10.87-12.192,9.661c-5.259-1.209-8.327-7.495-6.852-14.039
				c1.475-6.544,6.934-10.869,12.193-9.66C38.699,29.387,41.767,35.672,40.292,42.216z"/>
			<path fill="#FEF9B7" d="M40.259,42.187c-1.458,6.529-6.894,10.854-12.141,9.658c-5.247-1.196-8.318-7.459-6.86-13.988
				s6.895-10.853,12.141-9.657C38.646,29.396,41.717,35.658,40.259,42.187z"/>
			<path fill="#FEFAB8" d="M40.226,42.158c-1.442,6.515-6.854,10.837-12.089,9.655s-8.31-7.423-6.868-13.938
				c1.442-6.514,6.855-10.836,12.089-9.653C38.593,29.404,41.668,35.643,40.226,42.158z"/>
			<path fill="#FEFAB9" d="M40.193,42.129c-1.425,6.5-6.814,10.821-12.037,9.651c-5.223-1.17-8.301-7.387-6.876-13.887
				c1.426-6.499,6.815-10.82,12.038-9.65C38.54,29.412,41.619,35.629,40.193,42.129z"/>
			<path fill="#FEFABA" d="M40.16,42.1c-1.409,6.484-6.775,10.805-11.985,9.648c-5.211-1.157-8.293-7.351-6.884-13.836
				c1.409-6.484,6.776-10.804,11.986-9.647C38.487,29.42,41.569,35.615,40.16,42.1z"/>
			<path fill="#FEFABB" d="M40.127,42.07c-1.393,6.47-6.735,10.788-11.934,9.646c-5.199-1.144-8.285-7.315-6.892-13.785
				s6.736-10.788,11.935-9.645C38.434,29.429,41.52,35.6,40.127,42.07z"/>
			<path fill="#FEFABC" d="M40.095,42.041c-1.376,6.455-6.696,10.772-11.882,9.642c-5.187-1.13-8.276-7.279-6.9-13.734
				c1.376-6.455,6.696-10.771,11.883-9.641C38.381,29.437,41.471,35.586,40.095,42.041z"/>
			<path fill="#FEFABD" d="M40.062,42.012c-1.359,6.44-6.656,10.756-11.83,9.639c-5.175-1.117-8.268-7.243-6.909-13.684
				c1.36-6.44,6.657-10.755,11.831-9.638C38.328,29.446,41.421,35.571,40.062,42.012z"/>
			<path fill="#FEFABE" d="M40.029,41.982c-1.343,6.425-6.616,10.74-11.779,9.636c-5.163-1.104-8.259-7.208-6.917-13.633
				c1.343-6.425,6.617-10.739,11.779-9.635C38.275,29.454,41.372,35.557,40.029,41.982z"/>
			<path fill="#FEFABF" d="M39.996,41.953c-1.326,6.411-6.577,10.724-11.727,9.633c-5.15-1.091-8.251-7.172-6.925-13.583
				c1.327-6.41,6.578-10.723,11.728-9.632C38.222,29.462,41.322,35.543,39.996,41.953z"/>
			<path fill="#FEFAC0" d="M39.963,41.924c-1.31,6.396-6.537,10.708-11.675,9.63c-5.139-1.078-8.243-7.136-6.933-13.532
				c1.311-6.395,6.538-10.707,11.676-9.629C38.169,29.471,41.273,35.528,39.963,41.924z"/>
			<path fill="#FEFAC1" d="M39.931,41.895c-1.293,6.38-6.498,10.69-11.624,9.626c-5.126-1.064-8.234-7.1-6.94-13.48
				c1.293-6.38,6.498-10.69,11.624-9.626C38.116,29.479,41.224,35.514,39.931,41.895z"/>
			<path fill="#FEFAC2" d="M39.897,41.866c-1.276,6.366-6.458,10.674-11.572,9.624c-5.115-1.051-8.226-7.064-6.949-13.43
				c1.277-6.365,6.458-10.674,11.572-9.623C38.063,29.487,41.174,35.5,39.897,41.866z"/>
			<path fill="#FEFAC3" d="M39.865,41.836c-1.26,6.351-6.418,10.658-11.52,9.621c-5.103-1.039-8.218-7.028-6.957-13.379
				c1.26-6.351,6.418-10.658,11.521-9.62C38.01,29.496,41.125,35.485,39.865,41.836z"/>
			<path fill="#FEFAC4" d="M39.832,41.807c-1.244,6.336-6.378,10.642-11.469,9.618c-5.09-1.025-8.209-6.993-6.965-13.329
				s6.379-10.642,11.469-9.616C37.957,29.504,41.076,35.471,39.832,41.807z"/>
			<path fill="#FEFBC5" d="M39.799,41.778c-1.228,6.321-6.339,10.626-11.417,9.615c-5.079-1.012-8.201-6.957-6.973-13.278
				s6.339-10.625,11.417-9.613C37.904,29.512,41.026,35.457,39.799,41.778z"/>
			<path fill="#FEFBC6" d="M39.766,41.749c-1.21,6.307-6.299,10.61-11.365,9.611c-5.066-0.999-8.192-6.92-6.981-13.227
				c1.211-6.306,6.3-10.609,11.366-9.61C37.851,29.521,40.977,35.442,39.766,41.749z"/>
			<path fill="#FEFBC7" d="M39.733,41.719c-1.194,6.292-6.259,10.594-11.313,9.608c-5.054-0.986-8.184-6.885-6.989-13.176
				c1.194-6.291,6.26-10.593,11.314-9.607C37.798,29.529,40.928,35.428,39.733,41.719z"/>
			<path fill="#FEFBC8" d="M39.701,41.69c-1.178,6.276-6.22,10.577-11.262,9.605c-5.042-0.973-8.175-6.849-6.998-13.125
				c1.178-6.276,6.22-10.577,11.262-9.604C37.745,29.538,40.878,35.414,39.701,41.69z"/>
			<path fill="#FEFBC9" d="M39.668,41.661c-1.161,6.262-6.181,10.561-11.21,9.602c-5.03-0.959-8.167-6.813-7.005-13.075
				c1.162-6.261,6.181-10.56,11.21-9.601C37.692,29.546,40.829,35.399,39.668,41.661z"/>
			<path fill="#FEFBCA" d="M39.635,41.632c-1.145,6.247-6.141,10.544-11.158,9.599c-5.018-0.946-8.158-6.777-7.014-13.024
				c1.145-6.247,6.141-10.544,11.159-9.598C37.639,29.554,40.78,35.385,39.635,41.632z"/>
			<path fill="#FEFBCB" d="M39.602,41.603c-1.128,6.232-6.101,10.528-11.106,9.596c-5.006-0.933-8.15-6.741-7.022-12.973
				c1.128-6.232,6.102-10.528,11.107-9.595C37.586,29.563,40.73,35.371,39.602,41.603z"/>
			<path fill="#FEFBCC" d="M39.569,41.573c-1.112,6.217-6.062,10.512-11.055,9.593c-4.994-0.92-8.141-6.706-7.03-12.923
				c1.112-6.217,6.062-10.511,11.056-9.591C37.533,29.571,40.681,35.356,39.569,41.573z"/>
			<path fill="#FEFBCD" d="M39.537,41.544c-1.095,6.203-6.022,10.496-11.003,9.59c-4.982-0.907-8.133-6.669-7.038-12.872
				c1.096-6.202,6.022-10.495,11.004-9.588C37.48,29.579,40.632,35.342,39.537,41.544z"/>
			<path fill="#FEFBCE" d="M39.503,41.515c-1.078,6.188-5.982,10.48-10.951,9.587c-4.97-0.894-8.125-6.634-7.046-12.821
				c1.079-6.187,5.983-10.479,10.952-9.585C37.427,29.587,40.583,35.327,39.503,41.515z"/>
			<path fill="#FEFBCF" d="M39.471,41.486c-1.062,6.172-5.942,10.463-10.9,9.583c-4.958-0.88-8.116-6.598-7.054-12.771
				c1.062-6.172,5.942-10.462,10.9-9.582C37.375,29.596,40.533,35.313,39.471,41.486z"/>
			<path fill="#FEFBD0" d="M39.438,41.457c-1.045,6.158-5.903,10.447-10.848,9.58c-4.946-0.867-8.108-6.562-7.062-12.72
				c1.046-6.157,5.903-10.446,10.849-9.579C37.321,29.604,40.484,35.298,39.438,41.457z"/>
			<path fill="#FEFBD1" d="M39.405,41.427c-1.029,6.143-5.863,10.431-10.796,9.577c-4.934-0.854-8.1-6.526-7.07-12.669
				c1.029-6.143,5.863-10.43,10.797-9.576C37.269,29.613,40.434,35.284,39.405,41.427z"/>
			<path fill="#FEFCD2" d="M39.373,41.398c-1.013,6.128-5.824,10.415-10.745,9.574c-4.921-0.841-8.091-6.49-7.078-12.618
				s5.824-10.414,10.745-9.573C37.215,29.621,40.385,35.27,39.373,41.398z"/>
			<path fill="#FEFCD3" d="M39.339,41.369c-0.996,6.113-5.784,10.398-10.693,9.571c-4.91-0.828-8.083-6.455-7.086-12.568
				c0.997-6.113,5.784-10.397,10.693-9.57C37.163,29.629,40.335,35.255,39.339,41.369z"/>
			<path fill="#FEFCD4" d="M39.307,41.339c-0.979,6.098-5.744,10.382-10.641,9.568c-4.898-0.814-8.074-6.418-7.095-12.517
				c0.98-6.098,5.745-10.381,10.642-9.567C37.109,29.638,40.286,35.241,39.307,41.339z"/>
			<path fill="#FEFCD5" d="M39.274,41.31c-0.963,6.083-5.705,10.366-10.59,9.565c-4.885-0.801-8.065-6.382-7.103-12.466
				c0.963-6.083,5.705-10.365,10.59-9.563C37.057,29.646,40.237,35.227,39.274,41.31z"/>
			<path fill="#FEFCD6" d="M39.241,41.281c-0.947,6.069-5.665,10.35-10.538,9.562c-4.874-0.789-8.058-6.347-7.111-12.416
				c0.947-6.068,5.665-10.349,10.539-9.56C37.003,29.654,40.188,35.212,39.241,41.281z"/>
			<path fill="#FEFCD7" d="M39.208,41.252c-0.93,6.053-5.625,10.333-10.486,9.559c-4.862-0.775-8.049-6.311-7.119-12.365
				c0.931-6.053,5.625-10.333,10.487-9.557C36.951,29.663,40.138,35.198,39.208,41.252z"/>
			<path fill="#FEFCD8" d="M39.175,41.223c-0.914,6.039-5.585,10.317-10.435,9.555s-8.041-6.275-7.127-12.313
				c0.914-6.039,5.586-10.316,10.435-9.554C36.897,29.671,40.089,35.184,39.175,41.223z"/>
			<path fill="#FEFCD9" d="M39.143,41.193c-0.897,6.024-5.546,10.301-10.383,9.552c-4.837-0.749-8.032-6.239-7.135-12.263
				c0.897-6.023,5.546-10.3,10.383-9.551C36.845,29.68,40.04,35.169,39.143,41.193z"/>
			<path fill="#FFFCDA" d="M39.11,41.164c-0.881,6.009-5.506,10.285-10.331,9.549c-4.826-0.736-8.024-6.203-7.144-12.212
				c0.881-6.008,5.507-10.284,10.332-9.548C36.792,29.688,39.99,35.155,39.11,41.164z"/>
			<path fill="#FFFCDB" d="M39.077,41.135c-0.864,5.994-5.466,10.269-10.279,9.546c-4.813-0.723-8.015-6.167-7.151-12.162
				c0.865-5.994,5.467-10.268,10.28-9.545C36.739,29.696,39.941,35.141,39.077,41.135z"/>
			<path fill="#FFFCDC" d="M39.044,41.105c-0.847,5.979-5.427,10.252-10.228,9.543c-4.801-0.709-8.007-6.132-7.16-12.111
				c0.848-5.979,5.427-10.251,10.229-9.542C36.686,29.705,39.892,35.126,39.044,41.105z"/>
			<path fill="#FFFCDD" d="M39.011,41.076c-0.831,5.965-5.387,10.236-10.176,9.54c-4.79-0.696-7.999-6.095-7.167-12.06
				c0.831-5.964,5.387-10.235,10.176-9.539C36.633,29.713,39.842,35.112,39.011,41.076z"/>
			<path fill="#FFFCDE" d="M38.979,41.047c-0.814,5.949-5.348,10.219-10.125,9.537c-4.777-0.683-7.99-6.06-7.175-12.009
				c0.814-5.949,5.348-10.219,10.125-9.536C36.58,29.721,39.793,35.098,38.979,41.047z"/>
			<path fill="#FFFDDF" d="M38.945,41.018c-0.798,5.935-5.308,10.203-10.072,9.534c-4.765-0.67-7.982-6.024-7.184-11.958
				s5.308-10.203,10.073-9.533C36.527,29.729,39.744,35.083,38.945,41.018z"/>
			<path fill="#FFFDE0" d="M38.913,40.989c-0.781,5.92-5.268,10.187-10.021,9.531c-4.753-0.657-7.974-5.988-7.192-11.908
				c0.782-5.919,5.269-10.186,10.021-9.529C36.474,29.738,39.694,35.069,38.913,40.989z"/>
			<path fill="#FFFDE1" d="M38.88,40.959c-0.765,5.905-5.229,10.171-9.969,9.527c-4.741-0.644-7.965-5.952-7.2-11.857
				c0.765-5.904,5.229-10.17,9.97-9.526C36.421,29.747,39.645,35.054,38.88,40.959z"/>
			<path fill="#FFFDE2" d="M38.847,40.93c-0.749,5.89-5.189,10.154-9.917,9.524c-4.729-0.63-7.957-5.916-7.208-11.806
				c0.749-5.89,5.189-10.154,9.918-9.523C36.368,29.755,39.596,35.04,38.847,40.93z"/>
			<path fill="#FFFDE3" d="M38.814,40.901c-0.732,5.875-5.149,10.138-9.866,9.521c-4.717-0.617-7.948-5.88-7.216-11.756
				c0.732-5.875,5.149-10.137,9.866-9.52C36.315,29.763,39.546,35.026,38.814,40.901z"/>
			<path fill="#FFFDE4" d="M38.781,40.872c-0.715,5.86-5.109,10.122-9.814,9.519c-4.705-0.604-7.939-5.845-7.224-11.705
				c0.716-5.86,5.11-10.121,9.814-9.517C36.262,29.771,39.497,35.011,38.781,40.872z"/>
			<path fill="#FFFDE5" d="M38.749,40.842c-0.699,5.846-5.07,10.106-9.762,9.516c-4.693-0.591-7.931-5.809-7.232-11.654
				c0.699-5.845,5.07-10.105,9.763-9.514C36.209,29.78,39.447,34.997,38.749,40.842z"/>
			<path fill="#FFFDE6" d="M38.716,40.813c-0.683,5.831-5.03,10.089-9.71,9.512c-4.681-0.578-7.923-5.772-7.241-11.603
				c0.683-5.831,5.031-10.089,9.711-9.511C36.156,29.788,39.398,34.982,38.716,40.813z"/>
			<path fill="#FFFDE7" d="M38.683,40.784c-0.666,5.815-4.991,10.073-9.659,9.509c-4.669-0.564-7.914-5.737-7.249-11.553
				c0.667-5.815,4.991-10.072,9.66-9.507C36.103,29.796,39.349,34.968,38.683,40.784z"/>
			<path fill="#FFFDE8" d="M38.65,40.755c-0.649,5.801-4.951,10.057-9.607,9.506c-4.657-0.552-7.906-5.701-7.257-11.502
				c0.65-5.8,4.952-10.056,9.608-9.504C36.05,29.805,39.299,34.954,38.65,40.755z"/>
			<path fill="#FFFDE9" d="M38.617,40.726c-0.633,5.786-4.911,10.041-9.555,9.503c-4.645-0.539-7.898-5.665-7.265-11.451
				c0.633-5.786,4.912-10.04,9.556-9.501C35.997,29.813,39.25,34.939,38.617,40.726z"/>
			<path fill="#FFFDEA" d="M38.584,40.696c-0.616,5.771-4.872,10.024-9.504,9.5c-4.633-0.525-7.889-5.629-7.273-11.401
				c0.617-5.771,4.872-10.023,9.504-9.498C35.944,29.822,39.201,34.925,38.584,40.696z"/>
			<path fill="#FFFDEB" d="M38.552,40.667c-0.6,5.756-4.832,10.008-9.452,9.497c-4.621-0.512-7.881-5.593-7.281-11.35
				c0.6-5.756,4.832-10.007,9.452-9.495C35.891,29.83,39.151,34.911,38.552,40.667z"/>
			<path fill="#FFFEEC" d="M38.519,40.638c-0.583,5.742-4.792,9.992-9.4,9.494c-4.609-0.499-7.873-5.558-7.289-11.299
				s4.792-9.991,9.401-9.492C35.838,29.838,39.102,34.896,38.519,40.638z"/>
			<path fill="#FFFEED" d="M38.486,40.609c-0.566,5.727-4.752,9.976-9.349,9.49c-4.597-0.486-7.864-5.521-7.297-11.249
				c0.567-5.726,4.753-9.975,9.349-9.489C35.785,29.847,39.053,34.882,38.486,40.609z"/>
			<path fill="#FFFEEE" d="M38.453,40.58c-0.55,5.711-4.713,9.959-9.297,9.487c-4.584-0.473-7.855-5.486-7.305-11.198
				c0.551-5.711,4.713-9.958,9.297-9.486C35.732,29.855,39.003,34.868,38.453,40.58z"/>
			<path fill="#FFFEEF" d="M38.42,40.55c-0.534,5.697-4.673,9.943-9.246,9.484c-4.572-0.459-7.847-5.45-7.313-11.146
				c0.534-5.696,4.673-9.942,9.246-9.483C35.679,29.863,38.954,34.854,38.42,40.55z"/>
			<path fill="#FFFEF0" d="M38.388,40.521c-0.518,5.682-4.634,9.927-9.194,9.481c-4.561-0.446-7.838-5.414-7.321-11.096
				c0.518-5.682,4.634-9.926,9.194-9.48C35.626,29.872,38.905,34.839,38.388,40.521z"/>
			<path fill="#FFFEF1" d="M38.354,40.492c-0.5,5.667-4.594,9.911-9.142,9.478c-4.548-0.433-7.83-5.378-7.33-11.045
				c0.501-5.667,4.594-9.91,9.142-9.477C35.573,29.88,38.855,34.825,38.354,40.492z"/>
			<path fill="#FFFEF2" d="M38.322,40.462c-0.484,5.652-4.554,9.895-9.09,9.475c-4.536-0.42-7.822-5.342-7.337-10.995
				c0.485-5.652,4.555-9.894,9.091-9.474C35.52,29.889,38.806,34.81,38.322,40.462z"/>
			<path fill="#FFFEF3" d="M38.289,40.433c-0.468,5.638-4.515,9.878-9.039,9.472c-4.524-0.407-7.813-5.307-7.346-10.944
				c0.468-5.637,4.515-9.877,9.039-9.471C35.467,29.897,38.757,34.796,38.289,40.433z"/>
			<path fill="#FFFEF4" d="M38.256,40.404c-0.451,5.622-4.475,9.862-8.987,9.468c-4.513-0.394-7.805-5.271-7.354-10.893
				c0.452-5.622,4.476-9.861,8.987-9.467C35.414,29.905,38.708,34.782,38.256,40.404z"/>
			<path fill="#FFFEF5" d="M38.223,40.375c-0.435,5.607-4.435,9.846-8.935,9.465s-7.796-5.234-7.362-10.842
				c0.435-5.607,4.436-9.845,8.936-9.464C35.361,29.914,38.658,34.767,38.223,40.375z"/>
			<path fill="#FFFEF6" d="M38.19,40.346c-0.418,5.593-4.396,9.829-8.883,9.462c-4.488-0.368-7.788-5.199-7.37-10.792
				c0.419-5.592,4.396-9.829,8.884-9.461C35.308,29.922,38.608,34.753,38.19,40.346z"/>
			<path fill="#FFFEF7" d="M38.158,40.316c-0.402,5.578-4.356,9.813-8.832,9.459c-4.477-0.354-7.78-5.163-7.378-10.741
				c0.402-5.577,4.356-9.812,8.833-9.458C35.255,29.93,38.559,34.738,38.158,40.316z"/>
			<path fill="#FFFEF8" d="M38.125,40.287c-0.385,5.563-4.316,9.797-8.78,9.457c-4.464-0.341-7.771-5.127-7.386-10.69
				c0.386-5.563,4.317-9.796,8.781-9.455C35.202,29.938,38.51,34.724,38.125,40.287z"/>
			<path fill="#FFFFF9" d="M38.092,40.258c-0.368,5.548-4.276,9.781-8.728,9.453c-4.452-0.328-7.763-5.091-7.394-10.639
				c0.369-5.548,4.277-9.78,8.729-9.452C35.149,29.947,38.46,34.709,38.092,40.258z"/>
			<path fill="#FFFFFA" d="M38.059,40.229c-0.352,5.534-4.237,9.765-8.676,9.45c-4.44-0.315-7.754-5.055-7.402-10.588
				c0.353-5.533,4.237-9.764,8.677-9.449C35.096,29.955,38.411,34.695,38.059,40.229z"/>
			<path fill="#FFFFFB" d="M38.026,40.199c-0.335,5.519-4.197,9.749-8.625,9.447c-4.428-0.302-7.746-5.02-7.41-10.538
				c0.336-5.518,4.198-9.747,8.625-9.445C35.043,29.964,38.362,34.681,38.026,40.199z"/>
			<path fill="#FFFFFC" d="M37.994,40.17c-0.319,5.503-4.158,9.731-8.573,9.444c-4.416-0.289-7.738-4.984-7.418-10.487
				c0.319-5.503,4.158-9.731,8.573-9.442C34.99,29.972,38.313,34.667,37.994,40.17z"/>
			<path fill="#FFFFFD" d="M37.96,40.141c-0.302,5.489-4.118,9.715-8.521,9.44c-4.404-0.275-7.729-4.947-7.427-10.436
				c0.303-5.488,4.118-9.715,8.522-9.439C34.938,29.98,38.263,34.652,37.96,40.141z"/>
			<path fill="#FFFFFE" d="M37.928,40.112c-0.286,5.474-4.078,9.699-8.47,9.438c-4.392-0.262-7.721-4.912-7.435-10.386
				c0.287-5.473,4.079-9.698,8.47-9.436C34.884,29.989,38.214,34.638,37.928,40.112z"/>
			<path fill="#FFFFFF" d="M37.895,40.083c-0.27,5.459-4.039,9.683-8.418,9.435c-4.38-0.249-7.712-4.876-7.443-10.335
				c0.27-5.458,4.039-9.682,8.418-9.433C34.832,29.997,38.165,34.624,37.895,40.083z"/>
		</g>
		<g>
			<path fill="#FFFFFF" d="M45.306,28.818c-0.339,1.865-1.798,3.165-3.257,2.906c-1.458-0.26-2.366-1.983-2.026-3.847
				c0.34-1.864,1.798-3.165,3.257-2.905C44.739,25.232,45.646,26.955,45.306,28.818z"/>
		</g>
		<g>
			<path fill="#F7931E" d="M63.049,153.534c-2.262,0.649-4.597,8.242-4.326,10.444c0.357,2.904,3.431,0.922,5.096,0.399
				c1.418-0.445,2.95,0.224,4.482,0.345c1.515,0.12,3.746-1.37,4.965-0.507c1.397-2.317-3.538-6.409-4.94-8.009
				c-0.75-0.854-1.867-2.744-3.004-3.091C64.359,152.821,63.986,153.367,63.049,153.534"/>
		</g>
	</g>
	<g>
		<g>
			<path fill="none" d="M61.473,153.859c1.751-0.75,3.502-0.6,5.253-0.45"/>
		</g>
		<g>
			<path fill="#C1272D" d="M61.473,155.109c1.715-0.673,3.449-0.603,5.253-0.45c-0.051-0.004,0.089-2.493,0-2.5
				c-1.804-0.153-3.538-0.223-5.253,0.45C61.173,152.727,61.74,155.004,61.473,155.109L61.473,155.109z"/>
		</g>
	</g>
</g>
</svg>