<svg xmlns="http://www.w3.org/2000/svg" width="135" height="400">
  <path fill="none" d="M67.4 159c19 21 36 36 36 66 1 24-10 43-21 64-17 31-33 69-13 104"/>
  <path fill="#C1272D" d="M67.4 160.2c13 14.2 27.3 28 33.3 46.7 7.7 24-1.5 48-12.6 69-10 21-22 42-26 65-3 18 0 36 8 52 0-.8 1-2 0-2.7-6-12.4-10-26-9-40.3 1-12 5-23 9-34 9-22 23-42 31-64.4 5-15 5.7-32.5 1.6-47.6-5-19-20.5-33.5-33.5-48 .3.7-.5 2 0 2.7z"/>
  <ellipse cx="65.7" cy="79.1" fill="#F72AB3" rx="61.9" ry="75.8"/>
  <ellipse cx="65.6" cy="78.9" fill="#F72BB3" rx="61.6" ry="75.5"/>
  <ellipse cx="65.4" cy="78.7" fill="#F72CB4" rx="61.4" ry="75.2"/>
  <ellipse cx="65.2" cy="78.5" fill="#F72DB4" rx="61.1" ry="75"/>
  <ellipse cx="65.1" cy="78.3" fill="#F72EB5" rx="60.9" ry="74.7"/>
  <ellipse cx="64.9" cy="78.2" fill="#F72FB5" rx="60.6" ry="74.4"/>
  <ellipse cx="64.7" cy="78" fill="#F730B6" rx="60.4" ry="74.1"/>
  <ellipse cx="64.6" cy="77.8" fill="#F731B6" rx="60.1" ry="73.8"/>
  <ellipse cx="64.4" cy="77.6" fill="#F732B6" rx="59.9" ry="73.6"/>
  <ellipse cx="64.2" cy="77.5" fill="#F733B7" rx="59.6" ry="73.3"/>
  <ellipse cx="64.1" cy="77.3" fill="#F734B7" rx="59.4" ry="73"/>
  <ellipse cx="63.9" cy="77.1" fill="#F835B8" rx="59.1" ry="72.7"/>
  <ellipse cx="63.7" cy="76.9" fill="#F836B8" rx="58.9" ry="72.4"/>
  <ellipse cx="63.6" cy="76.8" fill="#F837B8" rx="58.6" ry="72.2"/>
  <ellipse cx="63.4" cy="76.6" fill="#F838B9" rx="58.4" ry="71.9"/>
  <ellipse cx="63.2" cy="76.4" fill="#F839B9" rx="58.1" ry="71.6"/>
  <ellipse cx="63.1" cy="76.2" fill="#F83ABA" rx="57.9" ry="71.3"/>
  <ellipse cx="62.9" cy="76" fill="#F83BBA" rx="57.6" ry="71"/>
  <ellipse cx="62.7" cy="75.9" fill="#F83CBB" rx="57.4" ry="70.8"/>
  <ellipse cx="62.6" cy="75.7" fill="#F83DBB" rx="57.1" ry="70.5"/>
  <ellipse cx="62.4" cy="75.5" fill="#F83EBB" rx="56.9" ry="70.2"/>
  <ellipse cx="62.2" cy="75.3" fill="#F83FBC" rx="56.6" ry="69.9"/>
  <ellipse cx="62.1" cy="75.2" fill="#F840BC" rx="56.4" ry="69.6"/>
  <ellipse cx="61.9" cy="75" fill="#F841BD" rx="56.2" ry="69.4"/>
  <ellipse cx="61.7" cy="74.8" fill="#F842BD" rx="55.9" ry="69.1"/>
  <ellipse cx="61.6" cy="74.6" fill="#F843BE" rx="55.7" ry="68.8"/>
  <ellipse cx="61.4" cy="74.5" fill="#F844BE" rx="55.4" ry="68.5"/>
  <ellipse cx="61.3" cy="74.3" fill="#F845BE" rx="55.2" ry="68.3"/>
  <ellipse cx="61.1" cy="74.1" fill="#F846BF" rx="54.9" ry="68"/>
  <ellipse cx="60.9" cy="73.9" fill="#F847BF" rx="54.7" ry="67.7"/>
  <ellipse cx="60.8" cy="73.7" fill="#F848C0" rx="54.4" ry="67.4"/>
  <ellipse cx="60.6" cy="73.6" fill="#F849C0" rx="54.2" ry="67.1"/>
  <ellipse cx="60.4" cy="73.4" fill="#F84AC0" rx="53.9" ry="66.9"/>
  <ellipse cx="60.3" cy="73.2" fill="#F94BC1" rx="53.7" ry="66.6"/>
  <ellipse cx="60.1" cy="73" fill="#F94CC1" rx="53.4" ry="66.3"/>
  <ellipse cx="59.9" cy="72.9" fill="#F94DC2" rx="53.2" ry="66"/>
  <ellipse cx="59.8" cy="72.7" fill="#F94EC2" rx="52.9" ry="65.7"/>
  <ellipse cx="59.6" cy="72.5" fill="#F94FC3" rx="52.7" ry="65.5"/>
  <ellipse cx="59.4" cy="72.3" fill="#F950C3" rx="52.4" ry="65.2"/>
  <ellipse cx="59.3" cy="72.2" fill="#F951C3" rx="52.2" ry="64.9"/>
  <ellipse cx="59.1" cy="72" fill="#F952C4" rx="51.9" ry="64.6"/>
  <ellipse cx="58.9" cy="71.8" fill="#F953C4" rx="51.7" ry="64.3"/>
  <ellipse cx="58.8" cy="71.6" fill="#F954C5" rx="51.4" ry="64.1"/>
  <ellipse cx="58.6" cy="71.4" fill="#F955C5" rx="51.2" ry="63.8"/>
  <ellipse cx="58.4" cy="71.3" fill="#F956C6" rx="50.9" ry="63.5"/>
  <ellipse cx="58.3" cy="71.1" fill="#F956C6" rx="50.7" ry="63.2"/>
  <ellipse cx="58.1" cy="70.9" fill="#F957C6" rx="50.5" ry="62.9"/>
  <ellipse cx="57.9" cy="70.7" fill="#F958C7" rx="50.2" ry="62.7"/>
  <ellipse cx="57.8" cy="70.6" fill="#F959C7" rx="50" ry="62.4"/>
  <ellipse cx="57.6" cy="70.4" fill="#F95AC8" rx="49.7" ry="62.1"/>
  <ellipse cx="57.4" cy="70.2" fill="#F95BC8" rx="49.5" ry="61.8"/>
  <ellipse cx="57.3" cy="70" fill="#F95CC8" rx="49.2" ry="61.5"/>
  <ellipse cx="57.1" cy="69.9" fill="#F95DC9" rx="49" ry="61.3"/>
  <ellipse cx="56.9" cy="69.7" fill="#F95EC9" rx="48.7" ry="61"/>
  <ellipse cx="56.8" cy="69.5" fill="#F95FCA" rx="48.5" ry="60.7"/>
  <ellipse cx="56.6" cy="69.3" fill="#FA60CA" rx="48.2" ry="60.4"/>
  <ellipse cx="56.5" cy="69.1" fill="#FA61CB" rx="48" ry="60.1"/>
  <ellipse cx="56.3" cy="69" fill="#FA62CB" rx="47.7" ry="59.9"/>
  <ellipse cx="56.1" cy="68.8" fill="#FA63CB" rx="47.5" ry="59.6"/>
  <ellipse cx="56" cy="68.6" fill="#FA64CC" rx="47.2" ry="59.3"/>
  <ellipse cx="55.8" cy="68.4" fill="#FA65CC" rx="47" ry="59"/>
  <ellipse cx="55.6" cy="68.3" fill="#FA66CD" rx="46.7" ry="58.7"/>
  <ellipse cx="55.5" cy="68.1" fill="#FA67CD" rx="46.5" ry="58.5"/>
  <ellipse cx="55.3" cy="67.9" fill="#FA68CD" rx="46.2" ry="58.2"/>
  <ellipse cx="55.1" cy="67.7" fill="#FA69CE" rx="46" ry="57.9"/>
  <ellipse cx="55" cy="67.6" fill="#FA6ACE" rx="45.7" ry="57.6"/>
  <ellipse cx="54.8" cy="67.4" fill="#FA6BCF" rx="45.5" ry="57.3"/>
  <ellipse cx="54.6" cy="67.2" fill="#FA6CCF" rx="45.2" ry="57.1"/>
  <ellipse cx="54.5" cy="67" fill="#FA6DD0" rx="45" ry="56.8"/>
  <ellipse cx="54.3" cy="66.8" fill="#FA6ED0" rx="44.7" ry="56.5"/>
  <ellipse cx="54.1" cy="66.7" fill="#FA6FD0" rx="44.5" ry="56.2"/>
  <ellipse cx="54" cy="66.5" fill="#FA70D1" rx="44.3" ry="55.9"/>
  <ellipse cx="53.8" cy="66.3" fill="#FA71D1" rx="44" ry="55.7"/>
  <ellipse cx="53.6" cy="66.1" fill="#FA72D2" rx="43.8" ry="55.4"/>
  <ellipse cx="53.5" cy="66" fill="#FA73D2" rx="43.5" ry="55.1"/>
  <ellipse cx="53.3" cy="65.8" fill="#FA74D3" rx="43.3" ry="54.8"/>
  <ellipse cx="53.1" cy="65.6" fill="#FA75D3" rx="43" ry="54.5"/>
  <ellipse cx="53" cy="65.4" fill="#FB76D3" rx="42.8" ry="54.3"/>
  <ellipse cx="52.8" cy="65.3" fill="#FB77D4" rx="42.5" ry="54"/>
  <ellipse cx="52.6" cy="65.1" fill="#FB78D4" rx="42.3" ry="53.7"/>
  <ellipse cx="52.5" cy="64.9" fill="#FB79D5" rx="42" ry="53.4"/>
  <ellipse cx="52.3" cy="64.7" fill="#FB7AD5" rx="41.8" ry="53.1"/>
  <ellipse cx="52.1" cy="64.5" fill="#FB7BD5" rx="41.5" ry="52.9"/>
  <ellipse cx="52" cy="64.4" fill="#FB7CD6" rx="41.3" ry="52.6"/>
  <ellipse cx="51.8" cy="64.2" fill="#FB7DD6" rx="41" ry="52.3"/>
  <ellipse cx="51.7" cy="64" fill="#FB7ED7" rx="40.8" ry="52"/>
  <ellipse cx="51.5" cy="63.8" fill="#FB7FD7" rx="40.5" ry="51.7"/>
  <ellipse cx="51.3" cy="63.7" fill="#FB80D8" rx="40.3" ry="51.5"/>
  <ellipse cx="51.2" cy="63.5" fill="#FB81D8" rx="40" ry="51.2"/>
  <ellipse cx="50.9" cy="63.8" fill="#FB82D8" transform="translate(.16 -.645)" rx="39.8" ry="50.8"/>
  <path fill="#FB83D9" d="M90.3 63.2c0 27.8-17.8 50.4-39.6 50.3-21.8 0-39.4-22.7-39.3-50.6 0-28 17.8-51 39.6-51s39.4 23 39.3 51z"/>
  <path fill="#FB84D9" d="M90 63c-.2 27.7-18 50-39.5 50-21.7-.2-39-22.7-39-50.3 0-27.7 17.8-50 39.4-50 21 0 39 22.6 39 50.3z"/>
  <path fill="#FB85D9" d="M89.5 63c-.2 27.3-17.7 49.5-39.2 49.4-21.5-.2-38.8-22.5-38.7-50C11.8 35 29.3 12.8 50.8 13c21.5 0 38.8 22.4 38.7 50z"/>
  <path fill="#FB86D9" d="M89 62.7c-.2 27.3-17.6 49.3-39 49-21.3 0-38.4-22.3-38.2-49.6.2-27 17.6-49 39-49C72 14 89.2 36 89 63z"/>
  <path fill="#FB87DA" d="M88.6 62.5c-.2 27-17.6 49-38.8 48.7-21.2-.2-38.2-22.3-38-49.4.3-27 17.7-48.8 39-48.6 21 .2 38 22.3 37.8 49.3z"/>
  <path fill="#FB88DA" d="M88.2 62.4c-.3 27-17.6 48.5-38.6 48.2-21-.2-38-22.2-37.6-49 .3-27 17.6-48.5 38.6-48.3 21 .2 38 22.2 37.6 49z"/>
  <path fill="#FB89DA" d="M87.8 62.2c-.4 26.7-17.6 48-38.4 48-21-.4-37.6-22.2-37.3-49 1-26.6 18-48 39-47.7 21 .2 38 22 38 48.7z"/>
  <path fill="#FB8ADA" d="M87.3 62C87 88.7 70 110 49 109.6c-20.6-.3-37-22-36.7-48.5.3-26 17.4-47 38-47 21 1 37.4 22 37 49z"/>
  <path fill="#FB8BDB" d="M87 62c-.6 26-17.6 47-38 47-20.7-.4-37-22-36.6-48.2.4-26.3 17.4-47.4 38-47s37 21.8 36.5 48z"/>
  <path fill="#FB8CDB" d="M86.5 61.8c-.5 26-17.4 47-37.8 46.5C28.3 108 12 86.6 12.5 60.5c.5-26 17.4-47 37.8-46.6C70.7 14 87 35 86.5 61z"/>
  <path fill="#FB8DDB" d="M86 61.6c-.4 26-17.3 46.6-37.5 46.2-20.3-.4-36.3-21.7-36-47.6.6-26 17.4-46.5 37.7-46 20.3.2 36.3 21.5 35.8 47.4z"/>
  <path fill="#FB8EDB" d="M85.6 61.5c-.5 25.6-17.2 46-37.4 45.7-20-.4-36-21.6-35.4-47.3C13.3 34 30 13 50 14s36 21.6 35.6 47.3z"/>
  <path fill="#FB8FDC" d="M85.2 61.3C84.6 86.8 68 107 48 106.6c-20-.4-35.7-21.5-35-47 .5-25.4 17-45.7 37-45.3 20 .5 35.7 21.5 35.2 47z"/>
  <path fill="#FB90DC" d="M84.7 61.2c-.6 25.2-17 45.3-37 45-19.7-.7-35.2-21.6-34.7-47 .6-25.2 17.2-45.3 37-45 19.8.8 35.3 21.8 34.7 47z"/>
  <path fill="#FB91DC" d="M84.3 61c-.6 25-17 45-36.7 44.5C28 105 12.6 84.2 13 59c.8-25 17.2-45 37-44.4C69.4 15.2 85 36 84.2 61z"/>
  <path fill="#FB92DD" d="M84 60.8c-.8 25-17.2 44.7-36.7 44-19.5-.4-34.7-21-34-46 .7-24.8 17-44.6 36.5-44 19.5.5 34.8 21.2 34 46z"/>
  <path fill="#FB93DD" d="M83.5 60.7c-.8 24.7-17 44.2-36.4 43.6-19-.6-34-21-33-45.7C15 34 31 14.4 50 15c19.4.5 34.5 21 34 45.7z"/>
  <path fill="#FB94DD" d="M83 60.5c-.7 24.5-17 44-36 43.3-19.3-.7-34.2-21-33.5-45.5.8-24.5 17-43.8 36.2-43.2s34 21 33.3 46z"/>
  <path fill="#FB95DD" d="M82.6 60.4c-.8 24.3-17 43.4-36 42.8-19-.7-33.8-21-33-45.2.8-24.3 17-43.4 36-42.8 19 .7 33.8 21 33 45.2z"/>
  <path fill="#FB96DE" d="M82.2 60.2c-1 24-17 43-35.8 42.4C27.6 102 13 81.8 13.8 57.8c.8-24 16.8-43 35.7-42.4C68.5 16 83 36 82.2 60.2z"/>
  <path fill="#FB97DE" d="M81.7 60c-1 24-16.8 42.7-35.5 42C27.5 101.3 13 81.4 14 57.5c.8-24 16.7-42.7 35.4-42C68 16.2 82.6 36.2 81.7 60z"/>
  <path fill="#FB98DE" d="M81.3 60c-1 23.6-16.7 42.2-35.3 41.5-18.6-.8-33-20.6-32-44.3C15 33.5 30.8 15 49.3 15.7c18.6.7 33 20.5 32 44.2z"/>
  <path fill="#FB99DE" d="M81 59.8c-1 23.4-16.8 42-35.2 41-18.5-.7-32.6-20.4-31.6-44 1-23.3 16.6-41.8 35-41 18.5.8 32.6 20.5 31.7 44z"/>
  <path fill="#FB9ADF" d="M80.4 59.6c-1 23.3-16.6 41.5-35 40.7-18-.8-32-20.3-31-43.6S30.8 15.2 49 16c18.2.8 32.2 20.3 31.2 43.6z"/>
  <path fill="#FB9BDF" d="M80 59.4c-1 23-16.6 41.2-34.7 40.3-18-.8-32-20.2-31-43.3C15.5 33.4 31 15.4 49 16c18.3 1 32 20.5 31 43.5z"/>
  <path fill="#FB9CDF" d="M79.6 59.3c-1 23-16.5 40.7-34.5 40S14 79 15 56c.8-22.7 16-40.5 34-39.6s31.7 20 30.6 43z"/>
  <path fill="#FB9DDF" d="M79.2 59C78 82 62.7 99.6 45 98.7c-18-1-31.5-20-30.3-42.7C15.7 33 31 15.4 49 16.3c17.8 1 31.3 20 30.2 42.7z"/>
  <path fill="#FB9EE0" d="M78.7 59c-1 22.5-16.4 40-34 39-17.7-1-31-20-30-42.4C16 33 31.3 15.6 49 16.6c17.5 1 31 20 29.7 42.4z"/>
  <path fill="#FB9FE0" d="M78.3 58.8C77 81 62 98.4 44.3 97.4c-17.4-1-30.6-19.8-29.4-42C16 33 31 15.6 48 16.6s31 19.8 30 42z"/>
  <path fill="#FBA0E0" d="M78 58.7C76.5 80.7 61.4 98 44 97c-17.2-1-30.2-20-29-42 1.3-22 16.4-39.2 33.7-38.2S79 36.6 78 58.8z"/>
  <path fill="#FBA1E0" d="M77.4 58.5C76 80.5 61.2 97.3 44 96.3S14 76.7 15.2 54.8C16.4 32.8 31.4 16 48.6 17s30 19.6 28.8 41.5z"/>
  <path fill="#FBA2E1" d="M77 58.4C75.7 80 60.8 96.8 43.7 95.7c-17-1-29.7-19.5-28.4-41.2S31.5 16 48.5 17 78.3 36.8 77 58.5z"/>
  <path fill="#FBA3E1" d="M76.6 58.2c-1.4 21.5-16.2 38-33 37C26.6 94 14 75.6 15.3 54c1.4-21.5 16.2-38 33-37 17 1.2 29.5 19.5 28.2 41z"/>
  <path fill="#FBA4E1" d="M76 58c-1.3 21.3-16 37.7-32.7 36.6S14 75.3 15.5 54c1.4-21.4 16.2-37.7 33-36.6S77.5 36.7 76 58z"/>
  <path fill="#FBA5E2" d="M75.7 58c-1.4 21-16 37-32.7 36S14.3 74.8 15.8 53.7c1.4-21 16-37.3 32.6-36 16.6 1 29 19 27.4 40.2z"/>
  <path fill="#FBA6E2" d="M75.3 57.7c-1.5 21-16 37-32.5 35.7-16.4-1.2-28.5-19-27-40s16-37 32.4-35.7 28.6 19 27 40z"/>
  <path fill="#FBA7E2" d="M75 57.6C73.2 78.3 59 94 42.5 92.8c-16-1.2-28-19-26.5-39.8 1.3-20.5 16-36.3 32-35 16.4 1 28.4 19 27 39.5z"/>
  <path fill="#FBA8E2" d="M74.4 57.4c-1.5 20.5-16 36-32 35-16-1.4-28-19-26.4-39.5 1.6-21 16-37 32-35 16.2 1 28 19 26.4 39z"/>
  <path fill="#FBA9E3" d="M74 57.3C72.4 77.6 58 93 42.2 91.7c-16-1.3-27.6-18.8-26-39C17.8 32.2 32 16.7 48 18c16 1.3 27.6 18.8 26 39z"/>
  <path fill="#FBAAE3" d="M73.6 57C72 77.3 57.8 92.5 42 91c-16-1-27.3-18.5-25.7-38.6C18 32.4 32 17 48 18.4S75 37 73.5 57z"/>
  <path fill="#FBABE3" d="M73 57c-1.6 20-15.6 35-31.3 33.5C26 89.2 14.7 72 16.4 52 18 32 32.2 17 47.8 18.5 63.5 19.8 74.8 37 73 57z"/>
  <path fill="#FBACE3" d="M72.7 56.8C71 76.5 57 91.4 41.5 90c-15.5-1.4-26.7-18.5-25-38.2 2-19.8 16-34.6 31.5-33.2C63.3 20 74.4 37 72.8 56.8z"/>
  <path fill="#FBADE4" d="M72.3 56.7c-1.8 19.5-15.7 34-31 32.7S15 71 16.7 51.4c1.7-19.4 15.6-34 31-32.6C63 20.2 74 37 72.3 56.8z"/>
  <path fill="#FBAEE4" d="M71.8 56.5C70 75.8 56.2 90.3 41 88.8S15 70.5 17 51.2C18.6 32 32.4 17.4 47.6 19s26 18.2 24.2 37.5z"/>
  <path fill="#FBAFE4" d="M71.4 56.3c-1.8 19.2-15.5 33.4-30.6 32C25.8 86.8 15 70 16.8 51c2-19.2 15.7-33.4 30.7-32s25.8 18.2 24 37.3z"/>
  <path fill="#FBB0E4" d="M71 56.2c-2 19-15.5 33-30.4 31.5-15-1.5-25.4-18-23.5-37 2-19 16-33 31-31.5s26 18 24 37z"/>
  <path fill="#FBB1E5" d="M70.6 56c-2 18.7-15.5 32.7-30.2 31-14.8-1.4-25-18-23.2-36.6 2-18.7 15.4-32.6 30.2-31C62 21 72.4 37.4 70.6 56z"/>
  <path fill="#FCB2E5" d="M70 56c-1.8 18.4-15.3 32-29.8 30.5-14.6-1.6-25-17.8-23-36.4 2-18 15.5-32 30-30 14.7 2 25 18 23 37z"/>
  <path fill="#FCB2E5" d="M69.7 55.7C67.7 74 54.4 87.7 40 86c-14.5-1.7-24.6-17.8-22.6-36 2-18.4 15.4-32 29.8-30.4s24.5 17.8 22.5 36z"/>
  <path fill="#FCB3E6" d="M69.3 55.6c-2 18-15.3 31.4-29.6 29.8-14.3-1.7-24.2-17.7-22-35.8S32.7 18 47 19.8c14.4 1.6 24.3 17.6 22.3 35.8z"/>
  <path fill="#FCB4E6" d="M68.8 55.4c-2 18-15.2 31-29.3 29.4-14-1.7-24-17.6-21.8-35.5 2-18 15.2-31 29.3-29.4 14.2 1 24 17 21.8 35z"/>
  <path fill="#FCB5E6" d="M68.4 55.3c-2 17.7-15.2 30.6-29 29S15.6 66.7 17.7 49C19.7 31.3 33 18.4 47 20c14 2 23.5 17.6 21.4 35.4z"/>
  <path fill="#FCB6E6" d="M68 55c-2.2 17.6-15.2 30.4-29 28.7-13.8-1.8-23.2-17.4-21-35 2-17.4 15-30.2 29-28.5s23 17.4 21 35z"/>
  <path fill="#FCB7E7" d="M67.5 55c-2.2 17.3-15 30-28.7 28C25 81.4 15.8 66 18 48.6c2.3-17.3 15-30 28.8-28 13.7 1.6 23 17 20.7 34.4z"/>
  <path fill="#FCB8E7" d="M67 54.8c-2 17-15 29.5-28.4 27.7C25 80.7 16 65.5 18.2 48.2c2.2-17 15-29.5 28.5-27.7S69.4 37.7 67 54.8z"/>
  <path fill="#FCB9E7" d="M66.7 54.6c-2.3 17-15 29.2-28.3 27.3C25 80 16 65 18.4 48c2.2-17 15-29.2 28.2-27.3 13.4 1.8 22.4 17 20 34z"/>
  <path fill="#FCBAE7" d="M66.3 54.5c-2.4 16.7-15 28.7-28.2 27-13-2-22-17-19-33.8C21 31 34 19 47 20.7s22 17 19.7 33.8z"/>
  <path fill="#FCBBE8" d="M65.8 54.3c-2.3 16.5-14.8 28.4-28 26.5-13-2-21.6-17-19.2-33.4C21 31 33.4 19 46.6 21c13 2 21.6 16.8 19.2 33.3z"/>
  <path fill="#FCBCE8" d="M65.4 54.2c-2.4 16.3-14.8 28-27.7 26-13-2-21.4-16.7-19-33C21 30.7 33.5 19 46.4 21s21.4 16.6 19 33z"/>
  <path fill="#FCBDE8" d="M65 54c-2.5 16-14.8 27.6-27.5 25.6-12.8-2-21-16.6-18.7-32.7 2.5-17 14.8-28 27.5-26s21 17 18.7 33z"/>
  <path fill="#FCBEE8" d="M64.5 54C62 69.7 49.8 81 37.2 79 24.7 77 16.5 62.6 19 46.7c2.4-16 14.7-27.2 27.3-25.2S67 38 64.5 54z"/>
  <path fill="#FCBFE9" d="M64 53.7c-2.4 15.7-14.6 26.8-27 24.8S16.6 62 19 46.3c2.6-15.7 14.7-26.8 27.2-24.8 12.4 2 20.4 16.5 18 32.2z"/>
  <path fill="#FCC0E9" d="M63.7 53.5C61 69 49 80 36.7 78c-12.2-2.2-20-16.4-17.5-32 2.6-15.5 14.6-26.4 27-24.3S66 38 63.6 53.5z"/>
  <path fill="#FCC1E9" d="M63.2 53.4c-2.6 15.3-14.5 26-26.6 24C24.4 75 16.6 61 19.3 45.7 22 30.5 34 19.7 46 21.7S66 38 63.2 53.4z"/>
  <path fill="#FCC2EA" d="M62.8 53.2C60.2 68.4 48.3 79 36.3 76.8c-12-2.2-19.5-16.2-16.8-31.3S34 19.8 46 22c12 2 19.5 16 16.8 31.2z"/>
  <path fill="#FCC3EA" d="M62.4 53C59.7 68 48 78.5 36 76.3c-11.7-2.2-19-16-16.4-31C22.3 30.3 34 20 46 22.3c11.7 2 19 16 16.4 31z"/>
  <path fill="#FCC4EA" d="M62 53c-2.8 14.7-14.4 24.8-26 22.6-12-2.2-19-16-16.4-30.6 2.7-14.8 14.4-25 26-22.7s19 16 16.3 30.6z"/>
  <path fill="#FCC5EA" d="M61.5 52.8C58.8 67.3 47.2 77.3 35.7 75c-11.5-2.2-18.6-15.8-16-30.3 3-14.5 14.5-24.5 26-22.3 11.5 2.2 18.6 15.8 15.8 30.4z"/>
  <path fill="#FCC6EB" d="M61 52.6c-2.7 14.4-14.2 24-25.6 22C24 72 17.2 58.6 20 44.3c2.8-14.3 14.3-24 25.6-21.8S64 38.3 61 52.5z"/>
  <path fill="#FCC7EB" d="M60.7 52.5c-3 14-14.3 23.7-25.5 21.4-11.2-3-18-16-15-30 2.8-14 14-24 25.3-22 11.2 2 18 16 15.2 30z"/>
  <path fill="#FCC8EB" d="M60.2 52.3c-3 14-14.2 23.4-25.2 21C24 71 17.3 57.8 20.2 44c3-14 14.2-23.5 25.3-21 11 2 17.5 15.3 14.7 29.2z"/>
  <path fill="#FCC9EB" d="M59.8 52.2c-3 13.7-14 23-25 20.5-11-2.3-17.4-15.4-14.5-29 3-13.8 14.2-23 25-20.7S62.8 38.4 60 52.2z"/>
  <path fill="#FCCAEC" d="M59.4 52c-3 13.5-14 22.6-25 20.2-10.6-2.4-17-15.3-14-29 3-13.4 14.2-22.4 25-20 10.6 2.3 17 15.3 14 28.8z"/>
  <path fill="#FCCBEC" d="M59 51.8C56 65.2 45 74 34.2 71.6 23.7 69.2 17.6 56.4 20.6 43s14-22 24.6-19.7C55.8 25.7 62 38.5 59 51.8z"/>
  <path fill="#FCCCEC" d="M58.5 51.7c-3 13-14 21.8-24.4 19.3-10-2.4-16-15-13-28.2S35 21 45 23.4c10.6 2.5 16.6 15 13.5 28.3z"/>
  <path fill="#FCCDEC" d="M58 51.5c-3 13-14 21.4-24 19-10.4-2.5-16.2-15-13-28 3-13 13.8-21.4 24-19 10.3 2.6 16.2 15 13 28z"/>
  <path fill="#FCCEED" d="M57.6 51.4c-3 12.7-13.8 21-24 18.5-10-3-15.8-15-12.6-28 3-13 14-21 24-19 10 3 15.8 15 12.6 28z"/>
  <path fill="#FCCFED" d="M57.2 51.2C54 63.8 43.4 72 33.4 69.2 23.4 66.8 18 54.6 21 42c3.3-12.6 14-20.7 24-18 10 2.3 15.3 14.6 12 27z"/>
  <path fill="#FCD0ED" d="M56.8 51C53.6 63.5 43 71.4 33.2 68.8 23.4 66 18 54 21.2 41.8 24.4 29.3 35 21.3 44.8 24c9.8 2.6 15.2 14.7 12 27z"/>
  <path fill="#FCD1ED" d="M56.4 51C53 63 42.6 70.7 33 68c-9.7-2.7-15-14.6-11.6-26.8C24.6 29.2 35 21.4 44.7 24c9.7 2.6 15 14.6 11.7 26.7z"/>
  <path fill="#FCD2EE" d="M56 50.8c-3.4 12-13.7 19.4-23.3 16.8C23.2 65 18.2 53 21.5 41.2c3.3-12 13.7-19.5 23.2-17C54.2 27 59.2 39 56 51z"/>
  <path fill="#FCD3EE" d="M55.5 50.6c-3.3 11.7-13.6 19-23 16.4-9.3-2.7-14.2-14.4-11-26 3.4-12 13.7-19.2 23-16.5 9.4 2.7 14.3 14.4 11 26z"/>
  <path fill="#FCD4EE" d="M55 50.4c-3.3 11.6-13.5 18.8-22.7 16-9.2-2.7-14-14.2-10.6-25.8C25 29 35.3 22 44.5 24.6c9.2 2.7 14 14.3 10.6 25.8z"/>
  <path fill="#FCD5EF" d="M54.6 50.3C51.2 61.6 41 68.6 32 66c-9-3-13.5-14.3-10-25.7C25.2 29 35.3 22 44.3 24.8c9 2.7 13.7 14 10.2 25.5z"/>
  <path fill="#FCD6EF" d="M54.2 50c-3.4 11.3-13.5 18-22.4 15.3C23 62.5 18.5 51.3 22 40c3.4-11 13.5-18 22.4-15 9 2.7 13.3 14 9.8 25z"/>
  <path fill="#FCD7EF" d="M53.8 50c-3.5 11-13.4 17.5-22.2 14.7-8.7-2.8-13-14-9.5-25 4-11 14-17.5 23-14.7 9 3 13 14 10 25z"/>
  <path fill="#FCD8EF" d="M53.4 49.8C49.8 60.6 40 67 31.4 64c-8.6-2.7-12.7-13.7-9.2-24.5 3.6-10.7 13.4-17 22-14.3 8.6 3 12.7 14 9.2 24.6z"/>
  <path fill="#FCD9F0" d="M53 49.7c-3.7 10.5-13.4 16.7-21.8 14-8.5-3-12.4-14-8.8-24.5C26 28.7 35.7 22.5 44 25.4c8.6 2.8 12.5 13.7 9 24.3z"/>
  <path fill="#FCDAF0" d="M52.5 49.5C49 60 39.2 66 31 63c-8.3-3-12-13.7-8.5-24C26 28.6 35.8 22.6 44 25.5c8.3 3 12 13.7 8.5 24z"/>
  <path fill="#FCDBF0" d="M52 49.4c-3.6 10-13 16-21.3 13-8-3-11.7-13.5-8-23.7 3.6-10.2 13-16 21.3-13 8 3 11.7 13.5 8 23.7z"/>
  <path fill="#FCDCF0" d="M51.6 49.2c-3.7 10-13 15.6-21 12.6s-11.6-13.4-8-23.4c3.7-10 13-15.6 21-12.6s11.6 13.4 8 23.4z"/>
  <path fill="#FCDDF1" d="M51.2 49c-3.7 9.8-13 15.3-21 12.3-7.7-3-11-13.4-7.3-23C26 28.3 36 23 43 26c7.8 3 11 13.2 7.4 23z"/>
  <path fill="#FCDEF1" d="M50.8 49C47 58.3 37.8 63.6 30 60.6c-7.6-3-10.8-13.3-7-22.8 3.8-9.7 13-15 20.7-12 7.7 3 10.8 13.3 7 23z"/>
  <path fill="#FCDFF1" d="M50.3 48.7C46.5 58 37.3 63.2 29.8 60c-7.5-3-10.5-13-6.7-22.4 4-9.3 13-14.4 21-11.4s11 13.2 7 22.5z"/>
  <path fill="#FCE0F1" d="M50 48.6c-4 9-13 14-20.4 11-7.4-3.2-10.2-13-6.3-22.3 3.8-9 13-14 20.3-11 7.3 3.2 10.2 13 6.3 22.3z"/>
  <path fill="#FCE1F2" d="M49.5 48.4c-4 9-13 13.7-20 10.6-7.3-3.2-10-13-6-22 3.8-9 12.8-13.6 20-10.5 7.2 3.2 10 13 6 22z"/>
  <ellipse cx="52.2" cy="205" fill="#FCE2F2" transform="rotate(24.19 423.33 86.582)" rx="14" ry="17.4"/>
  <ellipse cx="51.3" cy="202.4" fill="#FCE3F2" transform="rotate(23.804 423.178 86.483)" rx="13.8" ry="17.1"/>
  <path fill="#FCE4F3" d="M48.6 47.8c-3.7 8.6-12.3 13-19.2 10-6.8-3-9.4-12.2-5.7-20.7s12.2-13 19-10c7 3 9.6 13 6 21z"/>
  <path fill="#FCE5F3" d="M48.3 47.6c-3.5 8.5-12 13-18.7 10-6.8-2.8-9.4-12-6-20.4 3.7-8.4 12-13 19-10 6.7 2.8 9.3 12 5.7 20.4z"/>
  <path fill="#FCE6F4" d="M48 47.4c-3.4 8.3-11.6 12.8-18.3 10-6.7-2.7-9.3-11.7-6-20 3.6-8.4 11.8-13 18.5-10 6.7 2.7 9.3 11.7 6 20z"/>
  <path fill="#FDE7F4" d="M47.8 47.2c-3.3 8.2-11.3 12.7-18 10-6.6-2.7-9.2-11.5-6-19.7 3.4-8.2 11.5-12.7 18-10 6.7 2.7 9.4 11.5 6 19.7z"/>
  <path fill="#FDE8F5" d="M47.6 47c-3.2 8-11 12.5-17.6 10-6.5-2.6-9.2-11.3-6-19.4 3.2-8 11-12.6 17.6-10 6.5 2.6 9.2 11.3 6 19.4z"/>
  <path fill="#FDE9F5" d="M47.3 46.8c-3 8-10.7 12.4-17.2 10-6-2.6-9-11-6-19s11-12.5 18-10 9 11 6 19z"/>
  <path fill="#FDEAF5" d="M47 46.5c-3 8-10.4 12.4-16.7 10C24 54 21.3 45.8 24 38s10.6-12.4 17-10c6.3 2.3 9 10.7 6 18.5z"/>
  <path fill="#FDEBF6" d="M47 46.3c-3 7.8-10.3 12.2-16.6 10-6.2-2.3-9-10.5-6.2-18.3 3-7.7 10.2-12.2 16.5-10 6.2 2.4 9 10.6 6.2 18.3z"/>
  <path fill="#FDECF6" d="M46.6 46c-2.7 7.8-10 12.2-16 10-6.2-2.2-9-10.2-6.3-17.8s10-12 16-10 9 10.3 6.3 18z"/>
  <path fill="#FDEDF7" d="M46.4 46c-2.6 7.4-9.6 12-15.7 9.8-6-2-9-10-6.3-17.5 2.6-7.6 9.6-12 15.7-10 6 2.2 9 10 7 17.6z"/>
  <path fill="#FDEEF7" d="M46 45.7c-2.2 7.3-9 11.8-15 9.8s-8.8-9.6-6.3-17C27 31 34 26.5 40 28.5s8.8 9.7 6.3 17.2z"/>
  <path fill="#FDEFF8" d="M46 45.5c-2.5 7.3-9 11.7-15 9.8-6-2-8.8-9.4-6.5-16.7s9-11.8 15-10 8.7 9.5 6.4 17z"/>
  <path fill="#FDF0F8" d="M45.6 45.2C43.4 52.5 37 57 31 55c-5.7-1.8-8.6-9-6.4-16.3S33.4 27 39.2 29c5.8 1.6 8.8 9 6.4 16z"/>
  <path fill="#FEF1F9" d="M45.4 45c-2 7-8.4 11.5-14.2 9.8-5.7-1.7-8.6-8.8-6.5-16 2-7 8.4-11.4 14.2-9.7 5 2 8 9 6 16z"/>
  <path fill="#FEF1F9" d="M45.2 44.8c-2 7-8.2 11.4-13.8 9.8C25.8 53 22.8 46 24.8 39s8-11.4 13.8-9.8c5.6 1.6 8.5 8.6 6.6 15.6z"/>
  <path fill="#FEF2F9" d="M45 44.6c-2 7-8 11.2-13.5 9.7S23 46 25 39c1.7-6.8 7.7-11 13.3-9.6 5.5 1.5 8.5 8.3 6.6 15.2z"/>
  <path fill="#FEF3FA" d="M44.7 44.4c-1.8 6.8-7.6 11-13 9.7-5.5-1-8.5-8-6.8-14 1-6 7-11 13-9 5 1.6 8 8 6 15z"/>
  <path fill="#FEF4FA" d="M44.4 44.2c-1.6 6.6-7.2 11-12.6 9.6-5.4-1.3-8.4-7.7-6.8-14.4 1.6-6.7 7.3-11 12.7-9.7C43 31 46 37.5 44.4 44.2z"/>
  <path fill="#FEF5FB" d="M44.2 44c-1.5 6.5-7 10.8-12.3 9.6-6-1.2-9-7.5-7-14 1-6.6 7-11 12-9.7 5 1 8 7 7 14z"/>
  <path fill="#FEF6FB" d="M44 43.7c-1.4 6.5-6.7 10.8-12 9.7-5-1.2-8.2-7.3-6.8-13.7C26.6 33.2 32 29 37 30c5.2 1 8.3 7.3 7 13.7z"/>
  <path fill="#FEF7FC" d="M43.7 43.5C42.5 50 37.3 54.2 32.2 53c-5-1-8.2-7-7-13.2 1.3-6.3 6.4-10.7 11.5-9.6 5 1 8.3 7 7 13.3z"/>
  <path fill="#FEF8FC" d="M43.5 43.3c-1.2 6.2-6 10.5-11 9.6-5-1-8.3-7-7.2-13 1.2-7 6-11 11-10s8.3 7 7.2 13z"/>
  <path fill="#FEF9FC" d="M43.2 43c-1 6.2-5.8 10.5-10.7 9.7-5-1-8-6.5-7-12.6 1-6 5.7-10 10.6-9 5 1 9 7 8 13z"/>
  <path fill="#FFFAFD" d="M43 43c-1 6-5.5 10.2-10.4 9.4-4.8-.7-8-6.2-7-12.2.8-6 5.4-10.3 10.2-9.5 5 .7 8 6.2 7.2 12.2z"/>
  <path fill="#FFFBFD" d="M42.7 42.6c-.7 6-5.2 10.2-10 9.6-4.7-.7-8-6-7-12 .6-5.8 5-10 9.8-9.4 4.8.7 8 6 7.2 11.8z"/>
  <path fill="#FFFCFE" d="M42.5 42.4c-.6 5.8-5 10-9.6 9.5-5-1-8-6-8-12s5-10 9-10c4.3 0 8 5 7 11z"/>
  <path fill="#FFFDFE" d="M42.2 42.2c-.5 5.7-4.6 10-9 9.5-4.7-.4-8-5.4-7.5-11 .6-5.8 4.7-10 9.2-9.6 4 1 7 6 7 12z"/>
  <path fill="#FFFEFF" d="M42 42c-.4 5.6-4.3 9.8-8.8 9.5-4.5-.4-7.8-5.2-7.4-10.8.4-5.5 4.4-9.8 8.8-9.4 4.5.3 7.8 5 7.4 10.7z"/>
  <path fill="#FFF" d="M41.8 41.8c-.3 5.4-4 9.7-8.5 9.4-4.3-.2-7.7-5-7.4-10.3 0-6 4-10 8-10s7 5 7 10zm7.4-11.3c-.4 2-1.8 3.2-3.3 3-2-.3-3-2-2-4 0-1.8 1-3 3-2.8 1 .2 2 2 2 3.8z"/>
  <path fill="#F72AB3" d="M67 155.2c-2.3.7-4.7 8.3-4.4 10.5.3 3 3.4 1 5 .4 1.5 0 3 1 4.6 1 1.5 0 3.7-1 5 0 1.3-2-3.6-6-5-8-.8-1-2-2.2-3-3-1 0-1.3 0-2.3.8"/>
  <path fill="none" d="M65.3 155.6c1.8-.8 3.5-.6 5.3-.5"/>
  <path fill="#C1272D" d="M65.3 156.8c1.8-.7 3.5-.6 5.3-.4V154c-1.8-.3-3.5-.4-5.3.3-.3 0 .3 2.4 0 2.5z"/>
</svg>
