<svg xmlns="http://www.w3.org/2000/svg" xmlns:xlink="http://www.w3.org/1999/xlink" x="0px" y="0px" width="200px" height="500px" viewBox="0 0 200 500" enable-background="new 0 0 200 500" xml:space="preserve">
<g>
	<g>
		<g>
			<path fill="none" d="M454.4,202.977c19,21,36,36,36,66c1,24-10,43-21,64c-17,31-33,69-13,104"/>
		</g>
		<g>
			<path fill="#C1272D" d="M454.4,204.227c12.877,14.188,27.301,27.903,33.254,46.648c7.727,24.331-1.438,48.455-12.543,69.973
				c-10.903,21.128-22.781,41.712-26.838,65.483c-3.025,17.727-0.646,36.087,8.127,51.896c-0.349-0.629,0.357-1.855,0-2.5
				c-6.897-12.429-10.096-26.066-8.96-40.3c0.937-11.732,4.481-23.167,8.811-34.048c8.776-22.064,22.982-41.648,30.357-64.305
				c4.797-14.736,5.452-32.323,1.438-47.355c-5.164-19.336-20.648-33.671-33.646-47.992
				C454.807,202.174,453.978,203.761,454.4,204.227L454.4,204.227z"/>
		</g>
	</g>
	<g>
		<g>
			<ellipse fill="#F72AB3" cx="452.721" cy="123.058" rx="61.854" ry="75.805"/>
			<ellipse fill="#F72BB3" cx="452.555" cy="122.88" rx="61.607" ry="75.525"/>
			<ellipse fill="#F72CB4" cx="452.39" cy="122.704" rx="61.358" ry="75.245"/>
			<ellipse fill="#F72DB4" cx="452.224" cy="122.526" rx="61.111" ry="74.965"/>
			<ellipse fill="#F72EB5" cx="452.059" cy="122.35" rx="60.863" ry="74.686"/>
			<ellipse fill="#F72FB5" cx="451.893" cy="122.172" rx="60.615" ry="74.406"/>
			<ellipse fill="#F730B6" cx="451.728" cy="121.996" rx="60.367" ry="74.126"/>
			<ellipse fill="#F731B6" cx="451.562" cy="121.818" rx="60.119" ry="73.846"/>
			<ellipse fill="#F732B6" cx="451.396" cy="121.642" rx="59.871" ry="73.566"/>
			<ellipse fill="#F733B7" cx="451.231" cy="121.464" rx="59.623" ry="73.287"/>
			<ellipse fill="#F734B7" cx="451.065" cy="121.287" rx="59.375" ry="73.007"/>
			<ellipse fill="#F835B8" cx="450.9" cy="121.11" rx="59.127" ry="72.727"/>
			<ellipse fill="#F836B8" cx="450.735" cy="120.933" rx="58.879" ry="72.448"/>
			<ellipse fill="#F837B8" cx="450.569" cy="120.756" rx="58.631" ry="72.167"/>
			<ellipse fill="#F838B9" cx="450.404" cy="120.579" rx="58.383" ry="71.888"/>
			<ellipse fill="#F839B9" cx="450.238" cy="120.402" rx="58.136" ry="71.608"/>
			<ellipse fill="#F83ABA" cx="450.072" cy="120.225" rx="57.888" ry="71.328"/>
			<ellipse fill="#F83BBA" cx="449.907" cy="120.048" rx="57.64" ry="71.048"/>
			<ellipse fill="#F83CBB" cx="449.741" cy="119.871" rx="57.392" ry="70.769"/>
			<ellipse fill="#F83DBB" cx="449.576" cy="119.694" rx="57.144" ry="70.489"/>
			<ellipse fill="#F83EBB" cx="449.411" cy="119.517" rx="56.896" ry="70.209"/>
			<ellipse fill="#F83FBC" cx="449.245" cy="119.34" rx="56.648" ry="69.93"/>
			<ellipse fill="#F840BC" cx="449.08" cy="119.163" rx="56.4" ry="69.649"/>
			<ellipse fill="#F841BD" cx="448.914" cy="118.986" rx="56.152" ry="69.37"/>
			<ellipse fill="#F842BD" cx="448.749" cy="118.809" rx="55.904" ry="69.09"/>
			<ellipse fill="#F843BE" cx="448.583" cy="118.632" rx="55.656" ry="68.811"/>
			<ellipse fill="#F844BE" cx="448.417" cy="118.455" rx="55.409" ry="68.53"/>
			<ellipse fill="#F845BE" cx="448.252" cy="118.278" rx="55.16" ry="68.251"/>
			<ellipse fill="#F846BF" cx="448.086" cy="118.101" rx="54.913" ry="67.971"/>
			<ellipse fill="#F847BF" cx="447.921" cy="117.924" rx="54.664" ry="67.691"/>
			<ellipse fill="#F848C0" cx="447.755" cy="117.747" rx="54.417" ry="67.412"/>
			<ellipse fill="#F849C0" cx="447.59" cy="117.57" rx="54.169" ry="67.131"/>
			<ellipse fill="#F84AC0" cx="447.424" cy="117.393" rx="53.92" ry="66.852"/>
			<ellipse fill="#F94BC1" cx="447.259" cy="117.216" rx="53.673" ry="66.572"/>
			<ellipse fill="#F94CC1" cx="447.094" cy="117.039" rx="53.425" ry="66.292"/>
			<ellipse fill="#F94DC2" cx="446.928" cy="116.861" rx="53.177" ry="66.013"/>
			<ellipse fill="#F94EC2" cx="446.762" cy="116.685" rx="52.929" ry="65.733"/>
			<ellipse fill="#F94FC3" cx="446.597" cy="116.507" rx="52.681" ry="65.453"/>
			<ellipse fill="#F950C3" cx="446.431" cy="116.331" rx="52.433" ry="65.173"/>
			<ellipse fill="#F951C3" cx="446.266" cy="116.153" rx="52.185" ry="64.894"/>
			<ellipse fill="#F952C4" cx="446.1" cy="115.977" rx="51.937" ry="64.614"/>
			<ellipse fill="#F953C4" cx="445.935" cy="115.799" rx="51.689" ry="64.334"/>
			<ellipse fill="#F954C5" cx="445.77" cy="115.623" rx="51.441" ry="64.054"/>
			<ellipse fill="#F955C5" cx="445.604" cy="115.445" rx="51.193" ry="63.774"/>
			<ellipse fill="#F956C6" cx="445.438" cy="115.268" rx="50.945" ry="63.495"/>
			<ellipse fill="#F956C6" cx="445.273" cy="115.091" rx="50.698" ry="63.215"/>
			<ellipse fill="#F957C6" cx="445.107" cy="114.914" rx="50.45" ry="62.935"/>
			<ellipse fill="#F958C7" cx="444.942" cy="114.737" rx="50.202" ry="62.655"/>
			<ellipse fill="#F959C7" cx="444.776" cy="114.56" rx="49.954" ry="62.375"/>
			<ellipse fill="#F95AC8" cx="444.61" cy="114.383" rx="49.706" ry="62.096"/>
			<ellipse fill="#F95BC8" cx="444.445" cy="114.206" rx="49.458" ry="61.816"/>
			<ellipse fill="#F95CC8" cx="444.279" cy="114.029" rx="49.21" ry="61.536"/>
			<ellipse fill="#F95DC9" cx="444.114" cy="113.852" rx="48.962" ry="61.256"/>
			<ellipse fill="#F95EC9" cx="443.949" cy="113.675" rx="48.714" ry="60.977"/>
			<ellipse fill="#F95FCA" cx="443.783" cy="113.498" rx="48.466" ry="60.697"/>
			<ellipse fill="#FA60CA" cx="443.618" cy="113.321" rx="48.218" ry="60.417"/>
			<ellipse fill="#FA61CB" cx="443.452" cy="113.144" rx="47.971" ry="60.137"/>
			<ellipse fill="#FA62CB" cx="443.287" cy="112.967" rx="47.722" ry="59.858"/>
			<ellipse fill="#FA63CB" cx="443.121" cy="112.79" rx="47.475" ry="59.578"/>
			<ellipse fill="#FA64CC" cx="442.956" cy="112.613" rx="47.227" ry="59.298"/>
			<ellipse fill="#FA65CC" cx="442.79" cy="112.436" rx="46.979" ry="59.018"/>
			<ellipse fill="#FA66CD" cx="442.625" cy="112.259" rx="46.731" ry="58.738"/>
			<ellipse fill="#FA67CD" cx="442.459" cy="112.082" rx="46.482" ry="58.459"/>
			<ellipse fill="#FA68CD" cx="442.293" cy="111.905" rx="46.235" ry="58.179"/>
			<ellipse fill="#FA69CE" cx="442.128" cy="111.728" rx="45.987" ry="57.899"/>
			<ellipse fill="#FA6ACE" cx="441.962" cy="111.551" rx="45.739" ry="57.619"/>
			<ellipse fill="#FA6BCF" cx="441.797" cy="111.374" rx="45.491" ry="57.34"/>
			<ellipse fill="#FA6CCF" cx="441.632" cy="111.197" rx="45.243" ry="57.06"/>
			<ellipse fill="#FA6DD0" cx="441.466" cy="111.02" rx="44.995" ry="56.78"/>
			<ellipse fill="#FA6ED0" cx="441.3" cy="110.843" rx="44.748" ry="56.5"/>
			<ellipse fill="#FA6FD0" cx="441.135" cy="110.666" rx="44.5" ry="56.221"/>
			<ellipse fill="#FA70D1" cx="440.969" cy="110.488" rx="44.251" ry="55.941"/>
			<ellipse fill="#FA71D1" cx="440.804" cy="110.312" rx="44.003" ry="55.661"/>
			<ellipse fill="#FA72D2" cx="440.638" cy="110.134" rx="43.755" ry="55.381"/>
			<ellipse fill="#FA73D2" cx="440.473" cy="109.958" rx="43.508" ry="55.101"/>
			<ellipse fill="#FA74D3" cx="440.308" cy="109.78" rx="43.26" ry="54.822"/>
			<ellipse fill="#FA75D3" cx="440.142" cy="109.604" rx="43.012" ry="54.542"/>
			<ellipse fill="#FB76D3" cx="439.977" cy="109.426" rx="42.764" ry="54.262"/>
			<ellipse fill="#FB77D4" cx="439.811" cy="109.25" rx="42.516" ry="53.982"/>
			<ellipse fill="#FB78D4" cx="439.645" cy="109.072" rx="42.268" ry="53.703"/>
			<ellipse fill="#FB79D5" cx="439.48" cy="108.895" rx="42.02" ry="53.423"/>
			<ellipse fill="#FB7AD5" cx="439.314" cy="108.718" rx="41.772" ry="53.143"/>
			<ellipse fill="#FB7BD5" cx="439.149" cy="108.541" rx="41.524" ry="52.863"/>
			<ellipse fill="#FB7CD6" cx="438.983" cy="108.364" rx="41.276" ry="52.583"/>
			<ellipse fill="#FB7DD6" cx="438.817" cy="108.187" rx="41.028" ry="52.304"/>
			<ellipse fill="#FB7ED7" cx="438.652" cy="108.01" rx="40.78" ry="52.024"/>
			<ellipse fill="#FB7FD7" cx="438.487" cy="107.833" rx="40.533" ry="51.744"/>
			<ellipse fill="#FB80D8" cx="438.321" cy="107.656" rx="40.284" ry="51.464"/>
			<ellipse fill="#FB81D8" cx="438.156" cy="107.479" rx="40.037" ry="51.185"/>
			
				<ellipse transform="matrix(1 0.0015 -0.0015 1 0.1585 -0.6454)" fill="#FB82D8" cx="438.004" cy="107.265" rx="39.759" ry="50.824"/>
			<path fill="#FB83D9" d="M477.332,107.168c-0.08,27.87-17.821,50.412-39.625,50.347c-21.805-0.064-39.415-22.711-39.335-50.581
				c0.08-27.871,17.821-50.412,39.626-50.347C459.802,56.652,477.413,79.298,477.332,107.168z"/>
			<path fill="#FB84D9" d="M476.902,107.014c-0.12,27.671-17.77,50.024-39.42,49.927c-21.651-0.097-39.104-22.608-38.984-50.279
				c0.121-27.672,17.77-50.025,39.421-49.928C459.569,56.831,477.022,79.342,476.902,107.014z"/>
			<path fill="#FB85D9" d="M476.473,106.858c-0.161,27.472-17.718,49.638-39.215,49.508c-21.497-0.129-38.794-22.505-38.633-49.977
				c0.16-27.473,17.717-49.639,39.215-49.509C459.337,57.01,476.633,79.386,476.473,106.858z"/>
			<path fill="#FB86D9" d="M476.042,106.703c-0.2,27.273-17.665,49.251-39.009,49.09c-21.344-0.162-38.482-22.402-38.282-49.675
				c0.201-27.273,17.666-49.252,39.01-49.09C459.104,57.189,476.243,79.43,476.042,106.703z"/>
			<path fill="#FB87DA" d="M475.612,106.548c-0.241,27.074-17.613,48.865-38.803,48.671c-21.19-0.194-38.173-22.3-37.932-49.374
				c0.24-27.074,17.613-48.865,38.804-48.671C458.871,57.368,475.854,79.474,475.612,106.548z"/>
			<path fill="#FB88DA" d="M475.183,106.393c-0.281,26.875-17.563,48.478-38.598,48.251c-21.037-0.227-37.862-22.197-37.581-49.071
				c0.281-26.875,17.563-48.479,38.599-48.252C458.639,57.547,475.463,79.518,475.183,106.393z"/>
			<path fill="#FB89DA" d="M474.752,106.238c-0.321,26.675-17.51,48.091-38.392,47.833c-20.883-0.259-37.551-22.094-37.229-48.77
				c0.321-26.676,17.51-48.092,38.393-47.833C458.405,57.727,475.073,79.561,474.752,106.238z"/>
			<path fill="#FB8ADA" d="M474.322,106.083c-0.361,26.477-17.458,47.705-38.187,47.414c-20.729-0.291-37.24-21.991-36.879-48.467
				c0.361-26.478,17.458-47.705,38.188-47.414C458.173,57.906,474.684,79.605,474.322,106.083z"/>
			<path fill="#FB8BDB" d="M473.893,105.927c-0.402,26.277-17.406,47.318-37.981,46.995c-20.576-0.323-36.93-21.888-36.527-48.166
				c0.401-26.278,17.406-47.318,37.981-46.995S474.294,79.649,473.893,105.927z"/>
			<path fill="#FB8CDB" d="M473.462,105.772c-0.441,26.079-17.354,46.932-37.775,46.576c-20.422-0.355-36.618-21.785-36.177-47.864
				c0.441-26.079,17.354-46.932,37.776-46.576C457.707,58.264,473.904,79.693,473.462,105.772z"/>
			<path fill="#FB8DDB" d="M473.032,105.617c-0.482,25.879-17.303,46.544-37.57,46.156c-20.269-0.388-36.308-21.682-35.825-47.562
				c0.481-25.88,17.302-46.545,37.57-46.157C457.475,58.443,473.514,79.737,473.032,105.617z"/>
			<path fill="#FB8EDB" d="M472.602,105.462c-0.521,25.68-17.25,46.158-37.364,45.738c-20.114-0.421-35.997-21.58-35.475-47.26
				c0.521-25.681,17.251-46.158,37.365-45.738S473.124,79.781,472.602,105.462z"/>
			<path fill="#FB8FDC" d="M472.172,105.307c-0.562,25.481-17.198,45.771-37.159,45.319c-19.961-0.453-35.686-21.477-35.124-46.958
				c0.563-25.482,17.199-45.772,37.16-45.319C457.009,58.801,472.734,79.825,472.172,105.307z"/>
			<path fill="#FB90DC" d="M471.742,105.151c-0.603,25.282-17.147,45.385-36.954,44.9c-19.807-0.485-35.375-21.374-34.772-46.656
				c0.603-25.283,17.146-45.385,36.954-44.9C456.776,58.98,472.345,79.869,471.742,105.151z"/>
			<path fill="#FB91DC" d="M471.312,104.997c-0.642,25.083-17.095,44.998-36.748,44.48c-19.653-0.518-35.064-21.271-34.422-46.354
				c0.643-25.083,17.096-44.998,36.749-44.481C456.544,59.159,471.954,79.913,471.312,104.997z"/>
			<path fill="#FB92DD" d="M470.882,104.841c-0.683,24.884-17.043,44.611-36.542,44.062c-19.5-0.55-34.754-21.168-34.071-46.052
				c0.683-24.885,17.043-44.612,36.543-44.062C456.311,59.338,471.564,79.957,470.882,104.841z"/>
			<path fill="#FB93DD" d="M470.452,104.686c-0.723,24.685-16.991,44.225-36.337,43.643c-19.347-0.582-34.443-21.065-33.721-45.75
				c0.723-24.686,16.991-44.225,36.338-43.643C456.078,59.517,471.175,80,470.452,104.686z"/>
			<path fill="#FB94DD" d="M470.021,104.531c-0.763,24.486-16.939,43.838-36.131,43.224c-19.192-0.614-34.133-20.962-33.369-45.448
				c0.763-24.487,16.939-43.838,36.132-43.224S470.785,80.044,470.021,104.531z"/>
			<path fill="#FB95DD" d="M469.592,104.375c-0.803,24.287-16.888,43.452-35.926,42.805c-19.039-0.646-33.821-20.86-33.019-45.146
				c0.803-24.288,16.888-43.452,35.927-42.805C455.612,59.875,470.395,80.088,469.592,104.375z"/>
			<path fill="#FB96DE" d="M469.162,104.221c-0.844,24.087-16.836,43.064-35.721,42.386c-18.886-0.679-33.511-20.757-32.667-44.845
				c0.843-24.088,16.836-43.065,35.721-42.386C455.38,60.054,470.005,80.132,469.162,104.221z"/>
			<path fill="#FB97DE" d="M468.731,104.065c-0.883,23.889-16.783,42.678-35.515,41.967c-18.731-0.712-33.2-20.654-32.316-44.543
				c0.884-23.89,16.784-42.678,35.516-41.967C455.147,60.233,469.615,80.176,468.731,104.065z"/>
			<path fill="#FB98DE" d="M468.302,103.91c-0.924,23.689-16.732,42.292-35.31,41.548c-18.578-0.744-32.889-20.552-31.965-44.241
				c0.923-23.69,16.731-42.292,35.31-41.548C454.914,60.413,469.226,80.22,468.302,103.91z"/>
			<path fill="#FB99DE" d="M467.872,103.755c-0.964,23.491-16.681,41.905-35.104,41.129c-18.424-0.776-32.578-20.449-31.614-43.939
				c0.964-23.491,16.681-41.905,35.104-41.129C454.682,60.592,468.836,80.264,467.872,103.755z"/>
			<path fill="#FB9ADF" d="M467.441,103.6c-1.003,23.291-16.628,41.518-34.898,40.709c-18.271-0.809-32.268-20.346-31.264-43.637
				c1.004-23.292,16.629-41.519,34.899-40.71C454.449,60.771,468.445,80.308,467.441,103.6z"/>
			<path fill="#FB9BDF" d="M467.012,103.445c-1.044,23.092-16.576,41.131-34.693,40.291c-18.116-0.841-31.957-20.243-30.912-43.335
				c1.044-23.093,16.576-41.131,34.693-40.291C454.216,60.95,468.056,80.352,467.012,103.445z"/>
			<path fill="#FB9CDF" d="M466.582,103.29c-1.084,22.893-16.525,40.745-34.488,39.872s-31.646-20.14-30.562-43.033
				c1.084-22.894,16.525-40.745,34.488-39.872S467.666,80.396,466.582,103.29z"/>
			<path fill="#FB9DDF" d="M466.151,103.134c-1.124,22.694-16.473,40.358-34.281,39.453c-17.81-0.905-31.336-20.037-30.211-42.731
				c1.124-22.695,16.473-40.358,34.282-39.453C453.751,61.308,467.276,80.439,466.151,103.134z"/>
			<path fill="#FB9EE0" d="M465.722,102.979c-1.164,22.495-16.421,39.972-34.076,39.034c-17.656-0.938-31.025-19.935-29.86-42.43
				c1.165-22.496,16.421-39.972,34.077-39.034C453.518,61.487,466.886,80.483,465.722,102.979z"/>
			<path fill="#FB9FE0" d="M465.292,102.824c-1.205,22.296-16.369,39.584-33.871,38.615c-17.503-0.97-30.714-19.832-29.509-42.128
				c1.204-22.297,16.369-39.585,33.871-38.615C453.285,61.666,466.496,80.527,465.292,102.824z"/>
			<path fill="#FBA0E0" d="M464.861,102.669c-1.244,22.097-16.317,39.198-33.665,38.196c-17.349-1.003-30.403-19.729-29.158-41.826
				c1.245-22.098,16.317-39.198,33.666-38.196S466.106,80.571,464.861,102.669z"/>
			<path fill="#FBA1E0" d="M464.432,102.514c-1.285,21.898-16.266,38.812-33.46,37.777c-17.195-1.035-30.093-19.626-28.807-41.524
				c1.284-21.898,16.265-38.812,33.46-37.777C452.819,62.024,465.717,80.615,464.432,102.514z"/>
			<path fill="#FBA2E1" d="M464.002,102.358c-1.325,21.699-16.214,38.425-33.255,37.358c-17.041-1.067-29.781-19.523-28.456-41.222
				s16.214-38.425,33.255-37.358S465.327,80.659,464.002,102.358z"/>
			<path fill="#FBA3E1" d="M463.571,102.204c-1.365,21.5-16.161,38.038-33.049,36.938c-16.888-1.1-29.471-19.42-28.104-40.92
				c1.364-21.5,16.161-38.039,33.049-36.939C452.354,62.382,464.937,80.703,463.571,102.204z"/>
			<path fill="#FBA4E1" d="M463.142,102.048c-1.405,21.301-16.11,37.651-32.844,36.52s-29.16-19.317-27.754-40.618
				c1.405-21.301,16.11-37.652,32.844-36.52S464.547,80.747,463.142,102.048z"/>
			<path fill="#FBA5E2" d="M462.711,101.893c-1.445,21.102-16.058,37.265-32.638,36.101s-28.849-19.214-27.402-40.316
				c1.445-21.102,16.058-37.265,32.638-36.101C451.889,62.74,464.157,80.791,462.711,101.893z"/>
			<path fill="#FBA6E2" d="M462.281,101.738c-1.485,20.903-16.006,36.878-32.433,35.682c-16.426-1.196-28.538-19.112-27.052-40.014
				c1.485-20.903,16.006-36.878,32.433-35.682S463.768,80.834,462.281,101.738z"/>
			<path fill="#FBA7E2" d="M461.852,101.583c-1.525,20.703-15.954,36.491-32.228,35.263c-16.272-1.229-28.228-19.009-26.701-39.713
				c1.526-20.704,15.955-36.492,32.228-35.263C451.423,63.099,463.377,80.878,461.852,101.583z"/>
			<path fill="#FBA8E2" d="M461.421,101.428c-1.565,20.504-15.902,36.104-32.021,34.844c-16.119-1.261-27.917-18.906-26.351-39.411
				c1.565-20.505,15.902-36.105,32.021-34.844C451.19,63.278,462.987,80.922,461.421,101.428z"/>
			<path fill="#FBA9E3" d="M460.991,101.272c-1.605,20.305-15.851,35.718-31.815,34.425c-15.966-1.294-27.606-18.803-26-39.109
				c1.606-20.306,15.851-35.718,31.816-34.425C450.958,63.457,462.598,80.966,460.991,101.272z"/>
			<path fill="#FBAAE3" d="M460.562,101.117c-1.646,20.106-15.799,35.332-31.61,34.006c-15.813-1.326-27.296-18.701-25.648-38.807
				c1.646-20.106,15.799-35.332,31.61-34.006S462.208,81.01,460.562,101.117z"/>
			<path fill="#FBABE3" d="M460.131,100.962c-1.686,19.907-15.746,34.945-31.404,33.587c-15.658-1.358-26.984-18.598-25.298-38.505
				c1.687-19.908,15.747-34.945,31.405-33.587C450.492,63.815,461.818,81.054,460.131,100.962z"/>
			<path fill="#FBACE3" d="M459.701,100.807c-1.727,19.708-15.695,34.558-31.199,33.167c-15.505-1.391-26.674-18.495-24.946-38.203
				c1.727-19.708,15.694-34.558,31.199-33.168C450.26,63.994,461.428,81.098,459.701,100.807z"/>
			<path fill="#FBADE4" d="M459.271,100.652c-1.767,19.509-15.644,34.171-30.994,32.749s-26.363-18.392-24.596-37.901
				c1.767-19.509,15.644-34.171,30.994-32.749C450.026,64.173,461.038,81.142,459.271,100.652z"/>
			<path fill="#FBAEE4" d="M458.841,100.497c-1.807,19.31-15.591,33.785-30.788,32.33s-26.052-18.289-24.244-37.599
				c1.807-19.311,15.591-33.785,30.788-32.33S460.648,81.186,458.841,100.497z"/>
			<path fill="#FBAFE4" d="M458.411,100.341c-1.847,19.111-15.539,33.398-30.583,31.911c-15.043-1.488-25.741-18.187-23.894-37.298
				c1.847-19.111,15.539-33.398,30.583-31.911S460.259,81.23,458.411,100.341z"/>
			<path fill="#FBB0E4" d="M457.981,100.187c-1.888,18.912-15.488,33.011-30.378,31.492c-14.89-1.52-25.431-18.083-23.542-36.996
				c1.887-18.913,15.487-33.012,30.377-31.492C449.328,64.71,459.868,81.274,457.981,100.187z"/>
			<path fill="#FBB1E5" d="M457.551,100.031c-1.927,18.712-15.436,32.625-30.172,31.073c-14.735-1.552-25.119-17.981-23.191-36.694
				c1.927-18.713,15.436-32.625,30.172-31.073C449.096,64.889,459.479,81.318,457.551,100.031z"/>
			<path fill="#FCB2E5" d="M457.121,99.876c-1.968,18.514-15.384,32.238-29.967,30.654c-14.582-1.585-24.809-17.878-22.84-36.392
				c1.967-18.514,15.384-32.238,29.966-30.653C448.862,65.068,459.089,81.362,457.121,99.876z"/>
			<path fill="#FCB2E5" d="M456.691,99.721c-2.008,18.315-15.332,31.852-29.761,30.235c-14.43-1.617-24.499-17.775-22.49-36.09
				c2.008-18.315,15.332-31.852,29.761-30.235S458.699,81.405,456.691,99.721z"/>
			<path fill="#FCB3E6" d="M456.261,99.565c-2.047,18.116-15.279,31.465-29.555,29.816c-14.275-1.649-24.188-17.672-22.14-35.788
				s15.28-31.465,29.556-29.815C448.397,65.426,458.31,81.449,456.261,99.565z"/>
			<path fill="#FCB4E6" d="M455.831,99.411c-2.088,17.917-15.229,31.078-29.35,29.396c-14.122-1.682-23.877-17.569-21.788-35.486
				c2.088-17.917,15.229-31.079,29.35-29.397C448.164,65.605,457.919,81.493,455.831,99.411z"/>
			<path fill="#FCB5E6" d="M455.401,99.255c-2.128,17.717-15.177,30.691-29.145,28.978s-23.566-17.466-21.438-35.184
				c2.128-17.718,15.177-30.691,29.145-28.978C447.932,65.785,457.529,81.537,455.401,99.255z"/>
			<path fill="#FCB6E6" d="M454.971,99.1c-2.168,17.519-15.124,30.305-28.938,28.559c-13.814-1.747-23.255-17.364-21.086-34.883
				c2.168-17.519,15.124-30.305,28.938-28.559S457.14,81.581,454.971,99.1z"/>
			<path fill="#FCB7E7" d="M454.541,98.945c-2.208,17.319-15.072,29.918-28.733,28.14c-13.66-1.779-22.944-17.261-20.735-34.581
				c2.208-17.32,15.073-29.918,28.733-28.14C447.466,66.143,456.75,81.625,454.541,98.945z"/>
			<path fill="#FCB8E7" d="M454.111,98.79c-2.249,17.12-15.021,29.531-28.528,27.721c-13.507-1.811-22.634-17.158-20.384-34.279
				c2.248-17.121,15.021-29.531,28.527-27.721S456.359,81.669,454.111,98.79z"/>
			<path fill="#FCB9E7" d="M453.681,98.635c-2.288,16.921-14.969,29.145-28.322,27.302c-13.353-1.843-22.322-17.055-20.033-33.977
				c2.289-16.922,14.969-29.145,28.322-27.302C447.001,66.501,455.97,81.713,453.681,98.635z"/>
			<path fill="#FCBAE7" d="M453.251,98.479c-2.329,16.722-14.917,28.758-28.117,26.883c-13.199-1.876-22.012-16.953-19.682-33.675
				c2.328-16.722,14.917-28.758,28.116-26.883S455.58,81.757,453.251,98.479z"/>
			<path fill="#FCBBE8" d="M452.821,98.324c-2.369,16.523-14.865,28.372-27.912,26.464c-13.046-1.908-21.701-16.85-19.331-33.373
				c2.369-16.523,14.865-28.372,27.911-26.463C446.535,66.859,455.19,81.801,452.821,98.324z"/>
			<path fill="#FCBCE8" d="M452.391,98.169c-2.409,16.324-14.813,27.985-27.705,26.045c-12.893-1.94-21.391-16.747-18.98-33.071
				c2.408-16.324,14.813-27.985,27.705-26.045S454.801,81.845,452.391,98.169z"/>
			<path fill="#FCBDE8" d="M451.961,98.014c-2.449,16.125-14.762,27.598-27.5,25.625c-12.739-1.973-21.08-16.644-18.63-32.769
				c2.449-16.125,14.762-27.598,27.5-25.625C446.069,67.217,454.41,81.889,451.961,98.014z"/>
			<path fill="#FCBEE8" d="M451.53,97.859c-2.488,15.926-14.709,27.211-27.294,25.207c-12.585-2.005-20.77-16.542-18.279-32.467
				c2.489-15.926,14.71-27.212,27.295-25.207S454.021,81.933,451.53,97.859z"/>
			<path fill="#FCBFE9" d="M451.101,97.704c-2.529,15.727-14.657,26.825-27.089,24.788c-12.432-2.038-20.458-16.438-17.928-32.166
				c2.529-15.727,14.658-26.825,27.089-24.788C445.604,67.575,453.631,81.977,451.101,97.704z"/>
			<path fill="#FCC0E9" d="M450.671,97.548c-2.569,15.528-14.606,26.438-26.884,24.369c-12.277-2.07-20.147-16.335-17.577-31.864
				c2.57-15.528,14.606-26.438,26.884-24.369S453.241,82.02,450.671,97.548z"/>
			<path fill="#FCC1E9" d="M450.24,97.394c-2.609,15.328-14.554,26.051-26.678,23.95c-12.124-2.102-19.837-16.233-17.226-31.562
				c2.609-15.329,14.554-26.052,26.678-23.95C445.139,67.934,452.851,82.064,450.24,97.394z"/>
			<path fill="#FCC2EA" d="M449.811,97.238c-2.649,15.129-14.502,25.665-26.473,23.531c-11.97-2.134-19.525-16.13-16.875-31.26
				s14.503-25.665,26.473-23.531C444.906,68.112,452.461,82.108,449.811,97.238z"/>
			<path fill="#FCC3EA" d="M449.381,97.083c-2.69,14.931-14.45,25.278-26.268,23.112c-11.816-2.167-19.215-16.027-16.523-30.958
				c2.689-14.931,14.45-25.278,26.267-23.112C444.673,68.292,452.071,82.152,449.381,97.083z"/>
			<path fill="#FCC4EA" d="M448.95,96.928c-2.729,14.731-14.398,24.892-26.062,22.693c-11.662-2.199-18.904-15.924-16.173-30.656
				c2.73-14.731,14.398-24.892,26.062-22.693S451.682,82.196,448.95,96.928z"/>
			<path fill="#FCC5EA" d="M448.521,96.772c-2.771,14.533-14.347,24.505-25.856,22.274c-11.509-2.231-18.593-15.821-15.821-30.354
				c2.77-14.532,14.347-24.505,25.855-22.273C444.208,68.65,451.292,82.24,448.521,96.772z"/>
			<path fill="#FCC6EB" d="M448.091,96.618c-2.811,14.333-14.295,24.118-25.651,21.855c-11.355-2.264-18.282-15.719-15.471-30.052
				c2.811-14.333,14.295-24.118,25.65-21.855S450.901,82.284,448.091,96.618z"/>
			<path fill="#FCC7EB" d="M447.66,96.462c-2.851,14.134-14.242,23.731-25.444,21.436c-11.202-2.296-17.973-15.616-15.12-29.75
				c2.851-14.134,14.242-23.731,25.444-21.436C443.742,69.008,450.512,82.328,447.66,96.462z"/>
			<path fill="#FCC8EB" d="M447.23,96.307c-2.891,13.935-14.191,23.345-25.239,21.017c-11.049-2.329-17.661-15.513-14.77-29.448
				c2.891-13.936,14.191-23.345,25.239-21.017C443.51,69.187,450.122,82.372,447.23,96.307z"/>
			<path fill="#FCC9EB" d="M446.801,96.152c-2.932,13.736-14.14,22.958-25.034,20.598c-10.895-2.361-17.351-15.41-14.418-29.146
				c2.931-13.736,14.139-22.958,25.033-20.598S449.732,82.416,446.801,96.152z"/>
			<path fill="#FCCAEC" d="M446.37,95.997c-2.971,13.537-14.087,22.571-24.828,20.179c-10.741-2.393-17.04-15.307-14.067-28.845
				c2.971-13.537,14.087-22.571,24.828-20.178C443.044,69.545,449.342,82.459,446.37,95.997z"/>
			<path fill="#FCCBEC" d="M445.94,95.842c-3.011,13.338-14.035,22.185-24.623,19.76c-10.587-2.425-16.729-15.204-13.717-28.542
				c3.012-13.338,14.036-22.185,24.623-19.76C442.812,69.724,448.952,82.503,445.94,95.842z"/>
			<path fill="#FCCCEC" d="M445.511,95.687c-3.052,13.139-13.984,21.798-24.418,19.341c-10.434-2.458-16.418-15.102-13.365-28.241
				c3.051-13.139,13.983-21.798,24.417-19.34C442.578,69.903,448.563,82.547,445.511,95.687z"/>
			<path fill="#FCCDEC" d="M445.08,95.531c-3.091,12.94-13.932,21.412-24.212,18.922c-10.279-2.49-16.107-14.999-13.015-27.938
				c3.092-12.94,13.933-21.412,24.212-18.922C442.346,70.083,448.173,82.591,445.08,95.531z"/>
			<path fill="#FCCEED" d="M444.65,95.376c-3.132,12.74-13.88,21.024-24.007,18.503c-10.126-2.523-15.797-14.896-12.663-27.637
				c3.132-12.741,13.88-21.025,24.006-18.502C442.113,70.261,447.782,82.635,444.65,95.376z"/>
			<path fill="#FCCFED" d="M444.221,95.221c-3.172,12.542-13.828,20.638-23.802,18.084c-9.973-2.555-15.485-14.793-12.313-27.335
				c3.172-12.542,13.828-20.638,23.801-18.083C441.88,70.44,447.393,82.679,444.221,95.221z"/>
			<path fill="#FCD0ED" d="M443.79,95.066c-3.212,12.342-13.776,20.251-23.596,17.665c-9.818-2.587-15.175-14.69-11.961-27.033
				c3.212-12.343,13.776-20.251,23.595-17.665C441.647,70.62,447.003,82.723,443.79,95.066z"/>
			<path fill="#FCD1ED" d="M443.36,94.911c-3.252,12.144-13.725,19.865-23.391,17.246c-9.665-2.62-14.864-14.587-11.61-26.731
				c3.252-12.144,13.725-19.865,23.39-17.246C441.415,70.799,446.613,82.767,443.36,94.911z"/>
			<path fill="#FCD2EE" d="M442.931,94.755c-3.293,11.945-13.673,19.479-23.185,16.827c-9.512-2.652-14.554-14.484-11.26-26.429
				c3.292-11.945,13.672-19.479,23.184-16.827C441.182,70.978,446.224,82.811,442.931,94.755z"/>
			<path fill="#FCD3EE" d="M442.5,94.601c-3.332,11.745-13.62,19.091-22.979,16.408c-9.358-2.684-14.243-14.382-10.909-26.127
				c3.332-11.746,13.621-19.091,22.979-16.408C440.949,71.157,445.833,82.854,442.5,94.601z"/>
			<path fill="#FCD4EE" d="M442.07,94.445c-3.373,11.546-13.569,18.705-22.773,15.989c-9.204-2.716-13.933-14.279-10.558-25.826
				c3.372-11.546,13.568-18.705,22.772-15.988C440.717,71.336,445.443,82.898,442.07,94.445z"/>
			<path fill="#FCD5EF" d="M441.641,94.29c-3.413,11.347-13.518,18.318-22.568,15.57c-9.051-2.749-13.621-14.176-10.207-25.523
				c3.413-11.347,13.517-18.318,22.567-15.57C440.483,71.515,445.054,82.942,441.641,94.29z"/>
			<path fill="#FCD6EF" d="M441.21,94.135c-3.452,11.148-13.465,17.932-22.362,15.151c-8.896-2.782-13.311-14.074-9.856-25.222
				c3.453-11.148,13.466-17.932,22.362-15.15C440.251,71.694,444.664,82.986,441.21,94.135z"/>
			<path fill="#FCD7EF" d="M440.78,93.98c-3.493,10.949-13.413,17.544-22.157,14.732c-8.743-2.814-13-13.971-9.505-24.92
				c3.493-10.949,13.413-17.545,22.156-14.732C440.019,71.873,444.273,83.03,440.78,93.98z"/>
			<path fill="#FCD8EF" d="M440.35,93.825c-3.532,10.75-13.361,17.158-21.951,14.313c-8.589-2.846-12.688-13.868-9.154-24.618
				c3.533-10.75,13.361-17.158,21.951-14.313C439.785,72.052,443.884,83.074,440.35,93.825z"/>
			<path fill="#FCD9F0" d="M439.92,93.669c-3.573,10.551-13.31,16.771-21.746,13.894c-8.436-2.878-12.378-13.765-8.803-24.316
				c3.573-10.551,13.31-16.771,21.745-13.894C439.553,72.231,443.494,83.118,439.92,93.669z"/>
			<path fill="#FCDAF0" d="M439.49,93.514c-3.613,10.352-13.258,16.385-21.541,13.475c-8.282-2.911-12.067-13.662-8.452-24.014
				c3.613-10.352,13.258-16.385,21.54-13.475C439.32,72.41,443.104,83.162,439.49,93.514z"/>
			<path fill="#FCDBF0" d="M439.06,93.359c-3.653,10.153-13.205,15.999-21.335,13.056c-8.128-2.943-11.756-13.559-8.101-23.712
				c3.653-10.153,13.206-15.998,21.334-13.056C439.087,72.589,442.715,83.206,439.06,93.359z"/>
			<path fill="#FCDCF0" d="M438.63,93.204c-3.693,9.954-13.154,15.611-21.13,12.637c-7.975-2.975-11.445-13.456-7.75-23.41
				c3.694-9.954,13.154-15.612,21.129-12.637C438.854,72.769,442.324,83.25,438.63,93.204z"/>
			<path fill="#FCDDF1" d="M438.2,93.049c-3.734,9.754-13.103,15.225-20.924,12.218c-7.821-3.007-11.136-13.354-7.399-23.108
				c3.733-9.755,13.102-15.225,20.923-12.218C438.622,72.947,441.935,83.293,438.2,93.049z"/>
			<path fill="#FCDEF1" d="M437.77,92.894c-3.773,9.556-13.05,14.838-20.718,11.799c-7.668-3.041-10.824-13.251-7.049-22.807
				c3.774-9.555,13.051-14.838,20.718-11.798C438.389,73.126,441.545,83.337,437.77,92.894z"/>
			<path fill="#FCDFF1" d="M437.34,92.738c-3.814,9.356-12.998,14.452-20.513,11.38c-7.514-3.073-10.514-13.148-6.697-22.505
				c3.813-9.356,12.998-14.452,20.512-11.38C438.156,73.306,441.155,83.381,437.34,92.738z"/>
			<path fill="#FCE0F1" d="M436.91,92.583c-3.854,9.157-12.947,14.064-20.308,10.961c-7.36-3.105-10.203-13.045-6.347-22.203
				c3.854-9.157,12.946-14.065,20.307-10.96C437.924,73.485,440.765,83.425,436.91,92.583z"/>
			<path fill="#FCE1F2" d="M436.479,92.428c-3.895,8.958-12.895,13.678-20.102,10.542c-7.206-3.137-9.892-12.942-5.995-21.901
				c3.894-8.958,12.895-13.678,20.101-10.542C437.69,73.664,440.375,83.469,436.479,92.428z"/>
			
				<ellipse transform="matrix(0.9122 0.4098 -0.4098 0.9122 72.6497 -165.8786)" fill="#FCE2F2" cx="423.279" cy="86.535" rx="14" ry="17.388"/>
			
				<ellipse transform="matrix(0.9149 0.4036 -0.4036 0.9149 70.9032 -163.4376)" fill="#FCE3F2" cx="423.198" cy="86.495" rx="13.781" ry="17.116"/>
			<path fill="#FCE4F3" d="M435.563,91.84c-3.689,8.539-12.256,13.051-19.131,10.077c-6.875-2.975-9.456-12.309-5.765-20.848
				c3.69-8.539,12.256-13.051,19.131-10.077C436.674,73.966,439.255,83.301,435.563,91.84z"/>
			<path fill="#FCE5F3" d="M435.321,91.624c-3.568,8.429-11.963,12.931-18.749,10.054c-6.785-2.877-9.394-12.043-5.824-20.473
				c3.568-8.429,11.962-12.931,18.748-10.054C436.282,74.028,438.89,83.194,435.321,91.624z"/>
			<path fill="#FCE6F4" d="M435.078,91.408c-3.446,8.319-11.669,12.811-18.366,10.031c-6.696-2.78-9.332-11.777-5.884-20.097
				c3.445-8.319,11.669-12.811,18.365-10.031C435.89,74.09,438.524,83.088,435.078,91.408z"/>
			<path fill="#FDE7F4" d="M434.835,91.191c-3.323,8.209-11.375,12.69-17.983,10.008c-6.607-2.683-9.27-11.512-5.944-19.722
				c3.324-8.209,11.376-12.69,17.982-10.008C435.498,74.152,438.159,82.982,434.835,91.191z"/>
			<path fill="#FDE8F5" d="M434.592,90.975c-3.201,8.099-11.082,12.57-17.601,9.985c-6.519-2.585-9.207-11.247-6.004-19.346
				c3.201-8.099,11.082-12.57,17.6-9.985C435.106,74.214,437.795,82.875,434.592,90.975z"/>
			<path fill="#FDE9F5" d="M434.349,90.759c-3.079,7.989-10.788,12.45-17.218,9.962c-6.429-2.488-9.145-10.981-6.064-18.971
				s10.789-12.449,17.218-9.962C434.714,74.276,437.43,82.769,434.349,90.759z"/>
			<path fill="#FDEAF5" d="M434.106,90.542c-2.957,7.879-10.495,12.329-16.836,9.939c-6.34-2.391-9.082-10.716-6.124-18.595
				s10.495-12.329,16.835-9.939C434.322,74.337,437.064,82.663,434.106,90.542z"/>
			<path fill="#FDEBF6" d="M433.863,90.326c-2.835,7.769-10.201,12.209-16.453,9.917c-6.251-2.293-9.02-10.45-6.184-18.22
				c2.835-7.769,10.201-12.209,16.452-9.916C433.93,74.399,436.699,82.557,433.863,90.326z"/>
			<path fill="#FDECF6" d="M433.62,90.11c-2.713,7.659-9.908,12.089-16.07,9.894c-6.162-2.196-8.958-10.185-6.244-17.844
				s9.908-12.088,16.07-9.893S436.334,82.45,433.62,90.11z"/>
			<path fill="#FDEDF7" d="M433.377,89.894c-2.59,7.549-9.614,11.968-15.688,9.871c-6.072-2.099-8.896-9.919-6.304-17.469
				c2.591-7.549,9.614-11.968,15.688-9.87C433.146,74.523,435.969,82.344,433.377,89.894z"/>
			<path fill="#FDEEF7" d="M433.134,89.677c-2.468,7.439-9.32,11.848-15.305,9.848c-5.983-2.001-8.833-9.654-6.363-17.093
				c2.469-7.439,9.321-11.848,15.305-9.847C432.754,74.585,435.604,82.238,433.134,89.677z"/>
			<path fill="#FDEFF8" d="M432.892,89.461c-2.347,7.329-9.027,11.728-14.923,9.825c-5.895-1.904-8.771-9.389-6.424-16.718
				s9.028-11.728,14.923-9.824S435.238,82.131,432.892,89.461z"/>
			<path fill="#FDF0F8" d="M432.648,89.245c-2.224,7.219-8.734,11.607-14.54,9.802c-5.806-1.807-8.708-9.123-6.483-16.342
				s8.734-11.607,14.54-9.801C431.97,74.708,434.873,82.025,432.648,89.245z"/>
			<path fill="#FEF1F9" d="M432.405,89.028c-2.102,7.109-8.44,11.487-14.156,9.779c-5.717-1.709-8.646-8.857-6.544-15.967
				c2.102-7.109,8.44-11.487,14.156-9.778C431.578,74.771,434.508,81.919,432.405,89.028z"/>
			<path fill="#FEF1F9" d="M432.162,88.812c-1.979,6.999-8.146,11.367-13.773,9.756c-5.628-1.612-8.585-8.592-6.604-15.592
				c1.98-6.999,8.147-11.366,13.774-9.754C431.187,74.833,434.144,81.813,432.162,88.812z"/>
			<path fill="#FEF2F9" d="M431.919,88.596c-1.856,6.889-7.854,11.247-13.391,9.733c-5.539-1.515-8.522-8.327-6.664-15.216
				c1.858-6.889,7.854-11.246,13.392-9.731C430.794,74.894,433.778,81.707,431.919,88.596z"/>
			<path fill="#FEF3FA" d="M431.677,88.379c-1.735,6.779-7.561,11.126-13.009,9.71c-5.45-1.417-8.46-8.062-6.725-14.841
				c1.736-6.779,7.561-11.125,13.01-9.708C430.402,74.956,433.413,81.6,431.677,88.379z"/>
			<path fill="#FEF4FA" d="M431.434,88.163c-1.613,6.669-7.267,11.006-12.626,9.687c-5.361-1.32-8.397-7.796-6.784-14.465
				c1.614-6.668,7.268-11.005,12.627-9.686C430.01,75.018,433.048,81.494,431.434,88.163z"/>
			<path fill="#FEF5FB" d="M431.19,87.947c-1.49,6.559-6.973,10.886-12.243,9.664c-5.271-1.223-8.335-7.53-6.844-14.09
				c1.491-6.559,6.974-10.885,12.244-9.663C429.618,75.08,432.683,81.388,431.19,87.947z"/>
			<path fill="#FEF6FB" d="M430.947,87.73c-1.368,6.449-6.68,10.766-11.86,9.641c-5.183-1.125-8.272-7.265-6.904-13.714
				c1.37-6.449,6.681-10.765,11.862-9.64C429.227,75.142,432.317,81.281,430.947,87.73z"/>
			<path fill="#FEF7FC" d="M430.704,87.514c-1.246,6.339-6.386,10.646-11.478,9.618c-5.094-1.028-8.211-7-6.964-13.339
				c1.247-6.338,6.387-10.645,11.479-9.617C428.834,75.204,431.952,81.175,430.704,87.514z"/>
			<path fill="#FEF8FC" d="M430.462,87.298c-1.124,6.229-6.093,10.525-11.096,9.595c-5.005-0.931-8.148-6.734-7.023-12.963
				c1.125-6.229,6.093-10.524,11.097-9.594C428.442,75.265,431.587,81.069,430.462,87.298z"/>
			<path fill="#FEF9FC" d="M430.219,87.082c-1.002,6.119-5.799,10.405-10.713,9.572c-4.915-0.833-8.086-6.469-7.084-12.588
				c1.004-6.119,5.8-10.404,10.715-9.571C428.05,75.327,431.222,80.962,430.219,87.082z"/>
			<path fill="#FFFAFD" d="M429.976,86.865c-0.88,6.009-5.506,10.285-10.33,9.549c-4.826-0.736-8.023-6.203-7.144-12.212
				c0.881-6.008,5.506-10.284,10.331-9.548C427.658,75.389,430.856,80.856,429.976,86.865z"/>
			<path fill="#FFFBFD" d="M429.732,86.649c-0.757,5.899-5.212,10.164-9.947,9.526c-4.737-0.638-7.961-5.938-7.204-11.837
				c0.76-5.898,5.213-10.163,9.949-9.525C427.267,75.451,430.492,80.75,429.732,86.649z"/>
			<path fill="#FFFCFE" d="M429.489,86.433c-0.635,5.789-4.918,10.044-9.564,9.503c-4.648-0.541-7.899-5.672-7.264-11.461
				c0.637-5.789,4.92-10.043,9.566-9.502C426.874,75.513,430.127,80.644,429.489,86.433z"/>
			<path fill="#FFFDFE" d="M429.247,86.216c-0.514,5.679-4.625,9.924-9.183,9.48c-4.559-0.444-7.837-5.407-7.323-11.086
				c0.515-5.679,4.626-9.923,9.184-9.479C426.482,75.575,429.762,80.537,429.247,86.216z"/>
			<path fill="#FFFEFF" d="M429.004,86c-0.391,5.569-4.332,9.803-8.8,9.458c-4.47-0.346-7.774-5.142-7.384-10.71
				c0.393-5.568,4.333-9.802,8.802-9.456C426.09,75.636,429.396,80.431,429.004,86z"/>
			<path fill="#FFFFFF" d="M428.761,85.784c-0.269,5.459-4.038,9.683-8.417,9.435c-4.381-0.249-7.712-4.876-7.443-10.335
				c0.271-5.458,4.039-9.682,8.419-9.433C425.698,75.698,429.031,80.325,428.761,85.784z"/>
		</g>
		<g>
			<path fill="#FFFFFF" d="M436.172,74.52c-0.34,1.865-1.798,3.165-3.257,2.906c-1.458-0.26-2.365-1.983-2.025-3.847
				c0.339-1.864,1.797-3.165,3.257-2.905C435.605,70.933,436.512,72.656,436.172,74.52z"/>
		</g>
		<g>
			<path fill="#F72AB3" d="M453.916,199.235c-2.263,0.649-4.598,8.241-4.326,10.443c0.356,2.904,3.431,0.922,5.095,0.4
				c1.418-0.445,2.95,0.223,4.482,0.344c1.515,0.121,3.745-1.369,4.964-0.507c1.398-2.317-3.537-6.409-4.939-8.009
				c-0.749-0.854-1.866-2.744-3.004-3.091C455.227,198.523,454.853,199.068,453.916,199.235"/>
		</g>
	</g>
	<g>
		<g>
			<path fill="none" d="M452.34,199.56c1.75-0.75,3.502-0.601,5.252-0.45"/>
		</g>
		<g>
			<path fill="#C1272D" d="M452.34,200.81c1.715-0.673,3.449-0.604,5.252-0.45c-0.052-0.004,0.089-2.492,0-2.5
				c-1.803-0.154-3.537-0.224-5.252,0.45C452.04,198.427,452.606,200.705,452.34,200.81L452.34,200.81z"/>
		</g>
	</g>
</g>
</svg>