<svg width="135" height="400" xmlns="http://www.w3.org/2000/svg">
 <g>
  <g id="svg_1059">
   <g id="svg_1060">
    <g id="svg_1061">
     <path fill="none" d="m67.39999,158.97701c19,21 36,36 36,66.00003c1,24 -10,42.99998 -21,63.99998c-17,31 -33,69 -13,104" id="svg_1062"/>
    </g>
    <g id="svg_1063">
     <path fill="#C1272D" d="m67.4,160.22701c12.877,14.18799 27.30099,27.903 33.254,46.64799c7.727,24.33099 -1.438,48.455 -12.543,69.97299c-10.903,21.12802 -22.781,41.71201 -26.838,65.483c-3.025,17.72702 -0.646,36.08701 8.127,51.896c-0.349,-0.629 0.357,-1.85498 0,-2.5c-6.897,-12.42899 -10.096,-26.06598 -8.96,-40.29999c0.937,-11.73199 4.481,-23.16699 8.811,-34.048c8.776,-22.064 22.982,-41.64801 30.357,-64.30499c4.797,-14.73601 5.452,-32.323 1.438,-47.35501c-5.16399,-19.336 -20.64799,-33.67099 -33.646,-47.99199c0.407,0.44699 -0.422,2.034 0,2.5l0,0l0,0z" id="svg_1064"/>
    </g>
   </g>
   <g id="svg_1065">
    <g id="svg_1066">
     <ellipse fill="#F72AB3" cx="65.721" cy="79.058" rx="61.854" ry="75.805" id="svg_1067"/>
     <ellipse fill="#F72BB3" cx="65.555" cy="78.88" rx="61.607" ry="75.525" id="svg_1068"/>
     <ellipse fill="#F72CB4" cx="65.39" cy="78.704" rx="61.358" ry="75.245" id="svg_1069"/>
     <ellipse fill="#F72DB4" cx="65.224" cy="78.526" rx="61.111" ry="74.965" id="svg_1070"/>
     <ellipse fill="#F72EB5" cx="65.059" cy="78.35" rx="60.863" ry="74.686" id="svg_1071"/>
     <ellipse fill="#F72FB5" cx="64.893" cy="78.172" rx="60.615" ry="74.406" id="svg_1072"/>
     <ellipse fill="#F730B6" cx="64.728" cy="77.996" rx="60.367" ry="74.126" id="svg_1073"/>
     <ellipse fill="#F731B6" cx="64.562" cy="77.818" rx="60.119" ry="73.846" id="svg_1074"/>
     <ellipse fill="#F732B6" cx="64.396" cy="77.642" rx="59.871" ry="73.566" id="svg_1075"/>
     <ellipse fill="#F733B7" cx="64.231" cy="77.464" rx="59.623" ry="73.287" id="svg_1076"/>
     <ellipse fill="#F734B7" cx="64.065" cy="77.287" rx="59.375" ry="73.007" id="svg_1077"/>
     <ellipse fill="#F835B8" cx="63.9" cy="77.11" rx="59.127" ry="72.727" id="svg_1078"/>
     <ellipse fill="#F836B8" cx="63.735" cy="76.933" rx="58.879" ry="72.448" id="svg_1079"/>
     <ellipse fill="#F837B8" cx="63.569" cy="76.756" rx="58.631" ry="72.167" id="svg_1080"/>
     <ellipse fill="#F838B9" cx="63.404" cy="76.579" rx="58.383" ry="71.888" id="svg_1081"/>
     <ellipse fill="#F839B9" cx="63.238" cy="76.402" rx="58.136" ry="71.608" id="svg_1082"/>
     <ellipse fill="#F83ABA" cx="63.072" cy="76.225" rx="57.888" ry="71.328" id="svg_1083"/>
     <ellipse fill="#F83BBA" cx="62.907" cy="76.048" rx="57.64" ry="71.048" id="svg_1084"/>
     <ellipse fill="#F83CBB" cx="62.741" cy="75.871" rx="57.392" ry="70.769" id="svg_1085"/>
     <ellipse fill="#F83DBB" cx="62.576" cy="75.694" rx="57.144" ry="70.489" id="svg_1086"/>
     <ellipse fill="#F83EBB" cx="62.411" cy="75.517" rx="56.896" ry="70.209" id="svg_1087"/>
     <ellipse fill="#F83FBC" cx="62.245" cy="75.34" rx="56.648" ry="69.93" id="svg_1088"/>
     <ellipse fill="#F840BC" cx="62.08" cy="75.163" rx="56.4" ry="69.649" id="svg_1089"/>
     <ellipse fill="#F841BD" cx="61.914" cy="74.986" rx="56.152" ry="69.37" id="svg_1090"/>
     <ellipse fill="#F842BD" cx="61.749" cy="74.809" rx="55.904" ry="69.09" id="svg_1091"/>
     <ellipse fill="#F843BE" cx="61.583" cy="74.632" rx="55.656" ry="68.811" id="svg_1092"/>
     <ellipse fill="#F844BE" cx="61.417" cy="74.455" rx="55.409" ry="68.53" id="svg_1093"/>
     <ellipse fill="#F845BE" cx="61.252" cy="74.278" rx="55.16" ry="68.251" id="svg_1094"/>
     <ellipse fill="#F846BF" cx="61.086" cy="74.101" rx="54.913" ry="67.971" id="svg_1095"/>
     <ellipse fill="#F847BF" cx="60.921" cy="73.924" rx="54.664" ry="67.691" id="svg_1096"/>
     <ellipse fill="#F848C0" cx="60.755" cy="73.747" rx="54.417" ry="67.412" id="svg_1097"/>
     <ellipse fill="#F849C0" cx="60.59" cy="73.57" rx="54.169" ry="67.131" id="svg_1098"/>
     <ellipse fill="#F84AC0" cx="60.424" cy="73.393" rx="53.92" ry="66.852" id="svg_1099"/>
     <ellipse fill="#F94BC1" cx="60.259" cy="73.216" rx="53.673" ry="66.572" id="svg_1100"/>
     <ellipse fill="#F94CC1" cx="60.094" cy="73.039" rx="53.425" ry="66.292" id="svg_1101"/>
     <ellipse fill="#F94DC2" cx="59.928" cy="72.861" rx="53.177" ry="66.013" id="svg_1102"/>
     <ellipse fill="#F94EC2" cx="59.762" cy="72.685" rx="52.929" ry="65.733" id="svg_1103"/>
     <ellipse fill="#F94FC3" cx="59.597" cy="72.507" rx="52.681" ry="65.453" id="svg_1104"/>
     <ellipse fill="#F950C3" cx="59.431" cy="72.331" rx="52.433" ry="65.173" id="svg_1105"/>
     <ellipse fill="#F951C3" cx="59.266" cy="72.153" rx="52.185" ry="64.894" id="svg_1106"/>
     <ellipse fill="#F952C4" cx="59.1" cy="71.977" rx="51.937" ry="64.614" id="svg_1107"/>
     <ellipse fill="#F953C4" cx="58.935" cy="71.799" rx="51.689" ry="64.334" id="svg_1108"/>
     <ellipse fill="#F954C5" cx="58.77" cy="71.623" rx="51.441" ry="64.054" id="svg_1109"/>
     <ellipse fill="#F955C5" cx="58.604" cy="71.445" rx="51.193" ry="63.774" id="svg_1110"/>
     <ellipse fill="#F956C6" cx="58.438" cy="71.268" rx="50.945" ry="63.495" id="svg_1111"/>
     <ellipse fill="#F956C6" cx="58.273" cy="71.091" rx="50.698" ry="63.215" id="svg_1112"/>
     <ellipse fill="#F957C6" cx="58.107" cy="70.914" rx="50.45" ry="62.935" id="svg_1113"/>
     <ellipse fill="#F958C7" cx="57.942" cy="70.737" rx="50.202" ry="62.655" id="svg_1114"/>
     <ellipse fill="#F959C7" cx="57.776" cy="70.56" rx="49.954" ry="62.375" id="svg_1115"/>
     <ellipse fill="#F95AC8" cx="57.61" cy="70.383" rx="49.706" ry="62.096" id="svg_1116"/>
     <ellipse fill="#F95BC8" cx="57.445" cy="70.206" rx="49.458" ry="61.816" id="svg_1117"/>
     <ellipse fill="#F95CC8" cx="57.279" cy="70.029" rx="49.21" ry="61.536" id="svg_1118"/>
     <ellipse fill="#F95DC9" cx="57.114" cy="69.852" rx="48.962" ry="61.256" id="svg_1119"/>
     <ellipse fill="#F95EC9" cx="56.949" cy="69.675" rx="48.714" ry="60.977" id="svg_1120"/>
     <ellipse fill="#F95FCA" cx="56.783" cy="69.498" rx="48.466" ry="60.697" id="svg_1121"/>
     <ellipse fill="#FA60CA" cx="56.618" cy="69.321" rx="48.218" ry="60.417" id="svg_1122"/>
     <ellipse fill="#FA61CB" cx="56.452" cy="69.144" rx="47.971" ry="60.137" id="svg_1123"/>
     <ellipse fill="#FA62CB" cx="56.287" cy="68.967" rx="47.722" ry="59.858" id="svg_1124"/>
     <ellipse fill="#FA63CB" cx="56.121" cy="68.79" rx="47.475" ry="59.578" id="svg_1125"/>
     <ellipse fill="#FA64CC" cx="55.956" cy="68.613" rx="47.227" ry="59.298" id="svg_1126"/>
     <ellipse fill="#FA65CC" cx="55.79" cy="68.436" rx="46.979" ry="59.018" id="svg_1127"/>
     <ellipse fill="#FA66CD" cx="55.625" cy="68.259" rx="46.731" ry="58.738" id="svg_1128"/>
     <ellipse fill="#FA67CD" cx="55.459" cy="68.082" rx="46.482" ry="58.459" id="svg_1129"/>
     <ellipse fill="#FA68CD" cx="55.293" cy="67.905" rx="46.235" ry="58.179" id="svg_1130"/>
     <ellipse fill="#FA69CE" cx="55.128" cy="67.728" rx="45.987" ry="57.899" id="svg_1131"/>
     <ellipse fill="#FA6ACE" cx="54.962" cy="67.551" rx="45.739" ry="57.619" id="svg_1132"/>
     <ellipse fill="#FA6BCF" cx="54.797" cy="67.374" rx="45.491" ry="57.34" id="svg_1133"/>
     <ellipse fill="#FA6CCF" cx="54.632" cy="67.197" rx="45.243" ry="57.06" id="svg_1134"/>
     <ellipse fill="#FA6DD0" cx="54.466" cy="67.02" rx="44.995" ry="56.78" id="svg_1135"/>
     <ellipse fill="#FA6ED0" cx="54.3" cy="66.843" rx="44.748" ry="56.5" id="svg_1136"/>
     <ellipse fill="#FA6FD0" cx="54.135" cy="66.666" rx="44.5" ry="56.221" id="svg_1137"/>
     <ellipse fill="#FA70D1" cx="53.969" cy="66.488" rx="44.251" ry="55.941" id="svg_1138"/>
     <ellipse fill="#FA71D1" cx="53.804" cy="66.312" rx="44.003" ry="55.661" id="svg_1139"/>
     <ellipse fill="#FA72D2" cx="53.638" cy="66.134" rx="43.755" ry="55.381" id="svg_1140"/>
     <ellipse fill="#FA73D2" cx="53.473" cy="65.958" rx="43.508" ry="55.101" id="svg_1141"/>
     <ellipse fill="#FA74D3" cx="53.308" cy="65.78" rx="43.26" ry="54.822" id="svg_1142"/>
     <ellipse fill="#FA75D3" cx="53.142" cy="65.604" rx="43.012" ry="54.542" id="svg_1143"/>
     <ellipse fill="#FB76D3" cx="52.977" cy="65.426" rx="42.764" ry="54.262" id="svg_1144"/>
     <ellipse fill="#FB77D4" cx="52.811" cy="65.25" rx="42.516" ry="53.982" id="svg_1145"/>
     <ellipse fill="#FB78D4" cx="52.645" cy="65.072" rx="42.268" ry="53.703" id="svg_1146"/>
     <ellipse fill="#FB79D5" cx="52.48" cy="64.895" rx="42.02" ry="53.423" id="svg_1147"/>
     <ellipse fill="#FB7AD5" cx="52.314" cy="64.718" rx="41.772" ry="53.143" id="svg_1148"/>
     <ellipse fill="#FB7BD5" cx="52.149" cy="64.541" rx="41.524" ry="52.863" id="svg_1149"/>
     <ellipse fill="#FB7CD6" cx="51.983" cy="64.364" rx="41.276" ry="52.583" id="svg_1150"/>
     <ellipse fill="#FB7DD6" cx="51.817" cy="64.187" rx="41.028" ry="52.304" id="svg_1151"/>
     <ellipse fill="#FB7ED7" cx="51.652" cy="64.01" rx="40.78" ry="52.024" id="svg_1152"/>
     <ellipse fill="#FB7FD7" cx="51.487" cy="63.833" rx="40.533" ry="51.744" id="svg_1153"/>
     <ellipse fill="#FB80D8" cx="51.321" cy="63.656" rx="40.284" ry="51.464" id="svg_1154"/>
     <ellipse fill="#FB81D8" cx="51.156" cy="63.479" rx="40.037" ry="51.185" id="svg_1155"/>
     <ellipse transform="matrix(1,0.0015,-0.0015,1,0.1585,-0.6454) " fill="#FB82D8" cx="50.93887" cy="63.8456" rx="39.759" ry="50.824" id="svg_1156"/>
     <path fill="#FB83D9" d="m90.332,63.168c-0.07999,27.87 -17.82101,50.412 -39.625,50.347c-21.80499,-0.064 -39.41501,-22.711 -39.33499,-50.581c0.07999,-27.87099 17.82098,-50.412 39.62598,-50.347c21.80402,0.065 39.41501,22.71099 39.33401,50.581z" id="svg_1157"/>
     <path fill="#FB84D9" d="m89.90201,63.014c-0.12,27.671 -17.76999,50.02399 -39.41998,49.92699c-21.651,-0.097 -39.104,-22.60799 -38.98401,-50.27899c0.121,-27.672 17.76999,-50.025 39.42099,-49.928c21.64999,0.097 39.103,22.608 38.983,50.28z" id="svg_1158"/>
     <path fill="#FB85D9" d="m89.47299,62.858c-0.16101,27.472 -17.71799,49.638 -39.215,49.508c-21.49701,-0.129 -38.79401,-22.505 -38.633,-49.977c0.16,-27.473 17.71698,-49.639 39.215,-49.509c21.49701,0.13 38.793,22.506 38.633,49.978z" id="svg_1159"/>
     <path fill="#FB86D9" d="m89.042,62.703c-0.2,27.273 -17.665,49.251 -39.009,49.09c-21.344,-0.162 -38.482,-22.402 -38.282,-49.675c0.201,-27.273 17.666,-49.252 39.01,-49.09c21.34299,0.161 38.48199,22.402 38.281,49.675l0,0z" id="svg_1160"/>
     <path fill="#FB87DA" d="m88.612,62.548c-0.241,27.074 -17.613,48.865 -38.803,48.671c-21.19,-0.194 -38.173,-22.3 -37.932,-49.374c0.24,-27.074 17.613,-48.865 38.804,-48.671c21.19,0.194 38.173,22.3 37.931,49.374l0,0z" id="svg_1161"/>
     <path fill="#FB88DA" d="m88.18301,62.393c-0.28101,26.87501 -17.56302,48.478 -38.598,48.251c-21.03702,-0.22699 -37.862,-22.19699 -37.58102,-49.071c0.28101,-26.875 17.56302,-48.479 38.599,-48.252c21.03601,0.226 37.86002,22.197 37.58002,49.072z" id="svg_1162"/>
     <path fill="#FB89DA" d="m87.752,62.238c-0.321,26.675 -17.51,48.091 -38.392,47.833c-20.883,-0.259 -37.551,-22.094 -37.229,-48.77c0.321,-26.676 17.51,-48.092 38.393,-47.833c20.881,0.259 37.549,22.093 37.228,48.77l0,0z" id="svg_1163"/>
     <path fill="#FB8ADA" d="m87.322,62.083c-0.361,26.477 -17.458,47.705 -38.187,47.414c-20.729,-0.291 -37.24,-21.991 -36.879,-48.467c0.361,-26.478 17.458,-47.705 38.188,-47.414c20.729,0.29 37.24,21.989 36.878,48.467l0,0z" id="svg_1164"/>
     <path fill="#FB8BDB" d="m86.89301,61.927c-0.40202,26.27699 -17.40601,47.31799 -37.98099,46.995c-20.57602,-0.323 -36.92999,-21.888 -36.52701,-48.166c0.401,-26.278 17.40601,-47.318 37.98099,-46.995s36.92801,21.888 36.52701,48.166z" id="svg_1165"/>
     <path fill="#FB8CDB" d="m86.462,61.772c-0.44099,26.079 -17.354,46.932 -37.775,46.576c-20.422,-0.355 -36.618,-21.785 -36.177,-47.864c0.441,-26.079 17.354,-46.932 37.776,-46.576c20.421,0.356 36.618,21.785 36.176,47.864l0,0z" id="svg_1166"/>
     <path fill="#FB8DDB" d="m86.032,61.617c-0.48199,25.879 -17.303,46.544 -37.57,46.156c-20.269,-0.388 -36.308,-21.682 -35.825,-47.562c0.481,-25.88 17.302,-46.545 37.57,-46.157c20.268,0.389 36.307,21.683 35.825,47.563l0,0z" id="svg_1167"/>
     <path fill="#FB8EDB" d="m85.602,61.462c-0.521,25.68 -17.25,46.158 -37.364,45.738c-20.114,-0.421 -35.997,-21.57999 -35.475,-47.26c0.521,-25.681 17.251,-46.158 37.365,-45.738s35.996,21.579 35.474,47.26l0,0z" id="svg_1168"/>
     <path fill="#FB8FDC" d="m85.172,61.307c-0.562,25.481 -17.198,45.771 -37.159,45.31901c-19.961,-0.453 -35.686,-21.47701 -35.12399,-46.95801c0.56299,-25.482 17.19901,-45.772 37.16,-45.319c19.95999,0.452 35.685,21.476 35.12299,46.958z" id="svg_1169"/>
     <path fill="#FB90DC" d="m84.742,61.151c-0.603,25.282 -17.147,45.385 -36.954,44.9c-19.807,-0.485 -35.375,-21.374 -34.772,-46.656c0.603,-25.283 17.146,-45.385 36.954,-44.9c19.806,0.485 35.375,21.374 34.772,46.656l0,0z" id="svg_1170"/>
     <path fill="#FB91DC" d="m84.312,60.997c-0.642,25.083 -17.09499,44.998 -36.748,44.48c-19.653,-0.518 -35.064,-21.271 -34.422,-46.354c0.643,-25.083 17.096,-44.998 36.749,-44.481c19.653,0.517 35.063,21.271 34.421,46.355l0,0z" id="svg_1171"/>
     <path fill="#FB92DD" d="m83.882,60.841c-0.68301,24.884 -17.04301,44.611 -36.542,44.062c-19.5,-0.55 -34.754,-21.168 -34.071,-46.052c0.683,-24.885 17.043,-44.612 36.543,-44.062c19.499,0.549 34.752,21.168 34.07,46.052l0,0z" id="svg_1172"/>
     <path fill="#FB93DD" d="m83.452,60.686c-0.72301,24.685 -16.991,44.225 -36.337,43.643c-19.347,-0.582 -34.443,-21.065 -33.721,-45.75c0.723,-24.686 16.991,-44.225 36.338,-43.643c19.346,0.581 34.443,21.064 33.72001,45.75l0,0z" id="svg_1173"/>
     <path fill="#FB94DD" d="m83.021,60.531c-0.763,24.486 -16.939,43.83801 -36.13099,43.22401c-19.19202,-0.61401 -34.13303,-20.96201 -33.36902,-45.44801c0.763,-24.487 16.939,-43.83801 36.13202,-43.224s34.13199,20.961 33.36798,45.448z" id="svg_1174"/>
     <path fill="#FB95DD" d="m82.592,60.375c-0.803,24.287 -16.888,43.452 -35.926,42.805c-19.039,-0.646 -33.821,-20.86 -33.019,-45.146c0.803,-24.288 16.888,-43.452 35.927,-42.805c19.038,0.646 33.821,20.859 33.018,45.146l0,0z" id="svg_1175"/>
     <path fill="#FB96DE" d="m82.16199,60.221c-0.84399,24.087 -16.836,43.064 -35.72101,42.38599c-18.88599,-0.67899 -33.51099,-20.757 -32.66699,-44.84499c0.84302,-24.088 16.836,-43.065 35.72101,-42.386c18.88501,0.678 33.51001,20.756 32.66699,44.845z" id="svg_1176"/>
     <path fill="#FB97DE" d="m81.73099,60.065c-0.883,23.889 -16.78299,42.67799 -35.51498,41.967c-18.73102,-0.71199 -33.20001,-20.654 -32.31601,-44.543c0.884,-23.89 16.784,-42.678 35.51599,-41.967c18.73102,0.711 33.19901,20.654 32.315,44.543z" id="svg_1177"/>
     <path fill="#FB98DE" d="m81.302,59.91c-0.92401,23.689 -16.73199,42.29199 -35.31,41.54799c-18.578,-0.744 -32.88901,-20.55199 -31.965,-44.24099c0.923,-23.69 16.73099,-42.292 35.31,-41.548c18.577,0.744 32.88901,20.551 31.965,44.241z" id="svg_1178"/>
     <path fill="#FB99DE" d="m80.872,59.755c-0.964,23.491 -16.681,41.905 -35.104,41.129c-18.424,-0.776 -32.578,-20.44901 -31.614,-43.939c0.964,-23.491 16.681,-41.905 35.104,-41.129c18.424,0.776 32.578,20.448 31.614,43.939l0,0z" id="svg_1179"/>
     <path fill="#FB9ADF" d="m80.44101,59.6c-1.00299,23.291 -16.62799,41.518 -34.89801,40.70901c-18.271,-0.80901 -32.26797,-20.34602 -31.26398,-43.63701c1.004,-23.292 16.629,-41.519 34.89899,-40.71c18.271,0.809 32.267,20.346 31.263,43.638z" id="svg_1180"/>
     <path fill="#FB9BDF" d="m80.01199,59.445c-1.04401,23.092 -16.57599,41.131 -34.69299,40.29099c-18.116,-0.841 -31.957,-20.243 -30.91202,-43.33499c1.04401,-23.093 16.57602,-41.131 34.69299,-40.291c18.11603,0.84 31.95602,20.242 30.91202,43.335z" id="svg_1181"/>
     <path fill="#FB9CDF" d="m79.582,59.29c-1.08401,22.893 -16.52499,40.745 -34.48801,39.872s-31.646,-20.14 -30.56198,-43.033c1.08398,-22.894 16.52499,-40.745 34.48798,-39.872s31.646,20.139 30.56201,43.033z" id="svg_1182"/>
     <path fill="#FB9DDF" d="m79.151,59.134c-1.124,22.694 -16.473,40.358 -34.281,39.453c-17.81,-0.905 -31.336,-20.03699 -30.211,-42.731c1.124,-22.695 16.473,-40.358 34.282,-39.453c17.81,0.905 31.335,20.036 30.21,42.731l0,0z" id="svg_1183"/>
     <path fill="#FB9EE0" d="m78.72198,58.979c-1.16399,22.495 -16.42099,39.97201 -34.07602,39.034c-17.65598,-0.938 -31.02496,-19.935 -29.85999,-42.43c1.16501,-22.496 16.42099,-39.972 34.077,-39.034c17.65503,0.938 31.02301,19.934 29.85901,42.43z" id="svg_1184"/>
     <path fill="#FB9FE0" d="m78.29199,58.824c-1.20502,22.29601 -16.36899,39.58401 -33.871,38.615c-17.50299,-0.97 -30.71399,-19.83199 -29.509,-42.128c1.20401,-22.297 16.36899,-39.58499 33.871,-38.615c17.50201,0.97 30.71301,19.831 29.509,42.128z" id="svg_1185"/>
     <path fill="#FBA0E0" d="m77.861,58.669c-1.244,22.097 -16.317,39.198 -33.665,38.196c-17.349,-1.003 -30.403,-19.729 -29.158,-41.826c1.245,-22.098 16.317,-39.198 33.666,-38.196s30.402,19.728 29.157,41.826l0,0z" id="svg_1186"/>
     <path fill="#FBA1E0" d="m77.43201,58.514c-1.285,21.898 -16.26599,38.812 -33.45999,37.777c-17.19501,-1.035 -30.09302,-19.626 -28.80702,-41.524c1.284,-21.89799 16.26502,-38.812 33.46,-37.777c17.194,1.034 30.09201,19.625 28.80701,41.524z" id="svg_1187"/>
     <path fill="#FBA2E1" d="m77.00201,58.358c-1.325,21.699 -16.21399,38.425 -33.255,37.358c-17.041,-1.067 -29.78101,-19.523 -28.45599,-41.222s16.21398,-38.425 33.255,-37.358s29.78098,19.52299 28.45599,41.222z" id="svg_1188"/>
     <path fill="#FBA3E1" d="m76.57101,58.204c-1.36499,21.5 -16.16098,38.038 -33.04901,36.938c-16.888,-1.09999 -29.47101,-19.42 -28.104,-40.92c1.36401,-21.5 16.16101,-38.039 33.04901,-36.939c16.88699,1.099 29.47,19.42 28.104,40.921z" id="svg_1189"/>
     <path fill="#FBA4E1" d="m76.142,58.048c-1.405,21.301 -16.10999,37.65101 -32.84399,36.52s-29.16,-19.31699 -27.754,-40.618c1.405,-21.30099 16.10999,-37.652 32.84399,-36.52s29.159,19.317 27.754,40.618z" id="svg_1190"/>
     <path fill="#FBA5E2" d="m75.711,57.893c-1.445,21.102 -16.058,37.265 -32.638,36.101s-28.849,-19.214 -27.402,-40.316c1.445,-21.102 16.058,-37.265 32.638,-36.101c16.58,1.163 28.848,19.214 27.402,40.316l0,0z" id="svg_1191"/>
     <path fill="#FBA6E2" d="m75.28101,57.738c-1.48499,20.903 -16.00599,36.878 -32.43298,35.682c-16.42603,-1.196 -28.53802,-19.112 -27.052,-40.014c1.48499,-20.903 16.00598,-36.878 32.43298,-35.682s28.539,19.11 27.052,40.014z" id="svg_1192"/>
     <path fill="#FBA7E2" d="m74.85199,57.583c-1.52499,20.703 -15.95401,36.491 -32.228,35.26299c-16.272,-1.229 -28.228,-19.009 -26.70099,-39.71299c1.526,-20.704 15.95499,-36.492 32.228,-35.263c16.272,1.229 28.22601,19.008 26.70099,39.713z" id="svg_1193"/>
     <path fill="#FBA8E2" d="m74.42099,57.428c-1.565,20.504 -15.90201,36.104 -32.021,34.844c-16.11902,-1.261 -27.91699,-18.90601 -26.35101,-39.411c1.565,-20.505 15.90201,-36.105 32.021,-34.844c16.12003,1.261 27.91702,18.905 26.35101,39.411z" id="svg_1194"/>
     <path fill="#FBA9E3" d="m73.991,57.272c-1.605,20.305 -15.851,35.718 -31.815,34.425c-15.966,-1.294 -27.606,-18.803 -26,-39.109c1.606,-20.306 15.851,-35.718 31.816,-34.425c15.966,1.294 27.606,18.803 25.999,39.109l0,0z" id="svg_1195"/>
     <path fill="#FBAAE3" d="m73.56201,57.117c-1.646,20.106 -15.79901,35.33201 -31.61002,34.006c-15.81299,-1.326 -27.29599,-18.701 -25.64798,-38.807c1.646,-20.106 15.79898,-35.332 31.60999,-34.006s27.29401,18.7 25.64801,38.807z" id="svg_1196"/>
     <path fill="#FBABE3" d="m73.131,56.962c-1.686,19.907 -15.746,34.945 -31.404,33.587c-15.658,-1.358 -26.984,-18.59801 -25.298,-38.505c1.687,-19.908 15.747,-34.945 31.405,-33.587c15.658,1.358 26.984,18.597 25.297,38.505l0,0z" id="svg_1197"/>
     <path fill="#FBACE3" d="m72.70099,56.807c-1.72699,19.708 -15.69501,34.55801 -31.19901,33.167c-15.505,-1.39101 -26.67398,-18.495 -24.94598,-38.203c1.72699,-19.708 15.694,-34.558 31.19901,-33.168c15.505,1.391 26.673,18.495 24.94598,38.204z" id="svg_1198"/>
     <path fill="#FBADE4" d="m72.271,56.652c-1.76701,19.509 -15.64398,34.171 -30.99399,32.749s-26.36301,-18.392 -24.59601,-37.901c1.767,-19.509 15.64401,-34.171 30.99399,-32.749c15.35101,1.422 26.36301,18.391 24.59601,37.901z" id="svg_1199"/>
     <path fill="#FBAEE4" d="m71.841,56.497c-1.80701,19.31 -15.591,33.785 -30.788,32.33s-26.052,-18.289 -24.244,-37.599c1.807,-19.311 15.591,-33.785 30.788,-32.33s26.051,18.288 24.244,37.599l0,0z" id="svg_1200"/>
     <path fill="#FBAFE4" d="m71.41101,56.341c-1.84702,19.111 -15.539,33.39799 -30.58301,31.911c-15.043,-1.48799 -25.741,-18.187 -23.89398,-37.298c1.84698,-19.111 15.539,-33.398 30.58298,-31.911s25.742,18.187 23.89401,37.298z" id="svg_1201"/>
     <path fill="#FBB0E4" d="m70.981,56.187c-1.888,18.912 -15.488,33.011 -30.378,31.492c-14.89,-1.52 -25.431,-18.083 -23.542,-36.996c1.887,-18.913 15.487,-33.012 30.377,-31.492c14.89,1.519 25.43,18.083 23.543,36.996l0,0z" id="svg_1202"/>
     <path fill="#FBB1E5" d="m70.551,56.031c-1.927,18.712 -15.436,32.625 -30.172,31.073c-14.735,-1.55199 -25.119,-17.981 -23.191,-36.694c1.927,-18.713 15.436,-32.625 30.172,-31.073c14.736,1.552 25.119,17.981 23.191,36.694l0,0z" id="svg_1203"/>
     <path fill="#FCB2E5" d="m70.121,55.876c-1.968,18.514 -15.384,32.238 -29.967,30.654c-14.582,-1.585 -24.809,-17.878 -22.84,-36.392c1.967,-18.514 15.384,-32.238 29.966,-30.653c14.582,1.583 24.809,17.877 22.841,36.391l0,0z" id="svg_1204"/>
     <path fill="#FCB2E5" d="m69.691,55.721c-2.008,18.315 -15.332,31.852 -29.761,30.235c-14.43,-1.617 -24.499,-17.775 -22.49,-36.09c2.008,-18.315 15.332,-31.852 29.761,-30.235s24.498,17.774 22.49,36.09l0,0z" id="svg_1205"/>
     <path fill="#FCB3E6" d="m69.26099,55.565c-2.047,18.116 -15.27899,31.465 -29.55499,29.81599c-14.27499,-1.64899 -24.18803,-17.672 -22.14002,-35.78799s15.28,-31.465 29.556,-29.815c14.27502,1.648 24.18803,17.671 22.13901,35.787z" id="svg_1206"/>
     <path fill="#FCB4E6" d="m68.831,55.411c-2.08801,17.917 -15.229,31.078 -29.35,29.396c-14.122,-1.682 -23.877,-17.569 -21.788,-35.486c2.088,-17.917 15.229,-31.079 29.35,-29.397c14.121,1.681 23.876,17.569 21.788,35.487l0,0z" id="svg_1207"/>
     <path fill="#FCB5E6" d="m68.401,55.255c-2.12799,17.717 -15.177,30.691 -29.14499,28.978s-23.56601,-17.466 -21.43802,-35.184c2.12802,-17.718 15.177,-30.691 29.14502,-28.978c13.96899,1.714 23.56598,17.466 21.43799,35.184z" id="svg_1208"/>
     <path fill="#FCB6E6" d="m67.97101,55.1c-2.168,17.519 -15.12399,30.305 -28.93799,28.559c-13.814,-1.74699 -23.255,-17.364 -21.086,-34.883c2.168,-17.519 15.12399,-30.305 28.93799,-28.559s23.255,17.364 21.086,34.883z" id="svg_1209"/>
     <path fill="#FCB7E7" d="m67.54099,54.945c-2.20802,17.319 -15.07199,29.91801 -28.733,28.14c-13.66,-1.779 -22.944,-17.261 -20.73502,-34.581c2.20801,-17.32 15.073,-29.918 28.733,-28.14c13.66003,1.779 22.94403,17.261 20.73502,34.581z" id="svg_1210"/>
     <path fill="#FCB8E7" d="m67.11099,54.79c-2.24899,17.12 -15.021,29.531 -28.52802,27.721c-13.50699,-1.811 -22.63397,-17.158 -20.38397,-34.279c2.24799,-17.121 15.021,-29.531 28.52698,-27.721s22.63303,17.158 20.38501,34.279z" id="svg_1211"/>
     <path fill="#FCB9E7" d="m66.681,54.635c-2.28799,16.921 -14.96899,29.145 -28.32199,27.30199c-13.353,-1.84299 -22.32202,-17.05499 -20.03302,-33.977c2.289,-16.922 14.96902,-29.145 28.32202,-27.302c13.353,1.843 22.32199,17.055 20.03299,33.97701z" id="svg_1212"/>
     <path fill="#FCBAE7" d="m66.25101,54.479c-2.32901,16.722 -14.91699,28.758 -28.117,26.883c-13.19901,-1.876 -22.01199,-16.953 -19.68201,-33.675c2.328,-16.722 14.91702,-28.758 28.11603,-26.883s22.01195,16.953 19.68298,33.675z" id="svg_1213"/>
     <path fill="#FCBBE8" d="m65.821,54.324c-2.369,16.523 -14.865,28.372 -27.912,26.464c-13.046,-1.908 -21.701,-16.85 -19.331,-33.373c2.369,-16.523 14.865,-28.372 27.911,-26.463c13.046,1.907 21.701,16.849 19.332,33.372l0,0z" id="svg_1214"/>
     <path fill="#FCBCE8" d="m65.39099,54.169c-2.409,16.324 -14.81299,27.985 -27.70499,26.045c-12.89301,-1.93999 -21.39102,-16.74699 -18.98001,-33.071c2.40799,-16.324 14.81299,-27.985 27.70499,-26.045s21.39001,16.747 18.98001,33.071z" id="svg_1215"/>
     <path fill="#FCBDE8" d="m64.961,54.014c-2.44901,16.125 -14.76199,27.598 -27.5,25.625c-12.73901,-1.973 -21.07999,-16.644 -18.63,-32.769c2.44901,-16.125 14.76199,-27.598 27.5,-25.625c12.73801,1.972 21.07901,16.644 18.63,32.769z" id="svg_1216"/>
     <path fill="#FCBEE8" d="m64.53,53.859c-2.488,15.926 -14.709,27.211 -27.294,25.207c-12.585,-2.005 -20.77,-16.542 -18.279,-32.467c2.489,-15.926 14.71,-27.212 27.295,-25.207s20.769,16.541 18.278,32.467l0,0z" id="svg_1217"/>
     <path fill="#FCBFE9" d="m64.10101,53.704c-2.52899,15.727 -14.65701,26.825 -27.08899,24.78799c-12.43201,-2.03799 -20.45801,-16.438 -17.92801,-32.166c2.52899,-15.727 14.65799,-26.825 27.08899,-24.78799c12.431,2.03699 20.45801,16.439 17.92801,32.166z" id="svg_1218"/>
     <path fill="#FCC0E9" d="m63.67099,53.548c-2.569,15.528 -14.60599,26.438 -26.884,24.369c-12.27701,-2.07 -20.147,-16.335 -17.577,-31.864c2.57001,-15.528 14.60599,-26.438 26.884,-24.369s20.147,16.336 17.577,31.864z" id="svg_1219"/>
     <path fill="#FCC1E9" d="m63.23999,53.394c-2.60901,15.328 -14.55399,26.051 -26.67801,23.95c-12.12399,-2.10201 -19.83701,-16.233 -17.22598,-31.562c2.60898,-15.32899 14.55399,-26.052 26.67798,-23.95c12.12503,2.102 19.83704,16.232 17.22601,31.562z" id="svg_1220"/>
     <path fill="#FCC2EA" d="m62.811,53.238c-2.64902,15.129 -14.50201,25.665 -26.47299,23.531c-11.97,-2.134 -19.52499,-16.13 -16.875,-31.25999s14.50299,-25.665 26.47299,-23.53101c11.97,2.134 19.52499,16.13 16.875,31.26z" id="svg_1221"/>
     <path fill="#FCC3EA" d="m62.38101,53.083c-2.69,14.931 -14.45001,25.278 -26.26801,23.112c-11.81601,-2.167 -19.215,-16.027 -16.52301,-30.958c2.68903,-14.931 14.45001,-25.278 26.26703,-23.112c11.81598,2.167 19.21399,16.027 16.52399,30.958z" id="svg_1222"/>
     <path fill="#FCC4EA" d="m61.95001,52.928c-2.729,14.731 -14.39801,24.892 -26.06201,22.693c-11.66199,-2.19901 -18.90399,-15.924 -16.173,-30.65601c2.73001,-14.731 14.39801,-24.892 26.06201,-22.69299s18.90499,15.924 16.173,30.656z" id="svg_1223"/>
     <path fill="#FCC5EA" d="m61.521,52.772c-2.771,14.533 -14.347,24.505 -25.856,22.274c-11.509,-2.231 -18.593,-15.821 -15.821,-30.354c2.77,-14.532 14.347,-24.505 25.855,-22.273c11.509,2.231 18.593,15.821 15.822,30.353l0,0z" id="svg_1224"/>
     <path fill="#FCC6EB" d="m61.091,52.618c-2.811,14.333 -14.295,24.118 -25.651,21.855c-11.355,-2.264 -18.282,-15.719 -15.471,-30.052c2.811,-14.333 14.295,-24.118 25.65,-21.855s18.282,15.718 15.472,30.052l0,0z" id="svg_1225"/>
     <path fill="#FCC7EB" d="m60.66,52.462c-2.85101,14.134 -14.242,23.731 -25.444,21.436c-11.202,-2.29601 -17.97299,-15.616 -15.12,-29.75c2.85098,-14.134 14.242,-23.731 25.444,-21.436c11.202,2.29601 17.97198,15.616 15.12,29.75z" id="svg_1226"/>
     <path fill="#FCC8EB" d="m60.23001,52.307c-2.89099,13.935 -14.19101,23.345 -25.23901,21.017c-11.04898,-2.32899 -17.66098,-15.513 -14.76999,-29.448c2.89099,-13.936 14.19101,-23.345 25.23901,-21.017c11.04999,2.328 17.66199,15.513 14.76999,29.448z" id="svg_1227"/>
     <path fill="#FCC9EB" d="m59.80099,52.152c-2.93201,13.736 -14.14001,22.958 -25.034,20.598c-10.89502,-2.361 -17.35101,-15.41 -14.418,-29.146c2.931,-13.736 14.13898,-22.95799 25.03299,-20.598s17.35001,15.41 14.41901,29.146z" id="svg_1228"/>
     <path fill="#FCCAEC" d="m59.37,51.997c-2.97101,13.53699 -14.08701,22.571 -24.828,20.179c-10.741,-2.39301 -17.03998,-15.307 -14.06699,-28.845c2.97101,-13.537 14.08701,-22.571 24.82797,-20.178c10.74103,2.392 17.03903,15.306 14.06702,28.844z" id="svg_1229"/>
     <path fill="#FCCBEC" d="m58.94,51.842c-3.01102,13.338 -14.035,22.185 -24.62302,19.75999c-10.58698,-2.425 -16.72897,-15.20399 -13.71698,-28.542c3.01199,-13.338 14.03598,-22.185 24.62299,-19.75999c10.58902,2.424 16.729,15.203 13.71701,28.542z" id="svg_1230"/>
     <path fill="#FCCCEC" d="m58.51099,51.687c-3.052,13.139 -13.98401,21.798 -24.418,19.341c-10.43399,-2.458 -16.418,-15.102 -13.36499,-28.241c3.05099,-13.139 13.983,-21.798 24.41699,-19.34c10.43301,2.456 16.418,15.1 13.366,28.24z" id="svg_1231"/>
     <path fill="#FCCDEC" d="m58.07999,51.531c-3.091,12.94 -13.93201,21.412 -24.21201,18.922c-10.27899,-2.49001 -16.10699,-14.999 -13.01498,-27.938c3.09198,-12.94 13.93298,-21.412 24.21201,-18.922c10.28101,2.49 16.108,14.998 13.01498,27.938z" id="svg_1232"/>
     <path fill="#FCCEED" d="m57.64999,51.376c-3.13202,12.74 -13.88,21.024 -24.00702,18.503c-10.12598,-2.52299 -15.797,-14.896 -12.66299,-27.637c3.13202,-12.741 13.88,-21.02499 24.00601,-18.502c10.12701,2.521 15.79602,14.895 12.664,27.636z" id="svg_1233"/>
     <path fill="#FCCFED" d="m57.22101,51.221c-3.172,12.542 -13.828,20.638 -23.802,18.084c-9.97299,-2.555 -15.48499,-14.793 -12.31299,-27.335c3.172,-12.542 13.828,-20.638 23.80099,-18.083c9.97299,2.553 15.48599,14.792 12.314,27.334z" id="svg_1234"/>
     <path fill="#FCD0ED" d="m56.79001,51.066c-3.21201,12.342 -13.776,20.251 -23.59601,17.665c-9.81799,-2.58701 -15.17499,-14.69 -11.961,-27.033c3.21201,-12.34299 13.776,-20.251 23.595,-17.665c9.819,2.58701 15.17499,14.69 11.96201,27.033z" id="svg_1235"/>
     <path fill="#FCD1ED" d="m56.36,50.911c-3.252,12.144 -13.725,19.865 -23.391,17.246c-9.665,-2.62 -14.864,-14.587 -11.61,-26.731c3.252,-12.144 13.725,-19.865 23.39,-17.246c9.666,2.619 14.864,14.587 11.611,26.731l0,0z" id="svg_1236"/>
     <path fill="#FCD2EE" d="m55.931,50.755c-3.293,11.945 -13.673,19.479 -23.185,16.827c-9.51199,-2.652 -14.55402,-14.484 -11.26001,-26.429c3.29202,-11.945 13.672,-19.479 23.18402,-16.827c9.51199,2.652 14.55399,14.485 11.26099,26.429z" id="svg_1237"/>
     <path fill="#FCD3EE" d="m55.5,50.601c-3.332,11.745 -13.62,19.091 -22.979,16.408c-9.358,-2.68401 -14.24298,-14.382 -10.909,-26.127c3.332,-11.746 13.621,-19.091 22.979,-16.408c9.358,2.683 14.242,14.38 10.909,26.127z" id="svg_1238"/>
     <path fill="#FCD4EE" d="m55.07001,50.445c-3.37299,11.546 -13.569,18.705 -22.77301,15.989c-9.20398,-2.716 -13.93298,-14.279 -10.55798,-25.826c3.37201,-11.54601 13.56799,-18.705 22.772,-15.988c9.20599,2.716 13.93198,14.278 10.55899,25.825z" id="svg_1239"/>
     <path fill="#FCD5EF" d="m54.641,50.29c-3.413,11.347 -13.518,18.318 -22.568,15.57c-9.051,-2.749 -13.621,-14.176 -10.207,-25.523c3.413,-11.347 13.517,-18.318 22.567,-15.57c9.05,2.748 13.621,14.175 10.208,25.523l0,0z" id="svg_1240"/>
     <path fill="#FCD6EF" d="m54.20999,50.135c-3.452,11.14799 -13.465,17.932 -22.362,15.151c-8.896,-2.78201 -13.311,-14.07401 -9.85599,-25.222c3.45297,-11.148 13.46597,-17.932 22.362,-15.15c8.897,2.78 13.31,14.072 9.85599,25.221z" id="svg_1241"/>
     <path fill="#FCD7EF" d="m53.78,49.98c-3.493,10.949 -13.413,17.544 -22.157,14.732c-8.743,-2.814 -13,-13.971 -9.505,-24.92c3.493,-10.949 13.413,-17.545 22.156,-14.732c8.745,2.813 12.999,13.97 9.506,24.92l0,0z" id="svg_1242"/>
     <path fill="#FCD8EF" d="m53.35001,49.825c-3.53198,10.75 -13.36099,17.158 -21.95099,14.313c-8.58902,-2.846 -12.68802,-13.868 -9.15402,-24.618c3.53302,-10.75 13.36102,-17.158 21.95102,-14.313c8.58899,2.845 12.68799,13.867 9.15399,24.618z" id="svg_1243"/>
     <path fill="#FCD9F0" d="m52.92,49.669c-3.573,10.551 -13.31,16.771 -21.746,13.894c-8.436,-2.878 -12.378,-13.765 -8.803,-24.316c3.573,-10.551 13.31,-16.771 21.745,-13.894c8.437,2.878 12.378,13.765 8.804,24.316l0,0z" id="svg_1244"/>
     <path fill="#FCDAF0" d="m52.49,49.514c-3.613,10.352 -13.258,16.385 -21.541,13.475c-8.282,-2.911 -12.067,-13.662 -8.452,-24.014c3.613,-10.352 13.258,-16.385 21.54,-13.475c8.283,2.91 12.067,13.662 8.453,24.014l0,0z" id="svg_1245"/>
     <path fill="#FCDBF0" d="m52.06,49.359c-3.65298,10.153 -13.20499,15.999 -21.33499,13.056c-8.12802,-2.943 -11.75601,-13.559 -8.10101,-23.712c3.65302,-10.153 13.20599,-15.998 21.33401,-13.056c8.129,2.94199 11.75699,13.559 8.10199,23.712z" id="svg_1246"/>
     <path fill="#FCDCF0" d="m51.63,49.204c-3.693,9.954 -13.154,15.611 -21.13,12.637c-7.975,-2.975 -11.445,-13.456 -7.75,-23.41c3.694,-9.954 13.154,-15.612 21.129,-12.637c7.975,2.975 11.445,13.456 7.751,23.41l0,0z" id="svg_1247"/>
     <path fill="#FCDDF1" d="m51.2,49.049c-3.734,9.754 -13.103,15.225 -20.924,12.218c-7.821,-3.007 -11.136,-13.354 -7.399,-23.108c3.733,-9.755 13.102,-15.225 20.923,-12.218c7.822,3.006 11.135,13.352 7.4,23.108l0,0z" id="svg_1248"/>
     <path fill="#FCDEF1" d="m50.76999,48.894c-3.77301,9.556 -13.04999,14.83801 -20.71799,11.799c-7.668,-3.041 -10.82401,-13.251 -7.04901,-22.807c3.77399,-9.555 13.05099,-14.83801 20.71799,-11.798c7.66803,3.038 10.82404,13.249 7.04901,22.806z" id="svg_1249"/>
     <path fill="#FCDFF1" d="m50.34,48.738c-3.814,9.356 -12.99799,14.452 -20.513,11.38c-7.51401,-3.073 -10.51401,-13.14799 -6.69699,-22.505c3.81299,-9.356 12.99799,-14.452 20.51199,-11.38c7.51401,3.073 10.513,13.14799 6.698,22.505z" id="svg_1250"/>
     <path fill="#FCE0F1" d="m49.91,48.583c-3.854,9.157 -12.947,14.064 -20.308,10.961c-7.36,-3.105 -10.203,-13.045 -6.347,-22.203c3.854,-9.157 12.946,-14.065 20.307,-10.96c7.362,3.104 10.203,13.044 6.348,22.202l0,0z" id="svg_1251"/>
     <path fill="#FCE1F2" d="m49.479,48.428c-3.895,8.958 -12.895,13.678 -20.102,10.542c-7.206,-3.137 -9.892,-12.942 -5.995,-21.901c3.894,-8.958 12.895,-13.678 20.101,-10.542c7.207,3.137 9.892,12.942 5.996,21.901l0,0z" id="svg_1252"/>
     <ellipse transform="matrix(0.9122,0.4098,-0.4098,0.9122,72.6497,-165.8786) " fill="#FCE2F2" cx="52.24305" cy="204.98548" rx="14" ry="17.388" id="svg_1253"/>
     <ellipse transform="matrix(0.9149,0.4036,-0.4036,0.9149,70.9032,-163.4376) " fill="#FCE3F2" cx="51.34912" cy="202.44014" rx="13.781" ry="17.116" id="svg_1254"/>
     <path fill="#FCE4F3" d="m48.56299,47.84c-3.689,8.539 -12.25601,13.051 -19.13101,10.077c-6.875,-2.975 -9.45599,-12.309 -5.76498,-20.848c3.69,-8.539 12.25601,-13.051 19.13101,-10.077c6.87601,2.97401 9.457,12.30901 5.76498,20.848z" id="svg_1255"/>
     <path fill="#FCE5F3" d="m48.32101,47.624c-3.56799,8.429 -11.96301,12.931 -18.74899,10.054c-6.785,-2.877 -9.39401,-12.043 -5.82401,-20.473c3.56799,-8.429 11.96201,-12.931 18.74799,-10.054c6.78601,2.877 9.39401,12.043 5.82501,20.473z" id="svg_1256"/>
     <path fill="#FCE6F4" d="m48.078,47.408c-3.44601,8.319 -11.66901,12.811 -18.366,10.03101c-6.69601,-2.78001 -9.332,-11.777 -5.884,-20.097c3.44501,-8.319 11.66901,-12.811 18.36499,-10.03101c6.69702,2.779 9.33099,11.777 5.88501,20.097z" id="svg_1257"/>
     <path fill="#FDE7F4" d="m47.83499,47.191c-3.323,8.209 -11.375,12.68999 -17.983,10.008c-6.60699,-2.683 -9.26999,-11.512 -5.944,-19.722c3.32401,-8.209 11.37601,-12.68999 17.98199,-10.008c6.608,2.683 9.26901,11.513 5.94501,19.722z" id="svg_1258"/>
     <path fill="#FDE8F5" d="m47.59201,46.975c-3.20099,8.099 -11.082,12.57 -17.60101,9.985c-6.51898,-2.585 -9.207,-11.247 -6.004,-19.346c3.20102,-8.099 11.082,-12.57 17.60001,-9.985c6.51898,2.585 9.20801,11.246 6.005,19.346z" id="svg_1259"/>
     <path fill="#FDE9F5" d="m47.349,46.759c-3.07901,7.989 -10.78799,12.45 -17.21799,9.962c-6.42902,-2.488 -9.14502,-10.981 -6.06403,-18.971s10.789,-12.449 17.21802,-9.962c6.42899,2.488 9.14499,10.981 6.064,18.971z" id="svg_1260"/>
     <path fill="#FDEAF5" d="m47.10599,46.542c-2.957,7.879 -10.495,12.329 -16.836,9.939c-6.34,-2.39101 -9.082,-10.716 -6.12399,-18.595s10.495,-12.329 16.83499,-9.939c6.341,2.39 9.08301,10.716 6.125,18.595z" id="svg_1261"/>
     <path fill="#FDEBF6" d="m46.863,46.326c-2.835,7.769 -10.201,12.209 -16.453,9.917c-6.251,-2.293 -9.02,-10.45 -6.184,-18.22c2.835,-7.769 10.201,-12.209 16.452,-9.916c6.252,2.292 9.021,10.45 6.185,18.219l0,0z" id="svg_1262"/>
     <path fill="#FDECF6" d="m46.62,46.11c-2.71298,7.659 -9.90799,12.089 -16.07001,9.894c-6.16199,-2.196 -8.95798,-10.185 -6.24399,-17.84399s9.90799,-12.08801 16.07001,-9.89301s8.95801,10.183 6.24399,17.843z" id="svg_1263"/>
     <path fill="#FDEDF7" d="m46.377,45.894c-2.59,7.549 -9.614,11.968 -15.688,9.871c-6.072,-2.099 -8.896,-9.919 -6.304,-17.469c2.591,-7.549 9.614,-11.968 15.688,-9.87c6.073,2.097 8.896,9.918 6.304,17.468l0,0z" id="svg_1264"/>
     <path fill="#FDEEF7" d="m46.134,45.677c-2.46802,7.439 -9.32001,11.848 -15.30499,9.848c-5.983,-2.001 -8.83301,-9.654 -6.36301,-17.093c2.46899,-7.439 9.32098,-11.848 15.30499,-9.847c5.983,2 8.83301,9.653 6.36301,17.092z" id="svg_1265"/>
     <path fill="#FDEFF8" d="m45.892,45.461c-2.34698,7.329 -9.02701,11.728 -14.923,9.825c-5.89499,-1.904 -8.771,-9.389 -6.42398,-16.718s9.02798,-11.728 14.92297,-9.824s8.77002,9.38699 6.42401,16.717z" id="svg_1266"/>
     <path fill="#FDF0F8" d="m45.648,45.245c-2.224,7.219 -8.734,11.607 -14.54,9.802c-5.806,-1.807 -8.708,-9.123 -6.483,-16.342s8.734,-11.607 14.54,-9.801c5.805,1.804 8.708,9.121 6.483,16.341l0,0z" id="svg_1267"/>
     <path fill="#FEF1F9" d="m45.405,45.028c-2.10199,7.109 -8.44,11.487 -14.15601,9.779c-5.71698,-1.709 -8.646,-8.857 -6.54401,-15.967c2.10202,-7.10899 8.44,-11.487 14.15601,-9.778c5.71701,1.70901 8.647,8.857 6.54401,15.966z" id="svg_1268"/>
     <path fill="#FEF1F9" d="m45.162,44.812c-1.979,6.999 -8.146,11.367 -13.773,9.756c-5.628,-1.612 -8.585,-8.592 -6.604,-15.592c1.98,-6.999 8.147,-11.366 13.774,-9.754c5.628,1.611 8.585,8.591 6.603,15.59l0,0z" id="svg_1269"/>
     <path fill="#FEF2F9" d="m44.91901,44.596c-1.85599,6.889 -7.854,11.247 -13.39099,9.733c-5.539,-1.515 -8.522,-8.327 -6.664,-15.216c1.858,-6.889 7.854,-11.246 13.392,-9.731c5.53799,1.51199 8.522,8.325 6.66299,15.214z" id="svg_1270"/>
     <path fill="#FEF3FA" d="m44.677,44.379c-1.73502,6.779 -7.561,11.126 -13.009,9.71c-5.45001,-1.417 -8.45999,-8.062 -6.72501,-14.841c1.73599,-6.779 7.561,-11.125 13.01001,-9.708c5.44901,1.416 8.45999,8.06 6.724,14.839z" id="svg_1271"/>
     <path fill="#FEF4FA" d="m44.434,44.163c-1.613,6.669 -7.267,11.006 -12.626,9.687c-5.361,-1.32 -8.397,-7.796 -6.784,-14.465c1.614,-6.668 7.268,-11.005 12.627,-9.686c5.359,1.319 8.397,7.795 6.783,14.464l0,0z" id="svg_1272"/>
     <path fill="#FEF5FB" d="m44.19,43.947c-1.49,6.559 -6.973,10.886 -12.243,9.664c-5.271,-1.223 -8.335,-7.53 -6.844,-14.09c1.491,-6.559 6.974,-10.885 12.244,-9.663c5.271,1.222 8.336,7.53 6.843,14.089l0,0z" id="svg_1273"/>
     <path fill="#FEF6FB" d="m43.947,43.73c-1.368,6.449 -6.68,10.766 -11.86,9.641c-5.183,-1.125 -8.272,-7.265 -6.904,-13.714c1.37,-6.449 6.681,-10.765 11.862,-9.64c5.182,1.125 8.272,7.264 6.902,13.713l0,0z" id="svg_1274"/>
     <path fill="#FEF7FC" d="m43.704,43.514c-1.246,6.339 -6.386,10.646 -11.478,9.618c-5.094,-1.028 -8.211,-7 -6.964,-13.339c1.247,-6.338 6.387,-10.645 11.479,-9.617c5.093,1.028 8.211,6.999 6.963,13.338l0,0z" id="svg_1275"/>
     <path fill="#FEF8FC" d="m43.462,43.298c-1.124,6.229 -6.093,10.525 -11.096,9.595c-5.005,-0.931 -8.148,-6.734 -7.023,-12.963c1.125,-6.229 6.093,-10.524 11.097,-9.594c5.002,0.929 8.147,6.733 7.022,12.962l0,0z" id="svg_1276"/>
     <path fill="#FEF9FC" d="m43.219,43.082c-1.002,6.119 -5.799,10.405 -10.713,9.572c-4.915,-0.833 -8.086,-6.469 -7.084,-12.588c1.004,-6.119 5.8,-10.404 10.715,-9.571c4.913,0.832 8.085,6.467 7.082,12.587l0,0z" id="svg_1277"/>
     <path fill="#FFFAFD" d="m42.97601,42.865c-0.88,6.009 -5.50601,10.285 -10.33002,9.549c-4.82599,-0.736 -8.02298,-6.203 -7.14398,-12.212c0.88098,-6.008 5.50598,-10.284 10.33099,-9.548c4.82498,0.735 8.02298,6.202 7.14301,12.211z" id="svg_1278"/>
     <path fill="#FFFBFD" d="m42.732,42.649c-0.757,5.899 -5.212,10.164 -9.947,9.526c-4.737,-0.638 -7.961,-5.938 -7.204,-11.837c0.76,-5.898 5.213,-10.163 9.949,-9.525c4.737,0.638 7.962,5.937 7.202,11.836l0,0z" id="svg_1279"/>
     <path fill="#FFFCFE" d="m42.489,42.433c-0.635,5.789 -4.918,10.044 -9.564,9.503c-4.648,-0.541 -7.899,-5.672 -7.264,-11.461c0.637,-5.789 4.92,-10.043 9.566,-9.502c4.647,0.54 7.9,5.671 7.262,11.46l0,0z" id="svg_1280"/>
     <path fill="#FFFDFE" d="m42.247,42.216c-0.514,5.679 -4.625,9.924 -9.183,9.48c-4.559,-0.444 -7.837,-5.407 -7.323,-11.086c0.515,-5.679 4.626,-9.923 9.184,-9.479c4.557,0.444 7.837,5.406 7.322,11.085l0,0z" id="svg_1281"/>
     <path fill="#FFFEFF" d="m42.004,42c-0.39099,5.569 -4.332,9.803 -8.79999,9.458c-4.47,-0.346 -7.77402,-5.142 -7.384,-10.71c0.39301,-5.568 4.33301,-9.802 8.802,-9.456c4.46799,0.344 7.77399,5.139 7.38199,10.708z" id="svg_1282"/>
     <path fill="#FFFFFF" d="m41.761,41.784c-0.269,5.459 -4.038,9.683 -8.417,9.435c-4.381,-0.249 -7.712,-4.876 -7.443,-10.335c0.271,-5.458 4.039,-9.682 8.419,-9.433c4.378,0.247 7.711,4.874 7.441,10.333l0,0z" id="svg_1283"/>
    </g>
    <g id="svg_1284">
     <path fill="#FFFFFF" d="m49.172,30.52c-0.34,1.86501 -1.798,3.165 -3.25699,2.90601c-1.45801,-0.26 -2.36502,-1.983 -2.02499,-3.847c0.33899,-1.86401 1.797,-3.165 3.25699,-2.905c1.45801,0.259 2.36499,1.98199 2.02499,3.84599z" id="svg_1285"/>
    </g>
    <g id="svg_1286">
     <path fill="#F72AB3" d="m66.91599,155.235c-2.263,0.649 -4.59799,8.241 -4.32602,10.44299c0.35602,2.90401 3.431,0.92201 5.095,0.40001c1.418,-0.44501 2.95001,0.22299 4.48203,0.34399c1.51498,0.12099 3.745,-1.369 4.96399,-0.507c1.39801,-2.31699 -3.53699,-6.409 -4.939,-8.00899c-0.74899,-0.854 -1.866,-2.744 -3.00401,-3.091c-0.961,-0.29201 -1.33499,0.25299 -2.272,0.42" id="svg_1287"/>
    </g>
   </g>
   <g id="svg_1288">
    <g id="svg_1289">
     <path fill="none" d="m65.34,155.56c1.75,-0.75 3.50201,-0.601 5.25201,-0.45" id="svg_1290"/>
    </g>
    <g id="svg_1291">
     <path fill="#C1272D" d="m65.34,156.81c1.715,-0.673 3.44901,-0.604 5.25201,-0.45c-0.052,-0.004 0.08899,-2.492 0,-2.5c-1.80301,-0.15401 -3.53702,-0.224 -5.25201,0.45c-0.29999,0.117 0.26599,2.395 0,2.5l0,0z" id="svg_1292"/>
    </g>
   </g>
  </g>
 </g>
</svg>