<svg xmlns="http://www.w3.org/2000/svg" xmlns:xlink="http://www.w3.org/1999/xlink" x="0px" y="0px" width="200px" height="500px" viewBox="0 0 200 500" enable-background="new 0 0 200 500" xml:space="preserve">
<g>
	<g>
		<g>
			<path fill="none" d="M324.517,154.84c-12.75,16.744-44.046,39.578-34.774,68.5c13.91,47.188,83.458,4.567,96.208,39.579
				c17.387,50.232-107.798,94.377-49.842,147.654"/>
		</g>
		<g>
			<path fill="#C1272D" d="M324.517,153.59c-12.556,16.221-30.784,29.417-35.654,50.394c-3.249,13.99,1.597,30.921,13.968,38.867
				c13.04,8.375,30.97,6.122,45.654,5.876c13.006-0.218,29.659-0.216,36.469,13.088c6.477,12.653-0.631,26.657-7.977,37.152
				c-8.923,12.749-20.361,23.604-30.84,35.035c-16.293,17.772-34.929,42.005-19.937,66.266c2.676,4.33,6.202,8.098,9.908,11.555
				c-0.405-0.378,0.426-2.104,0-2.5c-11.127-10.38-18.446-23.442-13.39-38.703c4.54-13.702,15.125-25.113,24.707-35.52
				c16.668-18.104,41.464-38.316,40.146-65.352c-0.698-14.328-11.17-21.502-24.447-23.054c-15.684-1.833-31.563,1.343-47.193-1.513
				c-18.131-3.313-30.775-19.948-27.068-38.698c4.121-20.842,23.351-34.5,35.654-50.394
				C324.927,155.561,324.121,154.102,324.517,153.59L324.517,153.59z"/>
		</g>
	</g>
	<g>
		<g>
			<ellipse fill="#E01E1E" cx="320.378" cy="75.805" rx="61.854" ry="75.805"/>
			<ellipse fill="#E01F1F" cx="320.167" cy="75.58" rx="61.538" ry="75.448"/>
			<ellipse fill="#E1201F" cx="319.956" cy="75.354" rx="61.222" ry="75.091"/>
			<ellipse fill="#E12120" cx="319.745" cy="75.128" rx="60.906" ry="74.734"/>
			<ellipse fill="#E12220" cx="319.533" cy="74.902" rx="60.59" ry="74.377"/>
			<ellipse fill="#E12321" cx="319.322" cy="74.676" rx="60.273" ry="74.021"/>
			<ellipse fill="#E22421" cx="319.111" cy="74.451" rx="59.957" ry="73.664"/>
			<ellipse fill="#E22522" cx="318.9" cy="74.225" rx="59.641" ry="73.307"/>
			<ellipse fill="#E22622" cx="318.689" cy="73.999" rx="59.325" ry="72.95"/>
			<ellipse fill="#E22723" cx="318.478" cy="73.773" rx="59.009" ry="72.594"/>
			<ellipse fill="#E32823" cx="318.267" cy="73.547" rx="58.692" ry="72.237"/>
			<ellipse fill="#E32924" cx="318.056" cy="73.322" rx="58.376" ry="71.879"/>
			<ellipse fill="#E32A24" cx="317.845" cy="73.096" rx="58.06" ry="71.523"/>
			<ellipse fill="#E32B25" cx="317.634" cy="72.87" rx="57.744" ry="71.166"/>
			<ellipse fill="#E42C25" cx="317.423" cy="72.645" rx="57.427" ry="70.809"/>
			<ellipse fill="#E42D26" cx="317.212" cy="72.418" rx="57.112" ry="70.453"/>
			<ellipse fill="#E42E26" cx="317" cy="72.193" rx="56.795" ry="70.096"/>
			<ellipse fill="#E42F27" cx="316.789" cy="71.967" rx="56.479" ry="69.739"/>
			<ellipse fill="#E53027" cx="316.578" cy="71.741" rx="56.163" ry="69.382"/>
			<ellipse fill="#E53128" cx="316.367" cy="71.516" rx="55.847" ry="69.025"/>
			<ellipse fill="#E53228" cx="316.156" cy="71.29" rx="55.531" ry="68.668"/>
			<ellipse fill="#E53329" cx="315.945" cy="71.064" rx="55.214" ry="68.312"/>
			<ellipse fill="#E63429" cx="315.734" cy="70.838" rx="54.898" ry="67.955"/>
			<ellipse fill="#E6352A" cx="315.523" cy="70.612" rx="54.582" ry="67.598"/>
			<ellipse fill="#E6362A" cx="315.312" cy="70.387" rx="54.266" ry="67.241"/>
			<ellipse fill="#E7372B" cx="315.101" cy="70.161" rx="53.949" ry="66.884"/>
			<ellipse fill="#E7382B" cx="314.89" cy="69.935" rx="53.633" ry="66.527"/>
			<ellipse fill="#E7392C" cx="314.678" cy="69.709" rx="53.317" ry="66.171"/>
			<ellipse fill="#E73A2C" cx="314.467" cy="69.483" rx="53.001" ry="65.814"/>
			<ellipse fill="#E83B2D" cx="314.256" cy="69.258" rx="52.685" ry="65.457"/>
			<ellipse fill="#E83C2D" cx="314.045" cy="69.032" rx="52.368" ry="65.101"/>
			<ellipse fill="#E83D2E" cx="313.834" cy="68.806" rx="52.052" ry="64.743"/>
			<ellipse fill="#E83E2E" cx="313.623" cy="68.58" rx="51.736" ry="64.387"/>
			<ellipse fill="#E93F2F" cx="313.412" cy="68.354" rx="51.42" ry="64.03"/>
			<ellipse fill="#E9402F" cx="313.201" cy="68.129" rx="51.104" ry="63.673"/>
			<ellipse fill="#E94030" cx="312.99" cy="67.903" rx="50.788" ry="63.316"/>
			<ellipse fill="#E94130" cx="312.779" cy="67.677" rx="50.471" ry="62.959"/>
			<ellipse fill="#EA4231" cx="312.568" cy="67.452" rx="50.155" ry="62.603"/>
			<ellipse fill="#EA4331" cx="312.356" cy="67.226" rx="49.839" ry="62.246"/>
			<ellipse fill="#EA4432" cx="312.145" cy="67" rx="49.523" ry="61.889"/>
			<ellipse fill="#EA4532" cx="311.934" cy="66.774" rx="49.207" ry="61.532"/>
			<ellipse fill="#EB4633" cx="311.723" cy="66.548" rx="48.89" ry="61.175"/>
			<ellipse fill="#EB4733" cx="311.512" cy="66.323" rx="48.574" ry="60.818"/>
			<ellipse fill="#EB4834" cx="311.301" cy="66.097" rx="48.258" ry="60.462"/>
			<ellipse fill="#EB4934" cx="311.09" cy="65.871" rx="47.942" ry="60.105"/>
			<ellipse fill="#EC4A35" cx="310.879" cy="65.645" rx="47.625" ry="59.748"/>
			<ellipse fill="#EC4B35" cx="310.668" cy="65.419" rx="47.309" ry="59.391"/>
			<ellipse fill="#EC4C36" cx="310.457" cy="65.194" rx="46.993" ry="59.034"/>
			<ellipse fill="#ED4D36" cx="310.246" cy="64.968" rx="46.677" ry="58.678"/>
			<ellipse fill="#ED4E37" cx="310.034" cy="64.742" rx="46.361" ry="58.321"/>
			<ellipse fill="#ED4F37" cx="309.823" cy="64.516" rx="46.044" ry="57.964"/>
			<ellipse fill="#ED5038" cx="309.612" cy="64.291" rx="45.728" ry="57.607"/>
			<ellipse fill="#EE5138" cx="309.401" cy="64.065" rx="45.412" ry="57.25"/>
			<ellipse fill="#EE5239" cx="309.19" cy="63.839" rx="45.096" ry="56.894"/>
			<ellipse fill="#EE5339" cx="308.979" cy="63.613" rx="44.78" ry="56.537"/>
			<ellipse fill="#EE543A" cx="308.768" cy="63.387" rx="44.464" ry="56.18"/>
			<ellipse fill="#EF553A" cx="308.557" cy="63.162" rx="44.147" ry="55.823"/>
			<ellipse fill="#EF563B" cx="308.346" cy="62.936" rx="43.831" ry="55.466"/>
			<ellipse fill="#EF573B" cx="308.135" cy="62.71" rx="43.515" ry="55.11"/>
			<ellipse fill="#EF583C" cx="307.923" cy="62.484" rx="43.199" ry="54.752"/>
			<ellipse fill="#F0593C" cx="307.712" cy="62.259" rx="42.882" ry="54.396"/>
			<ellipse fill="#F05A3D" cx="307.501" cy="62.033" rx="42.566" ry="54.039"/>
			<ellipse fill="#F05B3D" cx="307.29" cy="61.807" rx="42.25" ry="53.682"/>
			<ellipse fill="#F05C3E" cx="307.079" cy="61.581" rx="41.934" ry="53.326"/>
			<ellipse fill="#F15D3E" cx="306.868" cy="61.355" rx="41.617" ry="52.969"/>
			<ellipse fill="#F15E3F" cx="306.657" cy="61.13" rx="41.302" ry="52.612"/>
			<ellipse fill="#F15F3F" cx="306.446" cy="60.904" rx="40.985" ry="52.255"/>
			<ellipse fill="#F16040" cx="306.235" cy="60.678" rx="40.669" ry="51.898"/>
			<ellipse fill="#F26140" cx="306.024" cy="60.452" rx="40.353" ry="51.542"/>
			<ellipse fill="#F26241" cx="305.813" cy="60.227" rx="40.037" ry="51.185"/>
			
				<ellipse transform="matrix(1 0.0014 -0.0014 1 0.0825 -0.4183)" fill="#F26341" cx="305.671" cy="60.027" rx="39.777" ry="50.848"/>
			<path fill="#F26441" d="M345.046,59.937c-0.075,27.896-17.828,50.463-39.652,50.402c-21.825-0.061-39.457-22.725-39.382-50.621
				c0.075-27.897,17.829-50.463,39.654-50.403C327.49,9.376,345.122,32.04,345.046,59.937z"/>
			<path fill="#F26541" d="M344.645,59.792c-0.112,27.711-17.78,50.102-39.46,50.012c-21.682-0.091-39.167-22.629-39.055-50.339
				c0.112-27.712,17.78-50.103,39.461-50.012C327.272,9.543,344.757,32.081,344.645,59.792z"/>
			<path fill="#F26641" d="M344.244,59.647c-0.15,27.525-17.731,49.741-39.269,49.62s-38.876-22.533-38.727-50.058
				c0.15-27.526,17.731-49.741,39.27-49.621C327.055,9.71,344.394,32.122,344.244,59.647z"/>
			<path fill="#F36741" d="M343.842,59.502c-0.188,27.339-17.683,49.38-39.077,49.229c-21.395-0.151-38.587-22.437-38.399-49.776
				c0.188-27.34,17.684-49.381,39.078-49.23S344.03,32.163,343.842,59.502z"/>
			<path fill="#F36841" d="M343.441,59.357c-0.225,27.153-17.634,49.02-38.885,48.838c-21.251-0.181-38.297-22.341-38.072-49.494
				c0.225-27.154,17.635-49.02,38.886-48.838C326.621,10.044,343.666,32.204,343.441,59.357z"/>
			<path fill="#F36941" d="M343.04,59.213c-0.262,26.967-17.586,48.658-38.693,48.447c-21.108-0.211-38.007-22.245-37.744-49.212
				C266.864,31.479,284.188,9.789,305.296,10C326.404,10.211,343.302,32.245,343.04,59.213z"/>
			<path fill="#F36A41" d="M342.638,59.068c-0.3,26.782-17.538,48.298-38.501,48.056c-20.965-0.241-37.717-22.148-37.417-48.93
				c0.3-26.783,17.538-48.298,38.502-48.057C326.187,10.378,342.938,32.285,342.638,59.068z"/>
			<path fill="#F36B41" d="M342.237,58.923c-0.337,26.596-17.489,47.937-38.31,47.665c-20.821-0.272-37.427-22.053-37.089-48.649
				c0.337-26.597,17.49-47.937,38.311-47.666C325.969,10.546,342.574,32.326,342.237,58.923z"/>
			<path fill="#F36C41" d="M341.835,58.778c-0.375,26.41-17.441,47.576-38.118,47.274s-37.136-21.957-36.761-48.367
				c0.375-26.411,17.441-47.576,38.119-47.274C325.752,10.713,342.21,32.367,341.835,58.778z"/>
			<path fill="#F36D41" d="M341.434,58.634c-0.412,26.224-17.392,47.214-37.926,46.883c-20.534-0.332-36.846-21.861-36.434-48.085
				c0.412-26.225,17.393-47.215,37.927-46.883C325.535,10.88,341.847,32.408,341.434,58.634z"/>
			<path fill="#F36E41" d="M341.033,58.489c-0.45,26.039-17.344,46.854-37.734,46.492s-36.556-21.765-36.106-47.803
				c0.45-26.04,17.344-46.854,37.735-46.492C325.317,11.047,341.482,32.449,341.033,58.489z"/>
			<path fill="#F46F41" d="M340.631,58.344c-0.487,25.853-17.295,46.493-37.542,46.101c-20.248-0.393-36.267-21.669-35.779-47.522
				c0.487-25.854,17.296-46.493,37.543-46.101C325.1,11.214,341.119,32.49,340.631,58.344z"/>
			<path fill="#F47041" d="M340.23,58.199c-0.524,25.667-17.247,46.132-37.351,45.709c-20.104-0.422-35.977-21.573-35.452-47.24
				c0.525-25.668,17.248-46.132,37.352-45.71C324.883,11.381,340.755,32.531,340.23,58.199z"/>
			<path fill="#F47141" d="M339.829,58.054c-0.562,25.481-17.199,45.771-37.159,45.319c-19.961-0.453-35.687-21.477-35.124-46.958
				c0.562-25.482,17.199-45.772,37.16-45.319S340.391,32.572,339.829,58.054z"/>
			<path fill="#F47241" d="M339.427,57.91c-0.6,25.295-17.15,45.41-36.967,44.927c-19.817-0.483-35.396-21.381-34.796-46.676
				c0.599-25.296,17.15-45.411,36.968-44.928C324.449,11.716,340.027,32.613,339.427,57.91z"/>
			<path fill="#F47341" d="M339.026,57.765c-0.637,25.109-17.102,45.049-36.775,44.537c-19.673-0.513-35.106-21.285-34.469-46.395
				c0.637-25.11,17.103-45.05,36.776-44.537C324.231,11.883,339.663,32.654,339.026,57.765z"/>
			<path fill="#F47441" d="M338.625,57.62c-0.674,24.924-17.053,44.689-36.583,44.146c-19.53-0.543-34.816-21.189-34.141-46.113
				c0.674-24.924,17.054-44.689,36.584-44.146C324.014,12.05,339.299,32.695,338.625,57.62z"/>
			<path fill="#F47541" d="M338.223,57.475c-0.712,24.738-17.005,44.328-36.392,43.754c-19.387-0.574-34.526-21.093-33.814-45.831
				c0.712-24.739,17.006-44.328,36.393-43.755S338.936,32.736,338.223,57.475z"/>
			<path fill="#F47641" d="M337.822,57.33c-0.75,24.552-16.957,43.967-36.2,43.363c-19.244-0.604-34.236-20.997-33.486-45.549
				c0.75-24.553,16.957-43.967,36.201-43.363C323.58,12.384,338.572,32.777,337.822,57.33z"/>
			<path fill="#F57741" d="M337.42,57.186c-0.787,24.366-16.908,43.606-36.008,42.972c-19.1-0.634-33.946-20.901-33.159-45.268
				c0.787-24.367,16.909-43.606,36.009-42.973C323.362,12.551,338.208,32.818,337.42,57.186z"/>
			<path fill="#F57841" d="M337.019,57.041c-0.824,24.181-16.86,43.245-35.816,42.581c-18.957-0.664-33.656-20.805-32.832-44.985
				c0.825-24.182,16.861-43.246,35.817-42.582C323.145,12.718,337.844,32.859,337.019,57.041z"/>
			<path fill="#F57941" d="M336.618,56.896c-0.862,23.995-16.812,42.884-35.625,42.19c-18.813-0.694-33.366-20.709-32.503-44.704
				c0.862-23.996,16.812-42.884,35.625-42.19C322.928,12.886,337.48,32.9,336.618,56.896z"/>
			<path fill="#F57A41" d="M336.216,56.751c-0.899,23.809-16.763,42.523-35.433,41.799c-18.67-0.724-33.076-20.613-32.176-44.422
				c0.899-23.81,16.764-42.524,35.433-41.799C322.711,13.053,337.116,32.941,336.216,56.751z"/>
			<path fill="#F57B41" d="M335.815,56.606c-0.937,23.623-16.714,42.163-35.241,41.408c-18.526-0.755-32.786-20.517-31.849-44.141
				s16.715-42.163,35.242-41.408S336.752,32.982,335.815,56.606z"/>
			<path fill="#F57C41" d="M335.414,56.461c-0.974,23.437-16.666,41.801-35.049,41.017s-32.496-20.421-31.521-43.858
				c0.974-23.438,16.667-41.802,35.05-41.017C322.276,13.387,336.388,33.023,335.414,56.461z"/>
			<path fill="#F57D41" d="M335.013,56.316c-1.012,23.251-16.618,41.44-34.857,40.626c-18.24-0.815-32.206-20.325-31.193-43.577
				c1.012-23.252,16.618-41.44,34.858-40.626C322.059,13.554,336.024,33.064,335.013,56.316z"/>
			<path fill="#F57E41" d="M334.611,56.171c-1.05,23.066-16.57,41.08-34.666,40.235c-18.096-0.845-31.916-20.229-30.866-43.295
				c1.049-23.066,16.57-41.08,34.667-40.235C321.842,13.721,335.661,33.105,334.611,56.171z"/>
			<path fill="#F67F41" d="M334.21,56.027c-1.087,22.88-16.521,40.719-34.474,39.844c-17.953-0.875-31.626-20.133-30.539-43.013
				c1.087-22.881,16.521-40.719,34.474-39.844S335.297,33.146,334.21,56.027z"/>
			<path fill="#F68041" d="M333.809,55.882c-1.125,22.694-16.473,40.358-34.282,39.453s-31.335-20.037-30.21-42.731
				c1.124-22.695,16.473-40.358,34.282-39.453S334.933,33.187,333.809,55.882z"/>
			<path fill="#F68141" d="M333.407,55.737c-1.162,22.508-16.425,39.997-34.09,39.062c-17.666-0.936-31.045-19.941-29.883-42.45
				c1.162-22.509,16.425-39.998,34.091-39.062C321.19,14.223,334.569,33.228,333.407,55.737z"/>
			<path fill="#F68241" d="M333.006,55.592c-1.199,22.323-16.376,39.636-33.898,38.67s-30.755-19.845-29.556-42.168
				c1.199-22.323,16.376-39.636,33.899-38.67C320.973,14.39,334.205,33.269,333.006,55.592z"/>
			<path fill="#F68341" d="M332.604,55.448c-1.237,22.137-16.328,39.275-33.707,38.279c-17.379-0.996-30.465-19.75-29.228-41.886
				c1.236-22.138,16.328-39.275,33.707-38.28C320.755,14.557,333.841,33.31,332.604,55.448z"/>
			<path fill="#F68441" d="M332.203,55.303c-1.274,21.951-16.279,38.915-33.515,37.888c-17.236-1.026-30.175-19.653-28.901-41.604
				s16.28-38.915,33.516-37.888C320.539,14.724,333.478,33.351,332.203,55.303z"/>
			<path fill="#F68541" d="M331.802,55.158c-1.312,21.765-16.231,38.554-33.323,37.498c-17.092-1.057-29.885-19.558-28.573-41.323
				c1.312-21.766,16.231-38.554,33.323-37.498S333.113,33.392,331.802,55.158z"/>
			<path fill="#F68641" d="M331.4,55.013c-1.349,21.579-16.183,38.192-33.131,37.106c-16.949-1.087-29.595-19.462-28.246-41.041
				c1.349-21.58,16.183-38.193,33.131-37.107C320.104,15.058,332.75,33.433,331.4,55.013z"/>
			<path fill="#F78741" d="M330.999,54.868c-1.387,21.394-16.134,37.832-32.939,36.715s-29.305-19.366-27.918-40.759
				c1.387-21.394,16.134-37.832,32.94-36.715C319.887,15.226,332.386,33.474,330.999,54.868z"/>
			<path fill="#F78841" d="M330.598,54.724c-1.424,21.208-16.086,37.471-32.748,36.324c-16.662-1.147-29.015-19.27-27.59-40.478
				c1.424-21.208,16.086-37.471,32.748-36.325C319.669,15.393,332.022,33.515,330.598,54.724z"/>
			<path fill="#F78941" d="M330.196,54.579c-1.462,21.022-16.037,37.11-32.556,35.933c-16.519-1.177-28.725-19.173-27.263-40.196
				c1.461-21.022,16.037-37.11,32.556-35.933C319.452,15.56,331.658,33.556,330.196,54.579z"/>
			<path fill="#F78A41" d="M329.795,54.434c-1.499,20.836-15.989,36.75-32.364,35.542c-16.375-1.208-28.435-19.078-26.936-39.914
				c1.499-20.837,15.989-36.75,32.364-35.542S331.294,33.597,329.795,54.434z"/>
			<path fill="#F78B41" d="M329.394,54.289c-1.537,20.65-15.94,36.388-32.172,35.151c-16.232-1.237-28.145-18.981-26.608-39.632
				c1.536-20.651,15.94-36.388,32.172-35.151C319.018,15.894,330.93,33.638,329.394,54.289z"/>
			<path fill="#F78C41" d="M328.992,54.144c-1.574,20.465-15.892,36.027-31.98,34.76c-16.088-1.268-27.855-18.886-26.28-39.351
				c1.574-20.465,15.892-36.027,31.98-34.76C318.8,16.061,330.566,33.679,328.992,54.144z"/>
			<path fill="#F78D41" d="M328.591,54c-1.612,20.278-15.844,35.667-31.789,34.369S269.238,69.579,270.85,49.3
				c1.611-20.279,15.844-35.667,31.789-34.369C318.583,16.228,330.203,33.72,328.591,54z"/>
			<path fill="#F78E41" d="M328.189,53.854c-1.649,20.093-15.795,35.306-31.597,33.978c-15.801-1.328-27.274-18.694-25.625-38.787
				c1.649-20.093,15.795-35.306,31.597-33.978C318.366,16.396,329.838,33.761,328.189,53.854z"/>
			<path fill="#F88F41" d="M327.788,53.709c-1.687,19.907-15.747,34.945-31.405,33.587c-15.658-1.358-26.985-18.598-25.297-38.505
				c1.686-19.908,15.747-34.945,31.405-33.587C318.149,16.563,329.475,33.802,327.788,53.709z"/>
			<path fill="#F89041" d="M327.387,53.565c-1.724,19.721-15.698,34.583-31.213,33.196c-15.515-1.389-26.695-18.502-24.97-38.224
				c1.724-19.722,15.699-34.583,31.213-33.196C317.932,16.729,329.111,33.843,327.387,53.565z"/>
			<path fill="#F89141" d="M326.985,53.42c-1.761,19.536-15.65,34.223-31.021,32.805c-15.372-1.418-26.405-18.406-24.643-37.941
				c1.761-19.536,15.65-34.223,31.021-32.805C317.714,16.896,328.747,33.884,326.985,53.42z"/>
			<path fill="#F89241" d="M326.584,53.275c-1.799,19.35-15.602,33.862-30.829,32.414c-15.228-1.449-26.115-18.31-24.315-37.66
				c1.798-19.35,15.602-33.862,30.83-32.414C317.497,17.064,328.383,33.925,326.584,53.275z"/>
			<path fill="#F89341" d="M326.183,53.13c-1.836,19.164-15.553,33.501-30.637,32.022c-15.084-1.479-25.825-18.214-23.988-37.378
				c1.836-19.165,15.554-33.501,30.638-32.022C317.28,17.231,328.019,33.966,326.183,53.13z"/>
			<path fill="#F89441" d="M325.781,52.985c-1.874,18.979-15.505,33.141-30.446,31.632c-14.941-1.509-25.534-18.118-23.66-37.096
				c1.874-18.979,15.505-33.141,30.446-31.632S327.655,34.007,325.781,52.985z"/>
			<path fill="#F89541" d="M325.38,52.841c-1.911,18.792-15.457,32.779-30.254,31.24c-14.797-1.54-25.244-18.022-23.332-36.814
				c1.911-18.793,15.457-32.779,30.254-31.24S327.292,34.048,325.38,52.841z"/>
			<path fill="#F89641" d="M324.979,52.696c-1.949,18.607-15.408,32.418-30.062,30.85c-14.654-1.57-24.954-17.926-23.005-36.533
				c1.949-18.607,15.408-32.418,30.063-30.85C316.628,17.732,326.928,34.089,324.979,52.696z"/>
			<path fill="#F99642" d="M324.577,52.551c-1.986,18.42-15.359,32.058-29.87,30.458s-24.665-17.83-22.677-36.251
				c1.986-18.421,15.36-32.058,29.871-30.458C316.411,17.899,326.563,34.129,324.577,52.551z"/>
			<path fill="#F99742" d="M324.176,52.406c-2.024,18.235-15.311,31.697-29.678,30.067c-14.368-1.63-24.375-17.734-22.35-35.969
				c2.024-18.235,15.312-31.697,29.679-30.067C316.194,18.066,326.2,34.17,324.176,52.406z"/>
			<path fill="#F99842" d="M323.774,52.262c-2.061,18.049-15.263,31.335-29.486,29.676c-14.224-1.66-24.084-17.638-22.022-35.688
				c2.061-18.049,15.263-31.335,29.487-29.676C315.977,18.234,325.836,34.211,323.774,52.262z"/>
			<path fill="#F99942" d="M323.373,52.117c-2.099,17.863-15.214,30.975-29.295,29.285c-14.081-1.69-23.794-17.542-21.694-35.406
				c2.098-17.864,15.214-30.975,29.295-29.285S325.472,34.252,323.373,52.117z"/>
			<path fill="#F99A42" d="M322.972,51.972c-2.136,17.678-15.166,30.614-29.103,28.894s-23.504-17.446-21.367-35.124
				c2.136-17.678,15.167-30.614,29.104-28.894C315.542,18.568,325.108,34.293,322.972,51.972z"/>
			<path fill="#F99B42" d="M322.57,51.827c-2.174,17.492-15.118,30.253-28.911,28.503c-13.793-1.751-23.214-17.35-21.04-34.842
				c2.173-17.492,15.118-30.253,28.912-28.503C315.325,18.735,324.744,34.334,322.57,51.827z"/>
			<path fill="#F99C42" d="M322.169,51.682c-2.211,17.306-15.069,29.893-28.719,28.112c-13.65-1.781-22.924-17.254-20.712-34.56
				c2.211-17.307,15.069-29.893,28.72-28.112C315.107,18.902,324.38,34.375,322.169,51.682z"/>
			<path fill="#F99D42" d="M321.768,51.538c-2.249,17.12-15.021,29.531-28.527,27.721c-13.507-1.811-22.634-17.158-20.385-34.279
				c2.249-17.121,15.021-29.531,28.528-27.721C314.89,19.069,324.017,34.417,321.768,51.538z"/>
			<path fill="#FA9E42" d="M321.366,51.393c-2.286,16.935-14.972,29.17-28.335,27.33c-13.364-1.841-22.344-17.062-20.057-33.997
				c2.286-16.935,14.973-29.17,28.336-27.33C314.673,19.236,323.653,34.458,321.366,51.393z"/>
			<path fill="#FA9F42" d="M320.965,51.248c-2.323,16.749-14.924,28.81-28.144,26.939c-13.22-1.872-22.054-16.966-19.729-33.715
				c2.323-16.749,14.924-28.809,28.144-26.938C314.456,19.404,323.289,34.499,320.965,51.248z"/>
			<path fill="#FAA042" d="M320.563,51.103c-2.361,16.563-14.875,28.449-27.952,26.547s-21.764-16.87-19.402-33.433
				c2.361-16.563,14.876-28.449,27.953-26.547C314.239,19.571,322.925,34.54,320.563,51.103z"/>
			<path fill="#FAA142" d="M320.162,50.958c-2.398,16.377-14.827,28.088-27.76,26.157c-12.933-1.932-21.474-16.774-19.074-33.151
				c2.398-16.377,14.828-28.088,27.761-26.157S322.561,34.581,320.162,50.958z"/>
			<path fill="#FAA242" d="M319.761,50.813c-2.436,16.191-14.779,27.727-27.568,25.765c-12.79-1.962-21.184-16.678-18.747-32.87
				c2.436-16.191,14.779-27.727,27.569-25.765C313.804,19.905,322.197,34.622,319.761,50.813z"/>
			<path fill="#FAA342" d="M319.359,50.668c-2.473,16.005-14.73,27.366-27.376,25.375c-12.646-1.992-20.894-16.583-18.419-32.588
				c2.473-16.006,14.731-27.366,27.377-25.375C313.587,20.072,321.833,34.663,319.359,50.668z"/>
			<path fill="#FAA442" d="M318.958,50.523c-2.511,15.82-14.682,27.005-27.185,24.983s-20.604-16.486-18.092-32.306
				c2.511-15.82,14.682-27.005,27.185-24.983C313.37,20.239,321.469,34.704,318.958,50.523z"/>
			<path fill="#FAA542" d="M318.557,50.379c-2.548,15.634-14.633,26.644-26.993,24.592c-12.36-2.053-20.313-16.39-17.764-32.024
				c2.548-15.634,14.634-26.644,26.993-24.592S321.105,34.744,318.557,50.379z"/>
			<path fill="#FBA642" d="M318.155,50.234c-2.586,15.448-14.585,26.284-26.801,24.201c-12.216-2.083-20.023-16.294-17.437-31.743
				c2.586-15.448,14.585-26.283,26.802-24.201C312.935,20.574,320.742,34.785,318.155,50.234z"/>
			<path fill="#FBA742" d="M317.754,50.089c-2.623,15.262-14.537,25.922-26.609,23.81c-12.073-2.113-19.733-16.198-17.109-31.461
				c2.623-15.263,14.537-25.922,26.61-23.81C312.718,20.741,320.378,34.826,317.754,50.089z"/>
			<path fill="#FBA842" d="M317.353,49.944c-2.661,15.077-14.488,25.562-26.417,23.419c-11.929-2.144-19.443-16.103-16.781-31.179
				c2.66-15.077,14.488-25.562,26.417-23.419C312.5,20.908,320.014,34.867,317.353,49.944z"/>
			<path fill="#FBA942" d="M316.951,49.799C314.253,64.69,302.511,75,290.726,72.828c-11.786-2.173-19.153-16.006-16.454-30.897
				c2.698-14.891,14.44-25.201,26.226-23.028C312.284,21.075,319.65,34.908,316.951,49.799z"/>
			<path fill="#FBAA42" d="M316.55,49.655c-2.736,14.705-14.392,24.84-26.034,22.637c-11.643-2.204-18.863-15.911-16.126-30.616
				c2.735-14.705,14.392-24.84,26.034-22.637C312.066,21.242,319.286,34.949,316.55,49.655z"/>
			<path fill="#FBAB42" d="M316.148,49.51c-2.773,14.519-14.343,24.479-25.842,22.246c-11.499-2.234-18.573-15.814-15.799-30.334
				c2.773-14.519,14.343-24.479,25.842-22.246S318.922,34.99,316.148,49.51z"/>
			<path fill="#FBAC42" d="M315.747,49.365c-2.811,14.333-14.294,24.118-25.65,21.855c-11.356-2.264-18.283-15.719-15.472-30.052
				c2.811-14.333,14.295-24.118,25.651-21.855C311.632,21.576,318.559,35.031,315.747,49.365z"/>
			<path fill="#FBAD42" d="M315.346,49.22c-2.848,14.147-14.246,23.757-25.458,21.464c-11.212-2.294-17.993-15.623-15.144-29.771
				c2.848-14.147,14.247-23.757,25.459-21.463C311.415,21.744,318.194,35.072,315.346,49.22z"/>
			<path fill="#FCAE42" d="M314.944,49.076c-2.885,13.961-14.198,23.396-25.267,21.073c-11.069-2.324-17.703-15.527-14.816-29.489
				c2.885-13.962,14.198-23.396,25.267-21.073C311.197,21.911,317.831,35.113,314.944,49.076z"/>
			<path fill="#FCAF42" d="M314.543,48.931c-2.923,13.776-14.149,23.036-25.075,20.682c-10.925-2.354-17.413-15.431-14.489-29.207
				c2.923-13.776,14.15-23.036,25.075-20.682C310.98,22.078,317.467,35.154,314.543,48.931z"/>
			<path fill="#FCB042" d="M314.142,48.786c-2.961,13.59-14.102,22.675-24.883,20.291c-10.782-2.385-17.123-15.335-14.161-28.925
				c2.96-13.59,14.101-22.674,24.883-20.291C310.763,22.245,317.103,35.195,314.142,48.786z"/>
			<path fill="#FCB142" d="M313.741,48.641c-2.999,13.404-14.053,22.313-24.691,19.899c-10.639-2.415-16.833-15.239-13.833-28.643
				c2.998-13.405,14.053-22.313,24.691-19.899C310.545,22.412,316.739,35.236,313.741,48.641z"/>
			<path fill="#FCB242" d="M313.339,48.496c-3.036,13.219-14.004,21.953-24.5,19.509c-10.495-2.445-16.543-15.143-13.506-28.362
				c3.035-13.219,14.004-21.952,24.5-19.508C310.328,22.579,316.375,35.277,313.339,48.496z"/>
			<path fill="#FCB342" d="M312.938,48.352c-3.073,13.032-13.956,21.592-24.308,19.117c-10.352-2.475-16.253-15.047-13.179-28.08
				c3.073-13.033,13.956-21.592,24.308-19.117C310.111,22.746,316.011,35.318,312.938,48.352z"/>
			<path fill="#FCB442" d="M312.537,48.207c-3.111,12.847-13.908,21.231-24.116,18.727c-10.208-2.505-15.962-14.951-12.851-27.798
				c3.11-12.847,13.907-21.23,24.116-18.726C309.894,22.914,315.647,35.359,312.537,48.207z"/>
			<path fill="#FCB542" d="M312.135,48.062c-3.148,12.661-13.859,20.87-23.924,18.335c-10.065-2.536-15.672-14.854-12.523-27.516
				c3.148-12.661,13.859-20.87,23.924-18.335S315.284,35.4,312.135,48.062z"/>
			<path fill="#FDB642" d="M311.734,47.917c-3.186,12.475-13.811,20.509-23.732,17.944c-9.921-2.566-15.383-14.759-12.196-27.234
				c3.185-12.476,13.811-20.509,23.732-17.944S314.919,35.441,311.734,47.917z"/>
			<path fill="#FDB742" d="M311.333,47.772c-3.223,12.29-13.763,20.148-23.541,17.553c-9.778-2.596-15.093-14.663-11.868-26.953
				c3.222-12.29,13.762-20.148,23.541-17.553C309.242,23.415,314.556,35.482,311.333,47.772z"/>
			<path fill="#FDB842" d="M310.931,47.627c-3.261,12.104-13.714,19.787-23.349,17.162c-9.635-2.626-14.803-14.567-11.541-26.671
				c3.26-12.104,13.714-19.787,23.349-17.162C309.025,23.582,314.192,35.523,310.931,47.627z"/>
			<path fill="#FDB942" d="M310.53,47.482c-3.298,11.918-13.666,19.427-23.157,16.771c-9.492-2.656-14.513-14.471-11.213-26.389
				c3.297-11.918,13.666-19.426,23.157-16.771C308.808,23.749,313.828,35.564,310.53,47.482z"/>
			<path fill="#FDBA42" d="M310.128,47.337c-3.335,11.732-13.617,19.066-22.965,16.38c-9.348-2.687-14.222-14.375-10.886-26.107
				c3.335-11.732,13.618-19.065,22.965-16.38S313.464,35.605,310.128,47.337z"/>
			<path fill="#FDBB42" d="M309.727,47.193c-3.373,11.546-13.569,18.705-22.773,15.989c-9.204-2.716-13.932-14.279-10.558-25.826
				c3.373-11.546,13.569-18.704,22.773-15.988C308.373,24.083,313.1,35.646,309.727,47.193z"/>
			<path fill="#FDBC42" d="M309.326,47.048c-3.411,11.36-13.521,18.344-22.582,15.598c-9.061-2.747-13.642-14.183-10.23-25.544
				c3.41-11.36,13.521-18.344,22.582-15.598S312.736,35.687,309.326,47.048z"/>
			<path fill="#FDBD42" d="M308.924,46.903c-3.448,11.174-13.472,17.983-22.39,15.207c-8.917-2.777-13.352-14.087-9.903-25.262
				c3.448-11.175,13.472-17.983,22.39-15.207C307.939,24.417,312.373,35.728,308.924,46.903z"/>
			<path fill="#FEBE42" d="M308.523,46.758c-3.485,10.989-13.424,17.622-22.198,14.816c-8.774-2.807-13.063-13.991-9.576-24.98
				c3.485-10.989,13.424-17.622,22.198-14.815C307.722,24.585,312.009,35.769,308.523,46.758z"/>
			<path fill="#FEBF42" d="M308.122,46.613c-3.523,10.803-13.375,17.262-22.006,14.425c-8.631-2.837-12.772-13.895-9.248-24.698
				c3.522-10.803,13.375-17.261,22.006-14.424C307.504,24.752,311.645,35.81,308.122,46.613z"/>
			<path fill="#FEC042" d="M307.72,46.469c-3.561,10.617-13.327,16.9-21.814,14.034c-8.488-2.868-12.482-13.799-8.921-24.417
				c3.56-10.617,13.327-16.9,21.814-14.033S311.281,35.851,307.72,46.469z"/>
			<path fill="#FEC142" d="M307.319,46.324c-3.598,10.432-13.278,16.54-21.623,13.643c-8.344-2.897-12.192-13.703-8.593-24.135
				c3.597-10.432,13.278-16.539,21.623-13.642C307.07,25.086,310.917,35.892,307.319,46.324z"/>
			<path fill="#FEC242" d="M306.917,46.179c-3.635,10.246-13.23,16.178-21.431,13.251c-8.2-2.928-11.902-13.607-8.265-23.854
				c3.635-10.246,13.23-16.178,21.431-13.251C306.853,25.253,310.553,35.933,306.917,46.179z"/>
			<path fill="#FEC342" d="M306.516,46.034c-3.673,10.06-13.182,15.818-21.239,12.86c-8.057-2.958-11.612-13.511-7.938-23.571
				c3.672-10.06,13.182-15.817,21.239-12.86C306.635,25.42,310.189,35.974,306.516,46.034z"/>
			<path fill="#FEC442" d="M306.115,45.89c-3.71,9.874-13.133,15.457-21.047,12.469c-7.914-2.988-11.322-13.415-7.61-23.29
				c3.71-9.875,13.133-15.457,21.047-12.469S309.825,36.015,306.115,45.89z"/>
			<path fill="#FEC542" d="M305.713,45.745c-3.748,9.688-13.085,15.096-20.855,12.078c-7.771-3.018-11.032-13.319-7.283-23.008
				c3.747-9.688,13.084-15.095,20.855-12.078C306.201,25.755,309.461,36.056,305.713,45.745z"/>
			<path fill="#FFC642" d="M305.312,45.6c-3.785,9.502-13.037,14.735-20.663,11.688c-7.627-3.049-10.742-13.223-6.956-22.726
				c3.785-9.502,13.037-14.735,20.664-11.687S309.098,36.097,305.312,45.6z"/>
			<path fill="#FFC742" d="M304.911,45.455c-3.823,9.316-12.988,14.374-20.472,11.296c-7.483-3.079-10.452-13.127-6.627-22.444
				c3.822-9.316,12.988-14.374,20.472-11.295C305.767,26.089,308.734,36.138,304.911,45.455z"/>
			<path fill="#FFC842" d="M304.509,45.31c-3.86,9.131-12.939,14.013-20.28,10.905c-7.34-3.109-10.162-13.031-6.3-22.163
				c3.859-9.131,12.939-14.013,20.279-10.905C305.549,26.256,308.37,36.179,304.509,45.31z"/>
			<path fill="#FFC942" d="M304.108,45.166c-3.897,8.945-12.891,13.652-20.088,10.514c-7.197-3.139-9.872-12.935-5.973-21.881
				c3.897-8.945,12.891-13.652,20.088-10.513C305.332,26.423,308.006,36.22,304.108,45.166z"/>
			
				<ellipse transform="matrix(0.9122 0.4098 -0.4098 0.9122 41.6575 -115.7888)" fill="#FFCA42" cx="290.936" cy="39.282" rx="14" ry="17.388"/>
			
				<ellipse transform="matrix(0.9126 0.4089 -0.4089 0.9126 41.4887 -115.5184)" fill="#FFCA43" cx="290.923" cy="39.276" rx="13.966" ry="17.345"/>
			
				<ellipse transform="matrix(0.913 0.4079 -0.4079 0.913 41.3144 -115.2385)" fill="#FFCB44" cx="290.91" cy="39.27" rx="13.931" ry="17.301"/>
			
				<ellipse transform="matrix(0.9135 0.4069 -0.4069 0.9135 41.1446 -114.965)" fill="#FFCB45" cx="290.897" cy="39.263" rx="13.896" ry="17.259"/>
			
				<ellipse transform="matrix(0.9139 0.4059 -0.4059 0.9139 40.9742 -114.6901)" fill="#FFCB46" cx="290.884" cy="39.257" rx="13.861" ry="17.215"/>
			
				<ellipse transform="matrix(0.9144 0.4049 -0.4049 0.9144 40.8007 -114.4096)" fill="#FFCB47" cx="290.871" cy="39.25" rx="13.826" ry="17.172"/>
			
				<ellipse transform="matrix(0.9148 0.4039 -0.4039 0.9148 40.6269 -114.1275)" fill="#FFCC48" cx="290.858" cy="39.244" rx="13.792" ry="17.129"/>
			<path fill="#FFCC49" d="M303.437,44.78c-3.799,8.637-12.517,13.158-19.471,10.098c-6.954-3.062-9.512-12.544-5.712-21.182
				c3.799-8.637,12.517-13.157,19.471-10.097C304.679,26.659,307.236,36.143,303.437,44.78z"/>
			<path fill="#FFCC4A" d="M303.398,44.746c-3.78,8.62-12.47,13.139-19.41,10.094c-6.94-3.046-9.502-12.502-5.721-21.123
				c3.78-8.62,12.47-13.138,19.41-10.093C304.617,26.669,307.178,36.126,303.398,44.746z"/>
			<path fill="#FFCD4B" d="M303.359,44.711c-3.76,8.602-12.423,13.12-19.349,10.09c-6.926-3.03-9.493-12.46-5.731-21.063
				c3.76-8.603,12.424-13.119,19.35-10.09S307.121,36.109,303.359,44.711z"/>
			<path fill="#FFCD4C" d="M303.321,44.677c-3.741,8.584-12.377,13.101-19.289,10.086c-6.912-3.015-9.482-12.418-5.74-21.003
				c3.741-8.585,12.377-13.1,19.289-10.086C304.493,26.688,307.063,36.092,303.321,44.677z"/>
			<path fill="#FFCD4D" d="M303.282,44.643c-3.722,8.567-12.33,13.082-19.228,10.083c-6.897-2.999-9.473-12.375-5.75-20.943
				c3.721-8.567,12.331-13.081,19.228-10.083S307.004,36.075,303.282,44.643z"/>
			<path fill="#FFCD4E" d="M303.244,44.608c-3.702,8.55-12.284,13.063-19.167,10.08c-6.884-2.984-9.463-12.334-5.759-20.884
				c3.702-8.549,12.284-13.062,19.167-10.079C304.368,26.708,306.947,36.058,303.244,44.608z"/>
			<path fill="#FFCE4F" d="M303.205,44.574c-3.683,8.532-12.237,13.043-19.106,10.076c-6.869-2.969-9.453-12.292-5.769-20.824
				c3.683-8.532,12.237-13.043,19.106-10.075C304.306,26.718,306.889,36.042,303.205,44.574z"/>
			<path fill="#FFCE50" d="M303.167,44.54c-3.663,8.515-12.19,13.024-19.045,10.072c-6.855-2.953-9.443-12.25-5.778-20.765
				c3.663-8.515,12.19-13.024,19.046-10.071C304.244,26.728,306.831,36.024,303.167,44.54z"/>
			<path fill="#FFCE51" d="M303.128,44.505c-3.644,8.498-12.144,13.005-18.985,10.068c-6.841-2.938-9.433-12.207-5.788-20.705
				c3.644-8.497,12.144-13.004,18.985-10.068C304.182,26.738,306.772,36.008,303.128,44.505z"/>
			<path fill="#FFCE52" d="M303.089,44.471c-3.625,8.48-12.097,12.986-18.924,10.065c-6.827-2.922-9.423-12.166-5.797-20.646
				c3.624-8.479,12.097-12.985,18.924-10.064C304.119,26.748,306.715,35.991,303.089,44.471z"/>
			<path fill="#FFCF53" d="M303.051,44.437c-3.605,8.462-12.051,12.967-18.863,10.061c-6.813-2.907-9.414-12.123-5.807-20.586
				c3.605-8.462,12.051-12.966,18.863-10.061C304.057,26.757,306.657,35.974,303.051,44.437z"/>
			<path fill="#FFCF54" d="M303.012,44.402c-3.585,8.445-12.004,12.948-18.803,10.058c-6.798-2.891-9.403-12.081-5.816-20.526
				c3.585-8.445,12.004-12.947,18.803-10.057C303.995,26.767,306.599,35.957,303.012,44.402z"/>
			<path fill="#FFCF55" d="M302.974,44.368c-3.566,8.427-11.958,12.929-18.742,10.054c-6.785-2.876-9.394-12.039-5.826-20.467
				c3.566-8.427,11.958-12.928,18.742-10.053C303.933,26.777,306.541,35.94,302.974,44.368z"/>
			<path fill="#FFD056" d="M302.935,44.334c-3.547,8.41-11.911,12.91-18.681,10.05c-6.771-2.86-9.384-11.997-5.835-20.407
				c3.547-8.41,11.911-12.909,18.682-10.05C303.87,26.787,306.483,35.923,302.935,44.334z"/>
			<path fill="#FFD057" d="M302.896,44.299c-3.527,8.393-11.864,12.891-18.621,10.047c-6.756-2.845-9.374-11.955-5.845-20.348
				c3.528-8.393,11.865-12.89,18.621-10.046C303.808,26.796,306.425,35.906,302.896,44.299z"/>
			<path fill="#FFD058" d="M302.858,44.265c-3.508,8.375-11.818,12.872-18.56,10.043c-6.742-2.83-9.364-11.913-5.854-20.288
				c3.508-8.375,11.818-12.871,18.56-10.042C303.746,26.806,306.367,35.89,302.858,44.265z"/>
			<path fill="#FFD059" d="M302.819,44.231c-3.489,8.357-11.771,12.852-18.499,10.039c-6.728-2.814-9.354-11.87-5.864-20.229
				c3.489-8.357,11.771-12.852,18.5-10.039C303.684,26.816,306.309,35.873,302.819,44.231z"/>
			<path fill="#FFD15A" d="M302.781,44.196c-3.469,8.34-11.725,12.833-18.438,10.036c-6.714-2.798-9.344-11.828-5.874-20.168
				c3.469-8.34,11.725-12.833,18.438-10.035C303.622,26.826,306.251,35.856,302.781,44.196z"/>
			<path fill="#FFD15B" d="M302.743,44.162c-3.45,8.323-11.678,12.814-18.378,10.032c-6.7-2.783-9.334-11.786-5.883-20.109
				c3.45-8.323,11.678-12.813,18.378-10.031C303.559,26.836,306.193,35.839,302.743,44.162z"/>
			<path fill="#FFD15C" d="M302.704,44.128c-3.431,8.305-11.632,12.795-18.317,10.028c-6.685-2.768-9.324-11.744-5.892-20.05
				c3.431-8.305,11.632-12.794,18.317-10.027C303.497,26.846,306.135,35.822,302.704,44.128z"/>
			<path fill="#FFD25D" d="M302.666,44.093c-3.412,8.288-11.585,12.776-18.256,10.025c-6.671-2.752-9.314-11.702-5.902-19.99
				c3.411-8.288,11.585-12.776,18.256-10.024S306.077,35.805,302.666,44.093z"/>
			<path fill="#FFD25E" d="M302.627,44.059c-3.392,8.271-11.539,12.757-18.196,10.021c-6.657-2.737-9.305-11.659-5.911-19.93
				c3.392-8.271,11.539-12.756,18.195-10.021C303.373,26.865,306.019,35.789,302.627,44.059z"/>
			<path fill="#FFD25F" d="M302.588,44.025c-3.373,8.253-11.492,12.738-18.135,10.017c-6.643-2.721-9.295-11.617-5.921-19.871
				c3.372-8.253,11.492-12.737,18.135-10.017C303.311,26.875,305.961,35.771,302.588,44.025z"/>
			<path fill="#FFD260" d="M302.55,43.99c-3.353,8.236-11.445,12.719-18.074,10.014c-6.629-2.706-9.285-11.575-5.93-19.812
				c3.353-8.235,11.445-12.718,18.074-10.013C303.248,26.885,305.903,35.754,302.55,43.99z"/>
			<path fill="#FFD361" d="M302.511,43.956c-3.334,8.218-11.399,12.7-18.014,10.01c-6.615-2.69-9.275-11.533-5.939-19.751
				c3.333-8.218,11.398-12.699,18.013-10.01S305.845,35.738,302.511,43.956z"/>
			<path fill="#FFD362" d="M302.473,43.922c-3.314,8.2-11.352,12.681-17.953,10.006c-6.601-2.675-9.265-11.491-5.95-19.692
				c3.314-8.2,11.353-12.68,17.953-10.006C303.124,26.904,305.788,35.721,302.473,43.922z"/>
			<path fill="#FFD363" d="M302.434,43.888c-3.295,8.183-11.306,12.661-17.892,10.002c-6.586-2.659-9.255-11.449-5.959-19.632
				c3.295-8.183,11.306-12.661,17.892-10.002C303.062,26.914,305.729,35.704,302.434,43.888z"/>
			<path fill="#FFD464" d="M302.396,43.853c-3.275,8.166-11.259,12.643-17.831,10c-6.573-2.645-9.246-11.407-5.969-19.573
				c3.275-8.166,11.259-12.642,17.832-9.999C303,26.924,305.671,35.687,302.396,43.853z"/>
			<path fill="#FFD465" d="M302.357,43.819c-3.256,8.148-11.212,12.623-17.771,9.996c-6.558-2.629-9.235-11.365-5.978-19.513
				c3.256-8.148,11.212-12.623,17.771-9.995C302.937,26.934,305.614,35.67,302.357,43.819z"/>
			<path fill="#FFD466" d="M302.318,43.785c-3.237,8.13-11.166,12.604-17.71,9.992c-6.544-2.613-9.225-11.322-5.987-19.454
				c3.237-8.13,11.166-12.604,17.71-9.991S305.556,35.653,302.318,43.785z"/>
			<path fill="#FFD467" d="M302.28,43.75c-3.217,8.113-11.119,12.585-17.649,9.988c-6.53-2.598-9.216-11.28-5.997-19.394
				c3.217-8.113,11.119-12.584,17.649-9.987C302.813,26.954,305.498,35.637,302.28,43.75z"/>
			<path fill="#FFD568" d="M302.241,43.716c-3.198,8.096-11.073,12.566-17.588,9.984c-6.516-2.582-9.206-11.238-6.006-19.334
				c3.198-8.096,11.073-12.565,17.588-9.984C302.75,26.963,305.439,35.62,302.241,43.716z"/>
			<path fill="#FFD569" d="M302.203,43.682c-3.179,8.078-11.026,12.547-17.527,9.981c-6.502-2.567-9.196-11.196-6.016-19.275
				c3.178-8.078,11.026-12.546,17.527-9.98S305.382,35.603,302.203,43.682z"/>
			<path fill="#FFD56A" d="M302.164,43.647c-3.159,8.061-10.979,12.528-17.467,9.978c-6.487-2.551-9.186-11.154-6.025-19.215
				c3.159-8.061,10.979-12.527,17.467-9.977C302.626,26.983,305.324,35.586,302.164,43.647z"/>
			<path fill="#FFD56B" d="M302.125,43.613c-3.14,8.043-10.933,12.509-17.406,9.974c-6.473-2.536-9.176-11.112-6.035-19.155
				c3.14-8.043,10.933-12.508,17.406-9.973C302.564,26.993,305.266,35.569,302.125,43.613z"/>
			<path fill="#FFD66C" d="M302.087,43.579c-3.12,8.026-10.886,12.489-17.345,9.97c-6.459-2.521-9.166-11.069-6.044-19.096
				c3.12-8.026,10.886-12.489,17.345-9.969C302.501,27.002,305.208,35.552,302.087,43.579z"/>
			<path fill="#FFD66D" d="M302.048,43.544c-3.101,8.009-10.84,12.471-17.285,9.967c-6.445-2.505-9.156-11.028-6.054-19.037
				c3.101-8.008,10.84-12.47,17.285-9.966C302.439,27.013,305.15,35.535,302.048,43.544z"/>
			<path fill="#FFD66E" d="M302.01,43.51c-3.082,7.991-10.793,12.452-17.224,9.963c-6.431-2.49-9.146-10.985-6.063-18.977
				c3.082-7.991,10.793-12.451,17.224-9.962S305.092,35.519,302.01,43.51z"/>
			<path fill="#FFD76F" d="M301.971,43.476c-3.062,7.973-10.747,12.432-17.163,9.959c-6.417-2.474-9.136-10.943-6.073-18.917
				c3.063-7.974,10.747-12.432,17.164-9.958C302.315,27.032,305.034,35.501,301.971,43.476z"/>
			<path fill="#FFD770" d="M301.933,43.441c-3.042,7.956-10.7,12.414-17.102,9.956c-6.403-2.458-9.127-10.901-6.083-18.857
				c3.043-7.956,10.7-12.413,17.103-9.955C302.252,27.042,304.976,35.485,301.933,43.441z"/>
			<path fill="#FFD771" d="M301.894,43.407c-3.023,7.938-10.653,12.394-17.042,9.952c-6.389-2.443-9.117-10.859-6.092-18.798
				c3.023-7.938,10.654-12.394,17.042-9.951S304.918,35.468,301.894,43.407z"/>
			<path fill="#FFD772" d="M301.855,43.373c-3.004,7.921-10.606,12.375-16.981,9.948c-6.374-2.428-9.106-10.817-6.102-18.739
				c3.004-7.921,10.607-12.374,16.981-9.947C302.128,27.062,304.86,35.451,301.855,43.373z"/>
			<path fill="#FFD873" d="M301.817,43.338c-2.984,7.904-10.56,12.356-16.92,9.945c-6.36-2.412-9.097-10.775-6.111-18.679
				c2.985-7.904,10.561-12.355,16.92-9.944C302.066,27.071,304.802,35.434,301.817,43.338z"/>
			<path fill="#FFD874" d="M301.778,43.304c-2.965,7.886-10.514,12.337-16.859,9.941c-6.346-2.397-9.087-10.732-6.121-18.619
				c2.965-7.886,10.514-12.336,16.859-9.94C302.004,27.081,304.744,35.417,301.778,43.304z"/>
			<path fill="#FFD875" d="M301.74,43.27c-2.946,7.869-10.467,12.318-16.798,9.937c-6.332-2.381-9.078-10.69-6.13-18.56
				c2.946-7.869,10.467-12.317,16.799-9.937S304.686,35.4,301.74,43.27z"/>
			<path fill="#FFD976" d="M301.701,43.235c-2.926,7.852-10.42,12.299-16.738,9.934c-6.318-2.366-9.067-10.648-6.14-18.5
				c2.926-7.852,10.42-12.298,16.738-9.933C301.879,27.101,304.628,35.383,301.701,43.235z"/>
			<path fill="#FFD977" d="M301.663,43.201c-2.907,7.834-10.374,12.28-16.677,9.93c-6.304-2.351-9.057-10.606-6.149-18.44
				c2.907-7.833,10.374-12.279,16.677-9.929C301.817,27.111,304.57,35.367,301.663,43.201z"/>
			<path fill="#FFD978" d="M301.624,43.167c-2.887,7.816-10.327,12.26-16.616,9.926c-6.29-2.335-9.048-10.564-6.159-18.381
				c2.888-7.816,10.327-12.26,16.617-9.925C301.755,27.121,304.512,35.35,301.624,43.167z"/>
			<path fill="#FFD979" d="M301.585,43.132c-2.868,7.799-10.28,12.241-16.556,9.922c-6.275-2.319-9.038-10.521-6.168-18.321
				c2.868-7.798,10.281-12.241,16.556-9.922C301.693,27.13,304.455,35.333,301.585,43.132z"/>
			<path fill="#FFDA7A" d="M301.547,43.098c-2.849,7.782-10.234,12.223-16.495,9.919c-6.262-2.304-9.028-10.479-6.178-18.261
				c2.849-7.781,10.234-12.222,16.495-9.918C301.63,27.14,304.396,35.316,301.547,43.098z"/>
			<path fill="#FFDA7B" d="M301.508,43.063c-2.829,7.764-10.188,12.203-16.434,9.916c-6.247-2.289-9.018-10.438-6.188-18.202
				c2.83-7.764,10.188-12.203,16.435-9.915C301.568,27.15,304.338,35.299,301.508,43.063z"/>
			<path fill="#FFDA7C" d="M301.47,43.029c-2.81,7.746-10.141,12.184-16.374,9.912c-6.233-2.273-9.008-10.396-6.197-18.143
				c2.811-7.746,10.141-12.184,16.374-9.911C301.506,27.16,304.28,35.282,301.47,43.029z"/>
			<path fill="#FFDB7D" d="M301.431,42.995c-2.791,7.729-10.094,12.165-16.313,9.908c-6.219-2.258-8.998-10.353-6.207-18.083
				c2.791-7.729,10.095-12.165,16.313-9.908C301.444,27.169,304.223,35.266,301.431,42.995z"/>
			<path fill="#FFDB7E" d="M301.393,42.96c-2.771,7.711-10.047,12.146-16.252,9.904c-6.205-2.242-8.988-10.311-6.216-18.023
				c2.771-7.711,10.048-12.146,16.252-9.904C301.382,27.179,304.165,35.249,301.393,42.96z"/>
			<path fill="#FFDB7F" d="M301.354,42.926c-2.751,7.694-10.001,12.126-16.191,9.901c-6.191-2.227-8.979-10.269-6.226-17.964
				c2.752-7.694,10.001-12.126,16.192-9.9C301.319,27.189,304.106,35.231,301.354,42.926z"/>
			<path fill="#FFDB80" d="M301.315,42.892c-2.732,7.677-9.954,12.108-16.13,9.897c-6.176-2.211-8.968-10.227-6.235-17.904
				c2.732-7.676,9.955-12.107,16.131-9.896C301.257,27.199,304.049,35.215,301.315,42.892z"/>
			<path fill="#FFDC81" d="M301.277,42.857c-2.713,7.659-9.908,12.089-16.07,9.894c-6.162-2.196-8.958-10.185-6.244-17.844
				c2.713-7.659,9.908-12.088,16.07-9.893C301.195,27.209,303.991,35.198,301.277,42.857z"/>
			<path fill="#FFDC82" d="M301.238,42.823c-2.693,7.642-9.861,12.069-16.009,9.89c-6.148-2.18-8.949-10.143-6.254-17.785
				c2.694-7.642,9.862-12.069,16.009-9.889C301.133,27.219,303.933,35.181,301.238,42.823z"/>
			<path fill="#FFDC83" d="M301.2,42.789c-2.674,7.625-9.814,12.051-15.948,9.886c-6.134-2.165-8.938-10.1-6.263-17.725
				c2.674-7.624,9.815-12.05,15.949-9.885C301.07,27.229,303.875,35.164,301.2,42.789z"/>
			<path fill="#FFDD84" d="M301.161,42.754c-2.654,7.607-9.768,12.031-15.887,9.883c-6.12-2.15-8.929-10.059-6.273-17.666
				c2.655-7.607,9.769-12.031,15.888-9.882C301.008,27.238,303.817,35.147,301.161,42.754z"/>
			<path fill="#FFDD85" d="M301.123,42.72c-2.635,7.589-9.721,12.012-15.827,9.879c-6.106-2.134-8.919-10.016-6.282-17.606
				c2.636-7.589,9.722-12.012,15.827-9.878S303.759,35.13,301.123,42.72z"/>
			<path fill="#FFDD86" d="M301.084,42.686c-2.616,7.572-9.675,11.994-15.766,9.875c-6.091-2.119-8.909-9.974-6.292-17.546
				c2.616-7.572,9.675-11.993,15.766-9.875C300.884,27.258,303.701,35.114,301.084,42.686z"/>
			<path fill="#FFDD87" d="M301.045,42.651c-2.596,7.554-9.628,11.974-15.705,9.872c-6.078-2.103-8.899-9.932-6.301-17.487
				c2.597-7.554,9.628-11.973,15.706-9.871C300.822,27.268,303.643,35.097,301.045,42.651z"/>
			<path fill="#FFDE88" d="M301.007,42.617c-2.577,7.537-9.582,11.955-15.645,9.868c-6.063-2.088-8.889-9.89-6.311-17.427
				c2.578-7.537,9.583-11.955,15.645-9.867C300.759,27.277,303.585,35.08,301.007,42.617z"/>
			<path fill="#FFDE89" d="M300.968,42.583c-2.558,7.52-9.535,11.936-15.583,9.865c-6.049-2.072-8.879-9.848-6.321-17.368
				c2.558-7.52,9.536-11.936,15.584-9.864S303.527,35.063,300.968,42.583z"/>
			<path fill="#FFDE8A" d="M300.93,42.548c-2.538,7.502-9.488,11.917-15.523,9.861c-6.035-2.057-8.87-9.806-6.33-17.308
				c2.539-7.502,9.489-11.916,15.524-9.86C300.635,27.297,303.469,35.046,300.93,42.548z"/>
			<path fill="#FFDE8B" d="M300.892,42.514c-2.519,7.484-9.442,11.897-15.463,9.857c-6.021-2.042-8.859-9.763-6.339-17.249
				c2.52-7.484,9.442-11.897,15.463-9.856C300.573,27.307,303.411,35.029,300.892,42.514z"/>
			<path fill="#FFDF8C" d="M300.853,42.479c-2.5,7.467-9.396,11.879-15.402,9.854c-6.007-2.026-8.85-9.721-6.349-17.188
				c2.5-7.467,9.396-11.878,15.402-9.853C300.511,27.317,303.353,35.012,300.853,42.479z"/>
			<path fill="#FFDF8D" d="M300.814,42.445c-2.48,7.45-9.349,11.86-15.341,9.85c-5.993-2.011-8.84-9.679-6.358-17.129
				c2.48-7.449,9.349-11.859,15.341-9.849S303.295,34.996,300.814,42.445z"/>
			<path fill="#FFDF8E" d="M300.776,42.411c-2.461,7.432-9.302,11.84-15.28,9.846c-5.979-1.995-8.83-9.637-6.368-17.07
				c2.461-7.432,9.303-11.84,15.281-9.845C300.386,27.336,303.237,34.979,300.776,42.411z"/>
			<path fill="#FFE08F" d="M300.737,42.377c-2.441,7.415-9.256,11.821-15.22,9.842c-5.964-1.979-8.82-9.595-6.377-17.01
				c2.442-7.415,9.256-11.821,15.22-9.842C300.324,27.346,303.179,34.962,300.737,42.377z"/>
			<path fill="#FFE090" d="M300.699,42.342c-2.422,7.397-9.209,11.802-15.159,9.839c-5.95-1.964-8.81-9.553-6.387-16.95
				c2.422-7.397,9.209-11.802,15.159-9.838C300.262,27.356,303.121,34.945,300.699,42.342z"/>
			<path fill="#FFE091" d="M300.66,42.308c-2.403,7.38-9.163,11.783-15.098,9.835c-5.936-1.949-8.8-9.511-6.396-16.891
				c2.403-7.379,9.163-11.782,15.098-9.834C300.2,27.366,303.063,34.928,300.66,42.308z"/>
			<path fill="#FFE092" d="M300.622,42.274c-2.383,7.362-9.116,11.764-15.038,9.832c-5.922-1.934-8.79-9.469-6.406-16.832
				c2.383-7.362,9.116-11.763,15.038-9.831C300.137,27.375,303.005,34.911,300.622,42.274z"/>
			<path fill="#FFE193" d="M300.583,42.239c-2.364,7.345-9.069,11.745-14.977,9.828c-5.908-1.918-8.781-9.426-6.416-16.771
				c2.364-7.345,9.069-11.745,14.977-9.827C300.075,27.386,302.947,34.894,300.583,42.239z"/>
			<path fill="#FFE194" d="M300.544,42.205c-2.344,7.327-9.023,11.726-14.916,9.824c-5.894-1.902-8.771-9.384-6.425-16.712
				c2.345-7.327,9.023-11.725,14.916-9.823C300.013,27.396,302.89,34.877,300.544,42.205z"/>
			<path fill="#FFE195" d="M300.506,42.171c-2.325,7.31-8.976,11.707-14.855,9.82c-5.879-1.887-8.761-9.342-6.435-16.652
				c2.326-7.31,8.977-11.706,14.856-9.82C299.951,27.405,302.832,34.86,300.506,42.171z"/>
			<path fill="#FFE296" d="M300.467,42.136c-2.306,7.292-8.93,11.688-14.794,9.817c-5.865-1.872-8.751-9.3-6.444-16.593
				c2.306-7.292,8.93-11.688,14.795-9.816C299.888,27.415,302.773,34.844,300.467,42.136z"/>
			<path fill="#FFE297" d="M300.429,42.102c-2.286,7.275-8.883,11.668-14.734,9.813c-5.851-1.856-8.741-9.258-6.454-16.533
				c2.287-7.275,8.884-11.668,14.734-9.813C299.826,27.425,302.716,34.827,300.429,42.102z"/>
			<path fill="#FFE298" d="M300.39,42.068c-2.267,7.257-8.836,11.649-14.673,9.81c-5.837-1.84-8.731-9.215-6.463-16.474
				c2.268-7.257,8.837-11.649,14.673-9.809C299.764,27.435,302.658,34.81,300.39,42.068z"/>
			<path fill="#FFE299" d="M300.352,42.033c-2.248,7.24-8.79,11.631-14.612,9.806c-5.823-1.825-8.721-9.173-6.473-16.414
				c2.248-7.24,8.791-11.629,14.613-9.805S302.6,34.793,300.352,42.033z"/>
			<path fill="#FFE39A" d="M300.313,41.999c-2.228,7.223-8.743,11.611-14.552,9.803c-5.809-1.81-8.711-9.131-6.482-16.354
				c2.229-7.223,8.744-11.611,14.552-9.802C299.64,27.454,302.542,34.776,300.313,41.999z"/>
			<path fill="#FFE39B" d="M300.274,41.965c-2.208,7.205-8.697,11.592-14.491,9.799c-5.794-1.794-8.702-9.089-6.492-16.295
				c2.209-7.205,8.697-11.592,14.491-9.798C299.577,27.464,302.484,34.759,300.274,41.965z"/>
			<path fill="#FFE39C" d="M300.236,41.93c-2.189,7.188-8.65,11.573-14.43,9.795c-5.78-1.779-8.691-9.047-6.501-16.235
				c2.19-7.188,8.65-11.572,14.43-9.794C299.515,27.474,302.426,34.742,300.236,41.93z"/>
			<path fill="#FFE49D" d="M300.197,41.896c-2.17,7.17-8.604,11.554-14.369,9.792c-5.767-1.763-8.682-9.005-6.511-16.175
				c2.17-7.17,8.604-11.554,14.37-9.791S302.368,34.726,300.197,41.896z"/>
			<path fill="#FFE49E" d="M300.159,41.862c-2.15,7.153-8.557,11.535-14.309,9.788c-5.752-1.748-8.672-8.962-6.52-16.116
				c2.151-7.153,8.557-11.534,14.309-9.787C299.391,27.494,302.31,34.708,300.159,41.862z"/>
			<path fill="#FFE49F" d="M300.12,41.827c-2.131,7.136-8.51,11.516-14.248,9.785c-5.738-1.732-8.662-8.921-6.529-16.057
				c2.131-7.135,8.511-11.515,14.248-9.783C299.329,27.503,302.252,34.692,300.12,41.827z"/>
			<path fill="#FFE4A0" d="M300.082,41.793c-2.111,7.118-8.464,11.497-14.187,9.781c-5.724-1.717-8.652-8.878-6.539-15.997
				c2.112-7.117,8.464-11.496,14.188-9.779C299.266,27.513,302.194,34.675,300.082,41.793z"/>
			<path fill="#FFE5A1" d="M300.043,41.759c-2.092,7.1-8.417,11.478-14.126,9.777c-5.709-1.702-8.642-8.836-6.549-15.937
				c2.093-7.1,8.418-11.477,14.127-9.776C299.204,27.523,302.136,34.658,300.043,41.759z"/>
			<path fill="#FFE5A2" d="M300.004,41.724c-2.073,7.083-8.371,11.459-14.065,9.773c-5.696-1.686-8.632-8.794-6.559-15.877
				c2.074-7.083,8.371-11.458,14.066-9.772C299.142,27.533,302.078,34.641,300.004,41.724z"/>
			<path fill="#FFE5A3" d="M299.966,41.69c-2.053,7.065-8.324,11.439-14.005,9.77c-5.682-1.671-8.622-8.752-6.568-15.818
				c2.054-7.065,8.325-11.439,14.005-9.769C299.08,27.542,302.02,34.625,299.966,41.69z"/>
			<path fill="#FFE5A4" d="M299.927,41.656c-2.034,7.048-8.277,11.42-13.944,9.766c-5.667-1.655-8.612-8.71-6.577-15.759
				c2.035-7.047,8.278-11.419,13.945-9.765C299.017,27.552,301.962,34.607,299.927,41.656z"/>
			<path fill="#FFE6A5" d="M299.889,41.622c-2.015,7.03-8.231,11.401-13.883,9.762c-5.653-1.64-8.603-8.668-6.587-15.699
				c2.015-7.03,8.231-11.401,13.884-9.762C298.955,27.562,301.904,34.591,299.889,41.622z"/>
			<path fill="#FFE6A6" d="M299.85,41.587c-1.995,7.013-8.184,11.382-13.823,9.759c-5.639-1.624-8.592-8.625-6.596-15.639
				c1.996-7.013,8.185-11.381,13.823-9.758S301.846,34.574,299.85,41.587z"/>
			<path fill="#FFE6A7" d="M299.812,41.553c-1.976,6.996-8.138,11.363-13.762,9.755c-5.625-1.608-8.583-8.583-6.606-15.58
				c1.977-6.995,8.138-11.362,13.763-9.754C298.831,27.582,301.788,34.557,299.812,41.553z"/>
			<path fill="#FFE7A8" d="M299.773,41.519c-1.956,6.978-8.091,11.344-13.701,9.751c-5.611-1.594-8.573-8.542-6.615-15.52
				c1.957-6.978,8.091-11.344,13.702-9.75C298.769,27.592,301.73,34.54,299.773,41.519z"/>
			<path fill="#FFE7A9" d="M299.734,41.484c-1.937,6.961-8.044,11.325-13.641,9.748c-5.596-1.578-8.563-8.5-6.625-15.46
				c1.938-6.96,8.045-11.324,13.641-9.747C298.706,27.602,301.672,34.523,299.734,41.484z"/>
			<path fill="#FFE7AA" d="M299.696,41.45c-1.917,6.943-7.998,11.306-13.58,9.744c-5.583-1.563-8.553-8.457-6.634-15.401
				c1.918-6.943,7.998-11.305,13.58-9.743C298.644,27.611,301.614,34.506,299.696,41.45z"/>
			<path fill="#FFE7AB" d="M299.657,41.416c-1.898,6.926-7.951,11.287-13.519,9.74c-5.568-1.547-8.543-8.415-6.644-15.341
				c1.899-6.925,7.952-11.286,13.52-9.739C298.582,27.621,301.557,34.489,299.657,41.416z"/>
			<path fill="#FFE8AC" d="M299.619,41.381c-1.878,6.909-7.905,11.268-13.458,9.737c-5.554-1.532-8.533-8.373-6.653-15.282
				c1.879-6.908,7.905-11.267,13.458-9.736C298.52,27.631,301.499,34.473,299.619,41.381z"/>
			<path fill="#FFE8AD" d="M299.58,41.347c-1.859,6.891-7.858,11.249-13.397,9.733c-5.54-1.516-8.523-8.331-6.663-15.222
				c1.86-6.891,7.858-11.248,13.398-9.732C298.458,27.641,301.44,34.456,299.58,41.347z"/>
			<path fill="#FFE8AE" d="M299.542,41.313c-1.84,6.873-7.812,11.229-13.337,9.729c-5.526-1.5-8.513-8.289-6.672-15.163
				c1.841-6.873,7.813-11.229,13.337-9.729C298.395,27.65,301.383,34.439,299.542,41.313z"/>
			<path fill="#FFE9AF" d="M299.503,41.278c-1.82,6.856-7.765,11.21-13.276,9.726c-5.512-1.485-8.503-8.246-6.682-15.103
				c1.822-6.856,7.766-11.21,13.277-9.725C298.333,27.661,301.325,34.422,299.503,41.278z"/>
			<path fill="#FFE9B0" d="M299.464,41.244c-1.801,6.838-7.718,11.191-13.215,9.722c-5.498-1.47-8.494-8.204-6.691-15.043
				c1.802-6.838,7.719-11.19,13.216-9.721C298.271,27.67,301.267,34.405,299.464,41.244z"/>
			<path fill="#FFE9B1" d="M299.426,41.209c-1.782,6.821-7.671,11.172-13.154,9.719c-5.483-1.455-8.484-8.162-6.701-14.984
				c1.783-6.821,7.672-11.171,13.155-9.718S301.208,34.388,299.426,41.209z"/>
			<path fill="#FFE9B2" d="M299.387,41.175c-1.762,6.804-7.625,11.153-13.094,9.715c-5.469-1.439-8.474-8.12-6.71-14.924
				c1.763-6.803,7.626-11.152,13.095-9.714C298.146,27.69,301.151,34.371,299.387,41.175z"/>
			<path fill="#FFEAB3" d="M299.349,41.141c-1.743,6.786-7.579,11.134-13.033,9.711c-5.455-1.423-8.464-8.078-6.72-14.864
				c1.744-6.786,7.579-11.133,13.034-9.71C298.084,27.7,301.093,34.354,299.349,41.141z"/>
			<path fill="#FFEAB4" d="M299.31,41.106c-1.723,6.769-7.532,11.115-12.972,9.708c-5.441-1.408-8.454-8.036-6.729-14.805
				c1.725-6.769,7.533-11.114,12.973-9.707C298.022,27.709,301.035,34.337,299.31,41.106z"/>
			<path fill="#FFEAB5" d="M299.271,41.072c-1.704,6.751-7.485,11.096-12.912,9.705c-5.427-1.393-8.444-7.994-6.739-14.746
				c1.705-6.751,7.486-11.095,12.912-9.703C297.959,27.719,300.977,34.321,299.271,41.072z"/>
			<path fill="#FFEBB6" d="M299.233,41.038c-1.685,6.734-7.438,11.077-12.851,9.701c-5.413-1.377-8.435-7.952-6.749-14.686
				c1.686-6.733,7.439-11.076,12.852-9.7C297.897,27.729,300.919,34.304,299.233,41.038z"/>
			<path fill="#FFEBB7" d="M299.194,41.003c-1.665,6.716-7.392,11.058-12.79,9.697c-5.398-1.361-8.424-7.909-6.758-14.626
				c1.666-6.716,7.393-11.057,12.791-9.696C297.835,27.739,300.861,34.287,299.194,41.003z"/>
			<path fill="#FFEBB8" d="M299.156,40.969c-1.646,6.699-7.345,11.039-12.729,9.693c-5.384-1.346-8.415-7.867-6.767-14.566
				c1.647-6.698,7.346-11.038,12.73-9.692C297.773,27.749,300.803,34.27,299.156,40.969z"/>
			<path fill="#FFEBB9" d="M299.117,40.935c-1.626,6.682-7.299,11.02-12.668,9.689c-5.371-1.331-8.405-7.825-6.777-14.507
				c1.627-6.681,7.299-11.019,12.669-9.688C297.711,27.759,300.745,34.253,299.117,40.935z"/>
			<path fill="#FFECBA" d="M299.079,40.9c-1.607,6.664-7.253,11-12.608,9.686c-5.356-1.315-8.395-7.783-6.787-14.447
				c1.608-6.664,7.253-11,12.609-9.685C297.648,27.769,300.687,34.236,299.079,40.9z"/>
			<path fill="#FFECBB" d="M299.041,40.866c-1.588,6.646-7.206,10.981-12.547,9.682c-5.342-1.3-8.385-7.741-6.796-14.388
				c1.589-6.646,7.207-10.98,12.548-9.681C297.586,27.778,300.629,34.219,299.041,40.866z"/>
			<path fill="#FFECBC" d="M299.002,40.832c-1.568,6.629-7.16,10.962-12.487,9.679c-5.328-1.284-8.375-7.699-6.806-14.328
				c1.569-6.628,7.16-10.961,12.487-9.677C297.524,27.788,300.571,34.203,299.002,40.832z"/>
			<path fill="#FFECBD" d="M298.963,40.797c-1.549,6.611-7.113,10.943-12.426,9.675s-8.365-7.656-6.815-14.268
				c1.55-6.611,7.113-10.942,12.427-9.674C297.462,27.798,300.513,34.186,298.963,40.797z"/>
			<path fill="#FFEDBE" d="M298.925,40.763c-1.53,6.594-7.066,10.924-12.365,9.671c-5.3-1.253-8.355-7.615-6.825-14.209
				c1.531-6.594,7.067-10.923,12.366-9.67C297.399,27.808,300.455,34.169,298.925,40.763z"/>
			<path fill="#FFEDBF" d="M298.886,40.729c-1.51,6.577-7.02,10.905-12.305,9.668c-5.285-1.238-8.345-7.572-6.834-14.149
				c1.511-6.576,7.02-10.904,12.305-9.667C297.337,27.817,300.397,34.152,298.886,40.729z"/>
			<path fill="#FFEDC0" d="M298.848,40.694c-1.491,6.559-6.973,10.886-12.244,9.664c-5.271-1.223-8.335-7.53-6.844-14.09
				c1.492-6.559,6.974-10.885,12.244-9.663C297.275,27.827,300.339,34.135,298.848,40.694z"/>
			<path fill="#FFEEC1" d="M298.809,40.66c-1.472,6.542-6.927,10.867-12.183,9.66c-5.257-1.207-8.326-7.488-6.853-14.03
				c1.473-6.542,6.927-10.866,12.184-9.66C297.213,27.837,300.281,34.118,298.809,40.66z"/>
			<path fill="#FFEEC2" d="M298.771,40.625c-1.452,6.524-6.88,10.848-12.123,9.657c-5.243-1.191-8.315-7.446-6.862-13.97
				c1.453-6.524,6.88-10.847,12.123-9.656C297.151,27.847,300.224,34.102,298.771,40.625z"/>
			<path fill="#FFEEC3" d="M298.732,40.591c-1.433,6.507-6.833,10.829-12.062,9.653c-5.229-1.176-8.306-7.404-6.872-13.911
				c1.434-6.506,6.834-10.828,12.062-9.652C297.088,27.857,300.166,34.084,298.732,40.591z"/>
			<path fill="#FFEEC4" d="M298.693,40.557c-1.413,6.489-6.787,10.81-12.001,9.649c-5.215-1.161-8.296-7.362-6.881-13.852
				c1.414-6.489,6.787-10.809,12.001-9.648C297.026,27.867,300.107,34.067,298.693,40.557z"/>
			<path fill="#FFEFC5" d="M298.655,40.522c-1.394,6.472-6.74,10.791-11.94,9.646c-5.201-1.145-8.286-7.319-6.891-13.792
				c1.395-6.472,6.741-10.79,11.94-9.645C296.964,27.876,300.049,34.051,298.655,40.522z"/>
			<path fill="#FFEFC6" d="M298.616,40.488c-1.375,6.455-6.693,10.771-11.879,9.642c-5.187-1.129-8.276-7.277-6.9-13.732
				c1.375-6.454,6.694-10.771,11.88-9.641C296.902,27.886,299.992,34.034,298.616,40.488z"/>
			<path fill="#FFEFC7" d="M298.578,40.454c-1.355,6.437-6.647,10.752-11.819,9.639c-5.172-1.115-8.266-7.235-6.91-13.673
				c1.356-6.437,6.648-10.751,11.819-9.637C296.84,27.896,299.934,34.017,298.578,40.454z"/>
			<path fill="#FFF0C8" d="M298.539,40.419c-1.335,6.419-6.601,10.733-11.758,9.635c-5.158-1.099-8.256-7.193-6.92-13.613
				c1.337-6.419,6.601-10.732,11.759-9.634C296.777,27.906,299.875,34,298.539,40.419z"/>
			<path fill="#FFF0C9" d="M298.5,40.385c-1.316,6.402-6.554,10.714-11.697,9.631c-5.144-1.083-8.246-7.151-6.929-13.553
				c1.317-6.402,6.555-10.713,11.698-9.63C296.715,27.916,299.818,33.983,298.5,40.385z"/>
			<path fill="#FFF0CA" d="M298.462,40.351c-1.297,6.384-6.507,10.695-11.636,9.627c-5.13-1.068-8.237-7.108-6.939-13.494
				c1.298-6.384,6.508-10.694,11.637-9.626C296.653,27.925,299.76,33.966,298.462,40.351z"/>
			<path fill="#FFF0CB" d="M298.423,40.316c-1.277,6.367-6.46,10.676-11.576,9.624c-5.116-1.052-8.227-7.066-6.948-13.434
				c1.279-6.366,6.461-10.675,11.576-9.623C296.591,27.936,299.702,33.95,298.423,40.316z"/>
			<path fill="#FFF1CC" d="M298.385,40.282c-1.258,6.35-6.414,10.657-11.515,9.621c-5.102-1.037-8.217-7.024-6.958-13.375
				c1.259-6.349,6.415-10.656,11.516-9.619C296.529,27.945,299.644,33.933,298.385,40.282z"/>
			<path fill="#FFF1CD" d="M298.346,40.248c-1.239,6.332-6.367,10.638-11.454,9.617c-5.087-1.021-8.207-6.982-6.967-13.315
				c1.24-6.332,6.368-10.637,11.455-9.616C296.466,27.955,299.586,33.916,298.346,40.248z"/>
			<path fill="#FFF1CE" d="M298.308,40.214c-1.219,6.314-6.321,10.618-11.394,9.613c-5.073-1.006-8.197-6.94-6.977-13.255
				c1.22-6.314,6.321-10.618,11.394-9.612C296.404,27.965,299.528,33.899,298.308,40.214z"/>
			<path fill="#FFF2CF" d="M298.269,40.179c-1.2,6.297-6.274,10.6-11.333,9.609c-5.06-0.991-8.187-6.898-6.986-13.195
				c1.201-6.297,6.275-10.599,11.333-9.608C296.342,27.975,299.47,33.882,298.269,40.179z"/>
			<path fill="#FFF2D0" d="M298.23,40.145c-1.18,6.28-6.228,10.581-11.272,9.606c-5.045-0.976-8.177-6.856-6.996-13.136
				c1.182-6.279,6.228-10.58,11.272-9.604C296.28,27.984,299.412,33.865,298.23,40.145z"/>
			<path fill="#FFF2D1" d="M298.192,40.111c-1.161,6.262-6.181,10.561-11.211,9.602c-5.031-0.96-8.167-6.814-7.005-13.077
				c1.162-6.262,6.182-10.561,11.212-9.601C296.217,27.994,299.354,33.848,298.192,40.111z"/>
			<path fill="#FFF2D2" d="M298.153,40.076c-1.142,6.245-6.134,10.542-11.15,9.599c-5.017-0.944-8.158-6.771-7.015-13.017
				c1.143-6.244,6.135-10.541,11.151-9.597C296.155,28.004,299.296,33.832,298.153,40.076z"/>
			<path fill="#FFF3D3" d="M298.115,40.042c-1.122,6.227-6.088,10.523-11.09,9.595c-5.002-0.929-8.147-6.729-7.024-12.957
				c1.124-6.227,6.089-10.522,11.091-9.594C296.093,28.014,299.238,33.814,298.115,40.042z"/>
			<path fill="#FFF3D4" d="M298.076,40.008c-1.103,6.209-6.041,10.504-11.029,9.591c-4.989-0.913-8.138-6.687-7.034-12.897
				c1.104-6.209,6.042-10.503,11.03-9.59C296.031,28.023,299.18,33.798,298.076,40.008z"/>
			<path fill="#FFF3D5" d="M298.038,39.973c-1.083,6.192-5.995,10.485-10.968,9.588c-4.974-0.898-8.128-6.646-7.043-12.838
				c1.085-6.192,5.996-10.484,10.969-9.586S299.122,33.781,298.038,39.973z"/>
			<path fill="#FFF4D6" d="M297.999,39.939c-1.064,6.175-5.948,10.466-10.907,9.584c-4.96-0.883-8.118-6.603-7.053-12.778
				c1.065-6.175,5.949-10.465,10.908-9.583C295.906,28.043,299.064,33.764,297.999,39.939z"/>
			<path fill="#FFF4D7" d="M297.96,39.905c-1.044,6.157-5.901,10.447-10.847,9.58c-4.946-0.867-8.108-6.561-7.063-12.719
				c1.046-6.157,5.902-10.446,10.848-9.579C295.844,28.053,299.006,33.747,297.96,39.905z"/>
			<path fill="#FFF4D8" d="M297.922,39.87c-1.025,6.14-5.855,10.428-10.786,9.577c-4.932-0.852-8.098-6.519-7.072-12.659
				c1.027-6.14,5.856-10.427,10.787-9.575C295.782,28.063,298.948,33.73,297.922,39.87z"/>
			<path fill="#FFF4D9" d="M297.883,39.836c-1.006,6.123-5.808,10.409-10.725,9.573c-4.918-0.836-8.088-6.477-7.082-12.6
				c1.007-6.122,5.809-10.408,10.726-9.572C295.72,28.073,298.891,33.713,297.883,39.836z"/>
			<path fill="#FFF5DA" d="M297.845,39.802c-0.986,6.105-5.762,10.389-10.665,9.569c-4.903-0.821-8.078-6.435-7.091-12.54
				c0.988-6.105,5.763-10.389,10.666-9.568C295.658,28.083,298.833,33.696,297.845,39.802z"/>
			<path fill="#FFF5DB" d="M297.806,39.767c-0.967,6.088-5.715,10.371-10.604,9.566c-4.89-0.805-8.069-6.393-7.101-12.48
				c0.968-6.087,5.716-10.37,10.604-9.564C295.595,28.092,298.774,33.68,297.806,39.767z"/>
			<path fill="#FFF5DC" d="M297.768,39.733c-0.947,6.07-5.668,10.352-10.543,9.562c-4.875-0.79-8.059-6.35-7.11-12.421
				c0.949-6.07,5.669-10.351,10.544-9.561C295.533,28.102,298.716,33.663,297.768,39.733z"/>
			<path fill="#FFF5DD" d="M297.729,39.699c-0.928,6.053-5.622,10.332-10.482,9.558c-4.861-0.774-8.048-6.308-7.119-12.361
				c0.93-6.052,5.623-10.331,10.483-9.557C295.471,28.112,298.659,33.646,297.729,39.699z"/>
			<path fill="#FFF6DE" d="M297.69,39.664c-0.909,6.036-5.575,10.313-10.421,9.555c-4.847-0.759-8.039-6.266-7.129-12.302
				c0.91-6.035,5.576-10.313,10.422-9.554C295.409,28.122,298.601,33.629,297.69,39.664z"/>
			<path fill="#FFF6DF" d="M297.652,39.63c-0.889,6.018-5.529,10.294-10.361,9.551c-4.833-0.744-8.029-6.224-7.138-12.242
				c0.891-6.018,5.529-10.293,10.361-9.55C295.347,28.132,298.542,33.612,297.652,39.63z"/>
			<path fill="#FFF6E0" d="M297.613,39.596c-0.87,6-5.482,10.275-10.3,9.547c-4.819-0.728-8.019-6.182-7.148-12.183
				c0.872-6,5.483-10.274,10.301-9.546C295.284,28.142,298.485,33.595,297.613,39.596z"/>
			<path fill="#FFF7E1" d="M297.575,39.562c-0.851,5.982-5.436,10.256-10.239,9.543c-4.805-0.712-8.009-6.14-7.158-12.123
				c0.852-5.982,5.437-10.255,10.24-9.543C295.222,28.151,298.427,33.579,297.575,39.562z"/>
			<path fill="#FFF7E2" d="M297.536,39.527c-0.831,5.965-5.389,10.237-10.179,9.541c-4.791-0.697-7.999-6.098-7.167-12.063
				c0.833-5.965,5.39-10.236,10.18-9.539C295.16,28.161,298.369,33.562,297.536,39.527z"/>
			<path fill="#FFF7E3" d="M297.498,39.493c-0.812,5.948-5.342,10.218-10.118,9.537c-4.776-0.682-7.989-6.056-7.177-12.004
				c0.813-5.947,5.343-10.217,10.119-9.535C295.098,28.171,298.311,33.544,297.498,39.493z"/>
			<path fill="#FFF7E4" d="M297.459,39.458c-0.792,5.93-5.296,10.198-10.057,9.533c-4.762-0.666-7.979-6.013-7.186-11.944
				c0.794-5.93,5.297-10.197,10.058-9.531C295.035,28.181,298.253,33.528,297.459,39.458z"/>
			<path fill="#FFF8E5" d="M297.42,39.424c-0.773,5.913-5.249,10.18-9.996,9.529c-4.748-0.651-7.97-5.971-7.196-11.884
				c0.774-5.913,5.25-10.179,9.998-9.528C294.973,28.19,298.195,33.511,297.42,39.424z"/>
			<path fill="#FFF8E6" d="M297.382,39.39c-0.753,5.896-5.203,10.16-9.936,9.525c-4.734-0.635-7.959-5.929-7.205-11.825
				c0.755-5.895,5.204-10.16,9.937-9.524C294.911,28.2,298.137,33.494,297.382,39.39z"/>
			<path fill="#FFF8E7" d="M297.343,39.355c-0.734,5.878-5.156,10.141-9.875,9.522c-4.72-0.62-7.95-5.887-7.214-11.766
				c0.736-5.877,5.157-10.14,9.876-9.521C294.849,28.21,298.079,33.477,297.343,39.355z"/>
			<path fill="#FFF9E8" d="M297.305,39.321c-0.715,5.861-5.11,10.123-9.814,9.519c-4.706-0.604-7.94-5.845-7.224-11.706
				c0.716-5.86,5.11-10.122,9.815-9.517C294.787,28.22,298.021,33.46,297.305,39.321z"/>
			<path fill="#FFF9E9" d="M297.267,39.287c-0.696,5.843-5.063,10.103-9.754,9.515c-4.691-0.589-7.93-5.802-7.233-11.646
				c0.697-5.843,5.063-10.102,9.754-9.514C294.724,28.23,297.963,33.443,297.267,39.287z"/>
			<path fill="#FFF9EA" d="M297.228,39.252c-0.676,5.826-5.017,10.084-9.693,9.511c-4.678-0.573-7.92-5.76-7.243-11.586
				c0.677-5.825,5.017-10.083,9.693-9.51C294.662,28.24,297.905,33.427,297.228,39.252z"/>
			<path fill="#FFF9EB" d="M297.189,39.218c-0.657,5.809-4.97,10.065-9.632,9.508c-4.663-0.558-7.91-5.718-7.252-11.527
				c0.658-5.808,4.971-10.064,9.633-9.506C294.6,28.25,297.847,33.41,297.189,39.218z"/>
			<path fill="#FFFAEC" d="M297.151,39.184c-0.637,5.791-4.923,10.046-9.572,9.504c-4.649-0.542-7.9-5.676-7.262-11.467
				c0.639-5.791,4.924-10.045,9.572-9.502C294.538,28.259,297.789,33.393,297.151,39.184z"/>
			<path fill="#FFFAED" d="M297.112,39.149c-0.618,5.773-4.877,10.027-9.511,9.5c-4.635-0.527-7.891-5.634-7.272-11.408
				c0.62-5.773,4.878-10.026,9.512-9.499C294.476,28.269,297.731,33.376,297.112,39.149z"/>
			<path fill="#FFFAEE" d="M297.074,39.115c-0.599,5.756-4.83,10.008-9.45,9.497c-4.621-0.512-7.88-5.592-7.281-11.348
				c0.6-5.755,4.831-10.007,9.451-9.495C294.413,28.279,297.673,33.359,297.074,39.115z"/>
			<path fill="#FFFBEF" d="M297.035,39.081c-0.579,5.738-4.784,9.989-9.389,9.493c-4.607-0.496-7.871-5.549-7.291-11.288
				c0.581-5.738,4.785-9.988,9.39-9.492C294.351,28.289,297.615,33.342,297.035,39.081z"/>
			<path fill="#FFFBF0" d="M296.997,39.046c-0.56,5.721-4.737,9.969-9.329,9.489c-4.592-0.481-7.861-5.508-7.3-11.229
				c0.562-5.721,4.738-9.969,9.33-9.488C294.289,28.298,297.557,33.325,296.997,39.046z"/>
			<path fill="#FFFBF1" d="M296.958,39.012c-0.541,5.704-4.69,9.951-9.268,9.486c-4.578-0.465-7.851-5.465-7.31-11.169
				c0.542-5.703,4.691-9.949,9.269-9.484C294.227,28.309,297.5,33.309,296.958,39.012z"/>
			<path fill="#FFFBF2" d="M296.919,38.978c-0.521,5.686-4.644,9.931-9.207,9.482c-4.564-0.45-7.841-5.423-7.319-11.11
				c0.522-5.686,4.645-9.93,9.208-9.48C294.164,28.318,297.441,33.292,296.919,38.978z"/>
			<path fill="#FFFCF3" d="M296.881,38.943c-0.501,5.668-4.597,9.912-9.146,9.478c-4.55-0.434-7.831-5.381-7.329-11.05
				c0.503-5.668,4.598-9.912,9.147-9.477C294.102,28.328,297.383,33.275,296.881,38.943z"/>
			<path fill="#FFFCF4" d="M296.842,38.909c-0.482,5.651-4.551,9.894-9.085,9.475c-4.536-0.419-7.821-5.339-7.338-10.991
				c0.484-5.651,4.551-9.892,9.086-9.473C294.04,28.338,297.326,33.258,296.842,38.909z"/>
			<path fill="#FFFCF5" d="M296.804,38.875c-0.463,5.634-4.504,9.874-9.025,9.471c-4.522-0.404-7.812-5.297-7.348-10.931
				c0.464-5.633,4.505-9.873,9.025-9.47C293.978,28.348,297.268,33.241,296.804,38.875z"/>
			<path fill="#FFFCF6" d="M296.765,38.84c-0.443,5.616-4.458,9.855-8.964,9.467c-4.507-0.388-7.801-5.255-7.357-10.872
				c0.445-5.615,4.458-9.854,8.965-9.466C293.916,28.357,297.209,33.224,296.765,38.84z"/>
			<path fill="#FFFDF7" d="M296.727,38.806c-0.424,5.599-4.411,9.835-8.903,9.463c-4.494-0.373-7.792-5.212-7.367-10.812
				c0.425-5.598,4.412-9.835,8.904-9.462C293.853,28.367,297.152,33.207,296.727,38.806z"/>
			<path fill="#FFFDF8" d="M296.688,38.771c-0.404,5.582-4.364,9.817-8.843,9.46c-4.479-0.357-7.782-5.17-7.376-10.752
				c0.406-5.581,4.365-9.816,8.843-9.458C293.791,28.377,297.094,33.19,296.688,38.771z"/>
			<path fill="#FFFDF9" d="M296.649,38.737c-0.385,5.563-4.318,9.798-8.782,9.457c-4.465-0.342-7.772-5.128-7.386-10.693
				c0.387-5.563,4.319-9.796,8.783-9.455C293.729,28.387,297.036,33.173,296.649,38.737z"/>
			<path fill="#FFFEFA" d="M296.611,38.703c-0.366,5.546-4.271,9.778-8.721,9.453c-4.451-0.326-7.762-5.086-7.396-10.633
				c0.368-5.546,4.272-9.778,8.722-9.452C293.667,28.396,296.978,33.157,296.611,38.703z"/>
			<path fill="#FFFEFB" d="M296.572,38.668c-0.346,5.529-4.225,9.76-8.661,9.449c-4.437-0.311-7.752-5.044-7.405-10.573
				c0.348-5.528,4.226-9.759,8.662-9.448C293.604,28.407,296.92,33.14,296.572,38.668z"/>
			<path fill="#FFFEFC" d="M296.534,38.634c-0.327,5.511-4.178,9.74-8.6,9.445c-4.423-0.295-7.742-5.002-7.415-10.514
				c0.329-5.511,4.179-9.739,8.601-9.444C293.542,28.417,296.862,33.123,296.534,38.634z"/>
			<path fill="#FFFEFD" d="M296.495,38.6c-0.308,5.494-4.131,9.721-8.539,9.442c-4.409-0.28-7.732-4.96-7.424-10.455
				c0.31-5.493,4.132-9.72,8.54-9.44C293.48,28.426,296.804,33.106,296.495,38.6z"/>
			<path fill="#FFFFFE" d="M296.457,38.565c-0.288,5.477-4.084,9.702-8.478,9.438c-4.395-0.265-7.723-4.918-7.434-10.395
				c0.29-5.476,4.085-9.701,8.479-9.437C293.417,28.436,296.746,33.089,296.457,38.565z"/>
			<path fill="#FFFFFF" d="M296.418,38.531c-0.269,5.459-4.038,9.683-8.417,9.435c-4.38-0.249-7.712-4.875-7.443-10.335
				c0.271-5.458,4.039-9.682,8.418-9.433C293.355,28.446,296.688,33.072,296.418,38.531z"/>
		</g>
		<g>
			<path fill="#FFFFFF" d="M303.829,27.267c-0.34,1.865-1.798,3.165-3.257,2.906c-1.458-0.26-2.365-1.983-2.026-3.846
				c0.34-1.865,1.798-3.165,3.257-2.906C303.262,23.681,304.168,25.403,303.829,27.267z"/>
		</g>
		<g>
			<path fill="#E01B1B" d="M321.573,151.983c-2.263,0.649-4.598,8.242-4.327,10.444c0.357,2.904,3.431,0.922,5.096,0.399
				c1.418-0.445,2.95,0.224,4.482,0.345c1.515,0.12,3.746-1.37,4.964-0.507c1.397-2.316-3.537-6.409-4.939-8.009
				c-0.75-0.854-1.867-2.744-3.004-3.091C322.883,151.27,322.509,151.816,321.573,151.983"/>
		</g>
	</g>
	<g>
		<g>
			<path fill="none" d="M319.996,152.308c1.751-0.75,3.502-0.6,5.253-0.45"/>
		</g>
		<g>
			<path fill="#C1272D" d="M319.996,153.558c1.715-0.673,3.449-0.603,5.253-0.45c-0.051-0.004,0.089-2.493,0-2.5
				c-1.804-0.153-3.538-0.223-5.253,0.45C319.696,151.175,320.263,153.453,319.996,153.558L319.996,153.558z"/>
		</g>
	</g>
</g>
</svg>