<svg xmlns="http://www.w3.org/2000/svg" width="140" height="450">
  <path fill="none" d="M69.5 156.8c-12.7 16.8-44 39.6-34.8 68.5 14 47.2 83.5 4.6 96.3 39.6 17.3 50-107.8 94-50 147"/>
  <path fill="#C1272D" d="M69.5 155.6C57 171.8 38.7 185 34 206c-3.4 14 1.5 31 13.8 39 13 8.2 31 6 45.7 5.7 13-.2 29.6-.2 36.5 13 6.4 12.8-.7 26.8-8 37.3-9 12.7-20.4 23.6-31 35-16.2 17.8-34.8 42-19.8 66.3 2.7 4.3 6.2 8 10 11.5-.5-.4.3-2 0-2.5C70 401 62.6 388 67.6 372.6c4.6-13.7 15-25 24.7-35.5 16.7-18 41.5-38 40.2-65-.7-14-11.2-21-24.5-23-15.6-2-31.4 2-47-1-18.2-3-30.8-20-27-38 4-21 23.2-34 35.5-50 .4-.3-.4-2 0-2.3z"/>
  <ellipse cx="65.4" cy="77.8" fill="#E01E1E" ry="75.8" rx="61.9"/>
  <ellipse cx="65.2" cy="77.6" fill="#E01F1F" ry="75.4" rx="61.5"/>
  <ellipse cx="65" cy="77.4" fill="#E1201F" ry="75.1" rx="61.2"/>
  <ellipse cx="64.7" cy="77.1" fill="#E12120" ry="74.7" rx="60.9"/>
  <ellipse cx="64.5" cy="76.9" fill="#E12220" ry="74.4" rx="60.6"/>
  <ellipse cx="64.3" cy="76.7" fill="#E12321" ry="74" rx="60.3"/>
  <ellipse cx="64.1" cy="76.5" fill="#E22421" ry="73.7" rx="60"/>
  <ellipse cx="63.9" cy="76.2" fill="#E22522" ry="73.3" rx="59.6"/>
  <ellipse cx="63.7" cy="76" fill="#E22622" ry="73" rx="59.3"/>
  <ellipse cx="63.5" cy="75.8" fill="#E22723" ry="72.6" rx="59"/>
  <ellipse cx="63.3" cy="75.5" fill="#E32823" ry="72.2" rx="58.7"/>
  <ellipse cx="63.1" cy="75.3" fill="#E32924" ry="71.9" rx="58.4"/>
  <ellipse cx="62.8" cy="75.1" fill="#E32A24" ry="71.5" rx="58.1"/>
  <ellipse cx="62.6" cy="74.9" fill="#E32B25" ry="71.2" rx="57.7"/>
  <ellipse cx="62.4" cy="74.6" fill="#E42C25" ry="70.8" rx="57.4"/>
  <ellipse cx="62.2" cy="74.4" fill="#E42D26" ry="70.5" rx="57.1"/>
  <ellipse cx="62" cy="74.2" fill="#E42E26" ry="70.1" rx="56.8"/>
  <ellipse cx="61.8" cy="74" fill="#E42F27" ry="69.7" rx="56.5"/>
  <ellipse cx="61.6" cy="73.7" fill="#E53027" ry="69.4" rx="56.2"/>
  <ellipse cx="61.4" cy="73.5" fill="#E53128" ry="69" rx="55.8"/>
  <ellipse cx="61.2" cy="73.3" fill="#E53228" ry="68.7" rx="55.5"/>
  <ellipse cx="60.9" cy="73.1" fill="#E53329" ry="68.3" rx="55.2"/>
  <ellipse cx="60.7" cy="72.8" fill="#E63429" ry="68" rx="54.9"/>
  <ellipse cx="60.5" cy="72.6" fill="#E6352A" ry="67.6" rx="54.6"/>
  <ellipse cx="60.3" cy="72.4" fill="#E6362A" ry="67.2" rx="54.3"/>
  <ellipse cx="60.1" cy="72.2" fill="#E7372B" ry="66.9" rx="53.9"/>
  <ellipse cx="59.9" cy="71.9" fill="#E7382B" ry="66.5" rx="53.6"/>
  <ellipse cx="59.7" cy="71.7" fill="#E7392C" ry="66.2" rx="53.3"/>
  <ellipse cx="59.5" cy="71.5" fill="#E73A2C" ry="65.8" rx="53"/>
  <ellipse cx="59.3" cy="71.3" fill="#E83B2D" ry="65.5" rx="52.7"/>
  <ellipse cx="59" cy="71" fill="#E83C2D" ry="65.1" rx="52.4"/>
  <ellipse cx="58.8" cy="70.8" fill="#E83D2E" ry="64.7" rx="52.1"/>
  <ellipse cx="58.6" cy="70.6" fill="#E83E2E" ry="64.4" rx="51.7"/>
  <ellipse cx="58.4" cy="70.4" fill="#E93F2F" ry="64" rx="51.4"/>
  <ellipse cx="58.2" cy="70.1" fill="#E9402F" ry="63.7" rx="51.1"/>
  <ellipse cx="58" cy="69.9" fill="#E94030" ry="63.3" rx="50.8"/>
  <ellipse cx="57.8" cy="69.7" fill="#E94130" ry="63" rx="50.5"/>
  <ellipse cx="57.6" cy="69.5" fill="#EA4231" ry="62.6" rx="50.2"/>
  <ellipse cx="57.4" cy="69.2" fill="#EA4331" ry="62.2" rx="49.8"/>
  <ellipse cx="57.1" cy="69" fill="#EA4432" ry="61.9" rx="49.5"/>
  <ellipse cx="56.9" cy="68.8" fill="#EA4532" ry="61.5" rx="49.2"/>
  <ellipse cx="56.7" cy="68.5" fill="#EB4633" ry="61.2" rx="48.9"/>
  <ellipse cx="56.5" cy="68.3" fill="#EB4733" ry="60.8" rx="48.6"/>
  <ellipse cx="56.3" cy="68.1" fill="#EB4834" ry="60.5" rx="48.3"/>
  <ellipse cx="56.1" cy="67.9" fill="#EB4934" ry="60.1" rx="47.9"/>
  <ellipse cx="55.9" cy="67.6" fill="#EC4A35" ry="59.7" rx="47.6"/>
  <ellipse cx="55.7" cy="67.4" fill="#EC4B35" ry="59.4" rx="47.3"/>
  <ellipse cx="55.5" cy="67.2" fill="#EC4C36" ry="59" rx="47"/>
  <ellipse cx="55.2" cy="67" fill="#ED4D36" ry="58.7" rx="46.7"/>
  <ellipse cx="55" cy="66.7" fill="#ED4E37" ry="58.3" rx="46.4"/>
  <ellipse cx="54.8" cy="66.5" fill="#ED4F37" ry="58" rx="46"/>
  <ellipse cx="54.6" cy="66.3" fill="#ED5038" ry="57.6" rx="45.7"/>
  <ellipse cx="54.4" cy="66.1" fill="#EE5138" ry="57.3" rx="45.4"/>
  <ellipse cx="54.2" cy="65.8" fill="#EE5239" ry="56.9" rx="45.1"/>
  <ellipse cx="54" cy="65.6" fill="#EE5339" ry="56.5" rx="44.8"/>
  <ellipse cx="53.8" cy="65.4" fill="#EE543A" ry="56.2" rx="44.5"/>
  <ellipse cx="53.6" cy="65.2" fill="#EF553A" ry="55.8" rx="44.1"/>
  <ellipse cx="53.3" cy="64.9" fill="#EF563B" ry="55.5" rx="43.8"/>
  <ellipse cx="53.1" cy="64.7" fill="#EF573B" ry="55.1" rx="43.5"/>
  <ellipse cx="52.9" cy="64.5" fill="#EF583C" ry="54.8" rx="43.2"/>
  <ellipse cx="52.7" cy="64.3" fill="#F0593C" ry="54.4" rx="42.9"/>
  <ellipse cx="52.5" cy="64" fill="#F05A3D" ry="54" rx="42.6"/>
  <ellipse cx="52.3" cy="63.8" fill="#F05B3D" ry="53.7" rx="42.3"/>
  <ellipse cx="52.1" cy="63.6" fill="#F05C3E" ry="53.3" rx="41.9"/>
  <ellipse cx="51.9" cy="63.4" fill="#F15D3E" ry="53" rx="41.6"/>
  <ellipse cx="51.7" cy="63.1" fill="#F15E3F" ry="52.6" rx="41.3"/>
  <ellipse cx="51.4" cy="62.9" fill="#F15F3F" ry="52.3" rx="41"/>
  <ellipse cx="51.2" cy="62.7" fill="#F16040" ry="51.9" rx="40.7"/>
  <ellipse cx="51" cy="62.5" fill="#F26140" ry="51.5" rx="40.4"/>
  <ellipse cx="50.8" cy="62.2" fill="#F26241" ry="51.2" rx="40"/>
  <ellipse cx="50.7" cy="62.4" fill="#F26341" ry="50.8" rx="39.8" transform="translate(.083 -.418)"/>
  <path fill="#F26441" d="M90 62c0 27.8-17.8 50.4-39.6 50.3-21.8 0-39.5-22.7-39.4-50.6 0-28 17.8-50.4 39.7-50.4C72.5 11.3 90 34 90 62z"/>
  <path fill="#F26541" d="M89.6 61.8c0 27.7-17.7 50-39.4 50S11 89.2 11.2 61.5c0-27.7 17.7-50 39.4-50s39.2 22.6 39 50.3z"/>
  <path fill="#F26641" d="M89.2 61.6c0 27.6-17.7 49.8-39.2 49.7s-39-22.6-38.8-50c.2-27.6 17.8-49.8 39.3-49.7 21.6 0 39 22.5 38.7 50z"/>
  <path fill="#F36741" d="M88.8 61.5c0 27.3-17.6 49.4-39 49.2-21.4 0-38.6-22.4-38.4-49.7.2-27.4 17.6-49.4 39-49.3S89 34.2 88.8 61.5z"/>
  <path fill="#F36841" d="M88.4 61.4c-.2 27-17.6 49-38.8 48.8-21.3-.2-38.3-22.3-38-49.5 0-27.2 17.5-49 38.8-48.8 21.2 0 38.3 22 38 49z"/>
  <path fill="#F36941" d="M88 61.2c-.2 27-17.5 48.7-38.7 48.5-21-.3-38-22.3-37.7-49.3.3-27 17.6-48.6 38.7-48.4 21 .2 38 22.2 37.7 49.2z"/>
  <path fill="#F36A41" d="M87.6 61C87.3 88 70 109.5 49 109c-20.8 0-37.6-22-37.3-48.8.3-26.8 17.6-48.3 38.5-48 21 .2 37.7 22 37.4 49z"/>
  <path fill="#F36B41" d="M87.2 61C87 87.4 69.7 109 49 108.5c-21-.3-37.5-22-37.2-48.7C12.2 33 29.3 11.8 50 12c21 .3 37.7 22 37.3 48.7z"/>
  <path fill="#F36C41" d="M86.8 60.8c-.3 26.4-17.4 47.6-38 47.3S11.5 86 12 60c.3-26.4 17.4-47.6 38-47.3 20.8.3 37.2 22 36.8 48.4z"/>
  <path fill="#F36D41" d="M86.4 60.6c-.4 26.3-17.4 47.2-38 47-20.4-.4-36.7-22-36.3-48.2 1-26.2 18-47.2 38-47 21 .5 37 22 37 48.2z"/>
  <path fill="#F36E41" d="M86 60.5c-.4 26-17.3 46.8-37.7 46.5s-36.6-21.8-36-47.8c.3-26 17.2-47 37.6-46.5 20 .3 36 21.7 36 47.8z"/>
  <path fill="#F46F41" d="M85.6 60.3c-.5 26-17.3 46.5-37.5 46-20 0-36-21.3-35-47.3 1-26 17-46.6 38-46.2 20 .4 36 21.7 36 47.5z"/>
  <path fill="#F47041" d="M85.2 60.2C84.7 86 68 106.2 48 106c-20.2-.5-36-21.7-35.6-47.3C13 33 29.7 12.5 49.8 13c20 .4 36 21.5 35.4 47.2z"/>
  <path fill="#F47141" d="M84.8 60c-.5 25.5-17.2 45.8-37 45.4-20-.5-35.8-21.5-35.3-47C13 33 29.7 12.6 49.7 13s35.7 21.6 35 47z"/>
  <path fill="#F47241" d="M84.4 60c-.6 25.2-17 45.3-37 44.8-19.8-.4-35.3-21.3-34.7-46.6.6-25.3 17-45.5 37-45C69.3 13.7 85 34.6 84.3 60z"/>
  <path fill="#F47341" d="M84 59.8c-.6 25-17 45-36.7 44.5C27.6 103.8 12 83 12.8 58c.6-25.2 17-45 36.8-44.6 19.6.5 35 21.3 34.4 46.4z"/>
  <path fill="#F47441" d="M83.6 59.6c-.6 25-17 44.7-36.6 44.2-19.5-.6-34.8-21.2-34-46 .6-25 17-44.8 36.5-44.3s34.8 21.2 34 46z"/>
  <path fill="#F47541" d="M83.2 59.5c-.7 24.7-17 44.3-36.4 43.7-19.4-.5-34.5-21-33.8-45.8.7-24.7 17-44.3 36.4-43.8s34.5 21 33.8 46z"/>
  <path fill="#F47641" d="M82.8 59.3c-.7 24.6-17 44-36.2 43.4C27.4 102 12.4 81.7 13 57c1-24.3 17-43.7 36.4-43 19.3.6 34.3 21 33.5 45.5z"/>
  <path fill="#F57741" d="M82.4 59.2c-.8 24.4-17 43.6-36 43-19-.7-34-21-33-45.3.6-25 16.8-44 36-43 19 0 33.8 20 33 45z"/>
  <path fill="#F57841" d="M82 59c-.8 24.2-16.8 43.3-35.8 42.6-19-.6-33.7-20.8-32.8-45 .8-24 16.8-43.2 35.8-42.5 19 1 33.6 21 32.8 45z"/>
  <path fill="#F57941" d="M81.6 59c-.8 24-16.8 42.8-35.6 42-18.8-.6-33.4-20.6-32.5-44.6 1-24 16.8-43 35.6-42.2C68 15 83 35 82 59z"/>
  <path fill="#F57A41" d="M81.2 58.8c-1 23.8-16.7 42.5-35.4 41.8C27 99.8 12.8 80 13.6 56c1-23.6 16.8-42.3 35.4-41.6C67.7 15 82 35 81.2 58.8z"/>
  <path fill="#F57B41" d="M80.8 58.6c-1 23.6-16.7 42.2-35.2 41.4-18.6-.7-32.8-20.5-32-44s17-42.4 35.4-41.6 32.8 20.5 31.8 44z"/>
  <path fill="#F57C41" d="M80.4 58.5c-1 23.4-16.7 41.8-35 41S13 79 13.8 55.5c1-23.3 16.7-41.7 35-41 18.5 1 32.6 20.5 31.6 44z"/>
  <path fill="#F57D41" d="M80 58.3C79 81.6 63.4 99.8 45.2 99 27 98 13 78.5 14 55.3 15 32 30.6 14 48.8 14.7 67 15.7 81 35 80 58.3z"/>
  <path fill="#F57E41" d="M79.6 58.2c-1 23-16.6 41-34.7 40.2-19-.8-32-20.2-31-43.4 1-23 16-41 34-40s32 20 31 43.6z"/>
  <path fill="#F67F41" d="M79.2 58c-1 23-16.5 40.7-34.5 40-18-1-31.6-20.3-30.5-43 1-23 16.5-41 34.5-40s31.6 20 30.5 43z"/>
  <path fill="#F68041" d="M78.8 58c-1 22.6-16.5 40.2-34.3 39.3s-31.3-20-30.2-42.7c1-22.7 16.5-40.4 34.3-39.4S80 35.2 78.8 58z"/>
  <path fill="#F68141" d="M78.4 57.7c-1.2 22.5-16.4 40-34 39-17.7-.8-31-19.8-30-42.4 1.2-22.5 16.5-40 34-39 17.8 1 31.2 20 30 42.4z"/>
  <path fill="#F68241" d="M78 57.6C76.8 80 61.6 97.2 44 96.3S13.5 76.3 14.7 54c1-22 16.3-39.4 34-38.5 17.3 1 30.3 20 29.3 42z"/>
  <path fill="#F68341" d="M77.6 57.4C76.4 79.6 61.3 96.7 44 95.7c-17.5-1-30.6-19.7-29.3-42 1.2-22 16.3-39 33.7-38 17.4 1 30.4 19.6 29.2 41.7z"/>
  <path fill="#F68441" d="M77.2 57.3c-1.3 22-16.3 39-33.5 38s-30.2-19.8-29-41.7 16.4-39 33.6-38c17.2 1 30.2 19.8 29 41.7z"/>
  <path fill="#F68541" d="M76.8 57.2C75.5 79 60.6 95.7 43.5 94.7c-17-1-30-19.6-28.6-41.4 1-21.7 16-38.5 33-37.5s30 19.6 28 41.4z"/>
  <path fill="#F68641" d="M76.4 57c-1.3 21.6-16.2 38.2-33 37-17-1-29.7-19.3-28.4-41 1.4-21.5 16.2-38 33.2-37 17 1 29.6 19.4 28.2 41z"/>
  <path fill="#F78741" d="M76 57c-1.4 21.3-16 37.7-33 36.6S14 74.2 15 52.8C16.6 31.4 31.4 15 48 16c17 1.2 29.4 19.5 28 41z"/>
  <path fill="#F78841" d="M75.6 56.7C74.2 78 59.6 94.2 42.8 93c-16.6-1-29-19.2-27.5-40.4C16.7 31.4 31.3 15 48 16.2c16.7 1.2 29 19.3 27.6 40.5z"/>
  <path fill="#F78941" d="M75.2 56.6c-1.5 21-16 37-32.6 36C26 91.2 14 73.2 15.4 52.2c1.4-21 16-37 32.5-36 16 1.5 28 19.5 27 40.5z"/>
  <path fill="#F78A41" d="M74.8 56.4c-1.5 21-16 36.8-32.4 35.6C26 90.8 14 73 15.4 52 17 31.3 31.4 15.4 48 16.6s28.3 19 26.8 40z"/>
  <path fill="#F78B41" d="M74.4 56.3c-1.5 20.6-16 36.4-32.2 35-16.2-1-28-18.8-26.6-39.5 1.6-20.6 16-36.4 32.2-35 16.2 1 28 18.8 26.6 39.5z"/>
  <path fill="#F78C41" d="M74 56c-1.6 20.6-16 36.2-32 35-16-1.4-27.8-19-26.3-39.4 1.6-20.5 16-36 32-34.8 16 1.3 28 19 26.3 39.3z"/>
  <path fill="#F78D41" d="M73.6 56c-1.6 20.3-16 35.7-31.8 34.4s-27.6-18.8-26-39C17.5 31 31.8 15.6 47.6 17c16 1 27.6 18.6 26 39z"/>
  <path fill="#F78E41" d="M73.2 56c-1.7 20-15.8 35-31.6 33.7C25.8 88.5 14.3 71 16 51c1.6-20 15.8-35.3 31.6-34 15.8 1.5 27.2 19 25.6 39z"/>
  <path fill="#F88F41" d="M72.8 55.7c-1.7 20-15.8 35-31.4 33.6C25.7 88 14.4 70.7 16 50.8c1.8-20 15.8-35 31.5-33.6 15.6 1.4 27 18.6 25.3 38.5z"/>
  <path fill="#F89041" d="M72.4 55.6C70.7 75.3 56.7 90 41.2 88.8c-15.5-1.4-26.7-18.5-25-38.3C18 30.8 32 16 47.4 17.3 63 18.7 74 35.8 72.4 55.6z"/>
  <path fill="#F89141" d="M72 55.4C70.2 75 56.3 89.6 41 88.2c-15.4-1.4-26.4-18.4-24.7-38 1.8-19.5 15.7-34 31-32.7C62.7 19 73.7 36 72 55.5z"/>
  <path fill="#F89241" d="M71.6 55.3C69.8 74.6 56 89 40.8 87.7 25.5 86.2 14.6 69.4 16.4 50c1.8-19.3 15.6-33.8 31-32.4 15 1.5 26 18.3 24.2 37.7z"/>
  <path fill="#F89341" d="M71.2 55c-2 19.3-15.6 33.6-30.7 32.2-15-1.5-25.8-18.3-24-37.4 2-19.2 15.6-33.5 30.7-32C62.2 19.2 73 36 71.2 55z"/>
  <path fill="#F89441" d="M70.8 55c-2 19-15.5 33-30.5 31.6-15-1.5-25.5-18-23.6-37C18.5 30.6 32.2 16.4 47 18s26 18 24 37z"/>
  <path fill="#F89541" d="M70.4 54.8C68.4 73.6 55 87.6 40 86c-14.6-1.4-25-18-23-36.6 1.8-19 15.3-33 30-31.4s25.3 18 23.4 36.8z"/>
  <path fill="#F89641" d="M70 54.7C68 73.3 54.6 87 40 85.5 25.2 84 15 67.5 17 49c2-18.6 15.3-32.4 30-30.8 14.6 1.5 25 18 23 36.5z"/>
  <path fill="#F99642" d="M69.6 54.6c-2 18.4-15.4 32-30 30.4S15 67.2 17 48.8c2-18.5 15.4-32 30-30.5C61.3 20 71.5 36 69.5 54.6z"/>
  <path fill="#F99742" d="M69.2 54.4c-2 18.2-15.3 31.7-29.7 30C25 83 15 66.8 17 48.4c2.2-18 15.5-31.5 29.8-30 14.4 1.8 24.4 18 22.4 36z"/>
  <path fill="#F99842" d="M68.8 54.3c-2 18-15.3 31.3-29.5 29.6-14.3-2-24-18-22-36s15.2-32 29.5-30c14.2 1 24 17 22 36z"/>
  <path fill="#F99942" d="M68.4 54c-2 18-15.2 31-29.3 29.4C25 81.7 16 66 18 48c1.8-18 15-31 29-29.3S70.4 36.3 68.3 54z"/>
  <path fill="#F99A42" d="M68 54c-2.2 17.7-15.2 30.6-29 29S15.3 65.3 17.4 47.6c2-17.6 15.2-30.6 29-29C60.4 20.6 70 36.2 68 54z"/>
  <path fill="#F99B42" d="M67.6 53.8c-2.2 17.5-15 30.3-29 28.5-13.6-1.7-23-17.3-21-34.8C20 30 32.6 17.2 46.6 19c14 1.7 23 17.3 21 34.8z"/>
  <path fill="#F99C42" d="M67.2 53.7c-2.2 17.3-15 30-28.8 28-13.6-1.7-23-17.2-20.7-34.5 2.2-17.3 15-30 28.8-28C60 21 69.5 36.4 67.2 53.7z"/>
  <path fill="#F99D42" d="M66.8 53.5c-2.3 17.2-15 29.6-28.6 27.8C24.7 79.3 15.6 64 18 47c2-17 15-29.6 28.4-27.7C60 21 69 36.3 66.8 53.5z"/>
  <path fill="#FA9E42" d="M66.4 53.4c-2.3 17-15 29.2-28.4 27.3-13.3-1.8-22.3-17-20-34 2.3-17 15-29 28.3-27.3 13.4 1.8 22.4 17 20 34z"/>
  <path fill="#FA9F42" d="M66 53.2c-2.4 16.8-15 29-28.2 27s-22-17-19.7-33.7c3-16.8 15-28.8 29-27 14 2 22 17 20 33.7z"/>
  <path fill="#FAA042" d="M65.6 53c-2.4 16.7-15 28.6-28 26.7s-21.8-17-19.4-33.5c2.4-16.5 15-28.4 28-26.5 13 2 21.7 16.8 19.4 33.4z"/>
  <path fill="#FAA142" d="M65.2 53c-2.4 16.3-15 28-27.8 26-13-1.8-21.5-16.7-19-33C20.6 29.6 33 18 46 19.8S67.7 36.6 65.3 53z"/>
  <path fill="#FAA242" d="M64.8 52.8C62.3 69 50 80.5 37.2 78.6c-12.8-2-21.2-16.7-18.8-33C21 29.6 33.2 18 46 20s21.2 16.6 18.8 32.8z"/>
  <path fill="#FAA342" d="M64.4 52.7C62 68.7 49.6 80 37 78c-12.7-2-21-16.5-18.4-32.5C21 29.5 33.3 18 46 20c12.6 2 20.8 16.7 18.4 32.7z"/>
  <path fill="#FAA442" d="M64 52.5c-2.6 15.8-14.7 27-27.2 25S16.2 61 18.8 45.2c2.4-15.8 14.6-27 27-25 12.6 2 20.7 16.5 18.2 32.3z"/>
  <path fill="#FAA542" d="M63.6 52.4C61 68 49 79 36.6 77S16.3 60.6 18.8 45c2.5-15.7 14.6-26.7 27-24.6s20.3 16.3 17.8 32z"/>
  <path fill="#FBA642" d="M63.2 52.2c-2.6 15.5-14.6 26.3-26.8 24.2C24 74.4 16.4 60 19 44.7c2.5-15.5 14.5-26.3 26.7-24.2 12.2 2 20 16.3 17.5 31.7z"/>
  <path fill="#FBA742" d="M62.8 52C60 67.5 48.2 78 36 76c-12-2.2-19.6-16.3-17-31.6 2.7-15.2 14.6-26 26.6-23.8 12 2 19.8 16.2 17.2 31.5z"/>
  <path fill="#FBA842" d="M62.4 52C59.7 67 48 77.4 36 75.3 24 73 16.5 59.3 19.2 44c2.6-15 14.4-25.5 26.4-23.3 12 2 19.4 16 16.8 31z"/>
  <path fill="#FBA942" d="M62 51.8c-2.7 15-14.5 25.2-26.3 23-11.8-2-19-16-16.4-31C22 29 33.7 19 45.5 21c11.8 2.3 19 16 16.5 31z"/>
  <path fill="#FBAA42" d="M61.5 51.7c-2.7 14.7-14.3 24.8-26 22.6-11.6-2.2-18.8-16-16-30.6C22 29 33.7 18.7 45.5 21 57 23.2 64 37 61.5 51.7z"/>
  <path fill="#FBAB42" d="M61 51.5C58.5 66 47 76 35.4 73.8c-11.5-2.3-18.6-16-15.8-30.4C22.3 29 34 19 45.3 21.2S64 37 61 51.5z"/>
  <path fill="#FBAC42" d="M60.7 51.4C58 65.7 46.5 75.4 35 73.2c-11.2-2.2-18-15.7-15.3-30C22.4 28.8 34 19 45.3 21.2 56.6 23.7 63.6 37 60.7 51.5z"/>
  <path fill="#FBAD42" d="M60.3 51.2C57.5 65.4 46 75 35 72.7 23.6 70.4 17 57 19.6 43c3-14.3 14.4-24 25.6-21.7 11.2 2.3 18 15.7 15 29.8z"/>
  <path fill="#FCAE42" d="M60 51c-3 14-14.3 23.5-25.3 21C23.7 70 17 56.7 20 42.8c2.7-14 14-23.4 25-21C56.3 23.8 63 37 60 51z"/>
  <path fill="#FCAF42" d="M59.5 51c-3 13.7-14 23-25 20.6C23.5 69.3 17 56.2 20 42.4c3-13.8 14-23 25-20.7C56 24 62.6 37.2 59.6 51z"/>
  <path fill="#FCB042" d="M59 50.8C56.3 64.4 45 73.5 34.4 71 23.4 68.8 17 55.8 20 42.3 23 28.6 34.3 19.5 45 22c10.8 2 17 15 14 28.7z"/>
  <path fill="#FCB142" d="M58.7 50.6c-3 13.4-14 22.4-24.7 20C23.4 68 17.2 55.2 20.2 41.8c3-13.5 14-22.4 24.7-20C55 24.2 61 37 58 50.4z"/>
  <path fill="#FCB242" d="M58.3 50.5c-3 13.2-14 22-24.5 19.5-10.5-2.4-16.5-15-13.5-28.4 3-13.2 14-22 24.5-19.5 10.5 3 16.6 16 13.5 29z"/>
  <path fill="#FCB342" d="M58 50.4c-3 13-14 21.5-24.4 19-10.3-2.4-16.2-15-13-28 3-13 13.8-21.6 24.2-19 10.3 2.3 16.2 15 13 28z"/>
  <path fill="#FCB442" d="M57.5 50.2c-3 13-14 21.2-24 18.7-10.3-3-16-15-13-28 3.2-13 14-21 24.2-19 10.3 2 16 15 12.8 28z"/>
  <path fill="#FCB542" d="M57 50c-3 12.7-13.7 21-23.8 18.4-10-2.5-15.7-15-12.5-27.5 3-13 13.8-21 24-19S60.2 37 57 50z"/>
  <path fill="#FDB642" d="M56.7 50C53.5 62.3 43 70.3 33 68c-10-2.7-15.4-15-12.2-27.4C24 28.2 34.6 20 44.5 22.6S60 37.6 56.7 50z"/>
  <path fill="#FDB742" d="M56.3 49.8C53 62 42.6 69.8 32.8 67.3c-9.8-2.6-15-14.6-12-27 3.3-12.2 14-20 23.7-17.5 9.7 2.6 15 14.7 11.8 27z"/>
  <path fill="#FDB842" d="M56 49.6c-3.3 12-13.8 19.8-23.4 17.2C23 64.2 17.8 52.2 21 40c3.3-12 13.8-19.7 23.4-17C54 25.6 59.2 37.5 56 49.6z"/>
  <path fill="#FDB942" d="M55.5 49.5c-3.3 12-13.6 19.4-23 16.8C22.8 63.6 17.8 51.8 21 40c3.3-12 13.6-19.6 23-17 10 2.8 15 14.7 11.6 26.6z"/>
  <path fill="#FDBA42" d="M55 49.3c-3 11.7-13.4 19-22.7 16.4-9.4-2.7-14.3-14.4-11-26 3.4-12 13.7-19.3 23-16.7s14.3 14.4 11 26z"/>
  <path fill="#FDBB42" d="M54.7 49.2C51.4 60.7 41.2 68 32 65.2 22.8 62.5 18 51 21.4 39.4c3.4-11.6 13.6-18.7 22.8-16 9.2 2.7 14 14.2 10.5 25.8z"/>
  <path fill="#FDBC42" d="M54.3 49C51 60.4 40.8 67.4 31.7 64.6 22.7 62 18 50.6 21.5 39 25 27.8 35 21 44 23.6s13.8 14 10.4 25.4z"/>
  <path fill="#FDBD42" d="M54 49c-3.5 11-13.5 18-22.5 15-9-2.7-13.3-14-10-25.2C25 27.8 35 20.8 44 23.6c9 2.8 13.4 14 10 25.3z"/>
  <path fill="#FEBE42" d="M53.5 48.8C50 59.8 40 66.4 31.3 63.6c-8.7-2.8-13-14-9.6-25C25.2 27.6 35.2 21 44 23.8c8.7 2.8 13 14 9.5 25z"/>
  <path fill="#FEBF42" d="M53 48.6C49.7 59.4 39.8 66 31 63c-8.5-2.8-12.7-14-9-24.7C25.3 27.5 35 21 44 24c8.5 2.8 12.6 13.8 9 24.6z"/>
  <path fill="#FEC042" d="M52.7 48.5c-3.5 10.6-13.3 17-21.8 14-9-3-13-13.8-9-24.5 3-10.3 13-16.6 21-14s12 14 9 24.6z"/>
  <path fill="#FEC142" d="M52.3 48.3C48.7 58.8 39 65 30.7 62S18.5 48.3 22 37.8c4-10.4 13.6-16.5 22-13.6 8.4 3 12.2 13.7 8.6 24z"/>
  <path fill="#FEC242" d="M52 48.2c-3.7 10.2-13.3 16.2-21.5 13.2s-12-13.6-8.3-23.8C26 27.3 35.5 21.4 43.7 24.3c8.2 3 12 13.6 8.2 24z"/>
  <path fill="#FEC342" d="M51.5 48c-3.7 10-13.2 16-21.2 13s-11.6-13.6-8-23.7c3.7-10 13.2-15.8 21.3-12.8 8 3 11.6 13.5 8 23.5z"/>
  <path fill="#FEC442" d="M51 48c-3.6 9.8-13 15.3-21 12.4-7.8-3-11.3-13.5-7.5-23.3 3.7-9 13-15 21-12S54.8 38 51 48z"/>
  <path fill="#FEC542" d="M50.7 47.7c-3.7 9.7-13 15-20.8 12-8-3-12-13.2-8-23 3-9.6 13-15 21-12s11 13.3 7 23z"/>
  <path fill="#FFC642" d="M50.3 47.6c-3.8 9.5-13 14.7-20.7 11.7-7.6-3-10.7-13.2-7-22.7 4-9.5 13-14.8 20.8-11.7s10.6 13 7 22z"/>
  <path fill="#FFC742" d="M50 47.5c-4 9.3-13 14.3-20.6 11.3-7.4-3-10.4-13.2-6.6-22.5C26.6 27 35.8 22 43.3 25S53.7 38 50 47.5z"/>
  <path fill="#FFC842" d="M49.5 47.3c-4 9-13 14-20.3 11C22 55 19.2 45.3 23 36c3.8-9 13-14 20.2-11 7.3 3.3 10.2 13.2 6.3 22.3z"/>
  <path fill="#FFC942" d="M49 47.2c-3.8 9-12.8 13.6-20 10.5-7.2-3.2-10-13-6-22C27 27 36 22 43 25.3c7.3 3 10 13 6 22z"/>
  <ellipse cx="59.2" cy="145.6" fill="#FFCA42" ry="17.4" rx="14" transform="rotate(24.19 290.972 39.312)"/>
  <ellipse cx="59" cy="145.4" fill="#FFCA43" ry="17.3" rx="14" transform="rotate(24.133 290.907 39.284)"/>
  <ellipse cx="58.9" cy="145.1" fill="#FFCB44" ry="17.3" rx="13.9" transform="rotate(24.077 290.887 39.243)"/>
  <ellipse cx="58.8" cy="144.8" fill="#FFCB45" ry="17.3" rx="13.9" transform="rotate(24.006 290.89 39.28)"/>
  <ellipse cx="58.6" cy="144.6" fill="#FFCB46" ry="17.2" rx="13.9" transform="rotate(23.95 290.882 39.244)"/>
  <ellipse cx="58.5" cy="144.3" fill="#FFCB47" ry="17.2" rx="13.8" transform="rotate(23.884 290.864 39.25)"/>
  <ellipse cx="58.4" cy="144.1" fill="#FFCC48" ry="17.1" rx="13.8" transform="rotate(23.823 290.84 39.236)"/>
  <path fill="#FFCC49" d="M48.4 46.8c-3.8 8.6-12.5 13-19.4 10-7-3-9.5-12.5-5.7-21C27 27 35.8 22.4 42.7 25.5c7 3 9.5 12.5 5.7 21.2z"/>
  <path fill="#FFCC4A" d="M48.4 46.7C44.6 55.4 36 60 29 56.7c-7-3-9.5-12.4-5.7-21 3.7-8.6 12.4-13 19.4-10 7 3 9.5 12.4 5.7 21z"/>
  <path fill="#FFCD4B" d="M48.4 46.7c-3.8 8.6-12.5 13-19.4 10-7-3-9.5-12.4-5.7-21 3.7-8.6 12.4-13 19.3-10s9.5 12.4 5.8 21z"/>
  <path fill="#FFCD4C" d="M48.3 46.7c-3.7 8.6-12.4 13-19.3 10-7-3-9.4-12.4-5.7-21 3.7-8.5 12.4-13 19.3-10 7 3 9.5 12.4 5.7 21z"/>
  <path fill="#FFCD4D" d="M48.3 46.6c-3.7 8.6-12.3 13-19.2 10-6-3-9-12.2-5-20.8 4-8.6 13-13 19-10s9 12.2 6 20.7z"/>
  <path fill="#FFCD4E" d="M48.2 46.6c-3.7 8.6-12.2 13-19 10-7-3-9.6-12.2-6-20.8 3.8-8.5 12.4-13 19.3-10 7 3 9.4 12.3 5.7 20.8z"/>
  <path fill="#FFCE4F" d="M48.2 46.6c-3.7 8.5-12.2 13-19 10-7-3-9.6-12.2-6-20.8 3.8-8.5 12.4-13 19.2-10 7 3 9.5 12.2 5.8 20.8z"/>
  <path fill="#FFCE50" d="M48.2 46.5c-3.7 8.6-12.2 13-19 10-7-2.8-9.5-12-6-20.7 3.8-8.5 12.3-13 19.2-10 6.8 3 9.4 12.2 5.8 20.7z"/>
  <path fill="#FFCE51" d="M48 46.5c-3.5 8.5-12 13-19 10-6.7-3-9.3-12-5.6-20.6 3.6-9 12-13 19-11 6.8 3 9.4 12 5.7 20z"/>
  <path fill="#FFCE52" d="M48 46.5c-3.5 8.5-12 13-18.8 10-7-3-9.5-12-5.8-20.6 3.6-9 12-13 19-11 6.6 3 9.3 12 5.6 21z"/>
  <path fill="#FFCF53" d="M48 46.4c-3.6 8.5-12 13-18.8 10-6.8-2.8-9.4-12-5.8-20.5 3.6-9 12-13 18.8-10 7 2 9.5 12 6 20z"/>
  <path fill="#FFCF54" d="M48 46.4c-3.6 8.4-12 13-18.8 10-6.8-2.8-9.4-12-5.8-20.5 3.6-9 12-13 18.8-10 6.8 2 9.4 12 5.8 20z"/>
  <path fill="#FFCF55" d="M48 46.4c-3.6 8.4-12 13-18.8 10-6.8-3-9.4-12-5.8-20.4 3.6-8.5 12-13 18.7-10 7 2.8 10 12 6 20.4z"/>
  <path fill="#FFD056" d="M48 46.3c-3.6 8.4-12 13-18.7 10-6.8-2.8-9.4-12-6-20.3 3.7-8.4 12-13 18.8-10 7 2.8 10 12 6 20.3z"/>
  <path fill="#FFD057" d="M48 46.3c-3.6 8.4-12 13-18.7 10-6.8-2.8-9.4-12-6-20.3 3.7-8.4 12-13 18.8-10 7 2.8 10 12 6 20.3z"/>
  <path fill="#FFD058" d="M48 46.3c-3.7 8.3-12 12.8-18.7 10-6.7-2.8-9.4-12-6-20.3 3.7-8.4 12-13 18.7-10 6.7 2.8 9.4 12 6 20.3z"/>
  <path fill="#FFD059" d="M47.8 46.2c-3.5 8.4-11.8 13-18.5 10-6.7-2.7-9.3-11.8-5.8-20.2C27 27.7 35.2 23.2 42 26c6.7 2.8 9.3 12 5.8 20.2z"/>
  <path fill="#FFD15A" d="M47.8 46.2C44.3 54.5 36 59 29.3 56.2c-6.7-2.8-9.3-11.8-5.8-20C27 27.6 35.2 23 42 26c6.6 2.8 9.3 12 5.8 20.2z"/>
  <path fill="#FFD15B" d="M47.7 46.2C44.3 54.5 36 59 29.4 56.2c-6.7-2.8-9.4-11.8-6-20C27 27.7 35.4 23 42 26c6.6 2.6 9.2 11.6 5.7 20z"/>
  <path fill="#FFD15C" d="M47.7 46C44.3 54.5 36 59 29.4 56.3c-6.7-2.8-9.3-11.8-6-20C27 27.7 35.2 23 42 26c6.7 2.6 9.3 11.6 6 20z"/>
  <path fill="#FFD25D" d="M47.7 46C44.3 54.5 36 59 29.4 56c-6.7-2.6-9.3-11.6-6-20C27 28 35.2 23.5 42 26s9.3 11.8 6 20z"/>
  <path fill="#FFD25E" d="M47.6 46C44.2 54.4 36 59 29.4 56c-6.6-2.7-9.3-11.6-6-20C27 28 35 23.4 41.7 26c6.7 3 9.3 11.8 6 20z"/>
  <path fill="#FFD25F" d="M47.6 46c-3.4 8.3-11.5 12.8-18 10-6.8-2.7-9.4-11.6-6-19.8 3.3-8.3 11.4-12.8 18-10 6.7 2.7 9.4 11.6 6 19.8z"/>
  <path fill="#FFD260" d="M47.5 46c-3.3 8.2-11.4 12.7-18 10-6.7-2.7-9.3-11.6-6-19.8 3.4-8.2 11.5-12.7 18-10 6.7 2.7 9.4 11.6 6 19.8z"/>
  <path fill="#FFD361" d="M47.5 46c-3.3 8.2-11.4 12.7-18 10-6.6-2.7-9.3-11.6-6-19.8 3.4-8.2 11.5-12.7 18-10s9.3 11.5 6 19.8z"/>
  <path fill="#FFD362" d="M47.5 46c-3.3 8-11.4 12.6-18 10-6.6-2.7-9.2-11.6-6-19.8 3.4-8.2 11.4-12.6 18-10 6.6 2.7 9.3 11.5 6 19.7z"/>
  <path fill="#FFD363" d="M47.4 46C44 54 36 58.4 29.4 56c-6.4-2.8-9-11.6-5.8-19.7 3.3-8.2 11.3-12.7 18-10 6.5 2.6 9 11.4 5.8 19.6z"/>
  <path fill="#FFD464" d="M47.4 46C44 54 36 58.4 29.6 56c-6.6-2.8-9.3-11.6-6-19.7C27 28 35 23.6 41.4 26.3c6.6 2.6 9.3 11.4 6 19.6z"/>
  <path fill="#FFD465" d="M47.4 45.8C44 54 36 58.4 29.6 55.8c-6.6-2.6-9.2-11.3-6-19.5 3.3-8 11.2-12.6 17.8-10 6.5 2.6 9.2 11.4 6 19.5z"/>
  <path fill="#FFD466" d="M47.3 45.8c-3.2 8-11 12.6-17.7 10-6.5-2.6-9.2-11.3-6-19.5 3.3-8 11.2-12.6 17.7-10s9.3 11.4 6 19.5z"/>
  <path fill="#FFD467" d="M47.3 45.8c-3.2 8-11 12.5-17.7 10-6.5-2.7-9.2-11.3-6-19.5 3.3-8 11.2-12.5 17.7-10 6.5 2.7 9.2 11.3 6 19.4z"/>
  <path fill="#FFD568" d="M47.2 45.7c-3.2 8-11 12.6-17.5 10-6.6-2.6-9.3-11.2-6-19.3 3-8 11-12.6 17.5-10 6.5 2.6 9.2 11.2 6 19.3z"/>
  <path fill="#FFD569" d="M47.2 45.7c-3.2 8-11 12.5-17.5 10-6.5-2.6-9.2-11.2-6-19.3 3-8 11-12.6 17.5-10s9.2 11.2 6 19.3z"/>
  <path fill="#FFD56A" d="M47.2 45.6c-3.2 8-11 12.6-17.5 10-6.5-2.5-9.2-11-6-19.2 3-8 11-12.5 17.4-10 7 2.6 10 11.2 7 19.2z"/>
  <path fill="#FFD56B" d="M47 45.6c-3 8-10.8 12.5-17.3 10s-9.2-11-6-19.2c3-8 11-12.5 17.4-10 7 2.6 10 11.2 6 19.2z"/>
  <path fill="#FFD66C" d="M47 45.6c-3 8-10.8 12.5-17.3 10-6.4-2.6-9-11-6-19 3-8.2 11-12.6 17.3-10 6.5 2.4 9.2 11 6 19z"/>
  <path fill="#FFD66D" d="M47 45.5c-3 8-10.8 12.5-17.2 10-6.5-2.5-9.2-11-6-19 3-8 10.7-12.5 17.2-10 6.4 2.5 9 11 6 19z"/>
  <path fill="#FFD66E" d="M47 45.5c-3 8-10.8 12.5-17.2 10-6.4-2.5-9.2-11-6-19 3-8 10.7-12.5 17-10s9.3 11 6.2 19z"/>
  <path fill="#FFD76F" d="M47 45.5c-3 8-10.8 12.4-17.2 10-6.4-2.5-9-11-6-19s10.7-12.4 17-10c6.5 2.5 9.2 11 6.2 19z"/>
  <path fill="#FFD770" d="M47 45.4c-3 8-10.8 12.5-17.2 10-6.4-2.5-9-11-6-19 3-7.8 10.6-12.3 17-9.8 6.5 2.4 9.2 11 6 18.8z"/>
  <path fill="#FFD771" d="M47 45.4c-3 8-10.8 12.4-17 10-6.5-2.5-9.3-11-6.2-18.8 3-8 10.6-12.4 17-10s9 11 6 18.8z"/>
  <path fill="#FFD772" d="M47 45.4c-3 8-10.8 12.3-17 10-6.5-2.5-9.2-11-6.2-18.8 3-8 10.6-12.4 17-10 6.3 2.5 9 11 6 18.8z"/>
  <path fill="#FFD873" d="M46.8 45.3c-3 8-10.5 12.4-17 10-6.3-2.4-9-10.8-6-18.7 3-8 10.5-12.4 17-10 6.3 2.5 9 10.8 6 18.7z"/>
  <path fill="#FFD874" d="M46.8 45.3c-3 8-10.5 12.3-17 10-6.2-2.5-9-10.8-6-18.7 3-8 10.5-12.3 17-10 6.2 2.5 9 10.8 6 18.7z"/>
  <path fill="#FFD875" d="M46.7 45.3c-3 7.8-10.4 12.3-16.8 10-7-2.5-9-10.8-7-18.7 3-7.8 10-12.3 17-10s9 10.8 6 18.7z"/>
  <path fill="#FFD976" d="M46.7 45.2c-3 8-10.4 12.3-16.7 10-6.4-2.4-9-10.7-6.2-18.5 3-8 10.4-12.3 16.8-10 6.3 2.4 9 10.7 6 18.5z"/>
  <path fill="#FFD977" d="M46.7 45.2c-3 7.8-10.4 12.3-16.7 10-6.3-2.4-9-10.7-6.2-18.5 3-7.8 10.4-12.3 16.7-10 6.3 2.4 9 10.7 6.2 18.5z"/>
  <path fill="#FFD978" d="M46.6 45.2c-3 7.8-10.3 12.2-16.6 10-6.3-2.4-9-10.7-6.2-18.5 3-7.8 10.4-12.2 16.7-10 6.3 2.4 9 10.7 6 18.5z"/>
  <path fill="#FFD979" d="M46.6 45c-3 8-10.3 12.4-16.6 10-6.2-2.3-9-10.5-6-18.3 2.7-7.8 10-12.2 16.4-10 6.3 2.4 9 10.6 6.2 18.4z"/>
  <path fill="#FFDA7A" d="M46.5 45C43.7 53 36.3 57.4 30 55c-6.2-2.3-9-10.5-6-18.2 2.7-7.8 10-12.3 16.4-10 6.2 2.3 9 10.5 6 18.3z"/>
  <path fill="#FFDA7B" d="M46.5 45C43.7 53 36.3 57.4 30 55c-6.2-2.3-9-10.5-6-18.2 2.7-7.8 10-12.2 16.3-10 6.3 2.4 9 10.5 6.2 18.3z"/>
  <path fill="#FFDA7C" d="M46.5 45C43.7 52.8 36.3 57.2 30 55c-6-2.3-9-10.5-6-18.2 2.7-7.7 10-12.2 16.3-10 6.2 2.4 9 10.5 6.2 18.2z"/>
  <path fill="#FFDB7D" d="M46.4 45c-2.8 7.7-10 12.2-16.3 10-6-2.4-9-10.5-6-18.2 3-7.7 10-12 17-10 6 2.4 9 10.5 6 18.2z"/>
  <path fill="#FFDB7E" d="M46.4 45c-2.8 7.7-10 12-16.3 10-6-2.4-8-10.4-6-18.2 3-7.7 10-12 17-10 6 2.4 9 10.4 6 18.2z"/>
  <path fill="#FFDB7F" d="M46.4 45c-2.8 7.6-10 12-16.2 9.8-6.2-2.2-9-10.2-6.3-18 2-7.6 10-12 16-9.8 6 2.2 9 10.2 6 18z"/>
  <path fill="#FFDB80" d="M46.3 45c-2.7 7.6-10 12-16 9.8-6.3-2.2-9-10.2-6.4-18 2-7.6 10-12 16-9.8 6 2.2 9 10.2 6 18z"/>
  <path fill="#FFDC81" d="M46.3 45c-2.7 7.5-10 12-16 9.8-6.3-2.2-9-10.2-6.3-18 2.7-7.6 10-12 16-9.8 6.2 2.2 9 10.2 6.3 18z"/>
  <path fill="#FFDC82" d="M46.2 44.8c-2.7 7.7-9.8 12-16 10-6-2.3-9-10.2-6.2-18 2.7-7.5 9.8-12 16-9.8 6 2.2 9 10.2 6.2 17.8z"/>
  <path fill="#FFDC83" d="M46.2 44.8c-2.7 7.6-9.8 12-16 10-6-2.3-9-10.2-6.2-18 2.7-7.5 9.8-12 16-9.7 6 3 9 11 6.2 18z"/>
  <path fill="#FFDD84" d="M46.2 44.8c-2.7 7.6-9.8 12-16 9.8-6-2-9-10-6.2-17.6 2.7-7.6 9.8-12 16-10 6 2.2 8.8 10 6.2 17.8z"/>
  <path fill="#FFDD85" d="M46 44.7c-2.5 7.6-9.6 12-15.7 10-6-2.2-9-10-6.3-17.7 2.6-7.6 9.7-12 15.8-10s9 10 6.3 17.7z"/>
  <path fill="#FFDD86" d="M46 44.7c-2.5 7.6-9.6 12-15.7 10-6-2.3-9-10-6.3-17.7 2.6-7.6 9.7-12 15.8-10 6 2.3 9 10 6.3 17.7z"/>
  <path fill="#FFDD87" d="M46 44.7c-2.6 7.5-9.6 12-15.7 9.8-6-2-9-10-6.3-17.5 2.6-7.5 9.7-12 15.7-9.8 6 2 9 10 6.3 17.5z"/>
  <path fill="#FFDE88" d="M46 44.6c-2.6 7.6-9.6 12-15.6 10-6-2.2-9-10-6.3-17.5 3-7 10-12 16-9 6 2 9 10 7 18z"/>
  <path fill="#FFDE89" d="M46 44.6c-2.6 7.5-9.6 12-15.6 9.8-6-2-9-9.8-6.3-17.3 3-7 10-12 16-9s9 10 7 18z"/>
  <path fill="#FFDE8A" d="M46 44.5c-2.6 7.6-9.6 12-15.6 10s-9-10-6.3-17.4c3-7 10-11 16-9s9 10 7 18z"/>
  <path fill="#FFDE8B" d="M46 44.5c-2.6 7.5-9.5 12-15.6 10-6-2.2-8.8-10-6.3-17.4 3-7 10-11 16-9s9 10 7 17z"/>
  <path fill="#FFDF8C" d="M46 44.5c-2.6 7.4-9.5 12-15.5 9.8-6-2-9-9.7-6.4-17.2 3-7 10-11 16-9s9 10 7 18z"/>
  <path fill="#FFDF8D" d="M45.8 44.4c-2.5 7.5-9.3 12-15.3 10s-9-9.8-6.4-17.2c3-7.5 10-12 16-10s9 9.8 6 17.2z"/>
  <path fill="#FFDF8E" d="M45.8 44.4c-2.5 7.4-9.3 12-15.3 10S21.7 44.4 24 37c2.6-7.4 9.4-12 15.4-10s8.8 9.8 6.4 17.2z"/>
  <path fill="#FFE08F" d="M45.7 44.4c-2.4 7.4-9.2 11.8-15.2 9.8s-8.8-9.6-6.4-17c3-7.4 10-11.8 16-9.8s9 9.6 7 17z"/>
  <path fill="#FFE090" d="M45.7 44.3c-2.4 7.4-9.2 11.8-15.2 10-6-2-8.8-9.7-6.3-17 2.4-7.5 9.2-12 15-10 6 2 9 9.6 6.5 17z"/>
  <path fill="#FFE091" d="M45.7 44.3c-2.4 7.4-9.2 11.8-15 9.8-6-1-9-9-6.5-16 2.4-7 9-12 15-10s9 10 6.5 17z"/>
  <path fill="#FFE092" d="M45.6 44.3c-2.4 7.3-9 11.7-15 9.8-6-1-8.8-9-6.4-16 2.4-7 9-12 15-10s8.8 10 6.4 17z"/>
  <path fill="#FFE193" d="M45.6 44.2c-2.4 7.4-9 11.8-15 10-6-2-8.8-9.6-6.4-17 2.4-7.2 9-11.6 15-9.7 6 2 8.7 9.4 6.4 16.7z"/>
  <path fill="#FFE194" d="M45.5 44.2c-2.3 7.3-9 11.7-15 9.8-5.8-2-8.6-9.4-6.3-16.7 2.3-7.3 9-11.7 15-9.8 5.8 2 8.7 9.4 6.3 16.7z"/>
  <path fill="#FFE195" d="M45.5 44.2c-2.3 7.3-9 11.7-14.8 9.8-6-2-8.8-9.4-6.5-16.7 2.3-7.3 9-11.7 15-9.8 5.8 2 8.6 9.4 6.3 16.7z"/>
  <path fill="#FFE296" d="M45.5 44c-2.3 7.4-9 11.8-14.8 10-6-2-8.8-9.3-6.5-16.6 2.3-7.3 9-11.7 14.8-10 6 2 8.8 9.4 6.5 16.7z"/>
  <path fill="#FFE297" d="M45.4 44c-2.3 7.4-9 11.8-14.7 10-6-2-8.7-9.3-6.5-16.6 2.3-7.3 9-11.7 14.8-9.8 5.8 1.8 8.7 9.2 6.4 16.5z"/>
  <path fill="#FFE298" d="M45.4 44c-2.3 7.3-8.8 11.7-14.7 10-5.8-2-8.7-9.3-6.4-16.6C26.5 30 33 25.8 39 27.6c5.8 1.8 8.7 9.2 6.4 16.5z"/>
  <path fill="#FFE299" d="M45.4 44c-2.3 7.3-8.8 11.7-14.7 9.8-5.8-1.8-8.7-9-6.4-16.4 2.2-7.2 8.8-11.6 14.6-9.8s8 9.2 6 16.4z"/>
  <path fill="#FFE39A" d="M45.3 44c-2.2 7.2-8.7 11.6-14.5 9.8-5.8-1.8-8.8-9-6.5-16.4 2.2-7.2 8.7-11.6 14.5-9.8 5.8 2 8.7 9.2 6.5 16.4z"/>
  <path fill="#FFE39B" d="M45.3 44c-2.2 7.2-8.7 11.6-14.5 9.8-5.8-1.8-8.7-9-6.5-16.3 2.2-7.2 8.7-11.6 14.5-9.8 5.8 1.8 8.7 9 6.5 16.3z"/>
  <path fill="#FFE39C" d="M45.2 44c-2.2 7-8.6 11.5-14.4 9.7-5.8-1.8-8.7-9-6.5-16.2 2.2-7.2 8.7-11.6 14.4-9.8 5.8 1.8 8.7 9 6.5 16.2z"/>
  <path fill="#FFE49D" d="M45.2 44c-2.2 7-8.6 11.5-14.4 9.7-5.7-1.8-8.7-9-6.5-16.2 2.2-7.2 8.6-11.5 14.4-9.8s8.7 9 6.5 16.2z"/>
  <path fill="#FFE49E" d="M45.2 44c-2.2 7-8.6 11.4-14.4 9.7-5.7-1.8-8.6-9-6.5-16.2 2.2-7 8.6-11.5 14.3-9.8 5.8 1.8 8.7 9 6.6 16.2z"/>
  <path fill="#FFE49F" d="M45 43.8c-2 7.2-8.4 11.5-14 9.8-6-1.7-8.8-9-6.7-16 2.2-7.2 8.6-11.6 14.3-9.8 5.7 1.7 8.7 9 6.5 16z"/>
  <path fill="#FFE4A0" d="M45 43.8c-2 7-8.4 11.5-14 9.8-5.8-1.7-8.8-9-6.6-16 2-7 8.4-11.5 14-9.8 6 1.7 8.8 9 6.7 16z"/>
  <path fill="#FFE5A1" d="M45 43.8c-2 7-8.4 11.4-14 9.7-5.8-1.7-8.7-8.8-6.6-16 2-7 8.4-11.4 14-9.7 5.8 1.7 8.7 9 6.6 16z"/>
  <path fill="#FFE5A2" d="M45 43.7c-2 7-8.4 11.5-14 9.8-5.8-1.7-8.7-8.8-6.6-16 2-7 8.4-11.3 14-9.7 5.7 1.7 8.7 8.8 6.6 16z"/>
  <path fill="#FFE5A3" d="M45 43.7c-2 7-8.4 11.4-14 9.8-5.7-1.7-8.7-8.8-6.6-16 2-7 8.3-11.3 14-9.6C44 29 47 36 45 43z"/>
  <path fill="#FFE5A4" d="M45 43.7c-2 7-8.3 11.4-14 9.7-5.7-1.6-8.6-8.7-6.6-15.7s8.3-11.5 14-9.8C44 29 47 36 45 43z"/>
  <path fill="#FFE6A5" d="M45 43.6c-2 7-8.3 11.4-14 9.8-5.6-1.7-8.6-8.7-6.6-15.7s8.3-11.4 14-9.8C44 29 47 36 45 43z"/>
  <path fill="#FFE6A6" d="M45 43.6c-2 7-8.3 11.4-14 9.7-5.6-1.6-8.6-8.6-6.6-15.6s8.2-11.4 14-9.8 8.4 8 6.6 15z"/>
  <path fill="#FFE6A7" d="M44.8 43.6c-2 7-8 11.3-13.8 9.7-5.6-1.6-8.5-8.6-6.6-15.6 2-7 8.2-11.3 13.8-9.7 5.6 1.6 8.6 8.6 6.6 15.6z"/>
  <path fill="#FFE7A8" d="M44.8 43.5c-2 7-8 11.4-13.7 9.8-5-1.6-8-8.6-6-15.6s8-11.3 14-9.7c5 1.6 8 8.5 6 15.5z"/>
  <path fill="#FFE7A9" d="M44.7 43.5c-2 7-8 11.3-13.6 9.7-5-1.5-8-8.5-6-15.4 2-7 8-11.4 14-9.8 5 1.6 8 8.5 6 15.5z"/>
  <path fill="#FFE7AA" d="M44.7 43.5c-2 7-8 11.3-13.6 9.7-5-1.6-8-8.5-6-15.4 2-7 8-11.3 14-9.7 5 2 8 9 6 16z"/>
  <path fill="#FFE7AB" d="M44.7 43.4c-2 7-8 11.3-13.6 9.8-5-1.6-8-8.5-6-15.4 2-7 8-11.3 14-9.7 5 2 8 9 6 16z"/>
  <path fill="#FFE8AC" d="M44.6 43.4c-2 7-8 11.2-13.4 9.7-5.6-1-8.6-8-6.7-15 2-7 8-11 13.5-9 5.5 1 8.5 8 6.6 15z"/>
  <path fill="#FFE8AD" d="M44.6 43.3c-2 7-8 11.3-13.4 9.8-5.6-1-8.5-8-6.7-15 2-7 8-11 13.4-10 5 2 8 9 6 16z"/>
  <path fill="#FFE8AE" d="M44.5 43.3c-1.8 7-7.8 11.2-13.3 9.7-5.5-1.5-8.5-8.2-6.7-15 2-7 7.8-11.3 13.4-9.8 5 1.5 8 8.2 6 15z"/>
  <path fill="#FFE9AF" d="M44.5 43.3C42.7 50 36.7 54.5 31.2 53c-5.5-1.5-8.5-8.2-6.7-15 2-7 7.8-11.3 13.3-9.8 5.5 1.5 8.5 8.2 6.7 15z"/>
  <path fill="#FFE9B0" d="M44.5 43.2c-1.8 7-7.8 11.2-13.3 9.8-5.4-1.5-8.4-8.2-6.6-15 1.8-7 7.7-11.3 13.2-9.8 5.5 1.5 8.5 8.2 6.7 15z"/>
  <path fill="#FFE9B1" d="M44.4 43.2c-1.8 6.8-7.6 11.2-13 9.7-5.6-2-8.6-9-6.8-15 1.8-7 7.6-12 13-10s8.6 8 6.8 15z"/>
  <path fill="#FFE9B2" d="M44.4 43.2c-1.8 6.8-7.6 11-13 9.7-5.6-2-8.6-9-6.8-15 1.7-7 7.6-12 13-10 5.5 1 8.6 8 6.8 15z"/>
  <path fill="#FFEAB3" d="M44.3 43c-1.7 7-7.5 11.3-13 10-5.4-1.6-8.4-8.2-6.7-15 1.7-6.8 7.6-11 13-9.7 5.5 1.4 8.5 8 6.7 14.8z"/>
  <path fill="#FFEAB4" d="M44.3 43c-1.7 7-7.5 11.2-13 9.8-5.4-1.4-8.4-8-6.7-14.8 1.7-6.8 7.5-11 13-9.7 5.4 1.4 8.4 8 6.7 14.8z"/>
  <path fill="#FFEAB5" d="M44.3 43c-1.7 6.8-7.5 11.2-13 9.8-5.4-1.4-8.4-8-6.7-14.8 1.7-6.7 7.5-11 13-9.7 5.4 1.4 8.4 8 6.7 14.8z"/>
  <path fill="#FFEBB6" d="M44.2 43c-1.7 6.8-7.4 11-12.8 9.7-5.4-1.3-8.5-8-6.8-14.6 1.7-6 7.5-11 13-9 5.4 1 8.4 8 6.6 15z"/>
  <path fill="#FFEBB7" d="M44.2 43c-1.7 6.7-7.4 11-12.8 9.7-5.4-1.4-8.4-8-6.8-14.6 1.7-6 7.4-11 12.8-9s8.5 8 6.8 15z"/>
  <path fill="#FFEBB8" d="M44.2 43c-1.7 6.7-7.4 11-12.8 9.7-5.4-1.4-8.4-8-6.7-14.6 1.6-6 7.3-11 12.7-9 5.4 2 8.4 8 6.8 15z"/>
  <path fill="#FFEBB9" d="M44 43c-1.5 6.6-7.2 11-12.6 9.6C26 51.3 23 44.8 24.7 38c1.6-6.6 7.3-11 12.6-9.6 5.4 1.4 8.4 8 6.8 14.5z"/>
  <path fill="#FFECBA" d="M44 43c-1.5 6.6-7.2 11-12.5 9.6C26 51.3 23 44.8 24.7 38c1.6-6.5 7.2-11 12.6-9.5 5.3 1.3 8.4 7.7 6.8 14.4z"/>
  <path fill="#FFECBB" d="M44 43c-1.5 6.5-7.2 10.8-12.5 9.5-5.3-1.3-8.4-7.7-6.8-14.3 1.6-6.7 7.2-11 12.5-9.7 5.4 1.3 8.4 7.7 6.8 14.4z"/>
  <path fill="#FFECBC" d="M44 42.8c-1.6 6.7-7.2 11-12.5 9.7-5.3-1.3-8.4-7.7-6.8-14.3 1.6-6.6 7.2-11 12.5-9.7 5.3 1.3 8.4 7.7 6.8 14.3z"/>
  <path fill="#FFECBD" d="M44 42.8c-1.6 6.6-7 11-12.5 9.7s-8.3-7.7-6.8-14.3c1.6-6.6 7-11 12.4-9.7 6 1.3 9 7.7 7 14.3z"/>
  <path fill="#FFEDBE" d="M44 42.8c-1.6 6.6-7 11-12.4 9.6-5.3-1.2-8.4-7.6-7-14.2 1.7-6.6 7.2-11 12.5-9.6 6 1.2 9 7.6 7 14.2z"/>
  <path fill="#FFEDBF" d="M44 42.7c-1.6 6.6-7 11-12.4 9.7-5.3-1.2-8.4-7.6-7-14.2 1.7-6.5 7.2-11 12.5-9.6 6 1.2 9 7.6 7 14z"/>
  <path fill="#FFEDC0" d="M43.8 42.7c-1.4 6.6-7 11-12.2 9.7-5.3-1.3-8.3-7.6-6.8-14 1.5-6.7 7-11 12.2-9.8 5.3 1.2 8.3 7.5 6.8 14z"/>
  <path fill="#FFEEC1" d="M43.8 42.7c-1.5 6.5-7 10.8-12.2 9.6-5.2-1.2-8.3-7.5-6.8-14 1.4-6.6 7-11 12.2-9.7 5.2 1.2 8.3 7.5 6.8 14z"/>
  <path fill="#FFEEC2" d="M43.8 42.6c-1.5 6.5-7 11-12.2 9.7-5.2-1.2-8.3-7.5-6.8-14 1.4-6.5 7-10.8 12-9.6 5.4 1 8.4 7.4 7 14z"/>
  <path fill="#FFEEC3" d="M43.7 42.6c-1.4 6.5-6.8 10.8-12 9.6-5.3-1-8.3-7.4-7-14 1.5-6.4 7-10.7 12.2-9.5 5 1.2 8 7.4 6 14z"/>
  <path fill="#FFEEC4" d="M43.7 42.6c-1.4 6.4-6.8 10.8-12 9.6-5.2-1.2-8.3-7.4-7-13.8 1.5-6.5 7-11 12-9.7 5.3 1.2 8.4 7.4 7 14z"/>
  <path fill="#FFEFC5" d="M43.7 42.5c-1.4 6.5-6.8 10.8-12 9.7-5.2-1.2-8.3-7.4-7-13.8 1.5-6.5 7-10.8 12-9.7C42 30 45 36 43.7 42.5z"/>
  <path fill="#FFEFC6" d="M43.6 42.5C42.2 49 37 53.3 31.6 52c-5-1-8-7-6.8-13.6 1.4-6.5 6.7-10.8 12-9.6 5 1 8.2 7.2 6.8 13.7z"/>
  <path fill="#FFEFC7" d="M43.6 42.5C42.2 49 37 53.2 31.8 52c-5.2-1-8.3-7-7-13.6 1.4-6.4 6.7-10.7 12-9.6 5 1 8 7.2 6.8 13.7z"/>
  <path fill="#FFF0C8" d="M43.5 42.4C42.2 48.8 37 53.2 31.8 52c-5.2-1-8.3-7-7-13.6 1.4-6.4 6.7-10.7 11.8-9.6 5.2 1 8.3 7.2 7 13.6z"/>
  <path fill="#FFF0C9" d="M43.5 42.4C42.2 48.8 37 53 31.8 52c-5-1-8.2-7-7-13.5 1.4-6.4 6.6-10.8 11.8-9.7 5 1 8.2 7.2 7 13.6z"/>
  <path fill="#FFF0CA" d="M43.5 42.4C42.2 48.7 37 53 31.8 52c-5-1-8.2-7-7-13.5 1.4-6.4 6.6-10.7 11.7-9.6 5.2 1 8.3 7 7 13z"/>
  <path fill="#FFF0CB" d="M43.4 42.3C42 48.7 37 53 31.8 52c-5-1-8.2-7-7-13.5 1.4-6.4 6.6-10.7 11.7-9.6 5 1 8.2 7 7 13z"/>
  <path fill="#FFF1CC" d="M43.4 42.3C42 48.6 37 53 32 52c-5.2-1-8.3-7-7-13.5 1-6.3 6.2-10.5 11.3-9.5 5 1 8.2 7 7 13.3z"/>
  <path fill="#FFF1CD" d="M43.3 42.2C42 48.6 37 53 32 52c-5.2-1.2-8.3-7-7-13.5 1-6.2 6.2-10.5 11.3-9.5 5 1 8.2 7 7 13.2z"/>
  <path fill="#FFF1CE" d="M43.3 42.2C42 48.5 37 52.8 32 51.8c-5.2-1-8.3-7-7-13.2 1-6.3 6.2-10.6 11.2-9.6 5 1 8.2 7 7 13.2z"/>
  <path fill="#FFF2CF" d="M43.3 42.2C42 48.5 37 52.8 32 51.8c-5-1-8.3-7-7-13.2 1.2-6.3 6.2-10.6 11.3-9.6 5 1 8.2 7 7 13.2z"/>
  <path fill="#FFF2D0" d="M43.2 42C42 48.5 37 52.8 32 52c-5-1-8.2-7-7-13.2 1-6.3 6.2-10.6 11.2-9.6 5 1 8.2 7 7 13z"/>
  <path fill="#FFF2D1" d="M43.2 42C42 48.5 37 52.8 32 51.8c-5-1-8.2-6.8-7-13 1-6.3 6.2-10.6 11.2-9.7 5 1 8.2 7 7 13z"/>
  <path fill="#FFF2D2" d="M43.2 42C42 48.4 37 52.7 32 51.8c-5-1-8.2-6.8-7-13 1-6.3 6-10.6 11-9.6 5.2 1 8.3 6.8 7.2 13z"/>
  <path fill="#FFF3D3" d="M43 42c-1 6.3-6 10.6-11 9.6s-8-6.7-7-13c1-6 6-10.4 11-9.5 5 1 8.2 7 7 13z"/>
  <path fill="#FFF3D4" d="M43 42c-1 6.2-6 10.5-11 9.6-5-1-8-6.7-7-13 1-6 6-10.4 11-9.5 5 1 8.2 7 7 13z"/>
  <path fill="#FFF3D5" d="M43 42c-1 6.2-6 10.5-11 9.6-5-1-8-6.7-7-13 1-6 6-10.4 11-9.5s8 7 7 13z"/>
  <path fill="#FFF4D6" d="M43 42c-1 6-6 10.4-11 9.5-5-1-8-6.6-7-12.8 1-6 6-10.4 11-9.5 5 .8 8 6.6 7 12.7z"/>
  <path fill="#FFF4D7" d="M43 42c-1 6-6 10.4-11 9.5-4.8-1-8-6.6-7-12.7 1-6.2 6-10.5 11-9.6 4.8 1 8 6.5 7 12.7z"/>
  <path fill="#FFF4D8" d="M43 42c-1 6-6 10.3-11 9.4-4.8-.8-8-6.5-7-12.6 1-6.2 6-10.4 11-9.6 4.8 1 8 6.5 7 12.7z"/>
  <path fill="#FFF4D9" d="M43 41.8c-1 6.2-6 10.4-11 9.6-5-.8-8-6.5-7-12.6 1-6 5.7-10.4 10.6-9.6 5 1 8 6.5 7 12.6z"/>
  <path fill="#FFF5DA" d="M42.8 41.8c-1 6-5.7 10.4-10.6 9.6-5-.8-8-6.5-7-12.6 1-6 5.7-10.4 10.6-9.5 5 .8 8 6.4 7 12.5z"/>
  <path fill="#FFF5DB" d="M42.8 41.8c-1 6-5.7 10.3-10.6 9.5-5-.8-8-6.4-7-12.4 1-7 5.6-11 10.5-10 5 1 8 6 7 12z"/>
  <path fill="#FFF5DC" d="M42.8 41.7c-1 6-5.7 10.4-10.6 9.6-4.8-.8-8-6.4-7-12.4 1-7 5.6-11 10.5-10 4.8 1 8 6 7 12z"/>
  <path fill="#FFF5DD" d="M42.7 41.7c-1 6-5.6 10.3-10.5 9.6-4.8-.8-8-6.4-7-12.4 1-7 5.6-11 10.4-10 5 1 8 6 7 12z"/>
  <path fill="#FFF6DE" d="M42.7 41.7c-1 6-5.6 10.3-10.4 9.5-5-.7-8-6.2-7.2-12.3 1-6 6-11 11-10 5 0 8 6 7 12z"/>
  <path fill="#FFF6DF" d="M42.7 41.6c-1 6-5.6 10.3-10.4 9.6-4.8-.8-8-6.2-7-12.3.7-6 5.4-11 10.2-10 4.8 0 8 6 7.2 12z"/>
  <path fill="#FFF6E0" d="M42.6 41.6c-1 6-5.5 10.3-10.3 9.5-4.8 0-8-6-7-12 .7-6 5.3-10 10.2-9 4.8 1 8 6 7 12z"/>
  <path fill="#FFF7E1" d="M42.6 41.6c-1 6-5.5 10.2-10.3 9.5-4.8 0-8-6-7-12 .7-6 5.3-10 10-9 5 1 8 6 7.3 12z"/>
  <path fill="#FFF7E2" d="M42.5 41.5c-.8 6-5.4 10.3-10 9.6-5 0-8-6-7.3-12 .8-6 5.4-10 10.2-9 4.8 1 8 6 7 12z"/>
  <path fill="#FFF7E3" d="M42.5 41.5c-.8 6-5.3 10.2-10 9.5-5-.7-8-6-7.3-12 .8-6 5.3-10.2 10-9.5 5 .7 8 6 7.3 12z"/>
  <path fill="#FFF7E4" d="M42.5 41.5c-.8 6-5.3 10.2-10 9.5-5-.7-8-6-7.3-12 .8-6 5.3-10.2 10-9.5 4.8.7 8 6 7.3 12z"/>
  <path fill="#FFF8E5" d="M42.4 41.4c-.8 6-5.2 10.2-10 9.6-4.7-.7-8-6-7.2-12 .8-5.8 5.3-10 10-9.5 4.8.7 8 6 7.2 12z"/>
  <path fill="#FFF8E6" d="M42.4 41.4c-.8 6-5.2 10.2-10 9.5-4.7-1-8-6-7.2-12 .8-6 5.2-10 10-10 4.7 0 8 6 7.2 12z"/>
  <path fill="#FFF8E7" d="M42.3 41.4c-.7 5.8-5 10-9.8 9.5-4.8-1-8-6-7.2-12 .7-6 5-10 9.8-10 5 0 8 6 8 12z"/>
  <path fill="#FFF9E8" d="M42.3 41.3c-.7 6-5 10-9.8 9.5-4.7-.6-8-5.8-7.2-11.7.7-5 5-10 9.8-9 5 1 8 6 8 12z"/>
  <path fill="#FFF9E9" d="M42.3 41.3c-.7 5.8-5 10-9.8 9.5-4.7-.6-8-5.8-7.2-11.6.7-6 5-10 9.7-9.6 4.7.6 8 5.8 7.3 11.7z"/>
  <path fill="#FFF9EA" d="M42.2 41.3c-.6 5.8-5 10-9.7 9.5-4.6-.6-8-5.8-7.2-11.6.7-5.8 5-10 9.7-9.5 4.7.5 8 5.7 7.2 11.6z"/>
  <path fill="#FFF9EB" d="M42.2 41.2c-.7 5.8-5 10-9.6 9.5-4.7-.5-8-5.7-7.3-11.5.7-5.8 5-10 9.6-9.5s7 5.7 7 11.5z"/>
  <path fill="#FFFAEC" d="M42.2 41.2c-.7 5.8-5 10-9.6 9.5-4.7-.6-8-5.7-7.3-11.5.7-5.8 5-10 9.6-9.5 4 .6 7 5.7 7 11.5z"/>
  <path fill="#FFFAED" d="M42 41c-.5 6-4.8 10.2-9.4 9.6-4.6-.5-8-5.6-7.3-11.4.6-5.7 5-10 9.5-9.5 4.7.6 8 5.7 7.3 11.4z"/>
  <path fill="#FFFAEE" d="M42 41c-.5 6-4.8 10-9.4 9.6-4.6-.5-8-5.6-7.3-11.3.6-5.8 5-10 9.5-9.5 4.6.5 8 5.6 7.3 11.3z"/>
  <path fill="#FFFBEF" d="M42 41c-.5 5.8-4.7 10-9.4 9.6-4.6-.5-7.8-5.6-7.2-11.3.5-5.8 4.7-10 9.3-9.5 4.7.5 8 5.5 7.3 11.3z"/>
  <path fill="#FFFBF0" d="M42 41c-.6 5.8-4.7 10-9.3 9.5-4.6-.4-8-5.5-7.3-11.2.5-5.7 4.7-10 9.3-9.5 4.6.5 8 5.5 7.3 11.2z"/>
  <path fill="#FFFBF1" d="M42 41c-.6 5.7-4.7 10-9.3 9.5-4.6-.5-8-5.5-7.3-11.2.5-5.7 4.7-10 9.2-9.5 4.6.5 8 5.5 7.4 11.2z"/>
  <path fill="#FFFBF2" d="M42 41c-.6 5.7-4.7 10-9.3 9.5-4.6-.5-7.8-5.5-7.3-11 .5-5.8 4.6-10 9.2-9.6 4.6 0 7.8 5 7.3 11z"/>
  <path fill="#FFFCF3" d="M42 41c-.6 5.6-4.7 10-9.3 9.4-4.5-.4-7.8-5.4-7.3-11 .5-5.7 4.6-10 9.2-9.5 4.4 0 7.8 5 7.4 11z"/>
  <path fill="#FFFCF4" d="M41.8 41c-.4 5.6-4.5 9.8-9 9.4-4.6-.4-8-5.4-7.4-11 .5-5.7 4.6-10 9-9.5 4.6 0 8 5 7.4 11z"/>
  <path fill="#FFFCF5" d="M41.8 41c-.5 5.5-4.5 9.7-9 9.3-4.5-.4-7.8-5.3-7.4-11 .5-5.5 4.5-9.8 9-9.4 4.6 0 8 5 7.4 11z"/>
  <path fill="#FFFCF6" d="M41.8 40.8c-.5 5.7-4.5 10-9 9.5-4.5-.4-7.8-5.2-7.4-11 .5-5.5 4.5-9.7 9-9.3 4.5.4 7.8 5.2 7.4 10.8z"/>
  <path fill="#FFFDF7" d="M41.7 40.8c-.4 5.6-4.4 9.8-9 9.5-4.4-.4-7.7-5.2-7.2-10.8.4-5.6 4.4-10 9-9.5 4.4.4 7.7 5.2 7.2 10.8z"/>
  <path fill="#FFFDF8" d="M41.7 40.8c-.4 5.6-4.4 9.8-9 9.4-4.3-.3-7.6-5-7.2-10.7.4-5.6 4.3-9.8 8.8-9.5 4.5.4 7.8 5.2 7.4 10.8z"/>
  <path fill="#FFFDF9" d="M41.6 40.7c-.3 5.6-4.3 9.8-8.7 9.5-5-.3-8-5-8-10.7 0-5.6 4-9.8 9-9.5 4 .4 7 5.2 7 10.7z"/>
  <path fill="#FFFEFA" d="M41.6 40.7c-.4 5.5-4.3 9.8-8.7 9.5-5-.4-8-5-8-10.7 0-5.5 4-9.8 8-9.4 4 1 8 6 7 11z"/>
  <path fill="#FFFEFB" d="M41.6 40.7c-.4 5.5-4.3 9.7-8.7 9.4-5 0-8-5-8-10s4-9 8-9c4 1 7 5 7 11z"/>
  <path fill="#FFFEFC" d="M41.5 40.6c-.3 5.5-4 9.8-8.6 9.5-5 0-8-5-8-10s4-10 8-9 8 5 7 11z"/>
  <path fill="#FFFEFD" d="M41.5 40.6c-.3 5.5-4 9.7-8.5 9.4-4.5-.2-7.8-5-7.5-10.4.3-5.5 4.2-9.7 8.6-9.5 5 1 8 5 8 11z"/>
  <path fill="#FFFFFE" d="M41.5 40.6c-.3 5.4-4 9.7-8.5 9.4-4.4-.3-7.7-5-7.5-10.4.3-5.5 4-9.7 8.5-9.4 4.4.2 7.7 5 7.5 10.4z"/>
  <path fill="#FFF" d="M41.4 40.5c-.3 5.5-4 9.7-8.4 9.5-4.4-.3-7.7-5-7.4-10.4.2-5.4 4-9.7 8.4-9.4 4.4.2 7.7 5 7.4 10.3zm7.4-11.2c-.3 1.8-1.8 3-3.2 3-1.5-.4-2.4-2-2-4 .3-1.8 1.7-3 3.2-3 1.5.4 2.4 2 2 4z"/>
  <path fill="#E01B1B" d="M66.6 154c-2.3.6-4.6 8.2-4.4 10.4.4 3 3.5 1 5 .4 1.6-.4 3 .2 4.6.4 1.5 0 3.8-1.4 5-.5 1.4-2.4-3.5-6.4-5-8-.7-1-1.8-2.8-3-3-1-.4-1.3 0-2.2.3"/>
  <path fill="none" d="M65 154.3c1.7-.7 3.5-.6 5.2-.4"/>
  <path fill="#C1272D" d="M65 155.6c1.7-.7 3.4-.6 5.2-.5v-2c-1.8 0-3.5 0-5.2 1-.3 0 .3 3 0 3z"/>
</svg>
