<svg width="140" height="450" xmlns="http://www.w3.org/2000/svg">
 <g>
  <g id="svg_1">
   <g id="svg_2">
    <g id="svg_3">
     <path id="svg_4" d="m69.517,156.84c-12.75,16.744 -44.04599,39.578 -34.77399,68.5c13.91,47.18802 83.45797,4.56699 96.20796,39.57898c17.38704,50.23203 -107.79796,94.37701 -49.84197,147.65402" fill="none"/>
    </g>
    <g id="svg_5">
     <path id="svg_6" d="m69.517,155.59c-12.556,16.22101 -30.784,29.41701 -35.654,50.394c-3.249,13.99001 1.597,30.92101 13.968,38.867c13.04,8.375 30.97,6.12201 45.654,5.87601c13.006,-0.218 29.659,-0.216 36.46899,13.088c6.47701,12.65298 -0.631,26.65698 -7.977,37.15201c-8.923,12.74899 -20.361,23.604 -30.84,35.035c-16.293,17.77197 -34.929,42.00497 -19.937,66.26599c2.676,4.32999 6.202,8.09799 9.908,11.55499c-0.405,-0.37799 0.42599,-2.104 0,-2.5c-11.127,-10.38 -18.446,-23.44199 -13.39,-38.703c4.54,-13.702 15.125,-25.11301 24.707,-35.51999c16.668,-18.104 41.464,-38.31601 40.146,-65.35202c-0.698,-14.32797 -11.17,-21.50198 -24.447,-23.05399c-15.684,-1.83301 -31.563,1.343 -47.193,-1.513c-18.131,-3.313 -30.775,-19.948 -27.068,-38.698c4.121,-20.842 23.351,-34.5 35.654,-50.394c0.41,-0.528 -0.396,-1.987 0,-2.49901l0,0l0,0l0,0l0,0l0,0z" fill="#C1272D"/>
    </g>
   </g>
   <g id="svg_7">
    <g id="svg_8">
     <ellipse id="svg_9" ry="75.805" rx="61.854" cy="77.805" cx="65.378" fill="#E01E1E"/>
     <ellipse id="svg_10" ry="75.448" rx="61.538" cy="77.58" cx="65.167" fill="#E01F1F"/>
     <ellipse id="svg_11" ry="75.091" rx="61.222" cy="77.354" cx="64.956" fill="#E1201F"/>
     <ellipse id="svg_12" ry="74.734" rx="60.906" cy="77.128" cx="64.745" fill="#E12120"/>
     <ellipse id="svg_13" ry="74.377" rx="60.59" cy="76.902" cx="64.533" fill="#E12220"/>
     <ellipse id="svg_14" ry="74.021" rx="60.273" cy="76.676" cx="64.322" fill="#E12321"/>
     <ellipse id="svg_15" ry="73.664" rx="59.957" cy="76.451" cx="64.111" fill="#E22421"/>
     <ellipse id="svg_16" ry="73.307" rx="59.641" cy="76.225" cx="63.9" fill="#E22522"/>
     <ellipse id="svg_17" ry="72.95" rx="59.325" cy="75.999" cx="63.689" fill="#E22622"/>
     <ellipse id="svg_18" ry="72.594" rx="59.009" cy="75.773" cx="63.478" fill="#E22723"/>
     <ellipse id="svg_19" ry="72.237" rx="58.692" cy="75.547" cx="63.267" fill="#E32823"/>
     <ellipse id="svg_20" ry="71.879" rx="58.376" cy="75.322" cx="63.056" fill="#E32924"/>
     <ellipse id="svg_21" ry="71.523" rx="58.06" cy="75.096" cx="62.845" fill="#E32A24"/>
     <ellipse id="svg_22" ry="71.166" rx="57.744" cy="74.87" cx="62.634" fill="#E32B25"/>
     <ellipse id="svg_23" ry="70.809" rx="57.427" cy="74.645" cx="62.423" fill="#E42C25"/>
     <ellipse id="svg_24" ry="70.453" rx="57.112" cy="74.418" cx="62.212" fill="#E42D26"/>
     <ellipse id="svg_25" ry="70.096" rx="56.795" cy="74.193" cx="62" fill="#E42E26"/>
     <ellipse id="svg_26" ry="69.739" rx="56.479" cy="73.967" cx="61.789" fill="#E42F27"/>
     <ellipse id="svg_27" ry="69.382" rx="56.163" cy="73.741" cx="61.578" fill="#E53027"/>
     <ellipse id="svg_28" ry="69.025" rx="55.847" cy="73.516" cx="61.367" fill="#E53128"/>
     <ellipse id="svg_29" ry="68.668" rx="55.531" cy="73.29" cx="61.156" fill="#E53228"/>
     <ellipse id="svg_30" ry="68.312" rx="55.214" cy="73.064" cx="60.945" fill="#E53329"/>
     <ellipse id="svg_31" ry="67.955" rx="54.898" cy="72.838" cx="60.734" fill="#E63429"/>
     <ellipse id="svg_32" ry="67.598" rx="54.582" cy="72.612" cx="60.523" fill="#E6352A"/>
     <ellipse id="svg_33" ry="67.241" rx="54.266" cy="72.387" cx="60.312" fill="#E6362A"/>
     <ellipse id="svg_34" ry="66.884" rx="53.949" cy="72.161" cx="60.101" fill="#E7372B"/>
     <ellipse id="svg_35" ry="66.527" rx="53.633" cy="71.935" cx="59.89" fill="#E7382B"/>
     <ellipse id="svg_36" ry="66.171" rx="53.317" cy="71.709" cx="59.678" fill="#E7392C"/>
     <ellipse id="svg_37" ry="65.814" rx="53.001" cy="71.483" cx="59.467" fill="#E73A2C"/>
     <ellipse id="svg_38" ry="65.457" rx="52.685" cy="71.258" cx="59.256" fill="#E83B2D"/>
     <ellipse id="svg_39" ry="65.101" rx="52.368" cy="71.032" cx="59.045" fill="#E83C2D"/>
     <ellipse id="svg_40" ry="64.743" rx="52.052" cy="70.806" cx="58.834" fill="#E83D2E"/>
     <ellipse id="svg_41" ry="64.387" rx="51.736" cy="70.58" cx="58.623" fill="#E83E2E"/>
     <ellipse id="svg_42" ry="64.03" rx="51.42" cy="70.354" cx="58.412" fill="#E93F2F"/>
     <ellipse id="svg_43" ry="63.673" rx="51.104" cy="70.129" cx="58.201" fill="#E9402F"/>
     <ellipse id="svg_44" ry="63.316" rx="50.788" cy="69.903" cx="57.99" fill="#E94030"/>
     <ellipse id="svg_45" ry="62.959" rx="50.471" cy="69.677" cx="57.779" fill="#E94130"/>
     <ellipse id="svg_46" ry="62.603" rx="50.155" cy="69.452" cx="57.568" fill="#EA4231"/>
     <ellipse id="svg_47" ry="62.246" rx="49.839" cy="69.226" cx="57.356" fill="#EA4331"/>
     <ellipse id="svg_48" ry="61.889" rx="49.523" cy="69" cx="57.145" fill="#EA4432"/>
     <ellipse id="svg_49" ry="61.532" rx="49.207" cy="68.774" cx="56.934" fill="#EA4532"/>
     <ellipse id="svg_50" ry="61.175" rx="48.89" cy="68.548" cx="56.723" fill="#EB4633"/>
     <ellipse id="svg_51" ry="60.818" rx="48.574" cy="68.323" cx="56.512" fill="#EB4733"/>
     <ellipse id="svg_52" ry="60.462" rx="48.258" cy="68.097" cx="56.301" fill="#EB4834"/>
     <ellipse id="svg_53" ry="60.105" rx="47.942" cy="67.871" cx="56.09" fill="#EB4934"/>
     <ellipse id="svg_54" ry="59.748" rx="47.625" cy="67.645" cx="55.879" fill="#EC4A35"/>
     <ellipse id="svg_55" ry="59.391" rx="47.309" cy="67.419" cx="55.668" fill="#EC4B35"/>
     <ellipse id="svg_56" ry="59.034" rx="46.993" cy="67.194" cx="55.457" fill="#EC4C36"/>
     <ellipse id="svg_57" ry="58.678" rx="46.677" cy="66.968" cx="55.246" fill="#ED4D36"/>
     <ellipse id="svg_58" ry="58.321" rx="46.361" cy="66.742" cx="55.034" fill="#ED4E37"/>
     <ellipse id="svg_59" ry="57.964" rx="46.044" cy="66.516" cx="54.823" fill="#ED4F37"/>
     <ellipse id="svg_60" ry="57.607" rx="45.728" cy="66.291" cx="54.612" fill="#ED5038"/>
     <ellipse id="svg_61" ry="57.25" rx="45.412" cy="66.065" cx="54.401" fill="#EE5138"/>
     <ellipse id="svg_62" ry="56.894" rx="45.096" cy="65.839" cx="54.19" fill="#EE5239"/>
     <ellipse id="svg_63" ry="56.537" rx="44.78" cy="65.613" cx="53.979" fill="#EE5339"/>
     <ellipse id="svg_64" ry="56.18" rx="44.464" cy="65.387" cx="53.768" fill="#EE543A"/>
     <ellipse id="svg_65" ry="55.823" rx="44.147" cy="65.162" cx="53.557" fill="#EF553A"/>
     <ellipse id="svg_66" ry="55.466" rx="43.831" cy="64.936" cx="53.346" fill="#EF563B"/>
     <ellipse id="svg_67" ry="55.11" rx="43.515" cy="64.71" cx="53.135" fill="#EF573B"/>
     <ellipse id="svg_68" ry="54.752" rx="43.199" cy="64.484" cx="52.923" fill="#EF583C"/>
     <ellipse id="svg_69" ry="54.396" rx="42.882" cy="64.259" cx="52.712" fill="#F0593C"/>
     <ellipse id="svg_70" ry="54.039" rx="42.566" cy="64.033" cx="52.501" fill="#F05A3D"/>
     <ellipse id="svg_71" ry="53.682" rx="42.25" cy="63.807" cx="52.29" fill="#F05B3D"/>
     <ellipse id="svg_72" ry="53.326" rx="41.934" cy="63.581" cx="52.079" fill="#F05C3E"/>
     <ellipse id="svg_73" ry="52.969" rx="41.617" cy="63.355" cx="51.868" fill="#F15D3E"/>
     <ellipse id="svg_74" ry="52.612" rx="41.302" cy="63.13" cx="51.657" fill="#F15E3F"/>
     <ellipse id="svg_75" ry="52.255" rx="40.985" cy="62.904" cx="51.446" fill="#F15F3F"/>
     <ellipse id="svg_76" ry="51.898" rx="40.669" cy="62.678" cx="51.235" fill="#F16040"/>
     <ellipse id="svg_77" ry="51.542" rx="40.353" cy="62.452" cx="51.024" fill="#F26140"/>
     <ellipse id="svg_78" ry="51.185" rx="40.037" cy="62.227" cx="50.813" fill="#F26241"/>
     <ellipse id="svg_79" ry="50.848" rx="39.777" cy="62.384" cx="50.6743" fill="#F26341" transform="matrix(1,0.0014,-0.0014,1,0.0825,-0.4183) "/>
     <path id="svg_80" d="m90.046,61.937c-0.075,27.896 -17.828,50.463 -39.652,50.402c-21.825,-0.061 -39.457,-22.725 -39.382,-50.621c0.075,-27.897 17.829,-50.463 39.654,-50.403c21.824,0.061 39.456,22.725 39.38,50.622l0,0z" fill="#F26441"/>
     <path id="svg_81" d="m89.645,61.792c-0.112,27.711 -17.78,50.102 -39.46,50.012c-21.682,-0.091 -39.167,-22.629 -39.055,-50.339c0.112,-27.712 17.78,-50.103 39.461,-50.012c21.681,0.09 39.166,22.628 39.054,50.339l0,0z" fill="#F26541"/>
     <path id="svg_82" d="m89.24399,61.647c-0.14999,27.52499 -17.73099,49.741 -39.26901,49.62s-38.87598,-22.533 -38.72699,-50.058c0.14999,-27.526 17.73102,-49.741 39.26999,-49.621c21.53702,0.122 38.87604,22.534 38.72601,50.059z" fill="#F26641"/>
     <path id="svg_83" d="m88.842,61.502c-0.188,27.339 -17.68301,49.38 -39.077,49.229c-21.395,-0.151 -38.587,-22.437 -38.399,-49.776c0.188,-27.34 17.684,-49.381 39.078,-49.23s38.586,22.438 38.398,49.777l0,0z" fill="#F36741"/>
     <path id="svg_84" d="m88.44101,61.35699c-0.22501,27.15301 -17.634,49.02 -38.88501,48.838c-21.25098,-0.18098 -38.297,-22.341 -38.07199,-49.494c0.22501,-27.154 17.63501,-49.02 38.88599,-48.838c21.25101,0.181 38.29599,22.341 38.07101,49.494z" fill="#F36841"/>
     <path id="svg_85" d="m88.04001,61.213c-0.26199,26.967 -17.586,48.658 -38.69299,48.44701c-21.108,-0.21101 -38.00702,-22.245 -37.74402,-49.21201c0.26102,-26.96899 17.58499,-48.659 38.69299,-48.448c21.108,0.211 38.00601,22.245 37.74402,49.213z" fill="#F36941"/>
     <path id="svg_86" d="m87.638,61.068c-0.29999,26.782 -17.53799,48.298 -38.50101,48.05599c-20.965,-0.241 -37.71698,-22.14799 -37.41699,-48.92999c0.29999,-26.783 17.53799,-48.298 38.50198,-48.057c20.96503,0.241 37.716,22.148 37.41602,48.931z" fill="#F36A41"/>
     <path id="svg_87" d="m87.237,60.923c-0.337,26.596 -17.489,47.937 -38.31,47.665c-20.821,-0.272 -37.427,-22.05299 -37.089,-48.649c0.337,-26.597 17.49,-47.937 38.311,-47.666c20.82,0.273 37.425,22.053 37.088,48.65l0,0z" fill="#F36B41"/>
     <path id="svg_88" d="m86.83499,60.778c-0.375,26.41 -17.44101,47.576 -38.11801,47.274s-37.13599,-21.957 -36.76099,-48.367c0.375,-26.411 17.44101,-47.576 38.11899,-47.274c20.67702,0.302 37.13501,21.95601 36.76001,48.367z" fill="#F36C41"/>
     <path id="svg_89" d="m86.43399,60.634c-0.41199,26.22401 -17.392,47.214 -37.92599,46.883c-20.534,-0.332 -36.84601,-21.861 -36.43399,-48.085c0.41199,-26.225 17.39297,-47.215 37.927,-46.883c20.534,0.331 36.84598,21.859 36.43298,48.085z" fill="#F36D41"/>
     <path id="svg_90" d="m86.03299,60.489c-0.45001,26.039 -17.34399,46.854 -37.73401,46.492s-36.556,-21.765 -36.10599,-47.803c0.44998,-26.04 17.34399,-46.854 37.73499,-46.492c20.38902,0.361 36.55402,21.763 36.10501,47.803z" fill="#F36E41"/>
     <path id="svg_91" d="m85.631,60.344c-0.487,25.853 -17.295,46.493 -37.542,46.101c-20.248,-0.393 -36.267,-21.669 -35.779,-47.522c0.487,-25.854 17.296,-46.493 37.543,-46.101c20.247,0.392 36.266,21.668 35.778,47.522l0,0z" fill="#F46F41"/>
     <path id="svg_92" d="m85.23,60.199c-0.524,25.667 -17.247,46.132 -37.351,45.709c-20.104,-0.422 -35.977,-21.573 -35.452,-47.24c0.525,-25.668 17.248,-46.132 37.352,-45.71c20.104,0.423 35.976,21.573 35.451,47.241l0,0z" fill="#F47041"/>
     <path id="svg_93" d="m84.82901,60.054c-0.56201,25.481 -17.19901,45.771 -37.159,45.319c-19.961,-0.453 -35.68701,-21.477 -35.12399,-46.958c0.56198,-25.482 17.19897,-45.772 37.16,-45.319s35.68497,21.476 35.12299,46.958z" fill="#F47141"/>
     <path id="svg_94" d="m84.427,59.91c-0.6,25.295 -17.15,45.41 -36.967,44.927c-19.817,-0.483 -35.396,-21.381 -34.796,-46.676c0.599,-25.296 17.15,-45.411 36.968,-44.928c19.817,0.483 35.395,21.38 34.795,46.677l0,0z" fill="#F47241"/>
     <path id="svg_95" d="m84.026,59.765c-0.637,25.109 -17.102,45.049 -36.775,44.537c-19.673,-0.513 -35.106,-21.285 -34.469,-46.395c0.637,-25.11 17.103,-45.05 36.776,-44.537c19.673,0.513 35.105,21.284 34.468,46.395l0,0z" fill="#F47341"/>
     <path id="svg_96" d="m83.625,59.62c-0.674,24.924 -17.053,44.689 -36.583,44.146c-19.53,-0.543 -34.816,-21.189 -34.141,-46.113c0.674,-24.924 17.054,-44.689 36.584,-44.146c19.529,0.543 34.814,21.188 34.14,46.113l0,0z" fill="#F47441"/>
     <path id="svg_97" d="m83.22299,59.475c-0.71201,24.738 -17.005,44.32801 -36.392,43.75401c-19.38699,-0.57401 -34.526,-21.093 -33.814,-45.83101c0.71201,-24.73899 17.00598,-44.328 36.39301,-43.755s34.526,21.093 33.81299,45.832z" fill="#F47541"/>
     <path id="svg_98" d="m82.822,59.33c-0.75,24.552 -16.957,43.967 -36.2,43.363c-19.244,-0.604 -34.236,-20.997 -33.486,-45.549c0.75,-24.553 16.957,-43.967 36.201,-43.363c19.243,0.603 34.235,20.996 33.485,45.549l0,0z" fill="#F47641"/>
     <path id="svg_99" d="m82.42,59.186c-0.78699,24.366 -16.908,43.606 -36.008,42.972c-19.1,-0.634 -33.946,-20.90099 -33.159,-45.268c0.787,-24.367 16.909,-43.606 36.009,-42.973c19.1,0.634 33.946,20.901 33.158,45.269l0,0z" fill="#F57741"/>
     <path id="svg_100" d="m82.01901,59.041c-0.82401,24.181 -16.86002,43.24501 -35.81601,42.58101c-18.957,-0.664 -33.65601,-20.80501 -32.832,-44.98501c0.82501,-24.182 16.86102,-43.246 35.81702,-42.582c18.95697,0.663 33.65598,20.804 32.83099,44.986z" fill="#F57841"/>
     <path id="svg_101" d="m81.61801,58.896c-0.862,23.995 -16.81201,42.884 -35.625,42.19c-18.81299,-0.694 -33.366,-20.709 -32.50299,-44.70399c0.862,-23.996 16.81198,-42.884 35.625,-42.19c18.81299,0.694 33.36499,20.708 32.50299,44.70399z" fill="#F57941"/>
     <path id="svg_102" d="m81.216,58.751c-0.89902,23.809 -16.763,42.523 -35.43301,41.799c-18.66998,-0.72401 -33.07599,-20.61301 -32.17596,-44.422c0.89899,-23.81 16.76398,-42.524 35.43298,-41.799c18.67099,0.724 33.07599,20.612 32.17599,44.422z" fill="#F57A41"/>
     <path id="svg_103" d="m80.815,58.606c-0.937,23.623 -16.714,42.163 -35.241,41.408c-18.526,-0.755 -32.786,-20.517 -31.849,-44.141s16.715,-42.163 35.242,-41.408s32.785,20.517 31.848,44.141l0,0z" fill="#F57B41"/>
     <path id="svg_104" d="m80.414,58.461c-0.974,23.437 -16.666,41.801 -35.049,41.017s-32.496,-20.421 -31.521,-43.858c0.974,-23.438 16.667,-41.802 35.05,-41.017c18.382,0.784 32.494,20.42 31.52,43.858l0,0z" fill="#F57C41"/>
     <path id="svg_105" d="m80.013,58.316c-1.012,23.251 -16.618,41.43999 -34.857,40.626c-18.24,-0.815 -32.206,-20.325 -31.193,-43.577c1.012,-23.252 16.618,-41.44 34.858,-40.626c18.238,0.815 32.203,20.325 31.192,43.577l0,0z" fill="#F57D41"/>
     <path id="svg_106" d="m79.611,58.171c-1.05,23.066 -16.57,41.08 -34.666,40.235c-18.096,-0.845 -31.916,-20.229 -30.866,-43.295c1.049,-23.066 16.57,-41.08 34.667,-40.235c18.096,0.845 31.915,20.229 30.865,43.295l0,0z" fill="#F57E41"/>
     <path id="svg_107" d="m79.20999,58.027c-1.08701,22.88 -16.521,40.719 -34.474,39.844c-17.953,-0.875 -31.62601,-20.133 -30.539,-43.013c1.08701,-22.881 16.521,-40.719 34.474,-39.844s31.62601,20.132 30.539,43.013z" fill="#F67F41"/>
     <path id="svg_108" d="m78.809,57.882c-1.125,22.694 -16.473,40.358 -34.282,39.453s-31.335,-20.037 -30.21,-42.731c1.124,-22.695 16.473,-40.358 34.282,-39.453s31.334,20.036 30.21,42.731l0,0z" fill="#F68041"/>
     <path id="svg_109" d="m78.407,57.737c-1.16199,22.508 -16.425,39.997 -34.09,39.062c-17.666,-0.936 -31.045,-19.941 -29.883,-42.45c1.162,-22.509 16.425,-39.998 34.091,-39.062c17.665,0.936 31.044,19.941 29.882,42.45l0,0z" fill="#F68141"/>
     <path id="svg_110" d="m78.006,57.592c-1.199,22.323 -16.376,39.636 -33.89799,38.67s-30.755,-19.845 -29.556,-42.168c1.199,-22.323 16.376,-39.636 33.89899,-38.67c17.522,0.966 30.754,19.845 29.555,42.168l0,0z" fill="#F68241"/>
     <path id="svg_111" d="m77.604,57.448c-1.237,22.137 -16.328,39.275 -33.707,38.279c-17.379,-0.99599 -30.465,-19.75 -29.22801,-41.886c1.236,-22.138 16.328,-39.275 33.70701,-38.28c17.379,0.996 30.465,19.749 29.228,41.887l0,0l0,0z" fill="#F68341"/>
     <path id="svg_112" d="m77.203,57.303c-1.274,21.951 -16.279,38.915 -33.515,37.888c-17.236,-1.026 -30.175,-19.653 -28.901,-41.604s16.28,-38.915 33.516,-37.888c17.236,1.025 30.175,19.652 28.9,41.604l0,0z" fill="#F68441"/>
     <path id="svg_113" d="m76.802,57.158c-1.31201,21.76499 -16.23099,38.55399 -33.323,37.49799c-17.09201,-1.057 -29.88501,-19.558 -28.573,-41.323c1.31198,-21.766 16.23099,-38.554 33.323,-37.498s29.884,19.557 28.573,41.32301z" fill="#F68541"/>
     <path id="svg_114" d="m76.4,57.013c-1.349,21.579 -16.183,38.192 -33.131,37.106c-16.949,-1.08701 -29.595,-19.46201 -28.246,-41.041c1.349,-21.58 16.183,-38.193 33.131,-37.107c16.95,1.087 29.596,19.462 28.246,41.042l0,0z" fill="#F68641"/>
     <path id="svg_115" d="m75.999,56.868c-1.387,21.394 -16.134,37.832 -32.939,36.715s-29.305,-19.366 -27.918,-40.759c1.387,-21.394 16.134,-37.832 32.94,-36.715c16.805,1.117 29.304,19.365 27.917,40.759l0,0z" fill="#F78741"/>
     <path id="svg_116" d="m75.59799,56.724c-1.42401,21.208 -16.086,37.471 -32.74802,36.324c-16.66199,-1.147 -29.01498,-19.27 -27.59,-40.478c1.42401,-21.208 16.086,-37.471 32.74802,-36.325c16.66101,1.148 29.01401,19.27 27.59,40.479z" fill="#F78841"/>
     <path id="svg_117" d="m75.196,56.579c-1.462,21.022 -16.037,37.11 -32.556,35.933c-16.519,-1.177 -28.725,-19.173 -27.263,-40.196c1.461,-21.022 16.037,-37.11 32.556,-35.933c16.519,1.177 28.725,19.173 27.263,40.196l0,0z" fill="#F78941"/>
     <path id="svg_118" d="m74.795,56.434c-1.499,20.836 -15.989,36.75 -32.364,35.542c-16.375,-1.208 -28.435,-19.078 -26.936,-39.914c1.499,-20.837 15.989,-36.75 32.364,-35.542s28.435,19.077 26.936,39.914l0,0z" fill="#F78A41"/>
     <path id="svg_119" d="m74.39401,56.289c-1.53699,20.65 -15.94,36.388 -32.172,35.151c-16.23199,-1.237 -28.14502,-18.981 -26.608,-39.632c1.53601,-20.651 15.94,-36.388 32.172,-35.151c16.23199,1.237 28.14398,18.981 26.608,39.632z" fill="#F78B41"/>
     <path id="svg_120" d="m73.992,56.144c-1.574,20.465 -15.892,36.027 -31.98,34.76c-16.088,-1.268 -27.855,-18.886 -26.28,-39.351c1.574,-20.465 15.892,-36.027 31.98,-34.76c16.088,1.268 27.854,18.886 26.27999,39.351l0,0l0,0l0,0z" fill="#F78C41"/>
     <path id="svg_121" d="m73.591,56c-1.61201,20.278 -15.844,35.667 -31.78901,34.369s-27.564,-18.79 -25.952,-39.069c1.611,-20.279 15.844,-35.667 31.789,-34.369c15.944,1.297 27.564,18.789 25.952,39.069l0,0l0,0l0,0z" fill="#F78D41"/>
     <path id="svg_122" d="m73.189,55.854c-1.64899,20.09299 -15.79498,35.306 -31.59698,33.978c-15.80103,-1.328 -27.27402,-18.694 -25.625,-38.787c1.64899,-20.093 15.79498,-35.306 31.59698,-33.978c15.802,1.329 27.27402,18.694 25.625,38.787z" fill="#F78E41"/>
     <path id="svg_123" d="m72.788,55.709c-1.687,19.907 -15.747,34.945 -31.405,33.587c-15.658,-1.35799 -26.985,-18.598 -25.297,-38.505c1.686,-19.908 15.747,-34.945 31.405,-33.587c15.658,1.359 26.984,18.598 25.297,38.505l0,0z" fill="#F88F41"/>
     <path id="svg_124" d="m72.387,55.565c-1.724,19.721 -15.698,34.583 -31.213,33.196c-15.515,-1.389 -26.695,-18.502 -24.97,-38.224c1.724,-19.722 15.699,-34.583 31.213,-33.196c15.515,1.388 26.694,18.502 24.97,38.224l0,0z" fill="#F89041"/>
     <path id="svg_125" d="m71.98499,55.42c-1.76099,19.536 -15.64999,34.223 -31.021,32.805c-15.37201,-1.418 -26.405,-18.406 -24.64301,-37.941c1.76102,-19.536 15.64999,-34.223 31.021,-32.805c15.37201,1.417 26.40503,18.40499 24.64301,37.941z" fill="#F89141"/>
     <path id="svg_126" d="m71.584,55.275c-1.799,19.35 -15.602,33.862 -30.829,32.414c-15.228,-1.44901 -26.115,-18.31001 -24.315,-37.66c1.798,-19.35 15.602,-33.862 30.83,-32.414c15.227,1.449 26.113,18.31 24.314,37.66l0,0z" fill="#F89241"/>
     <path id="svg_127" d="m71.18301,55.13c-1.836,19.16399 -15.55301,33.50099 -30.63699,32.022c-15.08401,-1.479 -25.82501,-18.214 -23.98801,-37.37801c1.836,-19.16499 15.55399,-33.501 30.638,-32.022c15.08398,1.479 25.823,18.214 23.987,37.37801z" fill="#F89341"/>
     <path id="svg_128" d="m70.78101,54.985c-1.87399,18.979 -15.505,33.141 -30.44598,31.632c-14.94101,-1.509 -25.53403,-18.118 -23.66,-37.096c1.87399,-18.979 15.505,-33.141 30.44598,-31.632s25.534,18.118 23.66,37.096z" fill="#F89441"/>
     <path id="svg_129" d="m70.38,54.841c-1.91101,18.792 -15.457,32.779 -30.254,31.24c-14.797,-1.54 -25.24399,-18.022 -23.332,-36.814c1.91098,-18.793 15.457,-32.779 30.254,-31.24s25.24399,18.021 23.332,36.814z" fill="#F89541"/>
     <path id="svg_130" d="m69.979,54.696c-1.949,18.607 -15.408,32.418 -30.062,30.85c-14.654,-1.57 -24.954,-17.92599 -23.005,-36.533c1.949,-18.607 15.408,-32.418 30.063,-30.85c14.653,1.569 24.953,17.926 23.004,36.533l0,0z" fill="#F89641"/>
     <path id="svg_131" d="m69.577,54.551c-1.986,18.42 -15.359,32.058 -29.87,30.458s-24.665,-17.83 -22.677,-36.251c1.986,-18.421 15.36,-32.058 29.871,-30.458c14.51,1.599 24.662,17.829 22.676,36.251l0,0z" fill="#F99642"/>
     <path id="svg_132" d="m69.17599,54.406c-2.02402,18.235 -15.311,31.697 -29.67801,30.067c-14.36798,-1.63 -24.375,-17.734 -22.35001,-35.969c2.02402,-18.235 15.31201,-31.697 29.67902,-30.067c14.367,1.629 24.37302,17.733 22.349,35.969z" fill="#F99742"/>
     <path id="svg_133" d="m68.774,54.262c-2.061,18.049 -15.263,31.335 -29.486,29.676c-14.224,-1.66 -24.084,-17.638 -22.022,-35.688c2.061,-18.049 15.263,-31.335 29.487,-29.676c14.224,1.66 24.083,17.637 22.021,35.688l0,0z" fill="#F99842"/>
     <path id="svg_134" d="m68.373,54.117c-2.099,17.863 -15.214,30.975 -29.295,29.285c-14.081,-1.69 -23.794,-17.542 -21.694,-35.406c2.098,-17.864 15.214,-30.975 29.295,-29.285s23.793,17.541 21.694,35.406l0,0z" fill="#F99942"/>
     <path id="svg_135" d="m67.97198,53.972c-2.13602,17.678 -15.16602,30.614 -29.103,28.894s-23.504,-17.446 -21.367,-35.124c2.13599,-17.678 15.16699,-30.614 29.104,-28.894c13.936,1.72 23.50201,17.445 21.366,35.124z" fill="#F99A42"/>
     <path id="svg_136" d="m67.57,53.827c-2.174,17.492 -15.118,30.253 -28.911,28.503c-13.793,-1.751 -23.214,-17.35 -21.04,-34.842c2.173,-17.492 15.118,-30.253 28.912,-28.503c13.794,1.75 23.21301,17.349 21.039,34.842l0,0z" fill="#F99B42"/>
     <path id="svg_137" d="m67.169,53.682c-2.211,17.306 -15.069,29.893 -28.719,28.112c-13.65,-1.781 -22.924,-17.254 -20.712,-34.56c2.211,-17.307 15.069,-29.893 28.72,-28.112c13.649,1.78 22.922,17.253 20.711,34.56l0,0z" fill="#F99C42"/>
     <path id="svg_138" d="m66.76801,53.53799c-2.24899,17.12 -15.021,29.53101 -28.52701,27.72101c-13.50699,-1.811 -22.634,-17.158 -20.38501,-34.27901c2.24902,-17.12099 15.02103,-29.53099 28.52802,-27.721c13.50601,1.81 22.633,17.158 20.384,34.279z" fill="#F99D42"/>
     <path id="svg_139" d="m66.366,53.39301c-2.28601,16.935 -14.97198,29.17 -28.33499,27.32999c-13.36401,-1.841 -22.34399,-17.062 -20.05701,-33.997c2.28601,-16.935 14.97299,-29.17 28.336,-27.33c13.36301,1.84 22.34302,17.062 20.056,33.99701z" fill="#FA9E42"/>
     <path id="svg_140" d="m65.965,53.248c-2.323,16.749 -14.92401,28.81 -28.14398,26.939c-13.22,-1.87199 -22.05402,-16.966 -19.729,-33.715c2.323,-16.749 14.92398,-28.809 28.14398,-26.938c13.22,1.87 22.05301,16.965 19.729,33.714z" fill="#FA9F42"/>
     <path id="svg_141" d="m65.563,53.103c-2.361,16.563 -14.875,28.449 -27.952,26.547s-21.764,-16.87 -19.402,-33.433c2.361,-16.563 14.876,-28.449 27.953,-26.547c13.077,1.901 21.763,16.87 19.401,33.433l0,0z" fill="#FAA042"/>
     <path id="svg_142" d="m65.162,52.958c-2.398,16.377 -14.827,28.088 -27.76,26.157c-12.933,-1.932 -21.474,-16.774 -19.074,-33.151c2.398,-16.377 14.828,-28.088 27.761,-26.157s21.472,16.774 19.073,33.151l0,0z" fill="#FAA142"/>
     <path id="svg_143" d="m64.761,52.813c-2.436,16.191 -14.779,27.727 -27.568,25.765c-12.79,-1.96201 -21.184,-16.678 -18.747,-32.87c2.436,-16.191 14.779,-27.727 27.569,-25.765c12.789,1.962 21.182,16.679 18.746,32.87l0,0z" fill="#FAA242"/>
     <path id="svg_144" d="m64.359,52.668c-2.473,16.005 -14.73,27.366 -27.376,25.375c-12.646,-1.992 -20.894,-16.583 -18.419,-32.588c2.473,-16.006 14.731,-27.366 27.377,-25.375c12.646,1.992 20.892,16.583 18.418,32.588l0,0z" fill="#FAA342"/>
     <path id="svg_145" d="m63.95801,52.52299c-2.51099,15.82001 -14.68201,27.005 -27.185,24.983s-20.604,-16.48599 -18.09201,-32.306c2.51102,-15.82 14.68201,-27.005 27.185,-24.983c12.504,2.022 20.603,16.487 18.09201,32.306z" fill="#FAA442"/>
     <path id="svg_146" d="m63.55701,52.379c-2.548,15.634 -14.633,26.644 -26.99301,24.592c-12.35999,-2.053 -20.31299,-16.39 -17.76398,-32.024c2.548,-15.634 14.634,-26.644 26.99298,-24.592s20.31201,16.389 17.76401,32.024z" fill="#FAA542"/>
     <path id="svg_147" d="m63.155,52.234c-2.586,15.448 -14.58499,26.284 -26.80099,24.201c-12.216,-2.083 -20.02301,-16.294 -17.43701,-31.743c2.586,-15.448 14.58502,-26.283 26.802,-24.201c12.216,2.083 20.02301,16.29399 17.436,31.743z" fill="#FBA642"/>
     <path id="svg_148" d="m62.754,52.089c-2.62299,15.26199 -14.53699,25.922 -26.60901,23.81c-12.073,-2.113 -19.733,-16.19801 -17.10898,-31.461c2.62299,-15.263 14.53699,-25.922 26.60999,-23.81001c12.07199,2.113 19.73199,16.198 17.108,31.46101z" fill="#FBA742"/>
     <path id="svg_149" d="m62.353,51.944c-2.66101,15.077 -14.48801,25.562 -26.41699,23.419c-11.92902,-2.144 -19.44299,-16.103 -16.78101,-31.179c2.66,-15.077 14.48801,-25.562 26.41699,-23.419c11.92801,2.143 19.44202,16.10201 16.78101,31.179z" fill="#FBA842"/>
     <path id="svg_150" d="m61.951,51.799c-2.698,14.891 -14.44,25.201 -26.225,23.029c-11.786,-2.173 -19.153,-16.006 -16.454,-30.897c2.698,-14.891 14.44,-25.201 26.226,-23.028c11.786,2.172 19.152,16.005 16.453,30.896l0,0z" fill="#FBA942"/>
     <path id="svg_151" d="m61.55,51.655c-2.736,14.705 -14.392,24.84 -26.034,22.637c-11.643,-2.204 -18.863,-15.911 -16.126,-30.616c2.735,-14.705 14.392,-24.84 26.034,-22.637c11.642,2.203 18.862,15.91 16.126,30.616l0,0z" fill="#FBAA42"/>
     <path id="svg_152" d="m61.14801,51.50999c-2.77301,14.519 -14.34299,24.479 -25.84201,22.246c-11.49899,-2.23399 -18.573,-15.814 -15.79898,-30.33399c2.77298,-14.519 14.34299,-24.479 25.84198,-22.246s18.573,15.814 15.79901,30.33399z" fill="#FBAB42"/>
     <path id="svg_153" d="m60.747,51.365c-2.811,14.333 -14.294,24.118 -25.65,21.855c-11.356,-2.264 -18.283,-15.719 -15.472,-30.052c2.811,-14.333 14.295,-24.118 25.651,-21.855c11.356,2.263 18.283,15.718 15.471,30.052l0,0z" fill="#FBAC42"/>
     <path id="svg_154" d="m60.346,51.22c-2.848,14.147 -14.246,23.757 -25.458,21.464c-11.212,-2.294 -17.993,-15.623 -15.144,-29.771c2.848,-14.147 14.247,-23.757 25.459,-21.463c11.212,2.294 17.991,15.622 15.143,29.77l0,0z" fill="#FBAD42"/>
     <path id="svg_155" d="m59.944,51.076c-2.88501,13.961 -14.198,23.396 -25.267,21.073c-11.069,-2.32401 -17.703,-15.527 -14.81601,-29.489c2.88501,-13.962 14.198,-23.396 25.267,-21.07301c11.069,2.324 17.703,15.526 14.81601,29.48901z" fill="#FCAE42"/>
     <path id="svg_156" d="m59.543,50.931c-2.923,13.776 -14.14899,23.036 -25.07501,20.682c-10.92499,-2.354 -17.41299,-15.431 -14.48898,-29.207c2.923,-13.776 14.14999,-23.036 25.07498,-20.682c10.92603,2.354 17.41302,15.43 14.48901,29.207z" fill="#FCAF42"/>
     <path id="svg_157" d="m59.142,50.786c-2.961,13.59 -14.102,22.675 -24.883,20.291c-10.782,-2.385 -17.123,-15.335 -14.161,-28.925c2.96,-13.59 14.101,-22.674 24.883,-20.291c10.782,2.384 17.122,15.334 14.161,28.925l0,0z" fill="#FCB042"/>
     <path id="svg_158" d="m58.741,50.641c-2.99899,13.404 -14.05301,22.313 -24.69101,19.899c-10.63898,-2.415 -16.83298,-15.23901 -13.83298,-28.64301c2.99799,-13.40499 14.05298,-22.313 24.69098,-19.89899c10.63702,2.414 16.83102,15.238 13.83301,28.643z" fill="#FCB142"/>
     <path id="svg_159" d="m58.33899,50.496c-3.03601,13.21899 -14.004,21.953 -24.5,19.509c-10.495,-2.445 -16.543,-15.143 -13.50601,-28.36199c3.035,-13.21901 14.004,-21.952 24.5,-19.50801c10.49503,2.444 16.54202,15.142 13.50601,28.361z" fill="#FCB242"/>
     <path id="svg_160" d="m57.938,50.352c-3.073,13.032 -13.956,21.592 -24.308,19.117c-10.352,-2.475 -16.253,-15.047 -13.179,-28.08c3.073,-13.033 13.956,-21.592 24.308,-19.117c10.352,2.474 16.252,15.046 13.179,28.08l0,0z" fill="#FCB342"/>
     <path id="svg_161" d="m57.53699,50.207c-3.11099,12.847 -13.90799,21.231 -24.116,18.727c-10.20801,-2.505 -15.96201,-14.951 -12.85101,-27.798c3.11002,-12.847 13.90701,-21.23 24.11603,-18.726c10.20801,2.504 15.961,14.949 12.85098,27.797z" fill="#FCB442"/>
     <path id="svg_162" d="m57.13501,50.062c-3.14801,12.661 -13.85901,20.87 -23.92401,18.335c-10.065,-2.536 -15.672,-14.854 -12.52298,-27.51601c3.14798,-12.661 13.85898,-20.87 23.92398,-18.335s15.672,14.854 12.52301,27.51601z" fill="#FCB542"/>
     <path id="svg_163" d="m56.734,49.917c-3.186,12.475 -13.811,20.509 -23.732,17.944c-9.921,-2.566 -15.383,-14.759 -12.196,-27.234c3.185,-12.476 13.811,-20.509 23.732,-17.944s15.381,14.758 12.196,27.234l0,0z" fill="#FDB642"/>
     <path id="svg_164" d="m56.33301,49.772c-3.22299,12.29001 -13.763,20.148 -23.54099,17.553c-9.77802,-2.59599 -15.09302,-14.66299 -11.86801,-26.953c3.22198,-12.29 13.76199,-20.148 23.54099,-17.553c9.77701,2.596 15.091,14.66299 11.86801,26.953z" fill="#FDB742"/>
     <path id="svg_165" d="m55.931,49.627c-3.26099,12.104 -13.71399,19.787 -23.349,17.162c-9.63501,-2.626 -14.80301,-14.567 -11.54102,-26.67101c3.26001,-12.104 13.71402,-19.78699 23.34903,-17.16199c9.63498,2.626 14.80197,14.56699 11.54099,26.671z" fill="#FDB842"/>
     <path id="svg_166" d="m55.53,49.482c-3.298,11.918 -13.666,19.427 -23.157,16.771c-9.492,-2.656 -14.513,-14.471 -11.213,-26.389c3.297,-11.918 13.666,-19.426 23.157,-16.771c9.491,2.656 14.511,14.471 11.213,26.389l0,0z" fill="#FDB942"/>
     <path id="svg_167" d="m55.128,49.337c-3.335,11.732 -13.617,19.066 -22.965,16.38c-9.348,-2.687 -14.222,-14.375 -10.886,-26.107c3.335,-11.732 13.618,-19.065 22.965,-16.38s14.222,14.375 10.886,26.107l0,0z" fill="#FDBA42"/>
     <path id="svg_168" d="m54.72699,49.193c-3.37299,11.546 -13.569,18.705 -22.77301,15.989c-9.20398,-2.716 -13.93198,-14.279 -10.55798,-25.826c3.37299,-11.54601 13.569,-18.704 22.77298,-15.988c9.20401,2.715 13.93103,14.278 10.55801,25.825z" fill="#FDBB42"/>
     <path id="svg_169" d="m54.32599,49.048c-3.41101,11.35999 -13.521,18.34399 -22.582,15.59799c-9.061,-2.747 -13.642,-14.18299 -10.23001,-25.544c3.41,-11.36 13.52103,-18.344 22.582,-15.598s13.64001,14.183 10.23001,25.54401z" fill="#FDBC42"/>
     <path id="svg_170" d="m53.924,48.903c-3.448,11.174 -13.472,17.983 -22.39,15.207c-8.917,-2.777 -13.352,-14.087 -9.903,-25.262c3.448,-11.175 13.472,-17.983 22.39,-15.207c8.918,2.776 13.352,14.087 9.903,25.262l0,0z" fill="#FDBD42"/>
     <path id="svg_171" d="m53.523,48.758c-3.485,10.989 -13.424,17.622 -22.198,14.816c-8.774,-2.807 -13.063,-13.991 -9.576,-24.98c3.485,-10.989 13.424,-17.622 22.198,-14.815c8.775,2.806 13.062,13.99 9.576,24.979l0,0z" fill="#FEBE42"/>
     <path id="svg_172" d="m53.12201,48.613c-3.52301,10.803 -13.375,17.262 -22.00601,14.425c-8.63098,-2.83699 -12.77197,-13.89499 -9.24799,-24.698c3.522,-10.80299 13.375,-17.26099 22.00601,-14.424c8.62997,2.836 12.77097,13.894 9.24799,24.697z" fill="#FEBF42"/>
     <path id="svg_173" d="m52.72,48.469c-3.561,10.617 -13.327,16.9 -21.814,14.034c-8.48801,-2.868 -12.48199,-13.799 -8.92102,-24.417c3.56003,-10.617 13.32703,-16.9 21.81403,-14.033s12.48199,13.798 8.92099,24.416z" fill="#FEC042"/>
     <path id="svg_174" d="m52.319,48.32401c-3.59799,10.43199 -13.27802,16.53999 -21.62299,13.64299c-8.34402,-2.897 -12.19202,-13.703 -8.59302,-24.13499c3.59702,-10.432 13.27802,-16.539 21.62302,-13.642c8.34399,2.896 12.19098,13.702 8.59299,24.134z" fill="#FEC142"/>
     <path id="svg_175" d="m51.91699,48.179c-3.63501,10.246 -13.23001,16.17799 -21.431,13.251c-8.20001,-2.928 -11.90201,-13.607 -8.26501,-23.854c3.63501,-10.24599 13.23001,-16.178 21.431,-13.251c8.20102,2.928 11.90103,13.608 8.26501,23.854z" fill="#FEC242"/>
     <path id="svg_176" d="m51.51599,48.034c-3.673,10.06 -13.18201,15.818 -21.23901,12.85999c-8.05698,-2.95799 -11.612,-13.51099 -7.93799,-23.57099c3.672,-10.06001 13.18201,-15.81701 21.23901,-12.86001c8.05701,2.957 11.61099,13.511 7.93799,23.57101z" fill="#FEC342"/>
     <path id="svg_177" d="m51.11499,47.89c-3.70999,9.874 -13.133,15.457 -21.047,12.469c-7.914,-2.988 -11.32199,-13.415 -7.61002,-23.29c3.71002,-9.875 13.13303,-15.457 21.04703,-12.469s11.32001,13.415 7.60999,23.29z" fill="#FEC442"/>
     <path id="svg_178" d="m50.71301,47.745c-3.74802,9.688 -13.08499,15.09601 -20.85501,12.078c-7.771,-3.018 -11.03198,-13.319 -7.28299,-23.008c3.74701,-9.68799 13.08398,-15.095 20.85501,-12.078c7.77097,3.018 11.03098,13.319 7.28299,23.008z" fill="#FEC542"/>
     <path id="svg_179" d="m50.312,47.6c-3.785,9.502 -13.037,14.735 -20.663,11.688c-7.627,-3.049 -10.742,-13.223 -6.956,-22.726c3.785,-9.502 13.037,-14.735 20.664,-11.687s10.741,13.222 6.955,22.725l0,0z" fill="#FFC642"/>
     <path id="svg_180" d="m49.911,47.455c-3.823,9.316 -12.988,14.374 -20.472,11.296c-7.483,-3.079 -10.452,-13.127 -6.627,-22.444c3.822,-9.316 12.988,-14.374 20.472,-11.295c7.483,3.077 10.45,13.126 6.627,22.443l0,0z" fill="#FFC742"/>
     <path id="svg_181" d="m49.509,47.31c-3.86,9.131 -12.939,14.013 -20.28,10.905c-7.34,-3.109 -10.162,-13.031 -6.3,-22.163c3.859,-9.131 12.939,-14.013 20.279,-10.905c7.341,3.109 10.162,13.032 6.301,22.163l0,0z" fill="#FFC842"/>
     <path id="svg_182" d="m49.108,47.166c-3.897,8.945 -12.89099,13.652 -20.08801,10.514c-7.19699,-3.139 -9.87198,-12.93501 -5.97299,-21.881c3.897,-8.945 12.89099,-13.652 20.08801,-10.513c7.19699,3.137 9.871,12.934 5.97299,21.88z" fill="#FFC942"/>
     <ellipse id="svg_183" ry="17.388" rx="14" cy="145.60063" cx="59.155" fill="#FFCA42" transform="matrix(0.9122,0.4098,-0.4098,0.9122,41.6575,-115.7888) "/>
     <ellipse id="svg_184" ry="17.345" rx="13.966" cy="145.36667" cx="59.0366" fill="#FFCA43" transform="matrix(0.9126,0.4089,-0.4089,0.9126,41.4887,-115.5184) "/>
     <ellipse id="svg_185" ry="17.301" rx="13.931" cy="145.11564" cx="58.89953" fill="#FFCB44" transform="matrix(0.913,0.4079,-0.4079,0.913,41.3144,-115.2385) "/>
     <ellipse id="svg_186" ry="17.259" rx="13.896" cy="144.84424" cx="58.77987" fill="#FFCB45" transform="matrix(0.9135,0.4069,-0.4069,0.9135,41.1446,-114.965) "/>
     <ellipse id="svg_187" ry="17.215" rx="13.861" cy="144.59267" cx="58.64387" fill="#FFCB46" transform="matrix(0.9139,0.4059,-0.4059,0.9139,40.9742,-114.6901) "/>
     <ellipse id="svg_188" ry="17.172" rx="13.826" cy="144.3208" cx="58.52538" fill="#FFCB47" transform="matrix(0.9144,0.4049,-0.4049,0.9144,40.8007,-114.4096) "/>
     <ellipse id="svg_189" ry="17.129" rx="13.792" cy="144.0687" cx="58.39046" fill="#FFCC48" transform="matrix(0.9148,0.4039,-0.4039,0.9148,40.6269,-114.1275) "/>
     <path id="svg_190" d="m48.43701,46.78c-3.79901,8.637 -12.517,13.158 -19.47101,10.098c-6.95398,-3.062 -9.51199,-12.544 -5.71201,-21.182c3.79901,-8.637 12.517,-13.157 19.47101,-10.097c6.95398,3.06 9.51099,12.544 5.71201,21.181z" fill="#FFCC49"/>
     <path id="svg_191" d="m48.39801,46.74599c-3.78,8.62001 -12.47,13.139 -19.41,10.09401c-6.94,-3.04601 -9.50198,-12.502 -5.72101,-21.12301c3.78,-8.62 12.47,-13.13799 19.41,-10.09299c6.94,3.045 9.50101,12.502 5.72101,21.12199z" fill="#FFCC4A"/>
     <path id="svg_192" d="m48.35901,46.711c-3.76001,8.60201 -12.423,13.12 -19.349,10.09c-6.92599,-3.03 -9.49301,-12.45999 -5.73099,-21.063c3.75998,-8.603 12.42398,-13.119 19.34998,-10.09s9.492,12.461 5.73001,21.063z" fill="#FFCD4B"/>
     <path id="svg_193" d="m48.32101,46.677c-3.741,8.584 -12.37701,13.101 -19.289,10.086c-6.91202,-3.015 -9.48199,-12.418 -5.73999,-21.00301c3.741,-8.585 12.37698,-13.09999 19.289,-10.08599c6.91199,3.014 9.48196,12.418 5.73999,21.003z" fill="#FFCD4C"/>
     <path id="svg_194" d="m48.28201,46.64301c-3.72202,8.56699 -12.33002,13.08199 -19.228,10.08299c-6.897,-2.99899 -9.47299,-12.375 -5.75,-20.94299c3.72101,-8.56701 12.33099,-13.08101 19.228,-10.083s9.47198,12.375 5.75,20.943z" fill="#FFCD4D"/>
     <path id="svg_195" d="m48.24399,46.608c-3.702,8.55 -12.284,13.063 -19.16699,10.08c-6.884,-2.98401 -9.46301,-12.334 -5.759,-20.884c3.702,-8.549 12.284,-13.062 19.16699,-10.079c6.88303,2.983 9.46201,12.333 5.759,20.883z" fill="#FFCD4E"/>
     <path id="svg_196" d="m48.20499,46.57401c-3.68298,8.532 -12.237,13.043 -19.10599,10.076c-6.86902,-2.969 -9.453,-12.292 -5.76901,-20.82401c3.68301,-8.53199 12.237,-13.043 19.10602,-10.075c6.87,2.967 9.453,12.291 5.76898,20.82301z" fill="#FFCE4F"/>
     <path id="svg_197" d="m48.167,46.54c-3.663,8.515 -12.19,13.024 -19.045,10.072c-6.855,-2.953 -9.443,-12.25 -5.778,-20.765c3.663,-8.515 12.19,-13.024 19.046,-10.071c6.854,2.952 9.441,12.248 5.777,20.764l0,0z" fill="#FFCE50"/>
     <path id="svg_198" d="m48.128,46.505c-3.644,8.498 -12.144,13.005 -18.985,10.068c-6.841,-2.938 -9.433,-12.207 -5.788,-20.705c3.644,-8.497 12.144,-13.004 18.985,-10.068c6.842,2.938 9.432,12.208 5.788,20.705l0,0z" fill="#FFCE51"/>
     <path id="svg_199" d="m48.089,46.471c-3.625,8.48 -12.097,12.986 -18.924,10.065c-6.827,-2.922 -9.423,-12.166 -5.797,-20.646c3.624,-8.479 12.097,-12.985 18.924,-10.064c6.827,2.922 9.423,12.165 5.797,20.645l0,0z" fill="#FFCE52"/>
     <path id="svg_200" d="m48.05099,46.437c-3.60501,8.462 -12.05099,12.967 -18.86301,10.061c-6.81299,-2.907 -9.414,-12.123 -5.80701,-20.586c3.60501,-8.462 12.05099,-12.966 18.86301,-10.061c6.81302,2.906 9.41302,12.123 5.80701,20.586z" fill="#FFCF53"/>
     <path id="svg_201" d="m48.01199,46.402c-3.58499,8.445 -12.004,12.948 -18.80301,10.058c-6.798,-2.891 -9.40298,-12.081 -5.81601,-20.52599c3.58502,-8.445 12.00403,-12.94701 18.80301,-10.05701c6.79901,2.89 9.40302,12.08 5.81601,20.525z" fill="#FFCF54"/>
     <path id="svg_202" d="m47.974,46.368c-3.566,8.427 -11.958,12.929 -18.742,10.054c-6.785,-2.876 -9.394,-12.039 -5.826,-20.467c3.566,-8.427 11.958,-12.928 18.742,-10.053c6.785,2.875 9.393,12.038 5.826,20.466l0,0z" fill="#FFCF55"/>
     <path id="svg_203" d="m47.935,46.334c-3.547,8.41 -11.91101,12.91 -18.681,10.05c-6.771,-2.86001 -9.384,-11.997 -5.83499,-20.407c3.547,-8.41 11.91098,-12.909 18.68201,-10.05c6.76898,2.86 9.38199,11.996 5.83398,20.407z" fill="#FFD056"/>
     <path id="svg_204" d="m47.896,46.299c-3.52701,8.39301 -11.86398,12.89101 -18.621,10.047c-6.75598,-2.845 -9.37399,-11.955 -5.845,-20.348c3.52802,-8.393 11.86502,-12.89 18.621,-10.046c6.75702,2.844 9.37399,11.954 5.845,20.347z" fill="#FFD057"/>
     <path id="svg_205" d="m47.858,46.265c-3.508,8.375 -11.818,12.872 -18.56,10.043c-6.742,-2.83 -9.364,-11.913 -5.854,-20.288c3.508,-8.375 11.818,-12.871 18.56,-10.042c6.742,2.828 9.363,11.912 5.854,20.287l0,0z" fill="#FFD058"/>
     <path id="svg_206" d="m47.819,46.231c-3.489,8.357 -11.771,12.852 -18.499,10.039c-6.728,-2.814 -9.354,-11.87 -5.864,-20.229c3.489,-8.357 11.771,-12.852 18.5,-10.039c6.728,2.814 9.353,11.871 5.863,20.229l0,0z" fill="#FFD059"/>
     <path id="svg_207" d="m47.781,46.196c-3.469,8.34 -11.725,12.833 -18.438,10.036c-6.714,-2.798 -9.344,-11.828 -5.874,-20.168c3.469,-8.34 11.725,-12.833 18.438,-10.035c6.715,2.797 9.344,11.827 5.874,20.167l0,0z" fill="#FFD15A"/>
     <path id="svg_208" d="m47.74301,46.162c-3.45001,8.323 -11.67801,12.814 -18.37799,10.032c-6.70001,-2.783 -9.33401,-11.786 -5.883,-20.109c3.44998,-8.323 11.67798,-12.813 18.37799,-10.031c6.69897,2.782 9.33298,11.785 5.883,20.108z" fill="#FFD15B"/>
     <path id="svg_209" d="m47.70401,46.128c-3.431,8.305 -11.63199,12.79501 -18.31699,10.028c-6.68503,-2.768 -9.32401,-11.744 -5.89203,-20.05c3.431,-8.305 11.63202,-12.794 18.31702,-10.027c6.685,2.767 9.323,11.743 5.892,20.049z" fill="#FFD15C"/>
     <path id="svg_210" d="m47.666,46.093c-3.412,8.288 -11.585,12.776 -18.256,10.025c-6.671,-2.752 -9.314,-11.702 -5.902,-19.99c3.411,-8.288 11.585,-12.776 18.256,-10.024s9.313,11.701 5.902,19.989l0,0z" fill="#FFD25D"/>
     <path id="svg_211" d="m47.627,46.059c-3.392,8.271 -11.539,12.757 -18.196,10.021c-6.657,-2.737 -9.305,-11.659 -5.911,-19.93c3.392,-8.271 11.539,-12.756 18.195,-10.021c6.658,2.736 9.304,11.66 5.912,19.93l0,0z" fill="#FFD25E"/>
     <path id="svg_212" d="m47.58801,46.025c-3.37302,8.253 -11.492,12.738 -18.13501,10.017c-6.64301,-2.721 -9.29498,-11.617 -5.92099,-19.87099c3.37201,-8.25301 11.492,-12.73701 18.13501,-10.01701c6.64398,2.721 9.29398,11.617 5.92099,19.871z" fill="#FFD25F"/>
     <path id="svg_213" d="m47.55,45.99c-3.353,8.236 -11.445,12.719 -18.074,10.014c-6.629,-2.706 -9.285,-11.575 -5.93,-19.812c3.353,-8.235 11.445,-12.718 18.074,-10.013c6.628,2.706 9.283,11.575 5.93,19.811l0,0z" fill="#FFD260"/>
     <path id="svg_214" d="m47.511,45.956c-3.334,8.218 -11.399,12.7 -18.014,10.01c-6.615,-2.69 -9.275,-11.533 -5.939,-19.751c3.333,-8.218 11.398,-12.699 18.013,-10.01s9.274,11.533 5.94,19.751l0,0z" fill="#FFD361"/>
     <path id="svg_215" d="m47.47299,45.922c-3.314,8.2 -11.35199,12.68101 -17.953,10.006c-6.60101,-2.675 -9.26498,-11.491 -5.95001,-19.692c3.31403,-8.2 11.35303,-12.68 17.953,-10.006c6.60101,2.674 9.26501,11.491 5.95001,19.692z" fill="#FFD362"/>
     <path id="svg_216" d="m47.43399,45.888c-3.29501,8.183 -11.306,12.661 -17.892,10.002c-6.586,-2.659 -9.255,-11.449 -5.95901,-19.632c3.29501,-8.18299 11.306,-12.661 17.892,-10.002c6.58704,2.658 9.25403,11.44799 5.95901,19.632z" fill="#FFD363"/>
     <path id="svg_217" d="m47.396,45.853c-3.275,8.166 -11.259,12.643 -17.831,10c-6.573,-2.645 -9.246,-11.407 -5.969,-19.573c3.275,-8.166 11.259,-12.642 17.832,-9.999c6.572,2.643 9.243,11.406 5.968,19.572l0,0z" fill="#FFD464"/>
     <path id="svg_218" d="m47.357,45.819c-3.256,8.148 -11.212,12.623 -17.771,9.996c-6.558,-2.629 -9.235,-11.365 -5.978,-19.513c3.256,-8.148 11.212,-12.623 17.771,-9.995c6.558,2.627 9.235,11.363 5.978,19.512l0,0z" fill="#FFD465"/>
     <path id="svg_219" d="m47.318,45.785c-3.237,8.13 -11.166,12.604 -17.71,9.992c-6.544,-2.613 -9.225,-11.322 -5.987,-19.454c3.237,-8.13 11.166,-12.604 17.71,-9.991s9.225,11.321 5.987,19.453l0,0z" fill="#FFD466"/>
     <path id="svg_220" d="m47.28,45.75c-3.21701,8.113 -11.11899,12.585 -17.64899,9.988c-6.53,-2.598 -9.216,-11.28 -5.99701,-19.394c3.21701,-8.113 11.11899,-12.584 17.64899,-9.987c6.53,2.597 9.215,11.28 5.99701,19.393z" fill="#FFD467"/>
     <path id="svg_221" d="m47.241,45.716c-3.198,8.096 -11.073,12.566 -17.588,9.984c-6.516,-2.582 -9.206,-11.238 -6.006,-19.334c3.198,-8.096 11.073,-12.565 17.588,-9.984c6.515,2.581 9.204,11.238 6.006,19.334l0,0z" fill="#FFD568"/>
     <path id="svg_222" d="m47.203,45.682c-3.179,8.078 -11.026,12.547 -17.527,9.981c-6.502,-2.567 -9.196,-11.196 -6.016,-19.275c3.178,-8.078 11.026,-12.546 17.527,-9.98s9.195,11.195 6.016,19.274l0,0z" fill="#FFD569"/>
     <path id="svg_223" d="m47.164,45.647c-3.159,8.061 -10.979,12.528 -17.467,9.978c-6.487,-2.551 -9.186,-11.154 -6.025,-19.215c3.159,-8.061 10.979,-12.527 17.467,-9.977c6.487,2.55 9.185,11.153 6.025,19.214l0,0z" fill="#FFD56A"/>
     <path id="svg_224" d="m47.125,45.613c-3.14001,8.043 -10.93301,12.509 -17.40601,9.97401c-6.47299,-2.53601 -9.17599,-11.11201 -6.035,-19.15501c3.14001,-8.043 10.93301,-12.508 17.40601,-9.973c6.474,2.534 9.17599,11.11 6.035,19.154z" fill="#FFD56B"/>
     <path id="svg_225" d="m47.08701,45.57899c-3.12,8.026 -10.88599,12.48901 -17.345,9.97c-6.45898,-2.521 -9.16599,-11.06899 -6.04401,-19.09599c3.12003,-8.026 10.88602,-12.489 17.345,-9.969c6.45801,2.518 9.16501,11.068 6.04401,19.09499z" fill="#FFD66C"/>
     <path id="svg_226" d="m47.048,45.544c-3.10101,8.009 -10.84,12.471 -17.285,9.967c-6.44501,-2.505 -9.15601,-11.028 -6.05399,-19.037c3.10098,-8.008 10.84,-12.47 17.28497,-9.966c6.44501,2.505 9.15601,11.027 6.05402,19.036z" fill="#FFD66D"/>
     <path id="svg_227" d="m47.01001,45.50999c-3.082,7.991 -10.793,12.45201 -17.224,9.96301c-6.431,-2.49 -9.146,-10.985 -6.06299,-18.977c3.082,-7.991 10.793,-12.451 17.224,-9.962s9.14499,10.985 6.06299,18.97599z" fill="#FFD66E"/>
     <path id="svg_228" d="m46.97101,45.47601c-3.06201,7.973 -10.74701,12.432 -17.16299,9.95899c-6.41699,-2.474 -9.13602,-10.94299 -6.073,-18.91699c3.06299,-7.97401 10.74701,-12.43201 17.164,-9.95801c6.41599,2.472 9.13498,10.941 6.07199,18.91601z" fill="#FFD76F"/>
     <path id="svg_229" d="m46.93301,45.441c-3.04199,7.956 -10.70001,12.41399 -17.10199,9.956c-6.40302,-2.458 -9.12701,-10.901 -6.08301,-18.857c3.043,-7.956 10.69998,-12.413 17.103,-9.955c6.401,2.457 9.125,10.9 6.082,18.856z" fill="#FFD770"/>
     <path id="svg_230" d="m46.89401,45.407c-3.02301,7.938 -10.65302,12.394 -17.04199,9.952c-6.38901,-2.443 -9.117,-10.859 -6.09201,-18.798c3.02301,-7.938 10.65399,-12.394 17.04199,-9.951s9.116,10.858 6.09201,18.797z" fill="#FFD771"/>
     <path id="svg_231" d="m46.85501,45.373c-3.004,7.921 -10.60599,12.375 -16.98099,9.948c-6.37402,-2.42799 -9.10602,-10.817 -6.10202,-18.739c3.004,-7.921 10.60699,-12.374 16.98102,-9.947c6.37497,2.427 9.10696,10.81601 6.10199,18.738z" fill="#FFD772"/>
     <path id="svg_232" d="m46.817,45.338c-2.984,7.904 -10.56,12.356 -16.92,9.945c-6.36,-2.412 -9.097,-10.775 -6.111,-18.679c2.985,-7.904 10.561,-12.355 16.92,-9.944c6.36,2.411 9.096,10.774 6.111,18.678l0,0z" fill="#FFD873"/>
     <path id="svg_233" d="m46.778,45.304c-2.965,7.886 -10.514,12.337 -16.859,9.941c-6.346,-2.397 -9.087,-10.732 -6.121,-18.619c2.965,-7.886 10.514,-12.336 16.859,-9.94c6.347,2.395 9.087,10.731 6.121,18.618l0,0z" fill="#FFD874"/>
     <path id="svg_234" d="m46.74,45.27c-2.946,7.869 -10.467,12.318 -16.798,9.937c-6.332,-2.381 -9.078,-10.69 -6.13,-18.56c2.946,-7.869 10.467,-12.317 16.799,-9.937s9.075,10.69 6.129,18.56l0,0z" fill="#FFD875"/>
     <path id="svg_235" d="m46.70099,45.235c-2.92599,7.85201 -10.42001,12.299 -16.73801,9.934c-6.31799,-2.366 -9.06699,-10.648 -6.13998,-18.5c2.92599,-7.852 10.41998,-12.298 16.73801,-9.933c6.31799,2.365 9.06699,10.647 6.13998,18.499z" fill="#FFD976"/>
     <path id="svg_236" d="m46.66299,45.201c-2.90701,7.834 -10.37399,12.28 -16.677,9.93c-6.30402,-2.35101 -9.05701,-10.606 -6.14902,-18.44c2.90701,-7.833 10.37402,-12.279 16.677,-9.929c6.30301,2.349 9.05603,10.605 6.14902,18.439z" fill="#FFD977"/>
     <path id="svg_237" d="m46.624,45.167c-2.887,7.816 -10.327,12.26 -16.616,9.926c-6.29,-2.335 -9.048,-10.564 -6.159,-18.381c2.888,-7.816 10.327,-12.26 16.617,-9.925c6.289,2.334 9.046,10.563 6.158,18.38l0,0z" fill="#FFD978"/>
     <path id="svg_238" d="m46.58499,45.132c-2.86801,7.799 -10.28,12.241 -16.556,9.922c-6.27499,-2.319 -9.03799,-10.521 -6.168,-18.321c2.86801,-7.798 10.28101,-12.241 16.556,-9.922c6.276,2.319 9.03799,10.522 6.168,18.321z" fill="#FFD979"/>
     <path id="svg_239" d="m46.547,45.098c-2.849,7.78201 -10.23401,12.223 -16.495,9.919c-6.26199,-2.304 -9.02802,-10.479 -6.17801,-18.261c2.849,-7.781 10.23401,-12.222 16.495,-9.918c6.26102,2.302 9.02701,10.478 6.17801,18.26z" fill="#FFDA7A"/>
     <path id="svg_240" d="m46.508,45.063c-2.82901,7.76399 -10.18799,12.203 -16.43399,9.916c-6.24701,-2.28901 -9.01801,-10.438 -6.18802,-18.202c2.83002,-7.764 10.18802,-12.203 16.435,-9.915c6.24701,2.288 9.01703,10.437 6.18701,18.201z" fill="#FFDA7B"/>
     <path id="svg_241" d="m46.47,45.029c-2.81,7.746 -10.14099,12.184 -16.37399,9.912c-6.233,-2.273 -9.008,-10.396 -6.19702,-18.143c2.811,-7.746 10.14102,-12.18401 16.37402,-9.911c6.233,2.273 9.00699,10.395 6.19699,18.142z" fill="#FFDA7C"/>
     <path id="svg_242" d="m46.431,44.995c-2.791,7.729 -10.094,12.165 -16.313,9.908c-6.219,-2.258 -8.998,-10.353 -6.207,-18.083c2.791,-7.729 10.095,-12.165 16.313,-9.908c6.22,2.257 8.999,10.354 6.207,18.083l0,0z" fill="#FFDB7D"/>
     <path id="svg_243" d="m46.393,44.96c-2.771,7.711 -10.047,12.146 -16.252,9.904c-6.205,-2.242 -8.988,-10.311 -6.216,-18.023c2.771,-7.711 10.048,-12.146 16.252,-9.904c6.205,2.242 8.988,10.312 6.216,18.023l0,0z" fill="#FFDB7E"/>
     <path id="svg_244" d="m46.354,44.926c-2.751,7.694 -10.001,12.126 -16.191,9.901c-6.191,-2.227 -8.979,-10.269 -6.226,-17.964c2.752,-7.694 10.001,-12.126 16.192,-9.9c6.19,2.226 8.977,10.268 6.225,17.963l0,0z" fill="#FFDB7F"/>
     <path id="svg_245" d="m46.315,44.892c-2.732,7.677 -9.954,12.108 -16.13,9.897c-6.176,-2.211 -8.968,-10.227 -6.235,-17.904c2.732,-7.676 9.955,-12.107 16.131,-9.896c6.176,2.21 8.968,10.226 6.234,17.903l0,0z" fill="#FFDB80"/>
     <path id="svg_246" d="m46.277,44.857c-2.713,7.659 -9.908,12.089 -16.07,9.894c-6.162,-2.196 -8.958,-10.185 -6.244,-17.844c2.713,-7.659 9.908,-12.088 16.07,-9.893c6.162,2.195 8.958,10.184 6.244,17.843l0,0z" fill="#FFDC81"/>
     <path id="svg_247" d="m46.23801,44.823c-2.69299,7.642 -9.86099,12.069 -16.009,9.89c-6.14798,-2.17999 -8.94901,-10.143 -6.254,-17.785c2.694,-7.642 9.862,-12.069 16.009,-9.889c6.14899,2.18 8.94901,10.142 6.254,17.784z" fill="#FFDC82"/>
     <path id="svg_248" d="m46.20001,44.789c-2.67401,7.625 -9.814,12.051 -15.948,9.886c-6.134,-2.16501 -8.93802,-10.10001 -6.263,-17.725c2.67401,-7.624 9.815,-12.05001 15.94901,-9.885c6.13199,2.164 8.93698,10.099 6.26199,17.724z" fill="#FFDC83"/>
     <path id="svg_249" d="m46.16101,44.754c-2.65399,7.607 -9.76801,12.031 -15.88699,9.883c-6.12,-2.15 -8.92902,-10.059 -6.27301,-17.666c2.655,-7.607 9.76901,-12.031 15.888,-9.882c6.11899,2.149 8.92798,10.058 6.272,17.665z" fill="#FFDD84"/>
     <path id="svg_250" d="m46.123,44.72c-2.635,7.589 -9.721,12.012 -15.827,9.879c-6.106,-2.134 -8.919,-10.016 -6.282,-17.606c2.636,-7.589 9.722,-12.012 15.827,-9.878s8.918,10.015 6.282,17.605l0,0z" fill="#FFDD85"/>
     <path id="svg_251" d="m46.08401,44.686c-2.616,7.572 -9.67502,11.994 -15.76599,9.875c-6.091,-2.119 -8.90903,-9.97399 -6.29199,-17.546c2.616,-7.572 9.67499,-11.993 15.76599,-9.875c6.09198,2.118 8.90897,9.974 6.29199,17.546z" fill="#FFDD86"/>
     <path id="svg_252" d="m46.04501,44.651c-2.59601,7.554 -9.62799,11.974 -15.70502,9.87199c-6.07797,-2.103 -8.89899,-9.93199 -6.30099,-17.487c2.59702,-7.55399 9.62802,-11.973 15.70599,-9.87099c6.077,2.103 8.89801,9.932 6.30002,17.486z" fill="#FFDD87"/>
     <path id="svg_253" d="m46.007,44.617c-2.577,7.537 -9.582,11.955 -15.645,9.868c-6.063,-2.088 -8.889,-9.89 -6.311,-17.427c2.578,-7.537 9.583,-11.955 15.645,-9.867c6.063,2.086 8.889,9.889 6.311,17.426l0,0z" fill="#FFDE88"/>
     <path id="svg_254" d="m45.96799,44.583c-2.55798,7.52 -9.535,11.936 -15.58301,9.865c-6.04898,-2.072 -8.879,-9.848 -6.32098,-17.368c2.55798,-7.52 9.53598,-11.936 15.58398,-9.864s8.87903,9.847 6.32001,17.367z" fill="#FFDE89"/>
     <path id="svg_255" d="m45.92999,44.548c-2.53799,7.502 -9.48801,11.91699 -15.52301,9.86099c-6.035,-2.05699 -8.87,-9.80599 -6.32999,-17.308c2.539,-7.502 9.48898,-11.916 15.52399,-9.86c6.03403,2.056 8.86801,9.80501 6.32901,17.30701z" fill="#FFDE8A"/>
     <path id="svg_256" d="m45.892,44.514c-2.51901,7.484 -9.44199,11.897 -15.46301,9.857c-6.021,-2.04201 -8.85898,-9.763 -6.33899,-17.249c2.51999,-7.484 9.44202,-11.897 15.46301,-9.856c6.01999,2.041 8.858,9.763 6.33899,17.248z" fill="#FFDE8B"/>
     <path id="svg_257" d="m45.853,44.479c-2.5,7.467 -9.396,11.879 -15.40201,9.854c-6.00699,-2.026 -8.84998,-9.721 -6.349,-17.188c2.5,-7.467 9.396,-11.878 15.40201,-9.853c6.00699,2.025 8.849,9.72 6.349,17.187z" fill="#FFDF8C"/>
     <path id="svg_258" d="m45.814,44.445c-2.47998,7.45 -9.349,11.86 -15.341,9.85c-5.99298,-2.011 -8.84,-9.679 -6.358,-17.129c2.48001,-7.449 9.349,-11.859 15.341,-9.849s8.83902,9.67899 6.358,17.128z" fill="#FFDF8D"/>
     <path id="svg_259" d="m45.776,44.411c-2.461,7.432 -9.302,11.84 -15.28,9.84601c-5.979,-1.995 -8.83002,-9.63701 -6.36801,-17.07001c2.461,-7.432 9.30301,-11.84 15.28101,-9.845c5.97699,1.994 8.828,9.637 6.367,17.069z" fill="#FFDF8E"/>
     <path id="svg_260" d="m45.737,44.377c-2.44101,7.415 -9.25601,11.821 -15.22,9.842c-5.96399,-1.979 -8.82001,-9.595 -6.37698,-17.01c2.44199,-7.415 9.25598,-11.821 15.21997,-9.842c5.96402,1.979 8.819,9.59501 6.37701,17.01z" fill="#FFE08F"/>
     <path id="svg_261" d="m45.699,44.342c-2.422,7.397 -9.209,11.802 -15.159,9.839c-5.95,-1.964 -8.81,-9.553 -6.387,-16.95c2.422,-7.397 9.209,-11.802 15.159,-9.838c5.95,1.963 8.809,9.552 6.387,16.949l0,0z" fill="#FFE090"/>
     <path id="svg_262" d="m45.66,44.308c-2.40302,7.38 -9.16299,11.783 -15.09799,9.83501c-5.936,-1.94901 -8.80002,-9.51101 -6.39603,-16.89101c2.40302,-7.379 9.16302,-11.782 15.09802,-9.834c5.936,1.948 8.79898,9.51 6.396,16.89z" fill="#FFE091"/>
     <path id="svg_263" d="m45.62201,44.274c-2.383,7.362 -9.116,11.76399 -15.03799,9.832c-5.922,-1.934 -8.79001,-9.469 -6.40601,-16.832c2.383,-7.362 9.116,-11.763 15.03799,-9.831c5.92099,1.932 8.789,9.46799 6.40601,16.831z" fill="#FFE092"/>
     <path id="svg_264" d="m45.58301,44.239c-2.36398,7.345 -9.069,11.745 -14.97699,9.828c-5.90802,-1.918 -8.78101,-9.426 -6.41602,-16.771c2.36401,-7.34501 9.069,-11.745 14.97702,-9.827c5.90799,1.917 8.77997,9.425 6.41599,16.77z" fill="#FFE193"/>
     <path id="svg_265" d="m45.54401,44.205c-2.34399,7.327 -9.02301,11.726 -14.91599,9.824c-5.89401,-1.902 -8.771,-9.384 -6.42502,-16.712c2.345,-7.327 9.02301,-11.725 14.91602,-9.823c5.89398,1.902 8.771,9.383 6.42499,16.711z" fill="#FFE194"/>
     <path id="svg_266" d="m45.50601,44.17101c-2.32501,7.31 -8.97601,11.70699 -14.85501,9.81999c-5.879,-1.88699 -8.76099,-9.342 -6.435,-16.65199c2.32602,-7.31001 8.97702,-11.70601 14.85602,-9.82001c5.87897,1.886 8.75998,9.341 6.43399,16.65201z" fill="#FFE195"/>
     <path id="svg_267" d="m45.467,44.136c-2.306,7.292 -8.93,11.688 -14.794,9.817c-5.865,-1.872 -8.751,-9.3 -6.444,-16.593c2.306,-7.292 8.93,-11.688 14.795,-9.816c5.864,1.871 8.749,9.3 6.443,16.592l0,0z" fill="#FFE296"/>
     <path id="svg_268" d="m45.42899,44.102c-2.28601,7.275 -8.883,11.66801 -14.73401,9.813c-5.85098,-1.856 -8.741,-9.258 -6.45398,-16.533c2.28699,-7.275 8.884,-11.668 14.73398,-9.813c5.85101,1.856 8.74103,9.258 6.45401,16.533z" fill="#FFE297"/>
     <path id="svg_269" d="m45.39001,44.068c-2.267,7.257 -8.836,11.64899 -14.673,9.81c-5.83701,-1.84 -8.73099,-9.215 -6.46301,-16.474c2.26801,-7.257 8.83701,-11.649 14.673,-9.809c5.83701,1.84 8.73099,9.215 6.46301,16.473z" fill="#FFE298"/>
     <path id="svg_270" d="m45.35199,44.033c-2.24799,7.23999 -8.79001,11.631 -14.612,9.806c-5.823,-1.825 -8.72101,-9.173 -6.47299,-16.414c2.24799,-7.24001 8.79099,-11.62901 14.61301,-9.805s8.72,9.173 6.47198,16.413z" fill="#FFE299"/>
     <path id="svg_271" d="m45.31299,43.999c-2.228,7.223 -8.74301,11.611 -14.552,9.803c-5.80899,-1.81001 -8.711,-9.131 -6.48199,-16.354c2.229,-7.223 8.74399,-11.611 14.552,-9.802c5.80902,1.808 8.711,9.13 6.48199,16.353z" fill="#FFE39A"/>
     <path id="svg_272" d="m45.274,43.965c-2.208,7.205 -8.697,11.592 -14.491,9.799c-5.794,-1.794 -8.702,-9.089 -6.492,-16.295c2.209,-7.205 8.697,-11.592 14.491,-9.798c5.795,1.793 8.702,9.088 6.492,16.294l0,0z" fill="#FFE39B"/>
     <path id="svg_273" d="m45.23599,43.93c-2.189,7.188 -8.64999,11.573 -14.42999,9.795c-5.78,-1.779 -8.69101,-9.047 -6.50101,-16.23499c2.19,-7.188 8.64999,-11.57201 14.42999,-9.79401c5.78003,1.778 8.69101,9.046 6.50101,16.234z" fill="#FFE39C"/>
     <path id="svg_274" d="m45.197,43.896c-2.17,7.17 -8.604,11.554 -14.369,9.792c-5.767,-1.763 -8.682,-9.005 -6.511,-16.175c2.17,-7.17 8.604,-11.554 14.37,-9.791s8.681,9.004 6.51,16.174l0,0z" fill="#FFE49D"/>
     <path id="svg_275" d="m45.159,43.862c-2.15,7.153 -8.557,11.535 -14.309,9.788c-5.752,-1.748 -8.672,-8.962 -6.52,-16.116c2.151,-7.153 8.557,-11.534 14.309,-9.787c5.752,1.747 8.671,8.961 6.52,16.115l0,0z" fill="#FFE49E"/>
     <path id="svg_276" d="m45.12,43.827c-2.13098,7.13601 -8.51001,11.51601 -14.24802,9.785c-5.73798,-1.73199 -8.66199,-8.921 -6.52899,-16.057c2.13101,-7.135 8.51102,-11.515 14.24802,-9.783c5.73801,1.731 8.66101,8.92 6.52899,16.055z" fill="#FFE49F"/>
     <path id="svg_277" d="m45.082,43.793c-2.11099,7.118 -8.46399,11.497 -14.18701,9.78101c-5.724,-1.71701 -8.65198,-8.87801 -6.539,-15.99701c2.112,-7.117 8.46402,-11.49599 14.18802,-9.779c5.72198,1.715 8.64999,8.877 6.53799,15.995z" fill="#FFE4A0"/>
     <path id="svg_278" d="m45.043,43.759c-2.092,7.1 -8.417,11.478 -14.126,9.777c-5.709,-1.702 -8.642,-8.836 -6.549,-15.937c2.093,-7.1 8.418,-11.477 14.127,-9.776c5.709,1.7 8.641,8.835 6.548,15.936l0,0z" fill="#FFE5A1"/>
     <path id="svg_279" d="m45.004,43.724c-2.073,7.083 -8.371,11.459 -14.065,9.773c-5.696,-1.686 -8.632,-8.794 -6.559,-15.877c2.074,-7.083 8.371,-11.458 14.066,-9.772c5.696,1.685 8.632,8.793 6.558,15.876l0,0z" fill="#FFE5A2"/>
     <path id="svg_280" d="m44.966,43.69c-2.053,7.065 -8.324,11.439 -14.005,9.77c-5.682,-1.671 -8.622,-8.752 -6.568,-15.818c2.054,-7.065 8.325,-11.439 14.005,-9.769c5.682,1.669 8.622,8.752 6.568,15.817l0,0z" fill="#FFE5A3"/>
     <path id="svg_281" d="m44.927,43.656c-2.034,7.048 -8.277,11.42 -13.944,9.766c-5.667,-1.655 -8.612,-8.71 -6.577,-15.759c2.035,-7.047 8.278,-11.419 13.945,-9.765c5.666,1.654 8.611,8.709 6.576,15.758l0,0z" fill="#FFE5A4"/>
     <path id="svg_282" d="m44.889,43.622c-2.015,7.03 -8.231,11.401 -13.883,9.762c-5.653,-1.64 -8.603,-8.668 -6.587,-15.699c2.015,-7.03 8.231,-11.401 13.884,-9.762c5.652,1.639 8.601,8.668 6.586,15.699l0,0z" fill="#FFE6A5"/>
     <path id="svg_283" d="m44.85001,43.58701c-1.995,7.01299 -8.18399,11.382 -13.823,9.759c-5.63901,-1.624 -8.59201,-8.625 -6.59601,-15.639c1.996,-7.013 8.185,-11.381 13.823,-9.758s8.59201,8.625 6.59601,15.638z" fill="#FFE6A6"/>
     <path id="svg_284" d="m44.812,43.553c-1.976,6.996 -8.138,11.363 -13.762,9.755c-5.625,-1.608 -8.583,-8.583 -6.606,-15.58c1.977,-6.995 8.138,-11.362 13.763,-9.754c5.624,1.608 8.581,8.583 6.605,15.579l0,0z" fill="#FFE6A7"/>
     <path id="svg_285" d="m44.773,43.519c-1.956,6.978 -8.091,11.344 -13.701,9.751c-5.611,-1.594 -8.573,-8.542 -6.615,-15.52c1.957,-6.978 8.091,-11.344 13.702,-9.75c5.61,1.592 8.571,8.54 6.614,15.519l0,0z" fill="#FFE7A8"/>
     <path id="svg_286" d="m44.73401,43.484c-1.93701,6.961 -8.04401,11.325 -13.64099,9.748c-5.59601,-1.578 -8.56302,-8.50001 -6.625,-15.46001c1.93799,-6.96 8.04498,-11.324 13.64099,-9.74699c5.59698,1.577 8.56299,8.49799 6.625,15.459z" fill="#FFE7A9"/>
     <path id="svg_287" d="m44.69601,43.45c-1.91699,6.94301 -7.99802,11.306 -13.58002,9.744c-5.58298,-1.563 -8.55298,-8.457 -6.63397,-15.401c1.918,-6.943 7.99799,-11.305 13.57999,-9.743c5.582,1.561 8.552,8.456 6.634,15.4z" fill="#FFE7AA"/>
     <path id="svg_288" d="m44.657,43.416c-1.898,6.926 -7.951,11.287 -13.519,9.74c-5.568,-1.547 -8.543,-8.415 -6.644,-15.341c1.899,-6.925 7.952,-11.286 13.52,-9.739c5.568,1.545 8.543,8.413 6.643,15.34l0,0z" fill="#FFE7AB"/>
     <path id="svg_289" d="m44.61899,43.381c-1.87799,6.909 -7.905,11.26801 -13.45801,9.737c-5.55399,-1.532 -8.53299,-8.373 -6.65298,-15.282c1.879,-6.908 7.905,-11.267 13.45801,-9.736c5.55399,1.531 8.53299,8.373 6.65298,15.281z" fill="#FFE8AC"/>
     <path id="svg_290" d="m44.58,43.347c-1.859,6.891 -7.858,11.249 -13.397,9.733c-5.54,-1.516 -8.523,-8.331 -6.663,-15.222c1.86,-6.891 7.858,-11.248 13.398,-9.732c5.54,1.515 8.522,8.33 6.662,15.221l0,0z" fill="#FFE8AD"/>
     <path id="svg_291" d="m44.54199,43.313c-1.84,6.873 -7.81201,11.229 -13.33701,9.729c-5.526,-1.5 -8.513,-8.289 -6.672,-15.163c1.841,-6.873 7.81299,-11.229 13.33701,-9.729c5.52499,1.5 8.513,8.28899 6.672,15.163z" fill="#FFE8AE"/>
     <path id="svg_292" d="m44.50299,43.278c-1.82001,6.856 -7.76501,11.21 -13.276,9.726c-5.51199,-1.485 -8.50299,-8.246 -6.68201,-15.103c1.82202,-6.856 7.76602,-11.21 13.27701,-9.725c5.51102,1.485 8.50302,8.246 6.681,15.102z" fill="#FFE9AF"/>
     <path id="svg_293" d="m44.464,43.244c-1.801,6.838 -7.718,11.191 -13.215,9.722c-5.498,-1.47 -8.494,-8.204 -6.691,-15.043c1.802,-6.838 7.719,-11.19 13.216,-9.721c5.497,1.468 8.493,8.203 6.69,15.042l0,0z" fill="#FFE9B0"/>
     <path id="svg_294" d="m44.42599,43.209c-1.78201,6.821 -7.67099,11.172 -13.15399,9.719c-5.483,-1.455 -8.48401,-8.162 -6.70102,-14.984c1.78302,-6.821 7.672,-11.171 13.155,-9.718s8.48203,8.162 6.70001,14.983z" fill="#FFE9B1"/>
     <path id="svg_295" d="m44.38699,43.175c-1.76199,6.804 -7.625,11.153 -13.09399,9.715c-5.46899,-1.439 -8.474,-8.12 -6.71002,-14.924c1.763,-6.803 7.62601,-11.152 13.095,-9.714c5.46802,1.438 8.47302,8.119 6.70901,14.923z" fill="#FFE9B2"/>
     <path id="svg_296" d="m44.349,43.141c-1.74301,6.786 -7.57901,11.134 -13.03299,9.71101c-5.45502,-1.423 -8.46402,-8.07801 -6.72,-14.86401c1.74399,-6.786 7.57898,-11.133 13.034,-9.71c5.45401,1.422 8.46298,8.076 6.71899,14.863z" fill="#FFEAB3"/>
     <path id="svg_297" d="m44.31,43.106c-1.723,6.769 -7.532,11.115 -12.972,9.708c-5.441,-1.408 -8.454,-8.036 -6.729,-14.805c1.725,-6.769 7.533,-11.114 12.973,-9.707c5.44,1.407 8.453,8.035 6.728,14.804l0,0z" fill="#FFEAB4"/>
     <path id="svg_298" d="m44.271,43.072c-1.70401,6.751 -7.48499,11.096 -12.91199,9.705c-5.427,-1.393 -8.444,-7.994 -6.73901,-14.746c1.70502,-6.751 7.48599,-11.095 12.91202,-9.703c5.427,1.391 8.44498,7.993 6.73898,14.744z" fill="#FFEAB5"/>
     <path id="svg_299" d="m44.233,43.038c-1.685,6.734 -7.438,11.077 -12.851,9.701c-5.413,-1.377 -8.435,-7.952 -6.749,-14.686c1.686,-6.733 7.439,-11.076 12.852,-9.7c5.412,1.376 8.434,7.951 6.748,14.685l0,0z" fill="#FFEBB6"/>
     <path id="svg_300" d="m44.194,43.003c-1.66501,6.716 -7.392,11.05801 -12.79001,9.697c-5.39798,-1.36099 -8.42398,-7.909 -6.758,-14.62599c1.66602,-6.716 7.39301,-11.05701 12.79102,-9.69601c5.39798,1.361 8.42398,7.909 6.75699,14.625z" fill="#FFEBB7"/>
     <path id="svg_301" d="m44.15601,42.969c-1.646,6.699 -7.345,11.03899 -12.729,9.693c-5.384,-1.346 -8.41498,-7.867 -6.767,-14.566c1.647,-6.698 7.34601,-11.038 12.73001,-9.692c5.383,1.345 8.41299,7.866 6.76599,14.565z" fill="#FFEBB8"/>
     <path id="svg_302" d="m44.117,42.93501c-1.62601,6.682 -7.29901,11.02 -12.668,9.689c-5.371,-1.331 -8.405,-7.825 -6.77701,-14.507c1.62701,-6.68099 7.29901,-11.019 12.66901,-9.688c5.37,1.33 8.40399,7.824 6.776,14.506z" fill="#FFEBB9"/>
     <path id="svg_303" d="m44.07901,42.9c-1.60699,6.66399 -7.25299,11 -12.608,9.686c-5.35599,-1.315 -8.39499,-7.783 -6.78699,-14.447c1.608,-6.664 7.25299,-11 12.60898,-9.685c5.35501,1.31499 8.39401,7.782 6.78601,14.446z" fill="#FFECBA"/>
     <path id="svg_304" d="m44.041,42.866c-1.588,6.646 -7.206,10.981 -12.547,9.682c-5.342,-1.3 -8.385,-7.741 -6.796,-14.388c1.589,-6.646 7.207,-10.98 12.548,-9.681c5.34,1.299 8.383,7.74 6.795,14.387l0,0z" fill="#FFECBB"/>
     <path id="svg_305" d="m44.00201,42.832c-1.56799,6.629 -7.16,10.962 -12.487,9.679c-5.328,-1.284 -8.375,-7.69901 -6.806,-14.328c1.569,-6.628 7.16,-10.961 12.487,-9.677c5.32797,1.282 8.375,7.697 6.806,14.326z" fill="#FFECBC"/>
     <path id="svg_306" d="m43.963,42.797c-1.549,6.611 -7.113,10.943 -12.426,9.675s-8.365,-7.656 -6.815,-14.268c1.55,-6.611 7.113,-10.942 12.427,-9.674c5.313,1.268 8.364,7.656 6.814,14.267l0,0z" fill="#FFECBD"/>
     <path id="svg_307" d="m43.925,42.763c-1.53,6.594 -7.066,10.924 -12.365,9.671c-5.3,-1.253 -8.355,-7.615 -6.825,-14.209c1.531,-6.594 7.067,-10.923 12.366,-9.67c5.298,1.253 8.354,7.614 6.824,14.208l0,0z" fill="#FFEDBE"/>
     <path id="svg_308" d="m43.886,42.729c-1.51,6.577 -7.02,10.905 -12.305,9.668c-5.285,-1.238 -8.345,-7.572 -6.834,-14.149c1.511,-6.576 7.02,-10.904 12.305,-9.667c5.285,1.236 8.345,7.571 6.834,14.148l0,0z" fill="#FFEDBF"/>
     <path id="svg_309" d="m43.848,42.694c-1.491,6.559 -6.973,10.886 -12.244,9.664c-5.271,-1.223 -8.335,-7.53 -6.844,-14.09c1.492,-6.559 6.974,-10.885 12.244,-9.663c5.271,1.222 8.335,7.53 6.844,14.089l0,0z" fill="#FFEDC0"/>
     <path id="svg_310" d="m43.809,42.66c-1.472,6.542 -6.927,10.867 -12.183,9.66c-5.257,-1.207 -8.326,-7.488 -6.853,-14.03c1.473,-6.542 6.927,-10.866 12.184,-9.66c5.256,1.207 8.324,7.488 6.852,14.03l0,0z" fill="#FFEEC1"/>
     <path id="svg_311" d="m43.771,42.625c-1.452,6.524 -6.88,10.848 -12.123,9.657c-5.243,-1.191 -8.315,-7.446 -6.862,-13.97c1.453,-6.524 6.88,-10.847 12.123,-9.656c5.242,1.191 8.315,7.446 6.862,13.969l0,0z" fill="#FFEEC2"/>
     <path id="svg_312" d="m43.73199,42.591c-1.43301,6.507 -6.83301,10.82899 -12.06201,9.653c-5.229,-1.176 -8.306,-7.404 -6.87198,-13.911c1.43399,-6.506 6.83398,-10.828 12.06198,-9.652c5.22803,1.176 8.306,7.403 6.87201,13.91z" fill="#FFEEC3"/>
     <path id="svg_313" d="m43.693,42.557c-1.413,6.489 -6.787,10.81 -12.001,9.649c-5.215,-1.161 -8.296,-7.362 -6.881,-13.852c1.414,-6.489 6.787,-10.809 12.001,-9.648c5.214,1.161 8.295,7.361 6.881,13.851l0,0z" fill="#FFEEC4"/>
     <path id="svg_314" d="m43.655,42.522c-1.394,6.472 -6.74,10.791 -11.94,9.646c-5.201,-1.145 -8.286,-7.319 -6.891,-13.792c1.395,-6.472 6.741,-10.79 11.94,-9.645c5.2,1.145 8.285,7.32 6.891,13.791l0,0z" fill="#FFEFC5"/>
     <path id="svg_315" d="m43.616,42.488c-1.375,6.455 -6.69299,10.771 -11.879,9.64201c-5.18701,-1.12901 -8.276,-7.277 -6.89999,-13.73201c1.375,-6.45399 6.694,-10.771 11.88,-9.641c5.185,1.129 8.27499,7.277 6.89899,13.731z" fill="#FFEFC6"/>
     <path id="svg_316" d="m43.578,42.45399c-1.35501,6.437 -6.647,10.75201 -11.819,9.63901c-5.172,-1.115 -8.26599,-7.235 -6.91,-13.673c1.35599,-6.437 6.64801,-10.751 11.819,-9.637c5.172,1.113 8.26599,7.234 6.91,13.67099z" fill="#FFEFC7"/>
     <path id="svg_317" d="m43.539,42.419c-1.33499,6.41901 -6.60101,10.733 -11.758,9.635c-5.15802,-1.099 -8.25601,-7.193 -6.92001,-13.613c1.33701,-6.419 6.60101,-10.732 11.759,-9.634c5.15701,1.099 8.255,7.193 6.91901,13.612z" fill="#FFF0C8"/>
     <path id="svg_318" d="m43.5,42.385c-1.316,6.402 -6.554,10.714 -11.697,9.631c-5.144,-1.083 -8.246,-7.151 -6.929,-13.553c1.317,-6.402 6.555,-10.713 11.698,-9.63c5.143,1.083 8.246,7.15 6.928,13.552l0,0z" fill="#FFF0C9"/>
     <path id="svg_319" d="m43.462,42.351c-1.297,6.384 -6.507,10.695 -11.636,9.627c-5.13,-1.068 -8.237,-7.108 -6.939,-13.494c1.298,-6.384 6.508,-10.694 11.637,-9.626c5.129,1.067 8.236,7.108 6.938,13.493l0,0z" fill="#FFF0CA"/>
     <path id="svg_320" d="m43.423,42.316c-1.277,6.367 -6.46,10.676 -11.576,9.624c-5.116,-1.052 -8.227,-7.066 -6.948,-13.434c1.279,-6.366 6.461,-10.675 11.576,-9.623c5.116,1.053 8.227,7.067 6.948,13.433l0,0z" fill="#FFF0CB"/>
     <path id="svg_321" d="m43.38501,42.282c-1.258,6.35 -6.414,10.65701 -11.51501,9.621c-5.10199,-1.037 -8.21698,-7.024 -6.95798,-13.375c1.259,-6.349 6.41498,-10.656 11.51599,-9.619c5.10098,1.036 8.216,7.024 6.957,13.373z" fill="#FFF1CC"/>
     <path id="svg_322" d="m43.34601,42.248c-1.23898,6.332 -6.367,10.638 -11.45401,9.617c-5.08698,-1.021 -8.207,-6.98201 -6.96698,-13.315c1.23999,-6.332 6.36798,-10.637 11.45499,-9.616c5.086,1.021 8.20599,6.982 6.966,13.314z" fill="#FFF1CD"/>
     <path id="svg_323" d="m43.30801,42.214c-1.21899,6.314 -6.32101,10.618 -11.39401,9.61299c-5.073,-1.006 -8.19699,-6.93999 -6.97699,-13.255c1.22,-6.314 6.32098,-10.618 11.39401,-9.612c5.07297,1.005 8.19699,6.939 6.97699,13.25401z" fill="#FFF1CE"/>
     <path id="svg_324" d="m43.26901,42.179c-1.20001,6.297 -6.27402,10.6 -11.33301,9.60899c-5.06,-0.991 -8.18698,-6.89799 -6.98599,-13.195c1.20099,-6.297 6.27499,-10.599 11.33301,-9.60799c5.05899,0.99 8.18698,6.897 6.98599,13.194z" fill="#FFF2CF"/>
     <path id="svg_325" d="m43.23,42.145c-1.18,6.28 -6.228,10.581 -11.272,9.606c-5.045,-0.976 -8.177,-6.856 -6.996,-13.136c1.182,-6.279 6.228,-10.58 11.272,-9.604c5.046,0.973 8.178,6.854 6.996,13.134l0,0z" fill="#FFF2D0"/>
     <path id="svg_326" d="m43.192,42.111c-1.161,6.262 -6.181,10.561 -11.211,9.602c-5.031,-0.96 -8.167,-6.814 -7.005,-13.077c1.162,-6.262 6.182,-10.561 11.212,-9.601c5.029,0.959 8.166,6.813 7.004,13.076l0,0z" fill="#FFF2D1"/>
     <path id="svg_327" d="m43.153,42.076c-1.142,6.245 -6.134,10.542 -11.15,9.599c-5.017,-0.944 -8.158,-6.771 -7.015,-13.017c1.143,-6.244 6.135,-10.541 11.151,-9.597c5.016,0.943 8.157,6.771 7.014,13.015l0,0z" fill="#FFF2D2"/>
     <path id="svg_328" d="m43.115,42.042c-1.122,6.227 -6.088,10.523 -11.09,9.595c-5.002,-0.929 -8.147,-6.729 -7.024,-12.957c1.124,-6.227 6.089,-10.522 11.091,-9.594c5.001,0.928 8.146,6.728 7.023,12.956l0,0z" fill="#FFF3D3"/>
     <path id="svg_329" d="m43.07599,42.008c-1.103,6.209 -6.04099,10.50401 -11.02899,9.591c-4.98901,-0.913 -8.138,-6.687 -7.034,-12.897c1.104,-6.209 6.04199,-10.503 11.03,-9.59c4.98801,0.911 8.13699,6.686 7.03299,12.896z" fill="#FFF3D4"/>
     <path id="svg_330" d="m43.038,41.973c-1.083,6.192 -5.995,10.485 -10.968,9.588c-4.974,-0.898 -8.128,-6.646 -7.043,-12.838c1.085,-6.192 5.996,-10.484 10.969,-9.586s8.126,6.644 7.042,12.836l0,0z" fill="#FFF3D5"/>
     <path id="svg_331" d="m42.999,41.939c-1.064,6.175 -5.948,10.466 -10.907,9.584c-4.96,-0.883 -8.118,-6.603 -7.053,-12.778c1.065,-6.175 5.949,-10.465 10.908,-9.583c4.959,0.881 8.117,6.602 7.052,12.777l0,0z" fill="#FFF4D6"/>
     <path id="svg_332" d="m42.96,41.905c-1.044,6.157 -5.901,10.447 -10.847,9.58c-4.946,-0.867 -8.108,-6.561 -7.063,-12.719c1.046,-6.157 5.902,-10.446 10.848,-9.579c4.946,0.866 8.108,6.56 7.062,12.718l0,0z" fill="#FFF4D7"/>
     <path id="svg_333" d="m42.922,41.87c-1.02499,6.14001 -5.85501,10.42801 -10.78601,9.577c-4.93198,-0.852 -8.09799,-6.519 -7.07199,-12.659c1.02701,-6.13999 5.85602,-10.42699 10.78702,-9.57499c4.931,0.85 8.09698,6.51699 7.07098,12.65699z" fill="#FFF4D8"/>
     <path id="svg_334" d="m42.883,41.836c-1.006,6.123 -5.808,10.409 -10.725,9.573c-4.918,-0.836 -8.088,-6.477 -7.082,-12.6c1.007,-6.122 5.809,-10.408 10.726,-9.572c4.918,0.836 8.089,6.476 7.081,12.599l0,0z" fill="#FFF4D9"/>
     <path id="svg_335" d="m42.845,41.802c-0.986,6.105 -5.762,10.389 -10.665,9.569c-4.903,-0.821 -8.078,-6.435 -7.091,-12.54c0.988,-6.105 5.763,-10.389 10.666,-9.568c4.903,0.82 8.078,6.433 7.09,12.539l0,0z" fill="#FFF5DA"/>
     <path id="svg_336" d="m42.806,41.767c-0.96701,6.088 -5.715,10.371 -10.604,9.566c-4.88998,-0.805 -8.069,-6.393 -7.10098,-12.48c0.96799,-6.08701 5.71597,-10.37 10.60397,-9.564c4.89001,0.803 8.069,6.391 7.10101,12.478z" fill="#FFF5DB"/>
     <path id="svg_337" d="m42.76801,41.733c-0.94699,6.07 -5.668,10.352 -10.543,9.562c-4.875,-0.78999 -8.05899,-6.35 -7.10999,-12.421c0.94897,-6.07 5.66898,-10.351 10.54398,-9.561c4.87399,0.789 8.05701,6.34999 7.10901,12.42z" fill="#FFF5DC"/>
     <path id="svg_338" d="m42.729,41.699c-0.928,6.053 -5.622,10.332 -10.482,9.558c-4.861,-0.774 -8.048,-6.308 -7.119,-12.361c0.93,-6.052 5.623,-10.331 10.483,-9.557c4.86,0.773 8.048,6.307 7.118,12.36l0,0z" fill="#FFF5DD"/>
     <path id="svg_339" d="m42.69,41.664c-0.909,6.036 -5.57501,10.313 -10.42099,9.555c-4.84702,-0.759 -8.039,-6.266 -7.129,-12.302c0.90997,-6.035 5.57599,-10.313 10.422,-9.554c4.84698,0.759 8.039,6.266 7.12799,12.301z" fill="#FFF6DE"/>
     <path id="svg_340" d="m42.652,41.63c-0.889,6.018 -5.529,10.294 -10.361,9.551c-4.833,-0.744 -8.029,-6.224 -7.138,-12.242c0.891,-6.018 5.529,-10.293 10.361,-9.55c4.833,0.743 8.028,6.223 7.138,12.241l0,0z" fill="#FFF6DF"/>
     <path id="svg_341" d="m42.613,41.596c-0.87,6 -5.482,10.275 -10.3,9.547c-4.819,-0.728 -8.019,-6.182 -7.148,-12.183c0.872,-6 5.483,-10.274 10.301,-9.546c4.818,0.728 8.019,6.181 7.147,12.182l0,0z" fill="#FFF6E0"/>
     <path id="svg_342" d="m42.57501,41.562c-0.85101,5.982 -5.436,10.256 -10.23901,9.543c-4.80499,-0.71199 -8.009,-6.13999 -7.15799,-12.123c0.85199,-5.98199 5.43701,-10.255 10.23999,-9.543c4.80399,0.712 8.009,6.14 7.15701,12.123z" fill="#FFF7E1"/>
     <path id="svg_343" d="m42.536,41.527c-0.831,5.965 -5.389,10.237 -10.179,9.541c-4.791,-0.697 -7.999,-6.098 -7.167,-12.063c0.833,-5.965 5.39,-10.236 10.18,-9.539c4.79,0.695 7.999,6.096 7.166,12.061l0,0z" fill="#FFF7E2"/>
     <path id="svg_344" d="m42.49799,41.493c-0.81198,5.94801 -5.34201,10.218 -10.11798,9.537c-4.776,-0.682 -7.98901,-6.056 -7.177,-12.004c0.81299,-5.947 5.34299,-10.217 10.11899,-9.535c4.776,0.68 7.98901,6.053 7.17599,12.002z" fill="#FFF7E3"/>
     <path id="svg_345" d="m42.45901,41.458c-0.79199,5.93 -5.29599,10.198 -10.05701,9.533c-4.76199,-0.666 -7.979,-6.01299 -7.186,-11.944c0.79401,-5.93 5.297,-10.197 10.05801,-9.531c4.76099,0.665 7.97897,6.012 7.185,11.942z" fill="#FFF7E4"/>
     <path id="svg_346" d="m42.42,41.424c-0.773,5.913 -5.249,10.18 -9.996,9.529c-4.748,-0.651 -7.97,-5.971 -7.196,-11.884c0.774,-5.913 5.25,-10.179 9.998,-9.528c4.747,0.649 7.969,5.97 7.194,11.883l0,0z" fill="#FFF8E5"/>
     <path id="svg_347" d="m42.38199,41.39c-0.75299,5.896 -5.203,10.16 -9.936,9.525c-4.73401,-0.635 -7.95898,-5.929 -7.20499,-11.825c0.755,-5.895 5.20398,-10.16 9.93698,-9.524c4.73303,0.634 7.95901,5.92801 7.20401,11.824z" fill="#FFF8E6"/>
     <path id="svg_348" d="m42.34299,41.355c-0.73401,5.878 -5.15601,10.141 -9.875,9.522c-4.72,-0.62 -7.95001,-5.88699 -7.21399,-11.766c0.73599,-5.877 5.15698,-10.14 9.87601,-9.521c4.71899,0.62 7.94901,5.887 7.21298,11.765z" fill="#FFF8E7"/>
     <path id="svg_349" d="m42.305,41.321c-0.715,5.861 -5.11,10.123 -9.814,9.519c-4.706,-0.604 -7.94,-5.845 -7.224,-11.706c0.716,-5.86 5.11,-10.122 9.815,-9.517c4.705,0.603 7.939,5.843 7.223,11.704l0,0z" fill="#FFF9E8"/>
     <path id="svg_350" d="m42.267,41.28699c-0.69598,5.84301 -5.06299,10.103 -9.754,9.51501c-4.69101,-0.589 -7.92999,-5.802 -7.233,-11.646c0.69699,-5.84299 5.06299,-10.102 9.754,-9.514c4.69,0.588 7.92902,5.801 7.233,11.64499z" fill="#FFF9E9"/>
     <path id="svg_351" d="m42.228,41.252c-0.67599,5.826 -5.017,10.084 -9.69299,9.511c-4.67801,-0.573 -7.92001,-5.76 -7.24301,-11.586c0.677,-5.825 5.017,-10.083 9.69299,-9.51c4.677,0.573 7.92001,5.76 7.24301,11.585z" fill="#FFF9EA"/>
     <path id="svg_352" d="m42.189,41.218c-0.657,5.809 -4.97,10.065 -9.632,9.508c-4.663,-0.558 -7.91,-5.718 -7.252,-11.527c0.658,-5.808 4.971,-10.064 9.633,-9.506c4.662,0.557 7.909,5.717 7.251,11.525l0,0z" fill="#FFF9EB"/>
     <path id="svg_353" d="m42.151,41.184c-0.637,5.791 -4.923,10.046 -9.572,9.504c-4.649,-0.542 -7.9,-5.676 -7.262,-11.467c0.639,-5.791 4.924,-10.045 9.572,-9.502c4.649,0.54 7.9,5.674 7.262,11.465l0,0z" fill="#FFFAEC"/>
     <path id="svg_354" d="m42.112,41.149c-0.61801,5.77299 -4.87701,10.02699 -9.51099,9.5c-4.63501,-0.527 -7.89102,-5.634 -7.272,-11.408c0.62,-5.773 4.87799,-10.026 9.51199,-9.499c4.63501,0.527 7.88998,5.634 7.271,11.407z" fill="#FFFAED"/>
     <path id="svg_355" d="m42.07401,41.11501c-0.599,5.75599 -4.82999,10.008 -9.44998,9.49699c-4.621,-0.512 -7.88,-5.592 -7.28101,-11.348c0.60001,-5.755 4.83099,-10.007 9.45099,-9.495c4.61899,0.51 7.879,5.59 7.28,11.34601z" fill="#FFFAEE"/>
     <path id="svg_356" d="m42.035,41.081c-0.579,5.738 -4.784,9.989 -9.389,9.493c-4.607,-0.496 -7.871,-5.549 -7.291,-11.288c0.581,-5.738 4.785,-9.988 9.39,-9.492c4.606,0.495 7.87,5.548 7.29,11.287l0,0z" fill="#FFFBEF"/>
     <path id="svg_357" d="m41.997,41.046c-0.56,5.721 -4.737,9.969 -9.329,9.489c-4.592,-0.481 -7.861,-5.508 -7.3,-11.229c0.562,-5.721 4.738,-9.969 9.33,-9.488c4.591,0.48 7.859,5.507 7.299,11.228l0,0z" fill="#FFFBF0"/>
     <path id="svg_358" d="m41.958,41.012c-0.541,5.704 -4.69,9.951 -9.268,9.486c-4.578,-0.465 -7.851,-5.465 -7.31,-11.169c0.542,-5.703 4.691,-9.949 9.269,-9.484c4.578,0.464 7.851,5.464 7.309,11.167l0,0z" fill="#FFFBF1"/>
     <path id="svg_359" d="m41.919,40.978c-0.521,5.686 -4.644,9.931 -9.207,9.482c-4.564,-0.45 -7.841,-5.423 -7.319,-11.11c0.522,-5.686 4.645,-9.93 9.208,-9.48c4.563,0.448 7.84,5.422 7.318,11.108l0,0z" fill="#FFFBF2"/>
     <path id="svg_360" d="m41.881,40.943c-0.501,5.668 -4.597,9.912 -9.146,9.478c-4.55,-0.434 -7.831,-5.381 -7.329,-11.05c0.503,-5.668 4.598,-9.912 9.147,-9.477c4.549,0.434 7.83,5.381 7.328,11.049l0,0z" fill="#FFFCF3"/>
     <path id="svg_361" d="m41.842,40.909c-0.482,5.651 -4.551,9.894 -9.085,9.475c-4.536,-0.419 -7.821,-5.339 -7.338,-10.991c0.484,-5.651 4.551,-9.892 9.086,-9.473c4.535,0.418 7.821,5.338 7.337,10.989l0,0z" fill="#FFFCF4"/>
     <path id="svg_362" d="m41.80399,40.875c-0.46298,5.634 -4.504,9.874 -9.02499,9.471c-4.522,-0.404 -7.81201,-5.297 -7.34799,-10.931c0.46399,-5.633 4.505,-9.873 9.02499,-9.47c4.522,0.403 7.81201,5.29601 7.34799,10.93z" fill="#FFFCF5"/>
     <path id="svg_363" d="m41.765,40.84c-0.443,5.616 -4.458,9.855 -8.964,9.467c-4.507,-0.388 -7.801,-5.255 -7.357,-10.872c0.445,-5.615 4.458,-9.854 8.965,-9.466c4.507,0.388 7.8,5.255 7.356,10.871l0,0z" fill="#FFFCF6"/>
     <path id="svg_364" d="m41.727,40.806c-0.424,5.599 -4.411,9.835 -8.903,9.463c-4.494,-0.373 -7.792,-5.212 -7.367,-10.812c0.425,-5.598 4.412,-9.835 8.904,-9.462c4.492,0.372 7.791,5.212 7.366,10.811l0,0z" fill="#FFFDF7"/>
     <path id="svg_365" d="m41.688,40.771c-0.404,5.582 -4.364,9.817 -8.843,9.46c-4.479,-0.357 -7.782,-5.17 -7.376,-10.752c0.406,-5.581 4.365,-9.816 8.843,-9.458c4.479,0.356 7.782,5.169 7.376,10.75l0,0z" fill="#FFFDF8"/>
     <path id="svg_366" d="m41.64899,40.737c-0.38501,5.563 -4.31799,9.798 -8.78198,9.457c-4.46503,-0.342 -7.772,-5.128 -7.38602,-10.693c0.38699,-5.563 4.319,-9.796 8.78299,-9.455c4.46503,0.341 7.77203,5.12701 7.38501,10.691z" fill="#FFFDF9"/>
     <path id="svg_367" d="m41.61099,40.703c-0.366,5.54601 -4.271,9.77801 -8.72101,9.453c-4.45099,-0.326 -7.76199,-5.086 -7.396,-10.633c0.36801,-5.546 4.272,-9.77799 8.72202,-9.452c4.45099,0.325 7.76199,5.086 7.39499,10.632z" fill="#FFFEFA"/>
     <path id="svg_368" d="m41.57199,40.668c-0.34601,5.529 -4.22501,9.76 -8.66101,9.449c-4.43698,-0.311 -7.75198,-5.044 -7.405,-10.573c0.34802,-5.528 4.22601,-9.759 8.66202,-9.448c4.436,0.311 7.75201,5.044 7.40399,10.572z" fill="#FFFEFB"/>
     <path id="svg_369" d="m41.534,40.634c-0.327,5.511 -4.178,9.74 -8.6,9.445c-4.423,-0.295 -7.742,-5.002 -7.415,-10.514c0.329,-5.511 4.179,-9.739 8.601,-9.444c4.422,0.296 7.742,5.002 7.414,10.513l0,0z" fill="#FFFEFC"/>
     <path id="svg_370" d="m41.495,40.6c-0.30798,5.494 -4.13098,9.721 -8.539,9.442c-4.409,-0.28 -7.73199,-4.96 -7.42398,-10.45499c0.31,-5.493 4.13199,-9.72001 8.53998,-9.44001c4.40802,0.279 7.73199,4.959 7.423,10.453z" fill="#FFFEFD"/>
     <path id="svg_371" d="m41.457,40.565c-0.288,5.477 -4.084,9.702 -8.478,9.438c-4.395,-0.265 -7.723,-4.918 -7.434,-10.395c0.29,-5.476 4.085,-9.701 8.479,-9.437c4.393,0.265 7.722,4.918 7.433,10.394l0,0z" fill="#FFFFFE"/>
     <path id="svg_372" d="m41.418,40.531c-0.269,5.459 -4.038,9.683 -8.417,9.435c-4.38,-0.249 -7.712,-4.875 -7.443,-10.335c0.271,-5.458 4.039,-9.682 8.418,-9.433c4.379,0.248 7.712,4.874 7.442,10.333l0,0z" fill="#FFFFFF"/>
    </g>
    <g id="svg_373">
     <path id="svg_374" d="m48.829,29.267c-0.34,1.865 -1.798,3.165 -3.257,2.906c-1.458,-0.26 -2.365,-1.983 -2.026,-3.846c0.34,-1.865 1.798,-3.165 3.257,-2.906c1.459,0.26 2.365,1.982 2.026,3.846l0,0z" fill="#FFFFFF"/>
    </g>
    <g id="svg_375">
     <path id="svg_376" d="m66.573,153.983c-2.263,0.649 -4.59799,8.242 -4.327,10.444c0.35699,2.90399 3.431,0.922 5.09601,0.399c1.418,-0.44501 2.94998,0.224 4.48199,0.345c1.51498,0.12 3.746,-1.37001 4.96399,-0.507c1.397,-2.31599 -3.53699,-6.409 -4.939,-8.009c-0.75,-0.854 -1.867,-2.744 -3.004,-3.091c-0.96201,-0.29399 -1.33601,0.252 -2.272,0.41902" fill="#E01B1B"/>
    </g>
   </g>
   <g id="svg_377">
    <g id="svg_378">
     <path id="svg_379" d="m64.996,154.308c1.75101,-0.75 3.50198,-0.60001 5.25299,-0.45" fill="none"/>
    </g>
    <g id="svg_380">
     <path id="svg_381" d="m64.996,155.558c1.715,-0.673 3.44901,-0.603 5.25299,-0.45c-0.05099,-0.004 0.08902,-2.493 0,-2.5c-1.80399,-0.153 -3.53799,-0.22301 -5.25299,0.45c-0.3,0.117 0.267,2.395 0,2.5l0,0z" fill="#C1272D"/>
    </g>
   </g>
  </g>
 </g>
</svg>