<svg xmlns="http://www.w3.org/2000/svg" xmlns:xlink="http://www.w3.org/1999/xlink" x="0px" y="0px" width="200px" height="500px" viewBox="0 0 200 500" enable-background="new 0 0 200 500" xml:space="preserve">
<g>
	<g>
		<g>
			<path fill="none" d="M591.07,151.081c-25.554,11.875-41.783,39.18-28.953,65.777c16.47,34.767,55.653,31.506,79.562,56.594
				c16.316,15.74,24.795,50.151,14.87,70.73c-9.97,21.578-40.651,36.229-30.818,62.692"/>
		</g>
		<g>
			<path fill="#C1272D" d="M591.07,149.831c-18.74,8.964-33.512,26.357-33.452,47.872c0.059,21.461,13.938,37.983,32.085,47.777
				c18.553,10.013,38.647,15.192,53.635,30.915c15.233,15.98,22.37,44.941,13.708,65.461c-5.901,13.978-18.884,23.503-27.205,35.894
				c-6.139,9.142-7.734,19.997-4.11,30.375c-0.257-0.736,0.262-1.752,0-2.5c-7.622-21.826,15.673-37.341,26.66-53.009
				c10.068-14.358,10.005-33.14,5.913-49.572c-5.531-22.217-20.259-37.386-40.454-47.184c-18.686-9.065-39.228-14.995-51.604-32.959
				c-8.622-12.517-10.783-27.256-4.897-41.351c5.503-13.181,17.069-23.168,29.722-29.22
				C591.41,152.168,590.762,149.978,591.07,149.831L591.07,149.831z"/>
		</g>
	</g>
	<g>
		<g>
			<ellipse fill="#F7E521" cx="585.854" cy="77.356" rx="61.854" ry="75.804"/>
			<ellipse fill="#F7E622" cx="585.315" cy="76.779" rx="61.046" ry="74.892"/>
			<ellipse fill="#F7E723" cx="584.775" cy="76.203" rx="60.238" ry="73.98"/>
			<ellipse fill="#F7E724" cx="584.236" cy="75.625" rx="59.43" ry="73.068"/>
			<ellipse fill="#F7E825" cx="583.697" cy="75.048" rx="58.623" ry="72.157"/>
			<ellipse fill="#F7E926" cx="583.157" cy="74.472" rx="57.814" ry="71.245"/>
			<ellipse fill="#F7EA27" cx="582.618" cy="73.895" rx="57.006" ry="70.333"/>
			<ellipse fill="#F7EB28" cx="582.078" cy="73.317" rx="56.198" ry="69.421"/>
			<ellipse fill="#F7EC29" cx="581.539" cy="72.741" rx="55.39" ry="68.51"/>
			<ellipse fill="#F7EC2A" cx="580.999" cy="72.164" rx="54.582" ry="67.598"/>
			<ellipse fill="#F7ED2B" cx="580.459" cy="71.586" rx="53.774" ry="66.686"/>
			<ellipse fill="#F7EE2C" cx="579.92" cy="71.01" rx="52.966" ry="65.774"/>
			<ellipse fill="#F7EF2D" cx="579.381" cy="70.433" rx="52.158" ry="64.862"/>
			<ellipse fill="#F7F02E" cx="578.841" cy="69.855" rx="51.35" ry="63.951"/>
			<ellipse fill="#F8F02E" cx="578.302" cy="69.279" rx="50.542" ry="63.038"/>
			<ellipse fill="#F8F12F" cx="577.763" cy="68.702" rx="49.733" ry="62.126"/>
			<ellipse fill="#F8F230" cx="577.223" cy="68.125" rx="48.925" ry="61.215"/>
			<ellipse fill="#F8F331" cx="576.684" cy="67.548" rx="48.118" ry="60.303"/>
			<ellipse fill="#F8F432" cx="576.145" cy="66.971" rx="47.31" ry="59.391"/>
			<ellipse fill="#F8F433" cx="575.605" cy="66.394" rx="46.501" ry="58.479"/>
			<ellipse fill="#F8F534" cx="575.065" cy="65.817" rx="45.693" ry="57.567"/>
			<ellipse fill="#F8F635" cx="574.526" cy="65.24" rx="44.885" ry="56.656"/>
			<ellipse fill="#F8F736" cx="573.986" cy="64.663" rx="44.077" ry="55.744"/>
			<ellipse fill="#F8F837" cx="573.447" cy="64.086" rx="43.269" ry="54.832"/>
			<ellipse fill="#F8F938" cx="572.908" cy="63.509" rx="42.461" ry="53.92"/>
			<ellipse fill="#F8F939" cx="572.368" cy="62.932" rx="41.653" ry="53.008"/>
			<ellipse fill="#F8FA3A" cx="571.829" cy="62.355" rx="40.845" ry="52.096"/>
			<ellipse fill="#F8FB3B" cx="571.289" cy="61.778" rx="40.037" ry="51.185"/>
			
				<ellipse transform="matrix(1 7.465790e-004 -7.465790e-004 1 0.0462 -0.4264)" fill="#F8FB3C" cx="571.212" cy="61.669" rx="39.896" ry="51.001"/>
			
				<ellipse transform="matrix(1 0.0015 -0.0015 1 0.0925 -0.8522)" fill="#F8FB3D" cx="571.135" cy="61.561" rx="39.755" ry="50.819"/>
			
				<ellipse transform="matrix(1 0.0022 -0.0022 1 0.1396 -1.2845)" fill="#F8FB3E" cx="571.058" cy="61.452" rx="39.613" ry="50.636"/>
			<path fill="#F8FB3F" d="M610.453,61.463c-0.082,27.864-17.82,50.399-39.62,50.333c-21.799-0.066-39.406-22.708-39.324-50.571
				c0.081-27.865,17.82-50.399,39.62-50.334C592.928,10.957,610.534,33.598,610.453,61.463z"/>
			<path fill="#F8FB40" d="M610.234,61.384c-0.102,27.763-17.794,50.203-39.516,50.121c-21.721-0.082-39.248-22.656-39.146-50.418
				c0.102-27.764,17.794-50.203,39.515-50.121C592.81,11.048,610.337,33.62,610.234,61.384z"/>
			<path fill="#F8FB41" d="M610.017,61.305c-0.123,27.662-17.769,50.006-39.411,49.908c-21.644-0.099-39.091-22.604-38.969-50.265
				c0.123-27.663,17.769-50.006,39.411-49.908C592.691,11.139,610.139,33.643,610.017,61.305z"/>
			<path fill="#F8FB42" d="M609.798,61.227c-0.143,27.561-17.741,49.81-39.307,49.695c-21.565-0.115-38.933-22.551-38.79-50.112
				c0.143-27.562,17.741-49.81,39.307-49.695S609.94,33.665,609.798,61.227z"/>
			<path fill="#F8FB43" d="M609.579,61.147c-0.163,27.459-17.715,49.614-39.202,49.483s-38.774-22.499-38.611-49.958
				c0.163-27.46,17.715-49.614,39.202-49.482S609.742,33.687,609.579,61.147z"/>
			<path fill="#F8FB44" d="M609.361,61.069c-0.184,27.358-17.689,49.417-39.099,49.27c-21.409-0.148-38.616-22.447-38.433-49.805
				c0.183-27.359,17.688-49.417,39.098-49.27C592.337,11.412,609.545,33.709,609.361,61.069z"/>
			<path fill="#F8FB45" d="M609.143,60.99c-0.204,27.257-17.662,49.222-38.993,49.057c-21.331-0.164-38.459-22.394-38.256-49.651
				c0.204-27.258,17.663-49.221,38.994-49.057S609.347,33.732,609.143,60.99z"/>
			<path fill="#F8FB46" d="M608.925,60.911c-0.225,27.156-17.637,49.025-38.89,48.844s-38.302-22.342-38.077-49.498
				c0.225-27.157,17.636-49.025,38.89-48.845C592.101,11.593,609.148,33.754,608.925,60.911z"/>
			<path fill="#F8FB47" d="M608.706,60.833c-0.245,27.055-17.61,48.829-38.785,48.631c-21.175-0.197-38.144-22.29-37.898-49.345
				c0.244-27.056,17.609-48.828,38.785-48.631C591.982,11.685,608.951,33.776,608.706,60.833z"/>
			<path fill="#F8FB48" d="M608.487,60.753c-0.265,26.954-17.583,48.632-38.681,48.419c-21.097-0.213-37.985-22.238-37.72-49.192
				c0.265-26.955,17.583-48.632,38.68-48.418C591.864,11.775,608.753,33.799,608.487,60.753z"/>
			<path fill="#F8FB49" d="M608.27,60.675c-0.286,26.853-17.558,48.436-38.576,48.206c-21.02-0.23-37.828-22.186-37.543-49.039
				c0.286-26.854,17.558-48.436,38.576-48.206C591.746,11.866,608.555,33.821,608.27,60.675z"/>
			<path fill="#F8FB4A" d="M608.051,60.596c-0.306,26.752-17.53,48.239-38.472,47.993s-37.67-22.133-37.364-48.885
				c0.306-26.753,17.531-48.24,38.472-47.993C591.628,11.957,608.356,33.843,608.051,60.596z"/>
			<path fill="#F8FB4B" d="M607.833,60.517c-0.327,26.651-17.505,48.043-38.368,47.781c-20.862-0.263-37.512-22.081-37.186-48.732
				c0.326-26.652,17.504-48.043,38.367-47.781S608.159,33.866,607.833,60.517z"/>
			<path fill="#F8FB4C" d="M607.614,60.438c-0.347,26.55-17.479,47.847-38.263,47.568c-20.785-0.279-37.354-22.029-37.009-48.579
				c0.347-26.551,17.479-47.847,38.264-47.568S607.961,33.888,607.614,60.438z"/>
			<path fill="#F8FB4D" d="M607.396,60.36c-0.366,26.448-17.451,47.65-38.158,47.355c-20.707-0.296-37.197-21.977-36.83-48.425
				c0.367-26.45,17.452-47.651,38.159-47.355C591.273,12.23,607.763,33.91,607.396,60.36z"/>
			<path fill="#F8FB4E" d="M607.178,60.281c-0.388,26.348-17.426,47.455-38.055,47.143s-37.039-21.925-36.651-48.272
				c0.388-26.349,17.426-47.455,38.055-47.143S607.564,33.933,607.178,60.281z"/>
			<path fill="#F8FB4F" d="M606.959,60.202c-0.407,26.247-17.399,47.258-37.95,46.93c-20.551-0.329-36.881-21.873-36.473-48.119
				c0.407-26.247,17.398-47.258,37.95-46.929C591.037,12.412,607.367,33.955,606.959,60.202z"/>
			<path fill="#F8FB50" d="M606.741,60.124c-0.429,26.145-17.373,47.062-37.846,46.717c-20.474-0.345-36.724-21.82-36.296-47.966
				c0.429-26.146,17.373-47.062,37.847-46.717C590.919,12.502,607.169,33.977,606.741,60.124z"/>
			<path fill="#F8FB51" d="M606.522,60.044c-0.448,26.044-17.347,46.865-37.741,46.504c-20.396-0.361-36.565-21.768-36.117-47.813
				c0.448-26.045,17.347-46.865,37.741-46.504C590.801,12.594,606.971,34,606.522,60.044z"/>
			<path fill="#F8FB52" d="M606.304,59.966c-0.469,25.943-17.319,46.669-37.637,46.291c-20.316-0.377-36.407-21.715-35.938-47.659
				c0.469-25.944,17.32-46.669,37.637-46.291C590.683,12.685,606.773,34.021,606.304,59.966z"/>
			<path fill="#F8FB53" d="M606.086,59.887c-0.489,25.842-17.294,46.473-37.533,46.079c-20.238-0.394-36.249-21.663-35.76-47.505
				c0.489-25.843,17.294-46.473,37.532-46.079C590.564,12.775,606.575,34.044,606.086,59.887z"/>
			<path fill="#F9FB54" d="M605.867,59.808c-0.51,25.741-17.268,46.276-37.428,45.866c-20.161-0.41-36.093-21.611-35.583-47.352
				c0.51-25.742,17.268-46.276,37.429-45.866C590.446,12.866,606.377,34.066,605.867,59.808z"/>
			<path fill="#F9FB55" d="M605.649,59.729c-0.53,25.64-17.241,46.08-37.324,45.653s-35.935-21.559-35.404-47.199
				c0.53-25.641,17.241-46.08,37.324-45.653C590.328,12.958,606.179,34.088,605.649,59.729z"/>
			<path fill="#F9FB56" d="M605.431,59.65c-0.551,25.539-17.215,45.884-37.22,45.44s-35.776-21.507-35.226-47.046
				c0.55-25.54,17.215-45.883,37.22-45.44S605.981,34.111,605.431,59.65z"/>
			<path fill="#F9FB57" d="M605.212,59.572c-0.57,25.438-17.188,45.687-37.115,45.228c-19.927-0.46-35.618-21.455-35.047-46.893
				c0.57-25.438,17.188-45.687,37.115-45.228C590.092,13.139,605.783,34.133,605.212,59.572z"/>
			<path fill="#F9FB58" d="M604.994,59.493c-0.592,25.336-17.162,45.491-37.011,45.015s-35.461-21.402-34.87-46.739
				c0.592-25.337,17.162-45.491,37.012-45.015C589.974,13.23,605.585,34.155,604.994,59.493z"/>
			<path fill="#F9FB59" d="M604.775,59.414c-0.611,25.236-17.136,45.295-36.906,44.802s-35.303-21.35-34.691-46.586
				c0.611-25.236,17.136-45.294,36.906-44.802C589.855,13.321,605.388,34.178,604.775,59.414z"/>
			<path fill="#F9FB5A" d="M604.558,59.335c-0.633,25.135-17.11,45.098-36.803,44.589c-19.692-0.509-35.146-21.298-34.513-46.433
				c0.632-25.135,17.109-45.098,36.802-44.589C589.737,13.412,605.189,34.2,604.558,59.335z"/>
			<path fill="#F9FB5B" d="M604.339,59.257c-0.652,25.033-17.083,44.902-36.697,44.376c-19.615-0.525-34.988-21.246-34.335-46.279
				c0.652-25.034,17.083-44.902,36.697-44.376C589.619,13.503,604.991,34.222,604.339,59.257z"/>
			<path fill="#F9FB5C" d="M604.12,59.178c-0.673,24.933-17.057,44.706-36.593,44.164c-19.537-0.542-34.83-21.194-34.157-46.126
				c0.673-24.934,17.057-44.706,36.594-44.164C589.501,13.594,604.793,34.245,604.12,59.178z"/>
			<path fill="#F9FB5D" d="M603.902,59.099c-0.693,24.831-17.03,44.509-36.489,43.951c-19.459-0.559-34.672-21.142-33.979-45.973
				c0.693-24.833,17.03-44.509,36.489-43.951S604.596,34.267,603.902,59.099z"/>
			<path fill="#F9FB5E" d="M603.684,59.021c-0.714,24.73-17.004,44.313-36.385,43.738c-19.381-0.575-34.514-21.089-33.8-45.82
				c0.713-24.731,17.004-44.313,36.385-43.738S604.397,34.289,603.684,59.021z"/>
			<path fill="#F9FB5F" d="M603.466,58.941c-0.734,24.629-16.979,44.117-36.28,43.525c-19.303-0.591-34.356-21.037-33.623-45.666
				c0.734-24.63,16.979-44.116,36.281-43.525C589.146,13.867,604.199,34.312,603.466,58.941z"/>
			<path fill="#F9FB60" d="M603.247,58.863c-0.755,24.528-16.951,43.92-36.176,43.313s-34.198-20.984-33.444-45.513
				c0.755-24.529,16.952-43.92,36.177-43.313C589.027,13.958,604.002,34.334,603.247,58.863z"/>
			<path fill="#F9FB61" d="M603.028,58.784c-0.774,24.427-16.925,43.724-36.071,43.1s-34.041-20.932-33.266-45.359
				c0.774-24.428,16.925-43.724,36.071-43.1C588.909,14.048,603.804,34.356,603.028,58.784z"/>
			<path fill="#F9FB62" d="M602.811,58.705c-0.795,24.326-16.899,43.527-35.968,42.887s-33.883-20.88-33.087-45.206
				c0.795-24.327,16.898-43.527,35.967-42.887S603.605,34.378,602.811,58.705z"/>
			<path fill="#F9FB63" d="M602.592,58.626c-0.815,24.225-16.872,43.331-35.862,42.674c-18.991-0.657-33.726-20.828-32.91-45.053
				c0.815-24.226,16.873-43.331,35.863-42.674S603.407,34.401,602.592,58.626z"/>
			<path fill="#F9FB64" d="M602.374,58.547c-0.836,24.124-16.847,43.135-35.759,42.462c-18.913-0.673-33.567-20.776-32.731-44.899
				c0.836-24.125,16.847-43.135,35.759-42.462S603.21,34.423,602.374,58.547z"/>
			<path fill="#F9FB65" d="M602.155,58.469c-0.856,24.022-16.819,42.938-35.654,42.249c-18.834-0.69-33.409-20.724-32.553-44.747
				c0.856-24.023,16.819-42.938,35.654-42.249C588.437,14.412,603.012,34.445,602.155,58.469z"/>
			<path fill="#F9FB66" d="M601.937,58.39c-0.876,23.921-16.793,42.742-35.55,42.036c-18.756-0.706-33.251-20.671-32.374-44.593
				c0.876-23.922,16.793-42.742,35.55-42.036C588.318,14.503,602.813,34.467,601.937,58.39z"/>
			<path fill="#F9FB67" d="M601.719,58.311c-0.897,23.821-16.768,42.546-35.445,41.824c-18.679-0.723-33.094-20.619-32.197-44.44
				c0.897-23.821,16.768-42.546,35.446-41.823C588.2,14.594,602.616,34.49,601.719,58.311z"/>
			<path fill="#F9FB68" d="M601.5,58.232c-0.917,23.719-16.74,42.35-35.341,41.611c-18.601-0.739-32.937-20.567-32.019-44.287
				c0.917-23.72,16.741-42.35,35.342-41.61C588.082,14.685,602.418,34.512,601.5,58.232z"/>
			<path fill="#F9FB69" d="M601.282,58.154c-0.938,23.618-16.715,42.153-35.237,41.398c-18.522-0.755-32.778-20.515-31.84-44.133
				c0.938-23.619,16.714-42.153,35.237-41.398C587.964,14.776,602.22,34.534,601.282,58.154z"/>
			<path fill="#F9FB6A" d="M601.063,58.075c-0.958,23.518-16.688,41.957-35.133,41.186c-18.444-0.772-32.62-20.463-31.661-43.98
				c0.958-23.518,16.688-41.957,35.132-41.185C587.846,14.867,602.021,34.557,601.063,58.075z"/>
			<path fill="#F9FB6B" d="M600.845,57.996c-0.979,23.416-16.661,41.76-35.027,40.973c-18.367-0.789-32.463-20.411-31.484-43.827
				c0.979-23.417,16.662-41.761,35.028-40.973S601.824,34.579,600.845,57.996z"/>
			<path fill="#F9FB6C" d="M600.627,57.917c-0.999,23.315-16.636,41.564-34.924,40.759s-32.305-20.358-31.306-43.673
				c0.999-23.316,16.636-41.564,34.924-40.76S601.626,34.601,600.627,57.917z"/>
			<path fill="#F9FB6D" d="M600.408,57.838c-1.02,23.214-16.609,41.368-34.819,40.547s-32.146-20.306-31.127-43.52
				s16.609-41.368,34.819-40.547C587.491,15.14,601.428,34.624,600.408,57.838z"/>
			<path fill="#F9FB6E" d="M600.19,57.76c-1.04,23.113-16.583,41.171-34.715,40.334c-18.133-0.837-31.989-20.253-30.95-43.367
				c1.04-23.114,16.583-41.171,34.716-40.334C587.373,15.23,601.23,34.646,600.19,57.76z"/>
			<path fill="#F9FB6F" d="M599.972,57.681c-1.061,23.012-16.557,40.976-34.61,40.122c-18.055-0.854-31.832-20.201-30.771-43.213
				c1.061-23.013,16.557-40.975,34.611-40.121C587.255,15.321,601.032,34.668,599.972,57.681z"/>
			<path fill="#F9FB70" d="M599.754,57.602c-1.081,22.911-16.53,40.779-34.507,39.909s-31.674-20.149-30.593-43.06
				c1.08-22.912,16.53-40.779,34.507-39.909C587.137,15.412,600.834,34.69,599.754,57.602z"/>
			<path fill="#F9FB71" d="M599.535,57.523c-1.102,22.81-16.504,40.583-34.402,39.696s-31.516-20.097-30.414-42.907
				c1.101-22.811,16.504-40.583,34.402-39.696C587.019,15.503,600.636,34.713,599.535,57.523z"/>
			<path fill="#F9FB72" d="M599.316,57.444c-1.121,22.709-16.478,40.386-34.297,39.483c-17.82-0.903-31.358-20.045-30.237-42.753
				c1.122-22.709,16.478-40.386,34.298-39.483C586.9,15.594,600.438,34.735,599.316,57.444z"/>
			<path fill="#F9FB73" d="M599.099,57.366c-1.143,22.607-16.451,40.19-34.193,39.271s-31.2-19.993-30.059-42.6
				c1.142-22.608,16.451-40.19,34.193-39.271S600.24,34.757,599.099,57.366z"/>
			<path fill="#F9FB74" d="M598.88,57.287c-1.162,22.506-16.425,39.993-34.089,39.058c-17.664-0.936-31.042-19.94-29.88-42.447
				S551.336,13.904,569,14.84C586.664,15.776,600.042,34.78,598.88,57.287z"/>
			<path fill="#F9FB75" d="M598.662,57.208c-1.184,22.406-16.399,39.797-33.985,38.845c-17.586-0.953-30.884-19.888-29.701-42.294
				c1.182-22.406,16.398-39.797,33.984-38.845C586.546,15.867,599.845,34.802,598.662,57.208z"/>
			<path fill="#F9FB76" d="M598.443,57.129c-1.203,22.304-16.372,39.601-33.88,38.632c-17.509-0.969-30.728-19.836-29.524-42.141
				s16.373-39.601,33.881-38.632S599.646,34.824,598.443,57.129z"/>
			<path fill="#F9FB77" d="M598.225,57.051c-1.223,22.203-16.346,39.404-33.775,38.419c-17.431-0.985-30.569-19.784-29.346-41.987
				s16.346-39.404,33.776-38.419C586.31,16.049,599.448,34.847,598.225,57.051z"/>
			<path fill="#F9FB78" d="M598.007,56.972c-1.244,22.102-16.319,39.208-33.672,38.207c-17.353-1.002-30.411-19.732-29.167-41.834
				c1.243-22.103,16.319-39.208,33.672-38.207C586.191,16.14,599.25,34.869,598.007,56.972z"/>
			<path fill="#F9FB79" d="M597.788,56.893c-1.264,22.001-16.293,39.012-33.567,37.994c-17.273-1.018-30.253-19.679-28.988-41.68
				c1.264-22.002,16.293-39.012,33.567-37.994C586.073,16.23,599.053,34.891,597.788,56.893z"/>
			<path fill="#F9FB7A" d="M597.57,56.814c-1.285,21.9-16.268,38.815-33.463,37.781c-17.196-1.034-30.096-19.627-28.812-41.527
				c1.284-21.901,16.268-38.815,33.464-37.781C585.955,16.322,598.854,34.914,597.57,56.814z"/>
			<path fill="#F9FB7B" d="M597.352,56.735c-1.305,21.799-16.24,38.619-33.358,37.568S534.056,74.729,535.36,52.93
				c1.305-21.8,16.24-38.619,33.358-37.568S598.656,34.936,597.352,56.735z"/>
			<path fill="#F9FB7C" d="M597.133,56.657c-1.325,21.698-16.214,38.423-33.254,37.355S534.1,74.49,535.425,52.792
				s16.214-38.422,33.254-37.355C585.719,16.503,598.459,34.958,597.133,56.657z"/>
			<path fill="#F9FB7D" d="M596.915,56.578c-1.346,21.597-16.188,38.227-33.15,37.143c-16.962-1.084-29.622-19.47-28.275-41.067
				c1.345-21.597,16.188-38.226,33.149-37.143S598.261,34.98,596.915,56.578z"/>
			<path fill="#F9FB7E" d="M596.696,56.499c-1.366,21.496-16.161,38.03-33.045,36.93c-16.885-1.1-29.465-19.418-28.099-40.914
				c1.366-21.496,16.162-38.03,33.046-36.93C585.482,16.685,598.063,35.002,596.696,56.499z"/>
			<path fill="#F9FB7F" d="M596.479,56.42c-1.387,21.395-16.136,37.833-32.941,36.717c-16.806-1.117-29.307-19.366-27.92-40.761
				c1.387-21.395,16.135-37.834,32.941-36.717C585.364,16.776,597.864,35.025,596.479,56.42z"/>
			<path fill="#F9FB80" d="M596.26,56.341c-1.407,21.293-16.109,37.638-32.837,36.505c-16.728-1.133-29.148-19.314-27.741-40.607
				c1.406-21.294,16.108-37.638,32.837-36.504C585.246,16.867,597.667,35.047,596.26,56.341z"/>
			<path fill="#F9FB81" d="M596.041,56.263c-1.427,21.192-16.082,37.441-32.731,36.292c-16.65-1.149-28.991-19.262-27.564-40.454
				c1.428-21.193,16.083-37.441,32.733-36.292C585.128,16.958,597.469,35.069,596.041,56.263z"/>
			<path fill="#F9FB82" d="M595.823,56.184c-1.448,21.091-16.057,37.245-32.628,36.079c-16.572-1.166-28.833-19.209-27.386-40.301
				c1.447-21.092,16.057-37.245,32.629-36.079C585.01,17.049,597.271,35.092,595.823,56.184z"/>
			<path fill="#F9FB83" d="M595.604,56.105c-1.468,20.99-16.029,37.048-32.523,35.867c-16.494-1.183-28.675-19.157-27.207-40.148
				s16.03-37.048,32.523-35.866C584.892,17.14,597.073,35.114,595.604,56.105z"/>
			<path fill="#FAFB84" d="M595.387,56.026c-1.489,20.889-16.004,36.852-32.42,35.654c-16.416-1.199-28.518-19.105-27.028-39.995
				c1.488-20.89,16.003-36.852,32.419-35.653S596.875,35.136,595.387,56.026z"/>
			<path fill="#FAFB85" d="M595.168,55.948c-1.509,20.788-15.978,36.656-32.314,35.441c-16.338-1.215-28.36-19.053-26.852-39.841
				c1.509-20.789,15.978-36.656,32.315-35.44C584.655,17.322,596.677,35.159,595.168,55.948z"/>
			<path fill="#FAFB86" d="M594.949,55.869c-1.529,20.687-15.95,36.459-32.21,35.228s-28.202-19-26.673-39.688
				c1.529-20.688,15.951-36.459,32.211-35.228S596.479,35.181,594.949,55.869z"/>
			<path fill="#FAFB87" d="M594.731,55.79c-1.55,20.586-15.925,36.263-32.106,35.015s-28.044-18.948-26.494-39.534
				c1.549-20.586,15.925-36.263,32.106-35.015C584.419,17.503,596.281,35.203,594.731,55.79z"/>
			<path fill="#FAFB88" d="M594.513,55.711c-1.57,20.484-15.898,36.066-32.002,34.802s-27.886-18.896-26.315-39.381
				c1.569-20.485,15.897-36.067,32.002-34.803C584.301,17.595,596.083,35.226,594.513,55.711z"/>
			<path fill="#FAFB89" d="M594.295,55.632c-1.591,20.384-15.872,35.871-31.897,34.59c-16.026-1.281-27.729-18.844-26.139-39.228
				c1.591-20.384,15.872-35.871,31.898-34.59C584.183,17.686,595.885,35.248,594.295,55.632z"/>
			<path fill="#FAFB8A" d="M594.076,55.554c-1.611,20.283-15.846,35.674-31.793,34.377c-15.948-1.297-27.57-18.792-25.96-39.075
				s15.846-35.674,31.794-34.376C584.064,17.776,595.688,35.27,594.076,55.554z"/>
			<path fill="#FAFB8B" d="M593.857,55.475c-1.631,20.182-15.818,35.478-31.688,34.165c-15.87-1.314-27.413-18.739-25.781-38.921
				c1.631-20.182,15.819-35.478,31.688-34.164C583.946,17.867,595.489,35.292,593.857,55.475z"/>
			<path fill="#FAFB8C" d="M593.64,55.396c-1.652,20.081-15.793,35.281-31.585,33.952c-15.791-1.33-27.255-18.688-25.603-38.768
				c1.65-20.081,15.793-35.281,31.584-33.951C583.828,17.958,595.291,35.315,593.64,55.396z"/>
			<path fill="#FAFB8D" d="M593.421,55.317c-1.672,19.979-15.767,35.085-31.479,33.739c-15.714-1.347-27.098-18.635-25.426-38.615
				c1.672-19.98,15.767-35.085,31.48-33.739C583.71,18.049,595.093,35.337,593.421,55.317z"/>
			<path fill="#FAFB8E" d="M593.203,55.238c-1.692,19.878-15.74,34.889-31.376,33.526c-15.636-1.363-26.939-18.583-25.247-38.461
				c1.692-19.879,15.74-34.889,31.376-33.526S594.896,35.359,593.203,55.238z"/>
			<path fill="#FAFB8F" d="M592.984,55.16c-1.713,19.777-15.714,34.692-31.271,33.313c-15.558-1.379-26.781-18.531-25.068-38.308
				c1.712-19.778,15.714-34.692,31.271-33.313C583.474,18.231,594.697,35.382,592.984,55.16z"/>
			<path fill="#FAFB90" d="M592.766,55.081c-1.732,19.676-15.688,34.496-31.166,33.101c-15.48-1.396-26.624-18.479-24.891-38.155
				c1.732-19.677,15.688-34.496,31.167-33.101S594.499,35.404,592.766,55.081z"/>
			<path fill="#FAFB91" d="M592.548,55.002c-1.754,19.575-15.661,34.3-31.063,32.888c-15.402-1.413-26.466-18.426-24.713-38.001
				c1.754-19.576,15.661-34.3,31.063-32.888C583.237,18.413,594.302,35.426,592.548,55.002z"/>
			<path fill="#FAFB92" d="M592.329,54.923c-1.773,19.474-15.635,34.104-30.958,32.675c-15.323-1.429-26.309-18.374-24.534-37.849
				c1.773-19.474,15.635-34.103,30.959-32.675C583.119,18.504,594.104,35.449,592.329,54.923z"/>
			<path fill="#FAFB93" d="M592.111,54.845c-1.795,19.373-15.609,33.907-30.854,32.462s-26.15-18.322-24.355-37.695
				c1.794-19.374,15.608-33.907,30.854-32.462C583.001,18.595,593.905,35.471,592.111,54.845z"/>
			<path fill="#FAFB94" d="M591.893,54.766c-1.814,19.272-15.582,33.711-30.749,32.25c-15.168-1.461-25.993-18.27-24.179-37.542
				c1.814-19.272,15.583-33.71,30.75-32.249C582.883,18.686,593.707,35.493,591.893,54.766z"/>
			<path fill="#FAFB95" d="M591.674,54.687c-1.835,19.171-15.556,33.514-30.645,32.037c-15.09-1.478-25.835-18.217-24-37.388
				c1.835-19.171,15.556-33.514,30.646-32.037C582.765,18.777,593.51,35.516,591.674,54.687z"/>
			<path fill="#FAFB96" d="M591.456,54.608c-1.855,19.069-15.529,33.318-30.541,31.824s-25.677-18.165-23.821-37.235
				c1.855-19.07,15.529-33.318,30.541-31.824S593.312,35.538,591.456,54.608z"/>
			<path fill="#FAFB97" d="M591.237,54.529c-1.876,18.969-15.503,33.122-30.437,31.611c-14.934-1.511-25.519-18.113-23.643-37.082
				c1.875-18.969,15.503-33.122,30.437-31.611C582.528,18.958,593.113,35.56,591.237,54.529z"/>
			<path fill="#FAFB98" d="M591.02,54.451c-1.896,18.867-15.478,32.925-30.332,31.398c-14.856-1.527-25.362-18.061-23.466-36.928
				c1.896-18.868,15.478-32.925,30.333-31.398S592.916,35.583,591.02,54.451z"/>
			<path fill="#FAFB99" d="M590.801,54.372c-1.917,18.767-15.45,32.729-30.228,31.186c-14.777-1.543-25.204-18.008-23.287-36.775
				c1.916-18.767,15.451-32.729,30.229-31.186C582.292,19.14,592.718,35.604,590.801,54.372z"/>
			<path fill="#FAFB9A" d="M590.582,54.293c-1.937,18.666-15.424,32.533-30.123,30.973c-14.699-1.56-25.046-17.957-23.108-36.622
				c1.937-18.666,15.424-32.533,30.124-30.973C582.174,19.231,592.52,35.627,590.582,54.293z"/>
			<path fill="#FAFB9B" d="M590.364,54.214c-1.958,18.564-15.398,32.336-30.02,30.76c-14.621-1.577-24.888-17.904-22.93-36.469
				c1.957-18.564,15.397-32.336,30.02-30.76C582.056,19.322,592.321,35.649,590.364,54.214z"/>
			<path fill="#FAFC9C" d="M590.146,54.135c-1.978,18.463-15.371,32.14-29.914,30.548c-14.544-1.593-24.73-17.852-22.753-36.315
				c1.978-18.464,15.372-32.14,29.915-30.547C581.938,19.413,592.124,35.671,590.146,54.135z"/>
			<path fill="#FAFC9D" d="M589.928,54.057C587.929,72.419,574.582,86,560.117,84.392c-14.466-1.609-24.572-17.8-22.574-36.162
				c1.998-18.363,15.346-31.944,29.811-30.334C581.819,19.504,591.926,35.694,589.928,54.057z"/>
			<path fill="#FAFC9E" d="M589.709,53.978c-2.019,18.261-15.318,31.747-29.706,30.122c-14.388-1.626-24.414-17.748-22.396-36.009
				c2.018-18.262,15.318-31.748,29.706-30.122S591.728,35.716,589.709,53.978z"/>
			<path fill="#FAFC9F" d="M589.491,53.899c-2.04,18.16-15.293,31.551-29.603,29.909c-14.309-1.642-24.257-17.695-22.217-35.855
				c2.038-18.161,15.292-31.551,29.602-29.909C581.582,19.686,591.53,35.738,589.491,53.899z"/>
			<path fill="#FAFCA0" d="M589.272,53.82c-2.06,18.059-15.267,31.354-29.497,29.696c-14.231-1.658-24.1-17.643-22.04-35.702
				c2.06-18.06,15.267-31.355,29.498-29.696C581.464,19.777,591.332,35.761,589.272,53.82z"/>
			<path fill="#FAFCA1" d="M589.054,53.742c-2.08,17.958-15.239,31.158-29.393,29.483S535.72,65.634,537.8,47.676
				c2.079-17.958,15.24-31.158,29.394-29.483C581.346,19.868,591.134,35.783,589.054,53.742z"/>
			<path fill="#FAFCA2" d="M588.836,53.663c-2.101,17.857-15.214,30.962-29.289,29.271c-14.075-1.691-23.783-17.539-21.683-35.396
				c2.1-17.857,15.214-30.962,29.289-29.271C581.228,19.958,590.936,35.805,588.836,53.663z"/>
			<path fill="#FAFCA3" d="M588.617,53.584c-2.12,17.755-15.188,30.766-29.184,29.058c-13.998-1.708-23.626-17.486-21.506-35.242
				c2.121-17.756,15.188-30.766,29.186-29.058C581.109,20.05,590.738,35.828,588.617,53.584z"/>
			<path fill="#FAFCA4" d="M588.399,53.505c-2.142,17.654-15.161,30.569-29.08,28.845c-13.92-1.724-23.468-17.434-21.327-35.089
				s15.161-30.569,29.081-28.845C580.991,20.141,590.54,35.85,588.399,53.505z"/>
			<path fill="#FAFCA5" d="M588.181,53.426c-2.161,17.554-15.135,30.373-28.976,28.633c-13.842-1.741-23.31-17.382-21.148-34.936
				c2.161-17.554,15.135-30.373,28.976-28.632C580.873,20.231,590.342,35.872,588.181,53.426z"/>
			<path fill="#FAFCA6" d="M587.962,53.348c-2.182,17.452-15.108,30.176-28.871,28.42c-13.763-1.757-23.152-17.33-20.97-34.782
				c2.181-17.453,15.108-30.177,28.871-28.42S590.145,35.895,587.962,53.348z"/>
			<path fill="#FAFCA7" d="M587.744,53.269c-2.202,17.352-15.082,29.98-28.767,28.208c-13.686-1.773-22.995-17.277-20.793-34.629
				c2.202-17.352,15.082-29.98,28.768-28.207C580.637,20.413,589.946,35.917,587.744,53.269z"/>
			<path fill="#FAFCA8" d="M587.525,53.19c-2.223,17.25-15.056,29.784-28.662,27.995c-13.607-1.79-22.837-17.226-20.614-34.476
				s15.056-29.784,28.663-27.994C580.519,20.504,589.748,35.939,587.525,53.19z"/>
			<path fill="#FAFCA9" d="M587.308,53.111c-2.243,17.149-15.029,29.587-28.559,27.782C545.22,79.086,536.07,63.72,538.313,46.57
				c2.242-17.149,15.029-29.587,28.559-27.781C580.4,20.595,589.55,35.961,587.308,53.111z"/>
			<path fill="#FAFCAA" d="M587.089,53.032c-2.264,17.048-15.003,29.392-28.454,27.569c-13.451-1.823-22.521-17.121-20.257-34.169
				c2.263-17.048,15.003-29.391,28.454-27.568C580.282,20.686,589.353,35.984,587.089,53.032z"/>
			<path fill="#FAFCAB" d="M586.87,52.954c-2.283,16.947-14.977,29.195-28.349,27.356c-13.374-1.839-22.363-17.069-20.08-34.016
				s14.977-29.195,28.351-27.356C580.164,20.777,589.154,36.006,586.87,52.954z"/>
			<path fill="#FAFCAC" d="M586.652,52.875c-2.305,16.846-14.95,28.999-28.245,27.143s-22.205-17.016-19.901-33.862
				s14.95-28.999,28.246-27.143C580.046,20.868,588.956,36.028,586.652,52.875z"/>
			<path fill="#FAFCAD" d="M586.434,52.796c-2.324,16.745-14.924,28.802-28.141,26.931c-13.217-1.872-22.048-16.964-19.723-33.709
				c2.324-16.745,14.924-28.802,28.141-26.931C579.928,20.959,588.759,36.051,586.434,52.796z"/>
			<path fill="#FAFCAE" d="M586.216,52.717c-2.346,16.644-14.898,28.606-28.037,26.718s-21.89-16.912-19.544-33.556
				c2.344-16.644,14.897-28.606,28.036-26.718S588.561,36.073,586.216,52.717z"/>
			<path fill="#FAFCAF" d="M585.997,52.639c-2.365,16.542-14.871,28.409-27.932,26.505c-13.062-1.905-21.732-16.86-19.367-33.403
				s14.872-28.409,27.933-26.505C579.691,21.141,588.362,36.095,585.997,52.639z"/>
			<path fill="#FAFCB0" d="M585.778,52.56c-2.386,16.441-14.845,28.213-27.827,26.292c-12.983-1.921-21.574-16.808-19.188-33.25
				s14.845-28.213,27.828-26.292C579.573,21.231,588.164,36.118,585.778,52.56z"/>
			<path fill="#FAFCB1" d="M585.561,52.481c-2.406,16.34-14.819,28.017-27.724,26.08c-12.905-1.938-21.416-16.755-19.01-33.096
				c2.405-16.341,14.818-28.017,27.724-26.079C579.455,21.323,587.967,36.14,585.561,52.481z"/>
			<path fill="#FAFCB2" d="M585.342,52.402c-2.427,16.239-14.792,27.82-27.619,25.867c-12.826-1.954-21.258-16.703-18.831-32.943
				c2.426-16.24,14.792-27.82,27.619-25.867C579.337,21.414,587.769,36.162,585.342,52.402z"/>
			<path fill="#FAFCB3" d="M585.124,52.323c-2.447,16.138-14.767,27.624-27.515,25.654c-12.749-1.971-21.101-16.651-18.654-32.79
				s14.767-27.624,27.516-25.654C579.219,21.504,587.57,36.185,585.124,52.323z"/>
			<path fill="#FBFCB4" d="M584.905,52.245c-2.468,16.037-14.739,27.428-27.41,25.441c-12.671-1.987-20.943-16.599-18.476-32.636
				c2.467-16.038,14.739-27.428,27.411-25.441C579.101,21.595,587.373,36.207,584.905,52.245z"/>
			<path fill="#FBFCB5" d="M584.687,52.166c-2.487,15.937-14.713,27.232-27.306,25.229c-12.593-2.003-20.785-16.547-18.297-32.483
				c2.487-15.937,14.713-27.231,27.306-25.229S587.175,36.229,584.687,52.166z"/>
			<path fill="#FBFCB6" d="M584.469,52.087c-2.509,15.835-14.688,27.035-27.201,25.016c-12.516-2.02-20.628-16.495-18.12-32.33
				c2.508-15.835,14.688-27.036,27.202-25.016C578.864,21.777,586.977,36.251,584.469,52.087z"/>
			<path fill="#FBFCB7" d="M584.25,52.008c-2.528,15.734-14.66,26.839-27.097,24.803c-12.438-2.037-20.47-16.442-17.941-32.177
				c2.528-15.734,14.661-26.839,27.098-24.803S586.778,36.273,584.25,52.008z"/>
			<path fill="#FBFCB8" d="M584.032,51.929c-2.55,15.633-14.635,26.643-26.993,24.59c-12.359-2.053-20.312-16.39-17.763-32.023
				c2.548-15.633,14.634-26.643,26.993-24.59C578.628,21.959,586.581,36.296,584.032,51.929z"/>
			<path fill="#FBFCB9" d="M583.813,51.851c-2.569,15.532-14.608,26.446-26.889,24.377s-20.153-16.337-17.584-31.87
				c2.568-15.532,14.607-26.446,26.889-24.377C578.51,22.05,586.383,36.318,583.813,51.851z"/>
			<path fill="#FBFCBA" d="M583.595,51.772c-2.589,15.431-14.581,26.25-26.783,24.165c-12.203-2.085-19.996-16.285-17.407-31.716
				c2.59-15.431,14.582-26.25,26.785-24.165C578.392,22.141,586.185,36.34,583.595,51.772z"/>
			<path fill="#FBFCBB" d="M583.377,51.693c-2.61,15.33-14.556,26.054-26.68,23.952c-12.125-2.102-19.839-16.233-17.229-31.563
				c2.609-15.33,14.556-26.054,26.681-23.952C578.273,22.232,585.987,36.363,583.377,51.693z"/>
			<path fill="#FBFCBC" d="M583.158,51.614c-2.63,15.229-14.528,25.857-26.575,23.739c-12.047-2.118-19.681-16.181-17.05-31.41
				c2.63-15.229,14.529-25.857,26.576-23.739C578.155,22.323,585.789,36.385,583.158,51.614z"/>
			<path fill="#FBFCBD" d="M582.94,51.536c-2.651,15.127-14.503,25.661-26.472,23.526c-11.969-2.135-19.522-16.129-16.871-31.256
				c2.649-15.128,14.502-25.661,26.472-23.526C578.037,22.414,585.591,36.407,582.94,51.536z"/>
			<path fill="#FBFCBE" d="M582.722,51.457c-2.671,15.026-14.477,25.464-26.366,23.314c-11.892-2.151-19.365-16.077-16.694-31.104
				c2.671-15.026,14.477-25.464,26.367-23.313S585.393,36.43,582.722,51.457z"/>
			<path fill="#FBFCBF" d="M582.503,51.378c-2.691,14.925-14.449,25.268-26.262,23.101c-11.813-2.168-19.207-16.024-16.516-30.95
				c2.691-14.925,14.45-25.268,26.263-23.101S585.195,36.452,582.503,51.378z"/>
			<path fill="#FBFCC0" d="M582.285,51.299c-2.712,14.824-14.424,25.072-26.158,22.889c-11.734-2.184-19.049-15.972-16.337-30.797
				c2.711-14.824,14.424-25.072,26.158-22.888C577.683,22.687,584.997,36.474,582.285,51.299z"/>
			<path fill="#FBFCC1" d="M582.066,51.22c-2.732,14.723-14.397,24.875-26.054,22.676c-11.656-2.201-18.891-15.92-16.158-30.644
				c2.731-14.724,14.396-24.875,26.054-22.675C577.564,22.777,584.799,36.497,582.066,51.22z"/>
			<path fill="#FBFCC2" d="M581.849,51.142c-2.753,14.622-14.371,24.679-25.949,22.463c-11.579-2.217-18.734-15.868-15.981-30.49
				s14.371-24.679,25.95-22.462C577.446,22.868,584.602,36.519,581.849,51.142z"/>
			<path fill="#FBFCC3" d="M581.63,51.063c-2.773,14.521-14.345,24.483-25.845,22.25c-11.501-2.233-18.576-15.816-15.803-30.337
				c2.772-14.521,14.345-24.483,25.846-22.25C577.328,22.959,584.403,36.541,581.63,51.063z"/>
			<path fill="#FBFCC4" d="M581.411,50.984c-2.793,14.42-14.318,24.287-25.74,22.038c-11.423-2.25-18.418-15.764-15.624-30.184
				c2.793-14.42,14.318-24.287,25.741-22.037C577.21,23.05,584.205,36.563,581.411,50.984z"/>
			<path fill="#FBFCC5" d="M581.193,50.905c-2.814,14.319-14.292,24.09-25.637,21.824c-11.345-2.266-18.26-15.711-15.445-30.03
				c2.813-14.319,14.292-24.09,25.637-21.824C577.092,23.141,584.007,36.586,581.193,50.905z"/>
			<path fill="#FBFCC6" d="M580.975,50.826c-2.834,14.218-14.266,23.894-25.531,21.612c-11.267-2.283-18.103-15.659-15.269-29.877
				c2.834-14.218,14.266-23.894,25.532-21.611S583.81,36.608,580.975,50.826z"/>
			<path fill="#FBFCC7" d="M580.757,50.748c-2.855,14.117-14.239,23.697-25.428,21.399c-11.188-2.299-17.944-15.606-15.09-29.724
				c2.854-14.117,14.239-23.697,25.428-21.398C576.855,23.323,583.611,36.63,580.757,50.748z"/>
			<path fill="#FBFCC8" d="M580.538,50.669c-2.875,14.015-14.213,23.501-25.323,21.186c-11.11-2.315-17.786-15.554-14.911-29.57
				c2.874-14.016,14.213-23.501,25.323-21.186C576.737,23.414,583.413,36.653,580.538,50.669z"/>
			<path fill="#FBFCC9" d="M580.319,50.59c-2.896,13.915-14.187,23.305-25.218,20.974c-11.033-2.332-17.63-15.502-14.734-29.417
				c2.896-13.915,14.188-23.305,25.22-20.973S583.216,36.675,580.319,50.59z"/>
			<path fill="#FBFCCA" d="M580.102,50.511c-2.916,13.813-14.16,23.108-25.114,20.761c-10.955-2.348-17.472-15.45-14.556-29.264
				c2.915-13.814,14.16-23.108,25.115-20.761C576.501,23.596,583.018,36.697,580.102,50.511z"/>
			<path fill="#FBFCCB" d="M579.883,50.433c-2.937,13.712-14.134,22.912-25.01,20.548c-10.877-2.365-17.313-15.398-14.377-29.11
				c2.936-13.713,14.134-22.912,25.011-20.548C576.383,23.687,582.819,36.719,579.883,50.433z"/>
			<path fill="#FBFCCC" d="M579.665,50.354c-2.957,13.611-14.108,22.716-24.906,20.335c-10.798-2.381-17.155-15.346-14.198-28.957
				c2.956-13.612,14.107-22.716,24.906-20.335C576.265,23.778,582.621,36.742,579.665,50.354z"/>
			<path fill="#FBFCCD" d="M579.446,50.275c-2.978,13.51-14.081,22.52-24.801,20.123C543.925,68,537.647,55.104,540.624,41.593
				c2.977-13.51,14.082-22.519,24.803-20.122C576.146,23.869,582.424,36.764,579.446,50.275z"/>
			<path fill="#FBFCCE" d="M579.228,50.196c-2.997,13.409-14.055,22.323-24.696,19.91c-10.643-2.414-16.84-15.241-13.843-28.651
				c2.997-13.409,14.055-22.323,24.697-19.909S582.226,36.786,579.228,50.196z"/>
			<path fill="#FBFCCF" d="M579.01,50.117c-3.018,13.308-14.029,22.127-24.593,19.697c-10.564-2.431-16.682-15.189-13.664-28.498
				c3.017-13.308,14.028-22.126,24.593-19.697C575.91,24.05,582.027,36.809,579.01,50.117z"/>
			<path fill="#FBFCD0" d="M578.791,50.039c-3.038,13.207-14.002,21.93-24.488,19.484c-10.486-2.447-16.524-15.137-13.485-28.344
				c3.037-13.207,14.002-21.93,24.488-19.484S581.83,36.831,578.791,50.039z"/>
			<path fill="#FBFCD1" d="M578.573,49.959c-3.059,13.106-13.977,21.734-24.384,19.271c-10.409-2.463-16.367-15.084-13.309-28.19
				s13.977-21.734,24.385-19.271S581.632,36.853,578.573,49.959z"/>
			<path fill="#FBFCD2" d="M578.354,49.881c-3.079,13.005-13.949,21.538-24.279,19.059c-10.331-2.479-16.209-15.032-13.13-28.037
				c3.078-13.005,13.95-21.538,24.28-19.059S581.434,36.875,578.354,49.881z"/>
			<path fill="#FBFCD3" d="M578.136,49.802c-3.099,12.903-13.923,21.341-24.175,18.846c-10.252-2.496-16.051-14.98-12.951-27.884
				c3.099-12.904,13.923-21.342,24.176-18.846C575.438,24.414,581.235,36.898,578.136,49.802z"/>
			<path fill="#FBFCD4" d="M577.918,49.723c-3.12,12.803-13.897,21.145-24.071,18.633c-10.174-2.512-15.893-14.928-12.772-27.731
				c3.119-12.803,13.896-21.145,24.071-18.633C575.319,24.505,581.038,36.92,577.918,49.723z"/>
			<path fill="#FBFCD5" d="M577.699,49.645c-3.14,12.702-13.87,20.949-23.966,18.42c-10.097-2.529-15.735-14.875-12.596-27.578
				c3.14-12.702,13.871-20.949,23.968-18.42C575.201,24.596,580.84,36.942,577.699,49.645z"/>
			<path fill="#FBFCD6" d="M577.481,49.566c-3.161,12.6-13.845,20.752-23.862,18.208c-10.019-2.545-15.577-14.823-12.417-27.424
				c3.16-12.601,13.845-20.752,23.863-18.207C575.083,24.687,580.642,36.965,577.481,49.566z"/>
			<path fill="#FBFCD7" d="M577.263,49.487c-3.181,12.5-13.818,20.556-23.758,17.995c-9.94-2.562-15.42-14.771-12.238-27.271
				c3.18-12.5,13.817-20.556,23.758-17.995S580.443,36.987,577.263,49.487z"/>
			<path fill="#FBFCD8" d="M577.044,49.408c-3.201,12.398-13.791,20.36-23.652,17.782c-9.863-2.578-15.263-14.719-12.061-27.118
				c3.2-12.398,13.791-20.36,23.653-17.782C574.847,24.869,580.246,37.009,577.044,49.408z"/>
			<path fill="#FBFCD9" d="M576.826,49.33c-3.222,12.297-13.766,20.163-23.549,17.569c-9.784-2.595-15.104-14.667-11.883-26.964
				s13.766-20.164,23.55-17.569S580.048,37.032,576.826,49.33z"/>
			<path fill="#FBFCDA" d="M576.607,49.25c-3.242,12.196-13.738,19.967-23.444,17.357c-9.706-2.611-14.946-14.615-11.704-26.811
				C544.7,27.6,555.198,19.829,564.904,22.44S579.85,37.054,576.607,49.25z"/>
			<path fill="#FBFCDB" d="M576.39,49.172c-3.263,12.095-13.713,19.771-23.341,17.144c-9.628-2.627-14.788-14.563-11.525-26.658
				c3.262-12.095,13.713-19.771,23.341-17.144C574.492,25.142,579.652,37.076,576.39,49.172z"/>
			<path fill="#FBFCDC" d="M576.171,49.093c-3.283,11.994-13.687,19.575-23.235,16.932c-9.551-2.644-14.631-14.51-11.349-26.505
				c3.282-11.994,13.687-19.574,23.237-16.931C574.374,25.232,579.454,37.099,576.171,49.093z"/>
			<path fill="#FBFCDD" d="M575.953,49.014c-3.304,11.893-13.66,19.378-23.132,16.718c-9.473-2.66-14.474-14.458-11.17-26.351
				c3.303-11.893,13.66-19.378,23.133-16.718C574.255,25.323,579.256,37.121,575.953,49.014z"/>
			<path fill="#FBFCDE" d="M575.734,48.936c-3.324,11.792-13.634,19.182-23.027,16.505c-9.395-2.677-14.315-14.406-10.991-26.198
				c3.323-11.792,13.634-19.182,23.028-16.505C574.137,25.414,579.058,37.143,575.734,48.936z"/>
			<path fill="#FBFCDF" d="M575.516,48.856c-3.344,11.691-13.607,18.985-22.923,16.293c-9.316-2.693-14.157-14.354-10.813-26.044
				c3.343-11.691,13.607-18.985,22.923-16.292S578.86,37.166,575.516,48.856z"/>
			<path fill="#FBFCE0" d="M575.298,48.778c-3.365,11.589-13.581,18.789-22.818,16.08c-9.238-2.709-14-14.301-10.636-25.891
				s13.581-18.789,22.819-16.08C573.9,25.596,578.662,37.188,575.298,48.778z"/>
			<path fill="#FBFCE1" d="M575.079,48.699c-3.385,11.488-13.555,18.592-22.714,15.867c-9.16-2.726-13.842-14.249-10.457-25.738
				c3.384-11.489,13.555-18.593,22.715-15.867C573.782,25.687,578.464,37.21,575.079,48.699z"/>
			<path fill="#FBFCE2" d="M574.861,48.62c-3.406,11.388-13.529,18.396-22.61,15.655c-9.082-2.742-13.684-14.197-10.278-25.584
				c3.404-11.388,13.528-18.396,22.61-15.654C573.664,25.778,578.267,37.232,574.861,48.62z"/>
			<path fill="#FBFCE3" d="M574.643,48.542c-3.426,11.286-13.502,18.2-22.506,15.442c-9.004-2.759-13.525-14.145-10.1-25.432
				c3.425-11.286,13.502-18.2,22.506-15.441C573.546,25.869,578.068,37.254,574.643,48.542z"/>
			<path fill="#FCFCE4" d="M574.424,48.463c-3.446,11.185-13.476,18.003-22.4,15.229c-8.927-2.775-13.369-14.092-9.923-25.278
				c3.445-11.185,13.476-18.003,22.402-15.229C573.428,25.96,577.87,37.277,574.424,48.463z"/>
			<path fill="#FCFCE5" d="M574.206,48.384c-3.467,11.084-13.449,17.808-22.297,15.017c-8.849-2.792-13.211-14.041-9.744-25.125
				c3.466-11.084,13.449-17.807,22.298-15.016C573.31,26.051,577.672,37.299,574.206,48.384z"/>
			<path fill="#FCFCE6" d="M573.987,48.305c-3.486,10.983-13.423,17.611-22.192,14.804c-8.77-2.808-13.053-13.988-9.565-24.972
				c3.486-10.983,13.423-17.611,22.193-14.803C573.191,26.142,577.475,37.321,573.987,48.305z"/>
			<path fill="#FCFCE7" d="M573.77,48.227c-3.508,10.882-13.397,17.415-22.089,14.591c-8.691-2.825-12.895-13.936-9.387-24.818
				c3.506-10.882,13.396-17.415,22.089-14.59C573.073,26.232,577.276,37.344,573.77,48.227z"/>
			<path fill="#FCFCE8" d="M573.551,48.147c-3.527,10.781-13.37,17.218-21.983,14.378c-8.614-2.841-12.737-13.884-9.21-24.665
				s13.371-17.218,21.984-14.378C572.955,26.324,577.078,37.366,573.551,48.147z"/>
			<path fill="#FCFCE9" d="M573.332,48.069c-3.548,10.68-13.344,17.022-21.879,14.166c-8.536-2.857-12.579-13.832-9.031-24.512
				c3.547-10.68,13.344-17.022,21.88-14.165C572.837,26.415,576.881,37.388,573.332,48.069z"/>
			<path fill="#FCFCEA" d="M573.114,47.99c-3.568,10.579-13.318,16.826-21.775,13.953c-8.458-2.874-12.421-13.779-8.853-24.358
				c3.567-10.579,13.317-16.825,21.775-13.952C572.719,26.505,576.683,37.411,573.114,47.99z"/>
			<path fill="#FCFCEB" d="M572.896,47.911c-3.589,10.478-13.291,16.629-21.67,13.74c-8.381-2.89-12.265-13.727-8.676-24.205
				c3.589-10.478,13.292-16.629,21.672-13.739C572.601,26.596,576.484,37.433,572.896,47.911z"/>
			<path fill="#FCFCEC" d="M572.678,47.833c-3.609,10.376-13.266,16.433-21.566,13.527c-8.302-2.907-12.106-13.675-8.497-24.052
				c3.608-10.376,13.266-16.433,21.567-13.526C572.482,26.688,576.286,37.455,572.678,47.833z"/>
			<path fill="#FCFCED" d="M572.459,47.753c-3.63,10.276-13.239,16.237-21.462,13.314c-8.224-2.923-11.948-13.623-8.318-23.898
				c3.629-10.275,13.238-16.236,21.463-13.314C572.364,26.778,576.089,37.478,572.459,47.753z"/>
			<path fill="#FCFCEE" d="M572.24,47.675c-3.649,10.174-13.212,16.04-21.357,13.102c-8.146-2.939-11.79-13.57-8.14-23.745
				c3.648-10.174,13.212-16.041,21.358-13.101C572.246,26.869,575.891,37.5,572.24,47.675z"/>
			<path fill="#FCFCEF" d="M572.022,47.596c-3.671,10.073-13.187,15.844-21.253,12.889c-8.068-2.956-11.633-13.518-7.963-23.592
				s13.187-15.844,21.255-12.889C572.128,26.96,575.692,37.522,572.022,47.596z"/>
			<path fill="#FCFCF0" d="M571.804,47.517c-3.69,9.972-13.159,15.648-21.148,12.676c-7.99-2.972-11.475-13.466-7.784-23.438
				s13.16-15.648,21.149-12.676C572.01,27.051,575.495,37.544,571.804,47.517z"/>
			<path fill="#FCFCF1" d="M571.586,47.438c-3.712,9.871-13.134,15.451-21.045,12.463c-7.912-2.989-11.316-13.414-7.605-23.286
				c3.71-9.871,13.134-15.451,21.045-12.463C571.892,27.142,575.297,37.567,571.586,47.438z"/>
			<path fill="#FCFCF2" d="M571.367,47.36c-3.731,9.77-13.107,15.255-20.94,12.25c-7.834-3.005-11.159-13.362-7.427-23.132
				c3.73-9.77,13.106-15.255,20.94-12.25C571.773,27.233,575.099,37.589,571.367,47.36z"/>
			<path fill="#FCFCF3" d="M571.148,47.281c-3.752,9.669-13.08,15.059-20.835,12.038c-7.756-3.022-11.002-13.31-7.25-22.979
				c3.751-9.669,13.081-15.059,20.837-12.037C571.655,27.324,574.9,37.611,571.148,47.281z"/>
			<path fill="#FCFCF4" d="M570.931,47.202c-3.772,9.568-13.055,14.862-20.731,11.825c-7.678-3.038-10.844-13.257-7.071-22.826
				c3.771-9.568,13.055-14.862,20.732-11.825C571.537,27.415,574.703,37.634,570.931,47.202z"/>
			<path fill="#FCFCF5" d="M570.712,47.124c-3.793,9.467-13.028,14.666-20.627,11.612c-7.6-3.055-10.686-13.205-6.893-22.672
				c3.792-9.467,13.028-14.666,20.628-11.612C571.419,27.505,574.505,37.656,570.712,47.124z"/>
			<path fill="#FCFCF6" d="M570.494,47.044c-3.813,9.366-13.002,14.47-20.523,11.399c-7.521-3.071-10.527-13.152-6.714-22.519
				c3.812-9.366,13.001-14.47,20.523-11.399C571.301,27.597,574.307,37.678,570.494,47.044z"/>
			<path fill="#FCFCF7" d="M570.275,46.966c-3.834,9.265-12.976,14.273-20.418,11.187c-7.444-3.087-10.37-13.1-6.537-22.365
				c3.833-9.265,12.976-14.273,20.42-11.187C571.183,27.688,574.109,37.701,570.275,46.966z"/>
			<path fill="#FCFCF8" d="M570.057,46.887c-3.854,9.164-12.948,14.077-20.313,10.974c-7.366-3.104-10.212-13.048-6.358-22.212
				s12.949-14.077,20.314-10.974C571.064,27.778,573.911,37.723,570.057,46.887z"/>
			<path fill="#FCFCF9" d="M569.839,46.808c-3.875,9.063-12.923,13.88-20.21,10.761c-7.287-3.12-10.055-12.996-6.18-22.059
				c3.873-9.063,12.923-13.88,20.21-10.761S573.713,37.745,569.839,46.808z"/>
			<path fill="#FCFCFA" d="M569.62,46.729c-3.895,8.961-12.896,13.684-20.105,10.548c-7.209-3.137-9.896-12.944-6.001-21.906
				c3.894-8.961,12.896-13.684,20.105-10.548C570.828,27.96,573.515,37.768,569.62,46.729z"/>
			
				<ellipse transform="matrix(0.9146 0.4043 -0.4043 0.9146 64.069 -221.5058)" fill="#FCFCFB" cx="556.49" cy="40.942" rx="14.118" ry="17.54"/>
			
				<ellipse transform="matrix(0.9122 0.4098 -0.4098 0.9122 65.6107 -224.4507)" fill="#FCFCFC" cx="556.413" cy="40.834" rx="14.001" ry="17.388"/>
			<path fill="#FDFDFD" d="M567.361,44.95c-3.02,7.934-10.643,12.389-17.027,9.951c-6.385-2.439-9.113-10.849-6.094-18.783
				c3.018-7.934,10.643-12.389,17.027-9.95S570.381,37.015,567.361,44.95z"/>
			<path fill="#FEFEFE" d="M565.539,43.327c-2.103,7.109-8.441,11.487-14.157,9.779c-5.716-1.709-8.646-8.857-6.544-15.967
				s8.441-11.487,14.158-9.778C564.712,29.07,567.642,36.218,565.539,43.327z"/>
			<path fill="#FEFEFE" d="M563.717,41.705c-1.186,6.284-6.239,10.585-11.287,9.607c-5.048-0.979-8.18-6.867-6.994-13.151
				c1.188-6.284,6.24-10.584,11.289-9.605C561.771,29.533,564.902,35.42,563.717,41.705z"/>
			<path fill="#FFFFFF" d="M561.895,40.083c-0.27,5.459-4.038,9.683-8.418,9.435c-4.379-0.249-7.712-4.876-7.442-10.335
				c0.271-5.458,4.039-9.682,8.419-9.433C558.832,29.997,562.164,34.624,561.895,40.083z"/>
		</g>
		<g>
			<path fill="#FFFFFF" d="M569.306,28.818c-0.339,1.865-1.798,3.165-3.257,2.906c-1.459-0.26-2.366-1.983-2.026-3.847
				c0.341-1.864,1.798-3.165,3.257-2.905S569.646,26.955,569.306,28.818z"/>
		</g>
		<g>
			<path fill="#F7E51E" d="M587.049,153.534c-2.262,0.649-4.598,8.242-4.326,10.444c0.357,2.903,3.431,0.923,5.096,0.399
				c1.418-0.445,2.95,0.225,4.482,0.345c1.514,0.12,3.745-1.37,4.965-0.507c1.396-2.317-3.538-6.41-4.94-8.01
				c-0.749-0.854-1.867-2.744-3.004-3.091C588.359,152.821,587.986,153.367,587.049,153.534"/>
		</g>
	</g>
	<g>
		<g>
			<path fill="none" d="M585.473,153.859c1.751-0.751,3.502-0.601,5.253-0.45"/>
		</g>
		<g>
			<path fill="#C1272D" d="M585.473,155.109c1.715-0.674,3.449-0.604,5.253-0.45c-0.052-0.004,0.089-2.492,0-2.5
				c-1.804-0.153-3.538-0.224-5.253,0.45C585.173,152.727,585.74,155.004,585.473,155.109L585.473,155.109z"/>
		</g>
	</g>
</g>
</svg>