<svg width="150" height="420" xmlns="http://www.w3.org/2000/svg">
 <g>
  <g id="svg_1292">
   <g id="svg_1293">
    <g id="svg_1294">
     <path id="svg_1295" d="m71.07001,153.08099c-25.55402,11.875 -41.78302,39.17999 -28.953,65.77699c16.47003,34.767 55.65302,31.506 79.56202,56.59401c16.31596,15.73999 24.79498,50.151 14.87,70.73001c-9.97004,21.578 -40.65101,36.229 -30.81799,62.69199" fill="none"/>
    </g>
    <g id="svg_1296">
     <path id="svg_1297" d="m71.07,151.83099c-18.74,8.964 -33.512,26.35701 -33.452,47.87201c0.059,21.461 13.938,37.983 32.085,47.77699c18.55299,10.01302 38.647,15.192 53.63499,30.91499c15.233,15.98001 22.37,44.94101 13.70801,65.461c-5.901,13.97803 -18.884,23.50302 -27.205,35.89401c-6.139,9.142 -7.734,19.99701 -4.11,30.375c-0.257,-0.73599 0.26199,-1.75201 0,-2.5c-7.622,-21.82599 15.673,-37.341 26.66,-53.009c10.06799,-14.358 10.00499,-33.13998 5.91299,-49.57199c-5.53101,-22.21701 -20.259,-37.38602 -40.454,-47.18402c-18.686,-9.06499 -39.228,-14.99498 -51.604,-32.95898c-8.622,-12.517 -10.783,-27.256 -4.897,-41.351c5.503,-13.181 17.069,-23.168 29.722,-29.22c0.339,-0.162 -0.309,-2.35201 -0.001,-2.49901l0,0l0,0l0,0z" fill="#C1272D"/>
    </g>
   </g>
   <g id="svg_1298">
    <g id="svg_1299">
     <ellipse id="svg_1300" ry="75.804" rx="61.854" cy="79.356" cx="65.854" fill="#F7E521"/>
     <ellipse id="svg_1301" ry="74.892" rx="61.046" cy="78.779" cx="65.315" fill="#F7E622"/>
     <ellipse id="svg_1302" ry="73.98" rx="60.238" cy="78.203" cx="64.775" fill="#F7E723"/>
     <ellipse id="svg_1303" ry="73.068" rx="59.43" cy="77.625" cx="64.236" fill="#F7E724"/>
     <ellipse id="svg_1304" ry="72.157" rx="58.623" cy="77.048" cx="63.697" fill="#F7E825"/>
     <ellipse id="svg_1305" ry="71.245" rx="57.814" cy="76.472" cx="63.157" fill="#F7E926"/>
     <ellipse id="svg_1306" ry="70.333" rx="57.006" cy="75.895" cx="62.618" fill="#F7EA27"/>
     <ellipse id="svg_1307" ry="69.421" rx="56.198" cy="75.317" cx="62.078" fill="#F7EB28"/>
     <ellipse id="svg_1308" ry="68.51" rx="55.39" cy="74.741" cx="61.539" fill="#F7EC29"/>
     <ellipse id="svg_1309" ry="67.598" rx="54.582" cy="74.164" cx="60.999" fill="#F7EC2A"/>
     <ellipse id="svg_1310" ry="66.686" rx="53.774" cy="73.586" cx="60.459" fill="#F7ED2B"/>
     <ellipse id="svg_1311" ry="65.774" rx="52.966" cy="73.01" cx="59.92" fill="#F7EE2C"/>
     <ellipse id="svg_1312" ry="64.862" rx="52.158" cy="72.433" cx="59.381" fill="#F7EF2D"/>
     <ellipse id="svg_1313" ry="63.951" rx="51.35" cy="71.855" cx="58.841" fill="#F7F02E"/>
     <ellipse id="svg_1314" ry="63.038" rx="50.542" cy="71.279" cx="58.302" fill="#F8F02E"/>
     <ellipse id="svg_1315" ry="62.126" rx="49.733" cy="70.702" cx="57.763" fill="#F8F12F"/>
     <ellipse id="svg_1316" ry="61.215" rx="48.925" cy="70.125" cx="57.223" fill="#F8F230"/>
     <ellipse id="svg_1317" ry="60.303" rx="48.118" cy="69.548" cx="56.684" fill="#F8F331"/>
     <ellipse id="svg_1318" ry="59.391" rx="47.31" cy="68.971" cx="56.145" fill="#F8F432"/>
     <ellipse id="svg_1319" ry="58.479" rx="46.501" cy="68.394" cx="55.605" fill="#F8F433"/>
     <ellipse id="svg_1320" ry="57.567" rx="45.693" cy="67.817" cx="55.065" fill="#F8F534"/>
     <ellipse id="svg_1321" ry="56.656" rx="44.885" cy="67.24" cx="54.526" fill="#F8F635"/>
     <ellipse id="svg_1322" ry="55.744" rx="44.077" cy="66.663" cx="53.986" fill="#F8F736"/>
     <ellipse id="svg_1323" ry="54.832" rx="43.269" cy="66.086" cx="53.447" fill="#F8F837"/>
     <ellipse id="svg_1324" ry="53.92" rx="42.461" cy="65.509" cx="52.908" fill="#F8F938"/>
     <ellipse id="svg_1325" ry="53.008" rx="41.653" cy="64.932" cx="52.368" fill="#F8F939"/>
     <ellipse id="svg_1326" ry="52.096" rx="40.845" cy="64.355" cx="51.829" fill="#F8FA3A"/>
     <ellipse id="svg_1327" ry="51.185" rx="40.037" cy="63.778" cx="51.289" fill="#F8FB3B"/>
     <ellipse id="svg_1328" ry="51.001" rx="39.896" cy="64.05722" cx="51.21378" fill="#F8FB3C" transform="matrix(1,0.000746579,-0.000746579,1,0.0462,-0.4264) "/>
     <ellipse id="svg_1329" ry="50.819" rx="39.755" cy="64.34099" cx="51.13917" fill="#F8FB3D" transform="matrix(1,0.0015,-0.0015,1,0.0925,-0.8522) "/>
     <ellipse id="svg_1330" ry="50.636" rx="39.613" cy="64.59598" cx="51.06492" fill="#F8FB3E" transform="matrix(1,0.0022,-0.0022,1,0.1396,-1.2845) "/>
     <path id="svg_1331" d="m90.453,63.463c-0.08203,27.864 -17.82001,50.399 -39.62,50.333c-21.79901,-0.06599 -39.40601,-22.708 -39.32404,-50.571c0.08105,-27.865 17.82001,-50.399 39.62006,-50.334c21.79895,0.066 39.40497,22.707 39.32398,50.572z" fill="#F8FB3F"/>
     <path id="svg_1332" d="m90.234,63.384c-0.102,27.763 -17.794,50.203 -39.516,50.121c-21.721,-0.082 -39.248,-22.656 -39.146,-50.418c0.102,-27.764 17.794,-50.203 39.515,-50.121c21.723,0.082 39.25,22.654 39.147,50.418l0,0z" fill="#F8FB40"/>
     <path id="svg_1333" d="m90.01703,63.305c-0.12299,27.662 -17.76898,50.006 -39.41101,49.908c-21.64398,-0.099 -39.091,-22.604 -38.96899,-50.265c0.12299,-27.663 17.76898,-50.006 39.41101,-49.908c21.64294,0.099 39.09094,22.603 38.96899,50.265z" fill="#F8FB41"/>
     <path id="svg_1334" d="m89.79797,63.227c-0.14301,27.561 -17.74104,49.81 -39.30701,49.695c-21.565,-0.115 -38.93298,-22.55099 -38.78998,-50.112c0.14301,-27.562 17.74099,-49.81 39.30702,-49.695s38.93201,22.55 38.78997,50.112z" fill="#F8FB42"/>
     <path id="svg_1335" d="m89.57898,63.147c-0.16302,27.459 -17.71503,49.614 -39.20203,49.483s-38.77399,-22.499 -38.61096,-49.958c0.16296,-27.46 17.71497,-49.614 39.20197,-49.482s38.77405,22.497 38.61102,49.957z" fill="#F8FB43"/>
     <path id="svg_1336" d="m89.361,63.069c-0.184,27.358 -17.689,49.417 -39.099,49.27c-21.409,-0.14799 -38.616,-22.447 -38.433,-49.805c0.183,-27.359 17.688,-49.417 39.098,-49.27c21.41,0.148 38.618,22.445 38.434,49.805l0,0z" fill="#F8FB44"/>
     <path id="svg_1337" d="m89.14301,62.99c-0.20398,27.257 -17.66199,49.222 -38.99298,49.057c-21.33099,-0.16399 -38.45898,-22.394 -38.25604,-49.651c0.20404,-27.258 17.66302,-49.221 38.99402,-49.057s38.45898,22.393 38.255,49.651z" fill="#F8FB45"/>
     <path id="svg_1338" d="m88.92499,62.911c-0.22498,27.156 -17.63702,49.025 -38.89001,48.844s-38.302,-22.342 -38.07697,-49.498c0.22498,-27.157 17.63599,-49.025 38.88995,-48.845c21.25305,0.181 38.30005,22.342 38.07703,49.499z" fill="#F8FB46"/>
     <path id="svg_1339" d="m88.70599,62.833c-0.245,27.055 -17.60999,48.829 -38.78497,48.631c-21.17505,-0.197 -38.14403,-22.28999 -37.89801,-49.345c0.24396,-27.056 17.60901,-48.828 38.78497,-48.631c21.17401,0.197 38.14301,22.288 37.89801,49.345z" fill="#F8FB47"/>
     <path id="svg_1340" d="m88.487,62.753c-0.26501,26.954 -17.58301,48.632 -38.68097,48.419c-21.09705,-0.213 -37.98505,-22.238 -37.72003,-49.192c0.26501,-26.955 17.58301,-48.632 38.67999,-48.418c21.09802,0.213 37.987,22.237 37.72101,49.191z" fill="#F8FB48"/>
     <path id="svg_1341" d="m88.27002,62.675c-0.28601,26.853 -17.55798,48.436 -38.57599,48.206c-21.02002,-0.23 -37.828,-22.186 -37.54303,-49.039c0.28601,-26.854 17.55804,-48.436 38.57599,-48.206c21.01898,0.23 37.828,22.185 37.54303,49.039z" fill="#F8FB49"/>
     <path id="svg_1342" d="m88.05103,62.596c-0.30597,26.752 -17.53003,48.239 -38.47198,47.993s-37.66998,-22.133 -37.36401,-48.885c0.30603,-26.753 17.53101,-48.24 38.47198,-47.993c20.94098,0.246 37.66901,22.132 37.36401,48.885z" fill="#F8FB4A"/>
     <path id="svg_1343" d="m87.833,62.517c-0.327,26.651 -17.505,48.043 -38.368,47.781c-20.862,-0.26299 -37.512,-22.08099 -37.186,-48.73199c0.326,-26.652 17.504,-48.043 38.367,-47.781s37.513,22.081 37.187,48.732l0,0l0,0z" fill="#F8FB4B"/>
     <path id="svg_1344" d="m87.614,62.438c-0.347,26.55 -17.479,47.847 -38.263,47.568c-20.785,-0.279 -37.354,-22.029 -37.009,-48.579c0.347,-26.551 17.479,-47.847 38.264,-47.568s37.355,22.029 37.008,48.579l0,0z" fill="#F8FB4C"/>
     <path id="svg_1345" d="m87.396,62.36c-0.36597,26.448 -17.451,47.65 -38.15802,47.355c-20.70697,-0.296 -37.19696,-21.977 -36.82996,-48.425c0.36694,-26.45 17.45197,-47.651 38.159,-47.355c20.70599,0.295 37.19598,21.975 36.82898,48.425z" fill="#F8FB4D"/>
     <path id="svg_1346" d="m87.178,62.281c-0.388,26.348 -17.426,47.455 -38.055,47.14301s-37.039,-21.925 -36.651,-48.272c0.388,-26.349 17.426,-47.455 38.055,-47.143s37.037,21.924 36.651,48.272l0,0l0,0z" fill="#F8FB4E"/>
     <path id="svg_1347" d="m86.959,62.202c-0.407,26.247 -17.399,47.258 -37.95,46.93c-20.551,-0.329 -36.881,-21.873 -36.4731,-48.119c0.4071,-26.247 17.3981,-47.258 37.9501,-46.929c20.551,0.328 36.881,21.871 36.473,48.118l0,0z" fill="#F8FB4F"/>
     <path id="svg_1348" d="m86.741,62.124c-0.429,26.145 -17.373,47.062 -37.846,46.717c-20.474,-0.345 -36.724,-21.82 -36.2959,-47.966c0.4289,-26.146 17.3729,-47.062 37.8469,-46.717c20.473,0.344 36.723,21.819 36.295,47.966l0,0z" fill="#F8FB50"/>
     <path id="svg_1349" d="m86.52197,62.044c-0.44801,26.044 -17.34698,46.865 -37.74103,46.504c-20.396,-0.361 -36.565,-21.768 -36.117,-47.813c0.44806,-26.045 17.34705,-46.865 37.74103,-46.504c20.39606,0.363 36.56604,21.769 36.117,47.813z" fill="#F8FB51"/>
     <path id="svg_1350" d="m86.30402,61.966c-0.46899,25.943 -17.31898,46.669 -37.63702,46.291c-20.31598,-0.37701 -36.40697,-21.715 -35.93798,-47.659c0.46899,-25.944 17.32,-46.669 37.63702,-46.291c20.31695,0.378 36.40697,21.714 35.93798,47.659z" fill="#F8FB52"/>
     <path id="svg_1351" d="m86.086,61.887c-0.48901,25.842 -17.29401,46.473 -37.53302,46.079c-20.23798,-0.394 -36.24896,-21.663 -35.75995,-47.505c0.48895,-25.843 17.29395,-46.473 37.53198,-46.079c20.23901,0.393 36.25,21.662 35.76099,47.505z" fill="#F8FB53"/>
     <path id="svg_1352" d="m85.867,61.808c-0.50999,25.741 -17.268,46.276 -37.428,45.866c-20.161,-0.41 -36.093,-21.611 -35.583,-47.35201c0.51,-25.742 17.268,-46.276 37.429,-45.866c20.161,0.41 36.092,21.61 35.582,47.352l0,0l0,0z" fill="#F9FB54"/>
     <path id="svg_1353" d="m85.649,61.729c-0.53,25.64 -17.241,46.08 -37.324,45.653s-35.935,-21.55901 -35.404,-47.19901c0.53,-25.641 17.241,-46.08 37.324,-45.653c20.083,0.428 35.934,21.558 35.404,47.199l0,0l0,0z" fill="#F9FB55"/>
     <path id="svg_1354" d="m85.431,61.65c-0.551,25.539 -17.215,45.884 -37.2199,45.43999s-35.776,-21.507 -35.226,-47.046c0.5499,-25.54 17.2149,-45.883 37.2199,-45.44s35.776,21.507 35.226,47.046l0,0l0,0z" fill="#F9FB56"/>
     <path id="svg_1355" d="m85.21198,61.572c-0.57001,25.438 -17.188,45.687 -37.11499,45.228c-19.927,-0.46001 -35.61804,-21.455 -35.047,-46.893c0.57001,-25.438 17.18799,-45.687 37.11499,-45.228c19.927,0.46 35.61804,21.454 35.047,46.893z" fill="#F9FB57"/>
     <path id="svg_1356" d="m84.994,61.493c-0.592,25.336 -17.162,45.491 -37.011,45.015s-35.461,-21.402 -34.87,-46.739c0.592,-25.337 17.162,-45.491 37.012,-45.015c19.849,0.476 35.46,21.401 34.869,46.739l0,0z" fill="#F9FB58"/>
     <path id="svg_1357" d="m84.77502,61.414c-0.61102,25.236 -17.13599,45.295 -36.90601,44.802s-35.30298,-21.35001 -34.69098,-46.586c0.61096,-25.236 17.13599,-45.294 36.90601,-44.802c19.77094,0.493 35.30396,21.35 34.69098,46.586z" fill="#F9FB59"/>
     <path id="svg_1358" d="m84.55798,61.335c-0.633,25.135 -17.10999,45.098 -36.80298,44.589c-19.69202,-0.509 -35.146,-21.298 -34.513,-46.433c0.63196,-25.135 17.10895,-45.098 36.802,-44.589c19.69299,0.51 35.14502,21.298 34.51398,46.433z" fill="#F9FB5A"/>
     <path id="svg_1359" d="m84.33899,61.257c-0.65198,25.033 -17.08301,44.902 -36.69702,44.376c-19.61499,-0.525 -34.98798,-21.246 -34.33496,-46.279c0.65198,-25.034 17.08301,-44.902 36.69696,-44.376c19.61505,0.525 34.98706,21.244 34.33502,46.279z" fill="#F9FB5B"/>
     <path id="svg_1360" d="m84.12,61.178c-0.67297,24.933 -17.05701,44.706 -36.59302,44.164c-19.53699,-0.542 -34.83002,-21.194 -34.15698,-46.126c0.67303,-24.934 17.05701,-44.706 36.59399,-44.164c19.53699,0.542 34.82904,21.193 34.15601,46.126z" fill="#F9FB5C"/>
     <path id="svg_1361" d="m83.90198,61.099c-0.69299,24.831 -17.02997,44.509 -36.48901,43.951c-19.45898,-0.55901 -34.672,-21.14201 -33.979,-45.973c0.69299,-24.833 17.03003,-44.509 36.48901,-43.951s34.67303,21.141 33.979,45.973z" fill="#F9FB5D"/>
     <path id="svg_1362" d="m83.68402,61.021c-0.71399,24.73 -17.00403,44.313 -36.38501,43.738c-19.38098,-0.575 -34.51398,-21.089 -33.79999,-45.82c0.71301,-24.731 17.00397,-44.313 36.38501,-43.738s34.51294,21.088 33.79999,45.82z" fill="#F9FB5E"/>
     <path id="svg_1363" d="m83.466,60.941c-0.73402,24.629 -16.979,44.117 -36.28003,43.525c-19.30298,-0.591 -34.35596,-21.037 -33.62299,-45.666c0.73401,-24.63 16.979,-44.116 36.28101,-43.525c19.302,0.592 34.35498,21.037 33.62201,45.666z" fill="#F9FB5F"/>
     <path id="svg_1364" d="m83.247,60.863c-0.755,24.528 -16.951,43.92 -36.176,43.313s-34.198,-20.984 -33.444,-45.513c0.755,-24.529 16.952,-43.92 36.177,-43.313c19.223,0.608 34.198,20.984 33.443,45.513l0,0z" fill="#F9FB60"/>
     <path id="svg_1365" d="m83.02802,60.784c-0.77399,24.427 -16.925,43.724 -36.07098,43.1s-34.04102,-20.932 -33.26599,-45.359c0.77399,-24.428 16.92499,-43.724 36.07098,-43.1c19.14697,0.623 34.04199,20.931 33.26599,45.359z" fill="#F9FB61"/>
     <path id="svg_1366" d="m82.811,60.705c-0.795,24.326 -16.89899,43.527 -35.9681,42.887s-33.8829,-20.88 -33.0869,-45.206c0.795,-24.327 16.898,-43.527 35.9669,-42.887s33.8821,20.879 33.0881,45.206l0,0z" fill="#F9FB62"/>
     <path id="svg_1367" d="m82.592,60.626c-0.815,24.225 -16.872,43.331 -35.862,42.674c-18.991,-0.65701 -33.726,-20.828 -32.91,-45.053c0.815,-24.226 16.873,-43.331 35.863,-42.674s33.724,20.828 32.909,45.053l0,0z" fill="#F9FB63"/>
     <path id="svg_1368" d="m82.37402,60.547c-0.83601,24.124 -16.84698,43.135 -35.75903,42.462c-18.91296,-0.673 -33.56696,-20.776 -32.73096,-44.899c0.836,-24.125 16.84698,-43.13499 35.75897,-42.462s33.56702,20.775 32.73102,44.899z" fill="#F9FB64"/>
     <path id="svg_1369" d="m82.15503,60.469c-0.85602,24.022 -16.81897,42.938 -35.65399,42.249c-18.83398,-0.69 -33.409,-20.724 -32.55298,-44.747c0.85596,-24.023 16.81897,-42.938 35.65399,-42.249c18.83496,0.69 33.40997,20.723 32.55298,44.747z" fill="#F9FB65"/>
     <path id="svg_1370" d="m81.93701,60.39c-0.87598,23.921 -16.79303,42.742 -35.54999,42.036c-18.75604,-0.706 -33.25104,-20.67101 -32.37402,-44.593c0.87604,-23.922 16.79303,-42.742 35.54999,-42.036c18.755,0.706 33.25,20.67 32.37402,44.593z" fill="#F9FB66"/>
     <path id="svg_1371" d="m81.719,60.311c-0.897,23.821 -16.76801,42.546 -35.445,41.824c-18.679,-0.723 -33.094,-20.619 -32.197,-44.44c0.897,-23.821 16.768,-42.546 35.446,-41.823c18.677,0.722 33.093,20.618 32.196,44.439l0,0z" fill="#F9FB67"/>
     <path id="svg_1372" d="m81.5,60.232c-0.917,23.719 -16.74,42.35 -35.341,41.611c-18.601,-0.73901 -32.937,-20.567 -32.019,-44.287c0.917,-23.72 16.741,-42.35 35.342,-41.61c18.6,0.739 32.936,20.566 32.018,44.286l0,0z" fill="#F9FB68"/>
     <path id="svg_1373" d="m81.28198,60.154c-0.938,23.618 -16.71503,42.153 -35.237,41.398c-18.52197,-0.755 -32.77802,-20.515 -31.84003,-44.133c0.93805,-23.619 16.71405,-42.153 35.237,-41.398c18.52203,0.755 32.77802,20.513 31.84003,44.133z" fill="#F9FB69"/>
     <path id="svg_1374" d="m81.06299,60.075c-0.95801,23.518 -16.68799,41.957 -35.133,41.186c-18.44403,-0.772 -32.62,-20.46301 -31.66101,-43.98c0.95801,-23.518 16.68799,-41.957 35.13202,-41.185c18.44501,0.771 32.62,20.461 31.66199,43.979z" fill="#F9FB6A"/>
     <path id="svg_1375" d="m80.84497,59.996c-0.979,23.416 -16.66101,41.76 -35.02698,40.973c-18.367,-0.789 -32.46301,-20.411 -31.48401,-43.827c0.979,-23.417 16.66199,-41.761 35.02802,-40.973s32.46198,20.41 31.48297,43.827z" fill="#F9FB6B"/>
     <path id="svg_1376" d="m80.62701,59.917c-0.99902,23.315 -16.63599,41.564 -34.92401,40.759s-32.30499,-20.358 -31.30597,-43.673c0.99896,-23.316 16.63599,-41.564 34.92395,-40.76s32.30499,20.358 31.30603,43.674z" fill="#F9FB6C"/>
     <path id="svg_1377" d="m80.40802,59.838c-1.02002,23.214 -16.60901,41.368 -34.81897,40.547s-32.14606,-20.306 -31.12701,-43.52s16.60901,-41.368 34.81897,-40.547c18.21002,0.822 32.14697,20.306 31.12701,43.52z" fill="#F9FB6D"/>
     <path id="svg_1378" d="m80.19,59.76c-1.04,23.113 -16.583,41.171 -34.715,40.334c-18.133,-0.837 -31.989,-20.253 -30.95,-43.367c1.04,-23.114 16.583,-41.171 34.716,-40.334c18.132,0.837 31.989,20.253 30.949,43.367l0,0z" fill="#F9FB6E"/>
     <path id="svg_1379" d="m79.972,59.681c-1.0611,23.012 -16.557,40.976 -34.61,40.122c-18.055,-0.854 -31.832,-20.201 -30.771,-43.213c1.061,-23.013 16.557,-40.975 34.611,-40.121c18.053,0.852 31.83,20.199 30.77,43.212l0,0z" fill="#F9FB6F"/>
     <path id="svg_1380" d="m79.75403,59.602c-1.08099,22.911 -16.52997,40.779 -34.50702,39.909s-31.67395,-20.149 -30.59296,-43.06c1.07996,-22.912 16.52997,-40.779 34.50696,-39.909c17.97601,0.87 31.67297,20.148 30.59302,43.06z" fill="#F9FB70"/>
     <path id="svg_1381" d="m79.53497,59.523c-1.10199,22.81 -16.50403,40.583 -34.40198,39.696s-31.51605,-20.097 -30.414,-42.907c1.10095,-22.811 16.50397,-40.583 34.40198,-39.696c17.89801,0.887 31.51501,20.097 30.414,42.907z" fill="#F9FB71"/>
     <path id="svg_1382" d="m79.316,59.444c-1.121,22.709 -16.478,40.386 -34.297,39.483c-17.82,-0.903 -31.3581,-20.045 -30.237,-42.753c1.122,-22.709 16.478,-40.386 34.2979,-39.483c17.8201,0.903 31.3581,20.044 30.2361,42.753l0,0z" fill="#F9FB72"/>
     <path id="svg_1383" d="m79.099,59.366c-1.14301,22.607 -16.45099,40.19 -34.19299,39.271s-31.20001,-19.993 -30.05902,-42.6c1.14203,-22.608 16.45099,-40.19 34.19299,-39.271s31.20001,19.991 30.05902,42.6z" fill="#F9FB73"/>
     <path id="svg_1384" d="m78.88,59.287c-1.16199,22.506 -16.42499,39.993 -34.08899,39.058c-17.664,-0.936 -31.04199,-19.94 -29.88,-42.447s16.42499,-39.994 34.08899,-39.058c17.664,0.936 31.04199,19.94 29.88,42.447z" fill="#F9FB74"/>
     <path id="svg_1385" d="m78.66199,59.208c-1.18402,22.406 -16.39899,39.797 -33.98499,38.845c-17.586,-0.953 -30.88403,-19.888 -29.70099,-42.294c1.18201,-22.406 16.39795,-39.797 33.98395,-38.845c17.58606,0.953 30.88501,19.888 29.70203,42.294z" fill="#F9FB75"/>
     <path id="svg_1386" d="m78.44299,59.129c-1.203,22.304 -16.37201,39.601 -33.88,38.632c-17.50897,-0.969 -30.72803,-19.836 -29.52399,-42.141s16.37299,-39.601 33.88098,-38.632s30.72601,19.836 29.52301,42.141z" fill="#F9FB76"/>
     <path id="svg_1387" d="m78.22498,59.051c-1.22302,22.203 -16.34601,39.404 -33.77502,38.419c-17.43097,-0.985 -30.56897,-19.784 -29.34601,-41.987s16.34601,-39.404 33.776,-38.419c17.43005,0.985 30.56805,19.783 29.34503,41.987z" fill="#F9FB77"/>
     <path id="svg_1388" d="m78.00702,58.972c-1.24402,22.102 -16.31897,39.208 -33.672,38.207c-17.35303,-1.002 -30.41101,-19.732 -29.16699,-41.834c1.24298,-22.103 16.31897,-39.208 33.672,-38.207c17.35095,1.002 30.40997,19.731 29.16699,41.834z" fill="#F9FB78"/>
     <path id="svg_1389" d="m77.78802,58.893c-1.26398,22.001 -16.29297,39.012 -33.56702,37.994c-17.27301,-1.018 -30.25299,-19.679 -28.98798,-41.68c1.26398,-22.002 16.29297,-39.012 33.56702,-37.994c17.27295,1.017 30.25293,19.678 28.98798,41.68z" fill="#F9FB79"/>
     <path id="svg_1390" d="m77.57001,58.814c-1.28497,21.9 -16.26801,38.815 -33.46301,37.781c-17.19598,-1.034 -30.09601,-19.627 -28.81201,-41.527c1.284,-21.901 16.26801,-38.815 33.46405,-37.781c17.19598,1.035 30.09497,19.627 28.81097,41.527z" fill="#F9FB7A"/>
     <path id="svg_1391" d="m77.35199,58.735c-1.30499,21.799 -16.23999,38.619 -33.35797,37.568s-29.93799,-19.57401 -28.63403,-41.373c1.30499,-21.8 16.23999,-38.619 33.35803,-37.568s29.93799,19.574 28.63397,41.373z" fill="#F9FB7B"/>
     <path id="svg_1392" d="m77.133,58.657c-1.325,21.698 -16.214,38.423 -33.254,37.355s-29.779,-19.522 -28.454,-41.22s16.214,-38.422 33.254,-37.355c17.04,1.066 29.78,19.521 28.454,41.22l0,0z" fill="#F9FB7C"/>
     <path id="svg_1393" d="m76.915,58.578c-1.346,21.597 -16.188,38.227 -33.15,37.143c-16.962,-1.084 -29.622,-19.47 -28.275,-41.067c1.345,-21.597 16.188,-38.226 33.149,-37.143s29.622,19.469 28.276,41.067l0,0z" fill="#F9FB7D"/>
     <path id="svg_1394" d="m76.696,58.499c-1.3661,21.496 -16.161,38.03 -33.045,36.93c-16.885,-1.1 -29.465,-19.418 -28.099,-40.914c1.366,-21.496 16.162,-38.03 33.046,-36.93c16.884,1.1 29.465,19.417 28.098,40.914l0,0z" fill="#F9FB7E"/>
     <path id="svg_1395" d="m76.479,58.42c-1.38702,21.395 -16.13599,37.833 -32.94098,36.717c-16.80603,-1.117 -29.30701,-19.366 -27.92004,-40.761c1.38702,-21.395 16.13501,-37.834 32.94104,-36.717c16.80499,1.117 29.30499,19.366 27.91998,40.761z" fill="#F9FB7F"/>
     <path id="svg_1396" d="m76.26001,58.341c-1.40698,21.293 -16.10901,37.638 -32.83698,36.505c-16.72803,-1.133 -29.14801,-19.314 -27.74103,-40.607c1.40601,-21.294 16.10803,-37.638 32.83698,-36.504c16.72699,1.132 29.14801,19.312 27.74103,40.606z" fill="#F9FB80"/>
     <path id="svg_1397" d="m76.04102,58.263c-1.427,21.192 -16.08204,37.441 -32.73102,36.292c-16.64996,-1.149 -28.99097,-19.262 -27.56396,-40.454c1.42798,-21.193 16.08301,-37.441 32.73297,-36.292c16.64899,1.149 28.98999,19.26 27.56201,40.454z" fill="#F9FB81"/>
     <path id="svg_1398" d="m75.823,58.184c-1.448,21.091 -16.05701,37.245 -32.62799,36.079c-16.57202,-1.166 -28.83301,-19.209 -27.38599,-40.301c1.44696,-21.092 16.05701,-37.245 32.62897,-36.079c16.57202,1.166 28.83302,19.209 27.38501,40.301z" fill="#F9FB82"/>
     <path id="svg_1399" d="m75.604,58.105c-1.46799,20.99 -16.029,37.048 -32.52299,35.867c-16.494,-1.183 -28.675,-19.157 -27.20701,-40.148s16.03001,-37.048 32.523,-35.866c16.495,1.182 28.676,19.156 27.207,40.147l0,0z" fill="#F9FB83"/>
     <path id="svg_1400" d="m75.38702,58.026c-1.48901,20.889 -16.00402,36.852 -32.41998,35.654c-16.41602,-1.199 -28.51801,-19.105 -27.02802,-39.995c1.48798,-20.89 16.00299,-36.852 32.41901,-35.653s28.51697,19.104 27.02899,39.994z" fill="#FAFB84"/>
     <path id="svg_1401" d="m75.168,57.948c-1.5089,20.788 -15.978,36.65599 -32.314,35.441c-16.3379,-1.215 -28.36,-19.053 -26.852,-39.841c1.509,-20.789 15.978,-36.656 32.315,-35.44c16.338,1.214 28.36,19.051 26.851,39.84l0,0l0,0z" fill="#FAFB85"/>
     <path id="svg_1402" d="m74.949,57.869c-1.529,20.687 -15.95,36.459 -32.2101,35.228s-28.2019,-19 -26.6729,-39.688c1.529,-20.688 15.951,-36.459 32.211,-35.228s28.202,19 26.672,39.688l0,0z" fill="#FAFB86"/>
     <path id="svg_1403" d="m74.73102,57.79c-1.54999,20.586 -15.92499,36.263 -32.10602,35.015s-28.04401,-18.948 -26.49396,-39.534c1.54895,-20.586 15.92499,-36.263 32.10596,-35.015c16.18201,1.247 28.04401,18.947 26.49402,39.534z" fill="#FAFB87"/>
     <path id="svg_1404" d="m74.513,57.711c-1.57001,20.484 -15.89801,36.066 -32.00201,34.802s-27.88599,-18.896 -26.315,-39.381c1.56903,-20.485 15.89703,-36.06701 32.00201,-34.80301c16.10303,1.26601 27.88501,18.89701 26.315,39.38201z" fill="#FAFB88"/>
     <path id="svg_1405" d="m74.29498,57.632c-1.591,20.384 -15.87201,35.871 -31.89697,34.59c-16.026,-1.281 -27.729,-18.844 -26.13904,-39.228c1.591,-20.384 15.87201,-35.871 31.89801,-34.59c16.026,1.282 27.72803,18.844 26.138,39.228z" fill="#FAFB89"/>
     <path id="svg_1406" d="m74.07599,57.554c-1.61102,20.283 -15.84601,35.674 -31.79297,34.377c-15.94806,-1.297 -27.57001,-18.792 -25.96002,-39.075s15.84601,-35.674 31.79401,-34.376c15.94703,1.296 27.57098,18.79 25.95898,39.074z" fill="#FAFB8A"/>
     <path id="svg_1407" d="m73.857,57.475c-1.631,20.182 -15.818,35.478 -31.688,34.165c-15.87,-1.314 -27.413,-18.739 -25.781,-38.921c1.631,-20.182 15.819,-35.478 31.688,-34.164c15.87,1.312 27.413,18.737 25.781,38.92l0,0l0,0z" fill="#FAFB8B"/>
     <path id="svg_1408" d="m73.64,57.396c-1.652,20.081 -15.793,35.281 -31.585,33.952c-15.791,-1.33 -27.255,-18.688 -25.603,-38.768c1.65,-20.081 15.793,-35.281 31.584,-33.951c15.792,1.329 27.255,18.686 25.604,38.767l0,0z" fill="#FAFB8C"/>
     <path id="svg_1409" d="m73.42102,57.317c-1.672,19.979 -15.76703,35.085 -31.479,33.739c-15.71399,-1.347 -27.09802,-18.635 -25.42603,-38.615c1.67206,-19.98 15.76703,-35.085 31.48004,-33.739c15.71399,1.347 27.09698,18.635 25.42499,38.615z" fill="#FAFB8D"/>
     <path id="svg_1410" d="m73.203,57.238c-1.69202,19.878 -15.73999,34.889 -31.37598,33.526c-15.63605,-1.363 -26.93903,-18.583 -25.24701,-38.461c1.69196,-19.879 15.73999,-34.889 31.37598,-33.526s26.94,18.582 25.24701,38.461z" fill="#FAFB8E"/>
     <path id="svg_1411" d="m72.98401,57.16c-1.71301,19.777 -15.71399,34.692 -31.271,33.313c-15.55798,-1.379 -26.78101,-18.531 -25.06799,-38.308c1.71198,-19.778 15.71399,-34.692 31.271,-33.313c15.55798,1.379 26.78101,18.53 25.06799,38.308z" fill="#FAFB8F"/>
     <path id="svg_1412" d="m72.766,57.081c-1.732,19.676 -15.688,34.496 -31.166,33.101c-15.48,-1.396 -26.624,-18.479 -24.891,-38.155c1.732,-19.677 15.688,-34.49599 31.167,-33.101s26.623,18.478 24.89,38.155l0,0z" fill="#FAFB90"/>
     <path id="svg_1413" d="m72.54797,57.002c-1.75404,19.575 -15.66101,34.3 -31.06299,32.888c-15.40204,-1.413 -26.466,-18.426 -24.71301,-38.001c1.75397,-19.576 15.66101,-34.3 31.06299,-32.888c15.40204,1.412 26.46704,18.425 24.71301,38.001z" fill="#FAFB91"/>
     <path id="svg_1414" d="m72.329,56.923c-1.773,19.474 -15.635,34.104 -30.958,32.675c-15.323,-1.429 -26.3091,-18.374 -24.534,-37.849c1.773,-19.474 15.635,-34.103 30.959,-32.675c15.323,1.43 26.30799,18.375 24.533,37.849l0,0z" fill="#FAFB92"/>
     <path id="svg_1415" d="m72.11102,56.845c-1.79498,19.373 -15.60901,33.907 -30.854,32.462s-26.15002,-18.322 -24.35498,-37.695c1.79401,-19.374 15.60797,-33.907 30.854,-32.462c15.24493,1.445 26.14899,18.321 24.35498,37.695z" fill="#FAFB93"/>
     <path id="svg_1416" d="m71.89301,56.766c-1.81403,19.272 -15.58197,33.711 -30.74902,32.25c-15.16797,-1.461 -25.99298,-18.27 -24.17896,-37.542c1.81396,-19.272 15.58295,-33.71 30.75,-32.249c15.16797,1.461 25.99194,18.268 24.17798,37.541z" fill="#FAFB94"/>
     <path id="svg_1417" d="m71.67401,56.687c-1.83502,19.171 -15.55603,33.514 -30.64502,32.037c-15.08997,-1.478 -25.83496,-18.217 -24,-37.388c1.83502,-19.171 15.55603,-33.514 30.646,-32.037c15.09003,1.478 25.83502,18.217 23.99902,37.388z" fill="#FAFB95"/>
     <path id="svg_1418" d="m71.45599,56.608c-1.85498,19.069 -15.52899,33.318 -30.54102,31.824s-25.677,-18.165 -23.82098,-37.235c1.85498,-19.07 15.52899,-33.318 30.54102,-31.824s25.677,18.165 23.82098,37.235z" fill="#FAFB96"/>
     <path id="svg_1419" d="m71.237,56.529c-1.87598,18.969 -15.50299,33.122 -30.43701,31.611c-14.93396,-1.511 -25.51898,-18.113 -23.64301,-37.082c1.875,-18.969 15.50299,-33.122 30.43701,-31.611c14.93402,1.511 25.51898,18.113 23.64301,37.082z" fill="#FAFB97"/>
     <path id="svg_1420" d="m71.02,56.451c-1.896,18.867 -15.478,32.925 -30.332,31.398c-14.856,-1.527 -25.362,-18.061 -23.466,-36.928c1.896,-18.868 15.478,-32.925 30.333,-31.398s25.361,18.06 23.465,36.928l0,0z" fill="#FAFB98"/>
     <path id="svg_1421" d="m70.80103,56.372c-1.91699,18.767 -15.45001,32.729 -30.22803,31.186c-14.77698,-1.543 -25.20398,-18.008 -23.28699,-36.775c1.91602,-18.767 15.45099,-32.729 30.229,-31.186c14.77698,1.543 25.203,18.007 23.28602,36.775z" fill="#FAFB99"/>
     <path id="svg_1422" d="m70.582,56.293c-1.937,18.666 -15.424,32.533 -30.123,30.973c-14.6991,-1.56 -25.046,-17.957 -23.108,-36.622c1.937,-18.666 15.424,-32.533 30.124,-30.973c14.699,1.56 25.045,17.956 23.107,36.622l0,0z" fill="#FAFB9A"/>
     <path id="svg_1423" d="m70.36401,56.214c-1.95802,18.564 -15.39801,32.336 -30.02002,30.76c-14.62097,-1.577 -24.888,-17.904 -22.92999,-36.469c1.95703,-18.564 15.39703,-32.336 30.02002,-30.76c14.62201,1.577 24.88696,17.904 22.92999,36.469z" fill="#FAFB9B"/>
     <path id="svg_1424" d="m70.146,56.135c-1.978,18.463 -15.371,32.14 -29.91401,30.548c-14.544,-1.593 -24.73,-17.852 -22.753,-36.315c1.978,-18.464 15.372,-32.14 29.915,-30.547c14.544,1.592 24.73,17.85 22.752,36.314l0,0z" fill="#FAFC9C"/>
     <path id="svg_1425" d="m69.92798,56.057c-1.99895,18.362 -15.34601,31.943 -29.81097,30.335c-14.466,-1.609 -24.57202,-17.8 -22.57397,-36.162c1.99799,-18.363 15.34595,-31.944 29.81097,-30.334c14.46497,1.608 24.57202,17.798 22.57397,36.161z" fill="#FAFC9D"/>
     <path id="svg_1426" d="m69.70898,55.978c-2.01897,18.261 -15.31799,31.747 -29.70599,30.122c-14.388,-1.626 -24.414,-17.748 -22.396,-36.009c2.01801,-18.262 15.31799,-31.748 29.70599,-30.122s24.41504,17.747 22.396,36.009z" fill="#FAFC9E"/>
     <path id="svg_1427" d="m69.49103,55.899c-2.03998,18.16 -15.29297,31.551 -29.60303,29.909c-14.30896,-1.642 -24.25696,-17.695 -22.21698,-35.855c2.03802,-18.161 15.29199,-31.551 29.60199,-29.909c14.30896,1.642 24.25702,17.694 22.21802,35.855z" fill="#FAFC9F"/>
     <path id="svg_1428" d="m69.27197,55.82c-2.06001,18.059 -15.26703,31.354 -29.49701,29.696c-14.23102,-1.658 -24.09998,-17.643 -22.03998,-35.702c2.06,-18.06 15.26697,-31.355 29.49799,-29.696c14.23102,1.659 24.099,17.643 22.039,35.702z" fill="#FAFCA0"/>
     <path id="svg_1429" d="m69.054,55.742c-2.08,17.958 -15.239,31.158 -29.393,29.483s-23.941,-17.591 -21.861,-35.549c2.079,-17.958 15.24,-31.158 29.394,-29.483c14.152,1.675 23.94,17.59 21.86,35.549l0,0z" fill="#FAFCA1"/>
     <path id="svg_1430" d="m68.836,55.663c-2.10101,17.857 -15.21399,30.962 -29.289,29.271c-14.07501,-1.691 -23.78302,-17.539 -21.68298,-35.396c2.09998,-17.857 15.21399,-30.962 29.289,-29.271c14.07501,1.691 23.78296,17.538 21.68298,35.396z" fill="#FAFCA2"/>
     <path id="svg_1431" d="m68.617,55.584c-2.12,17.755 -15.18799,30.766 -29.18402,29.058c-13.99799,-1.708 -23.62598,-17.486 -21.50598,-35.242c2.12097,-17.756 15.18799,-30.766 29.18597,-29.058c13.99603,1.708 23.625,17.486 21.50403,35.242z" fill="#FAFCA3"/>
     <path id="svg_1432" d="m68.399,55.505c-2.142,17.654 -15.161,30.569 -29.08,28.845c-13.92,-1.724 -23.468,-17.434 -21.327,-35.089s15.161,-30.569 29.081,-28.845c13.918,1.725 23.467,17.434 21.326,35.089l0,0z" fill="#FAFCA4"/>
     <path id="svg_1433" d="m68.18103,55.426c-2.16101,17.554 -15.13501,30.373 -28.97601,28.633c-13.84198,-1.741 -23.31,-17.382 -21.14801,-34.936c2.16101,-17.554 15.13501,-30.373 28.97601,-28.632c13.83997,1.74 23.30896,17.381 21.14801,34.935z" fill="#FAFCA5"/>
     <path id="svg_1434" d="m67.96198,55.348c-2.18201,17.452 -15.10797,30.176 -28.87103,28.42c-13.763,-1.757 -23.15198,-17.32999 -20.96997,-34.782c2.18103,-17.453 15.10803,-30.177 28.87103,-28.42s23.15302,17.329 20.96997,34.782z" fill="#FAFCA6"/>
     <path id="svg_1435" d="m67.74402,55.269c-2.20203,17.352 -15.08197,29.98 -28.76703,28.208c-13.68597,-1.77299 -22.995,-17.277 -20.79297,-34.629c2.20203,-17.352 15.08197,-29.98 28.76801,-28.207c13.685,1.772 22.99396,17.276 20.79199,34.628z" fill="#FAFCA7"/>
     <path id="svg_1436" d="m67.52502,55.19c-2.22301,17.25 -15.05603,29.784 -28.66199,27.995c-13.60699,-1.79 -22.83704,-17.226 -20.61401,-34.476s15.05597,-29.784 28.66302,-27.994c13.60693,1.789 22.83594,17.224 20.61298,34.475z" fill="#FAFCA8"/>
     <path id="svg_1437" d="m67.30798,55.111c-2.24298,17.149 -15.02899,29.587 -28.55902,27.782c-13.52899,-1.807 -22.67896,-17.173 -20.43597,-34.323c2.242,-17.149 15.02899,-29.587 28.55902,-27.781c13.52802,1.806 22.67798,17.172 20.43597,34.322z" fill="#FAFCA9"/>
     <path id="svg_1438" d="m67.08899,55.032c-2.26398,17.048 -15.00299,29.392 -28.45398,27.569c-13.45105,-1.823 -22.521,-17.12099 -20.25702,-34.169c2.263,-17.048 15.00299,-29.391 28.45398,-27.568c13.45001,1.822 22.52106,17.12 20.25702,34.168z" fill="#FAFCAA"/>
     <path id="svg_1439" d="m66.87,54.954c-2.283,16.947 -14.977,29.195 -28.349,27.356c-13.374,-1.839 -22.363,-17.069 -20.08,-34.016s14.977,-29.195 28.351,-27.356c13.372,1.839 22.362,17.068 20.078,34.016l0,0z" fill="#FAFCAB"/>
     <path id="svg_1440" d="m66.652,54.875c-2.305,16.846 -14.95,28.999 -28.245,27.143s-22.205,-17.016 -19.901,-33.862s14.95,-28.999 28.2459,-27.143c13.2941,1.855 22.2041,17.015 19.9001,33.862l0,0z" fill="#FAFCAC"/>
     <path id="svg_1441" d="m66.43402,54.796c-2.32397,16.745 -14.92401,28.802 -28.14099,26.931c-13.21698,-1.87199 -22.04803,-16.964 -19.72302,-33.709c2.32404,-16.745 14.92401,-28.802 28.14099,-26.931c13.21698,1.872 22.04797,16.964 19.72302,33.709z" fill="#FAFCAD"/>
     <path id="svg_1442" d="m66.216,54.717c-2.346,16.644 -14.898,28.606 -28.037,26.718s-21.89,-16.91199 -19.544,-33.556c2.344,-16.644 14.897,-28.606 28.036,-26.718s21.89,16.912 19.545,33.556l0,0z" fill="#FAFCAE"/>
     <path id="svg_1443" d="m65.99701,54.639c-2.36499,16.542 -14.87097,28.409 -27.93201,26.505c-13.06201,-1.905 -21.73199,-16.86 -19.367,-33.403s14.87201,-28.409 27.93298,-26.505c13.06,1.905 21.73102,16.859 19.36603,33.403z" fill="#FAFCAF"/>
     <path id="svg_1444" d="m65.778,54.56c-2.386,16.441 -14.845,28.213 -27.827,26.292c-12.983,-1.921 -21.574,-16.808 -19.188,-33.25s14.845,-28.213 27.828,-26.292c12.982,1.921 21.573,16.808 19.187,33.25l0,0z" fill="#FAFCB0"/>
     <path id="svg_1445" d="m65.56097,54.481c-2.40601,16.34 -14.81903,28.017 -27.724,26.08c-12.90497,-1.938 -21.41602,-16.755 -19.01001,-33.096c2.40503,-16.341 14.81799,-28.017 27.724,-26.079c12.90405,1.937 21.41602,16.754 19.01001,33.095z" fill="#FAFCB1"/>
     <path id="svg_1446" d="m65.34198,54.402c-2.427,16.239 -14.79199,27.82 -27.61902,25.867c-12.82599,-1.95399 -21.258,-16.703 -18.83099,-32.943c2.42603,-16.24 14.79199,-27.82 27.61902,-25.867c12.82599,1.955 21.258,16.703 18.83099,32.943z" fill="#FAFCB2"/>
     <path id="svg_1447" d="m65.124,54.323c-2.447,16.138 -14.767,27.624 -27.515,25.654c-12.7489,-1.971 -21.101,-16.651 -18.654,-32.79s14.767,-27.624 27.516,-25.654c12.748,1.971 21.099,16.652 18.653,32.79l0,0z" fill="#FAFCB3"/>
     <path id="svg_1448" d="m64.905,54.245c-2.468,16.037 -14.739,27.428 -27.4099,25.441c-12.6711,-1.987 -20.9431,-16.599 -18.476,-32.636c2.4669,-16.038 14.739,-27.428 27.411,-25.441c12.6709,1.986 20.9429,16.598 18.4749,32.636l0,0z" fill="#FBFCB4"/>
     <path id="svg_1449" d="m64.68701,54.166c-2.487,15.937 -14.71301,27.232 -27.30603,25.229c-12.59296,-2.003 -20.78497,-16.547 -18.297,-32.483c2.487,-15.937 14.71301,-27.231 27.30603,-25.229s20.78497,16.546 18.297,32.483z" fill="#FBFCB5"/>
     <path id="svg_1450" d="m64.469,54.087c-2.509,15.835 -14.688,27.035 -27.201,25.016c-12.516,-2.02 -20.628,-16.495 -18.12,-32.33c2.508,-15.835 14.688,-27.036 27.202,-25.016c12.514,2.02 20.627,16.494 18.119,32.33l0,0z" fill="#FBFCB6"/>
     <path id="svg_1451" d="m64.25,54.008c-2.52802,15.734 -14.65997,26.839 -27.09698,24.803c-12.43799,-2.03699 -20.47003,-16.442 -17.94104,-32.177c2.52802,-15.734 14.66101,-26.839 27.09802,-24.803s20.46802,16.442 17.94,32.177z" fill="#FBFCB7"/>
     <path id="svg_1452" d="m64.03198,53.929c-2.54999,15.633 -14.63501,26.643 -26.99298,24.59c-12.35901,-2.05299 -20.31201,-16.39 -17.763,-32.023c2.54797,-15.633 14.63397,-26.643 26.99298,-24.59c12.35901,2.053 20.31202,16.39 17.763,32.023z" fill="#FBFCB8"/>
     <path id="svg_1453" d="m63.813,53.851c-2.569,15.532 -14.608,26.446 -26.889,24.377s-20.153,-16.337 -17.584,-31.87c2.568,-15.532 14.6069,-26.446 26.889,-24.377c12.281,2.069 20.154,16.337 17.584,31.87l0,0z" fill="#FBFCB9"/>
     <path id="svg_1454" d="m63.59497,53.772c-2.58899,15.431 -14.58099,26.25 -26.78302,24.165c-12.203,-2.085 -19.99597,-16.285 -17.40698,-31.716c2.59003,-15.431 14.58203,-26.25 26.78497,-24.165c12.20209,2.085 19.99506,16.284 17.40503,31.716z" fill="#FBFCBA"/>
     <path id="svg_1455" d="m63.377,53.693c-2.61,15.33 -14.556,26.054 -26.68,23.952c-12.125,-2.102 -19.839,-16.233 -17.229,-31.563c2.609,-15.33 14.556,-26.054 26.681,-23.952c12.124,2.102 19.838,16.233 17.228,31.563l0,0z" fill="#FBFCBB"/>
     <path id="svg_1456" d="m63.15802,53.614c-2.63,15.229 -14.52802,25.857 -26.57501,23.739c-12.047,-2.118 -19.68097,-16.181 -17.04999,-31.41c2.63,-15.229 14.52899,-25.857 26.57599,-23.739c12.04602,2.119 19.67999,16.181 17.04901,31.41z" fill="#FBFCBC"/>
     <path id="svg_1457" d="m62.94,53.536c-2.651,15.127 -14.50299,25.661 -26.47198,23.526c-11.96899,-2.13499 -19.52203,-16.129 -16.87103,-31.256c2.64899,-15.128 14.50201,-25.661 26.47198,-23.526c11.96802,2.134 19.52203,16.127 16.87103,31.256z" fill="#FBFCBD"/>
     <path id="svg_1458" d="m62.722,53.457c-2.671,15.026 -14.477,25.464 -26.366,23.314c-11.892,-2.151 -19.365,-16.077 -16.694,-31.104c2.671,-15.026 14.477,-25.464 26.367,-23.313s19.364,16.076 16.693,31.103l0,0z" fill="#FBFCBE"/>
     <path id="svg_1459" d="m62.50299,53.378c-2.69098,14.925 -14.44897,25.26801 -26.26202,23.101c-11.81299,-2.168 -19.20697,-16.02399 -16.51599,-30.95c2.69104,-14.925 14.45001,-25.268 26.263,-23.101s19.20703,16.024 16.51501,30.95z" fill="#FBFCBF"/>
     <path id="svg_1460" d="m62.28497,53.299c-2.71198,14.824 -14.42401,25.072 -26.15802,22.889c-11.73401,-2.18401 -19.04901,-15.972 -16.33698,-30.797c2.711,-14.824 14.42401,-25.072 26.15802,-22.888c11.73499,2.184 19.04901,15.971 16.33698,30.796z" fill="#FBFCC0"/>
     <path id="svg_1461" d="m62.06598,53.22c-2.73199,14.723 -14.39697,24.875 -26.05402,22.676c-11.65601,-2.201 -18.89099,-15.92 -16.15796,-30.644c2.73096,-14.724 14.396,-24.875 26.05396,-22.675c11.65607,2.2 18.89105,15.92 16.15802,30.643z" fill="#FBFCC1"/>
     <path id="svg_1462" d="m61.849,53.142c-2.753,14.622 -14.371,24.679 -25.949,22.46301c-11.579,-2.217 -18.734,-15.868 -15.981,-30.49s14.371,-24.679 25.95,-22.462c11.577,2.215 18.733,15.866 15.98,30.489l0,0l0,0z" fill="#FBFCC2"/>
     <path id="svg_1463" d="m61.63,53.063c-2.77301,14.521 -14.34503,24.483 -25.84497,22.25c-11.50104,-2.233 -18.57605,-15.816 -15.80304,-30.337c2.77203,-14.521 14.34503,-24.483 25.84601,-22.25c11.5,2.233 18.57501,15.815 15.802,30.337z" fill="#FBFCC3"/>
     <path id="svg_1464" d="m61.411,52.984c-2.793,14.42 -14.318,24.287 -25.74,22.038c-11.423,-2.25 -18.418,-15.764 -15.624,-30.184c2.793,-14.42 14.318,-24.287 25.741,-22.037c11.422,2.249 18.417,15.762 15.623,30.183l0,0z" fill="#FBFCC4"/>
     <path id="svg_1465" d="m61.193,52.905c-2.814,14.319 -14.292,24.09 -25.637,21.824c-11.345,-2.266 -18.26,-15.71099 -15.445,-30.02999c2.813,-14.319 14.292,-24.09 25.637,-21.824c11.344,2.266 18.259,15.711 15.445,30.03l0,0l0,0z" fill="#FBFCC5"/>
     <path id="svg_1466" d="m60.97498,52.826c-2.83398,14.218 -14.26599,23.894 -25.53101,21.612c-11.26697,-2.283 -18.10303,-15.659 -15.26898,-29.877c2.83398,-14.218 14.26599,-23.894 25.53198,-21.611s18.10303,15.658 15.26801,29.876z" fill="#FBFCC6"/>
     <path id="svg_1467" d="m60.75702,52.748c-2.85498,14.117 -14.23901,23.697 -25.42798,21.399c-11.18805,-2.299 -17.94403,-15.606 -15.09003,-29.724c2.854,-14.117 14.23901,-23.697 25.42798,-21.398c11.18799,2.298 17.94403,15.605 15.09003,29.723z" fill="#FBFCC7"/>
     <path id="svg_1468" d="m60.53802,52.669c-2.875,14.015 -14.21301,23.501 -25.323,21.186c-11.10999,-2.315 -17.78601,-15.554 -14.91101,-29.57c2.87402,-14.016 14.21301,-23.501 25.323,-21.186c11.10999,2.315 17.78601,15.554 14.91101,29.57z" fill="#FBFCC8"/>
     <path id="svg_1469" d="m60.319,52.59c-2.896,13.915 -14.187,23.305 -25.2181,20.974c-11.0329,-2.332 -17.63,-15.502 -14.734,-29.417c2.8961,-13.915 14.1881,-23.305 25.2201,-20.973s17.629,15.501 14.732,29.416l0,0z" fill="#FBFCC9"/>
     <path id="svg_1470" d="m60.10199,52.511c-2.91602,13.813 -14.15997,23.108 -25.11401,20.761c-10.95496,-2.348 -17.47198,-15.45 -14.55597,-29.264c2.91498,-13.814 14.15997,-23.108 25.11499,-20.761c10.95398,2.349 17.47101,15.45 14.55499,29.264z" fill="#FBFCCA"/>
     <path id="svg_1471" d="m59.883,52.433c-2.937,13.712 -14.134,22.912 -25.01,20.548c-10.877,-2.36501 -17.313,-15.398 -14.377,-29.11c2.936,-13.713 14.134,-22.912 25.011,-20.548c10.876,2.364 17.312,15.396 14.376,29.11l0,0z" fill="#FBFCCB"/>
     <path id="svg_1472" d="m59.66498,52.354c-2.95697,13.611 -14.10797,22.716 -24.90601,20.335c-10.79797,-2.381 -17.15497,-15.346 -14.198,-28.957c2.95599,-13.612 14.10699,-22.716 24.90601,-20.335c10.79803,2.381 17.15399,15.345 14.198,28.957z" fill="#FBFCCC"/>
     <path id="svg_1473" d="m59.446,52.275c-2.9781,13.51 -14.081,22.52 -24.801,20.123c-10.72,-2.398 -16.998,-15.294 -14.021,-28.805c2.977,-13.51 14.082,-22.519 24.803,-20.122c10.719,2.398 16.997,15.293 14.019,28.804l0,0z" fill="#FBFCCD"/>
     <path id="svg_1474" d="m59.22803,52.196c-2.99701,13.409 -14.05499,22.323 -24.69598,19.91c-10.64301,-2.414 -16.84003,-15.241 -13.84302,-28.651c2.99701,-13.409 14.05499,-22.323 24.69702,-19.909s16.83997,15.24 13.84198,28.65z" fill="#FBFCCE"/>
     <path id="svg_1475" d="m59.01001,52.117c-3.01801,13.308 -14.02899,22.127 -24.59302,19.697c-10.56396,-2.431 -16.68201,-15.189 -13.664,-28.498c3.01703,-13.308 14.02802,-22.126 24.59302,-19.697c10.56396,2.431 16.68097,15.19 13.664,28.498z" fill="#FBFCCF"/>
     <path id="svg_1476" d="m58.79102,52.039c-3.03802,13.207 -14.00201,21.93 -24.48798,19.484c-10.48602,-2.44701 -16.52405,-15.137 -13.48505,-28.344c3.03705,-13.207 14.00201,-21.93 24.48804,-19.484s16.52399,15.136 13.48499,28.344z" fill="#FBFCD0"/>
     <path id="svg_1477" d="m58.573,51.959c-3.05902,13.106 -13.97699,21.734 -24.38397,19.271c-10.409,-2.46301 -16.367,-15.084 -13.30902,-28.19s13.97699,-21.734 24.38501,-19.271s16.367,15.084 13.30798,28.19z" fill="#FBFCD1"/>
     <path id="svg_1478" d="m58.354,51.881c-3.079,13.005 -13.949,21.538 -24.279,19.059c-10.331,-2.479 -16.209,-15.032 -13.13,-28.037c3.078,-13.005 13.95,-21.538 24.28,-19.059s16.209,15.031 13.129,28.037l0,0z" fill="#FBFCD2"/>
     <path id="svg_1479" d="m58.136,51.802c-3.099,12.903 -13.923,21.341 -24.175,18.846c-10.252,-2.496 -16.051,-14.98 -12.951,-27.884c3.099,-12.904 13.923,-21.342 24.176,-18.846c10.252,2.496 16.049,14.98 12.95,27.884l0,0z" fill="#FBFCD3"/>
     <path id="svg_1480" d="m57.91803,51.723c-3.12,12.803 -13.89697,21.145 -24.07098,18.633c-10.17401,-2.512 -15.89301,-14.928 -12.77203,-27.731c3.11902,-12.803 13.896,-21.145 24.07104,-18.633c10.17291,2.513 15.89197,14.928 12.77197,27.731z" fill="#FBFCD4"/>
     <path id="svg_1481" d="m57.69897,51.645c-3.14001,12.702 -13.87,20.949 -23.966,18.42c-10.09698,-2.529 -15.73499,-14.875 -12.59601,-27.578c3.14001,-12.702 13.87103,-20.949 23.96802,-18.42c10.09601,2.529 15.73505,14.875 12.59399,27.578z" fill="#FBFCD5"/>
     <path id="svg_1482" d="m57.481,51.566c-3.161,12.6 -13.8449,20.752 -23.862,18.208c-10.019,-2.54501 -15.577,-14.823 -12.417,-27.424c3.16,-12.601 13.845,-20.752 23.863,-18.207c10.018,2.544 15.577,14.822 12.416,27.423l0,0z" fill="#FBFCD6"/>
     <path id="svg_1483" d="m57.263,51.487c-3.18103,12.5 -13.81799,20.556 -23.758,17.995c-9.94,-2.562 -15.41998,-14.771 -12.23798,-27.271c3.17999,-12.5 13.81696,-20.556 23.758,-17.995s15.41797,14.771 12.23798,27.271z" fill="#FBFCD7"/>
     <path id="svg_1484" d="m57.04401,51.408c-3.20099,12.398 -13.79102,20.36 -23.65198,17.782c-9.86304,-2.578 -15.263,-14.719 -12.06104,-27.118c3.20001,-12.398 13.79102,-20.36 23.65302,-17.782c9.86298,2.579 15.26196,14.719 12.06,27.118z" fill="#FBFCD8"/>
     <path id="svg_1485" d="m56.82599,51.33c-3.22198,12.297 -13.76599,20.16299 -23.54901,17.569c-9.784,-2.595 -15.104,-14.667 -11.883,-26.964s13.76599,-20.164 23.54999,-17.569s15.104,14.666 11.88202,26.964z" fill="#FBFCD9"/>
     <path id="svg_1486" d="m56.60699,51.25c-3.242,12.196 -13.73798,19.967 -23.44403,17.357c-9.70599,-2.61102 -14.94598,-14.615 -11.70398,-26.811c3.24103,-12.196 13.73901,-19.967 23.44501,-17.356s14.94598,14.614 11.703,26.81z" fill="#FBFCDA"/>
     <path id="svg_1487" d="m56.39001,51.172c-3.263,12.095 -13.71301,19.771 -23.341,17.144c-9.62799,-2.62701 -14.78802,-14.563 -11.52496,-26.658c3.26196,-12.095 13.71295,-19.771 23.34094,-17.144c9.62701,2.628 14.78699,14.562 11.52502,26.658z" fill="#FBFCDB"/>
     <path id="svg_1488" d="m56.171,51.093c-3.283,11.994 -13.687,19.575 -23.235,16.932c-9.551,-2.644 -14.631,-14.51 -11.349,-26.505c3.282,-11.994 13.687,-19.574 23.237,-16.931c9.55,2.643 14.63,14.51 11.347,26.504l0,0z" fill="#FBFCDC"/>
     <path id="svg_1489" d="m55.953,51.014c-3.304,11.893 -13.66,19.378 -23.132,16.718c-9.473,-2.66 -14.474,-14.458 -11.17,-26.351c3.303,-11.893 13.66,-19.378 23.133,-16.718c9.471,2.66 14.472,14.458 11.169,26.351l0,0z" fill="#FBFCDD"/>
     <path id="svg_1490" d="m55.73401,50.936c-3.32397,11.792 -13.63397,19.182 -23.02698,16.505c-9.39502,-2.677 -14.315,-14.406 -10.99103,-26.198c3.323,-11.792 13.63403,-19.182 23.02802,-16.505c9.39301,2.676 14.31396,14.405 10.98999,26.198z" fill="#FBFCDE"/>
     <path id="svg_1491" d="m55.51599,50.856c-3.34399,11.691 -13.60699,18.985 -22.92297,16.293c-9.31604,-2.693 -14.15704,-14.354 -10.81305,-26.044c3.34302,-11.691 13.60699,-18.985 22.92303,-16.292s14.15698,14.353 10.81299,26.043z" fill="#FBFCDF"/>
     <path id="svg_1492" d="m55.29797,50.778c-3.36499,11.589 -13.58099,18.789 -22.81799,16.08c-9.23804,-2.709 -14,-14.301 -10.63599,-25.891s13.58099,-18.789 22.81897,-16.08c9.23706,2.709 13.99902,14.301 10.63501,25.891z" fill="#FBFCE0"/>
     <path id="svg_1493" d="m55.07898,50.699c-3.38501,11.488 -13.55499,18.592 -22.71399,15.867c-9.16003,-2.726 -13.84198,-14.249 -10.45703,-25.738c3.38403,-11.489 13.55499,-18.593 22.71503,-15.867c9.159,2.726 13.841,14.249 10.45599,25.738z" fill="#FBFCE1"/>
     <path id="svg_1494" d="m54.86102,50.62c-3.40601,11.388 -13.52899,18.396 -22.60999,15.655c-9.08203,-2.742 -13.68402,-14.197 -10.27802,-25.584c3.40399,-11.388 13.52802,-18.396 22.60999,-15.654c9.08099,2.741 13.68402,14.195 10.27802,25.583z" fill="#FBFCE2"/>
     <path id="svg_1495" d="m54.64301,50.542c-3.42603,11.286 -13.50201,18.2 -22.50598,15.442c-9.00403,-2.759 -13.52502,-14.145 -10.10004,-25.432c3.42499,-11.286 13.50201,-18.2 22.50604,-15.441c9.00299,2.758 13.52496,14.143 10.09998,25.431z" fill="#FBFCE3"/>
     <path id="svg_1496" d="m54.424,50.463c-3.446,11.185 -13.476,18.003 -22.4,15.229c-8.927,-2.775 -13.369,-14.092 -9.923,-25.278c3.445,-11.185 13.476,-18.003 22.402,-15.229c8.925,2.775 13.367,14.092 9.921,25.278l0,0z" fill="#FCFCE4"/>
     <path id="svg_1497" d="m54.206,50.384c-3.467,11.084 -13.449,17.808 -22.297,15.017c-8.849,-2.792 -13.211,-14.041 -9.744,-25.125c3.466,-11.084 13.449,-17.807 22.298,-15.016c8.847,2.791 13.209,14.039 9.743,25.124l0,0z" fill="#FCFCE5"/>
     <path id="svg_1498" d="m53.987,50.305c-3.48602,10.983 -13.42297,17.611 -22.19202,14.804c-8.76996,-2.808 -13.05298,-13.988 -9.565,-24.972c3.48602,-10.983 13.42303,-17.611 22.19299,-14.803c8.76801,2.808 13.052,13.987 9.56403,24.971z" fill="#FCFCE6"/>
     <path id="svg_1499" d="m53.77002,50.227c-3.508,10.882 -13.39697,17.415 -22.08899,14.591c-8.69104,-2.825 -12.89502,-13.936 -9.38702,-24.818c3.50604,-10.882 13.396,-17.415 22.08899,-14.59c8.69,2.822 12.89301,13.934 9.38702,24.817z" fill="#FCFCE7"/>
     <path id="svg_1500" d="m53.55103,50.147c-3.52698,10.781 -13.37,17.218 -21.98297,14.378c-8.61401,-2.841 -12.737,-13.884 -9.21002,-24.665s13.37097,-17.218 21.98401,-14.378c8.61298,2.842 12.73596,13.884 9.20898,24.665z" fill="#FCFCE8"/>
     <path id="svg_1501" d="m53.33197,50.069c-3.54797,10.68 -13.34399,17.022 -21.87903,14.166c-8.53595,-2.857 -12.57898,-13.832 -9.03094,-24.512c3.547,-10.68 13.34399,-17.022 21.87994,-14.165c8.53503,2.857 12.57904,13.83 9.03003,24.511z" fill="#FCFCE9"/>
     <path id="svg_1502" d="m53.11401,49.99c-3.56799,10.579 -13.31799,16.826 -21.77502,13.953c-8.45801,-2.874 -12.42096,-13.779 -8.85297,-24.358c3.56702,-10.579 13.31702,-16.825 21.77496,-13.952c8.45801,2.872 12.422,13.778 8.85303,24.357z" fill="#FCFCEA"/>
     <path id="svg_1503" d="m52.896,49.911c-3.58899,10.478 -13.29102,16.629 -21.66998,13.74c-8.38104,-2.89 -12.26501,-13.727 -8.67603,-24.205c3.58899,-10.478 13.29199,-16.629 21.672,-13.739c8.37903,2.889 12.26202,13.726 8.67401,24.204z" fill="#FCFCEB"/>
     <path id="svg_1504" d="m52.67798,49.833c-3.60901,10.376 -13.26599,16.433 -21.56598,13.527c-8.302,-2.907 -12.10602,-13.675 -8.49701,-24.052c3.60797,-10.376 13.26599,-16.433 21.56702,-13.526c8.29999,2.906 12.104,13.673 8.49597,24.051z" fill="#FCFCEC"/>
     <path id="svg_1505" d="m52.45898,49.753c-3.63,10.276 -13.23901,16.23701 -21.46198,13.314c-8.224,-2.923 -11.94806,-13.623 -8.31805,-23.898c3.62903,-10.275 13.23804,-16.236 21.46301,-13.314c8.22205,2.923 11.94702,13.623 8.31702,23.898z" fill="#FCFCED"/>
     <path id="svg_1506" d="m52.24,49.675c-3.649,10.174 -13.212,16.04 -21.357,13.102c-8.146,-2.939 -11.79,-13.57 -8.14,-23.745c3.648,-10.174 13.212,-16.041 21.358,-13.101c8.145,2.938 11.79,13.569 8.139,23.744l0,0z" fill="#FCFCEE"/>
     <path id="svg_1507" d="m52.02197,49.596c-3.67102,10.073 -13.18701,15.844 -21.25299,12.889c-8.06799,-2.956 -11.633,-13.518 -7.96301,-23.592s13.18701,-15.844 21.255,-12.889c8.06702,2.956 11.63104,13.518 7.961,23.592z" fill="#FCFCEF"/>
     <path id="svg_1508" d="m51.80402,49.517c-3.69,9.972 -13.159,15.648 -21.14801,12.676c-7.98999,-2.972 -11.47498,-13.466 -7.784,-23.438s13.16003,-15.648 21.14899,-12.676c7.98901,2.972 11.474,13.465 7.78302,23.438z" fill="#FCFCF0"/>
     <path id="svg_1509" d="m51.586,49.438c-3.71198,9.871 -13.13397,15.451 -21.04498,12.463c-7.91199,-2.989 -11.31604,-13.414 -7.60504,-23.286c3.71002,-9.871 13.13403,-15.451 21.04504,-12.463c7.91101,2.99 11.31598,13.415 7.60498,23.286z" fill="#FCFCF1"/>
     <path id="svg_1510" d="m51.367,49.36c-3.73102,9.77 -13.10699,15.255 -20.94,12.25c-7.83398,-3.005 -11.159,-13.362 -7.427,-23.132c3.72998,-9.77 13.10602,-15.255 20.94,-12.25c7.83301,3.005 11.159,13.361 7.427,23.132z" fill="#FCFCF2"/>
     <path id="svg_1511" d="m51.148,49.281c-3.752,9.669 -13.08,15.059 -20.835,12.038c-7.756,-3.022 -11.002,-13.31 -7.25,-22.979c3.751,-9.669 13.081,-15.059 20.837,-12.037c7.755,3.021 11,13.308 7.248,22.978l0,0z" fill="#FCFCF3"/>
     <path id="svg_1512" d="m50.93103,49.202c-3.77197,9.568 -13.05499,14.862 -20.73102,11.825c-7.67798,-3.038 -10.84399,-13.257 -7.07098,-22.826c3.771,-9.568 13.05499,-14.862 20.73199,-11.825c7.67596,3.039 10.84198,13.258 7.07001,22.826z" fill="#FCFCF4"/>
     <path id="svg_1513" d="m50.71198,49.124c-3.79297,9.467 -13.02802,14.666 -20.62701,11.612c-7.59998,-3.055 -10.68597,-13.205 -6.89301,-22.672c3.79199,-9.467 13.02802,-14.666 20.62799,-11.612c7.59906,3.053 10.68506,13.204 6.89203,22.672z" fill="#FCFCF5"/>
     <path id="svg_1514" d="m50.49402,49.044c-3.81299,9.366 -13.00201,14.47 -20.52301,11.399c-7.521,-3.071 -10.52698,-13.152 -6.71399,-22.519c3.81201,-9.366 13.00098,-14.47 20.52301,-11.399c7.521,3.072 10.52698,13.153 6.71399,22.519z" fill="#FCFCF6"/>
     <path id="svg_1515" d="m50.275,48.966c-3.834,9.265 -12.976,14.273 -20.418,11.187c-7.444,-3.087 -10.37,-13.1 -6.537,-22.365c3.833,-9.265 12.976,-14.273 20.42,-11.187c7.443,3.087 10.369,13.1 6.535,22.365l0,0z" fill="#FCFCF7"/>
     <path id="svg_1516" d="m50.05701,48.887c-3.854,9.164 -12.948,14.077 -20.31299,10.974c-7.36603,-3.104 -10.21204,-13.048 -6.35803,-22.212s12.94904,-14.077 20.31403,-10.974c7.36401,3.103 10.211,13.048 6.35699,22.212z" fill="#FCFCF8"/>
     <path id="svg_1517" d="m49.83899,48.808c-3.875,9.063 -12.92297,13.88 -20.21002,10.761c-7.28699,-3.12 -10.05499,-12.996 -6.17999,-22.059c3.87299,-9.063 12.92303,-13.88 20.21002,-10.761s10.05402,12.996 6.17999,22.059z" fill="#FCFCF9"/>
     <path id="svg_1518" d="m49.62,48.729c-3.89502,8.961 -12.896,13.684 -20.10498,10.548c-7.20898,-3.137 -9.896,-12.944 -6.00104,-21.906c3.89404,-8.961 12.896,-13.684 20.10504,-10.548c7.20898,3.137 9.896,12.945 6.00098,21.906z" fill="#FCFCFA"/>
     <ellipse id="svg_1519" ry="17.54" rx="14.118" cy="253.01745" cx="81.68364" fill="#FCFCFB" transform="matrix(0.9146,0.4043,-0.4043,0.9146,64.069,-221.5058) "/>
     <ellipse id="svg_1520" ry="17.388" rx="14.001" cy="255.74475" cx="82.90985" fill="#FCFCFC" transform="matrix(0.9122,0.4098,-0.4098,0.9122,65.6107,-224.4507) "/>
     <path id="svg_1521" d="m47.361,46.95c-3.02,7.934 -10.643,12.389 -17.027,9.951c-6.385,-2.439 -9.113,-10.849 -6.094,-18.783c3.018,-7.934 10.643,-12.389 17.027,-9.95s9.114,10.847 6.094,18.782l0,0z" fill="#FDFDFD"/>
     <path id="svg_1522" d="m45.539,45.327c-2.10303,7.109 -8.44098,11.487 -14.15698,9.779c-5.716,-1.709 -8.646,-8.857 -6.54401,-15.967s8.44098,-11.487 14.15796,-9.778c5.716,1.709 8.64606,8.857 6.54303,15.966z" fill="#FEFEFE"/>
     <path id="svg_1523" d="m43.717,43.705c-1.186,6.284 -6.239,10.585 -11.287,9.607c-5.048,-0.979 -8.18,-6.867 -6.994,-13.151c1.188,-6.284 6.24,-10.584 11.289,-9.605c5.046,0.977 8.177,6.864 6.992,13.149l0,0z" fill="#FEFEFE"/>
     <path id="svg_1524" d="m41.89502,42.083c-0.27002,5.459 -4.03802,9.683 -8.41803,9.435c-4.37897,-0.249 -7.71198,-4.876 -7.44196,-10.335c0.271,-5.458 4.039,-9.682 8.41901,-9.433c4.37793,0.247 7.70996,4.874 7.44098,10.333z" fill="#FFFFFF"/>
    </g>
    <g id="svg_1525">
     <path id="svg_1526" d="m49.30603,30.818c-0.33899,1.865 -1.79797,3.165 -3.25702,2.906c-1.45898,-0.26 -2.36597,-1.983 -2.026,-3.847c0.341,-1.864 1.79803,-3.165 3.25702,-2.905s2.36597,1.983 2.026,3.846z" fill="#FFFFFF"/>
    </g>
    <g id="svg_1527">
     <path id="svg_1528" d="m67.04901,155.534c-2.26202,0.649 -4.59802,8.242 -4.32599,10.444c0.35699,2.903 3.43097,0.923 5.09601,0.399c1.41797,-0.44499 2.94995,0.22501 4.48199,0.345c1.51398,0.12 3.745,-1.37 4.96497,-0.507c1.396,-2.317 -3.53796,-6.41 -4.94,-8.00998c-0.74896,-0.854 -1.867,-2.744 -3.00397,-3.091c-0.96301,-0.293 -1.336,0.25302 -2.27301,0.42001" fill="#F7E51E"/>
    </g>
   </g>
   <g id="svg_1529">
    <g id="svg_1530">
     <path id="svg_1531" d="m65.47302,155.85899c1.75098,-0.75101 3.50201,-0.601 5.25299,-0.45" fill="none"/>
    </g>
    <g id="svg_1532">
     <path id="svg_1533" d="m65.47302,157.10899c1.71503,-0.674 3.44897,-0.604 5.25299,-0.45c-0.052,-0.00401 0.08899,-2.492 0,-2.5c-1.80402,-0.153 -3.53796,-0.224 -5.25299,0.45c-0.30005,0.11801 0.26697,2.39499 0,2.5l0,0z" fill="#C1272D"/>
    </g>
   </g>
  </g>
 </g>
</svg>