<svg xmlns="http://www.w3.org/2000/svg" width="150" height="420">
  <path fill="none" d="M71 153c-25.5 12-41.7 39.3-29 66 16.6 34.6 55.8 31.4 79.7 56.5 16.3 15.7 24.8 50 14.8 70.7-10 21.6-40.6 36.2-30.8 62.7"/>
  <path fill="#C1272D" d="M71 151.8c-18.7 9-33.4 26.4-33.4 48 0 21.4 14 38 32 47.7 18.7 10 38.8 15.2 53.7 31 15.3 16 22.4 44.8 13.7 65.4-6 13-18.8 23-27.2 35-6 9-7.7 20-4 30-.3-1 .2-2 0-3-7.7-22 15.6-37.8 26.6-53 10-14.8 10-33 6-50-5.6-22.4-20.4-37.5-40.6-47-18.6-9.4-39.2-15-51.6-33-8.6-12.8-10.7-27.6-5-41.6 5.8-13 17.2-23 30-29 .2 0-.4-2.5 0-2.7z"/>
  <ellipse cx="65.9" cy="79.4" fill="#F7E521" ry="75.8" rx="61.9"/>
  <ellipse cx="65.3" cy="78.8" fill="#F7E622" ry="74.9" rx="61"/>
  <ellipse cx="64.8" cy="78.2" fill="#F7E723" ry="74" rx="60.2"/>
  <ellipse cx="64.2" cy="77.6" fill="#F7E724" ry="73.1" rx="59.4"/>
  <ellipse cx="63.7" cy="77" fill="#F7E825" ry="72.2" rx="58.6"/>
  <ellipse cx="63.2" cy="76.5" fill="#F7E926" ry="71.2" rx="57.8"/>
  <ellipse cx="62.6" cy="75.9" fill="#F7EA27" ry="70.3" rx="57"/>
  <ellipse cx="62.1" cy="75.3" fill="#F7EB28" ry="69.4" rx="56.2"/>
  <ellipse cx="61.5" cy="74.7" fill="#F7EC29" ry="68.5" rx="55.4"/>
  <ellipse cx="61" cy="74.2" fill="#F7EC2A" ry="67.6" rx="54.6"/>
  <ellipse cx="60.5" cy="73.6" fill="#F7ED2B" ry="66.7" rx="53.8"/>
  <ellipse cx="59.9" cy="73" fill="#F7EE2C" ry="65.8" rx="53"/>
  <ellipse cx="59.4" cy="72.4" fill="#F7EF2D" ry="64.9" rx="52.2"/>
  <ellipse cx="58.8" cy="71.9" fill="#F7F02E" ry="64" rx="51.4"/>
  <ellipse cx="58.3" cy="71.3" fill="#F8F02E" ry="63" rx="50.5"/>
  <ellipse cx="57.8" cy="70.7" fill="#F8F12F" ry="62.1" rx="49.7"/>
  <ellipse cx="57.2" cy="70.1" fill="#F8F230" ry="61.2" rx="48.9"/>
  <ellipse cx="56.7" cy="69.5" fill="#F8F331" ry="60.3" rx="48.1"/>
  <ellipse cx="56.1" cy="69" fill="#F8F432" ry="59.4" rx="47.3"/>
  <ellipse cx="55.6" cy="68.4" fill="#F8F433" ry="58.5" rx="46.5"/>
  <ellipse cx="55.1" cy="67.8" fill="#F8F534" ry="57.6" rx="45.7"/>
  <ellipse cx="54.5" cy="67.2" fill="#F8F635" ry="56.7" rx="44.9"/>
  <ellipse cx="54" cy="66.7" fill="#F8F736" ry="55.7" rx="44.1"/>
  <ellipse cx="53.4" cy="66.1" fill="#F8F837" ry="54.8" rx="43.3"/>
  <ellipse cx="52.9" cy="65.5" fill="#F8F938" ry="53.9" rx="42.5"/>
  <ellipse cx="52.4" cy="64.9" fill="#F8F939" ry="53" rx="41.7"/>
  <ellipse cx="51.8" cy="64.4" fill="#F8FA3A" ry="52.1" rx="40.8"/>
  <ellipse cx="51.3" cy="63.8" fill="#F8FB3B" ry="51.2" rx="40"/>
  <ellipse cx="51.2" cy="64.1" fill="#F8FB3C" ry="51" rx="39.9" transform="translate(.046 -.426)"/>
  <ellipse cx="51.1" cy="64.3" fill="#F8FB3D" ry="50.8" rx="39.8" transform="translate(.092 -.852)"/>
  <ellipse cx="51.1" cy="64.6" fill="#F8FB3E" ry="50.6" rx="39.6" transform="translate(.14 -1.284)"/>
  <path fill="#F8FB3F" d="M90.5 63.5c0 27.8-18 50.4-39.7 50.3-21.8 0-39.4-22.7-39.3-50.6C11.5 35.4 29.3 12.8 51 13c22 0 39.5 22.6 39.5 50.5z"/>
  <path fill="#F8FB40" d="M90.2 63.4c0 27.7-17.8 50.2-39.5 50-21.7 0-39.2-22.6-39-50.3 0-27 17.7-50 39.3-50 22 0 40 23 39.8 51z"/>
  <path fill="#F8FB41" d="M90 63.3c0 27.7-17.8 50-39.4 50-21.6-.2-39-22.7-39-50.4.2-28 17.8-50 39.4-50 21.7 0 39 22 39 50z"/>
  <path fill="#F8FB42" d="M89.8 63.2C89.8 90.8 72 113 50.5 113c-21.6-.2-39-22.6-38.8-50.2C11.7 35.2 29.4 13 51 13s39 22.7 38.8 50.2z"/>
  <path fill="#F8FB43" d="M89.6 63c-.2 27.7-17.6 50-39.2 49.7S11.6 90 11.8 62.7C11.8 35 29.5 13 51 13s38.7 22.5 38.6 50z"/>
  <path fill="#F8FB44" d="M89.4 63c-.2 27.4-17.7 49.5-39 49.3-21.5 0-38.8-22.4-38.6-49.8.2-27.3 17.7-49.4 39-49.2 21.5 0 38.7 22.4 38.6 49.8z"/>
  <path fill="#F8FB45" d="M89 63c0 27.2-17.5 49.2-38.8 49-21.4 0-38.5-22.3-38.3-49.6 0-27.4 17-49.2 39-49S89 35.6 89 63z"/>
  <path fill="#F8FB46" d="M89 63c-.3 27-17.7 49-39 48.8S11.7 89.4 12 62.3c.2-27.2 17.6-49 38.8-49C72 13.7 89 36 88.8 63z"/>
  <path fill="#F8FB47" d="M88.7 62.8c-.2 27-17.6 49-38.8 48.7-22-.2-39-22.3-38-49.5 0-27 17-48 38-48 21-.2 38 22 38 49z"/>
  <path fill="#F8FB48" d="M88.5 62.8c-.3 27-17.6 48.6-38.7 48.4C28.8 111 11.8 89 12 62c.4-27 17.7-48.7 38.8-48.4 21 .2 38 22.2 37.7 49.2z"/>
  <path fill="#F8FB49" d="M88.3 62.7C88 89.5 70.7 111 49.7 111c-21-.3-37.8-22.3-37.5-49.2.2-26.8 17.5-48.4 38.5-48.2 21 .3 38 22.2 37.6 49z"/>
  <path fill="#F8FB4A" d="M88 62.6c-.3 26.7-17.5 48.2-38.4 48s-37.7-22-37.4-49c.3-26.6 17.5-48 38.5-48 21 .4 37.7 22.2 37.4 49z"/>
  <path fill="#F8FB4B" d="M87.8 62.5c-.3 26.7-17.5 48-38.3 47.8-21-.3-37.5-22-37.2-48.7.3-26.7 17.5-48 38.3-47.8s37.6 22 37.2 48.7z"/>
  <path fill="#F8FB4C" d="M87.6 62.4C87.3 89 70 110.4 49.4 110c-20.8-.3-37.4-22-37-48.6.2-26.4 17.3-47.8 38-47.4s37.5 22 37 48.4z"/>
  <path fill="#F8FB4D" d="M87.4 62.4C87 88.8 70 110 49.2 109.7c-20.7-.3-37.2-22-36.8-48.4C12.8 34.8 30 13.6 50.6 14c20.7.2 37.2 22 36.8 48.4z"/>
  <path fill="#F8FB4E" d="M87.2 62.3c-.4 26.3-17.4 47.4-38 47s-37-21.8-36.7-48C13 34.7 30 13.6 50.5 14s37 22 36.7 48.3z"/>
  <path fill="#F8FB4F" d="M87 62.2c-.4 26.2-17.4 47.3-38 47-20.5-.4-37-22-36.5-48.2.4-26.2 17.4-47.2 38-47 20.5.4 37 22 36.5 48.2z"/>
  <path fill="#F8FB50" d="M86.7 62c-.4 26.4-17.3 47.3-37.7 47-20.6-.3-36.8-21.8-36.4-48C13 35 30 14 50.4 14.3c20.5.3 36.8 21.8 36.3 48z"/>
  <path fill="#F8FB51" d="M86.5 62c-.4 26-17.3 47-37.7 46.5-20.4-.3-36.6-21.7-36-47.8C13 34.7 30 14 50.3 14.2 70.8 14.6 87 36 86.3 62z"/>
  <path fill="#F8FB52" d="M86.3 62c-.5 26-17.3 46.6-37.6 46.3-20.3-.4-36.4-21.8-36-47.7.5-26 17.3-46.7 37.7-46.3 20.3.4 36.4 21.7 36 47.7z"/>
  <path fill="#F8FB53" d="M86 62c-.4 25.7-17.2 46.4-37.4 46-20.3-.4-36.3-21.7-35.8-47.5.5-26 17.3-46.5 37.5-46C70.6 14.7 86.6 36 86 61.8z"/>
  <path fill="#F9FB54" d="M86 61.8c-.6 25.7-17.4 46.3-37.6 46-20-.5-36-21.7-35.5-47.5C13 34.6 30 14 50 14.5S86 36 85.6 61.8z"/>
  <path fill="#F9FB55" d="M85.6 61.7c-.5 25.7-17.2 46-37.3 45.7S12.3 85.8 13 60.2c.5-25.7 17.2-46 37.2-45.7 20 .5 36 21.6 35.4 47.2z"/>
  <path fill="#F9FB56" d="M85.4 61.6c-.5 25.6-17.2 46-37.2 45.5S12.4 86 13 60c.5-25.5 17.2-45.8 37.2-45.4S86 36 85.4 61.6z"/>
  <path fill="#F9FB57" d="M85.2 61.6c-.6 25.4-17.2 45.7-37 45.2-20-.5-35.7-21.5-35.2-47 .6-25.3 17.2-45.6 37.2-45 20 .3 35.6 21.3 35 46.8z"/>
  <path fill="#F9FB58" d="M85 61.5c-.6 25.3-17.2 45.5-37 45S12.5 85 13 59.8c.7-25.4 17.3-45.5 37-45 20 .4 35.6 21.4 35 46.7z"/>
  <path fill="#F9FB59" d="M84.8 61.4c-.6 25.3-17.2 45.3-37 44.8S12.8 85 13.3 59.6c.6-25.2 17-45.3 37-44.8C70 15.3 85.5 36.2 85 61.4z"/>
  <path fill="#F9FB5A" d="M84.6 61.3c-.7 25.2-17.2 45-36.8 44.6-19.8-1-35.2-22-34.6-47C14 34 30.4 14 50 14c19.7 1.2 35.2 22 34.6 47z"/>
  <path fill="#F9FB5B" d="M84.3 61.3c-.6 25-17 45-36.7 44.3-19.6-.5-35-21.2-34.3-46.2.7-25 17-45 36.7-44.4 19.6.5 35 21.2 34.3 46.3z"/>
  <path fill="#F9FB5C" d="M84 61.2c-.6 25-17 44.7-36.5 44-19.5-.4-34.8-21-34-46 .5-25 17-44.7 36.5-44 19.5.4 34.8 21 34 46z"/>
  <path fill="#F9FB5D" d="M84 61c-.8 25-17 44.6-36.6 44-19.4-.5-34.7-21-34-46 .7-24.8 17-44.4 36.5-44s34 21.3 34 46z"/>
  <path fill="#F9FB5E" d="M83.7 61c-.7 24.8-17 44.3-36.4 43.8-19.4-.6-34.5-21-33.8-46 .7-24.6 17-44.2 36.4-43.6s34 21 33 45.8z"/>
  <path fill="#F9FB5F" d="M83.5 61c-.8 24.6-17 44-36.3 43.5-19.3-.6-34.4-21-33.6-45.7.7-24.6 17-44 36.2-43.5C69 16 84.2 36.3 83.5 61z"/>
  <path fill="#F9FB60" d="M83.2 61c-.7 24.4-17 43.8-36 43.2S13 83.2 13.6 58.7c.8-24.6 17-44 36.2-43.4C69 16 84 36.3 83.2 61z"/>
  <path fill="#F9FB61" d="M83 60.8c-.7 24.4-17 43.7-36 43S13 83 13.7 58.6c.8-24.4 17-43.7 36-43C69 16 83.7 36.6 83 61z"/>
  <path fill="#F9FB62" d="M82.8 60.7c-.8 24.3-17 43.5-36 43s-33.8-21-33-45.3c.8-24.3 17-43.5 36-43s33.8 21 33 45.3z"/>
  <path fill="#F9FB63" d="M82.6 60.6c-.8 24.3-17 43.4-36 42.7-19-.7-33.6-20.8-32.8-45 .8-24.3 17-43.4 36-42.7s33.6 20.8 32.8 45z"/>
  <path fill="#F9FB64" d="M82.4 60.5c-1 24.2-17 43.2-35.8 42.5-19-.7-33.6-20.8-32.7-45 0-24 16-43 35-42.4s34 20.8 33 45z"/>
  <path fill="#F9FB65" d="M82.2 60.5c-1 24-17 43-35.7 42.2C27.7 102 13 82 14 58c.8-24 16.8-43 35.6-42.3 18.8.7 33.4 20.7 32.6 44.8z"/>
  <path fill="#F9FB66" d="M82 60.4c-1 24-17 42.7-35.6 42C27.6 101.7 13 81.8 14 57.8s16.8-42.7 35.6-42c18.7.7 33.2 20.7 32.3 44.6z"/>
  <path fill="#F9FB67" d="M81.7 60.3C80.7 84 65 103 46.3 102c-18.7-.6-33-20.5-32.2-44.3C15 34 31 15 50 16c18.7.6 33 20.5 32.2 44.3z"/>
  <path fill="#F9FB68" d="M81.5 60.2c-1 23.8-16.7 42.4-35.3 41.6-18.6-.7-33-20.5-32-44.2C15 33.8 30.8 15.2 49.4 16c18.6.7 33 20.5 32 44.2z"/>
  <path fill="#F9FB69" d="M81.3 60.2c-1 23.6-16.7 42-35.3 41.4-18.5-.8-32.7-20.6-31.8-44.2 1-23.6 16.7-42 35.2-41.4 18.6.8 32.8 20.5 32 44.2z"/>
  <path fill="#F9FB6A" d="M81 60c-1 23.6-16.6 42-35 41.3-18.5-.8-32.7-20.5-31.7-44 1-23.5 16.7-42 35-41.2C68 17 82 37 81.3 60z"/>
  <path fill="#F9FB6B" d="M80.8 60c-1 23.4-16.6 41.8-35 41-18.3-.8-32.4-20.4-31.5-44 1-23.3 16.7-41.6 35-40.8S82 36.6 81 60z"/>
  <path fill="#F9FB6C" d="M80.6 60c-1 23.2-16.6 41.5-35 40.7s-32-20.4-31-43.7c1-23.3 16.5-41.6 35-40.8s32 20.4 31 43.8z"/>
  <path fill="#F9FB6D" d="M80.4 59.8c-1 23.3-16.6 41.4-34.8 40.6S13.4 80 14.6 57 31 15.4 49.2 16.2c18.2.8 32 20.3 31 43.5z"/>
  <path fill="#F9FB6E" d="M80.2 59.8c-1 23-16.6 41-34.7 40.3-18.2 0-32-20-31-43S31 16 49.2 17c18.2.8 32 20.2 31 43.4z"/>
  <path fill="#F9FB6F" d="M80 59.7c-1 23-16.6 41-34.6 40-18-.8-32-20-30.8-43 1-23 16.5-41 34.6-40.2 18 .8 31.8 20.2 30.8 43.2z"/>
  <path fill="#F9FB70" d="M79.8 59.6c-1 23-16.6 40.8-34.6 40s-31.6-20.2-30.5-43c1-23 16.5-41 34.5-40 18 .8 31.6 20 30.6 43z"/>
  <path fill="#F9FB71" d="M79.5 59.5C78.5 82.3 63 100 45 99.2s-31.4-20-30.3-43c1-22.7 16.5-40.5 34.4-39.6 18 1 32 20 31 43z"/>
  <path fill="#F9FB72" d="M79.3 59.4C78.3 82.2 62.8 99.8 45 99c-17.8-1-31.3-20-30.2-43 1-22.7 16.5-40.4 34.3-39.5 18 1 32 20 31 42.7z"/>
  <path fill="#F9FB73" d="M79 59.4C78 82 62.7 99.6 45 98.6S13.6 78.6 14.7 56C16 33.4 31.3 15.8 49 16.8s31.2 20 30 42.6z"/>
  <path fill="#F9FB74" d="M79 59.3c-1.3 22.5-16.5 40-34.2 39-17.7-1-31-20-30-42.4S31.4 16 49 16c17.7 1 31 20 30 42.5z"/>
  <path fill="#F9FB75" d="M78.7 59.2c-1.2 22.4-16.4 39.8-34 39C27 97 13.7 78 15 55.7c1.2-22.4 16.4-39.8 34-39 17.5 1 30.8 20 29.7 42.4z"/>
  <path fill="#F9FB76" d="M78.4 59C77.2 81.5 62 98.8 44.6 98 27 97 13.8 78 15 55.8S31.4 16 49 17s30.6 19.8 29.4 42z"/>
  <path fill="#F9FB77" d="M78.2 59C77 81.4 62 98.6 44.4 97.6c-17.4-1-30.4-20-29.4-42S31.5 16 49 17c17.2 1 30.3 20 29 42z"/>
  <path fill="#F9FB78" d="M78 59c-1.2 22-16.3 39.2-33.7 38.2-17.3-1-30.4-19.8-29-42 1-22 16.2-39 33.5-38C66.2 18 79.3 36.8 78 59z"/>
  <path fill="#F9FB79" d="M77.8 59c-1.3 22-16.3 39-33.6 38S14 77 15.2 55c1.3-22 16.3-39 33.6-38s30.2 20 29 42z"/>
  <path fill="#F9FB7A" d="M77.6 58.8c-1.3 22-16.3 38.8-33.5 37.8C27 95.6 14 77 16 55c1-21.8 16-38.7 33.4-37.7S79 37 77.7 58.8z"/>
  <path fill="#F9FB7B" d="M77.4 58.7C76 80.5 61 97.4 44 96.3S14 76.7 15.4 55c1.3-22 16.2-38.7 33.3-37.6s30 19.5 28.7 41.3z"/>
  <path fill="#F9FB7C" d="M77 58.7C76 80.4 61 97 44 96S14 76.5 15.3 54.8s16.2-38.4 33.3-37.4c17 1 29.8 19.6 28.4 41.3z"/>
  <path fill="#F9FB7D" d="M77 58.6c-1.4 21.6-16.3 38.2-33.2 37-17-1-29.7-19.3-28.3-41 1.3-21.5 16.2-38.2 33-37s30 19.4 28.5 41z"/>
  <path fill="#F9FB7E" d="M76.7 58.5c-1.4 21.5-16.2 38-33 37-17-1.2-29.5-19.5-28-41 1.2-21.5 16-38 33-37 16.8 1.2 29.4 19.5 28 41z"/>
  <path fill="#F9FB7F" d="M76.5 58.4c-1.4 21.4-16.2 38-33 36.7-16.8-1-29.3-19-28-40C17 34 32 17 48.5 18c17 1 29.5 19.3 28 40.7z"/>
  <path fill="#F9FB80" d="M76.3 58.3c-1.4 21.3-16 37.7-33 36.5-16.6-1-29-19.3-27.6-40.6C17 33 31.7 16.6 48.5 17.7 65.2 19 77.7 37 76.3 58.3z"/>
  <path fill="#F9FB81" d="M76 58.3c-1.4 21.2-16 37.4-32.7 36.3-16.6-1.2-29-19.3-27.6-40.5 1.5-21 16-37 32.8-36C65 19 77.5 37 76 59z"/>
  <path fill="#F9FB82" d="M75.8 58.2c-1.4 21-16 37.2-32.6 36-16.6-1-28.8-19-27.4-40.2 1.5-21 16-37.3 32.6-36 16.6 1 29 19 27.4 40z"/>
  <path fill="#F9FB83" d="M75.6 58C74 79 59.6 95.3 43 94c-16.4-1.2-28.6-19.2-27-40.2s16-37 32.4-35.8C65 19 77 37 75.6 58z"/>
  <path fill="#FAFB84" d="M75.4 58C74 79 59.4 95 43 93.7c-16.4-1.2-28.6-19-27-40 1.4-21 16-37 32.4-35.7s28.5 19 27 40z"/>
  <path fill="#FAFB85" d="M75.2 58c-1.5 20.7-16 36.6-32.3 35.4-17-1.2-29-19-27-40C17 33 32 17 48 18.2c16.4 1.3 28.4 19.2 27 40z"/>
  <path fill="#FAFB86" d="M75 58c-1.6 20.6-16 36.3-32.3 35S14.5 74 16 53.5C17.7 32.7 32 17 48.4 18.2s28 19 26.6 39.8z"/>
  <path fill="#FAFB87" d="M74.7 57.8c-1.5 20.6-16 36.3-32 35s-28-19-26.6-39.5c2-20.6 16-36.3 33-35 17 1.2 28 19 27 39.5z"/>
  <path fill="#FAFB88" d="M74.5 57.7c-1.6 20.5-16 36-32 34.8s-28-19-26.3-39.4c1.6-20 16-36 32-34s28 19 26.3 40z"/>
  <path fill="#FAFB89" d="M74.3 57.6c-1.6 20.4-16 36-32 34.6-16-1.3-27.6-18.8-26-39.2 1.5-20.4 15.8-36 32-34.6 16 1.3 27.6 18.8 26 39.2z"/>
  <path fill="#FAFB8A" d="M74 57.6C72.6 77.8 58.3 93.2 42.4 92c-16-1.4-27.6-19-26-39s16-36 31.6-34.6c16 1.3 27.7 18.8 26 39z"/>
  <path fill="#FAFB8B" d="M74 57.5c-2 20.2-16 35.5-32 34C26 90.3 14.6 73 16.2 52.7c1.8-20.2 16-35.5 31.8-34C64 20 75.5 37.3 74 57.5z"/>
  <path fill="#FAFB8C" d="M73.6 57.4c-1.6 20-15.8 35.3-31.5 34-15-1.4-27-18.8-25-39 2-20 16-35.2 32-34 16 1.6 27 19 26 39z"/>
  <path fill="#FAFB8D" d="M73.4 57.3c-1.7 20-15.7 35-31.5 33.8-16-1-28-18-26-38s16-35 31-33c15 1 27 18 25 38z"/>
  <path fill="#FAFB8E" d="M73.2 57.2c-1.7 20-15.7 35-31.4 33.6-15.6-1.4-27-18.6-25.2-38.5 1.7-20 15.7-35 31.4-33.5s27 18.6 25.2 38.4z"/>
  <path fill="#FAFB8F" d="M73 57.2C71.3 77 57.3 92 41.7 90.5 26.2 89 15 72 16.7 52.2c1.6-19.8 15.6-34.7 31-33.2 15.7 1 27 18.3 25.3 38z"/>
  <path fill="#FAFB90" d="M72.8 57C71 77 57 91.7 41.6 90.3 26 88.8 15 71.7 16.6 52c2-19.6 16-34.5 31.4-33s26.5 18.4 24.8 38z"/>
  <path fill="#FAFB91" d="M72.5 57c-1.7 19.6-15.6 34.3-31 33C26 88.4 15 71.4 16.8 52c1.7-19.7 15.6-34.4 31-33 15.4 1.4 26.5 18.4 24.7 38z"/>
  <path fill="#FAFB92" d="M72.3 57c-1.7 19.4-15.6 34-31 32.6-15.3-1.4-26-18.4-24.3-38 1.8-19.3 15.7-34 31-32.5s26 19 24.3 38z"/>
  <path fill="#FAFB93" d="M72 56.8c-1.7 19.4-15.5 34-30.7 32.5S15 71 17 51.6c1.7-19.4 15.5-34 30.8-32.5C63 21 73.8 38 72 57z"/>
  <path fill="#FAFB94" d="M72 56.8C70 76 56.2 90.5 41 89c-15-1.4-25.8-18.3-24-37.5 1.8-19.3 15.5-33.7 30.7-32.3C63 20.7 73.7 37.5 72 56.8z"/>
  <path fill="#FAFB95" d="M71.7 56.7C69.7 76 56 90.2 41 88.7S15.2 70.5 17 51.3c2-19 15.6-33.5 30.7-32 15 1.5 25.8 18.2 24 37.4z"/>
  <path fill="#FAFB96" d="M71.5 56.6C69.5 75.6 56 90 41 88.4s-26-18-24-37.2c2-19 15.6-33.3 30.6-31.8s25.7 18 24 37.2z"/>
  <path fill="#FAFB97" d="M71.2 56.5c-1.8 19-15.5 33.2-30.4 31.6-15-1-25.5-18-23.6-37C19 32 32.7 18 47.6 20c15 1.6 25.5 18.2 23.6 37z"/>
  <path fill="#FAFB98" d="M71 56.5c-2 18.8-15.5 33-30.3 31.3-15-1.5-25.4-18-23.5-37C19.2 32 32.7 18 47.6 19.5s25.3 18 23.4 37z"/>
  <path fill="#FAFB99" d="M70.8 56.4C68.8 75 55.4 89 40.6 87.6c-14.8-1.6-25.2-18-23.3-36.8C19.3 32 32.7 18 47.5 19.6c14.8 1.5 25.2 18 23.3 36.8z"/>
  <path fill="#FAFB9A" d="M70.6 56.3c-2 18.7-15.4 32.5-30 31-14.8-1.6-25.2-18-23.2-36.7 2-18.6 15.4-32.5 30-31 14.8 1.6 25 18 23.2 36.7z"/>
  <path fill="#FAFB9B" d="M70.4 56.2c-2 18.6-15.4 32.3-30 30.8-14.7-1.6-25-18-23-36.5 2-18.6 15.4-32.3 30-30.8 14.7 1.6 25 18 23 36.5z"/>
  <path fill="#FAFC9C" d="M70 56c-1.7 18.7-15 32.4-29.7 30.8-14.5-1.6-24.7-18-22.7-36.3C19.6 32 33 18.3 47.6 20 61.8 21.3 72 37.7 70 56z"/>
  <path fill="#FAFC9D" d="M70 56c-2 18.4-15.4 32-30 30.4-14.3-1.6-24.5-17.8-22.5-36.2 2-18.3 15.4-32 30-30.3C61.8 21 72 37 70 56z"/>
  <path fill="#FAFC9E" d="M69.7 56c-2 18.2-15.3 31.7-29.7 30-14.4-1.5-24.4-17.6-22.4-36 2-18 15.4-31.6 29.7-30s24.4 17.7 22.4 36z"/>
  <path fill="#FAFC9F" d="M69.5 56c-2 18-15.3 31.4-29.6 29.8C25 84.2 15 68 17 50c2-18.2 15.3-31.6 29.6-30C61.2 21.7 71 37.7 69 56z"/>
  <path fill="#FAFCA0" d="M69.3 55.8c-2 18-15.3 31.4-29.5 29.7-14.3-1.6-24-17.6-22-35.7C19.8 31.8 33 18.5 47 20c14.5 2 24.2 18 22.2 36z"/>
  <path fill="#FAFCA1" d="M69 55.7c-2 18-15 31.3-29.2 29.5s-24-17.6-22-35.5C20 31.7 33 18.5 47.3 20.2c14 1.7 24 17.6 22 35.5z"/>
  <path fill="#FAFCA2" d="M68.8 55.7c-2 17.8-15.2 31-29.3 29.2-14-2-23.7-18-21.5-36 2-18 15-31 29.2-30 14 2 23.8 18 21.6 35z"/>
  <path fill="#FAFCA3" d="M68.6 55.6c-2 17.7-15.2 30.8-29.2 29C25.4 83 15.8 67.2 18 49.4c2-17.8 15-30.8 29-29 14 1.6 23.8 17.3 21.7 35z"/>
  <path fill="#FAFCA4" d="M68.4 55.5c-2 17.7-15.2 30.6-29 29C25.4 82.5 16 67 18 49.3s15.2-30.6 29-29c14 2 23.6 17.7 21.5 35.3z"/>
  <path fill="#FAFCA5" d="M68.2 55.4C66 73 53 85.8 39.2 84c-13.8-1.7-23.3-17.3-21-35C20 31.7 33 18.8 47 20.6c14 1.7 23.3 17.4 21.2 35z"/>
  <path fill="#FAFCA6" d="M68 55.3c-2.2 17.5-15 30.2-29 28.5C25.4 82 16 66.4 18 49c2.3-17.5 15.2-30.2 29-28.4S70 38 68 55.3z"/>
  <path fill="#FAFCA7" d="M67.7 55.3c-2.2 17.3-15 30-28.7 28.2-13.7-1.8-23-17.3-20.8-34.7 2.2-17.3 15-30 28.8-28.2C60.6 22.4 70 38 67.7 55.3z"/>
  <path fill="#FAFCA8" d="M67.5 55.2c-2.2 17.2-15 29.8-28.6 28C25 81.4 16 66 18 48.7s15-29.8 28.7-28c13.7 1.8 23 17.3 20.7 34.5z"/>
  <path fill="#FAFCA9" d="M67.3 55c-2.2 17.3-15 29.7-28.6 28C25.2 81 16 65.6 18.3 48.5c2.3-17 15-29.5 28.7-27.7C60.3 22.6 69.4 38 67.2 55z"/>
  <path fill="#FAFCAA" d="M67 55c-2 17-15 29.4-28.3 27.6-13.4-1.8-22.5-17-20.2-34.2C20.7 31.4 33.5 19 47 21c13.3 1.6 22.4 17 20 34z"/>
  <path fill="#FAFCAB" d="M67 55c-2.4 17-15 29-28.5 27.3-13.4-1.8-22.3-17-20-34S33.5 19 46.7 21C60 22.8 69 38 66.7 55z"/>
  <path fill="#FAFCAC" d="M66.7 55c-2.4 16.7-15 29-28.3 27s-22.2-17-20-33.8 15-29 28.4-27.2C60 23 69 38 66.8 55z"/>
  <path fill="#FAFCAD" d="M66.4 54.8c-2.3 16.7-15 28.8-28 27-13.4-2-22.4-17-20-33.8 2.4-16.7 15-28.8 28-27C60 23 69 38 66.4 55z"/>
  <path fill="#FAFCAE" d="M66.2 54.7c-2.3 16.7-15 28.6-28 26.7s-22-17-19.6-33.5c2.4-17 15-29 28-27s22 17 19.6 33z"/>
  <path fill="#FAFCAF" d="M66 54.6C63.6 71.2 51 83 38 81c-13-1.8-21.7-16.7-19.3-33.3s15-28.4 28-26.5c13 2 21.7 17 19.3 33.4z"/>
  <path fill="#FAFCB0" d="M65.8 54.6C63.4 71 50.8 82.8 38 81c-13-2-21.6-17-19.2-33.4s14.8-28.2 27.8-26.3c13 2 21.6 16.8 19.2 33.3z"/>
  <path fill="#FAFCB1" d="M65.6 54.5c-2.4 16.3-15 28-27.8 26-13-2-21.4-16.7-19-33 2.4-16.4 14.8-28 27.8-26 13 1.8 21.4 16.6 19 33z"/>
  <path fill="#FAFCB2" d="M65.3 54.4c-2.4 16.2-14.8 27.8-27.6 26-12.8-2-21.2-16.8-18.8-33 2-16.3 14-28 27-26s21 16.8 19 33z"/>
  <path fill="#FAFCB3" d="M65 54.3C62.8 70.5 50.5 82 37.7 80 25 78 16.7 63.3 19 47.2s14.7-27.6 27.5-25.7c12.7 2 21 16.7 18.6 32.8z"/>
  <path fill="#FBFCB4" d="M65 54.2c-2.6 16-14.8 27.5-27.5 25.5S16.5 63 19 47c2.5-16 14.8-27.4 27.4-25.4 12.7 2 21 16.6 18.5 32.6z"/>
  <path fill="#FBFCB5" d="M64.7 54.2c-2.5 16-14.7 27.2-27.3 25.2C24.8 77.4 16.6 62.8 19 47c2.7-16 15-27.4 27.5-25.4S67.3 38 64.8 54z"/>
  <path fill="#FBFCB6" d="M64.5 54C62 70 49.8 81 37.3 79S16.6 62.7 19 47c2.7-16 14.8-27 27.3-25C59 23.8 67 38.3 64.5 54z"/>
  <path fill="#FBFCB7" d="M64.3 54c-2.6 15.7-14.7 26.8-27 24.8-12.6-2-20.6-16.4-18-32.2C21.7 31 34 19.8 46.3 21.8s20.5 16.5 18 32.2z"/>
  <path fill="#FBFCB8" d="M64 54c-2.5 15.6-14.6 26.6-27 24.5-12.3-2-20.3-16.4-17.7-32C21.8 31 34 20 46.3 22S66.6 38.2 64 54z"/>
  <path fill="#FBFCB9" d="M63.8 54c-2.6 15.4-14.6 26.3-27 24.2S17 62 19.4 46.4C22 30.8 34 20 46.4 22c12 2 20 16.3 17.4 32z"/>
  <path fill="#FBFCBA" d="M63.6 53.8C61 69.2 49 80 36.8 77.8c-12.2-2-20-16-17.4-31.6C22 30.8 34 20 46.2 22.2c12.2 2 20 16 17.4 31.6z"/>
  <path fill="#FBFCBB" d="M63.4 53.7c-2.6 15.3-14.6 26-26.7 24C24.7 75.4 17 61.3 19.5 46 22 31 34 20 46 22c12.3 2.2 20 16.4 17.4 31.7z"/>
  <path fill="#FBFCBC" d="M63.2 53.6c-2.7 15.2-14.6 26-26.6 23.8-12-2.2-19.7-16.2-17-31.5C22 30 34 20 46 22c12.2 2 19.8 16.2 17.2 31.4z"/>
  <path fill="#FBFCBD" d="M63 53.5C60.2 68.7 48.3 79.2 36.4 77c-12-2-19.6-16-17-31.2C22 30.8 34 20 46 22.3c12 2 19.6 16 17 31.2z"/>
  <path fill="#FBFCBE" d="M62.7 53.5C60 68.5 48.2 79 36.4 76.8c-12-2.2-19.4-16-16.7-31C22.3 30.5 34 20 46 22.3s19.4 16 16.7 31z"/>
  <path fill="#FBFCBF" d="M62.5 53.4c-2.7 15-14.4 25.2-26.3 23-11.8-2-19.2-16-16.5-31 2.7-14.8 14.5-25 26.3-23s19.2 16 16.5 31z"/>
  <path fill="#FBFCC0" d="M62.3 53.3C59.6 68 48 78.3 36 76.3c-11.6-2.3-19-16-16.2-31 2.7-14.7 14.4-25 26-22.8 12 2.2 19.2 16 16.5 30.8z"/>
  <path fill="#FBFCC1" d="M62 53.2C59.4 68 47.8 78.2 36 76c-11.6-2.3-19-16-16-30.7 2.6-14.8 14.3-25 26-22.7 11.6 2.2 18.8 16 16 30.6z"/>
  <path fill="#FBFCC2" d="M61.8 53c-2.8 15-14.3 25-26 22.7-11.5-2.2-18.6-16-16-30.5s14.5-24.6 26-22.3c11.7 2 19 15 16.2 30z"/>
  <path fill="#FBFCC3" d="M61.6 53C59 67.7 47.3 77.6 35.8 75.4 24.3 73 17.2 59.4 20 45c2.8-14.5 14.3-24.5 25.8-22.3C57.3 25 64.4 38.5 61.6 53z"/>
  <path fill="#FBFCC4" d="M61.4 53C58.6 67.4 47 77.3 35.7 75 24.2 72.8 17.3 59.3 20 44.8c2.8-14.4 14.4-24.2 25.8-22C57.2 25 64.2 38.6 61.4 53z"/>
  <path fill="#FBFCC5" d="M61.2 53C58.4 67 47 77 35.6 74.6c-11.4-2-18.3-15.6-15.6-30 3-14.2 14.4-24 25.7-21.7C57 25 64 38 61.2 53z"/>
  <path fill="#FBFCC6" d="M61 52.8c-3 14.2-14.3 24-25.6 21.6-11.2-2.2-18-15.6-15.2-29.8C23 30.3 34.4 20.6 45.7 23s18 15.6 15.3 29.8z"/>
  <path fill="#FBFCC7" d="M60.8 52.7C57.8 67 46.5 76.4 35.3 74c-11.2-2.2-18-15.5-15-29.6 2.7-14 14-23.7 25.3-21.4 11.2 2.3 18 15.6 15 29.7z"/>
  <path fill="#FBFCC8" d="M60.5 52.7c-2.8 14-14.2 23.5-25.3 21.2-11-3-17.8-16-15-30 3-14 14.3-24 25.4-21 11 2 17.8 15 15 29z"/>
  <path fill="#FBFCC9" d="M60.3 52.6c-3 14-14.2 23.3-25.2 21C24 71.2 18 58 21 44c2.8-13.8 14-23.2 25-20.8s17.5 15.5 14.6 29.4z"/>
  <path fill="#FBFCCA" d="M60 52.5c-2.8 13.8-14 23-25 20.8C24 71 17.5 57.8 20.4 44c3-13.8 14.2-23 25-20.8C56.4 25.6 63 38.7 60 52.5z"/>
  <path fill="#FBFCCB" d="M60 52.4C57 66 45.6 75.4 35 73c-11-2.4-17.4-15.4-14.5-29 3-13.8 14-23 25-20.7 11 2.4 17.3 15.4 14.4 29z"/>
  <path fill="#FBFCCC" d="M59.7 52.4c-3 13.6-14 22.7-25 20.3-10.7-2.4-17-15.4-14-29C23.4 30 34.7 21 45.4 23.4c10.8 2.4 17 15.3 14.2 29z"/>
  <path fill="#FBFCCD" d="M59.4 52.3c-3 13.5-14 22.5-24.8 20C24 70 17.6 57 20.6 43.6s14-22.5 24.8-20c10.7 2.3 17 15.2 14 28.7z"/>
  <path fill="#FBFCCE" d="M59.2 52.2c-3 13.4-14 22.3-24.7 20C24 69.6 17.7 56.8 20.7 43.4c3-13.5 14-22.4 24.7-20S62.2 38.7 59.2 52z"/>
  <path fill="#FBFCCF" d="M59 52c-3 13.5-14 22.3-24.6 20C24 69.4 17.7 56.6 20.8 43.3c3-13.3 14-22 24.5-19.7C56 26 62 38.8 59 52z"/>
  <path fill="#FBFCD0" d="M58.8 52c-3 13.2-14 22-24.5 19.5-10.5-2.4-16.5-15-13.5-28.3 3-13.2 14-22 24.5-19.5s16.5 15 13.5 28.3z"/>
  <path fill="#FBFCD1" d="M58.6 52c-3 13-14 21.7-24.4 19.2C23.8 68.8 17.8 56.2 21 43s14-21.7 24.3-19.2 16.3 15 13.3 28.2z"/>
  <path fill="#FBFCD2" d="M58.4 52c-3 13-14 21.4-24.3 19-10-2.5-16-15-13-28s14-21.7 24-19.3 17 15 14 28z"/>
  <path fill="#FBFCD3" d="M58 51.8c-3 13-13.8 21.3-24 18.8-10.3-2.4-16-15-13-27.8 3-13 14-21.4 24.2-19 10.2 2.6 16 15 13 28z"/>
  <path fill="#FBFCD4" d="M58 51.7C54.7 64.5 44 73 33.7 70.4c-10-2.6-15.8-15-12.7-27.8 3.2-12.8 14-21 24-18.6 10.3 2.5 16 15 13 27.7z"/>
  <path fill="#FBFCD5" d="M57.7 51.6c-3 12.7-14 21-24 18.5S18 56 21 43c3.3-12.7 14-21 24-18.4 10.3 2 16 14.4 12.8 27z"/>
  <path fill="#FBFCD6" d="M57.5 51.6c-3.2 12.6-14 20.7-24 18.2C23.5 67.2 18 55 21.3 42.4c3-12.7 13.7-20.8 24-18.4 10 2.7 15.3 15 12.2 27.6z"/>
  <path fill="#FBFCD7" d="M57.3 51.5C54 64 43.3 72 33.5 69.5 23.5 67 18 54.7 21.3 42.2c3-12.5 13.8-20.5 23.7-18S60.4 39 57.3 51.5z"/>
  <path fill="#FBFCD8" d="M57 51.4c-3.2 12.4-13.7 20.4-23.6 17.8-10-2.6-15.3-14.7-12-27C24.4 29.6 35 21.6 45 24c9.8 3 15.2 15 12 27.5z"/>
  <path fill="#FBFCD9" d="M56.8 51.3C53.6 63.6 43 71.5 33.3 69c-9.8-2.7-15-14.8-12-27s14-20.2 23.6-17.6 15 14.6 11 27z"/>
  <path fill="#FBFCDA" d="M56.6 51.3c-3.2 12-13.7 20-23.4 17.3-9.7-2.6-15-14.6-11.7-26.8 3.2-12.2 13.7-20 23.4-17.4S59 39 56 51.2z"/>
  <path fill="#FBFCDB" d="M56.4 51.2C53 63.2 42.7 71 33 68.2 23.4 65.8 18.3 54 21.5 41.8 24.8 29.8 35.2 22 45 24.5 54.4 27 59.6 39 56.3 51.2z"/>
  <path fill="#FBFCDC" d="M56.2 51C53 63 42.5 70.8 33 68c-9.6-2.6-14.7-14.5-11.4-26.5 3.3-12 13.7-19.6 23.2-17C54.4 27.2 59.5 39 56.2 51z"/>
  <path fill="#FBFCDD" d="M56 51c-3.4 12-13.7 19.4-23.2 16.7-9.5-2.6-14.5-14.4-11-26.3 3.2-12 13.5-19.4 23-16.7C54.3 27.3 59.3 39 56 51z"/>
  <path fill="#FBFCDE" d="M55.7 51c-3.3 11.7-13.6 19-23 16.4-9.4-2.6-14.3-14.4-11-26.2 3.3-11.7 13.7-19 23-16.5C54 27.4 59 39 55.7 51z"/>
  <path fill="#FBFCDF" d="M55.5 51c-3.3 11.5-13.6 18.8-23 16-9.2-2.5-14-14.2-10.7-26 3.2-11.5 13.6-19 23-16s14 14.4 10.7 26z"/>
  <path fill="#FBFCE0" d="M55.3 50.8c-3.4 11.6-13.6 18.8-22.8 16-9.3-2.7-14-14.2-10.7-25.8s13.6-18.8 23-16c9 2.6 14 14.2 10.5 25.8z"/>
  <path fill="#FBFCE1" d="M55 50.7c-3.3 11.5-13.5 18.6-22.6 16-9.2-3-14-14.4-10.5-26C25 29.4 35 22.3 44 25c9.2 2.7 14 14.2 10.5 25.7z"/>
  <path fill="#FBFCE2" d="M55 50.6C51.4 62 41.2 69 32.2 66.3 23.2 63.5 18.6 52 22 40.7 25.4 29.3 35.5 22.3 44.6 25c9 2.8 13.7 14.2 10.3 25.6z"/>
  <path fill="#FBFCE3" d="M54.6 50.5C51.2 61.8 41 68.7 32 66c-9-2.8-13.4-14.2-10-25.4C25.5 29.3 35.5 22.4 44.5 25c9 3 13.6 14.3 10 25.5z"/>
  <path fill="#FCFCE4" d="M54.4 50.5C51 61.5 41 68.5 32 65.7c-9-2.8-13.3-14-10-25.3 3.5-11.2 13.6-18 22.5-15.2 9 2.8 13.4 14 10 25.3z"/>
  <path fill="#FCFCE5" d="M54.2 50.4c-3.5 11-13.4 17.8-22.3 15-9-2.8-14-14-10-25 3-11.2 13-18 22-15 9 2.7 13 14 9 25z"/>
  <path fill="#FCFCE6" d="M54 50.3C50.5 61.3 40.6 68 31.8 65c-8.8-2.7-13-14-9.6-25 3.5-10.8 13.5-17.5 22.2-14.7 8.8 2.8 13 14 9.6 25z"/>
  <path fill="#FCFCE7" d="M53.8 50.2c-3.5 11-13.4 17.4-22 14.6-8.8-2.8-13-14-9.5-24.8 3.5-11 13.4-17.4 22-14.6 8.8 2.8 13 14 9.5 24.8z"/>
  <path fill="#FCFCE8" d="M53.6 50c-3.6 11-13.4 17.4-22 14.5-8.6-2.8-12.8-14-9.2-24.6s13.3-18 22-15c8.6 3 12.6 14 9 24z"/>
  <path fill="#FCFCE9" d="M53.3 50C49.8 60.8 40 67 31.5 64.3c-8.6-2.8-12.6-13.8-9-24.5 3.5-10.7 13.3-17 21.8-14 8.5 2.7 12.6 13.7 9 24.4z"/>
  <path fill="#FCFCEA" d="M53 50c-3.4 10.6-13 16.8-21.6 14-8.4-3-12.4-14-9-24.5C26 29 36 22.8 44.4 25.5c8.4 3 12.4 14 8.8 24.5z"/>
  <path fill="#FCFCEB" d="M53 50c-3.8 10.3-13.5 16.4-22 13.6-8.4-3-12.2-13.8-8.7-24.3C26 29 35.8 22.8 44.3 25.7c8.3 3 12.2 13.7 8.6 24.2z"/>
  <path fill="#FCFCEC" d="M52.7 49.8C49 60.2 39.4 66.3 31 63.4c-8.2-3-12-13.7-8.4-24C26.2 28.8 36 22.8 44.2 25.7c8.3 3 12 13.7 8.5 24z"/>
  <path fill="#FCFCED" d="M52.5 49.8C48.8 60 39.2 66 31 63s-12-13.6-8.3-23.8C26.3 29 36 23 44 26c8.4 2.8 12 13.5 8.5 23.8z"/>
  <path fill="#FCFCEE" d="M52.2 49.7c-3.6 10-13.2 16-21.3 13-9-3-12-13.5-9-23.7 4-10 14-16 22-13s12 13.5 8 23.7z"/>
  <path fill="#FCFCEF" d="M52 49.6c-3.6 10-13.2 15.8-21.2 13-8-3-11.7-13.6-8-23.7S36 23 44 26s11.7 13.5 8 23.6z"/>
  <path fill="#FCFCF0" d="M51.8 49.5c-3.7 10-13.2 15.7-21 12.7-8-3-11.6-13.5-8-23.4S36 23 44 26s11.5 13.5 7.8 23.5z"/>
  <path fill="#FCFCF1" d="M51.6 49.4c-3.7 10-13 15.5-21 12.5S19 48 22.8 38c3.6-10 13-15.4 21-12.4s11.2 14 7.6 23.7z"/>
  <path fill="#FCFCF2" d="M51.4 49.4c-3.8 9.7-13 15.2-21 12.2-7.8-3-11-13.4-7.4-23C26.7 28.6 36 23 44 26c7.8 3 11 13.4 7.4 23.2z"/>
  <path fill="#FCFCF3" d="M51 49.3c-3.6 9.7-13 15-20.7 12-7.7-3-11-13.3-7.2-23 4-9.6 13-15 21-12s11 13.3 7 23z"/>
  <path fill="#FCFCF4" d="M51 49.2c-4 9.6-13 15-21 11.8-7.7-3-10.8-13.2-7-22.8 3.7-9.6 13-15 20.7-11.8 7.5 3 10.7 13.2 7 22.8z"/>
  <path fill="#FCFCF5" d="M50.7 49C47 58.7 37.7 64 30 60.8c-7.5-3-10.6-13.2-6.8-22.6 3.8-9.4 13-14.6 20.6-11.5 7.6 3 10.7 13.2 7 22.6z"/>
  <path fill="#FCFCF6" d="M50.5 49c-3.8 9.4-13 14.5-20.5 11.4-7.5-3-10.6-13-6.7-22.5 3.7-10 13-15 20.5-12s10.5 13 6.7 23z"/>
  <path fill="#FCFCF7" d="M50.3 49c-4 9.2-13 14.2-20.4 11.2-8-3-11-13-7-22.4 4-9.3 13-14.3 20-11.2 8 3 11 13 7 22.4z"/>
  <path fill="#FCFCF8" d="M50 49c-3.8 9-13 14-20.3 11-7.3-3.2-10.2-13.2-6.3-22.4s13-14 20.3-11C51 30 54 39.6 50 49z"/>
  <path fill="#FCFCF9" d="M49.8 48.8c-3.8 9-13 14-20.2 10.8-7.3-3.2-10-13-6.2-22 4-9.2 13-14 20.3-11s10 13 6 22.2z"/>
  <path fill="#FCFCFA" d="M49.6 48.7c-4 9-13 13.7-20 10.6-7.3-3.2-10-13-6-22 3.8-9 12.8-13.6 20-10.5 7.2 3.2 10 13 6 22z"/>
  <ellipse cx="81.7" cy="253" fill="#FCFCFB" ry="17.5" rx="14.1" transform="rotate(23.85 556.518 40.916)"/>
  <ellipse cx="82.9" cy="255.7" fill="#FCFCFC" ry="17.4" rx="14" transform="rotate(24.19 556.467 40.88)"/>
  <path fill="#FDFDFD" d="M47.4 47c-3 8-10.7 12.3-17 10-6.5-2.5-9.2-11-6.2-19 3-7.8 10.7-12.3 17-9.8S50.5 39 47.5 47z"/>
  <path fill="#FEFEFE" d="M45.5 45.3c-2 7-8.4 11.5-14 9.8-5.8-1-8.8-8-6.7-16s8.5-11 14.2-9c5.7 2 8.6 9 6.5 16z"/>
  <path fill="#FEFEFE" d="M43.7 43.7c-1.2 6.3-6.2 10.6-11.3 9.6-5-1-8-7-7-13 1.2-6.4 6.3-10.7 11.3-9.7 5 1 8.2 6.8 7 13z"/>
  <path fill="#FFF" d="M42 42c-.4 5.5-4 9.8-8.5 9.5-4.4-.2-7.7-5-7.5-10.3.3-5.5 4-9.7 8.5-9.5 4.3.3 7.7 5 7.4 10.4zm7.3-11.2c-.3 2-1.8 3.2-3.3 3-1.4-.3-2.3-2-2-4 .4-1.8 1.8-3 3.3-2.8s2.3 2 2 3.8z"/>
  <path fill="#F7E51E" d="M67 155.5c-2.2.7-4.5 8.3-4.3 10.5.4 3 3.5 1 5 .4 1.5-.5 3 .2 4.6.3 1.5 0 3.7-1.3 5-.5 1.4-2.3-3.6-6.4-5-8-.7-.8-1.8-2.7-3-3-1-.4-1.3.2-2.3.3"/>
  <path fill="none" d="M65.5 156c1.7-1 3.5-.7 5.2-.6"/>
  <path fill="#C1272D" d="M65.5 157c1.7-.6 3.4-.5 5.2-.3v-2.5c-1.8-.2-3.5-.3-5.2.4-.3 0 .2 2.4 0 2.5z"/>
</svg>
